<?xml version="1.0" encoding="us-ascii" standalone="no"?><svg xmlns="http://www.w3.org/2000/svg" xmlns:xlink="http://www.w3.org/1999/xlink" contentStyleType="text/css" height="577px" preserveAspectRatio="none" style="width:383px;height:577px;background:#FFFFFF;" version="1.1" viewBox="0 0 383 577" width="383px" zoomAndPan="magnify"><defs/><g><!--class frc.robot.DriverJoystick--><a href="DriverJoystick.html" target="_top" title="DriverJoystick.html" xlink:actuate="onRequest" xlink:href="DriverJoystick.html" xlink:show="new" xlink:title="DriverJoystick.html" xlink:type="simple"><g id="elem_frc.robot.DriverJoystick"><rect codeLine="5" fill="#F1F1F1" height="440.0462" id="frc.robot.DriverJoystick" rx="2.5" ry="2.5" style="stroke:#181818;stroke-width:0.5;" width="367" x="9" y="109.68"/><ellipse cx="143.25" cy="131.024" fill="#ADD1B2" rx="11" ry="11" style="stroke:#181818;stroke-width:1.0;"/><path d="M142.7188,137.9458 Q140.9688,137.9458 139.8281,137.2115 Q138.7031,136.4615 138.1406,135.1177 Q137.5938,133.7583 137.5938,131.9615 Q137.5938,129.9302 138.25,128.4771 Q138.9063,127.024 140.1875,126.2427 Q141.4688,125.4615 143.3438,125.4615 Q144.2344,125.4615 144.9063,125.649 Q145.5781,125.8208 146.2656,126.1646 L145.4531,128.1802 Q144.8281,127.8677 144.2813,127.7427 Q143.75,127.6177 143.2656,127.6177 Q142.0938,127.6177 141.3906,128.149 Q140.6875,128.6802 140.3906,129.6333 Q140.0938,130.5865 140.0938,131.8521 Q140.0938,133.8677 140.8125,134.8365 Q141.5313,135.7896 143.125,135.7896 Q143.7188,135.7896 144.3438,135.6333 Q144.9688,135.4771 145.7969,135.1021 L145.7969,137.3208 Q145.0625,137.6333 144.2656,137.7896 Q143.4844,137.9458 142.7188,137.9458 Z " fill="#000000"/><text fill="#000000" font-family="sans-serif" font-size="14" lengthAdjust="spacing" textLength="90" x="163.75" y="129.6459">DriverJoystick</text><text fill="#000000" font-family="sans-serif" font-size="10" lengthAdjust="spacing" textLength="41" x="188.25" y="144.4379">frc.robot</text><line style="stroke:#181818;stroke-width:0.5;" x1="10" x2="375" y1="152.3679" y2="152.3679"/><rect fill="none" height="6" style="stroke:#C82930;stroke-width:1.0;" width="6" x="17" y="164.4019"/><text fill="#000000" font-family="sans-serif" font-size="14" lengthAdjust="spacing" textLength="147" x="29" y="171.3338">driveTrain: DriveTrain</text><rect fill="none" height="6" style="stroke:#C82930;stroke-width:1.0;" width="6" x="17" y="183.4698"/><text fill="#000000" font-family="sans-serif" font-size="14" lengthAdjust="spacing" textLength="155" x="29" y="190.4018">dashboard: Dashboard</text><rect fill="none" height="6" style="stroke:#C82930;stroke-width:1.0;" width="6" x="17" y="202.5377"/><text fill="#000000" font-family="sans-serif" font-size="14" lengthAdjust="spacing" textLength="195" x="29" y="209.4697">shooterHoods: ShooterHoods</text><rect fill="none" height="6" style="stroke:#C82930;stroke-width:1.0;" width="6" x="17" y="221.6056"/><text fill="#000000" font-family="sans-serif" font-size="14" lengthAdjust="spacing" textLength="124" x="29" y="228.5376">maxPower: double</text><rect fill="none" height="6" style="stroke:#C82930;stroke-width:1.0;" width="6" x="17" y="240.6735"/><text fill="#000000" font-family="sans-serif" font-size="14" lengthAdjust="spacing" textLength="147" x="29" y="247.6055">prevSideways: double</text><rect fill="none" height="6" style="stroke:#C82930;stroke-width:1.0;" width="6" x="17" y="259.7414"/><text fill="#000000" font-family="sans-serif" font-size="14" lengthAdjust="spacing" textLength="140" x="29" y="266.6734">prevForward: double</text><rect fill="none" height="6" style="stroke:#C82930;stroke-width:1.0;" width="6" x="17" y="278.8094"/><text fill="#000000" font-family="sans-serif" font-size="14" lengthAdjust="spacing" textLength="128" x="29" y="285.7413">prevRotate: double</text><polygon fill="none" points="20,296.8773,16,302.8773,24,302.8773" style="stroke:#1963A0;stroke-width:1.0;"/><text fill="#000000" font-family="sans-serif" font-size="14" lengthAdjust="spacing" textLength="216" x="29" y="304.8093">forwardLimiter: SlewRateLimiter</text><polygon fill="none" points="20,315.9452,16,321.9452,24,321.9452" style="stroke:#1963A0;stroke-width:1.0;"/><text fill="#000000" font-family="sans-serif" font-size="14" lengthAdjust="spacing" textLength="224" x="29" y="323.8772">sidewaysLimiter: SlewRateLimiter</text><polygon fill="none" points="20,335.0131,16,341.0131,24,341.0131" style="stroke:#1963A0;stroke-width:1.0;"/><text fill="#000000" font-family="sans-serif" font-size="14" lengthAdjust="spacing" textLength="203" x="29" y="342.9451">rotateLimiter: SlewRateLimiter</text><polygon fill="none" points="20,354.081,16,360.081,24,360.081" style="stroke:#1963A0;stroke-width:1.0;"/><text fill="#000000" font-family="sans-serif" font-size="14" lengthAdjust="spacing" textLength="171" x="29" y="362.013">forwardFilter: LinearFilter</text><polygon fill="none" points="20,373.1489,16,379.1489,24,379.1489" style="stroke:#1963A0;stroke-width:1.0;"/><text fill="#000000" font-family="sans-serif" font-size="14" lengthAdjust="spacing" textLength="179" x="29" y="381.0809">sidewaysFilter: LinearFilter</text><rect fill="none" height="6" style="stroke:#C82930;stroke-width:1.0;" width="6" x="17" y="393.2169"/><text fill="#000000" font-family="sans-serif" font-size="14" lengthAdjust="spacing" textLength="119" x="29" y="400.1488">logger: Telemetry</text><rect fill="none" height="6" style="stroke:#C82930;stroke-width:1.0;" width="6" x="17" y="412.2848"/><text fill="#000000" font-family="sans-serif" font-size="14" lengthAdjust="spacing" text-decoration="underline" textLength="155" x="29" y="419.2168">instance: DriverJoystick</text><line style="stroke:#181818;stroke-width:0.5;" x1="10" x2="375" y1="427.3187" y2="427.3187"/><ellipse cx="20" cy="442.3527" fill="#84BE84" rx="3" ry="3" style="stroke:#038048;stroke-width:1.0;"/><text fill="#000000" font-family="sans-serif" font-size="14" lengthAdjust="spacing" text-decoration="underline" textLength="186" x="29" y="446.2847">getInstance(): DriverJoystick</text><rect fill="#F24D5C" height="6" style="stroke:#C82930;stroke-width:1.0;" width="6" x="17" y="458.4206"/><text fill="#000000" font-family="sans-serif" font-size="14" lengthAdjust="spacing" textLength="184" x="29" y="465.3526">getSidewaysValue(): double</text><rect fill="#F24D5C" height="6" style="stroke:#C82930;stroke-width:1.0;" width="6" x="17" y="477.4885"/><text fill="#000000" font-family="sans-serif" font-size="14" lengthAdjust="spacing" textLength="177" x="29" y="484.4205">getForwardValue(): double</text><rect fill="#F24D5C" height="6" style="stroke:#C82930;stroke-width:1.0;" width="6" x="17" y="496.5564"/><text fill="#000000" font-family="sans-serif" font-size="14" lengthAdjust="spacing" textLength="165" x="29" y="503.4884">getRotateValue(): double</text><rect fill="#F24D5C" height="6" style="stroke:#C82930;stroke-width:1.0;" width="6" x="17" y="515.6244"/><text fill="#000000" font-family="sans-serif" font-size="14" lengthAdjust="spacing" textLength="341" x="29" y="522.5563">limitRate(double, double, SlewRateLimiter): double</text><rect fill="#F24D5C" height="6" style="stroke:#C82930;stroke-width:1.0;" width="6" x="17" y="534.6923"/><text fill="#000000" font-family="sans-serif" font-size="14" lengthAdjust="spacing" textLength="253" x="29" y="541.6243">signChange(double, double): boolean</text></g></a><!--class frc.robot.libraries.XboxController1038--><a href="libraries/XboxController1038.html" target="_top" title="libraries/XboxController1038.html" xlink:actuate="onRequest" xlink:href="libraries/XboxController1038.html" xlink:show="new" xlink:title="libraries/XboxController1038.html" xlink:type="simple"><g id="elem_frc.robot.libraries.XboxController1038"><rect codeLine="28" fill="#F1F1F1" height="42.6879" id="frc.robot.libraries.XboxController1038" rx="2.5" ry="2.5" style="stroke:#181818;stroke-width:0.5;" width="163" x="111" y="7"/><ellipse cx="126" cy="28.344" fill="#ADD1B2" rx="11" ry="11" style="stroke:#181818;stroke-width:1.0;"/><path d="M125.4688,35.2658 Q123.7188,35.2658 122.5781,34.5315 Q121.4531,33.7815 120.8906,32.4377 Q120.3438,31.0783 120.3438,29.2815 Q120.3438,27.2502 121,25.7971 Q121.6563,24.344 122.9375,23.5627 Q124.2188,22.7815 126.0938,22.7815 Q126.9844,22.7815 127.6563,22.969 Q128.3281,23.1408 129.0156,23.4846 L128.2031,25.5002 Q127.5781,25.1877 127.0313,25.0627 Q126.5,24.9377 126.0156,24.9377 Q124.8438,24.9377 124.1406,25.469 Q123.4375,26.0002 123.1406,26.9533 Q122.8438,27.9065 122.8438,29.1721 Q122.8438,31.1877 123.5625,32.1565 Q124.2813,33.1096 125.875,33.1096 Q126.4688,33.1096 127.0938,32.9533 Q127.7188,32.7971 128.5469,32.4221 L128.5469,34.6408 Q127.8125,34.9533 127.0156,35.1096 Q126.2344,35.2658 125.4688,35.2658 Z " fill="#000000"/><text fill="#000000" font-family="sans-serif" font-size="14" lengthAdjust="spacing" textLength="131" x="140" y="26.9659">XboxController1038</text><text fill="#000000" font-family="sans-serif" font-size="10" lengthAdjust="spacing" textLength="84" x="163.5" y="41.7579">frc.robot.libraries</text></g></a><!--reverse link frc.robot.libraries.XboxController1038 to frc.robot.DriverJoystick--><g id="link_frc.robot.libraries.XboxController1038_frc.robot.DriverJoystick"><path codeLine="30" d="M192.5,67.92 C192.5,82.32 192.5,85.22 192.5,109.21 " fill="none" id="frc.robot.libraries.XboxController1038-backto-frc.robot.DriverJoystick" style="stroke:#181818;stroke-width:1.0;"/><polygon fill="none" points="192.5,49.92,186.5,67.92,198.5,67.92,192.5,49.92" style="stroke:#181818;stroke-width:1.0;"/></g><text fill="#888888" font-family="sans-serif" font-size="10" lengthAdjust="spacing" textLength="176" x="96.5" y="566.4162">UMLDoclet 2.1.2, PlantUML 1.2024.3</text><!--SRC=[ZPJVJzim4CVVzrUSa2OLZMGKze0gn0iLsb2H46NJ9E3XabmJQuwlEXjA-VMtu_ne2aaAoqli-txEPz_v301WoO71dEmSOvhI70KT2nWszCNBaAc4WFAvMy9CaKvisvgJozYRItkiqLhOEhJgWKR37qTZKNSafxoqJiN_haqjx1xD90w58tPRW1QQMVZU0QwktXl2pENwvWOUosZ55oG5S2cep0Z6pVYDZZQB62NnycguLct6x4X-iZ_22APlPcicn_jpNf2C8E7RIDDQcGlTJNqg5hYq_Ue9owACtITUi4D77UrbLZbDLAvS4NQgQN7XoTgm1cqT-tDIob2VStNe4wLBRg8CeLIpRjWFgK1pcXRg9MdobqIMZVHe_MPK_0o1CdveOgfBrzIvYtvBoVsgwS7sHZxmsAeYVr3Vbcmxzvwfw_8HKbLd8w6Br1Kv75JA3gp-hUJs-5gLckCCJTfszcp4h0ch2_pStrL_8xu_PkE4jIOPxkuVz7LMg5KaA8figySQUzXTo7TS8t_lodN_LTlwpnKFdu9WOuTNvoFZymIpildWzzbapB7sxz9UE0ptTk1Set7U2b-zerLi1jkl]--></g></svg>