<?xml version="1.0" encoding="us-ascii" standalone="no"?><svg xmlns="http://www.w3.org/2000/svg" xmlns:xlink="http://www.w3.org/1999/xlink" contentStyleType="text/css" height="253px" preserveAspectRatio="none" style="width:246px;height:253px;background:#FFFFFF;" version="1.1" viewBox="0 0 246 253" width="246px" zoomAndPan="magnify"><defs/><g><!--class frc.robot.OperatorJoystick--><a href="OperatorJoystick.html" target="_top" title="OperatorJoystick.html" xlink:actuate="onRequest" xlink:href="OperatorJoystick.html" xlink:show="new" xlink:title="OperatorJoystick.html" xlink:type="simple"><g id="elem_frc.robot.OperatorJoystick"><rect codeLine="5" fill="#F1F1F1" height="115.8917" id="frc.robot.OperatorJoystick" rx="2.5" ry="2.5" style="stroke:#181818;stroke-width:0.5;" width="232" x="7" y="109.69"/><ellipse cx="63.75" cy="131.034" fill="#ADD1B2" rx="11" ry="11" style="stroke:#181818;stroke-width:1.0;"/><path d="M63.2188,137.9558 Q61.4688,137.9558 60.3281,137.2215 Q59.2031,136.4715 58.6406,135.1277 Q58.0938,133.7683 58.0938,131.9715 Q58.0938,129.9402 58.75,128.4871 Q59.4063,127.034 60.6875,126.2527 Q61.9688,125.4715 63.8438,125.4715 Q64.7344,125.4715 65.4063,125.659 Q66.0781,125.8308 66.7656,126.1746 L65.9531,128.1902 Q65.3281,127.8777 64.7813,127.7527 Q64.25,127.6277 63.7656,127.6277 Q62.5938,127.6277 61.8906,128.159 Q61.1875,128.6902 60.8906,129.6433 Q60.5938,130.5965 60.5938,131.8621 Q60.5938,133.8777 61.3125,134.8465 Q62.0313,135.7996 63.625,135.7996 Q64.2188,135.7996 64.8438,135.6433 Q65.4688,135.4871 66.2969,135.1121 L66.2969,137.3308 Q65.5625,137.6433 64.7656,137.7996 Q63.9844,137.9558 63.2188,137.9558 Z " fill="#000000"/><text fill="#000000" font-family="sans-serif" font-size="14" lengthAdjust="spacing" textLength="110" x="84.25" y="129.6559">OperatorJoystick</text><text fill="#000000" font-family="sans-serif" font-size="10" lengthAdjust="spacing" textLength="41" x="118.75" y="144.4479">frc.robot</text><line style="stroke:#181818;stroke-width:0.5;" x1="8" x2="238" y1="152.3779" y2="152.3779"/><ellipse cx="18" cy="167.4119" fill="none" rx="3" ry="3" style="stroke:#038048;stroke-width:1.0;"/><text fill="#000000" font-family="sans-serif" font-size="14" lengthAdjust="spacing" text-decoration="underline" textLength="175" x="27" y="171.3438">instance: OperatorJoystick</text><rect fill="none" height="6" style="stroke:#C82930;stroke-width:1.0;" width="6" x="15" y="183.4798"/><text fill="#000000" font-family="sans-serif" font-size="14" lengthAdjust="spacing" textLength="155" x="27" y="190.4118">dashboard: Dashboard</text><line style="stroke:#181818;stroke-width:0.5;" x1="8" x2="238" y1="198.5137" y2="198.5137"/><ellipse cx="18" cy="213.5477" fill="#84BE84" rx="3" ry="3" style="stroke:#038048;stroke-width:1.0;"/><text fill="#000000" font-family="sans-serif" font-size="14" lengthAdjust="spacing" text-decoration="underline" textLength="206" x="27" y="217.4797">getInstance(): OperatorJoystick</text></g></a><!--class frc.robot.libraries.XboxController1038--><a href="libraries/XboxController1038.html" target="_top" title="libraries/XboxController1038.html" xlink:actuate="onRequest" xlink:href="libraries/XboxController1038.html" xlink:show="new" xlink:title="libraries/XboxController1038.html" xlink:type="simple"><g id="elem_frc.robot.libraries.XboxController1038"><rect codeLine="11" fill="#F1F1F1" height="42.6879" id="frc.robot.libraries.XboxController1038" rx="2.5" ry="2.5" style="stroke:#181818;stroke-width:0.5;" width="163" x="41.5" y="7"/><ellipse cx="56.5" cy="28.344" fill="#ADD1B2" rx="11" ry="11" style="stroke:#181818;stroke-width:1.0;"/><path d="M55.9688,35.2658 Q54.2188,35.2658 53.0781,34.5315 Q51.9531,33.7815 51.3906,32.4377 Q50.8438,31.0783 50.8438,29.2815 Q50.8438,27.2502 51.5,25.7971 Q52.1563,24.344 53.4375,23.5627 Q54.7188,22.7815 56.5938,22.7815 Q57.4844,22.7815 58.1563,22.969 Q58.8281,23.1408 59.5156,23.4846 L58.7031,25.5002 Q58.0781,25.1877 57.5313,25.0627 Q57,24.9377 56.5156,24.9377 Q55.3438,24.9377 54.6406,25.469 Q53.9375,26.0002 53.6406,26.9533 Q53.3438,27.9065 53.3438,29.1721 Q53.3438,31.1877 54.0625,32.1565 Q54.7813,33.1096 56.375,33.1096 Q56.9688,33.1096 57.5938,32.9533 Q58.2188,32.7971 59.0469,32.4221 L59.0469,34.6408 Q58.3125,34.9533 57.5156,35.1096 Q56.7344,35.2658 55.9688,35.2658 Z " fill="#000000"/><text fill="#000000" font-family="sans-serif" font-size="14" lengthAdjust="spacing" textLength="131" x="70.5" y="26.9659">XboxController1038</text><text fill="#000000" font-family="sans-serif" font-size="10" lengthAdjust="spacing" textLength="84" x="94" y="41.7579">frc.robot.libraries</text></g></a><!--reverse link frc.robot.libraries.XboxController1038 to frc.robot.OperatorJoystick--><g id="link_frc.robot.libraries.XboxController1038_frc.robot.OperatorJoystick"><path codeLine="13" d="M123,67.9 C123,83.68 123,88.28 123,109.4 " fill="none" id="frc.robot.libraries.XboxController1038-backto-frc.robot.OperatorJoystick" style="stroke:#181818;stroke-width:1.0;"/><polygon fill="none" points="123,49.9,117,67.9,129,67.9,123,49.9" style="stroke:#181818;stroke-width:1.0;"/></g><text fill="#888888" font-family="sans-serif" font-size="10" lengthAdjust="spacing" textLength="176" x="28" y="242.2716">UMLDoclet 2.1.2, PlantUML 1.2024.3</text><!--SRC=[ZLB1IWCn4Btx5KD1QD6DtUf1bjABlIYAWWX2xI6xE-i6ivabCuYrzjzDj-iUjbNC9PFtCYzvBm40O1HmkaAkTOQFM6klXJmuSdWKQ2XDZe1LBIie3DgS-sY5KbA06popcXa6KpQVcCGNi_iQ6xqRMh6OxEt5jTHuLlXCUKf91g0PkfNgjy1YqOTKAPLTBc7TdBaTQnOTc0sS61TAbs42_QvkSvHhBbFIFazW_bCUa7f5kMxLXgDVz3Q7VJ-dz755JZnPYpuUdryUSgwiIRts1hcNGOUhVQ6GHqUVxTDjDhjh_LDn-XL5Vxp0pY4wGGy5qNPwkhkTKsR3tvceM4rEuS5g9m65utVqRCWDHzy0]--></g></svg>