<?xml version="1.0" encoding="us-ascii" standalone="no"?><svg xmlns="http://www.w3.org/2000/svg" xmlns:xlink="http://www.w3.org/1999/xlink" contentStyleType="text/css" height="557px" preserveAspectRatio="none" style="width:1347px;height:557px;background:#FFFFFF;" version="1.1" viewBox="0 0 1347 557" width="1347px" zoomAndPan="magnify"><defs/><g><!--cluster frc.robot--><g id="cluster_frc.robot"><path d="M8.5,160.672 L70.5,160.672 A3.75,3.75 0 0 1 73,163.172 L80,185.7399 L1336.5,185.7399 A2.5,2.5 0 0 1 1339,188.2399 L1339,527.122 A2.5,2.5 0 0 1 1336.5,529.622 L8.5,529.622 A2.5,2.5 0 0 1 6,527.122 L6,163.172 A2.5,2.5 0 0 1 8.5,160.672 " fill="none" style="stroke:#000000;stroke-width:1.5;"/><line style="stroke:#000000;stroke-width:1.5;" x1="6" x2="80" y1="185.7399" y2="185.7399"/><text fill="#000000" font-family="sans-serif" font-size="14" font-weight="bold" lengthAdjust="spacing" textLength="61" x="10" y="177.6379">frc.robot</text></g><!--cluster edu.wpi.first.wpilibj--><g id="cluster_edu.wpi.first.wpilibj"><path d="M215.5,6.602 L353.5,6.602 A3.75,3.75 0 0 1 356,9.102 L363,31.6699 L422.5,31.6699 A2.5,2.5 0 0 1 425,34.1699 L425,125.172 A2.5,2.5 0 0 1 422.5,127.672 L215.5,127.672 A2.5,2.5 0 0 1 213,125.172 L213,9.102 A2.5,2.5 0 0 1 215.5,6.602 " fill="none" style="stroke:#000000;stroke-width:1.5;"/><line style="stroke:#000000;stroke-width:1.5;" x1="213" x2="363" y1="31.6699" y2="31.6699"/><text fill="#000000" font-family="sans-serif" font-size="14" font-weight="bold" lengthAdjust="spacing" textLength="137" x="217" y="23.5679">edu.wpi.first.wpilibj</text></g><!--cluster frc.robot.libraries--><g id="cluster_frc.robot.libraries"><path d="M903.5,16.142 L1025.5,16.142 A3.75,3.75 0 0 1 1028,18.642 L1035,41.2099 L1094.5,41.2099 A2.5,2.5 0 0 1 1097,43.7099 L1097,115.642 A2.5,2.5 0 0 1 1094.5,118.142 L903.5,118.142 A2.5,2.5 0 0 1 901,115.642 L901,18.642 A2.5,2.5 0 0 1 903.5,16.142 " fill="none" style="stroke:#000000;stroke-width:1.5;"/><line style="stroke:#000000;stroke-width:1.5;" x1="901" x2="1035" y1="41.2099" y2="41.2099"/><text fill="#000000" font-family="sans-serif" font-size="14" font-weight="bold" lengthAdjust="spacing" textLength="121" x="905" y="33.1079">frc.robot.libraries</text></g><!--class Main--><a href="Main.html" target="_top" title="Main.html" xlink:actuate="onRequest" xlink:href="Main.html" xlink:show="new" xlink:title="Main.html" xlink:type="simple"><g id="elem_Main"><rect codeLine="5" fill="#F1F1F1" height="67.0679" id="Main" rx="2.5" ry="2.5" style="stroke:#181818;stroke-width:0.5;" width="157" x="22.5" y="322.612"/><ellipse cx="79.75" cy="338.612" fill="#ADD1B2" rx="11" ry="11" style="stroke:#181818;stroke-width:1.0;"/><path d="M79.2188,345.5339 Q77.4688,345.5339 76.3281,344.7995 Q75.2031,344.0495 74.6406,342.7057 Q74.0938,341.3464 74.0938,339.5495 Q74.0938,337.5182 74.75,336.0651 Q75.4063,334.612 76.6875,333.8307 Q77.9688,333.0495 79.8438,333.0495 Q80.7344,333.0495 81.4063,333.237 Q82.0781,333.4089 82.7656,333.7526 L81.9531,335.7682 Q81.3281,335.4557 80.7813,335.3307 Q80.25,335.2057 79.7656,335.2057 Q78.5938,335.2057 77.8906,335.737 Q77.1875,336.2682 76.8906,337.2214 Q76.5938,338.1745 76.5938,339.4401 Q76.5938,341.4557 77.3125,342.4245 Q78.0313,343.3776 79.625,343.3776 Q80.2188,343.3776 80.8438,343.2214 Q81.4688,343.0651 82.2969,342.6901 L82.2969,344.9089 Q81.5625,345.2214 80.7656,345.3776 Q79.9844,345.5339 79.2188,345.5339 Z " fill="#000000"/><text fill="#000000" font-family="sans-serif" font-size="14" lengthAdjust="spacing" textLength="34" x="100.25" y="344.044">Main</text><line style="stroke:#181818;stroke-width:0.5;" x1="23.5" x2="178.5" y1="354.612" y2="354.612"/><line style="stroke:#181818;stroke-width:0.5;" x1="23.5" x2="178.5" y1="362.612" y2="362.612"/><ellipse cx="33.5" cy="377.6459" fill="#84BE84" rx="3" ry="3" style="stroke:#038048;stroke-width:1.0;"/><text fill="#000000" font-family="sans-serif" font-size="14" lengthAdjust="spacing" text-decoration="underline" textLength="131" x="42.5" y="381.5779">main(String...): void</text></g></a><!--class Robot--><a href="Robot.html" target="_top" title="Robot.html" xlink:actuate="onRequest" xlink:href="Robot.html" xlink:show="new" xlink:title="Robot.html" xlink:type="simple"><g id="elem_Robot"><rect codeLine="9" fill="#F1F1F1" height="314.9508" id="Robot" rx="2.5" ry="2.5" style="stroke:#181818;stroke-width:0.5;" width="208" x="215" y="198.672"/><ellipse cx="295.25" cy="214.672" fill="#ADD1B2" rx="11" ry="11" style="stroke:#181818;stroke-width:1.0;"/><path d="M294.7188,221.5939 Q292.9688,221.5939 291.8281,220.8595 Q290.7031,220.1095 290.1406,218.7657 Q289.5938,217.4064 289.5938,215.6095 Q289.5938,213.5782 290.25,212.1251 Q290.9063,210.672 292.1875,209.8907 Q293.4688,209.1095 295.3438,209.1095 Q296.2344,209.1095 296.9063,209.297 Q297.5781,209.4689 298.2656,209.8126 L297.4531,211.8282 Q296.8281,211.5157 296.2813,211.3907 Q295.75,211.2657 295.2656,211.2657 Q294.0938,211.2657 293.3906,211.797 Q292.6875,212.3282 292.3906,213.2814 Q292.0938,214.2345 292.0938,215.5001 Q292.0938,217.5157 292.8125,218.4845 Q293.5313,219.4376 295.125,219.4376 Q295.7188,219.4376 296.3438,219.2814 Q296.9688,219.1251 297.7969,218.7501 L297.7969,220.9689 Q297.0625,221.2814 296.2656,221.4376 Q295.4844,221.5939 294.7188,221.5939 Z " fill="#000000"/><text fill="#000000" font-family="sans-serif" font-size="14" lengthAdjust="spacing" textLength="39" x="315.75" y="220.104">Robot</text><line style="stroke:#181818;stroke-width:0.5;" x1="216" x2="422" y1="230.672" y2="230.672"/><line style="stroke:#181818;stroke-width:0.5;" x1="216" x2="422" y1="238.672" y2="238.672"/><ellipse cx="226" cy="253.7059" fill="#84BE84" rx="3" ry="3" style="stroke:#038048;stroke-width:1.0;"/><text fill="#000000" font-family="sans-serif" font-size="14" lengthAdjust="spacing" textLength="103" x="235" y="257.6379">robotInit(): void</text><ellipse cx="226" cy="272.7739" fill="#84BE84" rx="3" ry="3" style="stroke:#038048;stroke-width:1.0;"/><text fill="#000000" font-family="sans-serif" font-size="14" lengthAdjust="spacing" textLength="134" x="235" y="276.7058">robotPeriodic(): void</text><ellipse cx="226" cy="291.8418" fill="#84BE84" rx="3" ry="3" style="stroke:#038048;stroke-width:1.0;"/><text fill="#000000" font-family="sans-serif" font-size="14" lengthAdjust="spacing" textLength="125" x="235" y="295.7738">disabledInit(): void</text><ellipse cx="226" cy="310.9097" fill="#84BE84" rx="3" ry="3" style="stroke:#038048;stroke-width:1.0;"/><text fill="#000000" font-family="sans-serif" font-size="14" lengthAdjust="spacing" textLength="156" x="235" y="314.8417">disabledPeriodic(): void</text><ellipse cx="226" cy="329.9776" fill="#84BE84" rx="3" ry="3" style="stroke:#038048;stroke-width:1.0;"/><text fill="#000000" font-family="sans-serif" font-size="14" lengthAdjust="spacing" textLength="126" x="235" y="333.9096">disabledExit(): void</text><ellipse cx="226" cy="349.0455" fill="#84BE84" rx="3" ry="3" style="stroke:#038048;stroke-width:1.0;"/><text fill="#000000" font-family="sans-serif" font-size="14" lengthAdjust="spacing" textLength="151" x="235" y="352.9775">autonomousInit(): void</text><ellipse cx="226" cy="368.1134" fill="#84BE84" rx="3" ry="3" style="stroke:#038048;stroke-width:1.0;"/><text fill="#000000" font-family="sans-serif" font-size="14" lengthAdjust="spacing" textLength="182" x="235" y="372.0454">autonomousPeriodic(): void</text><ellipse cx="226" cy="387.1814" fill="#84BE84" rx="3" ry="3" style="stroke:#038048;stroke-width:1.0;"/><text fill="#000000" font-family="sans-serif" font-size="14" lengthAdjust="spacing" textLength="152" x="235" y="391.1133">autonomousExit(): void</text><ellipse cx="226" cy="406.2493" fill="#84BE84" rx="3" ry="3" style="stroke:#038048;stroke-width:1.0;"/><text fill="#000000" font-family="sans-serif" font-size="14" lengthAdjust="spacing" textLength="109" x="235" y="410.1813">teleopInit(): void</text><ellipse cx="226" cy="425.3172" fill="#84BE84" rx="3" ry="3" style="stroke:#038048;stroke-width:1.0;"/><text fill="#000000" font-family="sans-serif" font-size="14" lengthAdjust="spacing" textLength="140" x="235" y="429.2492">teleopPeriodic(): void</text><ellipse cx="226" cy="444.3851" fill="#84BE84" rx="3" ry="3" style="stroke:#038048;stroke-width:1.0;"/><text fill="#000000" font-family="sans-serif" font-size="14" lengthAdjust="spacing" textLength="110" x="235" y="448.3171">teleopExit(): void</text><ellipse cx="226" cy="463.453" fill="#84BE84" rx="3" ry="3" style="stroke:#038048;stroke-width:1.0;"/><text fill="#000000" font-family="sans-serif" font-size="14" lengthAdjust="spacing" textLength="92" x="235" y="467.385">testInit(): void</text><ellipse cx="226" cy="482.5209" fill="#84BE84" rx="3" ry="3" style="stroke:#038048;stroke-width:1.0;"/><text fill="#000000" font-family="sans-serif" font-size="14" lengthAdjust="spacing" textLength="123" x="235" y="486.4529">testPeriodic(): void</text><ellipse cx="226" cy="501.5889" fill="#84BE84" rx="3" ry="3" style="stroke:#038048;stroke-width:1.0;"/><text fill="#000000" font-family="sans-serif" font-size="14" lengthAdjust="spacing" textLength="93" x="235" y="505.5208">testExit(): void</text></g></a><!--class Telemetry--><a href="Telemetry.html" target="_top" title="Telemetry.html" xlink:actuate="onRequest" xlink:href="Telemetry.html" xlink:show="new" xlink:title="Telemetry.html" xlink:type="simple"><g id="elem_Telemetry"><rect codeLine="26" fill="#F1F1F1" height="86.1358" id="Telemetry" rx="2.5" ry="2.5" style="stroke:#181818;stroke-width:0.5;" width="271" x="458.5" y="313.082"/><ellipse cx="556.25" cy="329.082" fill="#ADD1B2" rx="11" ry="11" style="stroke:#181818;stroke-width:1.0;"/><path d="M555.7188,336.0039 Q553.9688,336.0039 552.8281,335.2695 Q551.7031,334.5195 551.1406,333.1757 Q550.5938,331.8164 550.5938,330.0195 Q550.5938,327.9882 551.25,326.5351 Q551.9063,325.082 553.1875,324.3007 Q554.4688,323.5195 556.3438,323.5195 Q557.2344,323.5195 557.9063,323.707 Q558.5781,323.8789 559.2656,324.2226 L558.4531,326.2382 Q557.8281,325.9257 557.2813,325.8007 Q556.75,325.6757 556.2656,325.6757 Q555.0938,325.6757 554.3906,326.207 Q553.6875,326.7382 553.3906,327.6914 Q553.0938,328.6445 553.0938,329.9101 Q553.0938,331.9257 553.8125,332.8945 Q554.5313,333.8476 556.125,333.8476 Q556.7188,333.8476 557.3438,333.6914 Q557.9688,333.5351 558.7969,333.1601 L558.7969,335.3789 Q558.0625,335.6914 557.2656,335.8476 Q556.4844,336.0039 555.7188,336.0039 Z " fill="#000000"/><text fill="#000000" font-family="sans-serif" font-size="14" lengthAdjust="spacing" textLength="67" x="576.75" y="334.514">Telemetry</text><line style="stroke:#181818;stroke-width:0.5;" x1="459.5" x2="728.5" y1="345.082" y2="345.082"/><line style="stroke:#181818;stroke-width:0.5;" x1="459.5" x2="728.5" y1="353.082" y2="353.082"/><ellipse cx="469.5" cy="368.1159" fill="#84BE84" rx="3" ry="3" style="stroke:#038048;stroke-width:1.0;"/><text fill="#000000" font-family="sans-serif" font-size="14" lengthAdjust="spacing" textLength="122" x="478.5" y="372.0479">Telemetry(double)</text><ellipse cx="469.5" cy="387.1839" fill="#84BE84" rx="3" ry="3" style="stroke:#038048;stroke-width:1.0;"/><text fill="#000000" font-family="sans-serif" font-size="14" lengthAdjust="spacing" textLength="245" x="478.5" y="391.1158">telemeterize(SwerveDriveState): void</text></g></a><!--class DriverJoystick--><a href="DriverJoystick.html" target="_top" title="DriverJoystick.html" xlink:actuate="onRequest" xlink:href="DriverJoystick.html" xlink:show="new" xlink:title="DriverJoystick.html" xlink:type="simple"><g id="elem_DriverJoystick"><rect codeLine="31" fill="#F1F1F1" height="67.0679" id="DriverJoystick" rx="2.5" ry="2.5" style="stroke:#181818;stroke-width:0.5;" width="212" x="764" y="322.612"/><ellipse cx="820.75" cy="338.612" fill="#ADD1B2" rx="11" ry="11" style="stroke:#181818;stroke-width:1.0;"/><path d="M820.2188,345.5339 Q818.4688,345.5339 817.3281,344.7995 Q816.2031,344.0495 815.6406,342.7057 Q815.0938,341.3464 815.0938,339.5495 Q815.0938,337.5182 815.75,336.0651 Q816.4063,334.612 817.6875,333.8307 Q818.9688,333.0495 820.8438,333.0495 Q821.7344,333.0495 822.4063,333.237 Q823.0781,333.4089 823.7656,333.7526 L822.9531,335.7682 Q822.3281,335.4557 821.7813,335.3307 Q821.25,335.2057 820.7656,335.2057 Q819.5938,335.2057 818.8906,335.737 Q818.1875,336.2682 817.8906,337.2214 Q817.5938,338.1745 817.5938,339.4401 Q817.5938,341.4557 818.3125,342.4245 Q819.0313,343.3776 820.625,343.3776 Q821.2188,343.3776 821.8438,343.2214 Q822.4688,343.0651 823.2969,342.6901 L823.2969,344.9089 Q822.5625,345.2214 821.7656,345.3776 Q820.9844,345.5339 820.2188,345.5339 Z " fill="#000000"/><text fill="#000000" font-family="sans-serif" font-size="14" lengthAdjust="spacing" textLength="90" x="841.25" y="344.044">DriverJoystick</text><line style="stroke:#181818;stroke-width:0.5;" x1="765" x2="975" y1="354.612" y2="354.612"/><line style="stroke:#181818;stroke-width:0.5;" x1="765" x2="975" y1="362.612" y2="362.612"/><ellipse cx="775" cy="377.6459" fill="#84BE84" rx="3" ry="3" style="stroke:#038048;stroke-width:1.0;"/><text fill="#000000" font-family="sans-serif" font-size="14" lengthAdjust="spacing" text-decoration="underline" textLength="186" x="784" y="381.5779">getInstance(): DriverJoystick</text></g></a><!--class OperatorJoystick--><a href="OperatorJoystick.html" target="_top" title="OperatorJoystick.html" xlink:actuate="onRequest" xlink:href="OperatorJoystick.html" xlink:show="new" xlink:title="OperatorJoystick.html" xlink:type="simple"><g id="elem_OperatorJoystick"><rect codeLine="35" fill="#F1F1F1" height="67.0679" id="OperatorJoystick" rx="2.5" ry="2.5" style="stroke:#181818;stroke-width:0.5;" width="232" x="1011" y="322.612"/><ellipse cx="1067.75" cy="338.612" fill="#ADD1B2" rx="11" ry="11" style="stroke:#181818;stroke-width:1.0;"/><path d="M1067.2188,345.5339 Q1065.4688,345.5339 1064.3281,344.7995 Q1063.2031,344.0495 1062.6406,342.7057 Q1062.0938,341.3464 1062.0938,339.5495 Q1062.0938,337.5182 1062.75,336.0651 Q1063.4063,334.612 1064.6875,333.8307 Q1065.9688,333.0495 1067.8438,333.0495 Q1068.7344,333.0495 1069.4063,333.237 Q1070.0781,333.4089 1070.7656,333.7526 L1069.9531,335.7682 Q1069.3281,335.4557 1068.7813,335.3307 Q1068.25,335.2057 1067.7656,335.2057 Q1066.5938,335.2057 1065.8906,335.737 Q1065.1875,336.2682 1064.8906,337.2214 Q1064.5938,338.1745 1064.5938,339.4401 Q1064.5938,341.4557 1065.3125,342.4245 Q1066.0313,343.3776 1067.625,343.3776 Q1068.2188,343.3776 1068.8438,343.2214 Q1069.4688,343.0651 1070.2969,342.6901 L1070.2969,344.9089 Q1069.5625,345.2214 1068.7656,345.3776 Q1067.9844,345.5339 1067.2188,345.5339 Z " fill="#000000"/><text fill="#000000" font-family="sans-serif" font-size="14" lengthAdjust="spacing" textLength="110" x="1088.25" y="344.044">OperatorJoystick</text><line style="stroke:#181818;stroke-width:0.5;" x1="1012" x2="1242" y1="354.612" y2="354.612"/><line style="stroke:#181818;stroke-width:0.5;" x1="1012" x2="1242" y1="362.612" y2="362.612"/><ellipse cx="1022" cy="377.6459" fill="#84BE84" rx="3" ry="3" style="stroke:#038048;stroke-width:1.0;"/><text fill="#000000" font-family="sans-serif" font-size="14" lengthAdjust="spacing" text-decoration="underline" textLength="206" x="1031" y="381.5779">getInstance(): OperatorJoystick</text></g></a><!--class TimedRobot--><g id="elem_TimedRobot"><rect codeLine="42" fill="#F1F1F1" height="67.0679" id="TimedRobot" rx="2.5" ry="2.5" style="stroke:#181818;stroke-width:0.5;" width="180" x="229" y="44.602"/><ellipse cx="274.25" cy="60.602" fill="#ADD1B2" rx="11" ry="11" style="stroke:#181818;stroke-width:1.0;"/><path d="M273.7188,67.5239 Q271.9688,67.5239 270.8281,66.7895 Q269.7031,66.0395 269.1406,64.6957 Q268.5938,63.3364 268.5938,61.5395 Q268.5938,59.5082 269.25,58.0551 Q269.9063,56.602 271.1875,55.8207 Q272.4688,55.0395 274.3438,55.0395 Q275.2344,55.0395 275.9063,55.227 Q276.5781,55.3989 277.2656,55.7426 L276.4531,57.7582 Q275.8281,57.4457 275.2813,57.3207 Q274.75,57.1957 274.2656,57.1957 Q273.0938,57.1957 272.3906,57.727 Q271.6875,58.2582 271.3906,59.2114 Q271.0938,60.1645 271.0938,61.4301 Q271.0938,63.4457 271.8125,64.4145 Q272.5313,65.3676 274.125,65.3676 Q274.7188,65.3676 275.3438,65.2114 Q275.9688,65.0551 276.7969,64.6801 L276.7969,66.8989 Q276.0625,67.2114 275.2656,67.3676 Q274.4844,67.5239 273.7188,67.5239 Z " fill="#000000"/><text fill="#000000" font-family="sans-serif" font-size="14" lengthAdjust="spacing" textLength="81" x="294.75" y="66.034">TimedRobot</text><line style="stroke:#181818;stroke-width:0.5;" x1="230" x2="408" y1="76.602" y2="76.602"/><ellipse cx="240" cy="91.6359" fill="none" rx="3" ry="3" style="stroke:#038048;stroke-width:1.0;"/><text fill="#000000" font-family="sans-serif" font-size="14" lengthAdjust="spacing" text-decoration="underline" textLength="154" x="249" y="95.5679">kDefaultPeriod: double</text><line style="stroke:#181818;stroke-width:0.5;" x1="230" x2="408" y1="103.6699" y2="103.6699"/></g><!--class XboxController1038--><g id="elem_XboxController1038"><rect fill="#F1F1F1" height="48" id="XboxController1038" rx="2.5" ry="2.5" style="stroke:#181818;stroke-width:0.5;" width="163" x="917.5" y="54.142"/><ellipse cx="932.5" cy="70.142" fill="#ADD1B2" rx="11" ry="11" style="stroke:#181818;stroke-width:1.0;"/><path d="M931.9688,77.0639 Q930.2188,77.0639 929.0781,76.3295 Q927.9531,75.5795 927.3906,74.2357 Q926.8438,72.8764 926.8438,71.0795 Q926.8438,69.0482 927.5,67.5951 Q928.1563,66.142 929.4375,65.3607 Q930.7188,64.5795 932.5938,64.5795 Q933.4844,64.5795 934.1563,64.767 Q934.8281,64.9389 935.5156,65.2826 L934.7031,67.2982 Q934.0781,66.9857 933.5313,66.8607 Q933,66.7357 932.5156,66.7357 Q931.3438,66.7357 930.6406,67.267 Q929.9375,67.7982 929.6406,68.7514 Q929.3438,69.7045 929.3438,70.9701 Q929.3438,72.9857 930.0625,73.9545 Q930.7813,74.9076 932.375,74.9076 Q932.9688,74.9076 933.5938,74.7514 Q934.2188,74.5951 935.0469,74.2201 L935.0469,76.4389 Q934.3125,76.7514 933.5156,76.9076 Q932.7344,77.0639 931.9688,77.0639 Z " fill="#000000"/><text fill="#000000" font-family="sans-serif" font-size="14" lengthAdjust="spacing" textLength="131" x="946.5" y="75.574">XboxController1038</text><line style="stroke:#181818;stroke-width:0.5;" x1="918.5" x2="1079.5" y1="86.142" y2="86.142"/><line style="stroke:#181818;stroke-width:0.5;" x1="918.5" x2="1079.5" y1="94.142" y2="94.142"/></g><!--reverse link TimedRobot to Robot--><g id="link_TimedRobot_Robot"><path codeLine="47" d="M319,130.152 C319,152.482 319,165.752 319,198.462 " fill="none" id="TimedRobot-backto-Robot" style="stroke:#181818;stroke-width:1.0;"/><polygon fill="none" points="319,112.152,313,130.152,325,130.152,319,112.152" style="stroke:#181818;stroke-width:1.0;"/></g><!--reverse link XboxController1038 to DriverJoystick--><g id="link_XboxController1038_DriverJoystick"><path codeLine="48" d="M980.5991,118.4991 C957.7091,167.4791 911.8,265.702 885.35,322.302 " fill="none" id="XboxController1038-backto-DriverJoystick" style="stroke:#181818;stroke-width:1.0;"/><polygon fill="none" points="988.22,102.192,975.1634,115.9588,986.0348,121.0394,988.22,102.192" style="stroke:#181818;stroke-width:1.0;"/></g><!--reverse link XboxController1038 to OperatorJoystick--><g id="link_XboxController1038_OperatorJoystick"><path codeLine="49" d="M1017.2643,118.5208 C1039.9843,167.5008 1085.52,265.702 1111.77,322.302 " fill="none" id="XboxController1038-backto-OperatorJoystick" style="stroke:#181818;stroke-width:1.0;"/><polygon fill="none" points="1009.69,102.192,1011.8214,121.0456,1022.7073,115.996,1009.69,102.192" style="stroke:#181818;stroke-width:1.0;"/></g><!--link OperatorJoystick to OperatorJoystick--><g id="link_OperatorJoystick_OperatorJoystick"><path codeLine="50" d="M1183.54,322.222 C1229.88,308.202 1278,319.502 1278,356.142 C1278,392.782 1235.6229,405.8295 1189.2829,391.8095 " fill="none" id="OperatorJoystick-to-OperatorJoystick" style="stroke:#181818;stroke-width:1.0;"/><polygon fill="#181818" points="1183.54,390.072,1190.996,396.5068,1188.3258,391.5199,1193.3127,388.8496,1183.54,390.072" style="stroke:#181818;stroke-width:1.0;"/><text fill="#000000" font-family="sans-serif" font-size="13" lengthAdjust="spacing" textLength="50" x="1284" y="361.539">instance</text></g><text fill="#888888" font-family="sans-serif" font-size="10" lengthAdjust="spacing" textLength="176" x="578.5" y="546.312">UMLDoclet 2.1.2, PlantUML 1.2024.3</text><!--SRC=[dLHDJ-Cm4BtpA-QoKYgs5X-NbOMuK0uW48ZkIYjL7DnaMamTJsGx1PRjVzz9MjeqJL8MIv6TcJVlZJrZ0m1u3Fnbogb03gGyE60ZP2gUgId2nCN2qPW2l2yTnOYDyXvkbROm6XMJU0gfUNna35J6kmygw7W1XobZec5msaw543q9SzB96hkeCp-KWgDHEJTp7vP9NLaTeZhTndsFJbEYusP8ehqQ6qpQIJuGd-EvV6tZKNaWIodblbrhW-bMs-3QzG8QfAnTQ-dlrbbYkZHyw5BmOH-_3utiEztmapD9CRWtxeZrkgKhrlueePoBqjlT5BiviJyO3L_GpN7Wz1o7tAYuDv4IwgxfpNDNppYRRSE-Ip15FZ3-ip4MczuERbUzox2ycXNTkka_bUlXTUt5zXE0IIvUCYqcslbGh8mUFrUqLbNIAIOFgvUYEOtP02SgDwl6aB0iKKMz8jueAcL5vUnllxzvdgGihMNisYWuo2cdqKlvUqol5sI38sFG7H-T_jXXQAZ8LwaQZxZ33_t-UPTVWbuLi6IAqN8JmuIec7xTtWmeDloEduXZSV8TxesoWQtmZVVZDTcezmy0]--></g></svg>