<?xml version="1.0" encoding="us-ascii" standalone="no"?><svg xmlns="http://www.w3.org/2000/svg" xmlns:xlink="http://www.w3.org/1999/xlink" contentStyleType="text/css" height="454px" preserveAspectRatio="none" style="width:222px;height:454px;background:#FFFFFF;" version="1.1" viewBox="0 0 222 454" width="222px" zoomAndPan="magnify"><defs/><g><!--class frc.robot.Robot--><a href="Robot.html" target="_top" title="Robot.html" xlink:actuate="onRequest" xlink:href="Robot.html" xlink:show="new" xlink:title="Robot.html" xlink:type="simple"><g id="elem_frc.robot.Robot"><rect codeLine="5" fill="#F1F1F1" height="317.6387" id="frc.robot.Robot" rx="2.5" ry="2.5" style="stroke:#181818;stroke-width:0.5;" width="208" x="7" y="109.69"/><ellipse cx="86.25" cy="131.034" fill="#ADD1B2" rx="11" ry="11" style="stroke:#181818;stroke-width:1.0;"/><path d="M85.7188,137.9558 Q83.9688,137.9558 82.8281,137.2215 Q81.7031,136.4715 81.1406,135.1277 Q80.5938,133.7683 80.5938,131.9715 Q80.5938,129.9402 81.25,128.4871 Q81.9063,127.034 83.1875,126.2527 Q84.4688,125.4715 86.3438,125.4715 Q87.2344,125.4715 87.9063,125.659 Q88.5781,125.8308 89.2656,126.1746 L88.4531,128.1902 Q87.8281,127.8777 87.2813,127.7527 Q86.75,127.6277 86.2656,127.6277 Q85.0938,127.6277 84.3906,128.159 Q83.6875,128.6902 83.3906,129.6433 Q83.0938,130.5965 83.0938,131.8621 Q83.0938,133.8777 83.8125,134.8465 Q84.5313,135.7996 86.125,135.7996 Q86.7188,135.7996 87.3438,135.6433 Q87.9688,135.4871 88.7969,135.1121 L88.7969,137.3308 Q88.0625,137.6433 87.2656,137.7996 Q86.4844,137.9558 85.7188,137.9558 Z " fill="#000000"/><text fill="#000000" font-family="sans-serif" font-size="14" lengthAdjust="spacing" textLength="39" x="107.75" y="129.6559">Robot</text><text fill="#000000" font-family="sans-serif" font-size="10" lengthAdjust="spacing" textLength="41" x="106.75" y="144.4479">frc.robot</text><line style="stroke:#181818;stroke-width:0.5;" x1="8" x2="214" y1="152.3779" y2="152.3779"/><ellipse cx="18" cy="167.4119" fill="#84BE84" rx="3" ry="3" style="stroke:#038048;stroke-width:1.0;"/><text fill="#000000" font-family="sans-serif" font-size="14" lengthAdjust="spacing" textLength="103" x="27" y="171.3438">robotInit(): void</text><ellipse cx="18" cy="186.4798" fill="#84BE84" rx="3" ry="3" style="stroke:#038048;stroke-width:1.0;"/><text fill="#000000" font-family="sans-serif" font-size="14" lengthAdjust="spacing" textLength="134" x="27" y="190.4118">robotPeriodic(): void</text><ellipse cx="18" cy="205.5477" fill="#84BE84" rx="3" ry="3" style="stroke:#038048;stroke-width:1.0;"/><text fill="#000000" font-family="sans-serif" font-size="14" lengthAdjust="spacing" textLength="125" x="27" y="209.4797">disabledInit(): void</text><ellipse cx="18" cy="224.6156" fill="#84BE84" rx="3" ry="3" style="stroke:#038048;stroke-width:1.0;"/><text fill="#000000" font-family="sans-serif" font-size="14" lengthAdjust="spacing" textLength="156" x="27" y="228.5476">disabledPeriodic(): void</text><ellipse cx="18" cy="243.6835" fill="#84BE84" rx="3" ry="3" style="stroke:#038048;stroke-width:1.0;"/><text fill="#000000" font-family="sans-serif" font-size="14" lengthAdjust="spacing" textLength="126" x="27" y="247.6155">disabledExit(): void</text><ellipse cx="18" cy="262.7514" fill="#84BE84" rx="3" ry="3" style="stroke:#038048;stroke-width:1.0;"/><text fill="#000000" font-family="sans-serif" font-size="14" lengthAdjust="spacing" textLength="151" x="27" y="266.6834">autonomousInit(): void</text><ellipse cx="18" cy="281.8194" fill="#84BE84" rx="3" ry="3" style="stroke:#038048;stroke-width:1.0;"/><text fill="#000000" font-family="sans-serif" font-size="14" lengthAdjust="spacing" textLength="182" x="27" y="285.7513">autonomousPeriodic(): void</text><ellipse cx="18" cy="300.8873" fill="#84BE84" rx="3" ry="3" style="stroke:#038048;stroke-width:1.0;"/><text fill="#000000" font-family="sans-serif" font-size="14" lengthAdjust="spacing" textLength="152" x="27" y="304.8193">autonomousExit(): void</text><ellipse cx="18" cy="319.9552" fill="#84BE84" rx="3" ry="3" style="stroke:#038048;stroke-width:1.0;"/><text fill="#000000" font-family="sans-serif" font-size="14" lengthAdjust="spacing" textLength="109" x="27" y="323.8872">teleopInit(): void</text><ellipse cx="18" cy="339.0231" fill="#84BE84" rx="3" ry="3" style="stroke:#038048;stroke-width:1.0;"/><text fill="#000000" font-family="sans-serif" font-size="14" lengthAdjust="spacing" textLength="140" x="27" y="342.9551">teleopPeriodic(): void</text><ellipse cx="18" cy="358.091" fill="#84BE84" rx="3" ry="3" style="stroke:#038048;stroke-width:1.0;"/><text fill="#000000" font-family="sans-serif" font-size="14" lengthAdjust="spacing" textLength="110" x="27" y="362.023">teleopExit(): void</text><ellipse cx="18" cy="377.1589" fill="#84BE84" rx="3" ry="3" style="stroke:#038048;stroke-width:1.0;"/><text fill="#000000" font-family="sans-serif" font-size="14" lengthAdjust="spacing" textLength="92" x="27" y="381.0909">testInit(): void</text><ellipse cx="18" cy="396.2269" fill="#84BE84" rx="3" ry="3" style="stroke:#038048;stroke-width:1.0;"/><text fill="#000000" font-family="sans-serif" font-size="14" lengthAdjust="spacing" textLength="123" x="27" y="400.1588">testPeriodic(): void</text><ellipse cx="18" cy="415.2948" fill="#84BE84" rx="3" ry="3" style="stroke:#038048;stroke-width:1.0;"/><text fill="#000000" font-family="sans-serif" font-size="14" lengthAdjust="spacing" textLength="93" x="27" y="419.2268">testExit(): void</text></g></a><!--class edu.wpi.first.wpilibj.TimedRobot--><g id="elem_edu.wpi.first.wpilibj.TimedRobot"><rect codeLine="22" fill="#F1F1F1" height="42.6879" id="edu.wpi.first.wpilibj.TimedRobot" rx="2.5" ry="2.5" style="stroke:#181818;stroke-width:0.5;" width="127" x="47.5" y="7"/><ellipse cx="62.5" cy="28.344" fill="#ADD1B2" rx="11" ry="11" style="stroke:#181818;stroke-width:1.0;"/><path d="M61.9688,35.2658 Q60.2188,35.2658 59.0781,34.5315 Q57.9531,33.7815 57.3906,32.4377 Q56.8438,31.0783 56.8438,29.2815 Q56.8438,27.2502 57.5,25.7971 Q58.1563,24.344 59.4375,23.5627 Q60.7188,22.7815 62.5938,22.7815 Q63.4844,22.7815 64.1563,22.969 Q64.8281,23.1408 65.5156,23.4846 L64.7031,25.5002 Q64.0781,25.1877 63.5313,25.0627 Q63,24.9377 62.5156,24.9377 Q61.3438,24.9377 60.6406,25.469 Q59.9375,26.0002 59.6406,26.9533 Q59.3438,27.9065 59.3438,29.1721 Q59.3438,31.1877 60.0625,32.1565 Q60.7813,33.1096 62.375,33.1096 Q62.9688,33.1096 63.5938,32.9533 Q64.2188,32.7971 65.0469,32.4221 L65.0469,34.6408 Q64.3125,34.9533 63.5156,35.1096 Q62.7344,35.2658 61.9688,35.2658 Z " fill="#000000"/><text fill="#000000" font-family="sans-serif" font-size="14" lengthAdjust="spacing" textLength="81" x="83.5" y="26.9659">TimedRobot</text><text fill="#000000" font-family="sans-serif" font-size="10" lengthAdjust="spacing" textLength="95" x="76.5" y="41.7579">edu.wpi.first.wpilibj</text></g><!--reverse link edu.wpi.first.wpilibj.TimedRobot to frc.robot.Robot--><g id="link_edu.wpi.first.wpilibj.TimedRobot_frc.robot.Robot"><path codeLine="24" d="M111,68.07 C111,82.72 111,85.87 111,109.3 " fill="none" id="edu.wpi.first.wpilibj.TimedRobot-backto-frc.robot.Robot" style="stroke:#181818;stroke-width:1.0;"/><polygon fill="none" points="111,50.07,105,68.07,117,68.07,111,50.07" style="stroke:#181818;stroke-width:1.0;"/></g><text fill="#888888" font-family="sans-serif" font-size="10" lengthAdjust="spacing" textLength="176" x="16" y="444.0187">UMLDoclet 2.1.2, PlantUML 1.2024.3</text><!--SRC=[XPDDQyCm38Rl-nMYC6ZPQjQoKoazROV11cKVfwu7DrQeXsC5I-c-__loiJMGEgiljjvNUcIm3030AE1rXfph11ymrq4B1V3ayQIqOMiD0cQvl4DgqHdkgXdAbagvrXEdcM4mP_k1iydbufus9C_-DxvOf25HeT86e1dsaQhpOBMgTxMLpAtNy5aZgtLMPzruAyFH37PaJSTQOh1aR79e6yjwuz34Y__Su_NNRx5wNGXvogZWEB_r-pkqEV4UWWufZ_CRhv_T-7rSbZugotzCbWFYT_pz7ss6fZi4Q0hrcbkLsi1IdPpTlDG34NLK2scQ7Ck2-TTut1skvdhe1GEaHDNsT7TxHOahFy1KJTJq79PEUobLEDrXO4j-EFe1]--></g></svg>