<?xml version="1.0" encoding="us-ascii" standalone="no"?><svg xmlns="http://www.w3.org/2000/svg" xmlns:xlink="http://www.w3.org/1999/xlink" contentStyleType="text/css" height="577px" preserveAspectRatio="none" style="width:257px;height:577px;background:#FFFFFF;" version="1.1" viewBox="0 0 257 577" width="257px" zoomAndPan="magnify"><defs/><g><!--class frc.robot.Robot--><a href="Robot.html" target="_top" title="Robot.html" xlink:actuate="onRequest" xlink:href="Robot.html" xlink:show="new" xlink:title="Robot.html" xlink:type="simple"><g id="elem_frc.robot.Robot"><rect codeLine="5" fill="#F1F1F1" height="440.0462" id="frc.robot.Robot" rx="2.5" ry="2.5" style="stroke:#181818;stroke-width:0.5;" width="243" x="7" y="109.68"/><ellipse cx="103.75" cy="131.024" fill="#ADD1B2" rx="11" ry="11" style="stroke:#181818;stroke-width:1.0;"/><path d="M103.2188,137.9458 Q101.4688,137.9458 100.3281,137.2115 Q99.2031,136.4615 98.6406,135.1177 Q98.0938,133.7583 98.0938,131.9615 Q98.0938,129.9302 98.75,128.4771 Q99.4063,127.024 100.6875,126.2427 Q101.9688,125.4615 103.8438,125.4615 Q104.7344,125.4615 105.4063,125.649 Q106.0781,125.8208 106.7656,126.1646 L105.9531,128.1802 Q105.3281,127.8677 104.7813,127.7427 Q104.25,127.6177 103.7656,127.6177 Q102.5938,127.6177 101.8906,128.149 Q101.1875,128.6802 100.8906,129.6333 Q100.5938,130.5865 100.5938,131.8521 Q100.5938,133.8677 101.3125,134.8365 Q102.0313,135.7896 103.625,135.7896 Q104.2188,135.7896 104.8438,135.6333 Q105.4688,135.4771 106.2969,135.1021 L106.2969,137.3208 Q105.5625,137.6333 104.7656,137.7896 Q103.9844,137.9458 103.2188,137.9458 Z " fill="#000000"/><text fill="#000000" font-family="sans-serif" font-size="14" lengthAdjust="spacing" textLength="39" x="125.25" y="129.6459">Robot</text><text fill="#000000" font-family="sans-serif" font-size="10" lengthAdjust="spacing" textLength="41" x="124.25" y="144.4379">frc.robot</text><line style="stroke:#181818;stroke-width:0.5;" x1="8" x2="249" y1="152.3679" y2="152.3679"/><rect fill="none" height="6" style="stroke:#C82930;stroke-width:1.0;" width="6" x="15" y="164.4019"/><text fill="#000000" font-family="sans-serif" font-size="14" lengthAdjust="spacing" textLength="195" x="27" y="171.3338">autonSelector: AutonSelector</text><rect fill="none" height="6" style="stroke:#C82930;stroke-width:1.0;" width="6" x="15" y="183.4698"/><text fill="#000000" font-family="sans-serif" font-size="14" lengthAdjust="spacing" textLength="161" x="27" y="190.4018">swagLights: SwagLights</text><rect fill="none" height="6" style="stroke:#C82930;stroke-width:1.0;" width="6" x="15" y="202.5377"/><text fill="#000000" font-family="sans-serif" font-size="14" lengthAdjust="spacing" textLength="201" x="27" y="209.4697">autonomousCommand: Auton</text><rect fill="none" height="6" style="stroke:#C82930;stroke-width:1.0;" width="6" x="15" y="221.6056"/><text fill="#000000" font-family="sans-serif" font-size="14" lengthAdjust="spacing" textLength="217" x="27" y="228.5376">controlWordCache: ControlWord</text><rect fill="none" height="6" style="stroke:#C82930;stroke-width:1.0;" width="6" x="15" y="240.6735"/><text fill="#000000" font-family="sans-serif" font-size="14" lengthAdjust="spacing" textLength="147" x="27" y="247.6055">driveTrain: DriveTrain</text><rect fill="none" height="6" style="stroke:#C82930;stroke-width:1.0;" width="6" x="15" y="259.7414"/><text fill="#000000" font-family="sans-serif" font-size="14" lengthAdjust="spacing" textLength="87" x="27" y="266.6734">vision: Vision</text><line style="stroke:#181818;stroke-width:0.5;" x1="8" x2="249" y1="274.7754" y2="274.7754"/><ellipse cx="18" cy="289.8094" fill="#84BE84" rx="3" ry="3" style="stroke:#038048;stroke-width:1.0;"/><text fill="#000000" font-family="sans-serif" font-size="14" lengthAdjust="spacing" textLength="103" x="27" y="293.7413">robotInit(): void</text><ellipse cx="18" cy="308.8773" fill="#84BE84" rx="3" ry="3" style="stroke:#038048;stroke-width:1.0;"/><text fill="#000000" font-family="sans-serif" font-size="14" lengthAdjust="spacing" textLength="134" x="27" y="312.8093">robotPeriodic(): void</text><ellipse cx="18" cy="327.9452" fill="#84BE84" rx="3" ry="3" style="stroke:#038048;stroke-width:1.0;"/><text fill="#000000" font-family="sans-serif" font-size="14" lengthAdjust="spacing" textLength="125" x="27" y="331.8772">disabledInit(): void</text><ellipse cx="18" cy="347.0131" fill="#84BE84" rx="3" ry="3" style="stroke:#038048;stroke-width:1.0;"/><text fill="#000000" font-family="sans-serif" font-size="14" lengthAdjust="spacing" textLength="156" x="27" y="350.9451">disabledPeriodic(): void</text><ellipse cx="18" cy="366.081" fill="#84BE84" rx="3" ry="3" style="stroke:#038048;stroke-width:1.0;"/><text fill="#000000" font-family="sans-serif" font-size="14" lengthAdjust="spacing" textLength="126" x="27" y="370.013">disabledExit(): void</text><ellipse cx="18" cy="385.1489" fill="#84BE84" rx="3" ry="3" style="stroke:#038048;stroke-width:1.0;"/><text fill="#000000" font-family="sans-serif" font-size="14" lengthAdjust="spacing" textLength="151" x="27" y="389.0809">autonomousInit(): void</text><ellipse cx="18" cy="404.2169" fill="#84BE84" rx="3" ry="3" style="stroke:#038048;stroke-width:1.0;"/><text fill="#000000" font-family="sans-serif" font-size="14" lengthAdjust="spacing" textLength="182" x="27" y="408.1488">autonomousPeriodic(): void</text><ellipse cx="18" cy="423.2848" fill="#84BE84" rx="3" ry="3" style="stroke:#038048;stroke-width:1.0;"/><text fill="#000000" font-family="sans-serif" font-size="14" lengthAdjust="spacing" textLength="152" x="27" y="427.2168">autonomousExit(): void</text><ellipse cx="18" cy="442.3527" fill="#84BE84" rx="3" ry="3" style="stroke:#038048;stroke-width:1.0;"/><text fill="#000000" font-family="sans-serif" font-size="14" lengthAdjust="spacing" textLength="109" x="27" y="446.2847">teleopInit(): void</text><ellipse cx="18" cy="461.4206" fill="#84BE84" rx="3" ry="3" style="stroke:#038048;stroke-width:1.0;"/><text fill="#000000" font-family="sans-serif" font-size="14" lengthAdjust="spacing" textLength="140" x="27" y="465.3526">teleopPeriodic(): void</text><ellipse cx="18" cy="480.4885" fill="#84BE84" rx="3" ry="3" style="stroke:#038048;stroke-width:1.0;"/><text fill="#000000" font-family="sans-serif" font-size="14" lengthAdjust="spacing" textLength="110" x="27" y="484.4205">teleopExit(): void</text><ellipse cx="18" cy="499.5564" fill="#84BE84" rx="3" ry="3" style="stroke:#038048;stroke-width:1.0;"/><text fill="#000000" font-family="sans-serif" font-size="14" lengthAdjust="spacing" textLength="92" x="27" y="503.4884">testInit(): void</text><ellipse cx="18" cy="518.6244" fill="#84BE84" rx="3" ry="3" style="stroke:#038048;stroke-width:1.0;"/><text fill="#000000" font-family="sans-serif" font-size="14" lengthAdjust="spacing" textLength="123" x="27" y="522.5563">testPeriodic(): void</text><ellipse cx="18" cy="537.6923" fill="#84BE84" rx="3" ry="3" style="stroke:#038048;stroke-width:1.0;"/><text fill="#000000" font-family="sans-serif" font-size="14" lengthAdjust="spacing" textLength="93" x="27" y="541.6243">testExit(): void</text></g></a><!--class edu.wpi.first.wpilibj.TimedRobot--><g id="elem_edu.wpi.first.wpilibj.TimedRobot"><rect codeLine="28" fill="#F1F1F1" height="42.6879" id="edu.wpi.first.wpilibj.TimedRobot" rx="2.5" ry="2.5" style="stroke:#181818;stroke-width:0.5;" width="127" x="65" y="7"/><ellipse cx="80" cy="28.344" fill="#ADD1B2" rx="11" ry="11" style="stroke:#181818;stroke-width:1.0;"/><path d="M79.4688,35.2658 Q77.7188,35.2658 76.5781,34.5315 Q75.4531,33.7815 74.8906,32.4377 Q74.3438,31.0783 74.3438,29.2815 Q74.3438,27.2502 75,25.7971 Q75.6563,24.344 76.9375,23.5627 Q78.2188,22.7815 80.0938,22.7815 Q80.9844,22.7815 81.6563,22.969 Q82.3281,23.1408 83.0156,23.4846 L82.2031,25.5002 Q81.5781,25.1877 81.0313,25.0627 Q80.5,24.9377 80.0156,24.9377 Q78.8438,24.9377 78.1406,25.469 Q77.4375,26.0002 77.1406,26.9533 Q76.8438,27.9065 76.8438,29.1721 Q76.8438,31.1877 77.5625,32.1565 Q78.2813,33.1096 79.875,33.1096 Q80.4688,33.1096 81.0938,32.9533 Q81.7188,32.7971 82.5469,32.4221 L82.5469,34.6408 Q81.8125,34.9533 81.0156,35.1096 Q80.2344,35.2658 79.4688,35.2658 Z " fill="#000000"/><text fill="#000000" font-family="sans-serif" font-size="14" lengthAdjust="spacing" textLength="81" x="101" y="26.9659">TimedRobot</text><text fill="#000000" font-family="sans-serif" font-size="10" lengthAdjust="spacing" textLength="95" x="94" y="41.7579">edu.wpi.first.wpilibj</text></g><!--reverse link edu.wpi.first.wpilibj.TimedRobot to frc.robot.Robot--><g id="link_edu.wpi.first.wpilibj.TimedRobot_frc.robot.Robot"><path codeLine="30" d="M128.5,67.92 C128.5,82.32 128.5,85.22 128.5,109.21 " fill="none" id="edu.wpi.first.wpilibj.TimedRobot-backto-frc.robot.Robot" style="stroke:#181818;stroke-width:1.0;"/><polygon fill="none" points="128.5,49.92,122.5,67.92,134.5,67.92,128.5,49.92" style="stroke:#181818;stroke-width:1.0;"/></g><text fill="#888888" font-family="sans-serif" font-size="10" lengthAdjust="spacing" textLength="176" x="33.5" y="566.4162">UMLDoclet 2.1.2, PlantUML 1.2024.3</text><!--SRC=[XLDDJy904BtxAoOa9X2b4UAfCIG6F9XWGWJre1wMxc37R7UQtG7y_E-s1LbJY_OoC- -zURDjPm40F0fObQ7FLO9Jp9LJmWuiMpmeQ4X98s2Mooii28tsTJH3IRc0ApmnodjedNbwmxXtEhZcESk3tTOdWuLB8bTYBL0UTbLKwU3-lefHAfbvV8Jtoh9ykcefRATeC2aE5yFvppAe_5ezZUaf5H_3T9VNN3ZZfHzobYchjqv1aR0Ln-QEdHwg9CKOXW49CkreXJEdoCOmskM1Nv4dBhZRAkxme-fbBor9knF3YadNg0awOat9RrgJLtE3khdvc_s__-AbgJzyc6R_mE-V43JDCwJuNPmt-s-u_TuRVf-lbtskNlxozFBByRDvZMUKeQxlCkfbjCufMf3pKcQ6vi_LNZSoKJ3P3FbF1MSVtMxzZcoEXrRGmOAv33TNun4dfhZ7_QWNzOzXOfIL0eN35Rfo0TkTBm00]--></g></svg>