<?xml version="1.0" encoding="us-ascii" standalone="no"?><svg xmlns="http://www.w3.org/2000/svg" xmlns:xlink="http://www.w3.org/1999/xlink" contentStyleType="text/css" height="494px" preserveAspectRatio="none" style="width:508px;height:494px;background:#FFFFFF;" version="1.1" viewBox="0 0 508 494" width="508px" zoomAndPan="magnify"><defs/><g><!--class frc.robot.Telemetry--><a href="Telemetry.html" target="_top" title="Telemetry.html" xlink:actuate="onRequest" xlink:href="Telemetry.html" xlink:show="new" xlink:title="Telemetry.html" xlink:type="simple"><g id="elem_frc.robot.Telemetry"><rect codeLine="5" fill="#F1F1F1" height="459.1142" id="frc.robot.Telemetry" rx="2.5" ry="2.5" style="stroke:#181818;stroke-width:0.5;" width="487" x="7" y="7"/><ellipse cx="212.75" cy="28.344" fill="#ADD1B2" rx="11" ry="11" style="stroke:#181818;stroke-width:1.0;"/><path d="M212.2188,35.2658 Q210.4688,35.2658 209.3281,34.5315 Q208.2031,33.7815 207.6406,32.4377 Q207.0938,31.0783 207.0938,29.2815 Q207.0938,27.2502 207.75,25.7971 Q208.4063,24.344 209.6875,23.5627 Q210.9688,22.7815 212.8438,22.7815 Q213.7344,22.7815 214.4063,22.969 Q215.0781,23.1408 215.7656,23.4846 L214.9531,25.5002 Q214.3281,25.1877 213.7813,25.0627 Q213.25,24.9377 212.7656,24.9377 Q211.5938,24.9377 210.8906,25.469 Q210.1875,26.0002 209.8906,26.9533 Q209.5938,27.9065 209.5938,29.1721 Q209.5938,31.1877 210.3125,32.1565 Q211.0313,33.1096 212.625,33.1096 Q213.2188,33.1096 213.8438,32.9533 Q214.4688,32.7971 215.2969,32.4221 L215.2969,34.6408 Q214.5625,34.9533 213.7656,35.1096 Q212.9844,35.2658 212.2188,35.2658 Z " fill="#000000"/><text fill="#000000" font-family="sans-serif" font-size="14" lengthAdjust="spacing" textLength="67" x="233.25" y="26.9659">Telemetry</text><text fill="#000000" font-family="sans-serif" font-size="10" lengthAdjust="spacing" textLength="41" x="246.25" y="41.7579">frc.robot</text><line style="stroke:#181818;stroke-width:0.5;" x1="8" x2="493" y1="49.6879" y2="49.6879"/><rect fill="none" height="6" style="stroke:#C82930;stroke-width:1.0;" width="6" x="15" y="61.7219"/><text fill="#000000" font-family="sans-serif" font-size="14" lengthAdjust="spacing" textLength="133" x="27" y="68.6538">MAX_SPEED: double</text><rect fill="none" height="6" style="stroke:#C82930;stroke-width:1.0;" width="6" x="15" y="80.7898"/><text fill="#000000" font-family="sans-serif" font-size="14" lengthAdjust="spacing" textLength="184" x="27" y="87.7218">inst: NetworkTableInstance</text><rect fill="none" height="6" style="stroke:#C82930;stroke-width:1.0;" width="6" x="15" y="99.8577"/><text fill="#000000" font-family="sans-serif" font-size="14" lengthAdjust="spacing" textLength="206" x="27" y="106.7897">driveStateTable: NetworkTable</text><rect fill="none" height="6" style="stroke:#C82930;stroke-width:1.0;" width="6" x="15" y="118.9256"/><text fill="#000000" font-family="sans-serif" font-size="14" lengthAdjust="spacing" textLength="241" x="27" y="125.8576">drivePose: StructPublisher&lt;Pose2d&gt;</text><rect fill="none" height="6" style="stroke:#C82930;stroke-width:1.0;" width="6" x="15" y="137.9935"/><text fill="#000000" font-family="sans-serif" font-size="14" lengthAdjust="spacing" textLength="311" x="27" y="144.9255">driveSpeeds: StructPublisher&lt;ChassisSpeeds&gt;</text><rect fill="none" height="6" style="stroke:#C82930;stroke-width:1.0;" width="6" x="15" y="157.0614"/><text fill="#000000" font-family="sans-serif" font-size="14" lengthAdjust="spacing" textLength="423" x="27" y="163.9934">driveModuleStates: StructArrayPublisher&lt;SwerveModuleState&gt;</text><rect fill="none" height="6" style="stroke:#C82930;stroke-width:1.0;" width="6" x="15" y="176.1294"/><text fill="#000000" font-family="sans-serif" font-size="14" lengthAdjust="spacing" textLength="433" x="27" y="183.0613">driveModuleTargets: StructArrayPublisher&lt;SwerveModuleState&gt;</text><rect fill="none" height="6" style="stroke:#C82930;stroke-width:1.0;" width="6" x="15" y="195.1973"/><text fill="#000000" font-family="sans-serif" font-size="14" lengthAdjust="spacing" textLength="461" x="27" y="202.1293">driveModulePositions: StructArrayPublisher&lt;SwerveModulePosition&gt;</text><rect fill="none" height="6" style="stroke:#C82930;stroke-width:1.0;" width="6" x="15" y="214.2652"/><text fill="#000000" font-family="sans-serif" font-size="14" lengthAdjust="spacing" textLength="229" x="27" y="221.1972">driveTimestamp: DoublePublisher</text><rect fill="none" height="6" style="stroke:#C82930;stroke-width:1.0;" width="6" x="15" y="233.3331"/><text fill="#000000" font-family="sans-serif" font-size="14" lengthAdjust="spacing" textLength="291" x="27" y="240.2651">driveOdometryFrequency: DoublePublisher</text><rect fill="none" height="6" style="stroke:#C82930;stroke-width:1.0;" width="6" x="15" y="252.401"/><text fill="#000000" font-family="sans-serif" font-size="14" lengthAdjust="spacing" textLength="135" x="27" y="259.333">table: NetworkTable</text><rect fill="none" height="6" style="stroke:#C82930;stroke-width:1.0;" width="6" x="15" y="271.4689"/><text fill="#000000" font-family="sans-serif" font-size="14" lengthAdjust="spacing" textLength="212" x="27" y="278.4009">fieldPub: DoubleArrayPublisher</text><rect fill="none" height="6" style="stroke:#C82930;stroke-width:1.0;" width="6" x="15" y="290.5369"/><text fill="#000000" font-family="sans-serif" font-size="14" lengthAdjust="spacing" textLength="201" x="27" y="297.4688">fieldTypePub: StringPublisher</text><rect fill="none" height="6" style="stroke:#C82930;stroke-width:1.0;" width="6" x="15" y="309.6048"/><text fill="#000000" font-family="sans-serif" font-size="14" lengthAdjust="spacing" textLength="249" x="27" y="316.5368">moduleMechanisms: Mechanism2d[]</text><rect fill="none" height="6" style="stroke:#C82930;stroke-width:1.0;" width="6" x="15" y="328.6727"/><text fill="#000000" font-family="sans-serif" font-size="14" lengthAdjust="spacing" textLength="276" x="27" y="335.6047">moduleSpeeds: MechanismLigament2d[]</text><rect fill="none" height="6" style="stroke:#C82930;stroke-width:1.0;" width="6" x="15" y="347.7406"/><text fill="#000000" font-family="sans-serif" font-size="14" lengthAdjust="spacing" textLength="295" x="27" y="354.6726">moduleDirections: MechanismLigament2d[]</text><rect fill="none" height="6" style="stroke:#C82930;stroke-width:1.0;" width="6" x="15" y="366.8085"/><text fill="#000000" font-family="sans-serif" font-size="14" lengthAdjust="spacing" textLength="133" x="27" y="373.7405">poseArray: double[]</text><rect fill="none" height="6" style="stroke:#C82930;stroke-width:1.0;" width="6" x="15" y="385.8764"/><text fill="#000000" font-family="sans-serif" font-size="14" lengthAdjust="spacing" textLength="193" x="27" y="392.8084">moduleStatesArray: double[]</text><rect fill="none" height="6" style="stroke:#C82930;stroke-width:1.0;" width="6" x="15" y="404.9444"/><text fill="#000000" font-family="sans-serif" font-size="14" lengthAdjust="spacing" textLength="203" x="27" y="411.8763">moduleTargetsArray: double[]</text><line style="stroke:#181818;stroke-width:0.5;" x1="8" x2="493" y1="419.9783" y2="419.9783"/><ellipse cx="18" cy="435.0123" fill="#84BE84" rx="3" ry="3" style="stroke:#038048;stroke-width:1.0;"/><text fill="#000000" font-family="sans-serif" font-size="14" lengthAdjust="spacing" textLength="122" x="27" y="438.9443">Telemetry(double)</text><ellipse cx="18" cy="454.0802" fill="#84BE84" rx="3" ry="3" style="stroke:#038048;stroke-width:1.0;"/><text fill="#000000" font-family="sans-serif" font-size="14" lengthAdjust="spacing" textLength="245" x="27" y="458.0122">telemeterize(SwerveDriveState): void</text></g></a><text fill="#888888" font-family="sans-serif" font-size="10" lengthAdjust="spacing" textLength="176" x="162" y="483.8041">UMLDoclet 2.1.2, PlantUML 1.2024.3</text><!--SRC=[fPHHYzD04CVV_HJ3WT2Y1g_u58x2OKuGhbf8X8DQP2yxRHQJtJWxxH75x-vqqsvjh7U2USbcvlUVtTcP2G20HmQh6lIjAZ77Lf5YHs2TnMVYXife16nQxc1biDP-Q6sGAoVcO2zhvJrSN7dp7TFBDzC2QnI0kizsRtizNL6PaBjtV07AG_nA8WkBHLmd5JVrSWa_GlZTysfsVVSbdz_SP2bejxclyUWordCA7v0V77qjbFZUYqNPyZT6azbYpeen0AVu09ixBq3Ej2bvBbiPNo5TxQmJFHs6R16r_vD-MycL6D-xXwAPqvkwFqsKNXEfxgZF7v1EmFCn2aLhvFyC8faPDix-IvW3EunK66acLasRGXRA4-K3yADseSJl2Bzjq9RT8m9-h5IXBqLqq9yUUi0LNOk1bGIDNP_1cf3U3CjAMUCRkOkudkZ5SWWUwXwXMxEMUR9y3iuCORc_uIS4hNHPoEJGvcUs3dtp1BHlZBzHB-AeZNhV-EZYteKaaplgQv_5wHcdi7L61_fdF_oI0nAidDkzFirkCrVMydkP99V9v2NCQsLPhF1yY-Jb3aRZNm00]--></g></svg>