<?xml version="1.0" encoding="us-ascii" standalone="no"?><svg xmlns="http://www.w3.org/2000/svg" xmlns:xlink="http://www.w3.org/1999/xlink" contentStyleType="text/css" height="302px" preserveAspectRatio="none" style="width:236px;height:302px;background:#FFFFFF;" version="1.1" viewBox="0 0 236 302" width="236px" zoomAndPan="magnify"><defs/><g><!--class frc.robot.autons.AutonSelector.AutonChoices--><a href="AutonSelector.AutonChoices.html" target="_top" title="AutonSelector.AutonChoices.html" xlink:actuate="onRequest" xlink:href="AutonSelector.AutonChoices.html" xlink:show="new" xlink:title="AutonSelector.AutonChoices.html" xlink:type="simple"><g id="elem_frc.robot.autons.AutonSelector.AutonChoices"><rect codeLine="5" fill="#F1F1F1" height="165.0954" id="frc.robot.autons.AutonSelector.AutonChoices" rx="2.5" ry="2.5" style="stroke:#181818;stroke-width:0.5;" width="222" x="7" y="109.68"/><ellipse cx="22" cy="131.024" fill="#EB937F" rx="11" ry="11" style="stroke:#181818;stroke-width:1.0;"/><path d="M18.3594,137.524 L18.3594,125.3833 L26.0156,125.3833 L26.0156,127.5083 L20.7344,127.5083 L20.7344,130.1646 L25.75,130.1646 L25.75,132.2896 L20.7344,132.2896 L20.7344,135.399 L26.0156,135.399 L26.0156,137.524 L18.3594,137.524 Z " fill="#000000"/><text fill="#000000" font-family="sans-serif" font-size="14" lengthAdjust="spacing" textLength="190" x="36" y="129.6459">AutonSelector.AutonChoices</text><text fill="#000000" font-family="sans-serif" font-size="10" lengthAdjust="spacing" textLength="77" x="92.5" y="144.4379">frc.robot.autons</text><line style="stroke:#181818;stroke-width:0.5;" x1="8" x2="228" y1="152.3679" y2="152.3679"/><ellipse cx="18" cy="167.4019" fill="none" rx="3" ry="3" style="stroke:#038048;stroke-width:1.0;"/><text fill="#000000" font-family="sans-serif" font-size="14" lengthAdjust="spacing" text-decoration="underline" textLength="50" x="27" y="171.3338">NoAuto</text><ellipse cx="18" cy="186.4698" fill="none" rx="3" ry="3" style="stroke:#038048;stroke-width:1.0;"/><text fill="#000000" font-family="sans-serif" font-size="14" lengthAdjust="spacing" text-decoration="underline" textLength="56" x="27" y="190.4018">LeftAuto</text><ellipse cx="18" cy="205.5377" fill="none" rx="3" ry="3" style="stroke:#038048;stroke-width:1.0;"/><text fill="#000000" font-family="sans-serif" font-size="14" lengthAdjust="spacing" text-decoration="underline" textLength="94" x="27" y="209.4697">LeftAutoShoot</text><ellipse cx="18" cy="224.6056" fill="none" rx="3" ry="3" style="stroke:#038048;stroke-width:1.0;"/><text fill="#000000" font-family="sans-serif" font-size="14" lengthAdjust="spacing" text-decoration="underline" textLength="116" x="27" y="228.5376">MiddleAutoShoot</text><ellipse cx="18" cy="243.6735" fill="none" rx="3" ry="3" style="stroke:#038048;stroke-width:1.0;"/><text fill="#000000" font-family="sans-serif" font-size="14" lengthAdjust="spacing" text-decoration="underline" textLength="105" x="27" y="247.6055">RightAutoShoot</text><ellipse cx="18" cy="262.7414" fill="none" rx="3" ry="3" style="stroke:#038048;stroke-width:1.0;"/><text fill="#000000" font-family="sans-serif" font-size="14" lengthAdjust="spacing" text-decoration="underline" textLength="134" x="27" y="266.6734">LeftAutoDepotShoot</text></g></a><!--class frc.robot.autons.AutonSelector--><a href="AutonSelector.html" target="_top" title="AutonSelector.html" xlink:actuate="onRequest" xlink:href="AutonSelector.html" xlink:show="new" xlink:title="AutonSelector.html" xlink:type="simple"><g id="elem_frc.robot.autons.AutonSelector"><rect codeLine="14" fill="#F1F1F1" height="42.6879" id="frc.robot.autons.AutonSelector" rx="2.5" ry="2.5" style="stroke:#181818;stroke-width:0.5;" width="126" x="55" y="7"/><ellipse cx="70" cy="28.344" fill="#ADD1B2" rx="11" ry="11" style="stroke:#181818;stroke-width:1.0;"/><path d="M69.4688,35.2658 Q67.7188,35.2658 66.5781,34.5315 Q65.4531,33.7815 64.8906,32.4377 Q64.3438,31.0783 64.3438,29.2815 Q64.3438,27.2502 65,25.7971 Q65.6563,24.344 66.9375,23.5627 Q68.2188,22.7815 70.0938,22.7815 Q70.9844,22.7815 71.6563,22.969 Q72.3281,23.1408 73.0156,23.4846 L72.2031,25.5002 Q71.5781,25.1877 71.0313,25.0627 Q70.5,24.9377 70.0156,24.9377 Q68.8438,24.9377 68.1406,25.469 Q67.4375,26.0002 67.1406,26.9533 Q66.8438,27.9065 66.8438,29.1721 Q66.8438,31.1877 67.5625,32.1565 Q68.2813,33.1096 69.875,33.1096 Q70.4688,33.1096 71.0938,32.9533 Q71.7188,32.7971 72.5469,32.4221 L72.5469,34.6408 Q71.8125,34.9533 71.0156,35.1096 Q70.2344,35.2658 69.4688,35.2658 Z " fill="#000000"/><text fill="#000000" font-family="sans-serif" font-size="14" lengthAdjust="spacing" textLength="94" x="84" y="26.9659">AutonSelector</text><text fill="#000000" font-family="sans-serif" font-size="10" lengthAdjust="spacing" textLength="77" x="92.5" y="41.7579">frc.robot.autons</text></g></a><!--reverse link frc.robot.autons.AutonSelector to frc.robot.autons.AutonSelector.AutonChoices--><g id="link_frc.robot.autons.AutonSelector_frc.robot.autons.AutonSelector.AutonChoices"><path codeLine="16" d="M118,66.17 C118,81.46 118,87.3 118,109.24 " fill="none" id="frc.robot.autons.AutonSelector-backto-frc.robot.autons.AutonSelector.AutonChoices" style="stroke:#181818;stroke-width:1.0;"/><ellipse cx="118" cy="58.17" fill="#FFFFFF" rx="8" ry="8" style="stroke:#181818;stroke-width:1.0;"/><line style="stroke:#181818;stroke-width:1.0;" x1="118" x2="118" y1="66.17" y2="50.17"/><line style="stroke:#181818;stroke-width:1.0;" x1="110" x2="126" y1="58.17" y2="58.17"/></g><text fill="#888888" font-family="sans-serif" font-size="10" lengthAdjust="spacing" textLength="176" x="23" y="291.4654">UMLDoclet 2.1.2, PlantUML 1.2024.3</text><!--SRC=[fLB1IWCn4Btx5KD1K6g3BPv42cAFhOYBfzf3pCwQG99PCbD1I__TxAuYr6wBc4l8UozlPbu20C0e47L0hhN10ckTj522I15FCWtMbGWOQdc7og4lUHSDA9OotE8Orm46D-m-y7fyDRrT2yK2FPhigThJdILda9_Zb-XoMYMZ4hsGADq8U02QOHTK_LQmNFQJoahmgnLislQQjM7HuimMXlVKAFSGSwpa25LO8jd3BrnPUZoaU7Ilzg35TuaPrYG_ecsNiF6QkI_Y_wNwAyWkkwxkaQl3qUWlRzQDWb4mGPKdpDlJOZuZu_DtdAYncbp0WzTHCWgdRvZOKJmx_mG0]--></g></svg>