<?xml version="1.0" encoding="us-ascii" standalone="no"?><svg xmlns="http://www.w3.org/2000/svg" xmlns:xlink="http://www.w3.org/1999/xlink" contentStyleType="text/css" height="309px" preserveAspectRatio="none" style="width:361px;height:309px;background:#FFFFFF;" version="1.1" viewBox="0 0 361 309" width="361px" zoomAndPan="magnify"><defs/><g><!--class frc.robot.autons.AutonSelector--><a href="AutonSelector.html" target="_top" title="AutonSelector.html" xlink:actuate="onRequest" xlink:href="AutonSelector.html" xlink:show="new" xlink:title="AutonSelector.html" xlink:type="simple"><g id="elem_frc.robot.autons.AutonSelector"><rect codeLine="5" fill="#F1F1F1" height="173.0954" id="frc.robot.autons.AutonSelector" rx="2.5" ry="2.5" style="stroke:#181818;stroke-width:0.5;" width="345" x="9" y="7"/><ellipse cx="130.25" cy="28.344" fill="#ADD1B2" rx="11" ry="11" style="stroke:#181818;stroke-width:1.0;"/><path d="M129.7188,35.2658 Q127.9688,35.2658 126.8281,34.5315 Q125.7031,33.7815 125.1406,32.4377 Q124.5938,31.0783 124.5938,29.2815 Q124.5938,27.2502 125.25,25.7971 Q125.9063,24.344 127.1875,23.5627 Q128.4688,22.7815 130.3438,22.7815 Q131.2344,22.7815 131.9063,22.969 Q132.5781,23.1408 133.2656,23.4846 L132.4531,25.5002 Q131.8281,25.1877 131.2813,25.0627 Q130.75,24.9377 130.2656,24.9377 Q129.0938,24.9377 128.3906,25.469 Q127.6875,26.0002 127.3906,26.9533 Q127.0938,27.9065 127.0938,29.1721 Q127.0938,31.1877 127.8125,32.1565 Q128.5313,33.1096 130.125,33.1096 Q130.7188,33.1096 131.3438,32.9533 Q131.9688,32.7971 132.7969,32.4221 L132.7969,34.6408 Q132.0625,34.9533 131.2656,35.1096 Q130.4844,35.2658 129.7188,35.2658 Z " fill="#000000"/><text fill="#000000" font-family="sans-serif" font-size="14" lengthAdjust="spacing" textLength="94" x="150.75" y="26.9659">AutonSelector</text><text fill="#000000" font-family="sans-serif" font-size="10" lengthAdjust="spacing" textLength="77" x="159.25" y="41.7579">frc.robot.autons</text><line style="stroke:#181818;stroke-width:0.5;" x1="10" x2="353" y1="49.6879" y2="49.6879"/><polygon fill="none" points="20,60.7219,16,66.7219,24,66.7219" style="stroke:#1963A0;stroke-width:1.0;"/><text fill="#000000" font-family="sans-serif" font-size="14" lengthAdjust="spacing" textLength="319" x="29" y="68.6538">autoChooser: SendableChooser&lt;AutonChoices&gt;</text><polygon fill="none" points="20,79.7898,16,85.7898,24,85.7898" style="stroke:#1963A0;stroke-width:1.0;"/><text fill="#000000" font-family="sans-serif" font-size="14" lengthAdjust="spacing" textLength="281" x="29" y="87.7218">delayChooser: SendableChooser&lt;Double&gt;</text><rect fill="none" height="6" style="stroke:#C82930;stroke-width:1.0;" width="6" x="17" y="99.8577"/><text fill="#000000" font-family="sans-serif" font-size="14" lengthAdjust="spacing" text-decoration="underline" textLength="159" x="29" y="106.7897">instance: AutonSelector</text><line style="stroke:#181818;stroke-width:0.5;" x1="10" x2="353" y1="114.8917" y2="114.8917"/><ellipse cx="20" cy="129.9256" fill="#84BE84" rx="3" ry="3" style="stroke:#038048;stroke-width:1.0;"/><text fill="#000000" font-family="sans-serif" font-size="14" lengthAdjust="spacing" text-decoration="underline" textLength="190" x="29" y="133.8576">getInstance(): AutonSelector</text><ellipse cx="20" cy="148.9935" fill="#84BE84" rx="3" ry="3" style="stroke:#038048;stroke-width:1.0;"/><text fill="#000000" font-family="sans-serif" font-size="14" lengthAdjust="spacing" textLength="143" x="29" y="152.9255">chooseAuton(): Auton</text><ellipse cx="20" cy="168.0614" fill="#84BE84" rx="3" ry="3" style="stroke:#038048;stroke-width:1.0;"/><text fill="#000000" font-family="sans-serif" font-size="14" lengthAdjust="spacing" textLength="147" x="29" y="171.9934">chooseDelay(): double</text></g></a><!--class frc.robot.autons.AutonSelector.AutonChoices--><a href="AutonSelector.AutonChoices.html" target="_top" title="AutonSelector.AutonChoices.html" xlink:actuate="onRequest" xlink:href="AutonSelector.AutonChoices.html" xlink:show="new" xlink:title="AutonSelector.AutonChoices.html" xlink:type="simple"><g id="elem_frc.robot.autons.AutonSelector.AutonChoices"><rect codeLine="13" fill="#F1F1F1" height="42.6879" id="frc.robot.autons.AutonSelector.AutonChoices" rx="2.5" ry="2.5" style="stroke:#181818;stroke-width:0.5;" width="222" x="70.5" y="240.09"/><ellipse cx="85.5" cy="261.434" fill="#EB937F" rx="11" ry="11" style="stroke:#181818;stroke-width:1.0;"/><path d="M81.8594,267.934 L81.8594,255.7933 L89.5156,255.7933 L89.5156,257.9183 L84.2344,257.9183 L84.2344,260.5746 L89.25,260.5746 L89.25,262.6996 L84.2344,262.6996 L84.2344,265.809 L89.5156,265.809 L89.5156,267.934 L81.8594,267.934 Z " fill="#000000"/><text fill="#000000" font-family="sans-serif" font-size="14" lengthAdjust="spacing" textLength="190" x="99.5" y="260.0559">AutonSelector.AutonChoices</text><text fill="#000000" font-family="sans-serif" font-size="10" lengthAdjust="spacing" textLength="77" x="156" y="274.8479">frc.robot.autons</text></g></a><!--reverse link frc.robot.autons.AutonSelector to frc.robot.autons.AutonSelector.AutonChoices--><g id="link_frc.robot.autons.AutonSelector_frc.robot.autons.AutonSelector.AutonChoices"><path codeLine="15" d="M181.5,196.41 C181.5,218.54 181.5,224.4 181.5,239.67 " fill="none" id="frc.robot.autons.AutonSelector-backto-frc.robot.autons.AutonSelector.AutonChoices" style="stroke:#181818;stroke-width:1.0;"/><ellipse cx="181.5" cy="188.41" fill="#FFFFFF" rx="8" ry="8" style="stroke:#181818;stroke-width:1.0;"/><line style="stroke:#181818;stroke-width:1.0;" x1="181.5" x2="181.5" y1="196.41" y2="180.41"/><line style="stroke:#181818;stroke-width:1.0;" x1="173.5" x2="189.5" y1="188.41" y2="188.41"/></g><text fill="#888888" font-family="sans-serif" font-size="10" lengthAdjust="spacing" textLength="176" x="85.5" y="298.4679">UMLDoclet 2.1.2, PlantUML 1.2024.3</text><!--SRC=[fL9VIyCm47_tKnm3GQaDRlXKna3iYw0W39_c7hBqQWDfKdAfCCVyx2PPSMj74R4FQUxt9tV97G00eGFDQwI62rnYmortne8s6Yyy3PKi4B1kt1PAYQgW8LgZguo78ouK9uB9dEGdPjExnNthZ5wYGk4FVTCTVhiehM3MR8nZF2Xe0fnW2BAU6rQhNimgLwlr6dOnSVY-WksXCeRGPh14NV2DmWwOHxCFf41Q73q5AhuTDUMczT5HlYF7dHHxIANsMoqmWrvLvyha7TrZ9xww7fCd8cQCv8zgoEQXri0MiQn8x-EAkgt7dfsTtln_FUWTTTQGKxBhpc4gVcbiagP_oNiODDGEBPJ6XD_hyrDkXFAZF6DJDhk15yMryoXSVg0b6Txq6m00]--></g></svg>