<?xml version="1.0" encoding="us-ascii" standalone="no"?><svg xmlns="http://www.w3.org/2000/svg" xmlns:xlink="http://www.w3.org/1999/xlink" contentStyleType="text/css" height="367px" preserveAspectRatio="none" style="width:406px;height:367px;background:#FFFFFF;" version="1.1" viewBox="0 0 406 367" width="406px" zoomAndPan="magnify"><defs/><g><!--class frc.robot.autons.Auton--><a href="Auton.html" target="_top" title="Auton.html" xlink:actuate="onRequest" xlink:href="Auton.html" xlink:show="new" xlink:title="Auton.html" xlink:type="simple"><g id="elem_frc.robot.autons.Auton"><rect codeLine="5" fill="#F1F1F1" height="230.2992" id="frc.robot.autons.Auton" rx="2.5" ry="2.5" style="stroke:#181818;stroke-width:0.5;" width="390" x="9" y="109.69"/><ellipse cx="162.75" cy="131.034" fill="#A9DCDF" rx="11" ry="11" style="stroke:#181818;stroke-width:1.0;"/><path d="M157.9219,136.784 L161.2656,124.5965 L164.4063,124.5965 L167.7813,136.784 L165.3125,136.784 L164.5781,133.7683 L161.0625,133.7683 L160.3125,136.784 L157.9219,136.784 Z M162.3281,128.7371 L161.5781,131.7371 L164.0938,131.7371 L163.375,128.7371 Q163.2344,128.159 163.1094,127.6121 Q162.9844,127.0496 162.8438,126.4715 Q162.7344,127.0496 162.5938,127.6121 Q162.4531,128.159 162.3281,128.7371 Z " fill="#000000"/><text fill="#000000" font-family="sans-serif" font-size="14" font-style="italic" lengthAdjust="spacing" textLength="37" x="201.75" y="129.6559">Auton</text><text fill="#000000" font-family="sans-serif" font-size="10" font-style="italic" lengthAdjust="spacing" textLength="74" x="183.25" y="144.4479">frc.robot.autons</text><line style="stroke:#181818;stroke-width:0.5;" x1="10" x2="398" y1="152.3779" y2="152.3779"/><rect fill="none" height="6" style="stroke:#C82930;stroke-width:1.0;" width="6" x="17" y="164.4119"/><text fill="#000000" font-family="sans-serif" font-size="14" lengthAdjust="spacing" textLength="125" x="29" y="171.3438">initialPose: Pose2d</text><polygon fill="none" points="20,181.4798,24,185.4798,20,189.4798,16,185.4798" style="stroke:#B38D22;stroke-width:1.0;"/><text fill="#000000" font-family="sans-serif" font-size="14" lengthAdjust="spacing" textLength="147" x="29" y="190.4118">driveTrain: DriveTrain</text><polygon fill="none" points="20,200.5477,24,204.5477,20,208.5477,16,204.5477" style="stroke:#B38D22;stroke-width:1.0;"/><text fill="#000000" font-family="sans-serif" font-size="14" lengthAdjust="spacing" textLength="113" x="29" y="209.4797">alliance: Alliance</text><line style="stroke:#181818;stroke-width:0.5;" x1="10" x2="398" y1="217.5817" y2="217.5817"/><ellipse cx="20" cy="232.6156" fill="#84BE84" rx="3" ry="3" style="stroke:#038048;stroke-width:1.0;"/><text fill="#000000" font-family="sans-serif" font-size="14" lengthAdjust="spacing" textLength="175" x="29" y="236.5476">Auton(Optional&lt;Alliance&gt;)</text><rect fill="#F24D5C" height="6" style="stroke:#C82930;stroke-width:1.0;" width="6" x="17" y="248.6835"/><text fill="#000000" font-family="sans-serif" font-size="14" lengthAdjust="spacing" textLength="182" x="29" y="255.6155">setInitialPose(Pose2d): void</text><polygon fill="#FFFF44" points="20,265.7514,24,269.7514,20,273.7514,16,269.7514" style="stroke:#B38D22;stroke-width:1.0;"/><text fill="#000000" font-family="sans-serif" font-size="14" lengthAdjust="spacing" textLength="283" x="29" y="274.6834">setInitialPose(PathPlannerTrajectory): void</text><polygon fill="#FFFF44" points="20,284.8194,24,288.8194,20,292.8194,16,288.8194" style="stroke:#B38D22;stroke-width:1.0;"/><text fill="#000000" font-family="sans-serif" font-size="14" lengthAdjust="spacing" textLength="364" x="29" y="293.7513">setInitialPose(PathPlannerTrajectory, Rotation2d): void</text><ellipse cx="20" cy="308.8873" fill="#84BE84" rx="3" ry="3" style="stroke:#038048;stroke-width:1.0;"/><text fill="#000000" font-family="sans-serif" font-size="14" lengthAdjust="spacing" textLength="156" x="29" y="312.8193">getInitialPose(): Pose2d</text><ellipse cx="20" cy="327.9552" fill="#84BE84" rx="3" ry="3" style="stroke:#038048;stroke-width:1.0;"/><text fill="#000000" font-family="sans-serif" font-size="14" lengthAdjust="spacing" textLength="336" x="29" y="331.8872">followPathCommand(PathPlannerPath): Command</text></g></a><!--class edu.wpi.first.wpilibj2.command.SequentialCommandGroup--><g id="elem_edu.wpi.first.wpilibj2.command.SequentialCommandGroup"><rect codeLine="17" fill="#F1F1F1" height="42.6879" id="edu.wpi.first.wpilibj2.command.SequentialCommandGroup" rx="2.5" ry="2.5" style="stroke:#181818;stroke-width:0.5;" width="215" x="96.5" y="7"/><ellipse cx="111.5" cy="28.344" fill="#ADD1B2" rx="11" ry="11" style="stroke:#181818;stroke-width:1.0;"/><path d="M110.9688,35.2658 Q109.2188,35.2658 108.0781,34.5315 Q106.9531,33.7815 106.3906,32.4377 Q105.8438,31.0783 105.8438,29.2815 Q105.8438,27.2502 106.5,25.7971 Q107.1563,24.344 108.4375,23.5627 Q109.7188,22.7815 111.5938,22.7815 Q112.4844,22.7815 113.1563,22.969 Q113.8281,23.1408 114.5156,23.4846 L113.7031,25.5002 Q113.0781,25.1877 112.5313,25.0627 Q112,24.9377 111.5156,24.9377 Q110.3438,24.9377 109.6406,25.469 Q108.9375,26.0002 108.6406,26.9533 Q108.3438,27.9065 108.3438,29.1721 Q108.3438,31.1877 109.0625,32.1565 Q109.7813,33.1096 111.375,33.1096 Q111.9688,33.1096 112.5938,32.9533 Q113.2188,32.7971 114.0469,32.4221 L114.0469,34.6408 Q113.3125,34.9533 112.5156,35.1096 Q111.7344,35.2658 110.9688,35.2658 Z " fill="#000000"/><text fill="#000000" font-family="sans-serif" font-size="14" lengthAdjust="spacing" textLength="183" x="125.5" y="26.9659">SequentialCommandGroup</text><text fill="#000000" font-family="sans-serif" font-size="10" lengthAdjust="spacing" textLength="151" x="141.5" y="41.7579">edu.wpi.first.wpilibj2.command</text></g><!--reverse link edu.wpi.first.wpilibj2.command.SequentialCommandGroup to frc.robot.autons.Auton--><g id="link_edu.wpi.first.wpilibj2.command.SequentialCommandGroup_frc.robot.autons.Auton"><path codeLine="19" d="M204,68.16 C204,83.15 204,86.7 204,109.53 " fill="none" id="edu.wpi.first.wpilibj2.command.SequentialCommandGroup-backto-frc.robot.autons.Auton" style="stroke:#181818;stroke-width:1.0;"/><polygon fill="none" points="204,50.16,198,68.16,210,68.16,204,50.16" style="stroke:#181818;stroke-width:1.0;"/></g><text fill="#888888" font-family="sans-serif" font-size="10" lengthAdjust="spacing" textLength="176" x="108" y="356.6791">UMLDoclet 2.1.2, PlantUML 1.2024.3</text><!--SRC=[dLDDJm8n4BtxAoOQ4mZG2F5420cHn9Xe9A8dv33iphebtSxQ5WX-_7VRNGHSr0DxQAVlpUkRdTa50B3aG6D6DiU8nfIZGSS6D6iwyJIaCYQWB7ThI2Ifs5RHZ5pA7Yvmd5bdC78GARGMJdjMlb6tVTaVB1phPxqvN_GJ4md3CtO20sDF0IrKGL6eO38fTf6wJ4sdy5uuXQSbjNGIrOWjTI6idNXBdiL6BkdHeDHT66xZ7OzAITIHLmusqPPh58Qr-zn9rgXwtmdz-ixRD-vcPryhtUjTMBBSAwAQXIuTATIQZAzcJf7lzVeeKHCUs66exz2ryVBpWlf1Sne9AyMhSFCLPndgUDybX5wpOGhHPpdVwbZ7zBeW7OmsoTU65_dUd2bUY5KkHIADTI5ISZRlYAZCBgR-VuhutQ8ivoWfz3vQhJ- -jV8blOOC9CnXUxgx7NAa_6_I4MtHQK9ealCed2_9M3-0MlqB]--></g></svg>