<?xml version="1.0" encoding="us-ascii" standalone="no"?><svg xmlns="http://www.w3.org/2000/svg" xmlns:xlink="http://www.w3.org/1999/xlink" contentStyleType="text/css" height="207px" preserveAspectRatio="none" style="width:309px;height:207px;background:#FFFFFF;" version="1.1" viewBox="0 0 309 207" width="309px" zoomAndPan="magnify"><defs/><g><!--class frc.robot.autons.LeftAutoDepotShoot--><a href="LeftAutoDepotShoot.html" target="_top" title="LeftAutoDepotShoot.html" xlink:actuate="onRequest" xlink:href="LeftAutoDepotShoot.html" xlink:show="new" xlink:title="LeftAutoDepotShoot.html" xlink:type="simple"><g id="elem_frc.robot.autons.LeftAutoDepotShoot"><rect codeLine="5" fill="#F1F1F1" height="69.7558" id="frc.robot.autons.LeftAutoDepotShoot" rx="2.5" ry="2.5" style="stroke:#181818;stroke-width:0.5;" width="295" x="7" y="109.68"/><ellipse cx="83.25" cy="131.024" fill="#ADD1B2" rx="11" ry="11" style="stroke:#181818;stroke-width:1.0;"/><path d="M82.7188,137.9458 Q80.9688,137.9458 79.8281,137.2115 Q78.7031,136.4615 78.1406,135.1177 Q77.5938,133.7583 77.5938,131.9615 Q77.5938,129.9302 78.25,128.4771 Q78.9063,127.024 80.1875,126.2427 Q81.4688,125.4615 83.3438,125.4615 Q84.2344,125.4615 84.9063,125.649 Q85.5781,125.8208 86.2656,126.1646 L85.4531,128.1802 Q84.8281,127.8677 84.2813,127.7427 Q83.75,127.6177 83.2656,127.6177 Q82.0938,127.6177 81.3906,128.149 Q80.6875,128.6802 80.3906,129.6333 Q80.0938,130.5865 80.0938,131.8521 Q80.0938,133.8677 80.8125,134.8365 Q81.5313,135.7896 83.125,135.7896 Q83.7188,135.7896 84.3438,135.6333 Q84.9688,135.4771 85.7969,135.1021 L85.7969,137.3208 Q85.0625,137.6333 84.2656,137.7896 Q83.4844,137.9458 82.7188,137.9458 Z " fill="#000000"/><text fill="#000000" font-family="sans-serif" font-size="14" lengthAdjust="spacing" textLength="134" x="103.75" y="129.6459">LeftAutoDepotShoot</text><text fill="#000000" font-family="sans-serif" font-size="10" lengthAdjust="spacing" textLength="77" x="132.25" y="144.4379">frc.robot.autons</text><line style="stroke:#181818;stroke-width:0.5;" x1="8" x2="301" y1="152.3679" y2="152.3679"/><ellipse cx="18" cy="167.4019" fill="#84BE84" rx="3" ry="3" style="stroke:#038048;stroke-width:1.0;"/><text fill="#000000" font-family="sans-serif" font-size="14" lengthAdjust="spacing" textLength="269" x="27" y="171.3338">LeftAutoDepotShoot(Optional&lt;Alliance&gt;)</text></g></a><!--class frc.robot.autons.Auton--><a href="Auton.html" target="_top" title="Auton.html" xlink:actuate="onRequest" xlink:href="Auton.html" xlink:show="new" xlink:title="Auton.html" xlink:type="simple"><g id="elem_frc.robot.autons.Auton"><rect codeLine="9" fill="#F1F1F1" height="42.6879" id="frc.robot.autons.Auton" rx="2.5" ry="2.5" style="stroke:#181818;stroke-width:0.5;" width="106" x="101.5" y="7"/><ellipse cx="116.5" cy="28.344" fill="#A9DCDF" rx="11" ry="11" style="stroke:#181818;stroke-width:1.0;"/><path d="M111.6719,34.094 L115.0156,21.9065 L118.1563,21.9065 L121.5313,34.094 L119.0625,34.094 L118.3281,31.0783 L114.8125,31.0783 L114.0625,34.094 L111.6719,34.094 Z M116.0781,26.0471 L115.3281,29.0471 L117.8438,29.0471 L117.125,26.0471 Q116.9844,25.469 116.8594,24.9221 Q116.7344,24.3596 116.5938,23.7815 Q116.4844,24.3596 116.3438,24.9221 Q116.2031,25.469 116.0781,26.0471 Z " fill="#000000"/><text fill="#000000" font-family="sans-serif" font-size="14" font-style="italic" lengthAdjust="spacing" textLength="37" x="149" y="26.9659">Auton</text><text fill="#000000" font-family="sans-serif" font-size="10" font-style="italic" lengthAdjust="spacing" textLength="74" x="130.5" y="41.7579">frc.robot.autons</text></g></a><!--reverse link frc.robot.autons.Auton to frc.robot.autons.LeftAutoDepotShoot--><g id="link_frc.robot.autons.Auton_frc.robot.autons.LeftAutoDepotShoot"><path codeLine="11" d="M154.5,68.02 C154.5,84.61 154.5,90.23 154.5,109.59 " fill="none" id="frc.robot.autons.Auton-backto-frc.robot.autons.LeftAutoDepotShoot" style="stroke:#181818;stroke-width:1.0;"/><polygon fill="none" points="154.5,50.02,148.5,68.02,160.5,68.02,154.5,50.02" style="stroke:#181818;stroke-width:1.0;"/></g><text fill="#888888" font-family="sans-serif" font-size="10" lengthAdjust="spacing" textLength="176" x="59.5" y="196.1258">UMLDoclet 2.1.2, PlantUML 1.2024.3</text><!--SRC=[bP5DQm8n48Rl_HM3K52geKfFPLaGF5eiI4_MmnXdsK1s9YHZeL__lJ7hoQNGvZBacJSpxqm0018fC7QK0bhQKi28AX5Oc6vo6bft9A0kw3iqZlmnNTEEj9MC2xSUKu9HbTm7FSuVwZKrkZofh2Y8RbiHVULByhvkeZLH3g86iuJJ2331DJJ34h3R3Q5fjVFxFNmM7-TpDnIDDq6TCFfgwRr3jbHFYlwxju-7f16j3kOub-5_Mo-lijiIBmRxHhz8gw_Px2yRw7TDh1IXoVSSNfxMAx4-_-R2pCrY2iyUMJE5spUAAKyzdlm0]--></g></svg>