<?xml version="1.0" encoding="us-ascii" standalone="no"?><svg xmlns="http://www.w3.org/2000/svg" xmlns:xlink="http://www.w3.org/1999/xlink" contentStyleType="text/css" height="618px" preserveAspectRatio="none" style="width:1751px;height:618px;background:#FFFFFF;" version="1.1" viewBox="0 0 1751 618" width="1751px" zoomAndPan="magnify"><defs/><g><!--cluster frc.robot.autons--><g id="cluster_frc.robot.autons"><path d="M8.5,132.602 L122.5,132.602 A3.75,3.75 0 0 1 125,135.102 L132,157.6699 L1741.5,157.6699 A2.5,2.5 0 0 1 1744,160.1699 L1744,587.982 A2.5,2.5 0 0 1 1741.5,590.482 L8.5,590.482 A2.5,2.5 0 0 1 6,587.982 L6,135.102 A2.5,2.5 0 0 1 8.5,132.602 " fill="none" style="stroke:#000000;stroke-width:1.5;"/><line style="stroke:#000000;stroke-width:1.5;" x1="6" x2="132" y1="157.6699" y2="157.6699"/><text fill="#000000" font-family="sans-serif" font-size="14" font-weight="bold" lengthAdjust="spacing" textLength="113" x="10" y="149.5679">frc.robot.autons</text></g><!--cluster edu.wpi.first.wpilibj2.command--><g id="cluster_edu.wpi.first.wpilibj2.command"><path d="M636.5,6.602 L856.5,6.602 A3.75,3.75 0 0 1 859,9.102 L866,31.6699 L877.5,31.6699 A2.5,2.5 0 0 1 880,34.1699 L880,106.102 A2.5,2.5 0 0 1 877.5,108.602 L636.5,108.602 A2.5,2.5 0 0 1 634,106.102 L634,9.102 A2.5,2.5 0 0 1 636.5,6.602 " fill="none" style="stroke:#000000;stroke-width:1.5;"/><line style="stroke:#000000;stroke-width:1.5;" x1="634" x2="866" y1="31.6699" y2="31.6699"/><text fill="#000000" font-family="sans-serif" font-size="14" font-weight="bold" lengthAdjust="spacing" textLength="219" x="638" y="23.5679">edu.wpi.first.wpilibj2.command</text></g><!--class Paths--><a href="Paths.html" target="_top" title="Paths.html" xlink:actuate="onRequest" xlink:href="Paths.html" xlink:show="new" xlink:title="Paths.html" xlink:type="simple"><g id="elem_Paths"><rect codeLine="5" fill="#F1F1F1" height="181.4754" id="Paths" rx="2.5" ry="2.5" style="stroke:#181818;stroke-width:0.5;" width="359" x="94.5" y="170.602"/><ellipse cx="251.25" cy="186.602" fill="#ADD1B2" rx="11" ry="11" style="stroke:#181818;stroke-width:1.0;"/><path d="M250.7188,193.5239 Q248.9688,193.5239 247.8281,192.7895 Q246.7031,192.0395 246.1406,190.6957 Q245.5938,189.3364 245.5938,187.5395 Q245.5938,185.5082 246.25,184.0551 Q246.9063,182.602 248.1875,181.8207 Q249.4688,181.0395 251.3438,181.0395 Q252.2344,181.0395 252.9063,181.227 Q253.5781,181.3989 254.2656,181.7426 L253.4531,183.7582 Q252.8281,183.4457 252.2813,183.3207 Q251.75,183.1957 251.2656,183.1957 Q250.0938,183.1957 249.3906,183.727 Q248.6875,184.2582 248.3906,185.2114 Q248.0938,186.1645 248.0938,187.4301 Q248.0938,189.4457 248.8125,190.4145 Q249.5313,191.3676 251.125,191.3676 Q251.7188,191.3676 252.3438,191.2114 Q252.9688,191.0551 253.7969,190.6801 L253.7969,192.8989 Q253.0625,193.2114 252.2656,193.3676 Q251.4844,193.5239 250.7188,193.5239 Z " fill="#000000"/><text fill="#000000" font-family="sans-serif" font-size="14" lengthAdjust="spacing" textLength="37" x="271.75" y="192.034">Paths</text><line style="stroke:#181818;stroke-width:0.5;" x1="95.5" x2="452.5" y1="202.602" y2="202.602"/><line style="stroke:#181818;stroke-width:0.5;" x1="95.5" x2="452.5" y1="210.602" y2="210.602"/><ellipse cx="105.5" cy="225.6359" fill="#84BE84" rx="3" ry="3" style="stroke:#038048;stroke-width:1.0;"/><text fill="#000000" font-family="sans-serif" font-size="14" lengthAdjust="spacing" text-decoration="underline" textLength="237" x="114.5" y="229.5679">getLeftStartPath(): PathPlannerPath</text><ellipse cx="105.5" cy="244.7039" fill="#84BE84" rx="3" ry="3" style="stroke:#038048;stroke-width:1.0;"/><text fill="#000000" font-family="sans-serif" font-size="14" lengthAdjust="spacing" text-decoration="underline" textLength="333" x="114.5" y="248.6358">getMiddleAcquireToShootPath(): PathPlannerPath</text><ellipse cx="105.5" cy="263.7718" fill="#84BE84" rx="3" ry="3" style="stroke:#038048;stroke-width:1.0;"/><text fill="#000000" font-family="sans-serif" font-size="14" lengthAdjust="spacing" text-decoration="underline" textLength="213" x="114.5" y="267.7038">getLeft1Path(): PathPlannerPath</text><ellipse cx="105.5" cy="282.8397" fill="#84BE84" rx="3" ry="3" style="stroke:#038048;stroke-width:1.0;"/><text fill="#000000" font-family="sans-serif" font-size="14" lengthAdjust="spacing" text-decoration="underline" textLength="235" x="114.5" y="286.7717">getMiddle1Path(): PathPlannerPath</text><ellipse cx="105.5" cy="301.9076" fill="#84BE84" rx="3" ry="3" style="stroke:#038048;stroke-width:1.0;"/><text fill="#000000" font-family="sans-serif" font-size="14" lengthAdjust="spacing" text-decoration="underline" textLength="224" x="114.5" y="305.8396">getRight1Path(): PathPlannerPath</text><ellipse cx="105.5" cy="320.9755" fill="#84BE84" rx="3" ry="3" style="stroke:#038048;stroke-width:1.0;"/><text fill="#000000" font-family="sans-serif" font-size="14" lengthAdjust="spacing" text-decoration="underline" textLength="253" x="114.5" y="324.9075">getDepotLeft1Path(): PathPlannerPath</text><ellipse cx="105.5" cy="340.0434" fill="#84BE84" rx="3" ry="3" style="stroke:#038048;stroke-width:1.0;"/><text fill="#000000" font-family="sans-serif" font-size="14" lengthAdjust="spacing" text-decoration="underline" textLength="253" x="114.5" y="343.9754">getDepotLeft2Path(): PathPlannerPath</text></g></a><!--class LeftAutoShoot--><a href="LeftAutoShoot.html" target="_top" title="LeftAutoShoot.html" xlink:actuate="onRequest" xlink:href="LeftAutoShoot.html" xlink:show="new" xlink:title="LeftAutoShoot.html" xlink:type="simple"><g id="elem_LeftAutoShoot"><rect codeLine="15" fill="#F1F1F1" height="67.0679" id="LeftAutoShoot" rx="2.5" ry="2.5" style="stroke:#181818;stroke-width:0.5;" width="255" x="22.5" y="459.742"/><ellipse cx="98.75" cy="475.742" fill="#ADD1B2" rx="11" ry="11" style="stroke:#181818;stroke-width:1.0;"/><path d="M98.2188,482.6639 Q96.4688,482.6639 95.3281,481.9295 Q94.2031,481.1795 93.6406,479.8357 Q93.0938,478.4764 93.0938,476.6795 Q93.0938,474.6482 93.75,473.1951 Q94.4063,471.742 95.6875,470.9607 Q96.9688,470.1795 98.8438,470.1795 Q99.7344,470.1795 100.4063,470.367 Q101.0781,470.5389 101.7656,470.8826 L100.9531,472.8982 Q100.3281,472.5857 99.7813,472.4607 Q99.25,472.3357 98.7656,472.3357 Q97.5938,472.3357 96.8906,472.867 Q96.1875,473.3982 95.8906,474.3514 Q95.5938,475.3045 95.5938,476.5701 Q95.5938,478.5857 96.3125,479.5545 Q97.0313,480.5076 98.625,480.5076 Q99.2188,480.5076 99.8438,480.3514 Q100.4688,480.1951 101.2969,479.8201 L101.2969,482.0389 Q100.5625,482.3514 99.7656,482.5076 Q98.9844,482.6639 98.2188,482.6639 Z " fill="#000000"/><text fill="#000000" font-family="sans-serif" font-size="14" lengthAdjust="spacing" textLength="94" x="119.25" y="481.174">LeftAutoShoot</text><line style="stroke:#181818;stroke-width:0.5;" x1="23.5" x2="276.5" y1="491.742" y2="491.742"/><line style="stroke:#181818;stroke-width:0.5;" x1="23.5" x2="276.5" y1="499.742" y2="499.742"/><ellipse cx="33.5" cy="514.7759" fill="#84BE84" rx="3" ry="3" style="stroke:#038048;stroke-width:1.0;"/><text fill="#000000" font-family="sans-serif" font-size="14" lengthAdjust="spacing" textLength="229" x="42.5" y="518.7079">LeftAutoShoot(Optional&lt;Alliance&gt;)</text></g></a><!--class MiddleAutoShoot--><a href="MiddleAutoShoot.html" target="_top" title="MiddleAutoShoot.html" xlink:actuate="onRequest" xlink:href="MiddleAutoShoot.html" xlink:show="new" xlink:title="MiddleAutoShoot.html" xlink:type="simple"><g id="elem_MiddleAutoShoot"><rect codeLine="19" fill="#F1F1F1" height="67.0679" id="MiddleAutoShoot" rx="2.5" ry="2.5" style="stroke:#181818;stroke-width:0.5;" width="277" x="312.5" y="459.742"/><ellipse cx="388.75" cy="475.742" fill="#ADD1B2" rx="11" ry="11" style="stroke:#181818;stroke-width:1.0;"/><path d="M388.2188,482.6639 Q386.4688,482.6639 385.3281,481.9295 Q384.2031,481.1795 383.6406,479.8357 Q383.0938,478.4764 383.0938,476.6795 Q383.0938,474.6482 383.75,473.1951 Q384.4063,471.742 385.6875,470.9607 Q386.9688,470.1795 388.8438,470.1795 Q389.7344,470.1795 390.4063,470.367 Q391.0781,470.5389 391.7656,470.8826 L390.9531,472.8982 Q390.3281,472.5857 389.7813,472.4607 Q389.25,472.3357 388.7656,472.3357 Q387.5938,472.3357 386.8906,472.867 Q386.1875,473.3982 385.8906,474.3514 Q385.5938,475.3045 385.5938,476.5701 Q385.5938,478.5857 386.3125,479.5545 Q387.0313,480.5076 388.625,480.5076 Q389.2188,480.5076 389.8438,480.3514 Q390.4688,480.1951 391.2969,479.8201 L391.2969,482.0389 Q390.5625,482.3514 389.7656,482.5076 Q388.9844,482.6639 388.2188,482.6639 Z " fill="#000000"/><text fill="#000000" font-family="sans-serif" font-size="14" lengthAdjust="spacing" textLength="116" x="409.25" y="481.174">MiddleAutoShoot</text><line style="stroke:#181818;stroke-width:0.5;" x1="313.5" x2="588.5" y1="491.742" y2="491.742"/><line style="stroke:#181818;stroke-width:0.5;" x1="313.5" x2="588.5" y1="499.742" y2="499.742"/><ellipse cx="323.5" cy="514.7759" fill="#84BE84" rx="3" ry="3" style="stroke:#038048;stroke-width:1.0;"/><text fill="#000000" font-family="sans-serif" font-size="14" lengthAdjust="spacing" textLength="251" x="332.5" y="518.7079">MiddleAutoShoot(Optional&lt;Alliance&gt;)</text></g></a><!--class RightAutoShoot--><a href="RightAutoShoot.html" target="_top" title="RightAutoShoot.html" xlink:actuate="onRequest" xlink:href="RightAutoShoot.html" xlink:show="new" xlink:title="RightAutoShoot.html" xlink:type="simple"><g id="elem_RightAutoShoot"><rect codeLine="23" fill="#F1F1F1" height="67.0679" id="RightAutoShoot" rx="2.5" ry="2.5" style="stroke:#181818;stroke-width:0.5;" width="266" x="624" y="459.742"/><ellipse cx="700.25" cy="475.742" fill="#ADD1B2" rx="11" ry="11" style="stroke:#181818;stroke-width:1.0;"/><path d="M699.7188,482.6639 Q697.9688,482.6639 696.8281,481.9295 Q695.7031,481.1795 695.1406,479.8357 Q694.5938,478.4764 694.5938,476.6795 Q694.5938,474.6482 695.25,473.1951 Q695.9063,471.742 697.1875,470.9607 Q698.4688,470.1795 700.3438,470.1795 Q701.2344,470.1795 701.9063,470.367 Q702.5781,470.5389 703.2656,470.8826 L702.4531,472.8982 Q701.8281,472.5857 701.2813,472.4607 Q700.75,472.3357 700.2656,472.3357 Q699.0938,472.3357 698.3906,472.867 Q697.6875,473.3982 697.3906,474.3514 Q697.0938,475.3045 697.0938,476.5701 Q697.0938,478.5857 697.8125,479.5545 Q698.5313,480.5076 700.125,480.5076 Q700.7188,480.5076 701.3438,480.3514 Q701.9688,480.1951 702.7969,479.8201 L702.7969,482.0389 Q702.0625,482.3514 701.2656,482.5076 Q700.4844,482.6639 699.7188,482.6639 Z " fill="#000000"/><text fill="#000000" font-family="sans-serif" font-size="14" lengthAdjust="spacing" textLength="105" x="720.75" y="481.174">RightAutoShoot</text><line style="stroke:#181818;stroke-width:0.5;" x1="625" x2="889" y1="491.742" y2="491.742"/><line style="stroke:#181818;stroke-width:0.5;" x1="625" x2="889" y1="499.742" y2="499.742"/><ellipse cx="635" cy="514.7759" fill="#84BE84" rx="3" ry="3" style="stroke:#038048;stroke-width:1.0;"/><text fill="#000000" font-family="sans-serif" font-size="14" lengthAdjust="spacing" textLength="240" x="644" y="518.7079">RightAutoShoot(Optional&lt;Alliance&gt;)</text></g></a><!--class Auton--><a href="Auton.html" target="_top" title="Auton.html" xlink:actuate="onRequest" xlink:href="Auton.html" xlink:show="new" xlink:title="Auton.html" xlink:type="simple"><g id="elem_Auton"><rect codeLine="27" fill="#F1F1F1" height="181.4754" id="Auton" rx="2.5" ry="2.5" style="stroke:#181818;stroke-width:0.5;" width="390" x="562" y="170.602"/><ellipse cx="734.25" cy="186.602" fill="#A9DCDF" rx="11" ry="11" style="stroke:#181818;stroke-width:1.0;"/><path d="M729.4219,192.352 L732.7656,180.1645 L735.9063,180.1645 L739.2813,192.352 L736.8125,192.352 L736.0781,189.3364 L732.5625,189.3364 L731.8125,192.352 L729.4219,192.352 Z M733.8281,184.3051 L733.0781,187.3051 L735.5938,187.3051 L734.875,184.3051 Q734.7344,183.727 734.6094,183.1801 Q734.4844,182.6176 734.3438,182.0395 Q734.2344,182.6176 734.0938,183.1801 Q733.9531,183.727 733.8281,184.3051 Z " fill="#000000"/><text fill="#000000" font-family="sans-serif" font-size="14" font-style="italic" lengthAdjust="spacing" textLength="37" x="754.75" y="192.034">Auton</text><line style="stroke:#181818;stroke-width:0.5;" x1="563" x2="951" y1="202.602" y2="202.602"/><polygon fill="none" points="573,212.6359,577,216.6359,573,220.6359,569,216.6359" style="stroke:#B38D22;stroke-width:1.0;"/><text fill="#000000" font-family="sans-serif" font-size="14" lengthAdjust="spacing" textLength="147" x="582" y="221.5679">driveTrain: DriveTrain</text><polygon fill="none" points="573,231.7039,577,235.7039,573,239.7039,569,235.7039" style="stroke:#B38D22;stroke-width:1.0;"/><text fill="#000000" font-family="sans-serif" font-size="14" lengthAdjust="spacing" textLength="113" x="582" y="240.6358">alliance: Alliance</text><line style="stroke:#181818;stroke-width:0.5;" x1="563" x2="951" y1="248.7378" y2="248.7378"/><ellipse cx="573" cy="263.7718" fill="#84BE84" rx="3" ry="3" style="stroke:#038048;stroke-width:1.0;"/><text fill="#000000" font-family="sans-serif" font-size="14" lengthAdjust="spacing" textLength="175" x="582" y="267.7038">Auton(Optional&lt;Alliance&gt;)</text><polygon fill="#FFFF44" points="573,277.8397,577,281.8397,573,285.8397,569,281.8397" style="stroke:#B38D22;stroke-width:1.0;"/><text fill="#000000" font-family="sans-serif" font-size="14" lengthAdjust="spacing" textLength="283" x="582" y="286.7717">setInitialPose(PathPlannerTrajectory): void</text><polygon fill="#FFFF44" points="573,296.9076,577,300.9076,573,304.9076,569,300.9076" style="stroke:#B38D22;stroke-width:1.0;"/><text fill="#000000" font-family="sans-serif" font-size="14" lengthAdjust="spacing" textLength="364" x="582" y="305.8396">setInitialPose(PathPlannerTrajectory, Rotation2d): void</text><ellipse cx="573" cy="320.9755" fill="#84BE84" rx="3" ry="3" style="stroke:#038048;stroke-width:1.0;"/><text fill="#000000" font-family="sans-serif" font-size="14" lengthAdjust="spacing" textLength="156" x="582" y="324.9075">getInitialPose(): Pose2d</text><ellipse cx="573" cy="340.0434" fill="#84BE84" rx="3" ry="3" style="stroke:#038048;stroke-width:1.0;"/><text fill="#000000" font-family="sans-serif" font-size="14" lengthAdjust="spacing" textLength="336" x="582" y="343.9754">followPathCommand(PathPlannerPath): Command</text></g></a><!--class LeftAutoDepotShoot--><a href="LeftAutoDepotShoot.html" target="_top" title="LeftAutoDepotShoot.html" xlink:actuate="onRequest" xlink:href="LeftAutoDepotShoot.html" xlink:show="new" xlink:title="LeftAutoDepotShoot.html" xlink:type="simple"><g id="elem_LeftAutoDepotShoot"><rect codeLine="37" fill="#F1F1F1" height="67.0679" id="LeftAutoDepotShoot" rx="2.5" ry="2.5" style="stroke:#181818;stroke-width:0.5;" width="295" x="924.5" y="459.742"/><ellipse cx="1000.75" cy="475.742" fill="#ADD1B2" rx="11" ry="11" style="stroke:#181818;stroke-width:1.0;"/><path d="M1000.2188,482.6639 Q998.4688,482.6639 997.3281,481.9295 Q996.2031,481.1795 995.6406,479.8357 Q995.0938,478.4764 995.0938,476.6795 Q995.0938,474.6482 995.75,473.1951 Q996.4063,471.742 997.6875,470.9607 Q998.9688,470.1795 1000.8438,470.1795 Q1001.7344,470.1795 1002.4063,470.367 Q1003.0781,470.5389 1003.7656,470.8826 L1002.9531,472.8982 Q1002.3281,472.5857 1001.7813,472.4607 Q1001.25,472.3357 1000.7656,472.3357 Q999.5938,472.3357 998.8906,472.867 Q998.1875,473.3982 997.8906,474.3514 Q997.5938,475.3045 997.5938,476.5701 Q997.5938,478.5857 998.3125,479.5545 Q999.0313,480.5076 1000.625,480.5076 Q1001.2188,480.5076 1001.8438,480.3514 Q1002.4688,480.1951 1003.2969,479.8201 L1003.2969,482.0389 Q1002.5625,482.3514 1001.7656,482.5076 Q1000.9844,482.6639 1000.2188,482.6639 Z " fill="#000000"/><text fill="#000000" font-family="sans-serif" font-size="14" lengthAdjust="spacing" textLength="134" x="1021.25" y="481.174">LeftAutoDepotShoot</text><line style="stroke:#181818;stroke-width:0.5;" x1="925.5" x2="1218.5" y1="491.742" y2="491.742"/><line style="stroke:#181818;stroke-width:0.5;" x1="925.5" x2="1218.5" y1="499.742" y2="499.742"/><ellipse cx="935.5" cy="514.7759" fill="#84BE84" rx="3" ry="3" style="stroke:#038048;stroke-width:1.0;"/><text fill="#000000" font-family="sans-serif" font-size="14" lengthAdjust="spacing" textLength="269" x="944.5" y="518.7079">LeftAutoDepotShoot(Optional&lt;Alliance&gt;)</text></g></a><!--class AutonSelector--><a href="AutonSelector.html" target="_top" title="AutonSelector.html" xlink:actuate="onRequest" xlink:href="AutonSelector.html" xlink:show="new" xlink:title="AutonSelector.html" xlink:type="simple"><g id="elem_AutonSelector"><rect codeLine="41" fill="#F1F1F1" height="105.2038" id="AutonSelector" rx="2.5" ry="2.5" style="stroke:#181818;stroke-width:0.5;" width="216" x="1509" y="208.732"/><ellipse cx="1565.75" cy="224.732" fill="#ADD1B2" rx="11" ry="11" style="stroke:#181818;stroke-width:1.0;"/><path d="M1565.2188,231.6539 Q1563.4688,231.6539 1562.3281,230.9195 Q1561.2031,230.1695 1560.6406,228.8257 Q1560.0938,227.4664 1560.0938,225.6695 Q1560.0938,223.6382 1560.75,222.1851 Q1561.4063,220.732 1562.6875,219.9507 Q1563.9688,219.1695 1565.8438,219.1695 Q1566.7344,219.1695 1567.4063,219.357 Q1568.0781,219.5289 1568.7656,219.8726 L1567.9531,221.8882 Q1567.3281,221.5757 1566.7813,221.4507 Q1566.25,221.3257 1565.7656,221.3257 Q1564.5938,221.3257 1563.8906,221.857 Q1563.1875,222.3882 1562.8906,223.3414 Q1562.5938,224.2945 1562.5938,225.5601 Q1562.5938,227.5757 1563.3125,228.5445 Q1564.0313,229.4976 1565.625,229.4976 Q1566.2188,229.4976 1566.8438,229.3414 Q1567.4688,229.1851 1568.2969,228.8101 L1568.2969,231.0289 Q1567.5625,231.3414 1566.7656,231.4976 Q1565.9844,231.6539 1565.2188,231.6539 Z " fill="#000000"/><text fill="#000000" font-family="sans-serif" font-size="14" lengthAdjust="spacing" textLength="94" x="1586.25" y="230.164">AutonSelector</text><line style="stroke:#181818;stroke-width:0.5;" x1="1510" x2="1724" y1="240.732" y2="240.732"/><line style="stroke:#181818;stroke-width:0.5;" x1="1510" x2="1724" y1="248.732" y2="248.732"/><ellipse cx="1520" cy="263.7659" fill="#84BE84" rx="3" ry="3" style="stroke:#038048;stroke-width:1.0;"/><text fill="#000000" font-family="sans-serif" font-size="14" lengthAdjust="spacing" text-decoration="underline" textLength="190" x="1529" y="267.6979">getInstance(): AutonSelector</text><ellipse cx="1520" cy="282.8339" fill="#84BE84" rx="3" ry="3" style="stroke:#038048;stroke-width:1.0;"/><text fill="#000000" font-family="sans-serif" font-size="14" lengthAdjust="spacing" textLength="143" x="1529" y="286.7658">chooseAuton(): Auton</text><ellipse cx="1520" cy="301.9018" fill="#84BE84" rx="3" ry="3" style="stroke:#038048;stroke-width:1.0;"/><text fill="#000000" font-family="sans-serif" font-size="14" lengthAdjust="spacing" textLength="147" x="1529" y="305.8338">chooseDelay(): double</text></g></a><!--class AutonSelector.AutonChoices--><a href="AutonSelector.AutonChoices.html" target="_top" title="AutonSelector.AutonChoices.html" xlink:actuate="onRequest" xlink:href="AutonSelector.AutonChoices.html" xlink:show="new" xlink:title="AutonSelector.AutonChoices.html" xlink:type="simple"><g id="elem_AutonSelector.AutonChoices"><rect codeLine="47" fill="#F1F1F1" height="162.4075" id="AutonSelector.AutonChoices" rx="2.5" ry="2.5" style="stroke:#181818;stroke-width:0.5;" width="222" x="1506" y="412.072"/><ellipse cx="1521" cy="428.072" fill="#EB937F" rx="11" ry="11" style="stroke:#181818;stroke-width:1.0;"/><path d="M1517.3594,434.572 L1517.3594,422.4314 L1525.0156,422.4314 L1525.0156,424.5564 L1519.7344,424.5564 L1519.7344,427.2126 L1524.75,427.2126 L1524.75,429.3376 L1519.7344,429.3376 L1519.7344,432.447 L1525.0156,432.447 L1525.0156,434.572 L1517.3594,434.572 Z " fill="#000000"/><text fill="#000000" font-family="sans-serif" font-size="14" lengthAdjust="spacing" textLength="190" x="1535" y="433.504">AutonSelector.AutonChoices</text><line style="stroke:#181818;stroke-width:0.5;" x1="1507" x2="1727" y1="444.072" y2="444.072"/><ellipse cx="1517" cy="459.1059" fill="none" rx="3" ry="3" style="stroke:#038048;stroke-width:1.0;"/><text fill="#000000" font-family="sans-serif" font-size="14" lengthAdjust="spacing" text-decoration="underline" textLength="50" x="1526" y="463.0379">NoAuto</text><ellipse cx="1517" cy="478.1739" fill="none" rx="3" ry="3" style="stroke:#038048;stroke-width:1.0;"/><text fill="#000000" font-family="sans-serif" font-size="14" lengthAdjust="spacing" text-decoration="underline" textLength="56" x="1526" y="482.1058">LeftAuto</text><ellipse cx="1517" cy="497.2418" fill="none" rx="3" ry="3" style="stroke:#038048;stroke-width:1.0;"/><text fill="#000000" font-family="sans-serif" font-size="14" lengthAdjust="spacing" text-decoration="underline" textLength="94" x="1526" y="501.1738">LeftAutoShoot</text><ellipse cx="1517" cy="516.3097" fill="none" rx="3" ry="3" style="stroke:#038048;stroke-width:1.0;"/><text fill="#000000" font-family="sans-serif" font-size="14" lengthAdjust="spacing" text-decoration="underline" textLength="116" x="1526" y="520.2417">MiddleAutoShoot</text><ellipse cx="1517" cy="535.3776" fill="none" rx="3" ry="3" style="stroke:#038048;stroke-width:1.0;"/><text fill="#000000" font-family="sans-serif" font-size="14" lengthAdjust="spacing" text-decoration="underline" textLength="105" x="1526" y="539.3096">RightAutoShoot</text><ellipse cx="1517" cy="554.4455" fill="none" rx="3" ry="3" style="stroke:#038048;stroke-width:1.0;"/><text fill="#000000" font-family="sans-serif" font-size="14" lengthAdjust="spacing" text-decoration="underline" textLength="134" x="1526" y="558.3775">LeftAutoDepotShoot</text><line style="stroke:#181818;stroke-width:0.5;" x1="1507" x2="1727" y1="566.4795" y2="566.4795"/></g></a><!--class LeftAuto--><a href="LeftAuto.html" target="_top" title="LeftAuto.html" xlink:actuate="onRequest" xlink:href="LeftAuto.html" xlink:show="new" xlink:title="LeftAuto.html" xlink:type="simple"><g id="elem_LeftAuto"><rect codeLine="56" fill="#F1F1F1" height="67.0679" id="LeftAuto" rx="2.5" ry="2.5" style="stroke:#181818;stroke-width:0.5;" width="217" x="1254.5" y="459.742"/><ellipse cx="1330.75" cy="475.742" fill="#ADD1B2" rx="11" ry="11" style="stroke:#181818;stroke-width:1.0;"/><path d="M1330.2188,482.6639 Q1328.4688,482.6639 1327.3281,481.9295 Q1326.2031,481.1795 1325.6406,479.8357 Q1325.0938,478.4764 1325.0938,476.6795 Q1325.0938,474.6482 1325.75,473.1951 Q1326.4063,471.742 1327.6875,470.9607 Q1328.9688,470.1795 1330.8438,470.1795 Q1331.7344,470.1795 1332.4063,470.367 Q1333.0781,470.5389 1333.7656,470.8826 L1332.9531,472.8982 Q1332.3281,472.5857 1331.7813,472.4607 Q1331.25,472.3357 1330.7656,472.3357 Q1329.5938,472.3357 1328.8906,472.867 Q1328.1875,473.3982 1327.8906,474.3514 Q1327.5938,475.3045 1327.5938,476.5701 Q1327.5938,478.5857 1328.3125,479.5545 Q1329.0313,480.5076 1330.625,480.5076 Q1331.2188,480.5076 1331.8438,480.3514 Q1332.4688,480.1951 1333.2969,479.8201 L1333.2969,482.0389 Q1332.5625,482.3514 1331.7656,482.5076 Q1330.9844,482.6639 1330.2188,482.6639 Z " fill="#000000"/><text fill="#000000" font-family="sans-serif" font-size="14" lengthAdjust="spacing" textLength="56" x="1351.25" y="481.174">LeftAuto</text><line style="stroke:#181818;stroke-width:0.5;" x1="1255.5" x2="1470.5" y1="491.742" y2="491.742"/><line style="stroke:#181818;stroke-width:0.5;" x1="1255.5" x2="1470.5" y1="499.742" y2="499.742"/><ellipse cx="1265.5" cy="514.7759" fill="#84BE84" rx="3" ry="3" style="stroke:#038048;stroke-width:1.0;"/><text fill="#000000" font-family="sans-serif" font-size="14" lengthAdjust="spacing" textLength="191" x="1274.5" y="518.7079">LeftAuto(Optional&lt;Alliance&gt;)</text></g></a><!--class SequentialCommandGroup--><g id="elem_SequentialCommandGroup"><rect codeLine="63" fill="#F1F1F1" height="48" id="SequentialCommandGroup" rx="2.5" ry="2.5" style="stroke:#181818;stroke-width:0.5;" width="215" x="649.5" y="44.602"/><ellipse cx="664.5" cy="60.602" fill="#ADD1B2" rx="11" ry="11" style="stroke:#181818;stroke-width:1.0;"/><path d="M663.9688,67.5239 Q662.2188,67.5239 661.0781,66.7895 Q659.9531,66.0395 659.3906,64.6957 Q658.8438,63.3364 658.8438,61.5395 Q658.8438,59.5082 659.5,58.0551 Q660.1563,56.602 661.4375,55.8207 Q662.7188,55.0395 664.5938,55.0395 Q665.4844,55.0395 666.1563,55.227 Q666.8281,55.3989 667.5156,55.7426 L666.7031,57.7582 Q666.0781,57.4457 665.5313,57.3207 Q665,57.1957 664.5156,57.1957 Q663.3438,57.1957 662.6406,57.727 Q661.9375,58.2582 661.6406,59.2114 Q661.3438,60.1645 661.3438,61.4301 Q661.3438,63.4457 662.0625,64.4145 Q662.7813,65.3676 664.375,65.3676 Q664.9688,65.3676 665.5938,65.2114 Q666.2188,65.0551 667.0469,64.6801 L667.0469,66.8989 Q666.3125,67.2114 665.5156,67.3676 Q664.7344,67.5239 663.9688,67.5239 Z " fill="#000000"/><text fill="#000000" font-family="sans-serif" font-size="14" lengthAdjust="spacing" textLength="183" x="678.5" y="66.034">SequentialCommandGroup</text><line style="stroke:#181818;stroke-width:0.5;" x1="650.5" x2="863.5" y1="76.602" y2="76.602"/><line style="stroke:#181818;stroke-width:0.5;" x1="650.5" x2="863.5" y1="84.602" y2="84.602"/></g><!--reverse link Auton to LeftAutoShoot--><g id="link_Auton_LeftAutoShoot"><path codeLine="67" d="M544.6328,329.1254 C430.5328,365.3254 321.06,400.772 295,412.072 C263.86,425.582 230.62,443.682 203.83,459.262 " fill="none" id="Auton-backto-LeftAutoShoot" style="stroke:#181818;stroke-width:1.0;"/><polygon fill="none" points="561.79,323.682,542.8183,323.4063,546.4473,334.8444,561.79,323.682" style="stroke:#181818;stroke-width:1.0;"/></g><!--reverse link Auton to MiddleAutoShoot--><g id="link_Auton_MiddleAutoShoot"><path codeLine="68" d="M622.5504,363.3658 C572.4904,400.9858 531.87,431.512 494.77,459.382 " fill="none" id="Auton-backto-MiddleAutoShoot" style="stroke:#181818;stroke-width:1.0;"/><polygon fill="none" points="636.94,352.552,618.9458,358.5692,626.155,368.1623,636.94,352.552" style="stroke:#181818;stroke-width:1.0;"/></g><!--reverse link Auton to RightAutoShoot--><g id="link_Auton_RightAutoShoot"><path codeLine="69" d="M757,370.552 C757,408.172 757,431.512 757,459.382 " fill="none" id="Auton-backto-RightAutoShoot" style="stroke:#181818;stroke-width:1.0;"/><polygon fill="none" points="757,352.552,751,370.552,763,370.552,757,352.552" style="stroke:#181818;stroke-width:1.0;"/></g><!--reverse link SequentialCommandGroup to Auton--><g id="link_SequentialCommandGroup_Auton"><path codeLine="70" d="M757,110.992 C757,130.582 757,141.872 757,170.502 " fill="none" id="SequentialCommandGroup-backto-Auton" style="stroke:#181818;stroke-width:1.0;"/><polygon fill="none" points="757,92.992,751,110.992,763,110.992,757,92.992" style="stroke:#181818;stroke-width:1.0;"/></g><!--reverse link Auton to LeftAutoDepotShoot--><g id="link_Auton_LeftAutoDepotShoot"><path codeLine="71" d="M895.1289,363.1642 C946.6689,400.7842 988.75,431.512 1026.94,459.382 " fill="none" id="Auton-backto-LeftAutoDepotShoot" style="stroke:#181818;stroke-width:1.0;"/><polygon fill="none" points="880.59,352.552,891.5915,368.0105,898.6663,358.3179,880.59,352.552" style="stroke:#181818;stroke-width:1.0;"/></g><!--reverse link AutonSelector to AutonSelector.AutonChoices--><g id="link_AutonSelector_AutonSelector.AutonChoices"><path codeLine="72" d="M1617,330.222 C1617,358.972 1617,379.332 1617,411.692 " fill="none" id="AutonSelector-backto-AutonSelector.AutonChoices" style="stroke:#181818;stroke-width:1.0;"/><ellipse cx="1617" cy="322.222" fill="#FFFFFF" rx="8" ry="8" style="stroke:#181818;stroke-width:1.0;"/><line style="stroke:#181818;stroke-width:1.0;" x1="1617" x2="1617" y1="330.222" y2="314.222"/><line style="stroke:#181818;stroke-width:1.0;" x1="1609" x2="1625" y1="322.222" y2="322.222"/></g><!--reverse link Auton to LeftAuto--><g id="link_Auton_LeftAuto"><path codeLine="73" d="M969.6407,315.5001 C1058.5407,340.6401 1146.54,370.082 1237,412.072 C1265.11,425.122 1294.43,443.462 1317.71,459.312 " fill="none" id="Auton-backto-LeftAuto" style="stroke:#181818;stroke-width:1.0;"/><polygon fill="none" points="952.32,310.602,968.008,321.2737,971.2735,309.7265,952.32,310.602" style="stroke:#181818;stroke-width:1.0;"/></g><text fill="#888888" font-family="sans-serif" font-size="10" lengthAdjust="spacing" textLength="176" x="780.5" y="607.172">UMLDoclet 2.1.2, PlantUML 1.2024.3</text><!--SRC=[fLRRQkCm47tlLmYMXPIqXlhHb8NGm59ekw7fFfK-AF8aKQjeN4bEATty-qhApNAjEauDGRUPEUCvP-GGGeW6Oty5LTIW8bbsSc8tIK7P2vq1cIgMA9oWIMXfK6hoiJvt3nDKQpAYPgx9uwCVaxbPYASdQqKgpuSsr72s8lqPc1kOch6XoZY7tcdc0um4bHAKcyOzRtcU2nYmrv8hUC3n7B5x40T_SIHqTxzxFfiV0JU40e_CTEUQjhckwamwhu5bsHVMCXgicvdj1pQzFuNXAAcu70Z1gMJmwpGEjw6p0bZRYK3MhBg1UaAgcE56138qEXIHJhHHb9aDjFEN5j6FpK0_SiMNyA0ebnaPxkQX3Ts0PcGB7oRhut-PemzZ-_vQSiEf6A66NaKb5lCPcBqDtgrwbiZpxevdv1wTA56cULCGfzHg42TJEwOrgoaAWMyEuGeN2ohpNatCrczpqYvhtnbrRUytMmI-D-mcEC_668IlovRzxVg0w_9QsfN5S2KAVCCqcSrCmvhwhMMJnH04VNSMEPOJ0KrvWomN8LJYLrTpv0pqftUe7hQzq1qwwyZXjjGjnvw4Y4tjReXOXUtS0hSdlbrY5M6roEaG4Qt2Jp7aPV9My6JAbJPk9lZaEKtOMlyLe7LEOtWjGReEstJ8RuLbKJ5RLK7gt_aiMrzNb__EpniEFtFHCK0JKHr3DB3uTOcoB5AJ2C2-YOwiJaqwaIYxow4VpwAnsRwJclTbjXQWoDGcQ8U_jpT3PCB-7KoJYoGz8-wUDNQN_5o2qjpTBFy1]--></g></svg>