<?xml version="1.0" encoding="us-ascii" standalone="no"?><svg xmlns="http://www.w3.org/2000/svg" xmlns:xlink="http://www.w3.org/1999/xlink" contentStyleType="text/css" height="742px" preserveAspectRatio="none" style="width:1751px;height:742px;background:#FFFFFF;" version="1.1" viewBox="0 0 1751 742" width="1751px" zoomAndPan="magnify"><defs/><g><!--cluster frc.robot.autons--><g id="cluster_frc.robot.autons"><path d="M8.5,217.872 L122.5,217.872 A3.75,3.75 0 0 1 125,220.372 L132,242.9399 L1741.5,242.9399 A2.5,2.5 0 0 1 1744,245.4399 L1744,712.392 A2.5,2.5 0 0 1 1741.5,714.892 L8.5,714.892 A2.5,2.5 0 0 1 6,712.392 L6,220.372 A2.5,2.5 0 0 1 8.5,217.872 " fill="none" style="stroke:#000000;stroke-width:1.5;"/><line style="stroke:#000000;stroke-width:1.5;" x1="6" x2="132" y1="242.9399" y2="242.9399"/><text fill="#000000" font-family="sans-serif" font-size="14" font-weight="bold" lengthAdjust="spacing" textLength="113" x="10" y="234.8379">frc.robot.autons</text></g><!--cluster edu.wpi.first.wpilibj2.command--><g id="cluster_edu.wpi.first.wpilibj2.command"><path d="M585.5,6.602 L805.5,6.602 A3.75,3.75 0 0 1 808,9.102 L815,31.6699 L928.5,31.6699 A2.5,2.5 0 0 1 931,34.1699 L931,182.372 A2.5,2.5 0 0 1 928.5,184.872 L585.5,184.872 A2.5,2.5 0 0 1 583,182.372 L583,9.102 A2.5,2.5 0 0 1 585.5,6.602 " fill="none" style="stroke:#000000;stroke-width:1.5;"/><line style="stroke:#000000;stroke-width:1.5;" x1="583" x2="815" y1="31.6699" y2="31.6699"/><text fill="#000000" font-family="sans-serif" font-size="14" font-weight="bold" lengthAdjust="spacing" textLength="219" x="587" y="23.5679">edu.wpi.first.wpilibj2.command</text></g><!--class Paths--><a href="Paths.html" target="_top" title="Paths.html" xlink:actuate="onRequest" xlink:href="Paths.html" xlink:show="new" xlink:title="Paths.html" xlink:type="simple"><g id="elem_Paths"><rect codeLine="5" fill="#F1F1F1" height="181.4754" id="Paths" rx="2.5" ry="2.5" style="stroke:#181818;stroke-width:0.5;" width="359" x="94.5" y="274.942"/><ellipse cx="251.25" cy="290.942" fill="#ADD1B2" rx="11" ry="11" style="stroke:#181818;stroke-width:1.0;"/><path d="M250.7188,297.8639 Q248.9688,297.8639 247.8281,297.1295 Q246.7031,296.3795 246.1406,295.0357 Q245.5938,293.6764 245.5938,291.8795 Q245.5938,289.8482 246.25,288.3951 Q246.9063,286.942 248.1875,286.1607 Q249.4688,285.3795 251.3438,285.3795 Q252.2344,285.3795 252.9063,285.567 Q253.5781,285.7389 254.2656,286.0826 L253.4531,288.0982 Q252.8281,287.7857 252.2813,287.6607 Q251.75,287.5357 251.2656,287.5357 Q250.0938,287.5357 249.3906,288.067 Q248.6875,288.5982 248.3906,289.5514 Q248.0938,290.5045 248.0938,291.7701 Q248.0938,293.7857 248.8125,294.7545 Q249.5313,295.7076 251.125,295.7076 Q251.7188,295.7076 252.3438,295.5514 Q252.9688,295.3951 253.7969,295.0201 L253.7969,297.2389 Q253.0625,297.5514 252.2656,297.7076 Q251.4844,297.8639 250.7188,297.8639 Z " fill="#000000"/><text fill="#000000" font-family="sans-serif" font-size="14" lengthAdjust="spacing" textLength="37" x="271.75" y="296.374">Paths</text><line style="stroke:#181818;stroke-width:0.5;" x1="95.5" x2="452.5" y1="306.942" y2="306.942"/><line style="stroke:#181818;stroke-width:0.5;" x1="95.5" x2="452.5" y1="314.942" y2="314.942"/><ellipse cx="105.5" cy="329.9759" fill="#84BE84" rx="3" ry="3" style="stroke:#038048;stroke-width:1.0;"/><text fill="#000000" font-family="sans-serif" font-size="14" lengthAdjust="spacing" text-decoration="underline" textLength="237" x="114.5" y="333.9079">getLeftStartPath(): PathPlannerPath</text><ellipse cx="105.5" cy="349.0439" fill="#84BE84" rx="3" ry="3" style="stroke:#038048;stroke-width:1.0;"/><text fill="#000000" font-family="sans-serif" font-size="14" lengthAdjust="spacing" text-decoration="underline" textLength="333" x="114.5" y="352.9758">getMiddleAcquireToShootPath(): PathPlannerPath</text><ellipse cx="105.5" cy="368.1118" fill="#84BE84" rx="3" ry="3" style="stroke:#038048;stroke-width:1.0;"/><text fill="#000000" font-family="sans-serif" font-size="14" lengthAdjust="spacing" text-decoration="underline" textLength="213" x="114.5" y="372.0438">getLeft1Path(): PathPlannerPath</text><ellipse cx="105.5" cy="387.1797" fill="#84BE84" rx="3" ry="3" style="stroke:#038048;stroke-width:1.0;"/><text fill="#000000" font-family="sans-serif" font-size="14" lengthAdjust="spacing" text-decoration="underline" textLength="235" x="114.5" y="391.1117">getMiddle1Path(): PathPlannerPath</text><ellipse cx="105.5" cy="406.2476" fill="#84BE84" rx="3" ry="3" style="stroke:#038048;stroke-width:1.0;"/><text fill="#000000" font-family="sans-serif" font-size="14" lengthAdjust="spacing" text-decoration="underline" textLength="224" x="114.5" y="410.1796">getRight1Path(): PathPlannerPath</text><ellipse cx="105.5" cy="425.3155" fill="#84BE84" rx="3" ry="3" style="stroke:#038048;stroke-width:1.0;"/><text fill="#000000" font-family="sans-serif" font-size="14" lengthAdjust="spacing" text-decoration="underline" textLength="253" x="114.5" y="429.2475">getDepotLeft1Path(): PathPlannerPath</text><ellipse cx="105.5" cy="444.3834" fill="#84BE84" rx="3" ry="3" style="stroke:#038048;stroke-width:1.0;"/><text fill="#000000" font-family="sans-serif" font-size="14" lengthAdjust="spacing" text-decoration="underline" textLength="253" x="114.5" y="448.3154">getDepotLeft2Path(): PathPlannerPath</text></g></a><!--class LeftAutoShoot--><a href="LeftAutoShoot.html" target="_top" title="LeftAutoShoot.html" xlink:actuate="onRequest" xlink:href="LeftAutoShoot.html" xlink:show="new" xlink:title="LeftAutoShoot.html" xlink:type="simple"><g id="elem_LeftAutoShoot"><rect codeLine="15" fill="#F1F1F1" height="67.0679" id="LeftAutoShoot" rx="2.5" ry="2.5" style="stroke:#181818;stroke-width:0.5;" width="255" x="22.5" y="584.152"/><ellipse cx="98.75" cy="600.152" fill="#ADD1B2" rx="11" ry="11" style="stroke:#181818;stroke-width:1.0;"/><path d="M98.2188,607.0739 Q96.4688,607.0739 95.3281,606.3395 Q94.2031,605.5895 93.6406,604.2457 Q93.0938,602.8864 93.0938,601.0895 Q93.0938,599.0582 93.75,597.6051 Q94.4063,596.152 95.6875,595.3707 Q96.9688,594.5895 98.8438,594.5895 Q99.7344,594.5895 100.4063,594.777 Q101.0781,594.9489 101.7656,595.2926 L100.9531,597.3082 Q100.3281,596.9957 99.7813,596.8707 Q99.25,596.7457 98.7656,596.7457 Q97.5938,596.7457 96.8906,597.277 Q96.1875,597.8082 95.8906,598.7614 Q95.5938,599.7145 95.5938,600.9801 Q95.5938,602.9957 96.3125,603.9645 Q97.0313,604.9176 98.625,604.9176 Q99.2188,604.9176 99.8438,604.7614 Q100.4688,604.6051 101.2969,604.2301 L101.2969,606.4489 Q100.5625,606.7614 99.7656,606.9176 Q98.9844,607.0739 98.2188,607.0739 Z " fill="#000000"/><text fill="#000000" font-family="sans-serif" font-size="14" lengthAdjust="spacing" textLength="94" x="119.25" y="605.584">LeftAutoShoot</text><line style="stroke:#181818;stroke-width:0.5;" x1="23.5" x2="276.5" y1="616.152" y2="616.152"/><line style="stroke:#181818;stroke-width:0.5;" x1="23.5" x2="276.5" y1="624.152" y2="624.152"/><ellipse cx="33.5" cy="639.1859" fill="#84BE84" rx="3" ry="3" style="stroke:#038048;stroke-width:1.0;"/><text fill="#000000" font-family="sans-serif" font-size="14" lengthAdjust="spacing" textLength="229" x="42.5" y="643.1179">LeftAutoShoot(Optional&lt;Alliance&gt;)</text></g></a><!--class MiddleAutoShoot--><a href="MiddleAutoShoot.html" target="_top" title="MiddleAutoShoot.html" xlink:actuate="onRequest" xlink:href="MiddleAutoShoot.html" xlink:show="new" xlink:title="MiddleAutoShoot.html" xlink:type="simple"><g id="elem_MiddleAutoShoot"><rect codeLine="19" fill="#F1F1F1" height="67.0679" id="MiddleAutoShoot" rx="2.5" ry="2.5" style="stroke:#181818;stroke-width:0.5;" width="277" x="312.5" y="584.152"/><ellipse cx="388.75" cy="600.152" fill="#ADD1B2" rx="11" ry="11" style="stroke:#181818;stroke-width:1.0;"/><path d="M388.2188,607.0739 Q386.4688,607.0739 385.3281,606.3395 Q384.2031,605.5895 383.6406,604.2457 Q383.0938,602.8864 383.0938,601.0895 Q383.0938,599.0582 383.75,597.6051 Q384.4063,596.152 385.6875,595.3707 Q386.9688,594.5895 388.8438,594.5895 Q389.7344,594.5895 390.4063,594.777 Q391.0781,594.9489 391.7656,595.2926 L390.9531,597.3082 Q390.3281,596.9957 389.7813,596.8707 Q389.25,596.7457 388.7656,596.7457 Q387.5938,596.7457 386.8906,597.277 Q386.1875,597.8082 385.8906,598.7614 Q385.5938,599.7145 385.5938,600.9801 Q385.5938,602.9957 386.3125,603.9645 Q387.0313,604.9176 388.625,604.9176 Q389.2188,604.9176 389.8438,604.7614 Q390.4688,604.6051 391.2969,604.2301 L391.2969,606.4489 Q390.5625,606.7614 389.7656,606.9176 Q388.9844,607.0739 388.2188,607.0739 Z " fill="#000000"/><text fill="#000000" font-family="sans-serif" font-size="14" lengthAdjust="spacing" textLength="116" x="409.25" y="605.584">MiddleAutoShoot</text><line style="stroke:#181818;stroke-width:0.5;" x1="313.5" x2="588.5" y1="616.152" y2="616.152"/><line style="stroke:#181818;stroke-width:0.5;" x1="313.5" x2="588.5" y1="624.152" y2="624.152"/><ellipse cx="323.5" cy="639.1859" fill="#84BE84" rx="3" ry="3" style="stroke:#038048;stroke-width:1.0;"/><text fill="#000000" font-family="sans-serif" font-size="14" lengthAdjust="spacing" textLength="251" x="332.5" y="643.1179">MiddleAutoShoot(Optional&lt;Alliance&gt;)</text></g></a><!--class RightAutoShoot--><a href="RightAutoShoot.html" target="_top" title="RightAutoShoot.html" xlink:actuate="onRequest" xlink:href="RightAutoShoot.html" xlink:show="new" xlink:title="RightAutoShoot.html" xlink:type="simple"><g id="elem_RightAutoShoot"><rect codeLine="23" fill="#F1F1F1" height="67.0679" id="RightAutoShoot" rx="2.5" ry="2.5" style="stroke:#181818;stroke-width:0.5;" width="266" x="624" y="584.152"/><ellipse cx="700.25" cy="600.152" fill="#ADD1B2" rx="11" ry="11" style="stroke:#181818;stroke-width:1.0;"/><path d="M699.7188,607.0739 Q697.9688,607.0739 696.8281,606.3395 Q695.7031,605.5895 695.1406,604.2457 Q694.5938,602.8864 694.5938,601.0895 Q694.5938,599.0582 695.25,597.6051 Q695.9063,596.152 697.1875,595.3707 Q698.4688,594.5895 700.3438,594.5895 Q701.2344,594.5895 701.9063,594.777 Q702.5781,594.9489 703.2656,595.2926 L702.4531,597.3082 Q701.8281,596.9957 701.2813,596.8707 Q700.75,596.7457 700.2656,596.7457 Q699.0938,596.7457 698.3906,597.277 Q697.6875,597.8082 697.3906,598.7614 Q697.0938,599.7145 697.0938,600.9801 Q697.0938,602.9957 697.8125,603.9645 Q698.5313,604.9176 700.125,604.9176 Q700.7188,604.9176 701.3438,604.7614 Q701.9688,604.6051 702.7969,604.2301 L702.7969,606.4489 Q702.0625,606.7614 701.2656,606.9176 Q700.4844,607.0739 699.7188,607.0739 Z " fill="#000000"/><text fill="#000000" font-family="sans-serif" font-size="14" lengthAdjust="spacing" textLength="105" x="720.75" y="605.584">RightAutoShoot</text><line style="stroke:#181818;stroke-width:0.5;" x1="625" x2="889" y1="616.152" y2="616.152"/><line style="stroke:#181818;stroke-width:0.5;" x1="625" x2="889" y1="624.152" y2="624.152"/><ellipse cx="635" cy="639.1859" fill="#84BE84" rx="3" ry="3" style="stroke:#038048;stroke-width:1.0;"/><text fill="#000000" font-family="sans-serif" font-size="14" lengthAdjust="spacing" textLength="240" x="644" y="643.1179">RightAutoShoot(Optional&lt;Alliance&gt;)</text></g></a><!--class Auton--><a href="Auton.html" target="_top" title="Auton.html" xlink:actuate="onRequest" xlink:href="Auton.html" xlink:show="new" xlink:title="Auton.html" xlink:type="simple"><g id="elem_Auton"><rect codeLine="27" fill="#F1F1F1" height="219.6113" id="Auton" rx="2.5" ry="2.5" style="stroke:#181818;stroke-width:0.5;" width="390" x="562" y="255.872"/><ellipse cx="734.25" cy="271.872" fill="#A9DCDF" rx="11" ry="11" style="stroke:#181818;stroke-width:1.0;"/><path d="M729.4219,277.622 L732.7656,265.4345 L735.9063,265.4345 L739.2813,277.622 L736.8125,277.622 L736.0781,274.6064 L732.5625,274.6064 L731.8125,277.622 L729.4219,277.622 Z M733.8281,269.5751 L733.0781,272.5751 L735.5938,272.5751 L734.875,269.5751 Q734.7344,268.997 734.6094,268.4501 Q734.4844,267.8876 734.3438,267.3095 Q734.2344,267.8876 734.0938,268.4501 Q733.9531,268.997 733.8281,269.5751 Z " fill="#000000"/><text fill="#000000" font-family="sans-serif" font-size="14" font-style="italic" lengthAdjust="spacing" textLength="37" x="754.75" y="277.304">Auton</text><line style="stroke:#181818;stroke-width:0.5;" x1="563" x2="951" y1="287.872" y2="287.872"/><rect fill="none" height="6" style="stroke:#C82930;stroke-width:1.0;" width="6" x="570" y="299.9059"/><text fill="#000000" font-family="sans-serif" font-size="14" lengthAdjust="spacing" textLength="125" x="582" y="306.8379">initialPose: Pose2d</text><polygon fill="none" points="573,316.9739,577,320.9739,573,324.9739,569,320.9739" style="stroke:#B38D22;stroke-width:1.0;"/><text fill="#000000" font-family="sans-serif" font-size="14" lengthAdjust="spacing" textLength="147" x="582" y="325.9058">driveTrain: DriveTrain</text><polygon fill="none" points="573,336.0418,577,340.0418,573,344.0418,569,340.0418" style="stroke:#B38D22;stroke-width:1.0;"/><text fill="#000000" font-family="sans-serif" font-size="14" lengthAdjust="spacing" textLength="113" x="582" y="344.9738">alliance: Alliance</text><line style="stroke:#181818;stroke-width:0.5;" x1="563" x2="951" y1="353.0757" y2="353.0757"/><ellipse cx="573" cy="368.1097" fill="#84BE84" rx="3" ry="3" style="stroke:#038048;stroke-width:1.0;"/><text fill="#000000" font-family="sans-serif" font-size="14" lengthAdjust="spacing" textLength="175" x="582" y="372.0417">Auton(Optional&lt;Alliance&gt;)</text><rect fill="#F24D5C" height="6" style="stroke:#C82930;stroke-width:1.0;" width="6" x="570" y="384.1776"/><text fill="#000000" font-family="sans-serif" font-size="14" lengthAdjust="spacing" textLength="182" x="582" y="391.1096">setInitialPose(Pose2d): void</text><polygon fill="#FFFF44" points="573,401.2455,577,405.2455,573,409.2455,569,405.2455" style="stroke:#B38D22;stroke-width:1.0;"/><text fill="#000000" font-family="sans-serif" font-size="14" lengthAdjust="spacing" textLength="283" x="582" y="410.1775">setInitialPose(PathPlannerTrajectory): void</text><polygon fill="#FFFF44" points="573,420.3134,577,424.3134,573,428.3134,569,424.3134" style="stroke:#B38D22;stroke-width:1.0;"/><text fill="#000000" font-family="sans-serif" font-size="14" lengthAdjust="spacing" textLength="364" x="582" y="429.2454">setInitialPose(PathPlannerTrajectory, Rotation2d): void</text><ellipse cx="573" cy="444.3814" fill="#84BE84" rx="3" ry="3" style="stroke:#038048;stroke-width:1.0;"/><text fill="#000000" font-family="sans-serif" font-size="14" lengthAdjust="spacing" textLength="156" x="582" y="448.3133">getInitialPose(): Pose2d</text><ellipse cx="573" cy="463.4493" fill="#84BE84" rx="3" ry="3" style="stroke:#038048;stroke-width:1.0;"/><text fill="#000000" font-family="sans-serif" font-size="14" lengthAdjust="spacing" textLength="336" x="582" y="467.3813">followPathCommand(PathPlannerPath): Command</text></g></a><!--class LeftAutoDepotShoot--><a href="LeftAutoDepotShoot.html" target="_top" title="LeftAutoDepotShoot.html" xlink:actuate="onRequest" xlink:href="LeftAutoDepotShoot.html" xlink:show="new" xlink:title="LeftAutoDepotShoot.html" xlink:type="simple"><g id="elem_LeftAutoDepotShoot"><rect codeLine="39" fill="#F1F1F1" height="67.0679" id="LeftAutoDepotShoot" rx="2.5" ry="2.5" style="stroke:#181818;stroke-width:0.5;" width="295" x="924.5" y="584.152"/><ellipse cx="1000.75" cy="600.152" fill="#ADD1B2" rx="11" ry="11" style="stroke:#181818;stroke-width:1.0;"/><path d="M1000.2188,607.0739 Q998.4688,607.0739 997.3281,606.3395 Q996.2031,605.5895 995.6406,604.2457 Q995.0938,602.8864 995.0938,601.0895 Q995.0938,599.0582 995.75,597.6051 Q996.4063,596.152 997.6875,595.3707 Q998.9688,594.5895 1000.8438,594.5895 Q1001.7344,594.5895 1002.4063,594.777 Q1003.0781,594.9489 1003.7656,595.2926 L1002.9531,597.3082 Q1002.3281,596.9957 1001.7813,596.8707 Q1001.25,596.7457 1000.7656,596.7457 Q999.5938,596.7457 998.8906,597.277 Q998.1875,597.8082 997.8906,598.7614 Q997.5938,599.7145 997.5938,600.9801 Q997.5938,602.9957 998.3125,603.9645 Q999.0313,604.9176 1000.625,604.9176 Q1001.2188,604.9176 1001.8438,604.7614 Q1002.4688,604.6051 1003.2969,604.2301 L1003.2969,606.4489 Q1002.5625,606.7614 1001.7656,606.9176 Q1000.9844,607.0739 1000.2188,607.0739 Z " fill="#000000"/><text fill="#000000" font-family="sans-serif" font-size="14" lengthAdjust="spacing" textLength="134" x="1021.25" y="605.584">LeftAutoDepotShoot</text><line style="stroke:#181818;stroke-width:0.5;" x1="925.5" x2="1218.5" y1="616.152" y2="616.152"/><line style="stroke:#181818;stroke-width:0.5;" x1="925.5" x2="1218.5" y1="624.152" y2="624.152"/><ellipse cx="935.5" cy="639.1859" fill="#84BE84" rx="3" ry="3" style="stroke:#038048;stroke-width:1.0;"/><text fill="#000000" font-family="sans-serif" font-size="14" lengthAdjust="spacing" textLength="269" x="944.5" y="643.1179">LeftAutoDepotShoot(Optional&lt;Alliance&gt;)</text></g></a><!--class AutonSelector--><a href="AutonSelector.html" target="_top" title="AutonSelector.html" xlink:actuate="onRequest" xlink:href="AutonSelector.html" xlink:show="new" xlink:title="AutonSelector.html" xlink:type="simple"><g id="elem_AutonSelector"><rect codeLine="43" fill="#F1F1F1" height="143.3396" id="AutonSelector" rx="2.5" ry="2.5" style="stroke:#181818;stroke-width:0.5;" width="345" x="1302.5" y="294.012"/><ellipse cx="1423.75" cy="310.012" fill="#ADD1B2" rx="11" ry="11" style="stroke:#181818;stroke-width:1.0;"/><path d="M1423.2188,316.9339 Q1421.4688,316.9339 1420.3281,316.1995 Q1419.2031,315.4495 1418.6406,314.1057 Q1418.0938,312.7464 1418.0938,310.9495 Q1418.0938,308.9182 1418.75,307.4651 Q1419.4063,306.012 1420.6875,305.2307 Q1421.9688,304.4495 1423.8438,304.4495 Q1424.7344,304.4495 1425.4063,304.637 Q1426.0781,304.8089 1426.7656,305.1526 L1425.9531,307.1682 Q1425.3281,306.8557 1424.7813,306.7307 Q1424.25,306.6057 1423.7656,306.6057 Q1422.5938,306.6057 1421.8906,307.137 Q1421.1875,307.6682 1420.8906,308.6214 Q1420.5938,309.5745 1420.5938,310.8401 Q1420.5938,312.8557 1421.3125,313.8245 Q1422.0313,314.7776 1423.625,314.7776 Q1424.2188,314.7776 1424.8438,314.6214 Q1425.4688,314.4651 1426.2969,314.0901 L1426.2969,316.3089 Q1425.5625,316.6214 1424.7656,316.7776 Q1423.9844,316.9339 1423.2188,316.9339 Z " fill="#000000"/><text fill="#000000" font-family="sans-serif" font-size="14" lengthAdjust="spacing" textLength="94" x="1444.25" y="315.444">AutonSelector</text><line style="stroke:#181818;stroke-width:0.5;" x1="1303.5" x2="1646.5" y1="326.012" y2="326.012"/><polygon fill="none" points="1313.5,337.0459,1309.5,343.0459,1317.5,343.0459" style="stroke:#1963A0;stroke-width:1.0;"/><text fill="#000000" font-family="sans-serif" font-size="14" lengthAdjust="spacing" textLength="319" x="1322.5" y="344.9779">autoChooser: SendableChooser&lt;AutonChoices&gt;</text><polygon fill="none" points="1313.5,356.1139,1309.5,362.1139,1317.5,362.1139" style="stroke:#1963A0;stroke-width:1.0;"/><text fill="#000000" font-family="sans-serif" font-size="14" lengthAdjust="spacing" textLength="281" x="1322.5" y="364.0458">delayChooser: SendableChooser&lt;Double&gt;</text><line style="stroke:#181818;stroke-width:0.5;" x1="1303.5" x2="1646.5" y1="372.1478" y2="372.1478"/><ellipse cx="1313.5" cy="387.1818" fill="#84BE84" rx="3" ry="3" style="stroke:#038048;stroke-width:1.0;"/><text fill="#000000" font-family="sans-serif" font-size="14" lengthAdjust="spacing" text-decoration="underline" textLength="190" x="1322.5" y="391.1138">getInstance(): AutonSelector</text><ellipse cx="1313.5" cy="406.2497" fill="#84BE84" rx="3" ry="3" style="stroke:#038048;stroke-width:1.0;"/><text fill="#000000" font-family="sans-serif" font-size="14" lengthAdjust="spacing" textLength="143" x="1322.5" y="410.1817">chooseAuton(): Auton</text><ellipse cx="1313.5" cy="425.3176" fill="#84BE84" rx="3" ry="3" style="stroke:#038048;stroke-width:1.0;"/><text fill="#000000" font-family="sans-serif" font-size="14" lengthAdjust="spacing" textLength="147" x="1322.5" y="429.2496">chooseDelay(): double</text></g></a><!--class AutonSelector.AutonChoices--><a href="AutonSelector.AutonChoices.html" target="_top" title="AutonSelector.AutonChoices.html" xlink:actuate="onRequest" xlink:href="AutonSelector.AutonChoices.html" xlink:show="new" xlink:title="AutonSelector.AutonChoices.html" xlink:type="simple"><g id="elem_AutonSelector.AutonChoices"><rect codeLine="51" fill="#F1F1F1" height="162.4075" id="AutonSelector.AutonChoices" rx="2.5" ry="2.5" style="stroke:#181818;stroke-width:0.5;" width="222" x="1506" y="536.482"/><ellipse cx="1521" cy="552.482" fill="#EB937F" rx="11" ry="11" style="stroke:#181818;stroke-width:1.0;"/><path d="M1517.3594,558.982 L1517.3594,546.8414 L1525.0156,546.8414 L1525.0156,548.9664 L1519.7344,548.9664 L1519.7344,551.6226 L1524.75,551.6226 L1524.75,553.7476 L1519.7344,553.7476 L1519.7344,556.857 L1525.0156,556.857 L1525.0156,558.982 L1517.3594,558.982 Z " fill="#000000"/><text fill="#000000" font-family="sans-serif" font-size="14" lengthAdjust="spacing" textLength="190" x="1535" y="557.914">AutonSelector.AutonChoices</text><line style="stroke:#181818;stroke-width:0.5;" x1="1507" x2="1727" y1="568.482" y2="568.482"/><ellipse cx="1517" cy="583.5159" fill="none" rx="3" ry="3" style="stroke:#038048;stroke-width:1.0;"/><text fill="#000000" font-family="sans-serif" font-size="14" lengthAdjust="spacing" text-decoration="underline" textLength="50" x="1526" y="587.4479">NoAuto</text><ellipse cx="1517" cy="602.5839" fill="none" rx="3" ry="3" style="stroke:#038048;stroke-width:1.0;"/><text fill="#000000" font-family="sans-serif" font-size="14" lengthAdjust="spacing" text-decoration="underline" textLength="56" x="1526" y="606.5158">LeftAuto</text><ellipse cx="1517" cy="621.6518" fill="none" rx="3" ry="3" style="stroke:#038048;stroke-width:1.0;"/><text fill="#000000" font-family="sans-serif" font-size="14" lengthAdjust="spacing" text-decoration="underline" textLength="94" x="1526" y="625.5838">LeftAutoShoot</text><ellipse cx="1517" cy="640.7197" fill="none" rx="3" ry="3" style="stroke:#038048;stroke-width:1.0;"/><text fill="#000000" font-family="sans-serif" font-size="14" lengthAdjust="spacing" text-decoration="underline" textLength="116" x="1526" y="644.6517">MiddleAutoShoot</text><ellipse cx="1517" cy="659.7876" fill="none" rx="3" ry="3" style="stroke:#038048;stroke-width:1.0;"/><text fill="#000000" font-family="sans-serif" font-size="14" lengthAdjust="spacing" text-decoration="underline" textLength="105" x="1526" y="663.7196">RightAutoShoot</text><ellipse cx="1517" cy="678.8555" fill="none" rx="3" ry="3" style="stroke:#038048;stroke-width:1.0;"/><text fill="#000000" font-family="sans-serif" font-size="14" lengthAdjust="spacing" text-decoration="underline" textLength="134" x="1526" y="682.7875">LeftAutoDepotShoot</text><line style="stroke:#181818;stroke-width:0.5;" x1="1507" x2="1727" y1="690.8895" y2="690.8895"/></g></a><!--class LeftAuto--><a href="LeftAuto.html" target="_top" title="LeftAuto.html" xlink:actuate="onRequest" xlink:href="LeftAuto.html" xlink:show="new" xlink:title="LeftAuto.html" xlink:type="simple"><g id="elem_LeftAuto"><rect codeLine="60" fill="#F1F1F1" height="67.0679" id="LeftAuto" rx="2.5" ry="2.5" style="stroke:#181818;stroke-width:0.5;" width="217" x="1254.5" y="584.152"/><ellipse cx="1330.75" cy="600.152" fill="#ADD1B2" rx="11" ry="11" style="stroke:#181818;stroke-width:1.0;"/><path d="M1330.2188,607.0739 Q1328.4688,607.0739 1327.3281,606.3395 Q1326.2031,605.5895 1325.6406,604.2457 Q1325.0938,602.8864 1325.0938,601.0895 Q1325.0938,599.0582 1325.75,597.6051 Q1326.4063,596.152 1327.6875,595.3707 Q1328.9688,594.5895 1330.8438,594.5895 Q1331.7344,594.5895 1332.4063,594.777 Q1333.0781,594.9489 1333.7656,595.2926 L1332.9531,597.3082 Q1332.3281,596.9957 1331.7813,596.8707 Q1331.25,596.7457 1330.7656,596.7457 Q1329.5938,596.7457 1328.8906,597.277 Q1328.1875,597.8082 1327.8906,598.7614 Q1327.5938,599.7145 1327.5938,600.9801 Q1327.5938,602.9957 1328.3125,603.9645 Q1329.0313,604.9176 1330.625,604.9176 Q1331.2188,604.9176 1331.8438,604.7614 Q1332.4688,604.6051 1333.2969,604.2301 L1333.2969,606.4489 Q1332.5625,606.7614 1331.7656,606.9176 Q1330.9844,607.0739 1330.2188,607.0739 Z " fill="#000000"/><text fill="#000000" font-family="sans-serif" font-size="14" lengthAdjust="spacing" textLength="56" x="1351.25" y="605.584">LeftAuto</text><line style="stroke:#181818;stroke-width:0.5;" x1="1255.5" x2="1470.5" y1="616.152" y2="616.152"/><line style="stroke:#181818;stroke-width:0.5;" x1="1255.5" x2="1470.5" y1="624.152" y2="624.152"/><ellipse cx="1265.5" cy="639.1859" fill="#84BE84" rx="3" ry="3" style="stroke:#038048;stroke-width:1.0;"/><text fill="#000000" font-family="sans-serif" font-size="14" lengthAdjust="spacing" textLength="191" x="1274.5" y="643.1179">LeftAuto(Optional&lt;Alliance&gt;)</text></g></a><!--class SequentialCommandGroup--><g id="elem_SequentialCommandGroup"><rect codeLine="67" fill="#F1F1F1" height="124.2717" id="SequentialCommandGroup" rx="2.5" ry="2.5" style="stroke:#181818;stroke-width:0.5;" width="315" x="599.5" y="44.602"/><ellipse cx="661.25" cy="60.602" fill="#ADD1B2" rx="11" ry="11" style="stroke:#181818;stroke-width:1.0;"/><path d="M660.7188,67.5239 Q658.9688,67.5239 657.8281,66.7895 Q656.7031,66.0395 656.1406,64.6957 Q655.5938,63.3364 655.5938,61.5395 Q655.5938,59.5082 656.25,58.0551 Q656.9063,56.602 658.1875,55.8207 Q659.4688,55.0395 661.3438,55.0395 Q662.2344,55.0395 662.9063,55.227 Q663.5781,55.3989 664.2656,55.7426 L663.4531,57.7582 Q662.8281,57.4457 662.2813,57.3207 Q661.75,57.1957 661.2656,57.1957 Q660.0938,57.1957 659.3906,57.727 Q658.6875,58.2582 658.3906,59.2114 Q658.0938,60.1645 658.0938,61.4301 Q658.0938,63.4457 658.8125,64.4145 Q659.5313,65.3676 661.125,65.3676 Q661.7188,65.3676 662.3438,65.2114 Q662.9688,65.0551 663.7969,64.6801 L663.7969,66.8989 Q663.0625,67.2114 662.2656,67.3676 Q661.4844,67.5239 660.7188,67.5239 Z " fill="#000000"/><text fill="#000000" font-family="sans-serif" font-size="14" lengthAdjust="spacing" textLength="183" x="681.75" y="66.034">SequentialCommandGroup</text><line style="stroke:#181818;stroke-width:0.5;" x1="600.5" x2="913.5" y1="76.602" y2="76.602"/><rect fill="none" height="6" style="stroke:#C82930;stroke-width:1.0;" width="6" x="607.5" y="88.6359"/><text fill="#000000" font-family="sans-serif" font-size="14" lengthAdjust="spacing" textLength="209" x="619.5" y="95.5679">m_commands: List&lt;Command&gt;</text><rect fill="none" height="6" style="stroke:#C82930;stroke-width:1.0;" width="6" x="607.5" y="107.7039"/><text fill="#000000" font-family="sans-serif" font-size="14" lengthAdjust="spacing" textLength="202" x="619.5" y="114.6358">m_currentCommandIndex: int</text><rect fill="none" height="6" style="stroke:#C82930;stroke-width:1.0;" width="6" x="607.5" y="126.7718"/><text fill="#000000" font-family="sans-serif" font-size="14" lengthAdjust="spacing" textLength="203" x="619.5" y="133.7038">m_runWhenDisabled: boolean</text><rect fill="none" height="6" style="stroke:#C82930;stroke-width:1.0;" width="6" x="607.5" y="145.8397"/><text fill="#000000" font-family="sans-serif" font-size="14" lengthAdjust="spacing" textLength="289" x="619.5" y="152.7717">m_interruptBehavior: InterruptionBehavior</text><line style="stroke:#181818;stroke-width:0.5;" x1="600.5" x2="913.5" y1="160.8736" y2="160.8736"/></g><!--reverse link Auton to LeftAutoShoot--><g id="link_Auton_LeftAutoShoot"><path codeLine="75" d="M544.6746,448.2748 C514.4246,459.6648 500.33,464.822 471,475.482 C393.19,503.762 370.61,502.772 295,536.482 C264.13,550.252 231.05,568.272 204.29,583.752 " fill="none" id="Auton-backto-LeftAutoShoot" style="stroke:#181818;stroke-width:1.0;"/><polygon fill="none" points="561.52,441.932,542.5603,442.6596,546.7888,453.8899,561.52,441.932" style="stroke:#181818;stroke-width:1.0;"/></g><!--reverse link Auton to MiddleAutoShoot--><g id="link_Auton_MiddleAutoShoot"><path codeLine="76" d="M609.2907,487.3604 C561.5307,526.3804 525.16,556.092 491.34,583.732 " fill="none" id="Auton-backto-MiddleAutoShoot" style="stroke:#181818;stroke-width:1.0;"/><polygon fill="none" points="623.23,475.972,605.4946,482.714,613.0869,492.0068,623.23,475.972" style="stroke:#181818;stroke-width:1.0;"/></g><!--reverse link Auton to RightAutoShoot--><g id="link_Auton_RightAutoShoot"><path codeLine="77" d="M757,493.972 C757,532.992 757,556.092 757,583.732 " fill="none" id="Auton-backto-RightAutoShoot" style="stroke:#181818;stroke-width:1.0;"/><polygon fill="none" points="757,475.972,751,493.972,763,493.972,757,475.972" style="stroke:#181818;stroke-width:1.0;"/></g><!--reverse link SequentialCommandGroup to Auton--><g id="link_SequentialCommandGroup_Auton"><path codeLine="78" d="M757,187.282 C757,213.112 757,225.952 757,255.422 " fill="none" id="SequentialCommandGroup-backto-Auton" style="stroke:#181818;stroke-width:1.0;"/><polygon fill="none" points="757,169.282,751,187.282,763,187.282,757,169.282" style="stroke:#181818;stroke-width:1.0;"/></g><!--reverse link Auton to LeftAutoDepotShoot--><g id="link_Auton_LeftAutoDepotShoot"><path codeLine="79" d="M908.8086,487.1625 C957.9686,526.1825 995.66,556.092 1030.48,583.732 " fill="none" id="Auton-backto-LeftAutoDepotShoot" style="stroke:#181818;stroke-width:1.0;"/><polygon fill="none" points="894.71,475.972,905.0784,491.8621,912.5388,482.463,894.71,475.972" style="stroke:#181818;stroke-width:1.0;"/></g><!--link AutonSelector to AutonSelector--><g id="link_AutonSelector_AutonSelector"><path codeLine="80" d="M1647.92,342.992 C1668.82,347.092 1682.5,354.652 1682.5,365.682 C1682.5,376.712 1674.7083,383.1197 1653.8083,387.2097 " fill="none" id="AutonSelector-to-AutonSelector" style="stroke:#181818;stroke-width:1.0;"/><polygon fill="#181818" points="1647.92,388.362,1657.5207,390.5591,1652.8269,387.4017,1655.9843,382.708,1647.92,388.362" style="stroke:#181818;stroke-width:1.0;"/><text fill="#000000" font-family="sans-serif" font-size="13" lengthAdjust="spacing" textLength="50" x="1688.5" y="371.079">instance</text></g><!--reverse link AutonSelector to AutonSelector.AutonChoices--><g id="link_AutonSelector_AutonSelector.AutonChoices"><path codeLine="81" d="M1523.2136,451.5636 C1540.6836,482.3136 1553.31,504.552 1571.33,536.292 " fill="none" id="AutonSelector-backto-AutonSelector.AutonChoices" style="stroke:#181818;stroke-width:1.0;"/><ellipse cx="1519.2618" cy="444.6078" fill="#FFFFFF" rx="8" ry="8" style="stroke:#181818;stroke-width:1.0;"/><line style="stroke:#181818;stroke-width:1.0;" x1="1523.2136" x2="1515.31" y1="451.5636" y2="437.652"/><line style="stroke:#181818;stroke-width:1.0;" x1="1512.306" x2="1526.2176" y1="448.5596" y2="440.656"/></g><!--reverse link Auton to LeftAuto--><g id="link_Auton_LeftAuto"><path codeLine="82" d="M969.4123,430.2254 C1058.1923,459.3654 1146.31,492.292 1237,536.482 C1264.62,549.942 1293.67,568.132 1316.91,583.782 " fill="none" id="Auton-backto-LeftAuto" style="stroke:#181818;stroke-width:1.0;"/><polygon fill="none" points="952.31,424.612,967.5412,435.9262,971.2835,424.5247,952.31,424.612" style="stroke:#181818;stroke-width:1.0;"/></g><text fill="#888888" font-family="sans-serif" font-size="10" lengthAdjust="spacing" textLength="176" x="780.75" y="731.582">UMLDoclet 2.1.2, PlantUML 1.2024.3</text><!--SRC=[fLPHQzim47xlhn2CGKeQG_DeGg1hO0JIhJGTUoXbAF8bKQT8hYIdArttsol9TcEfLjraWTQszDrzfxllpaO88GNQ_ELOOYqaIjEZ8xE8San-unMWfII950kX4rnemHLwAlVjZp2i5Bh4UgtGpOsx9ckzORUt1eKQloUbiQRa6VLNe6Umr7EDfRO6lUFKERXac7EGzZPkUK6pZC4PkI-eX6inNmknlnDBVteWzVvsLtIrFe1k0hauCD9Nqs6NwNDOIMjrPghi4cigwZstLxRlONhVSqq5nsnqnXZ5dC3uE4vNbRD16An4A0FKVgIk84rEVo52wOC-oeWNIajCT4LjxRbXTDTseW7bL5FCBeK2KpZpVvXvW4-Pf5kubfZo54rUxtqChg9AKHsVVneNmBk7SB6OmJ3TXTChep5wsWeQ11KYTu8pqTq1COFbyM334tGbhBu5RsUtecywEMvDN7yf61CFbk5SR3QOPxsWBunTjTFT8Qx9mZRPBNRqoWwudtPTtUR0N5vg8TNFxPp_xDG-DrGAP8hcm3EyO50jZ9m3yq09gB5lbm73Zr73YIZCqpW-XQRSF9dZs6fuOVeP8SvVgSSQsOQOs6Wi8dF4RIa2NcnyggHvl3VfQcvslRM-2OkERDPLxTXszOvWWeaMGVb3g8Dkfx5kDJSqtA7SZ-ZrsV-0WAn87dAQBAbKsjunkhWR9gHijGPH6TCSxWlWjfchPlmgHP67OtBpgx9NAPfHfKSLUFm6LaXft5NRKvx1dnHHhaESBFZFDV09LLRcMOeMGZ30FCGPKv2ooFKNMECj5QOtflMIIKozsiX98oNXjrIQbg-4qT_1e6NphNBsTD0cgprTj6Zk_OAcQQI24O9Ton-OdK3e4I-lKtCm67TXh43AwVKXZ_tukLg7pVySrjaIi8f3ItDaS_bnCPi8min7_30vJOOdoBxIj5b5dxSW5RMJzGK0]--></g></svg>