<?xml version="1.0" encoding="us-ascii" standalone="no"?><svg xmlns="http://www.w3.org/2000/svg" xmlns:xlink="http://www.w3.org/1999/xlink" contentStyleType="text/css" height="219px" preserveAspectRatio="none" style="width:380px;height:219px;background:#FFFFFF;" version="1.1" viewBox="0 0 380 219" width="380px" zoomAndPan="magnify"><defs/><g><!--class frc.robot.autons.Paths--><a href="Paths.html" target="_top" title="Paths.html" xlink:actuate="onRequest" xlink:href="Paths.html" xlink:show="new" xlink:title="Paths.html" xlink:type="simple"><g id="elem_frc.robot.autons.Paths"><rect codeLine="5" fill="#F1F1F1" height="184.1633" id="frc.robot.autons.Paths" rx="2.5" ry="2.5" style="stroke:#181818;stroke-width:0.5;" width="359" x="7" y="7"/><ellipse cx="143.75" cy="28.344" fill="#ADD1B2" rx="11" ry="11" style="stroke:#181818;stroke-width:1.0;"/><path d="M143.2188,35.2658 Q141.4688,35.2658 140.3281,34.5315 Q139.2031,33.7815 138.6406,32.4377 Q138.0938,31.0783 138.0938,29.2815 Q138.0938,27.2502 138.75,25.7971 Q139.4063,24.344 140.6875,23.5627 Q141.9688,22.7815 143.8438,22.7815 Q144.7344,22.7815 145.4063,22.969 Q146.0781,23.1408 146.7656,23.4846 L145.9531,25.5002 Q145.3281,25.1877 144.7813,25.0627 Q144.25,24.9377 143.7656,24.9377 Q142.5938,24.9377 141.8906,25.469 Q141.1875,26.0002 140.8906,26.9533 Q140.5938,27.9065 140.5938,29.1721 Q140.5938,31.1877 141.3125,32.1565 Q142.0313,33.1096 143.625,33.1096 Q144.2188,33.1096 144.8438,32.9533 Q145.4688,32.7971 146.2969,32.4221 L146.2969,34.6408 Q145.5625,34.9533 144.7656,35.1096 Q143.9844,35.2658 143.2188,35.2658 Z " fill="#000000"/><text fill="#000000" font-family="sans-serif" font-size="14" lengthAdjust="spacing" textLength="37" x="184.25" y="26.9659">Paths</text><text fill="#000000" font-family="sans-serif" font-size="10" lengthAdjust="spacing" textLength="77" x="164.25" y="41.7579">frc.robot.autons</text><line style="stroke:#181818;stroke-width:0.5;" x1="8" x2="365" y1="49.6879" y2="49.6879"/><ellipse cx="18" cy="64.7219" fill="#84BE84" rx="3" ry="3" style="stroke:#038048;stroke-width:1.0;"/><text fill="#000000" font-family="sans-serif" font-size="14" lengthAdjust="spacing" text-decoration="underline" textLength="237" x="27" y="68.6538">getLeftStartPath(): PathPlannerPath</text><ellipse cx="18" cy="83.7898" fill="#84BE84" rx="3" ry="3" style="stroke:#038048;stroke-width:1.0;"/><text fill="#000000" font-family="sans-serif" font-size="14" lengthAdjust="spacing" text-decoration="underline" textLength="333" x="27" y="87.7218">getMiddleAcquireToShootPath(): PathPlannerPath</text><ellipse cx="18" cy="102.8577" fill="#84BE84" rx="3" ry="3" style="stroke:#038048;stroke-width:1.0;"/><text fill="#000000" font-family="sans-serif" font-size="14" lengthAdjust="spacing" text-decoration="underline" textLength="213" x="27" y="106.7897">getLeft1Path(): PathPlannerPath</text><ellipse cx="18" cy="121.9256" fill="#84BE84" rx="3" ry="3" style="stroke:#038048;stroke-width:1.0;"/><text fill="#000000" font-family="sans-serif" font-size="14" lengthAdjust="spacing" text-decoration="underline" textLength="235" x="27" y="125.8576">getMiddle1Path(): PathPlannerPath</text><ellipse cx="18" cy="140.9935" fill="#84BE84" rx="3" ry="3" style="stroke:#038048;stroke-width:1.0;"/><text fill="#000000" font-family="sans-serif" font-size="14" lengthAdjust="spacing" text-decoration="underline" textLength="224" x="27" y="144.9255">getRight1Path(): PathPlannerPath</text><ellipse cx="18" cy="160.0614" fill="#84BE84" rx="3" ry="3" style="stroke:#038048;stroke-width:1.0;"/><text fill="#000000" font-family="sans-serif" font-size="14" lengthAdjust="spacing" text-decoration="underline" textLength="253" x="27" y="163.9934">getDepotLeft1Path(): PathPlannerPath</text><ellipse cx="18" cy="179.1294" fill="#84BE84" rx="3" ry="3" style="stroke:#038048;stroke-width:1.0;"/><text fill="#000000" font-family="sans-serif" font-size="14" lengthAdjust="spacing" text-decoration="underline" textLength="253" x="27" y="183.0613">getDepotLeft2Path(): PathPlannerPath</text></g></a><text fill="#888888" font-family="sans-serif" font-size="10" lengthAdjust="spacing" textLength="176" x="98" y="208.8533">UMLDoclet 2.1.2, PlantUML 1.2024.3</text><!--SRC=[dP91ImCn48Nl_egX8BGeeRjuAb8ezDX2SVLKUnYpiqqWczacKq5B_xl9AXwA2DjSNlAIBs-O100Wae37bcA7cYhgCA1m0C-URj8s65iJKDl91pIMN1qltPR4SB9xNpkC4KQFqNxIh7YORr1CVFK_w-cy2Le5VcDHU1JsSGGOuT9KFGNRRQ_AIEjsEpZr0NcSeg1OVOQxFScA6ga4W-J3uyaCicuSUayXJ_-crhQk7ItquMW3FNDbc8TTa6EBAoA7CKzsRmR6BAdZAwhxnSh_iFFt8vCN2j2adYLvMQ-Mh5twHgKgL7aF6PBamkqxXMZPZoTV]--></g></svg>