<?xml version="1.0" encoding="us-ascii" standalone="no"?><svg xmlns="http://www.w3.org/2000/svg" xmlns:xlink="http://www.w3.org/1999/xlink" contentStyleType="text/css" height="665px" preserveAspectRatio="none" style="width:310px;height:665px;background:#FFFFFF;" version="1.1" viewBox="0 0 310 665" width="310px" zoomAndPan="magnify"><defs/><g><!--cluster frc.robot.libraries--><g id="cluster_frc.robot.libraries"><path d="M8.5,141.602 L130.5,141.602 A3.75,3.75 0 0 1 133,144.102 L140,166.6699 L285.5,166.6699 A2.5,2.5 0 0 1 288,169.1699 L288,635.052 A2.5,2.5 0 0 1 285.5,637.552 L8.5,637.552 A2.5,2.5 0 0 1 6,635.052 L6,144.102 A2.5,2.5 0 0 1 8.5,141.602 " fill="none" style="stroke:#000000;stroke-width:1.5;"/><line style="stroke:#000000;stroke-width:1.5;" x1="6" x2="140" y1="166.6699" y2="166.6699"/><text fill="#000000" font-family="sans-serif" font-size="14" font-weight="bold" lengthAdjust="spacing" textLength="121" x="10" y="158.5679">frc.robot.libraries</text></g><!--cluster edu.wpi.first.wpilibj2.command.button--><g id="cluster_edu.wpi.first.wpilibj2.command.button"><path d="M18.5,6.602 L290.5,6.602 A3.75,3.75 0 0 1 293,9.102 L300,31.6699 L300.5,31.6699 A2.5,2.5 0 0 1 303,34.1699 L303,106.102 A2.5,2.5 0 0 1 300.5,108.602 L18.5,108.602 A2.5,2.5 0 0 1 16,106.102 L16,9.102 A2.5,2.5 0 0 1 18.5,6.602 " fill="none" style="stroke:#000000;stroke-width:1.5;"/><line style="stroke:#000000;stroke-width:1.5;" x1="16" x2="300" y1="31.6699" y2="31.6699"/><text fill="#000000" font-family="sans-serif" font-size="14" font-weight="bold" lengthAdjust="spacing" textLength="271" x="20" y="23.5679">edu.wpi.first.wpilibj2.command.button</text></g><!--class XboxController1038--><a href="XboxController1038.html" target="_top" title="XboxController1038.html" xlink:actuate="onRequest" xlink:href="XboxController1038.html" xlink:show="new" xlink:title="XboxController1038.html" xlink:type="simple"><g id="elem_XboxController1038"><rect codeLine="5" fill="#F1F1F1" height="219.6113" id="XboxController1038" rx="2.5" ry="2.5" style="stroke:#181818;stroke-width:0.5;" width="225" x="28.5" y="179.602"/><ellipse cx="71.4" cy="195.602" fill="#ADD1B2" rx="11" ry="11" style="stroke:#181818;stroke-width:1.0;"/><path d="M70.8688,202.5239 Q69.1188,202.5239 67.9781,201.7895 Q66.8531,201.0395 66.2906,199.6957 Q65.7438,198.3364 65.7438,196.5395 Q65.7438,194.5082 66.4,193.0551 Q67.0563,191.602 68.3375,190.8207 Q69.6188,190.0395 71.4938,190.0395 Q72.3844,190.0395 73.0563,190.227 Q73.7281,190.3989 74.4156,190.7426 L73.6031,192.7582 Q72.9781,192.4457 72.4313,192.3207 Q71.9,192.1957 71.4156,192.1957 Q70.2438,192.1957 69.5406,192.727 Q68.8375,193.2582 68.5406,194.2114 Q68.2438,195.1645 68.2438,196.4301 Q68.2438,198.4457 68.9625,199.4145 Q69.6813,200.3676 71.275,200.3676 Q71.8688,200.3676 72.4938,200.2114 Q73.1188,200.0551 73.9469,199.6801 L73.9469,201.8989 Q73.2125,202.2114 72.4156,202.3676 Q71.6344,202.5239 70.8688,202.5239 Z " fill="#000000"/><text fill="#000000" font-family="sans-serif" font-size="14" lengthAdjust="spacing" textLength="131" x="91.6" y="201.034">XboxController1038</text><line style="stroke:#181818;stroke-width:0.5;" x1="29.5" x2="252.5" y1="211.602" y2="211.602"/><line style="stroke:#181818;stroke-width:0.5;" x1="29.5" x2="252.5" y1="219.602" y2="219.602"/><ellipse cx="39.5" cy="234.6359" fill="#84BE84" rx="3" ry="3" style="stroke:#038048;stroke-width:1.0;"/><text fill="#000000" font-family="sans-serif" font-size="14" lengthAdjust="spacing" textLength="157" x="48.5" y="238.5679">XboxController1038(int)</text><ellipse cx="39.5" cy="253.7039" fill="#84BE84" rx="3" ry="3" style="stroke:#038048;stroke-width:1.0;"/><text fill="#000000" font-family="sans-serif" font-size="14" lengthAdjust="spacing" textLength="179" x="48.5" y="257.6358">deadband(double): double</text><ellipse cx="39.5" cy="272.7718" fill="#84BE84" rx="3" ry="3" style="stroke:#038048;stroke-width:1.0;"/><text fill="#000000" font-family="sans-serif" font-size="14" lengthAdjust="spacing" textLength="118" x="48.5" y="276.7038">getLeftY(): double</text><ellipse cx="39.5" cy="291.8397" fill="#84BE84" rx="3" ry="3" style="stroke:#038048;stroke-width:1.0;"/><text fill="#000000" font-family="sans-serif" font-size="14" lengthAdjust="spacing" textLength="118" x="48.5" y="295.7717">getLeftX(): double</text><ellipse cx="39.5" cy="310.9076" fill="#84BE84" rx="3" ry="3" style="stroke:#038048;stroke-width:1.0;"/><text fill="#000000" font-family="sans-serif" font-size="14" lengthAdjust="spacing" textLength="129" x="48.5" y="314.8396">getRightY(): double</text><ellipse cx="39.5" cy="329.9755" fill="#84BE84" rx="3" ry="3" style="stroke:#038048;stroke-width:1.0;"/><text fill="#000000" font-family="sans-serif" font-size="14" lengthAdjust="spacing" textLength="129" x="48.5" y="333.9075">getRightX(): double</text><ellipse cx="39.5" cy="349.0434" fill="#84BE84" rx="3" ry="3" style="stroke:#038048;stroke-width:1.0;"/><text fill="#000000" font-family="sans-serif" font-size="14" lengthAdjust="spacing" textLength="188" x="48.5" y="352.9754">setLeftRumble(double): void</text><ellipse cx="39.5" cy="368.1114" fill="#84BE84" rx="3" ry="3" style="stroke:#038048;stroke-width:1.0;"/><text fill="#000000" font-family="sans-serif" font-size="14" lengthAdjust="spacing" textLength="199" x="48.5" y="372.0433">setRightRumble(double): void</text><ellipse cx="39.5" cy="387.1793" fill="#84BE84" rx="3" ry="3" style="stroke:#038048;stroke-width:1.0;"/><text fill="#000000" font-family="sans-serif" font-size="14" lengthAdjust="spacing" textLength="163" x="48.5" y="391.1113">setRumble(double): void</text></g></a><!--class XboxController1038.PovPositions--><a href="XboxController1038.PovPositions.html" target="_top" title="XboxController1038.PovPositions.html" xlink:actuate="onRequest" xlink:href="XboxController1038.PovPositions.html" xlink:show="new" xlink:title="XboxController1038.PovPositions.html" xlink:type="simple"><g id="elem_XboxController1038.PovPositions"><rect codeLine="17" fill="#F1F1F1" height="143.3396" id="XboxController1038.PovPositions" rx="2.5" ry="2.5" style="stroke:#181818;stroke-width:0.5;" width="250" x="22" y="478.212"/><ellipse cx="37" cy="494.212" fill="#EB937F" rx="11" ry="11" style="stroke:#181818;stroke-width:1.0;"/><path d="M33.3594,500.712 L33.3594,488.5714 L41.0156,488.5714 L41.0156,490.6964 L35.7344,490.6964 L35.7344,493.3526 L40.75,493.3526 L40.75,495.4776 L35.7344,495.4776 L35.7344,498.587 L41.0156,498.587 L41.0156,500.712 L33.3594,500.712 Z " fill="#000000"/><text fill="#000000" font-family="sans-serif" font-size="14" lengthAdjust="spacing" textLength="218" x="51" y="499.644">XboxController1038.PovPositions</text><line style="stroke:#181818;stroke-width:0.5;" x1="23" x2="271" y1="510.212" y2="510.212"/><ellipse cx="33" cy="525.2459" fill="none" rx="3" ry="3" style="stroke:#038048;stroke-width:1.0;"/><text fill="#000000" font-family="sans-serif" font-size="14" lengthAdjust="spacing" text-decoration="underline" textLength="19" x="42" y="529.1779">Up</text><ellipse cx="33" cy="544.3139" fill="none" rx="3" ry="3" style="stroke:#038048;stroke-width:1.0;"/><text fill="#000000" font-family="sans-serif" font-size="14" lengthAdjust="spacing" text-decoration="underline" textLength="38" x="42" y="548.2458">Down</text><ellipse cx="33" cy="563.3818" fill="none" rx="3" ry="3" style="stroke:#038048;stroke-width:1.0;"/><text fill="#000000" font-family="sans-serif" font-size="14" lengthAdjust="spacing" text-decoration="underline" textLength="25" x="42" y="567.3138">Left</text><ellipse cx="33" cy="582.4497" fill="none" rx="3" ry="3" style="stroke:#038048;stroke-width:1.0;"/><text fill="#000000" font-family="sans-serif" font-size="14" lengthAdjust="spacing" text-decoration="underline" textLength="36" x="42" y="586.3817">Right</text><ellipse cx="33" cy="601.5176" fill="none" rx="3" ry="3" style="stroke:#038048;stroke-width:1.0;"/><text fill="#000000" font-family="sans-serif" font-size="14" lengthAdjust="spacing" text-decoration="underline" textLength="36" x="42" y="605.4496">None</text><line style="stroke:#181818;stroke-width:0.5;" x1="23" x2="271" y1="613.5516" y2="613.5516"/></g></a><!--class CommandXboxController--><g id="elem_CommandXboxController"><rect codeLine="28" fill="#F1F1F1" height="48" id="CommandXboxController" rx="2.5" ry="2.5" style="stroke:#181818;stroke-width:0.5;" width="200" x="41" y="44.602"/><ellipse cx="56" cy="60.602" fill="#ADD1B2" rx="11" ry="11" style="stroke:#181818;stroke-width:1.0;"/><path d="M55.4688,67.5239 Q53.7188,67.5239 52.5781,66.7895 Q51.4531,66.0395 50.8906,64.6957 Q50.3438,63.3364 50.3438,61.5395 Q50.3438,59.5082 51,58.0551 Q51.6563,56.602 52.9375,55.8207 Q54.2188,55.0395 56.0938,55.0395 Q56.9844,55.0395 57.6563,55.227 Q58.3281,55.3989 59.0156,55.7426 L58.2031,57.7582 Q57.5781,57.4457 57.0313,57.3207 Q56.5,57.1957 56.0156,57.1957 Q54.8438,57.1957 54.1406,57.727 Q53.4375,58.2582 53.1406,59.2114 Q52.8438,60.1645 52.8438,61.4301 Q52.8438,63.4457 53.5625,64.4145 Q54.2813,65.3676 55.875,65.3676 Q56.4688,65.3676 57.0938,65.2114 Q57.7188,65.0551 58.5469,64.6801 L58.5469,66.8989 Q57.8125,67.2114 57.0156,67.3676 Q56.2344,67.5239 55.4688,67.5239 Z " fill="#000000"/><text fill="#000000" font-family="sans-serif" font-size="14" lengthAdjust="spacing" textLength="168" x="70" y="66.034">CommandXboxController</text><line style="stroke:#181818;stroke-width:0.5;" x1="42" x2="240" y1="76.602" y2="76.602"/><line style="stroke:#181818;stroke-width:0.5;" x1="42" x2="240" y1="84.602" y2="84.602"/></g><!--reverse link CommandXboxController to XboxController1038--><g id="link_CommandXboxController_XboxController1038"><path codeLine="32" d="M141,111.022 C141,132.072 141,146.612 141,179.132 " fill="none" id="CommandXboxController-backto-XboxController1038" style="stroke:#181818;stroke-width:1.0;"/><polygon fill="none" points="141,93.022,135,111.022,147,111.022,141,93.022" style="stroke:#181818;stroke-width:1.0;"/></g><!--link XboxController1038 to XboxController1038.PovPositions--><g id="link_XboxController1038_XboxController1038.PovPositions"><path codeLine="33" d="M122.98,399.502 C122.1,415.832 122.22,432.472 124,448.212 C125.08,457.832 125.5932,461.9826 127.5132,471.8426 " fill="none" id="XboxController1038-to-XboxController1038.PovPositions" style="stroke:#181818;stroke-width:1.0;"/><polygon fill="#181818" points="128.66,477.732,130.866,468.1334,127.7043,472.8242,123.0135,469.6625,128.66,477.732" style="stroke:#181818;stroke-width:1.0;"/><text fill="#000000" font-family="sans-serif" font-size="13" lengthAdjust="spacing" textLength="26" x="125" y="444.109">pOV</text></g><!--reverse link XboxController1038 to XboxController1038.PovPositions--><g id="link_XboxController1038_XboxController1038.PovPositions"><path codeLine="34" d="M156.3174,415.3621 C157.3174,431.7021 156.71,432.402 156,448.212 C155.57,457.762 154.92,467.812 154.16,477.712 " fill="none" id="XboxController1038-backto-XboxController1038.PovPositions" style="stroke:#181818;stroke-width:1.0;"/><ellipse cx="155.8287" cy="407.377" fill="#FFFFFF" rx="8" ry="8" style="stroke:#181818;stroke-width:1.0;"/><line style="stroke:#181818;stroke-width:1.0;" x1="156.3174" x2="155.34" y1="415.3621" y2="399.392"/><line style="stroke:#181818;stroke-width:1.0;" x1="147.8436" x2="163.8137" y1="407.8657" y2="406.8884"/></g><text fill="#888888" font-family="sans-serif" font-size="10" lengthAdjust="spacing" textLength="176" x="60" y="654.242">UMLDoclet 2.1.2, PlantUML 1.2024.3</text><!--SRC=[bLJBQiCm4BpdA_PIS4WjclHIHEabEQPj2AIaX1vaMqxKobeZoKaXzRzNiG-nwmUkm5ZiZ7QyEoi301XktPCopInge7GqSa58MVZ5zXnY7HAD0LeYHQ2P5jp0kQHSLYYPCR0Dy7kEocgKaklftVq3x7RD83dOH7vykFDGMPCcqHFAZkkaYBCeO2ho8im2oSSKoasTjUTsoMFxxlNZsnvyBVQ7tWG5eJE3AHNMMUAWwySUKKGDOf5f6BEFb5_ju2fBMjmWApokq0WhK9bsQwgCTf_EnZ8hmXmccxG3ME19TK2NfdH0HHiwi1TK_6-XUNr2UPIHKof8BBInbvqRrCyP2J59tBoG8BCMLQMMScJd9LplH8MLLwK6IL3QdlFnn_VRhX6bJHiAjO5SyFsdeToQlHJIrxT_AKs6Lr1JAaH2hgnhGunuUMsUbmiCfVldpCYKp6vX9PcoBWetHwwDE-MDVm40]--></g></svg>