<?xml version="1.0" encoding="us-ascii" standalone="no"?><svg xmlns="http://www.w3.org/2000/svg" xmlns:xlink="http://www.w3.org/1999/xlink" contentStyleType="text/css" height="703px" preserveAspectRatio="none" style="width:310px;height:703px;background:#FFFFFF;" version="1.1" viewBox="0 0 310 703" width="310px" zoomAndPan="magnify"><defs/><g><!--cluster frc.robot.libraries--><g id="cluster_frc.robot.libraries"><path d="M8.5,160.672 L130.5,160.672 A3.75,3.75 0 0 1 133,163.172 L140,185.7399 L285.5,185.7399 A2.5,2.5 0 0 1 288,188.2399 L288,673.192 A2.5,2.5 0 0 1 285.5,675.692 L8.5,675.692 A2.5,2.5 0 0 1 6,673.192 L6,163.172 A2.5,2.5 0 0 1 8.5,160.672 " fill="none" style="stroke:#000000;stroke-width:1.5;"/><line style="stroke:#000000;stroke-width:1.5;" x1="6" x2="140" y1="185.7399" y2="185.7399"/><text fill="#000000" font-family="sans-serif" font-size="14" font-weight="bold" lengthAdjust="spacing" textLength="121" x="10" y="177.6379">frc.robot.libraries</text></g><!--cluster edu.wpi.first.wpilibj2.command.button--><g id="cluster_edu.wpi.first.wpilibj2.command.button"><path d="M18.5,6.602 L290.5,6.602 A3.75,3.75 0 0 1 293,9.102 L300,31.6699 L300.5,31.6699 A2.5,2.5 0 0 1 303,34.1699 L303,125.172 A2.5,2.5 0 0 1 300.5,127.672 L18.5,127.672 A2.5,2.5 0 0 1 16,125.172 L16,9.102 A2.5,2.5 0 0 1 18.5,6.602 " fill="none" style="stroke:#000000;stroke-width:1.5;"/><line style="stroke:#000000;stroke-width:1.5;" x1="16" x2="300" y1="31.6699" y2="31.6699"/><text fill="#000000" font-family="sans-serif" font-size="14" font-weight="bold" lengthAdjust="spacing" textLength="271" x="20" y="23.5679">edu.wpi.first.wpilibj2.command.button</text></g><!--class XboxController1038--><a href="XboxController1038.html" target="_top" title="XboxController1038.html" xlink:actuate="onRequest" xlink:href="XboxController1038.html" xlink:show="new" xlink:title="XboxController1038.html" xlink:type="simple"><g id="elem_XboxController1038"><rect codeLine="5" fill="#F1F1F1" height="238.6792" id="XboxController1038" rx="2.5" ry="2.5" style="stroke:#181818;stroke-width:0.5;" width="225" x="28.5" y="198.672"/><ellipse cx="71.4" cy="214.672" fill="#ADD1B2" rx="11" ry="11" style="stroke:#181818;stroke-width:1.0;"/><path d="M70.8688,221.5939 Q69.1188,221.5939 67.9781,220.8595 Q66.8531,220.1095 66.2906,218.7657 Q65.7438,217.4064 65.7438,215.6095 Q65.7438,213.5782 66.4,212.1251 Q67.0563,210.672 68.3375,209.8907 Q69.6188,209.1095 71.4938,209.1095 Q72.3844,209.1095 73.0563,209.297 Q73.7281,209.4689 74.4156,209.8126 L73.6031,211.8282 Q72.9781,211.5157 72.4313,211.3907 Q71.9,211.2657 71.4156,211.2657 Q70.2438,211.2657 69.5406,211.797 Q68.8375,212.3282 68.5406,213.2814 Q68.2438,214.2345 68.2438,215.5001 Q68.2438,217.5157 68.9625,218.4845 Q69.6813,219.4376 71.275,219.4376 Q71.8688,219.4376 72.4938,219.2814 Q73.1188,219.1251 73.9469,218.7501 L73.9469,220.9689 Q73.2125,221.2814 72.4156,221.4376 Q71.6344,221.5939 70.8688,221.5939 Z " fill="#000000"/><text fill="#000000" font-family="sans-serif" font-size="14" lengthAdjust="spacing" textLength="131" x="91.6" y="220.104">XboxController1038</text><line style="stroke:#181818;stroke-width:0.5;" x1="29.5" x2="252.5" y1="230.672" y2="230.672"/><rect fill="none" height="6" style="stroke:#C82930;stroke-width:1.0;" width="6" x="36.5" y="242.7059"/><text fill="#000000" font-family="sans-serif" font-size="14" lengthAdjust="spacing" textLength="172" x="48.5" y="249.6379">controller: XboxController</text><line style="stroke:#181818;stroke-width:0.5;" x1="29.5" x2="252.5" y1="257.7399" y2="257.7399"/><ellipse cx="39.5" cy="272.7739" fill="#84BE84" rx="3" ry="3" style="stroke:#038048;stroke-width:1.0;"/><text fill="#000000" font-family="sans-serif" font-size="14" lengthAdjust="spacing" textLength="157" x="48.5" y="276.7058">XboxController1038(int)</text><ellipse cx="39.5" cy="291.8418" fill="#84BE84" rx="3" ry="3" style="stroke:#038048;stroke-width:1.0;"/><text fill="#000000" font-family="sans-serif" font-size="14" lengthAdjust="spacing" textLength="179" x="48.5" y="295.7738">deadband(double): double</text><ellipse cx="39.5" cy="310.9097" fill="#84BE84" rx="3" ry="3" style="stroke:#038048;stroke-width:1.0;"/><text fill="#000000" font-family="sans-serif" font-size="14" lengthAdjust="spacing" textLength="118" x="48.5" y="314.8417">getLeftY(): double</text><ellipse cx="39.5" cy="329.9776" fill="#84BE84" rx="3" ry="3" style="stroke:#038048;stroke-width:1.0;"/><text fill="#000000" font-family="sans-serif" font-size="14" lengthAdjust="spacing" textLength="118" x="48.5" y="333.9096">getLeftX(): double</text><ellipse cx="39.5" cy="349.0455" fill="#84BE84" rx="3" ry="3" style="stroke:#038048;stroke-width:1.0;"/><text fill="#000000" font-family="sans-serif" font-size="14" lengthAdjust="spacing" textLength="129" x="48.5" y="352.9775">getRightY(): double</text><ellipse cx="39.5" cy="368.1134" fill="#84BE84" rx="3" ry="3" style="stroke:#038048;stroke-width:1.0;"/><text fill="#000000" font-family="sans-serif" font-size="14" lengthAdjust="spacing" textLength="129" x="48.5" y="372.0454">getRightX(): double</text><ellipse cx="39.5" cy="387.1814" fill="#84BE84" rx="3" ry="3" style="stroke:#038048;stroke-width:1.0;"/><text fill="#000000" font-family="sans-serif" font-size="14" lengthAdjust="spacing" textLength="188" x="48.5" y="391.1133">setLeftRumble(double): void</text><ellipse cx="39.5" cy="406.2493" fill="#84BE84" rx="3" ry="3" style="stroke:#038048;stroke-width:1.0;"/><text fill="#000000" font-family="sans-serif" font-size="14" lengthAdjust="spacing" textLength="199" x="48.5" y="410.1813">setRightRumble(double): void</text><ellipse cx="39.5" cy="425.3172" fill="#84BE84" rx="3" ry="3" style="stroke:#038048;stroke-width:1.0;"/><text fill="#000000" font-family="sans-serif" font-size="14" lengthAdjust="spacing" textLength="163" x="48.5" y="429.2492">setRumble(double): void</text></g></a><!--class XboxController1038.PovPositions--><a href="XboxController1038.PovPositions.html" target="_top" title="XboxController1038.PovPositions.html" xlink:actuate="onRequest" xlink:href="XboxController1038.PovPositions.html" xlink:show="new" xlink:title="XboxController1038.PovPositions.html" xlink:type="simple"><g id="elem_XboxController1038.PovPositions"><rect codeLine="18" fill="#F1F1F1" height="143.3396" id="XboxController1038.PovPositions" rx="2.5" ry="2.5" style="stroke:#181818;stroke-width:0.5;" width="250" x="22" y="516.352"/><ellipse cx="37" cy="532.352" fill="#EB937F" rx="11" ry="11" style="stroke:#181818;stroke-width:1.0;"/><path d="M33.3594,538.852 L33.3594,526.7114 L41.0156,526.7114 L41.0156,528.8364 L35.7344,528.8364 L35.7344,531.4926 L40.75,531.4926 L40.75,533.6176 L35.7344,533.6176 L35.7344,536.727 L41.0156,536.727 L41.0156,538.852 L33.3594,538.852 Z " fill="#000000"/><text fill="#000000" font-family="sans-serif" font-size="14" lengthAdjust="spacing" textLength="218" x="51" y="537.784">XboxController1038.PovPositions</text><line style="stroke:#181818;stroke-width:0.5;" x1="23" x2="271" y1="548.352" y2="548.352"/><ellipse cx="33" cy="563.3859" fill="none" rx="3" ry="3" style="stroke:#038048;stroke-width:1.0;"/><text fill="#000000" font-family="sans-serif" font-size="14" lengthAdjust="spacing" text-decoration="underline" textLength="19" x="42" y="567.3179">Up</text><ellipse cx="33" cy="582.4539" fill="none" rx="3" ry="3" style="stroke:#038048;stroke-width:1.0;"/><text fill="#000000" font-family="sans-serif" font-size="14" lengthAdjust="spacing" text-decoration="underline" textLength="38" x="42" y="586.3858">Down</text><ellipse cx="33" cy="601.5218" fill="none" rx="3" ry="3" style="stroke:#038048;stroke-width:1.0;"/><text fill="#000000" font-family="sans-serif" font-size="14" lengthAdjust="spacing" text-decoration="underline" textLength="25" x="42" y="605.4538">Left</text><ellipse cx="33" cy="620.5897" fill="none" rx="3" ry="3" style="stroke:#038048;stroke-width:1.0;"/><text fill="#000000" font-family="sans-serif" font-size="14" lengthAdjust="spacing" text-decoration="underline" textLength="36" x="42" y="624.5217">Right</text><ellipse cx="33" cy="639.6576" fill="none" rx="3" ry="3" style="stroke:#038048;stroke-width:1.0;"/><text fill="#000000" font-family="sans-serif" font-size="14" lengthAdjust="spacing" text-decoration="underline" textLength="36" x="42" y="643.5896">None</text><line style="stroke:#181818;stroke-width:0.5;" x1="23" x2="271" y1="651.6916" y2="651.6916"/></g></a><!--class CommandXboxController--><g id="elem_CommandXboxController"><rect codeLine="29" fill="#F1F1F1" height="67.0679" id="CommandXboxController" rx="2.5" ry="2.5" style="stroke:#181818;stroke-width:0.5;" width="200" x="41" y="44.602"/><ellipse cx="56" cy="60.602" fill="#ADD1B2" rx="11" ry="11" style="stroke:#181818;stroke-width:1.0;"/><path d="M55.4688,67.5239 Q53.7188,67.5239 52.5781,66.7895 Q51.4531,66.0395 50.8906,64.6957 Q50.3438,63.3364 50.3438,61.5395 Q50.3438,59.5082 51,58.0551 Q51.6563,56.602 52.9375,55.8207 Q54.2188,55.0395 56.0938,55.0395 Q56.9844,55.0395 57.6563,55.227 Q58.3281,55.3989 59.0156,55.7426 L58.2031,57.7582 Q57.5781,57.4457 57.0313,57.3207 Q56.5,57.1957 56.0156,57.1957 Q54.8438,57.1957 54.1406,57.727 Q53.4375,58.2582 53.1406,59.2114 Q52.8438,60.1645 52.8438,61.4301 Q52.8438,63.4457 53.5625,64.4145 Q54.2813,65.3676 55.875,65.3676 Q56.4688,65.3676 57.0938,65.2114 Q57.7188,65.0551 58.5469,64.6801 L58.5469,66.8989 Q57.8125,67.2114 57.0156,67.3676 Q56.2344,67.5239 55.4688,67.5239 Z " fill="#000000"/><text fill="#000000" font-family="sans-serif" font-size="14" lengthAdjust="spacing" textLength="168" x="70" y="66.034">CommandXboxController</text><line style="stroke:#181818;stroke-width:0.5;" x1="42" x2="240" y1="76.602" y2="76.602"/><rect fill="none" height="6" style="stroke:#C82930;stroke-width:1.0;" width="6" x="49" y="88.6359"/><text fill="#000000" font-family="sans-serif" font-size="14" lengthAdjust="spacing" textLength="148" x="61" y="95.5679">m_hid: XboxController</text><line style="stroke:#181818;stroke-width:0.5;" x1="42" x2="240" y1="103.6699" y2="103.6699"/></g><!--reverse link CommandXboxController to XboxController1038--><g id="link_CommandXboxController_XboxController1038"><path codeLine="34" d="M141,129.712 C141,152.492 141,166.432 141,198.352 " fill="none" id="CommandXboxController-backto-XboxController1038" style="stroke:#181818;stroke-width:1.0;"/><polygon fill="none" points="141,111.712,135,129.712,147,129.712,141,111.712" style="stroke:#181818;stroke-width:1.0;"/></g><!--link XboxController1038 to XboxController1038.PovPositions--><g id="link_XboxController1038_XboxController1038.PovPositions"><path codeLine="35" d="M122.67,437.432 C121.96,453.872 122.22,470.542 124,486.352 C125.08,495.972 125.5932,500.1226 127.5132,509.9826 " fill="none" id="XboxController1038-to-XboxController1038.PovPositions" style="stroke:#181818;stroke-width:1.0;"/><polygon fill="#181818" points="128.66,515.872,130.866,506.2734,127.7043,510.9642,123.0135,507.8025,128.66,515.872" style="stroke:#181818;stroke-width:1.0;"/><text fill="#000000" font-family="sans-serif" font-size="13" lengthAdjust="spacing" textLength="26" x="125" y="482.249">pOV</text></g><!--reverse link XboxController1038 to XboxController1038.PovPositions--><g id="link_XboxController1038_XboxController1038.PovPositions"><path codeLine="36" d="M156.4227,453.7403 C157.2727,470.0503 156.7,470.622 156,486.352 C155.57,495.902 154.92,505.952 154.16,515.852 " fill="none" id="XboxController1038-backto-XboxController1038.PovPositions" style="stroke:#181818;stroke-width:1.0;"/><ellipse cx="156.0064" cy="445.7511" fill="#FFFFFF" rx="8" ry="8" style="stroke:#181818;stroke-width:1.0;"/><line style="stroke:#181818;stroke-width:1.0;" x1="156.4227" x2="155.59" y1="453.7403" y2="437.762"/><line style="stroke:#181818;stroke-width:1.0;" x1="148.0172" x2="163.9955" y1="446.1675" y2="445.3348"/></g><text fill="#888888" font-family="sans-serif" font-size="10" lengthAdjust="spacing" textLength="176" x="60" y="692.382">UMLDoclet 2.1.2, PlantUML 1.2024.3</text><!--SRC=[bLHTQy8m57ttLzoNGSKrJFSomjYBFhfD18T3PAHjgjdQt9AaEd3zxuijpDP-q0LAmpqdzzpSUre00CsDVHAcc445b0u6DWW9yx_OZaEeVABGGqCYuIcc1DTmAYZdvKTCQrXx-3r5QHH64LVZk_i7s6pgGR8tSRJTslDGMgx_Hw9NcIgyKJsX8wGPLaa1Pu77PE04c7eH7r8eDbNMZfiv3ysxquslE_2bsEqx4-I4rWowK5YciOKknHvG13LYdgaViukKNSR6PHetJ8qiyB10BOn0gPj7M6Oqp_Ea3JF2ps2qIbg06Hvb2tHkIWkKjw45Uq79ho-QLPtCWvGS4q52eRGvxwoXFoV4npYsVY5UQWpAqbqAQqyBkDg9QmV77tiHj9etArVJgmfAcsKVVrotwOkaj3wfNAqd5rptgI-tuW0AoUlRlvH6_MzGKSf5V2wDRKE8U7wjdkSpz2Fx-vgGCPdSmY9YqjWet1ouqlQKC_m5]--></g></svg>