<?xml version="1.0" encoding="us-ascii" standalone="no"?><svg xmlns="http://www.w3.org/2000/svg" xmlns:xlink="http://www.w3.org/1999/xlink" contentStyleType="text/css" height="480px" preserveAspectRatio="none" style="width:264px;height:480px;background:#FFFFFF;" version="1.1" viewBox="0 0 264 480" width="264px" zoomAndPan="magnify"><defs/><g><!--class frc.robot.libraries.XboxController1038--><a href="XboxController1038.html" target="_top" title="XboxController1038.html" xlink:actuate="onRequest" xlink:href="XboxController1038.html" xlink:show="new" xlink:title="XboxController1038.html" xlink:type="simple"><g id="elem_frc.robot.libraries.XboxController1038"><rect codeLine="5" fill="#F1F1F1" height="241.3671" id="frc.robot.libraries.XboxController1038" rx="2.5" ry="2.5" style="stroke:#181818;stroke-width:0.5;" width="225" x="19.5" y="109.69"/><ellipse cx="62.4" cy="131.034" fill="#ADD1B2" rx="11" ry="11" style="stroke:#181818;stroke-width:1.0;"/><path d="M61.8688,137.9558 Q60.1188,137.9558 58.9781,137.2215 Q57.8531,136.4715 57.2906,135.1277 Q56.7438,133.7683 56.7438,131.9715 Q56.7438,129.9402 57.4,128.4871 Q58.0563,127.034 59.3375,126.2527 Q60.6188,125.4715 62.4938,125.4715 Q63.3844,125.4715 64.0563,125.659 Q64.7281,125.8308 65.4156,126.1746 L64.6031,128.1902 Q63.9781,127.8777 63.4313,127.7527 Q62.9,127.6277 62.4156,127.6277 Q61.2438,127.6277 60.5406,128.159 Q59.8375,128.6902 59.5406,129.6433 Q59.2438,130.5965 59.2438,131.8621 Q59.2438,133.8777 59.9625,134.8465 Q60.6813,135.7996 62.275,135.7996 Q62.8688,135.7996 63.4938,135.6433 Q64.1188,135.4871 64.9469,135.1121 L64.9469,137.3308 Q64.2125,137.6433 63.4156,137.7996 Q62.6344,137.9558 61.8688,137.9558 Z " fill="#000000"/><text fill="#000000" font-family="sans-serif" font-size="14" lengthAdjust="spacing" textLength="131" x="82.6" y="129.6559">XboxController1038</text><text fill="#000000" font-family="sans-serif" font-size="10" lengthAdjust="spacing" textLength="84" x="106.1" y="144.4479">frc.robot.libraries</text><line style="stroke:#181818;stroke-width:0.5;" x1="20.5" x2="243.5" y1="152.3779" y2="152.3779"/><ellipse cx="30.5" cy="167.4119" fill="#84BE84" rx="3" ry="3" style="stroke:#038048;stroke-width:1.0;"/><text fill="#000000" font-family="sans-serif" font-size="14" lengthAdjust="spacing" textLength="157" x="39.5" y="171.3438">XboxController1038(int)</text><ellipse cx="30.5" cy="186.4798" fill="#84BE84" rx="3" ry="3" style="stroke:#038048;stroke-width:1.0;"/><text fill="#000000" font-family="sans-serif" font-size="14" lengthAdjust="spacing" textLength="148" x="39.5" y="190.4118">getPOV(): PovPositions</text><ellipse cx="30.5" cy="205.5477" fill="#84BE84" rx="3" ry="3" style="stroke:#038048;stroke-width:1.0;"/><text fill="#000000" font-family="sans-serif" font-size="14" lengthAdjust="spacing" textLength="179" x="39.5" y="209.4797">deadband(double): double</text><ellipse cx="30.5" cy="224.6156" fill="#84BE84" rx="3" ry="3" style="stroke:#038048;stroke-width:1.0;"/><text fill="#000000" font-family="sans-serif" font-size="14" lengthAdjust="spacing" textLength="118" x="39.5" y="228.5476">getLeftY(): double</text><ellipse cx="30.5" cy="243.6835" fill="#84BE84" rx="3" ry="3" style="stroke:#038048;stroke-width:1.0;"/><text fill="#000000" font-family="sans-serif" font-size="14" lengthAdjust="spacing" textLength="118" x="39.5" y="247.6155">getLeftX(): double</text><ellipse cx="30.5" cy="262.7514" fill="#84BE84" rx="3" ry="3" style="stroke:#038048;stroke-width:1.0;"/><text fill="#000000" font-family="sans-serif" font-size="14" lengthAdjust="spacing" textLength="129" x="39.5" y="266.6834">getRightY(): double</text><ellipse cx="30.5" cy="281.8194" fill="#84BE84" rx="3" ry="3" style="stroke:#038048;stroke-width:1.0;"/><text fill="#000000" font-family="sans-serif" font-size="14" lengthAdjust="spacing" textLength="129" x="39.5" y="285.7513">getRightX(): double</text><ellipse cx="30.5" cy="300.8873" fill="#84BE84" rx="3" ry="3" style="stroke:#038048;stroke-width:1.0;"/><text fill="#000000" font-family="sans-serif" font-size="14" lengthAdjust="spacing" textLength="188" x="39.5" y="304.8193">setLeftRumble(double): void</text><ellipse cx="30.5" cy="319.9552" fill="#84BE84" rx="3" ry="3" style="stroke:#038048;stroke-width:1.0;"/><text fill="#000000" font-family="sans-serif" font-size="14" lengthAdjust="spacing" textLength="199" x="39.5" y="323.8872">setRightRumble(double): void</text><ellipse cx="30.5" cy="339.0231" fill="#84BE84" rx="3" ry="3" style="stroke:#038048;stroke-width:1.0;"/><text fill="#000000" font-family="sans-serif" font-size="14" lengthAdjust="spacing" textLength="163" x="39.5" y="342.9551">setRumble(double): void</text></g></a><!--class edu.wpi.first.wpilibj2.command.button.CommandXboxController--><g id="elem_edu.wpi.first.wpilibj2.command.button.CommandXboxController"><rect codeLine="18" fill="#F1F1F1" height="42.6879" id="edu.wpi.first.wpilibj2.command.button.CommandXboxController" rx="2.5" ry="2.5" style="stroke:#181818;stroke-width:0.5;" width="218" x="23" y="7"/><ellipse cx="38" cy="28.344" fill="#ADD1B2" rx="11" ry="11" style="stroke:#181818;stroke-width:1.0;"/><path d="M37.4688,35.2658 Q35.7188,35.2658 34.5781,34.5315 Q33.4531,33.7815 32.8906,32.4377 Q32.3438,31.0783 32.3438,29.2815 Q32.3438,27.2502 33,25.7971 Q33.6563,24.344 34.9375,23.5627 Q36.2188,22.7815 38.0938,22.7815 Q38.9844,22.7815 39.6563,22.969 Q40.3281,23.1408 41.0156,23.4846 L40.2031,25.5002 Q39.5781,25.1877 39.0313,25.0627 Q38.5,24.9377 38.0156,24.9377 Q36.8438,24.9377 36.1406,25.469 Q35.4375,26.0002 35.1406,26.9533 Q34.8438,27.9065 34.8438,29.1721 Q34.8438,31.1877 35.5625,32.1565 Q36.2813,33.1096 37.875,33.1096 Q38.4688,33.1096 39.0938,32.9533 Q39.7188,32.7971 40.5469,32.4221 L40.5469,34.6408 Q39.8125,34.9533 39.0156,35.1096 Q38.2344,35.2658 37.4688,35.2658 Z " fill="#000000"/><text fill="#000000" font-family="sans-serif" font-size="14" lengthAdjust="spacing" textLength="168" x="61" y="26.9659">CommandXboxController</text><text fill="#000000" font-family="sans-serif" font-size="10" lengthAdjust="spacing" textLength="186" x="52" y="41.7579">edu.wpi.first.wpilibj2.command.button</text></g><!--class frc.robot.libraries.XboxController1038.PovPositions--><a href="XboxController1038.PovPositions.html" target="_top" title="XboxController1038.PovPositions.html" xlink:actuate="onRequest" xlink:href="XboxController1038.PovPositions.html" xlink:show="new" xlink:title="XboxController1038.PovPositions.html" xlink:type="simple"><g id="elem_frc.robot.libraries.XboxController1038.PovPositions"><rect codeLine="19" fill="#F1F1F1" height="42.6879" id="frc.robot.libraries.XboxController1038.PovPositions" rx="2.5" ry="2.5" style="stroke:#181818;stroke-width:0.5;" width="250" x="7" y="411.05"/><ellipse cx="22" cy="432.394" fill="#EB937F" rx="11" ry="11" style="stroke:#181818;stroke-width:1.0;"/><path d="M18.3594,438.894 L18.3594,426.7533 L26.0156,426.7533 L26.0156,428.8783 L20.7344,428.8783 L20.7344,431.5346 L25.75,431.5346 L25.75,433.6596 L20.7344,433.6596 L20.7344,436.769 L26.0156,436.769 L26.0156,438.894 L18.3594,438.894 Z " fill="#000000"/><text fill="#000000" font-family="sans-serif" font-size="14" lengthAdjust="spacing" textLength="218" x="36" y="431.0159">XboxController1038.PovPositions</text><text fill="#000000" font-family="sans-serif" font-size="10" lengthAdjust="spacing" textLength="84" x="103" y="445.8079">frc.robot.libraries</text></g></a><!--reverse link edu.wpi.first.wpilibj2.command.button.CommandXboxController to frc.robot.libraries.XboxController1038--><g id="link_edu.wpi.first.wpilibj2.command.button.CommandXboxController_frc.robot.libraries.XboxController1038"><path codeLine="21" d="M132,67.99 C132,82.97 132,86.56 132,109.61 " fill="none" id="edu.wpi.first.wpilibj2.command.button.CommandXboxController-backto-frc.robot.libraries.XboxController1038" style="stroke:#181818;stroke-width:1.0;"/><polygon fill="none" points="132,49.99,126,67.99,138,67.99,132,49.99" style="stroke:#181818;stroke-width:1.0;"/></g><!--reverse link frc.robot.libraries.XboxController1038 to frc.robot.libraries.XboxController1038.PovPositions--><g id="link_frc.robot.libraries.XboxController1038_frc.robot.libraries.XboxController1038.PovPositions"><path codeLine="22" d="M132,367.48 C132,390.38 132,395.81 132,410.71 " fill="none" id="frc.robot.libraries.XboxController1038-backto-frc.robot.libraries.XboxController1038.PovPositions" style="stroke:#181818;stroke-width:1.0;"/><ellipse cx="132" cy="359.48" fill="#FFFFFF" rx="8" ry="8" style="stroke:#181818;stroke-width:1.0;"/><line style="stroke:#181818;stroke-width:1.0;" x1="132" x2="132" y1="367.48" y2="351.48"/><line style="stroke:#181818;stroke-width:1.0;" x1="124" x2="140" y1="359.48" y2="359.48"/></g><text fill="#888888" font-family="sans-serif" font-size="10" lengthAdjust="spacing" textLength="176" x="37" y="469.4279">UMLDoclet 2.1.2, PlantUML 1.2024.3</text><!--SRC=[hLJVQy8m47xVNt48WuepgDl34F75FJecZWs7yo5jhpOZoKcIkj__-s8hQDUw2LjU4hxlko_Nkqi102mwq5oXNV48Rt753NTaG9F64qz3Ac84L2lt2eb06Tllg4ANaeTpF9BSMcWCh7Z3VlTYE0lfPKJQ6P8IJRTpVlcejsHdc9Y86Gh9CIb2mur0sm1keGPdLIEOpwiWIvsIYmMyvzbiLgig2eHspPrWYMvoSnyq-p2XzOIiS8AqtV4nyZZaEWvYoaA9NbSSIWvZJDn3S9YR7U2cOfaU3Cp9saXRk4upvU5TOciISKcKE_okEYJuhE_gY9Jo1IbNTg-n66ViUILO8enrcvFlurEFHKKO2pFdIEUjFah9Qk_BCqETgH_7ZUttzDzch-HQFuZxYkrK5iNymoV3uAFTFZB5_AuZNrBhQ5TMUI8HQkSpIuWssztr-8eYwVyfFTPblJEOIAwTH-5qZSRwgA3v1G00]--></g></svg>