<?xml version="1.0" encoding="us-ascii" standalone="no"?><svg xmlns="http://www.w3.org/2000/svg" xmlns:xlink="http://www.w3.org/1999/xlink" contentStyleType="text/css" height="492px" preserveAspectRatio="none" style="width:363px;height:492px;background:#FFFFFF;" version="1.1" viewBox="0 0 363 492" width="363px" zoomAndPan="magnify"><defs/><g><!--class frc.robot.constants.AcquisitionConstants--><a href="AcquisitionConstants.html" target="_top" title="AcquisitionConstants.html" xlink:actuate="onRequest" xlink:href="AcquisitionConstants.html" xlink:show="new" xlink:title="AcquisitionConstants.html" xlink:type="simple"><g id="elem_frc.robot.constants.AcquisitionConstants"><rect codeLine="5" fill="#F1F1F1" height="355.7746" id="frc.robot.constants.AcquisitionConstants" rx="2.5" ry="2.5" style="stroke:#181818;stroke-width:0.5;" width="349" x="7" y="7"/><ellipse cx="106.25" cy="28.344" fill="#ADD1B2" rx="11" ry="11" style="stroke:#181818;stroke-width:1.0;"/><path d="M105.7188,35.2658 Q103.9688,35.2658 102.8281,34.5315 Q101.7031,33.7815 101.1406,32.4377 Q100.5938,31.0783 100.5938,29.2815 Q100.5938,27.2502 101.25,25.7971 Q101.9063,24.344 103.1875,23.5627 Q104.4688,22.7815 106.3438,22.7815 Q107.2344,22.7815 107.9063,22.969 Q108.5781,23.1408 109.2656,23.4846 L108.4531,25.5002 Q107.8281,25.1877 107.2813,25.0627 Q106.75,24.9377 106.2656,24.9377 Q105.0938,24.9377 104.3906,25.469 Q103.6875,26.0002 103.3906,26.9533 Q103.0938,27.9065 103.0938,29.1721 Q103.0938,31.1877 103.8125,32.1565 Q104.5313,33.1096 106.125,33.1096 Q106.7188,33.1096 107.3438,32.9533 Q107.9688,32.7971 108.7969,32.4221 L108.7969,34.6408 Q108.0625,34.9533 107.2656,35.1096 Q106.4844,35.2658 105.7188,35.2658 Z " fill="#000000"/><text fill="#000000" font-family="sans-serif" font-size="14" lengthAdjust="spacing" textLength="142" x="126.75" y="26.9659">AcquisitionConstants</text><text fill="#000000" font-family="sans-serif" font-size="10" lengthAdjust="spacing" textLength="91" x="152.25" y="41.7579">frc.robot.constants</text><line style="stroke:#181818;stroke-width:0.5;" x1="8" x2="355" y1="49.6879" y2="49.6879"/><ellipse cx="18" cy="64.7219" fill="none" rx="3" ry="3" style="stroke:#038048;stroke-width:1.0;"/><text fill="#000000" font-family="sans-serif" font-size="14" lengthAdjust="spacing" text-decoration="underline" textLength="180" x="27" y="68.6538">PIVOT_MOTOR_CAN_ID: int</text><ellipse cx="18" cy="83.7898" fill="none" rx="3" ry="3" style="stroke:#038048;stroke-width:1.0;"/><text fill="#000000" font-family="sans-serif" font-size="14" lengthAdjust="spacing" text-decoration="underline" textLength="190" x="27" y="87.7218">INTAKE_MOTOR_CAN_ID: int</text><ellipse cx="18" cy="102.8577" fill="none" rx="3" ry="3" style="stroke:#038048;stroke-width:1.0;"/><text fill="#000000" font-family="sans-serif" font-size="14" lengthAdjust="spacing" text-decoration="underline" textLength="109" x="27" y="106.7897">PIVOT_P: double</text><ellipse cx="18" cy="121.9256" fill="none" rx="3" ry="3" style="stroke:#038048;stroke-width:1.0;"/><text fill="#000000" font-family="sans-serif" font-size="14" lengthAdjust="spacing" text-decoration="underline" textLength="106" x="27" y="125.8576">PIVOT_I: double</text><ellipse cx="18" cy="140.9935" fill="none" rx="3" ry="3" style="stroke:#038048;stroke-width:1.0;"/><text fill="#000000" font-family="sans-serif" font-size="14" lengthAdjust="spacing" text-decoration="underline" textLength="111" x="27" y="144.9255">PIVOT_D: double</text><ellipse cx="18" cy="160.0614" fill="none" rx="3" ry="3" style="stroke:#038048;stroke-width:1.0;"/><text fill="#000000" font-family="sans-serif" font-size="14" lengthAdjust="spacing" text-decoration="underline" textLength="323" x="27" y="163.9934">PIVOT_ENCODER_CONVERSION_FACTOR: double</text><ellipse cx="18" cy="179.1294" fill="none" rx="3" ry="3" style="stroke:#038048;stroke-width:1.0;"/><text fill="#000000" font-family="sans-serif" font-size="14" lengthAdjust="spacing" text-decoration="underline" textLength="285" x="27" y="183.0613">PIVOT_ALLOWED_ERROR_DEGREES: double</text><ellipse cx="18" cy="198.1973" fill="none" rx="3" ry="3" style="stroke:#038048;stroke-width:1.0;"/><text fill="#000000" font-family="sans-serif" font-size="14" lengthAdjust="spacing" text-decoration="underline" textLength="266" x="27" y="202.1293">PIVOT_OPERATING_TOLERANCE: double</text><ellipse cx="18" cy="217.2652" fill="none" rx="3" ry="3" style="stroke:#038048;stroke-width:1.0;"/><text fill="#000000" font-family="sans-serif" font-size="14" lengthAdjust="spacing" text-decoration="underline" textLength="150" x="27" y="221.1972">PIVOT_POWER: double</text><ellipse cx="18" cy="236.3331" fill="none" rx="3" ry="3" style="stroke:#038048;stroke-width:1.0;"/><text fill="#000000" font-family="sans-serif" font-size="14" lengthAdjust="spacing" text-decoration="underline" textLength="310" x="27" y="240.2651">PIVOT_MAX_TRENCH_ANGLE_DEGREES: double</text><ellipse cx="18" cy="255.401" fill="none" rx="3" ry="3" style="stroke:#038048;stroke-width:1.0;"/><text fill="#000000" font-family="sans-serif" font-size="14" lengthAdjust="spacing" text-decoration="underline" textLength="181" x="27" y="259.333">PIVOT_MIN_ANGLE: double</text><ellipse cx="18" cy="274.4689" fill="none" rx="3" ry="3" style="stroke:#038048;stroke-width:1.0;"/><text fill="#000000" font-family="sans-serif" font-size="14" lengthAdjust="spacing" text-decoration="underline" textLength="182" x="27" y="278.4009">PIVOT_MAX_ANGLE: double</text><ellipse cx="18" cy="293.5369" fill="none" rx="3" ry="3" style="stroke:#038048;stroke-width:1.0;"/><text fill="#000000" font-family="sans-serif" font-size="14" lengthAdjust="spacing" text-decoration="underline" textLength="189" x="27" y="297.4688">PIVOT_MIN_WIGGLE: double</text><ellipse cx="18" cy="312.6048" fill="none" rx="3" ry="3" style="stroke:#038048;stroke-width:1.0;"/><text fill="#000000" font-family="sans-serif" font-size="14" lengthAdjust="spacing" text-decoration="underline" textLength="190" x="27" y="316.5368">PIVOT_MAX_WIGGLE: double</text><ellipse cx="18" cy="331.6727" fill="none" rx="3" ry="3" style="stroke:#038048;stroke-width:1.0;"/><text fill="#000000" font-family="sans-serif" font-size="14" lengthAdjust="spacing" text-decoration="underline" textLength="261" x="27" y="335.6047">INTAKE_ACQUIRE_DUTY_CYCLE: double</text><ellipse cx="18" cy="350.7406" fill="none" rx="3" ry="3" style="stroke:#038048;stroke-width:1.0;"/><text fill="#000000" font-family="sans-serif" font-size="14" lengthAdjust="spacing" text-decoration="underline" textLength="258" x="27" y="354.6726">INTAKE_DISPOSE_DUTY_CYCLE: double</text></g></a><!--class frc.robot.constants.AcquisitionConstants.AcquisitionSetpoint--><a href="AcquisitionConstants.AcquisitionSetpoint.html" target="_top" title="AcquisitionConstants.AcquisitionSetpoint.html" xlink:actuate="onRequest" xlink:href="AcquisitionConstants.AcquisitionSetpoint.html" xlink:show="new" xlink:title="AcquisitionConstants.AcquisitionSetpoint.html" xlink:type="simple"><g id="elem_frc.robot.constants.AcquisitionConstants.AcquisitionSetpoint"><rect codeLine="23" fill="#F1F1F1" height="42.6879" id="frc.robot.constants.AcquisitionConstants.AcquisitionSetpoint" rx="2.5" ry="2.5" style="stroke:#181818;stroke-width:0.5;" width="309" x="27" y="422.77"/><ellipse cx="42" cy="444.114" fill="#EB937F" rx="11" ry="11" style="stroke:#181818;stroke-width:1.0;"/><path d="M38.3594,450.614 L38.3594,438.4733 L46.0156,438.4733 L46.0156,440.5983 L40.7344,440.5983 L40.7344,443.2546 L45.75,443.2546 L45.75,445.3796 L40.7344,445.3796 L40.7344,448.489 L46.0156,448.489 L46.0156,450.614 L38.3594,450.614 Z " fill="#000000"/><text fill="#000000" font-family="sans-serif" font-size="14" lengthAdjust="spacing" textLength="277" x="56" y="442.7359">AcquisitionConstants.AcquisitionSetpoint</text><text fill="#000000" font-family="sans-serif" font-size="10" lengthAdjust="spacing" textLength="91" x="149" y="457.5279">frc.robot.constants</text></g></a><!--reverse link frc.robot.constants.AcquisitionConstants to frc.robot.constants.AcquisitionConstants.AcquisitionSetpoint--><g id="link_frc.robot.constants.AcquisitionConstants_frc.robot.constants.AcquisitionConstants.AcquisitionSetpoint"><path codeLine="25" d="M181.5,379.14 C181.5,402.81 181.5,407.9 181.5,422.47 " fill="none" id="frc.robot.constants.AcquisitionConstants-backto-frc.robot.constants.AcquisitionConstants.AcquisitionSetpoint" style="stroke:#181818;stroke-width:1.0;"/><ellipse cx="181.5" cy="371.14" fill="#FFFFFF" rx="8" ry="8" style="stroke:#181818;stroke-width:1.0;"/><line style="stroke:#181818;stroke-width:1.0;" x1="181.5" x2="181.5" y1="379.14" y2="363.14"/><line style="stroke:#181818;stroke-width:1.0;" x1="173.5" x2="189.5" y1="371.14" y2="371.14"/></g><text fill="#888888" font-family="sans-serif" font-size="10" lengthAdjust="spacing" textLength="176" x="86.5" y="481.1479">UMLDoclet 2.1.2, PlantUML 1.2024.3</text><!--SRC=[hLJHIiCm57ttAou3GPahEdmQ8eGspc2RrBPp3fLGkumLsgGscQ33VpTk4qGwMj0-jENSSsxEXPmB0A250PcMGbTf9c9HfNLgL0rIIN5Wox3Cvm94MPatMEIYcElVQ2dCKbbuWsT5gZNqBdJ-BaPdvvSeUrdbEZUvagwIsgJIw4UvAvzUBkhCgTMpCaxsNUr1gg41TvfQmSD34-miJLayFS5wu-dhMTk2oRCFw8VaZYKyO0cBk8ie9zu8ScaQc8Gcw0PtecwRXYEOgzLp8VOoI2l3QsLWwZ8FMqUCtk4e9epoA-HQZwrAvFjiYZsEeyXEvE5nX77Sgc8XZb12w9WdpBU_rCMjcj2Uq-udGFSyYUmyrnpHiOyxMme8tIew7T6HQNjEoRXhqrRgxlOWztP28ZlQ99bnT-PsqNWa3bcyL_EnUGkvAbk2zZCoiJ2LifVt7yFNr7vV81kekv1kzqRdmFS7WpyPt6uf8OseOQ7KrsSI-9xA2hi7XywPCpo1iB1gYyBXgwYr5HyTVm80]--></g></svg>