<?xml version="1.0" encoding="us-ascii" standalone="no"?><svg xmlns="http://www.w3.org/2000/svg" xmlns:xlink="http://www.w3.org/1999/xlink" contentStyleType="text/css" height="291px" preserveAspectRatio="none" style="width:323px;height:291px;background:#FFFFFF;" version="1.1" viewBox="0 0 323 291" width="323px" zoomAndPan="magnify"><defs/><g><!--class frc.robot.constants.AcquisitionConstants.AcquisitionSetpoint--><a href="AcquisitionConstants.AcquisitionSetpoint.html" target="_top" title="AcquisitionConstants.AcquisitionSetpoint.html" xlink:actuate="onRequest" xlink:href="AcquisitionConstants.AcquisitionSetpoint.html" xlink:show="new" xlink:title="AcquisitionConstants.AcquisitionSetpoint.html" xlink:type="simple"><g id="elem_frc.robot.constants.AcquisitionConstants.AcquisitionSetpoint"><rect codeLine="5" fill="#F1F1F1" height="154.0275" id="frc.robot.constants.AcquisitionConstants.AcquisitionSetpoint" rx="2.5" ry="2.5" style="stroke:#181818;stroke-width:0.5;" width="309" x="7" y="109.69"/><ellipse cx="22" cy="131.034" fill="#EB937F" rx="11" ry="11" style="stroke:#181818;stroke-width:1.0;"/><path d="M18.3594,137.534 L18.3594,125.3933 L26.0156,125.3933 L26.0156,127.5183 L20.7344,127.5183 L20.7344,130.1746 L25.75,130.1746 L25.75,132.2996 L20.7344,132.2996 L20.7344,135.409 L26.0156,135.409 L26.0156,137.534 L18.3594,137.534 Z " fill="#000000"/><text fill="#000000" font-family="sans-serif" font-size="14" lengthAdjust="spacing" textLength="277" x="36" y="129.6559">AcquisitionConstants.AcquisitionSetpoint</text><text fill="#000000" font-family="sans-serif" font-size="10" lengthAdjust="spacing" textLength="91" x="129" y="144.4479">frc.robot.constants</text><line style="stroke:#181818;stroke-width:0.5;" x1="8" x2="315" y1="152.3779" y2="152.3779"/><ellipse cx="18" cy="167.4119" fill="none" rx="3" ry="3" style="stroke:#038048;stroke-width:1.0;"/><text fill="#000000" font-family="sans-serif" font-size="14" lengthAdjust="spacing" text-decoration="underline" textLength="49" x="27" y="171.3438">RAISED</text><ellipse cx="18" cy="186.4798" fill="none" rx="3" ry="3" style="stroke:#038048;stroke-width:1.0;"/><text fill="#000000" font-family="sans-serif" font-size="14" lengthAdjust="spacing" text-decoration="underline" textLength="76" x="27" y="190.4118">LOW_RAISE</text><ellipse cx="18" cy="205.5477" fill="none" rx="3" ry="3" style="stroke:#038048;stroke-width:1.0;"/><text fill="#000000" font-family="sans-serif" font-size="14" lengthAdjust="spacing" text-decoration="underline" textLength="80" x="27" y="209.4797">HIGH_RAISE</text><ellipse cx="18" cy="224.6156" fill="none" rx="3" ry="3" style="stroke:#038048;stroke-width:1.0;"/><text fill="#000000" font-family="sans-serif" font-size="14" lengthAdjust="spacing" text-decoration="underline" textLength="66" x="27" y="228.5476">LOWERED</text><line style="stroke:#181818;stroke-width:0.5;" x1="8" x2="315" y1="236.6496" y2="236.6496"/><ellipse cx="18" cy="251.6835" fill="#84BE84" rx="3" ry="3" style="stroke:#038048;stroke-width:1.0;"/><text fill="#000000" font-family="sans-serif" font-size="14" lengthAdjust="spacing" textLength="141" x="27" y="255.6155">getDegrees(): double</text></g></a><!--class frc.robot.constants.AcquisitionConstants--><a href="AcquisitionConstants.html" target="_top" title="AcquisitionConstants.html" xlink:actuate="onRequest" xlink:href="AcquisitionConstants.html" xlink:show="new" xlink:title="AcquisitionConstants.html" xlink:type="simple"><g id="elem_frc.robot.constants.AcquisitionConstants"><rect codeLine="13" fill="#F1F1F1" height="42.6879" id="frc.robot.constants.AcquisitionConstants" rx="2.5" ry="2.5" style="stroke:#181818;stroke-width:0.5;" width="174" x="74.5" y="7"/><ellipse cx="89.5" cy="28.344" fill="#ADD1B2" rx="11" ry="11" style="stroke:#181818;stroke-width:1.0;"/><path d="M88.9688,35.2658 Q87.2188,35.2658 86.0781,34.5315 Q84.9531,33.7815 84.3906,32.4377 Q83.8438,31.0783 83.8438,29.2815 Q83.8438,27.2502 84.5,25.7971 Q85.1563,24.344 86.4375,23.5627 Q87.7188,22.7815 89.5938,22.7815 Q90.4844,22.7815 91.1563,22.969 Q91.8281,23.1408 92.5156,23.4846 L91.7031,25.5002 Q91.0781,25.1877 90.5313,25.0627 Q90,24.9377 89.5156,24.9377 Q88.3438,24.9377 87.6406,25.469 Q86.9375,26.0002 86.6406,26.9533 Q86.3438,27.9065 86.3438,29.1721 Q86.3438,31.1877 87.0625,32.1565 Q87.7813,33.1096 89.375,33.1096 Q89.9688,33.1096 90.5938,32.9533 Q91.2188,32.7971 92.0469,32.4221 L92.0469,34.6408 Q91.3125,34.9533 90.5156,35.1096 Q89.7344,35.2658 88.9688,35.2658 Z " fill="#000000"/><text fill="#000000" font-family="sans-serif" font-size="14" lengthAdjust="spacing" textLength="142" x="103.5" y="26.9659">AcquisitionConstants</text><text fill="#000000" font-family="sans-serif" font-size="10" lengthAdjust="spacing" textLength="91" x="129" y="41.7579">frc.robot.constants</text></g></a><!--reverse link frc.robot.constants.AcquisitionConstants to frc.robot.constants.AcquisitionConstants.AcquisitionSetpoint--><g id="link_frc.robot.constants.AcquisitionConstants_frc.robot.constants.AcquisitionConstants.AcquisitionSetpoint"><path codeLine="15" d="M161.5,66.11 C161.5,81.48 161.5,87.44 161.5,109.23 " fill="none" id="frc.robot.constants.AcquisitionConstants-backto-frc.robot.constants.AcquisitionConstants.AcquisitionSetpoint" style="stroke:#181818;stroke-width:1.0;"/><ellipse cx="161.5" cy="58.11" fill="#FFFFFF" rx="8" ry="8" style="stroke:#181818;stroke-width:1.0;"/><line style="stroke:#181818;stroke-width:1.0;" x1="161.5" x2="161.5" y1="66.11" y2="50.11"/><line style="stroke:#181818;stroke-width:1.0;" x1="153.5" x2="169.5" y1="58.11" y2="58.11"/></g><text fill="#888888" font-family="sans-serif" font-size="10" lengthAdjust="spacing" textLength="176" x="66.5" y="280.4075">UMLDoclet 2.1.2, PlantUML 1.2024.3</text><!--SRC=[hPBHIyCm4CRV_IkEWR1H5zpmQSXWsE464sL5V9X3ilIw1jgavgw2ZltlPgt2a0uBcfV0xxllk7mN00121YDpf48gZB2GJh9rOAp1Coz3gcC4p0j-XqHZ5jDFcYEdrkEAeobpw5oJ_i3Hu6eyKQ-b9itQcXjhYALX4aSmGYwiDlnilYoNuyGfuUp6ib3VZWv8WWOkshQ7rQfjgKWvpzPhs5NFEPoTBsQjzX0i9_De6ZO8Y_kdbqfiq6Rpszb9qHkdowEMmHOvnAr3f6vl1B4jDrczXdsThyeaqIy1_sEOfuAhGwf7QjqhwFV_jCKw03IC3X9h3zVZtIAqAlDVU2W6OdW13vbtUmhdR-Z8cxkzJm00]--></g></svg>