<?xml version="1.0" encoding="us-ascii" standalone="no"?><svg xmlns="http://www.w3.org/2000/svg" xmlns:xlink="http://www.w3.org/1999/xlink" contentStyleType="text/css" height="315px" preserveAspectRatio="none" style="width:483px;height:315px;background:#FFFFFF;" version="1.1" viewBox="0 0 483 315" width="483px" zoomAndPan="magnify"><defs/><g><!--class frc.robot.constants.AutoConstants--><a href="AutoConstants.html" target="_top" title="AutoConstants.html" xlink:actuate="onRequest" xlink:href="AutoConstants.html" xlink:show="new" xlink:title="AutoConstants.html" xlink:type="simple"><g id="elem_frc.robot.constants.AutoConstants"><rect codeLine="5" fill="#F1F1F1" height="279.5029" id="frc.robot.constants.AutoConstants" rx="2.5" ry="2.5" style="stroke:#181818;stroke-width:0.5;" width="462" x="7" y="7"/><ellipse cx="184.75" cy="28.344" fill="#ADD1B2" rx="11" ry="11" style="stroke:#181818;stroke-width:1.0;"/><path d="M184.2188,35.2658 Q182.4688,35.2658 181.3281,34.5315 Q180.2031,33.7815 179.6406,32.4377 Q179.0938,31.0783 179.0938,29.2815 Q179.0938,27.2502 179.75,25.7971 Q180.4063,24.344 181.6875,23.5627 Q182.9688,22.7815 184.8438,22.7815 Q185.7344,22.7815 186.4063,22.969 Q187.0781,23.1408 187.7656,23.4846 L186.9531,25.5002 Q186.3281,25.1877 185.7813,25.0627 Q185.25,24.9377 184.7656,24.9377 Q183.5938,24.9377 182.8906,25.469 Q182.1875,26.0002 181.8906,26.9533 Q181.5938,27.9065 181.5938,29.1721 Q181.5938,31.1877 182.3125,32.1565 Q183.0313,33.1096 184.625,33.1096 Q185.2188,33.1096 185.8438,32.9533 Q186.4688,32.7971 187.2969,32.4221 L187.2969,34.6408 Q186.5625,34.9533 185.7656,35.1096 Q184.9844,35.2658 184.2188,35.2658 Z " fill="#000000"/><text fill="#000000" font-family="sans-serif" font-size="14" lengthAdjust="spacing" textLength="98" x="205.25" y="26.9659">AutoConstants</text><text fill="#000000" font-family="sans-serif" font-size="10" lengthAdjust="spacing" textLength="91" x="208.75" y="41.7579">frc.robot.constants</text><line style="stroke:#181818;stroke-width:0.5;" x1="8" x2="468" y1="49.6879" y2="49.6879"/><ellipse cx="18" cy="64.7219" fill="none" rx="3" ry="3" style="stroke:#038048;stroke-width:1.0;"/><text fill="#000000" font-family="sans-serif" font-size="14" lengthAdjust="spacing" text-decoration="underline" textLength="419" x="27" y="68.6538">MAX_ACCELERATION_METERS_PER_SECOND_SQUARED: double</text><ellipse cx="18" cy="83.7898" fill="none" rx="3" ry="3" style="stroke:#038048;stroke-width:1.0;"/><text fill="#000000" font-family="sans-serif" font-size="14" lengthAdjust="spacing" text-decoration="underline" textLength="133" x="27" y="87.7218">MAX_SPEED: double</text><ellipse cx="18" cy="102.8577" fill="none" rx="3" ry="3" style="stroke:#038048;stroke-width:1.0;"/><text fill="#000000" font-family="sans-serif" font-size="14" lengthAdjust="spacing" text-decoration="underline" textLength="365" x="27" y="106.7897">MAX_ANGULAR_SPEED_RADIANS_PER_SECOND: double</text><ellipse cx="18" cy="121.9256" fill="none" rx="3" ry="3" style="stroke:#038048;stroke-width:1.0;"/><text fill="#000000" font-family="sans-serif" font-size="14" lengthAdjust="spacing" text-decoration="underline" textLength="436" x="27" y="125.8576">MAX_ANGULAR_SPEED_RADIANS_PER_SECOND_SQUARED: double</text><ellipse cx="18" cy="140.9935" fill="none" rx="3" ry="3" style="stroke:#038048;stroke-width:1.0;"/><text fill="#000000" font-family="sans-serif" font-size="14" lengthAdjust="spacing" text-decoration="underline" textLength="173" x="27" y="144.9255">P_X_CONTROLLER: double</text><ellipse cx="18" cy="160.0614" fill="none" rx="3" ry="3" style="stroke:#038048;stroke-width:1.0;"/><text fill="#000000" font-family="sans-serif" font-size="14" lengthAdjust="spacing" text-decoration="underline" textLength="170" x="27" y="163.9934">I_X_CONTROLLER: double</text><ellipse cx="18" cy="179.1294" fill="none" rx="3" ry="3" style="stroke:#038048;stroke-width:1.0;"/><text fill="#000000" font-family="sans-serif" font-size="14" lengthAdjust="spacing" text-decoration="underline" textLength="161" x="27" y="183.0613">D_CONTROLLER: double</text><ellipse cx="18" cy="198.1973" fill="none" rx="3" ry="3" style="stroke:#038048;stroke-width:1.0;"/><text fill="#000000" font-family="sans-serif" font-size="14" lengthAdjust="spacing" text-decoration="underline" textLength="208" x="27" y="202.1293">P_THETA_CONTROLLER: double</text><ellipse cx="18" cy="217.2652" fill="none" rx="3" ry="3" style="stroke:#038048;stroke-width:1.0;"/><text fill="#000000" font-family="sans-serif" font-size="14" lengthAdjust="spacing" text-decoration="underline" textLength="205" x="27" y="221.1972">I_THETA_CONTROLLER: double</text><ellipse cx="18" cy="236.3331" fill="none" rx="3" ry="3" style="stroke:#038048;stroke-width:1.0;"/><text fill="#000000" font-family="sans-serif" font-size="14" lengthAdjust="spacing" text-decoration="underline" textLength="210" x="27" y="240.2651">D_THETA_CONTROLLER: double</text><ellipse cx="18" cy="255.401" fill="none" rx="3" ry="3" style="stroke:#038048;stroke-width:1.0;"/><text fill="#000000" font-family="sans-serif" font-size="14" lengthAdjust="spacing" text-decoration="underline" textLength="327" x="27" y="259.333">THETA_CONTROLLER_CONSTRAINTS: Constraints</text><ellipse cx="18" cy="274.4689" fill="none" rx="3" ry="3" style="stroke:#038048;stroke-width:1.0;"/><text fill="#000000" font-family="sans-serif" font-size="14" lengthAdjust="spacing" text-decoration="underline" textLength="272" x="27" y="278.4009">ROBOT_CONFIG: Optional&lt;RobotConfig&gt;</text></g></a><text fill="#888888" font-family="sans-serif" font-size="10" lengthAdjust="spacing" textLength="176" x="149.5" y="304.1929">UMLDoclet 2.1.2, PlantUML 1.2024.3</text><!--SRC=[fPDHIyCm58NV_HMNWQ0enGsVYWnY6sUXQslQmM2Ea7MfAxH9QJ91n_wxQQVWnjGE-vBctE_Scy09083Y6WGhkQfOocDUiPffMOEGWf-PCgpo9GTULleDifmNItMebbolf95RFIsOKj2xK_axj_ktGxJMqf52QIQqUXQV-iqmgrEhbWkfhVIhsWEcu8XkxVM0sMnlRwrqMSpdi6d7Dz_657IURk5gZAOKEGxsCK695mPqZ1DCOXfXGcFiX85BuwS98jYrOIdNYuB_q2IEy9yC2aOJ7v4TImboFHHy7_LFUuUJHdHA3PgGq3St_WNqke9kDooYoIDEKDVX9y3kAV0Xslp62K5UaCGsj8cfMMuoSyHBmlimQGmFtiY6iDAv5Aou8qqKZJFBNuQjQxjBEHUQrv19sIoJiU_Aj33lQ63rhS4rH8L9fb7X_9NNodIwkFm0]--></g></svg>