<?xml version="1.0" encoding="us-ascii" standalone="no"?><svg xmlns="http://www.w3.org/2000/svg" xmlns:xlink="http://www.w3.org/1999/xlink" contentStyleType="text/css" height="361px" preserveAspectRatio="none" style="width:325px;height:361px;background:#FFFFFF;" version="1.1" viewBox="0 0 325 361" width="325px" zoomAndPan="magnify"><defs/><g><!--class frc.robot.constants.DashboardConstants--><a href="DashboardConstants.html" target="_top" title="DashboardConstants.html" xlink:actuate="onRequest" xlink:href="DashboardConstants.html" xlink:show="new" xlink:title="DashboardConstants.html" xlink:type="simple"><g id="elem_frc.robot.constants.DashboardConstants"><rect codeLine="5" fill="#F1F1F1" height="325.6387" id="frc.robot.constants.DashboardConstants" rx="2.5" ry="2.5" style="stroke:#181818;stroke-width:0.5;" width="304" x="7" y="7"/><ellipse cx="84.25" cy="28.344" fill="#ADD1B2" rx="11" ry="11" style="stroke:#181818;stroke-width:1.0;"/><path d="M83.7188,35.2658 Q81.9688,35.2658 80.8281,34.5315 Q79.7031,33.7815 79.1406,32.4377 Q78.5938,31.0783 78.5938,29.2815 Q78.5938,27.2502 79.25,25.7971 Q79.9063,24.344 81.1875,23.5627 Q82.4688,22.7815 84.3438,22.7815 Q85.2344,22.7815 85.9063,22.969 Q86.5781,23.1408 87.2656,23.4846 L86.4531,25.5002 Q85.8281,25.1877 85.2813,25.0627 Q84.75,24.9377 84.2656,24.9377 Q83.0938,24.9377 82.3906,25.469 Q81.6875,26.0002 81.3906,26.9533 Q81.0938,27.9065 81.0938,29.1721 Q81.0938,31.1877 81.8125,32.1565 Q82.5313,33.1096 84.125,33.1096 Q84.7188,33.1096 85.3438,32.9533 Q85.9688,32.7971 86.7969,32.4221 L86.7969,34.6408 Q86.0625,34.9533 85.2656,35.1096 Q84.4844,35.2658 83.7188,35.2658 Z " fill="#000000"/><text fill="#000000" font-family="sans-serif" font-size="14" lengthAdjust="spacing" textLength="141" x="104.75" y="26.9659">DashboardConstants</text><text fill="#000000" font-family="sans-serif" font-size="10" lengthAdjust="spacing" textLength="91" x="129.75" y="41.7579">frc.robot.constants</text><line style="stroke:#181818;stroke-width:0.5;" x1="8" x2="310" y1="49.6879" y2="49.6879"/><ellipse cx="18" cy="64.7219" fill="none" rx="3" ry="3" style="stroke:#038048;stroke-width:1.0;"/><text fill="#000000" font-family="sans-serif" font-size="14" lengthAdjust="spacing" text-decoration="underline" textLength="164" x="27" y="68.6538">AUTON_CHOICES: String</text><ellipse cx="18" cy="83.7898" fill="none" rx="3" ry="3" style="stroke:#038048;stroke-width:1.0;"/><text fill="#000000" font-family="sans-serif" font-size="14" lengthAdjust="spacing" text-decoration="underline" textLength="157" x="27" y="87.7218">DELAY_CHOICES: String</text><ellipse cx="18" cy="102.8577" fill="none" rx="3" ry="3" style="stroke:#038048;stroke-width:1.0;"/><text fill="#000000" font-family="sans-serif" font-size="14" lengthAdjust="spacing" text-decoration="underline" textLength="111" x="27" y="106.7897">ROBOT_X: String</text><ellipse cx="18" cy="121.9256" fill="none" rx="3" ry="3" style="stroke:#038048;stroke-width:1.0;"/><text fill="#000000" font-family="sans-serif" font-size="14" lengthAdjust="spacing" text-decoration="underline" textLength="111" x="27" y="125.8576">ROBOT_Y: String</text><ellipse cx="18" cy="140.9935" fill="none" rx="3" ry="3" style="stroke:#038048;stroke-width:1.0;"/><text fill="#000000" font-family="sans-serif" font-size="14" lengthAdjust="spacing" text-decoration="underline" textLength="131" x="27" y="144.9255">ROBOT_ROT: String</text><ellipse cx="18" cy="160.0614" fill="none" rx="3" ry="3" style="stroke:#038048;stroke-width:1.0;"/><text fill="#000000" font-family="sans-serif" font-size="14" lengthAdjust="spacing" text-decoration="underline" textLength="144" x="27" y="163.9934">HUB_ALIGNED: String</text><ellipse cx="18" cy="179.1294" fill="none" rx="3" ry="3" style="stroke:#038048;stroke-width:1.0;"/><text fill="#000000" font-family="sans-serif" font-size="14" lengthAdjust="spacing" text-decoration="underline" textLength="224" x="27" y="183.0613">MANUAL_MODE_ENABLED: String</text><ellipse cx="18" cy="198.1973" fill="none" rx="3" ry="3" style="stroke:#038048;stroke-width:1.0;"/><text fill="#000000" font-family="sans-serif" font-size="14" lengthAdjust="spacing" text-decoration="underline" textLength="215" x="27" y="202.1293">MANUAL_SHOOTER_RPM: String</text><ellipse cx="18" cy="217.2652" fill="none" rx="3" ry="3" style="stroke:#038048;stroke-width:1.0;"/><text fill="#000000" font-family="sans-serif" font-size="14" lengthAdjust="spacing" text-decoration="underline" textLength="278" x="27" y="221.1972">MANUAL_SHOOTER_HOOD_ANGLE: String</text><ellipse cx="18" cy="236.3331" fill="none" rx="3" ry="3" style="stroke:#038048;stroke-width:1.0;"/><text fill="#000000" font-family="sans-serif" font-size="14" lengthAdjust="spacing" text-decoration="underline" textLength="235" x="27" y="240.2651">ACQUISITION_MIN_WIGGLE: String</text><ellipse cx="18" cy="255.401" fill="none" rx="3" ry="3" style="stroke:#038048;stroke-width:1.0;"/><text fill="#000000" font-family="sans-serif" font-size="14" lengthAdjust="spacing" text-decoration="underline" textLength="236" x="27" y="259.333">ACQUISITION_MAX_WIGGLE: String</text><ellipse cx="18" cy="274.4689" fill="none" rx="3" ry="3" style="stroke:#038048;stroke-width:1.0;"/><text fill="#000000" font-family="sans-serif" font-size="14" lengthAdjust="spacing" text-decoration="underline" textLength="245" x="27" y="278.4009">ENABLE_ACQUISITION_PIVOT: String</text><line style="stroke:#181818;stroke-width:0.5;" x1="8" x2="310" y1="286.5029" y2="286.5029"/><ellipse cx="18" cy="301.5369" fill="#84BE84" rx="3" ry="3" style="stroke:#038048;stroke-width:1.0;"/><text fill="#000000" font-family="sans-serif" font-size="14" lengthAdjust="spacing" text-decoration="underline" textLength="216" x="27" y="305.4688">shooterSlopeKey(double): String</text><ellipse cx="18" cy="320.6048" fill="#84BE84" rx="3" ry="3" style="stroke:#038048;stroke-width:1.0;"/><text fill="#000000" font-family="sans-serif" font-size="14" lengthAdjust="spacing" text-decoration="underline" textLength="249" x="27" y="324.5368">shooterYInterceptKey(double): String</text></g></a><text fill="#888888" font-family="sans-serif" font-size="10" lengthAdjust="spacing" textLength="176" x="70.5" y="350.3287">UMLDoclet 2.1.2, PlantUML 1.2024.3</text><!--SRC=[bPDTQy8m58RlzoiEma3PA5Ds9KE8jcXOFrm_DiL9YFMu5cfIccomYVzzKJSOqwdBHGBl-xo7v7020A1GW-1BL2LFCSAILrpB2eGKU65ioF8v0YvB_GwB78kv-gqkKMVIo5izBRXIKBjJ-GUscxSTcwji9darxqcXD1TQFOilywQpg5AhaZEfhVJRhG5NS42tzWl1PB8lMfbU5jCfhBQtsQoLCNIUhk6A977WizuWe3qdQaEagroy7E1inoNZCxWmw0On6vqanYU9C8YFC8EaouXB-xvZ7w4yuYV4PLvWEypnITSzXuu6GH0x8Gk7tlcmEMn6_Bxh7CcGtaD28nfJqtAF-ko9zlyH8AFJWTqZsS_Sa3uUxQJAfDHOHOKiyHxVwtFvEYkmSJenfiBiAPRwhzXwD_wuuM2n3K7YkRPC2_F1MbRJQbt3i30pQbIuVCDAvLBK6vy0]--></g></svg>