<?xml version="1.0" encoding="us-ascii" standalone="no"?><svg xmlns="http://www.w3.org/2000/svg" xmlns:xlink="http://www.w3.org/1999/xlink" contentStyleType="text/css" height="590px" preserveAspectRatio="none" style="width:414px;height:590px;background:#FFFFFF;" version="1.1" viewBox="0 0 414 590" width="414px" zoomAndPan="magnify"><defs/><g><!--class frc.robot.constants.FieldConstants--><a href="FieldConstants.html" target="_top" title="FieldConstants.html" xlink:actuate="onRequest" xlink:href="FieldConstants.html" xlink:show="new" xlink:title="FieldConstants.html" xlink:type="simple"><g id="elem_frc.robot.constants.FieldConstants"><rect codeLine="5" fill="#F1F1F1" height="554.4537" id="frc.robot.constants.FieldConstants" rx="2.5" ry="2.5" style="stroke:#181818;stroke-width:0.5;" width="393" x="7" y="7"/><ellipse cx="149.75" cy="28.344" fill="#ADD1B2" rx="11" ry="11" style="stroke:#181818;stroke-width:1.0;"/><path d="M149.2188,35.2658 Q147.4688,35.2658 146.3281,34.5315 Q145.2031,33.7815 144.6406,32.4377 Q144.0938,31.0783 144.0938,29.2815 Q144.0938,27.2502 144.75,25.7971 Q145.4063,24.344 146.6875,23.5627 Q147.9688,22.7815 149.8438,22.7815 Q150.7344,22.7815 151.4063,22.969 Q152.0781,23.1408 152.7656,23.4846 L151.9531,25.5002 Q151.3281,25.1877 150.7813,25.0627 Q150.25,24.9377 149.7656,24.9377 Q148.5938,24.9377 147.8906,25.469 Q147.1875,26.0002 146.8906,26.9533 Q146.5938,27.9065 146.5938,29.1721 Q146.5938,31.1877 147.3125,32.1565 Q148.0313,33.1096 149.625,33.1096 Q150.2188,33.1096 150.8438,32.9533 Q151.4688,32.7971 152.2969,32.4221 L152.2969,34.6408 Q151.5625,34.9533 150.7656,35.1096 Q149.9844,35.2658 149.2188,35.2658 Z " fill="#000000"/><text fill="#000000" font-family="sans-serif" font-size="14" lengthAdjust="spacing" textLength="99" x="170.25" y="26.9659">FieldConstants</text><text fill="#000000" font-family="sans-serif" font-size="10" lengthAdjust="spacing" textLength="91" x="174.25" y="41.7579">frc.robot.constants</text><line style="stroke:#181818;stroke-width:0.5;" x1="8" x2="399" y1="49.6879" y2="49.6879"/><rect fill="none" height="6" style="stroke:#C82930;stroke-width:1.0;" width="6" x="15" y="61.7219"/><text fill="#000000" font-family="sans-serif" font-size="14" lengthAdjust="spacing" text-decoration="underline" textLength="367" x="27" y="68.6538">HUB_EDGE_DISTANCE_FROM_DRIVER_STATION: double</text><rect fill="none" height="6" style="stroke:#C82930;stroke-width:1.0;" width="6" x="15" y="80.7898"/><text fill="#000000" font-family="sans-serif" font-size="14" lengthAdjust="spacing" text-decoration="underline" textLength="144" x="27" y="87.7218">HUB_LENGTH: double</text><rect fill="none" height="6" style="stroke:#C82930;stroke-width:1.0;" width="6" x="15" y="99.8577"/><text fill="#000000" font-family="sans-serif" font-size="14" lengthAdjust="spacing" text-decoration="underline" textLength="157" x="27" y="106.7897">HUB_CENTER_X: double</text><rect fill="none" height="6" style="stroke:#C82930;stroke-width:1.0;" width="6" x="15" y="118.9256"/><text fill="#000000" font-family="sans-serif" font-size="14" lengthAdjust="spacing" text-decoration="underline" textLength="157" x="27" y="125.8576">HUB_CENTER_Y: double</text><ellipse cx="18" cy="140.9935" fill="none" rx="3" ry="3" style="stroke:#038048;stroke-width:1.0;"/><text fill="#000000" font-family="sans-serif" font-size="14" lengthAdjust="spacing" text-decoration="underline" textLength="203" x="27" y="144.9255">HUB_POSITION: Translation2d</text><rect fill="none" height="6" style="stroke:#C82930;stroke-width:1.0;" width="6" x="15" y="157.0614"/><text fill="#000000" font-family="sans-serif" font-size="14" lengthAdjust="spacing" text-decoration="underline" textLength="147" x="27" y="163.9934">BUMP_WIDTH: double</text><rect fill="none" height="6" style="stroke:#C82930;stroke-width:1.0;" width="6" x="15" y="176.1294"/><text fill="#000000" font-family="sans-serif" font-size="14" lengthAdjust="spacing" text-decoration="underline" textLength="145" x="27" y="183.0613">BUMP_DEPTH: double</text><rect fill="none" height="6" style="stroke:#C82930;stroke-width:1.0;" width="6" x="15" y="195.1973"/><text fill="#000000" font-family="sans-serif" font-size="14" lengthAdjust="spacing" text-decoration="underline" textLength="162" x="27" y="202.1293">TRENCH_WIDTH: double</text><rect fill="none" height="6" style="stroke:#C82930;stroke-width:1.0;" width="6" x="15" y="214.2652"/><text fill="#000000" font-family="sans-serif" font-size="14" lengthAdjust="spacing" text-decoration="underline" textLength="215" x="27" y="221.1972">LEFT_TRENCH_Y_OFFSET: double</text><rect fill="none" height="6" style="stroke:#C82930;stroke-width:1.0;" width="6" x="15" y="233.3331"/><text fill="#000000" font-family="sans-serif" font-size="14" lengthAdjust="spacing" text-decoration="underline" textLength="227" x="27" y="240.2651">RIGHT_TRENCH_Y_OFFSET: double</text><rect fill="none" height="6" style="stroke:#C82930;stroke-width:1.0;" width="6" x="15" y="252.401"/><text fill="#000000" font-family="sans-serif" font-size="14" lengthAdjust="spacing" text-decoration="underline" textLength="200" x="27" y="259.333">LEFT_BUMP_Y_OFFSET: double</text><rect fill="none" height="6" style="stroke:#C82930;stroke-width:1.0;" width="6" x="15" y="271.4689"/><text fill="#000000" font-family="sans-serif" font-size="14" lengthAdjust="spacing" text-decoration="underline" textLength="212" x="27" y="278.4009">RIGHT_BUMP_Y_OFFSET: double</text><rect fill="none" height="6" style="stroke:#C82930;stroke-width:1.0;" width="6" x="15" y="290.5369"/><text fill="#000000" font-family="sans-serif" font-size="14" lengthAdjust="spacing" text-decoration="underline" textLength="193" x="27" y="297.4688">RED_SIDE_DISTANCE: double</text><rect fill="none" height="6" style="stroke:#C82930;stroke-width:1.0;" width="6" x="15" y="309.6048"/><text fill="#000000" font-family="sans-serif" font-size="14" lengthAdjust="spacing" text-decoration="underline" textLength="132" x="27" y="316.5368">BUMP: Rectangle2d</text><rect fill="none" height="6" style="stroke:#C82930;stroke-width:1.0;" width="6" x="15" y="328.6727"/><text fill="#000000" font-family="sans-serif" font-size="14" lengthAdjust="spacing" text-decoration="underline" textLength="208" x="27" y="335.6047">BLUE_LEFT_BUMP: Rectangle2d</text><rect fill="none" height="6" style="stroke:#C82930;stroke-width:1.0;" width="6" x="15" y="347.7406"/><text fill="#000000" font-family="sans-serif" font-size="14" lengthAdjust="spacing" text-decoration="underline" textLength="220" x="27" y="354.6726">BLUE_RIGHT_BUMP: Rectangle2d</text><rect fill="none" height="6" style="stroke:#C82930;stroke-width:1.0;" width="6" x="15" y="366.8085"/><text fill="#000000" font-family="sans-serif" font-size="14" lengthAdjust="spacing" text-decoration="underline" textLength="201" x="27" y="373.7405">RED_LEFT_BUMP: Rectangle2d</text><rect fill="none" height="6" style="stroke:#C82930;stroke-width:1.0;" width="6" x="15" y="385.8764"/><text fill="#000000" font-family="sans-serif" font-size="14" lengthAdjust="spacing" text-decoration="underline" textLength="213" x="27" y="392.8084">RED_RIGHT_BUMP: Rectangle2d</text><ellipse cx="18" cy="407.9444" fill="none" rx="3" ry="3" style="stroke:#038048;stroke-width:1.0;"/><text fill="#000000" font-family="sans-serif" font-size="14" lengthAdjust="spacing" text-decoration="underline" textLength="264" x="27" y="411.8763">BUMP_RECTANGLES: List&lt;Rectangle2d&gt;</text><rect fill="none" height="6" style="stroke:#C82930;stroke-width:1.0;" width="6" x="15" y="424.0123"/><text fill="#000000" font-family="sans-serif" font-size="14" lengthAdjust="spacing" text-decoration="underline" textLength="147" x="27" y="430.9443">TRENCH: Rectangle2d</text><rect fill="none" height="6" style="stroke:#C82930;stroke-width:1.0;" width="6" x="15" y="443.0802"/><text fill="#000000" font-family="sans-serif" font-size="14" lengthAdjust="spacing" text-decoration="underline" textLength="223" x="27" y="450.0122">BLUE_LEFT_TRENCH: Rectangle2d</text><rect fill="none" height="6" style="stroke:#C82930;stroke-width:1.0;" width="6" x="15" y="462.1481"/><text fill="#000000" font-family="sans-serif" font-size="14" lengthAdjust="spacing" text-decoration="underline" textLength="235" x="27" y="469.0801">BLUE_RIGHT_TRENCH: Rectangle2d</text><rect fill="none" height="6" style="stroke:#C82930;stroke-width:1.0;" width="6" x="15" y="481.216"/><text fill="#000000" font-family="sans-serif" font-size="14" lengthAdjust="spacing" text-decoration="underline" textLength="216" x="27" y="488.148">RED_LEFT_TRENCH: Rectangle2d</text><rect fill="none" height="6" style="stroke:#C82930;stroke-width:1.0;" width="6" x="15" y="500.284"/><text fill="#000000" font-family="sans-serif" font-size="14" lengthAdjust="spacing" text-decoration="underline" textLength="228" x="27" y="507.2159">RED_RIGHT_TRENCH: Rectangle2d</text><ellipse cx="18" cy="522.3519" fill="none" rx="3" ry="3" style="stroke:#038048;stroke-width:1.0;"/><text fill="#000000" font-family="sans-serif" font-size="14" lengthAdjust="spacing" text-decoration="underline" textLength="279" x="27" y="526.2838">TRENCH_RECTANGLES: List&lt;Rectangle2d&gt;</text><line style="stroke:#181818;stroke-width:0.5;" x1="8" x2="399" y1="534.3858" y2="534.3858"/><ellipse cx="18" cy="549.4198" fill="#84BE84" rx="3" ry="3" style="stroke:#038048;stroke-width:1.0;"/><text fill="#000000" font-family="sans-serif" font-size="14" lengthAdjust="spacing" text-decoration="underline" textLength="203" x="27" y="553.3518">targetPosition(): Translation2d</text></g></a><text fill="#888888" font-family="sans-serif" font-size="10" lengthAdjust="spacing" textLength="176" x="115" y="579.1437">UMLDoclet 2.1.2, PlantUML 1.2024.3</text><!--SRC=[bPHVIyCm5CNV_HGNGL2cHOTFOmnScsw5hYjjfuuf8NPthj0beuc2Yj_Tj9jka_t9-b8uzvV3uN0J00292ZYRePop56ESiu8fKG0N74_q6ARP605dS_K1amppiVolpb1DXPOhFSsPb73QbDadDcvkMsvvn1PSAiQLVEBBmNLhKgHM8Lw4ijBVwIam2LjqQzC4HgDDmPggMVxy35zLWlBxqWELfTzmrHsqAN4wX3fUdDm5Dg5krEzH9_BkIKIrb7Zze05ZyVQIuuxpFWawIVS0P9CWqOwFPjXmDrOhiR0VUujaIS6upFL8yFfuYsbxq0lfW-Vi3LX13WdtGab40hjxqCidRaANx93sNJScoHuyyZhTO_ZAlifhR6vC4uV6dhFQXGEDDI32L6_OQuxRg_S7XFxbDQ9NWG_XPLXZxn8sjgvLVKN4rXrqV18tmC-aQgwTQUtS3lDAZk3NLyIu5dFy2FlQSa-FBAUcMF6AAXGoA-_f-SMsQ_kzU1-HAonW8aJv6_HyHwIvVe7hrerLluGmrm-QLk7i7GjPUVq0]--></g></svg>