<?xml version="1.0" encoding="us-ascii" standalone="no"?><svg xmlns="http://www.w3.org/2000/svg" xmlns:xlink="http://www.w3.org/1999/xlink" contentStyleType="text/css" height="124px" preserveAspectRatio="none" style="width:284px;height:124px;background:#FFFFFF;" version="1.1" viewBox="0 0 284 124" width="284px" zoomAndPan="magnify"><defs/><g><!--class frc.robot.constants.IOConstants--><a href="IOConstants.html" target="_top" title="IOConstants.html" xlink:actuate="onRequest" xlink:href="IOConstants.html" xlink:show="new" xlink:title="IOConstants.html" xlink:type="simple"><g id="elem_frc.robot.constants.IOConstants"><rect codeLine="5" fill="#F1F1F1" height="88.8237" id="frc.robot.constants.IOConstants" rx="2.5" ry="2.5" style="stroke:#181818;stroke-width:0.5;" width="263" x="7" y="7"/><ellipse cx="88.75" cy="28.344" fill="#ADD1B2" rx="11" ry="11" style="stroke:#181818;stroke-width:1.0;"/><path d="M88.2188,35.2658 Q86.4688,35.2658 85.3281,34.5315 Q84.2031,33.7815 83.6406,32.4377 Q83.0938,31.0783 83.0938,29.2815 Q83.0938,27.2502 83.75,25.7971 Q84.4063,24.344 85.6875,23.5627 Q86.9688,22.7815 88.8438,22.7815 Q89.7344,22.7815 90.4063,22.969 Q91.0781,23.1408 91.7656,23.4846 L90.9531,25.5002 Q90.3281,25.1877 89.7813,25.0627 Q89.25,24.9377 88.7656,24.9377 Q87.5938,24.9377 86.8906,25.469 Q86.1875,26.0002 85.8906,26.9533 Q85.5938,27.9065 85.5938,29.1721 Q85.5938,31.1877 86.3125,32.1565 Q87.0313,33.1096 88.625,33.1096 Q89.2188,33.1096 89.8438,32.9533 Q90.4688,32.7971 91.2969,32.4221 L91.2969,34.6408 Q90.5625,34.9533 89.7656,35.1096 Q88.9844,35.2658 88.2188,35.2658 Z " fill="#000000"/><text fill="#000000" font-family="sans-serif" font-size="14" lengthAdjust="spacing" textLength="83" x="113.25" y="26.9659">IOConstants</text><text fill="#000000" font-family="sans-serif" font-size="10" lengthAdjust="spacing" textLength="91" x="109.25" y="41.7579">frc.robot.constants</text><line style="stroke:#181818;stroke-width:0.5;" x1="8" x2="269" y1="49.6879" y2="49.6879"/><ellipse cx="18" cy="64.7219" fill="none" rx="3" ry="3" style="stroke:#038048;stroke-width:1.0;"/><text fill="#000000" font-family="sans-serif" font-size="14" lengthAdjust="spacing" text-decoration="underline" textLength="213" x="27" y="68.6538">DRIVER_CONTROLLER_PORT: int</text><ellipse cx="18" cy="83.7898" fill="none" rx="3" ry="3" style="stroke:#038048;stroke-width:1.0;"/><text fill="#000000" font-family="sans-serif" font-size="14" lengthAdjust="spacing" text-decoration="underline" textLength="237" x="27" y="87.7218">OPERATOR_CONTROLLER_PORT: int</text></g></a><text fill="#888888" font-family="sans-serif" font-size="10" lengthAdjust="spacing" textLength="176" x="50" y="113.5137">UMLDoclet 2.1.2, PlantUML 1.2024.3</text><!--SRC=[VP3VIm914CVV_Ii68J2C9QKd2I7K1-5iZ-tgnIIsTOvRsDivTeQWnF-zrGf4f7cPcSztc5y008m2qRR8dNNuX9rDLYX1f8YzB4FZjmZOTl89jSUmvNFQeZIKyP6xO9cXVy_-2oUZk-bIpoYos2Zy6d_fxRHEJYLw9r7kJ-s3PRZ0rKa7MAzFCjL86pORs1q77soN1V5k3yEvMRuipDjCFrP65qKEIssg2VWe5wfrkJ0FbVwdVlzp74R113NHmJslYZcvaDytLYCrle4ovBKoXQiFJEmf3gw_0G00]--></g></svg>