<?xml version="1.0" encoding="us-ascii" standalone="no"?><svg xmlns="http://www.w3.org/2000/svg" xmlns:xlink="http://www.w3.org/1999/xlink" contentStyleType="text/css" height="257px" preserveAspectRatio="none" style="width:284px;height:257px;background:#FFFFFF;" version="1.1" viewBox="0 0 284 257" width="284px" zoomAndPan="magnify"><defs/><g><!--class frc.robot.constants.NeoMotorConstants--><a href="NeoMotorConstants.html" target="_top" title="NeoMotorConstants.html" xlink:actuate="onRequest" xlink:href="NeoMotorConstants.html" xlink:show="new" xlink:title="NeoMotorConstants.html" xlink:type="simple"><g id="elem_frc.robot.constants.NeoMotorConstants"><rect codeLine="5" fill="#F1F1F1" height="222.2992" id="frc.robot.constants.NeoMotorConstants" rx="2.5" ry="2.5" style="stroke:#181818;stroke-width:0.5;" width="263" x="7" y="7"/><ellipse cx="67.25" cy="28.344" fill="#ADD1B2" rx="11" ry="11" style="stroke:#181818;stroke-width:1.0;"/><path d="M66.7188,35.2658 Q64.9688,35.2658 63.8281,34.5315 Q62.7031,33.7815 62.1406,32.4377 Q61.5938,31.0783 61.5938,29.2815 Q61.5938,27.2502 62.25,25.7971 Q62.9063,24.344 64.1875,23.5627 Q65.4688,22.7815 67.3438,22.7815 Q68.2344,22.7815 68.9063,22.969 Q69.5781,23.1408 70.2656,23.4846 L69.4531,25.5002 Q68.8281,25.1877 68.2813,25.0627 Q67.75,24.9377 67.2656,24.9377 Q66.0938,24.9377 65.3906,25.469 Q64.6875,26.0002 64.3906,26.9533 Q64.0938,27.9065 64.0938,29.1721 Q64.0938,31.1877 64.8125,32.1565 Q65.5313,33.1096 67.125,33.1096 Q67.7188,33.1096 68.3438,32.9533 Q68.9688,32.7971 69.7969,32.4221 L69.7969,34.6408 Q69.0625,34.9533 68.2656,35.1096 Q67.4844,35.2658 66.7188,35.2658 Z " fill="#000000"/><text fill="#000000" font-family="sans-serif" font-size="14" lengthAdjust="spacing" textLength="134" x="87.75" y="26.9659">NeoMotorConstants</text><text fill="#000000" font-family="sans-serif" font-size="10" lengthAdjust="spacing" textLength="91" x="109.25" y="41.7579">frc.robot.constants</text><line style="stroke:#181818;stroke-width:0.5;" x1="8" x2="269" y1="49.6879" y2="49.6879"/><ellipse cx="18" cy="64.7219" fill="none" rx="3" ry="3" style="stroke:#038048;stroke-width:1.0;"/><text fill="#000000" font-family="sans-serif" font-size="14" lengthAdjust="spacing" text-decoration="underline" textLength="207" x="27" y="68.6538">NEO_FREE_SPEED_RPM: double</text><ellipse cx="18" cy="83.7898" fill="none" rx="3" ry="3" style="stroke:#038048;stroke-width:1.0;"/><text fill="#000000" font-family="sans-serif" font-size="14" lengthAdjust="spacing" text-decoration="underline" textLength="229" x="27" y="87.7218">VORTEX_FREE_SPEED_RPM: double</text><ellipse cx="18" cy="102.8577" fill="none" rx="3" ry="3" style="stroke:#038048;stroke-width:1.0;"/><text fill="#000000" font-family="sans-serif" font-size="14" lengthAdjust="spacing" text-decoration="underline" textLength="237" x="27" y="106.7897">NEO_550_FREE_SPEED_RPM: double</text><ellipse cx="18" cy="121.9256" fill="none" rx="3" ry="3" style="stroke:#038048;stroke-width:1.0;"/><text fill="#000000" font-family="sans-serif" font-size="14" lengthAdjust="spacing" text-decoration="underline" textLength="162" x="27" y="125.8576">MAX_NEO_CURRENT: int</text><ellipse cx="18" cy="140.9935" fill="none" rx="3" ry="3" style="stroke:#038048;stroke-width:1.0;"/><text fill="#000000" font-family="sans-serif" font-size="14" lengthAdjust="spacing" text-decoration="underline" textLength="184" x="27" y="144.9255">MAX_VORTEX_CURRENT: int</text><ellipse cx="18" cy="160.0614" fill="none" rx="3" ry="3" style="stroke:#038048;stroke-width:1.0;"/><text fill="#000000" font-family="sans-serif" font-size="14" lengthAdjust="spacing" text-decoration="underline" textLength="192" x="27" y="163.9934">MAX_NEO_550_CURRENT: int</text><ellipse cx="18" cy="179.1294" fill="none" rx="3" ry="3" style="stroke:#038048;stroke-width:1.0;"/><text fill="#000000" font-family="sans-serif" font-size="14" lengthAdjust="spacing" text-decoration="underline" textLength="139" x="27" y="183.0613">MIN_POWER: double</text><ellipse cx="18" cy="198.1973" fill="none" rx="3" ry="3" style="stroke:#038048;stroke-width:1.0;"/><text fill="#000000" font-family="sans-serif" font-size="14" lengthAdjust="spacing" text-decoration="underline" textLength="140" x="27" y="202.1293">MAX_POWER: double</text><ellipse cx="18" cy="217.2652" fill="none" rx="3" ry="3" style="stroke:#038048;stroke-width:1.0;"/><text fill="#000000" font-family="sans-serif" font-size="14" lengthAdjust="spacing" text-decoration="underline" textLength="181" x="27" y="221.1972">BATTERY_VOLTAGE: double</text></g></a><text fill="#888888" font-family="sans-serif" font-size="10" lengthAdjust="spacing" textLength="176" x="50" y="246.9891">UMLDoclet 2.1.2, PlantUML 1.2024.3</text><!--SRC=[ZPBTIiD048NlVOgX82XAQ8kzALA8xIf2yyCsrKejOPjCI23P2TbLqD9txwQs5zfAiZSBvtnpE3030A1GWnG5gb94ECDIL49J1P8aNXWRqYn6mABKNv1acCVghrgWJid8UptAXLBGkLVPDmvxToCNoI6JDoQfj91QlSk3rnqbLMHLj2PjHKUt0qB16TqwoO7byaIpKbtagnLizbNgjp66pg8jtBZC2nyvO-7CPsmISjyPGamVwnpFm2yU3zYYFL-73mRTzWEElGZheV6SS-O6GyYa_WSxT6b17biqeSzkw7klZ3VqQs8Ux21W_CqKd0Rs4_j5Rd-E0QN62XAY-fixqmb5kJctljMp-hVWvsPfHeNBJwnKHlBgUWS0]--></g></svg>