<?xml version="1.0" encoding="us-ascii" standalone="no"?><svg xmlns="http://www.w3.org/2000/svg" xmlns:xlink="http://www.w3.org/1999/xlink" contentStyleType="text/css" height="264px" preserveAspectRatio="none" style="width:363px;height:264px;background:#FFFFFF;" version="1.1" viewBox="0 0 363 264" width="363px" zoomAndPan="magnify"><defs/><g><!--class frc.robot.constants.ShooterConstants.ShooterModuleConstants--><a href="ShooterConstants.ShooterModuleConstants.html" target="_top" title="ShooterConstants.ShooterModuleConstants.html" xlink:actuate="onRequest" xlink:href="ShooterConstants.ShooterModuleConstants.html" xlink:show="new" xlink:title="ShooterConstants.ShooterModuleConstants.html" xlink:type="simple"><g id="elem_frc.robot.constants.ShooterConstants.ShooterModuleConstants"><rect codeLine="5" fill="#F1F1F1" height="126.9596" id="frc.robot.constants.ShooterConstants.ShooterModuleConstants" rx="2.5" ry="2.5" style="stroke:#181818;stroke-width:0.5;" width="349" x="7" y="109.69"/><ellipse cx="32.8" cy="131.034" fill="#ADD1B2" rx="11" ry="11" style="stroke:#181818;stroke-width:1.0;"/><path d="M32.2688,137.9558 Q30.5187,137.9558 29.3781,137.2215 Q28.2531,136.4715 27.6906,135.1277 Q27.1437,133.7683 27.1437,131.9715 Q27.1437,129.9402 27.8,128.4871 Q28.4562,127.034 29.7375,126.2527 Q31.0187,125.4715 32.8938,125.4715 Q33.7844,125.4715 34.4563,125.659 Q35.1281,125.8308 35.8156,126.1746 L35.0031,128.1902 Q34.3781,127.8777 33.8313,127.7527 Q33.3,127.6277 32.8156,127.6277 Q31.6437,127.6277 30.9406,128.159 Q30.2375,128.6902 29.9406,129.6433 Q29.6437,130.5965 29.6437,131.8621 Q29.6437,133.8777 30.3625,134.8465 Q31.0812,135.7996 32.675,135.7996 Q33.2688,135.7996 33.8938,135.6433 Q34.5188,135.4871 35.3469,135.1121 L35.3469,137.3308 Q34.6125,137.6433 33.8156,137.7996 Q33.0344,137.9558 32.2688,137.9558 Z " fill="#000000"/><text fill="#000000" font-family="sans-serif" font-size="14" lengthAdjust="spacing" textLength="293" x="49.2" y="129.6559">ShooterConstants.ShooterModuleConstants</text><text fill="#000000" font-family="sans-serif" font-size="10" lengthAdjust="spacing" textLength="91" x="150.2" y="144.4479">frc.robot.constants</text><line style="stroke:#181818;stroke-width:0.5;" x1="8" x2="355" y1="152.3779" y2="152.3779"/><ellipse cx="18" cy="167.4119" fill="#84BE84" rx="3" ry="3" style="stroke:#038048;stroke-width:1.0;"/><text fill="#000000" font-family="sans-serif" font-size="14" lengthAdjust="spacing" textLength="323" x="27" y="171.3438">ShooterModuleConstants(int, int, Translation2d)</text><ellipse cx="18" cy="186.4798" fill="#84BE84" rx="3" ry="3" style="stroke:#038048;stroke-width:1.0;"/><text fill="#000000" font-family="sans-serif" font-size="14" lengthAdjust="spacing" textLength="136" x="27" y="190.4118">leftMotorCanId(): int</text><ellipse cx="18" cy="205.5477" fill="#84BE84" rx="3" ry="3" style="stroke:#038048;stroke-width:1.0;"/><text fill="#000000" font-family="sans-serif" font-size="14" lengthAdjust="spacing" textLength="147" x="27" y="209.4797">rightMotorCanId(): int</text><ellipse cx="18" cy="224.6156" fill="#84BE84" rx="3" ry="3" style="stroke:#038048;stroke-width:1.0;"/><text fill="#000000" font-family="sans-serif" font-size="14" lengthAdjust="spacing" textLength="182" x="27" y="228.5476">translation(): Translation2d</text></g></a><!--class java.lang.Record--><g id="elem_java.lang.Record"><rect codeLine="12" fill="#F1F1F1" height="42.6879" id="java.lang.Record" rx="2.5" ry="2.5" style="stroke:#181818;stroke-width:0.5;" width="76" x="69.5" y="7"/><ellipse cx="84.5" cy="28.344" fill="#A9DCDF" rx="11" ry="11" style="stroke:#181818;stroke-width:1.0;"/><path d="M79.6719,34.094 L83.0156,21.9065 L86.1563,21.9065 L89.5313,34.094 L87.0625,34.094 L86.3281,31.0783 L82.8125,31.0783 L82.0625,34.094 L79.6719,34.094 Z M84.0781,26.0471 L83.3281,29.0471 L85.8438,29.0471 L85.125,26.0471 Q84.9844,25.469 84.8594,24.9221 Q84.7344,24.3596 84.5938,23.7815 Q84.4844,24.3596 84.3438,24.9221 Q84.2031,25.469 84.0781,26.0471 Z " fill="#000000"/><text fill="#000000" font-family="sans-serif" font-size="14" font-style="italic" lengthAdjust="spacing" textLength="43" x="99" y="26.9659">Record</text><text fill="#000000" font-family="sans-serif" font-size="10" font-style="italic" lengthAdjust="spacing" textLength="44" x="98.5" y="41.7579">java.lang</text></g><!--class frc.robot.constants.ShooterConstants--><a href="ShooterConstants.html" target="_top" title="ShooterConstants.html" xlink:actuate="onRequest" xlink:href="ShooterConstants.html" xlink:show="new" xlink:title="ShooterConstants.html" xlink:type="simple"><g id="elem_frc.robot.constants.ShooterConstants"><rect codeLine="13" fill="#F1F1F1" height="42.6879" id="frc.robot.constants.ShooterConstants" rx="2.5" ry="2.5" style="stroke:#181818;stroke-width:0.5;" width="151" x="181" y="7"/><ellipse cx="196" cy="28.344" fill="#ADD1B2" rx="11" ry="11" style="stroke:#181818;stroke-width:1.0;"/><path d="M195.4688,35.2658 Q193.7188,35.2658 192.5781,34.5315 Q191.4531,33.7815 190.8906,32.4377 Q190.3438,31.0783 190.3438,29.2815 Q190.3438,27.2502 191,25.7971 Q191.6563,24.344 192.9375,23.5627 Q194.2188,22.7815 196.0938,22.7815 Q196.9844,22.7815 197.6563,22.969 Q198.3281,23.1408 199.0156,23.4846 L198.2031,25.5002 Q197.5781,25.1877 197.0313,25.0627 Q196.5,24.9377 196.0156,24.9377 Q194.8438,24.9377 194.1406,25.469 Q193.4375,26.0002 193.1406,26.9533 Q192.8438,27.9065 192.8438,29.1721 Q192.8438,31.1877 193.5625,32.1565 Q194.2813,33.1096 195.875,33.1096 Q196.4688,33.1096 197.0938,32.9533 Q197.7188,32.7971 198.5469,32.4221 L198.5469,34.6408 Q197.8125,34.9533 197.0156,35.1096 Q196.2344,35.2658 195.4688,35.2658 Z " fill="#000000"/><text fill="#000000" font-family="sans-serif" font-size="14" lengthAdjust="spacing" textLength="119" x="210" y="26.9659">ShooterConstants</text><text fill="#000000" font-family="sans-serif" font-size="10" lengthAdjust="spacing" textLength="91" x="224" y="41.7579">frc.robot.constants</text></g></a><!--reverse link java.lang.Record to frc.robot.constants.ShooterConstants.ShooterModuleConstants--><g id="link_java.lang.Record_frc.robot.constants.ShooterConstants.ShooterModuleConstants"><path codeLine="15" d="M126.5421,66.0914 C134.6421,81.7214 137.91,88.04 148.93,109.31 " fill="none" id="java.lang.Record-backto-frc.robot.constants.ShooterConstants.ShooterModuleConstants" style="stroke:#181818;stroke-width:1.0;"/><polygon fill="none" points="118.26,50.11,121.215,68.8521,131.8693,63.3307,118.26,50.11" style="stroke:#181818;stroke-width:1.0;"/></g><!--reverse link frc.robot.constants.ShooterConstants to frc.robot.constants.ShooterConstants.ShooterModuleConstants--><g id="link_frc.robot.constants.ShooterConstants_frc.robot.constants.ShooterConstants.ShooterModuleConstants"><path codeLine="16" d="M238.1567,64.2785 C229.9567,79.9085 225.68,88.04 214.51,109.31 " fill="none" id="frc.robot.constants.ShooterConstants-backto-frc.robot.constants.ShooterConstants.ShooterModuleConstants" style="stroke:#181818;stroke-width:1.0;"/><ellipse cx="241.8734" cy="57.1943" fill="#FFFFFF" rx="8" ry="8" style="stroke:#181818;stroke-width:1.0;"/><line style="stroke:#181818;stroke-width:1.0;" x1="238.1567" x2="245.59" y1="64.2785" y2="50.11"/><line style="stroke:#181818;stroke-width:1.0;" x1="234.7891" x2="248.9576" y1="53.4776" y2="60.9109"/></g><text fill="#888888" font-family="sans-serif" font-size="10" lengthAdjust="spacing" textLength="176" x="86.5" y="253.3396">UMLDoclet 2.1.2, PlantUML 1.2024.3</text><!--SRC=[hLDDQm8n4BttLmn2GL53NNeIyM8lXGgbjYVhOSpEkbko6KccGh_-UxDPgwsLib1p2EIzb_buam00U1AmM99VewOPhT6Xi0FBbiu23NcH4b2vbXV82ZAfFqHBafm3775jq7jeZNpnIiF1vNYMCmkv2LilQCMhBJ3bzDdG3dwqsniNuynfvNZ9elGNsmBqS0HN3QF3VDvGgN8fpM81Rx6PQdMF2zk5bHx4xTwXzGQbO9kadVr5GvbCENWvGNkTjZl3IhwdNR7A_-9b7xRYVcI9ge_QSLpw8DNoo_exqkpIRyu-uGQLGRkAVkvEgXOs6j-9vdHi8BNpTK-7jS7elT__pmk8KHjLrZr18aqsC9150JnCRwvOc_3D4ZLGIGzkGsSIK3ZVaFDnlfy0]--></g></svg>