<?xml version="1.0" encoding="us-ascii" standalone="no"?><svg xmlns="http://www.w3.org/2000/svg" xmlns:xlink="http://www.w3.org/1999/xlink" contentStyleType="text/css" height="359px" preserveAspectRatio="none" style="width:422px;height:359px;background:#FFFFFF;" version="1.1" viewBox="0 0 422 359" width="422px" zoomAndPan="magnify"><defs/><g><!--class frc.robot.constants.ShooterConstants.ShooterFormula--><a href="ShooterConstants.ShooterFormula.html" target="_top" title="ShooterConstants.ShooterFormula.html" xlink:actuate="onRequest" xlink:href="ShooterConstants.ShooterFormula.html" xlink:show="new" xlink:title="ShooterConstants.ShooterFormula.html" xlink:type="simple"><g id="elem_frc.robot.constants.ShooterConstants.ShooterFormula"><rect codeLine="5" fill="#F1F1F1" height="222.2992" id="frc.robot.constants.ShooterConstants.ShooterFormula" rx="2.5" ry="2.5" style="stroke:#181818;stroke-width:0.5;" width="408" x="7" y="109.69"/><ellipse cx="91.75" cy="131.034" fill="#ADD1B2" rx="11" ry="11" style="stroke:#181818;stroke-width:1.0;"/><path d="M91.2188,137.9558 Q89.4688,137.9558 88.3281,137.2215 Q87.2031,136.4715 86.6406,135.1277 Q86.0938,133.7683 86.0938,131.9715 Q86.0938,129.9402 86.75,128.4871 Q87.4063,127.034 88.6875,126.2527 Q89.9688,125.4715 91.8438,125.4715 Q92.7344,125.4715 93.4063,125.659 Q94.0781,125.8308 94.7656,126.1746 L93.9531,128.1902 Q93.3281,127.8777 92.7813,127.7527 Q92.25,127.6277 91.7656,127.6277 Q90.5938,127.6277 89.8906,128.159 Q89.1875,128.6902 88.8906,129.6433 Q88.5938,130.5965 88.5938,131.8621 Q88.5938,133.8777 89.3125,134.8465 Q90.0313,135.7996 91.625,135.7996 Q92.2188,135.7996 92.8438,135.6433 Q93.4688,135.4871 94.2969,135.1121 L94.2969,137.3308 Q93.5625,137.6433 92.7656,137.7996 Q91.9844,137.9558 91.2188,137.9558 Z " fill="#000000"/><text fill="#000000" font-family="sans-serif" font-size="14" lengthAdjust="spacing" textLength="230" x="112.25" y="129.6559">ShooterConstants.ShooterFormula</text><text fill="#000000" font-family="sans-serif" font-size="10" lengthAdjust="spacing" textLength="91" x="181.75" y="144.4479">frc.robot.constants</text><line style="stroke:#181818;stroke-width:0.5;" x1="8" x2="414" y1="152.3779" y2="152.3779"/><ellipse cx="18" cy="167.4119" fill="#84BE84" rx="3" ry="3" style="stroke:#038048;stroke-width:1.0;"/><text fill="#000000" font-family="sans-serif" font-size="14" lengthAdjust="spacing" textLength="382" x="27" y="171.3438">ShooterFormula(double, double, double, double, double)</text><ellipse cx="18" cy="186.4798" fill="#84BE84" rx="3" ry="3" style="stroke:#038048;stroke-width:1.0;"/><text fill="#000000" font-family="sans-serif" font-size="14" lengthAdjust="spacing" textLength="124" x="27" y="190.4118">getAngle(): double</text><ellipse cx="18" cy="205.5477" fill="#84BE84" rx="3" ry="3" style="stroke:#038048;stroke-width:1.0;"/><text fill="#000000" font-family="sans-serif" font-size="14" lengthAdjust="spacing" textLength="111" x="27" y="209.4797">getMin(): double</text><ellipse cx="18" cy="224.6156" fill="#84BE84" rx="3" ry="3" style="stroke:#038048;stroke-width:1.0;"/><text fill="#000000" font-family="sans-serif" font-size="14" lengthAdjust="spacing" textLength="113" x="27" y="228.5476">getMax(): double</text><ellipse cx="18" cy="243.6835" fill="#84BE84" rx="3" ry="3" style="stroke:#038048;stroke-width:1.0;"/><text fill="#000000" font-family="sans-serif" font-size="14" lengthAdjust="spacing" textLength="122" x="27" y="247.6155">getSlope(): double</text><ellipse cx="18" cy="262.7514" fill="#84BE84" rx="3" ry="3" style="stroke:#038048;stroke-width:1.0;"/><text fill="#000000" font-family="sans-serif" font-size="14" lengthAdjust="spacing" textLength="148" x="27" y="266.6834">setSlope(double): void</text><ellipse cx="18" cy="281.8194" fill="#84BE84" rx="3" ry="3" style="stroke:#038048;stroke-width:1.0;"/><text fill="#000000" font-family="sans-serif" font-size="14" lengthAdjust="spacing" textLength="155" x="27" y="285.7513">getYIntercept(): double</text><ellipse cx="18" cy="300.8873" fill="#84BE84" rx="3" ry="3" style="stroke:#038048;stroke-width:1.0;"/><text fill="#000000" font-family="sans-serif" font-size="14" lengthAdjust="spacing" textLength="181" x="27" y="304.8193">setYIntercept(double): void</text><ellipse cx="18" cy="319.9552" fill="#84BE84" rx="3" ry="3" style="stroke:#038048;stroke-width:1.0;"/><text fill="#000000" font-family="sans-serif" font-size="14" lengthAdjust="spacing" textLength="214" x="27" y="323.8872">getShooterRPM(double): double</text></g></a><!--class frc.robot.constants.ShooterConstants--><a href="ShooterConstants.html" target="_top" title="ShooterConstants.html" xlink:actuate="onRequest" xlink:href="ShooterConstants.html" xlink:show="new" xlink:title="ShooterConstants.html" xlink:type="simple"><g id="elem_frc.robot.constants.ShooterConstants"><rect codeLine="17" fill="#F1F1F1" height="42.6879" id="frc.robot.constants.ShooterConstants" rx="2.5" ry="2.5" style="stroke:#181818;stroke-width:0.5;" width="151" x="135.5" y="7"/><ellipse cx="150.5" cy="28.344" fill="#ADD1B2" rx="11" ry="11" style="stroke:#181818;stroke-width:1.0;"/><path d="M149.9688,35.2658 Q148.2188,35.2658 147.0781,34.5315 Q145.9531,33.7815 145.3906,32.4377 Q144.8438,31.0783 144.8438,29.2815 Q144.8438,27.2502 145.5,25.7971 Q146.1563,24.344 147.4375,23.5627 Q148.7188,22.7815 150.5938,22.7815 Q151.4844,22.7815 152.1563,22.969 Q152.8281,23.1408 153.5156,23.4846 L152.7031,25.5002 Q152.0781,25.1877 151.5313,25.0627 Q151,24.9377 150.5156,24.9377 Q149.3438,24.9377 148.6406,25.469 Q147.9375,26.0002 147.6406,26.9533 Q147.3438,27.9065 147.3438,29.1721 Q147.3438,31.1877 148.0625,32.1565 Q148.7813,33.1096 150.375,33.1096 Q150.9688,33.1096 151.5938,32.9533 Q152.2188,32.7971 153.0469,32.4221 L153.0469,34.6408 Q152.3125,34.9533 151.5156,35.1096 Q150.7344,35.2658 149.9688,35.2658 Z " fill="#000000"/><text fill="#000000" font-family="sans-serif" font-size="14" lengthAdjust="spacing" textLength="119" x="164.5" y="26.9659">ShooterConstants</text><text fill="#000000" font-family="sans-serif" font-size="10" lengthAdjust="spacing" textLength="91" x="178.5" y="41.7579">frc.robot.constants</text></g></a><!--reverse link frc.robot.constants.ShooterConstants to frc.robot.constants.ShooterConstants.ShooterFormula--><g id="link_frc.robot.constants.ShooterConstants_frc.robot.constants.ShooterConstants.ShooterFormula"><path codeLine="19" d="M211,66.1 C211,81.14 211,86.77 211,109.59 " fill="none" id="frc.robot.constants.ShooterConstants-backto-frc.robot.constants.ShooterConstants.ShooterFormula" style="stroke:#181818;stroke-width:1.0;"/><ellipse cx="211" cy="58.1" fill="#FFFFFF" rx="8" ry="8" style="stroke:#181818;stroke-width:1.0;"/><line style="stroke:#181818;stroke-width:1.0;" x1="211" x2="211" y1="66.1" y2="50.1"/><line style="stroke:#181818;stroke-width:1.0;" x1="203" x2="219" y1="58.1" y2="58.1"/></g><text fill="#888888" font-family="sans-serif" font-size="10" lengthAdjust="spacing" textLength="176" x="116" y="348.6791">UMLDoclet 2.1.2, PlantUML 1.2024.3</text><!--SRC=[hLDTQy8m57tVhxW80qKDK_PKXY2EmM05MTd3S3x4zDO6qjoIHDa7- - -BRKKhxPInl0JEEVTmxpq908151vfdQ7CkCCAS6-x8W2QDLvw6LCO8cENk0nA9AhQdQ8Ok9GyNk53SMkZSMVc9mUXs4gL43isCj7LSEyigu85Cjb7yJLVAcqbY13Eq8iV4Njm1Rg41PsTSOR4ues2fozHo2Lz5qxlJhmkwCMrM2WVm-zqxrA_HJVLQORSNL6ID2wLkO_Xx2nCfoXlzx9whkWXWIpAkrRu-QZ-DmDor61m9sbsgfJpFmuFeoElxij3_AUMcMCiSopOkykWFXtzvKkMSk5iP90K1B-7JFGdbly-OZTXu07Fb2pqArriqLf8F_0S0]--></g></svg>