<?xml version="1.0" encoding="us-ascii" standalone="no"?><svg xmlns="http://www.w3.org/2000/svg" xmlns:xlink="http://www.w3.org/1999/xlink" contentStyleType="text/css" height="492px" preserveAspectRatio="none" style="width:636px;height:492px;background:#FFFFFF;" version="1.1" viewBox="0 0 636 492" width="636px" zoomAndPan="magnify"><defs/><g><!--class frc.robot.constants.ShooterConstants--><a href="ShooterConstants.html" target="_top" title="ShooterConstants.html" xlink:actuate="onRequest" xlink:href="ShooterConstants.html" xlink:show="new" xlink:title="ShooterConstants.html" xlink:type="simple"><g id="elem_frc.robot.constants.ShooterConstants"><rect codeLine="5" fill="#F1F1F1" height="355.7746" id="frc.robot.constants.ShooterConstants" rx="2.5" ry="2.5" style="stroke:#181818;stroke-width:0.5;" width="466" x="100.5" y="7"/><ellipse cx="269.75" cy="28.344" fill="#ADD1B2" rx="11" ry="11" style="stroke:#181818;stroke-width:1.0;"/><path d="M269.2188,35.2658 Q267.4688,35.2658 266.3281,34.5315 Q265.2031,33.7815 264.6406,32.4377 Q264.0938,31.0783 264.0938,29.2815 Q264.0938,27.2502 264.75,25.7971 Q265.4063,24.344 266.6875,23.5627 Q267.9688,22.7815 269.8438,22.7815 Q270.7344,22.7815 271.4063,22.969 Q272.0781,23.1408 272.7656,23.4846 L271.9531,25.5002 Q271.3281,25.1877 270.7813,25.0627 Q270.25,24.9377 269.7656,24.9377 Q268.5938,24.9377 267.8906,25.469 Q267.1875,26.0002 266.8906,26.9533 Q266.5938,27.9065 266.5938,29.1721 Q266.5938,31.1877 267.3125,32.1565 Q268.0313,33.1096 269.625,33.1096 Q270.2188,33.1096 270.8438,32.9533 Q271.4688,32.7971 272.2969,32.4221 L272.2969,34.6408 Q271.5625,34.9533 270.7656,35.1096 Q269.9844,35.2658 269.2188,35.2658 Z " fill="#000000"/><text fill="#000000" font-family="sans-serif" font-size="14" lengthAdjust="spacing" textLength="119" x="290.25" y="26.9659">ShooterConstants</text><text fill="#000000" font-family="sans-serif" font-size="10" lengthAdjust="spacing" textLength="91" x="304.25" y="41.7579">frc.robot.constants</text><line style="stroke:#181818;stroke-width:0.5;" x1="101.5" x2="565.5" y1="49.6879" y2="49.6879"/><ellipse cx="111.5" cy="64.7219" fill="none" rx="3" ry="3" style="stroke:#038048;stroke-width:1.0;"/><text fill="#000000" font-family="sans-serif" font-size="14" lengthAdjust="spacing" text-decoration="underline" textLength="440" x="120.5" y="68.6538">NEAR_SHOOTER_MODULE_CONSTANTS: ShooterModuleConstants</text><ellipse cx="111.5" cy="83.7898" fill="none" rx="3" ry="3" style="stroke:#038048;stroke-width:1.0;"/><text fill="#000000" font-family="sans-serif" font-size="14" lengthAdjust="spacing" text-decoration="underline" textLength="428" x="120.5" y="87.7218">FAR_SHOOTER_MODULE_CONSTANTS: ShooterModuleConstants</text><ellipse cx="111.5" cy="102.8577" fill="none" rx="3" ry="3" style="stroke:#038048;stroke-width:1.0;"/><text fill="#000000" font-family="sans-serif" font-size="14" lengthAdjust="spacing" text-decoration="underline" textLength="220" x="120.5" y="106.7897">OPERATING_TOLERANCE: double</text><ellipse cx="111.5" cy="121.9256" fill="none" rx="3" ry="3" style="stroke:#038048;stroke-width:1.0;"/><text fill="#000000" font-family="sans-serif" font-size="14" lengthAdjust="spacing" text-decoration="underline" textLength="257" x="120.5" y="125.8576">NEAR_SHOOTER_PERCENTAGE: double</text><ellipse cx="111.5" cy="140.9935" fill="none" rx="3" ry="3" style="stroke:#038048;stroke-width:1.0;"/><text fill="#000000" font-family="sans-serif" font-size="14" lengthAdjust="spacing" text-decoration="underline" textLength="63" x="120.5" y="144.9255">P: double</text><ellipse cx="111.5" cy="160.0614" fill="none" rx="3" ry="3" style="stroke:#038048;stroke-width:1.0;"/><text fill="#000000" font-family="sans-serif" font-size="14" lengthAdjust="spacing" text-decoration="underline" textLength="60" x="120.5" y="163.9934">I: double</text><ellipse cx="111.5" cy="179.1294" fill="none" rx="3" ry="3" style="stroke:#038048;stroke-width:1.0;"/><text fill="#000000" font-family="sans-serif" font-size="14" lengthAdjust="spacing" text-decoration="underline" textLength="65" x="120.5" y="183.0613">D: double</text><ellipse cx="111.5" cy="198.1973" fill="none" rx="3" ry="3" style="stroke:#038048;stroke-width:1.0;"/><text fill="#000000" font-family="sans-serif" font-size="14" lengthAdjust="spacing" text-decoration="underline" textLength="63" x="120.5" y="202.1293">S: double</text><ellipse cx="111.5" cy="217.2652" fill="none" rx="3" ry="3" style="stroke:#038048;stroke-width:1.0;"/><text fill="#000000" font-family="sans-serif" font-size="14" lengthAdjust="spacing" text-decoration="underline" textLength="63" x="120.5" y="221.1972">V: double</text><ellipse cx="111.5" cy="236.3331" fill="none" rx="3" ry="3" style="stroke:#038048;stroke-width:1.0;"/><text fill="#000000" font-family="sans-serif" font-size="14" lengthAdjust="spacing" text-decoration="underline" textLength="64" x="120.5" y="240.2651">A: double</text><ellipse cx="111.5" cy="255.401" fill="none" rx="3" ry="3" style="stroke:#038048;stroke-width:1.0;"/><text fill="#000000" font-family="sans-serif" font-size="14" lengthAdjust="spacing" text-decoration="underline" textLength="356" x="120.5" y="259.333">SHOOTER_DIRECTION_FROM_FORWARD_RAD: double</text><ellipse cx="111.5" cy="274.4689" fill="none" rx="3" ry="3" style="stroke:#038048;stroke-width:1.0;"/><text fill="#000000" font-family="sans-serif" font-size="14" lengthAdjust="spacing" text-decoration="underline" textLength="221" x="120.5" y="278.4009">MANUAL_SHOOTER_RPM: double</text><ellipse cx="111.5" cy="293.5369" fill="none" rx="3" ry="3" style="stroke:#038048;stroke-width:1.0;"/><text fill="#000000" font-family="sans-serif" font-size="14" lengthAdjust="spacing" text-decoration="underline" textLength="259" x="120.5" y="297.4688">MANUAL_SHOOTER_RPM_STEP: double</text><ellipse cx="111.5" cy="312.6048" fill="none" rx="3" ry="3" style="stroke:#038048;stroke-width:1.0;"/><text fill="#000000" font-family="sans-serif" font-size="14" lengthAdjust="spacing" text-decoration="underline" textLength="256" x="120.5" y="316.5368">MANUAL_SHOOTER_MIN_RPM: double</text><ellipse cx="111.5" cy="331.6727" fill="none" rx="3" ry="3" style="stroke:#038048;stroke-width:1.0;"/><text fill="#000000" font-family="sans-serif" font-size="14" lengthAdjust="spacing" text-decoration="underline" textLength="257" x="120.5" y="335.6047">MANUAL_SHOOTER_MAX_RPM: double</text><ellipse cx="111.5" cy="350.7406" fill="none" rx="3" ry="3" style="stroke:#038048;stroke-width:1.0;"/><text fill="#000000" font-family="sans-serif" font-size="14" lengthAdjust="spacing" text-decoration="underline" textLength="299" x="120.5" y="354.6726">SHOOTER_FORMULAS: List&lt;ShooterFormula&gt;</text></g></a><!--class frc.robot.constants.ShooterConstants.ShooterModuleConstants--><a href="ShooterConstants.ShooterModuleConstants.html" target="_top" title="ShooterConstants.ShooterModuleConstants.html" xlink:actuate="onRequest" xlink:href="ShooterConstants.ShooterModuleConstants.html" xlink:show="new" xlink:title="ShooterConstants.ShooterModuleConstants.html" xlink:type="simple"><g id="elem_frc.robot.constants.ShooterConstants.ShooterModuleConstants"><rect codeLine="23" fill="#F1F1F1" height="42.6879" id="frc.robot.constants.ShooterConstants.ShooterModuleConstants" rx="2.5" ry="2.5" style="stroke:#181818;stroke-width:0.5;" width="325" x="7" y="422.77"/><ellipse cx="22" cy="444.114" fill="#ADD1B2" rx="11" ry="11" style="stroke:#181818;stroke-width:1.0;"/><path d="M21.4688,451.0358 Q19.7188,451.0358 18.5781,450.3015 Q17.4531,449.5515 16.8906,448.2077 Q16.3438,446.8483 16.3438,445.0515 Q16.3438,443.0202 17,441.5671 Q17.6563,440.114 18.9375,439.3327 Q20.2188,438.5515 22.0938,438.5515 Q22.9844,438.5515 23.6563,438.739 Q24.3281,438.9108 25.0156,439.2546 L24.2031,441.2702 Q23.5781,440.9577 23.0313,440.8327 Q22.5,440.7077 22.0156,440.7077 Q20.8438,440.7077 20.1406,441.239 Q19.4375,441.7702 19.1406,442.7233 Q18.8438,443.6765 18.8438,444.9421 Q18.8438,446.9577 19.5625,447.9265 Q20.2813,448.8796 21.875,448.8796 Q22.4688,448.8796 23.0938,448.7233 Q23.7188,448.5671 24.5469,448.1921 L24.5469,450.4108 Q23.8125,450.7233 23.0156,450.8796 Q22.2344,451.0358 21.4688,451.0358 Z " fill="#000000"/><text fill="#000000" font-family="sans-serif" font-size="14" lengthAdjust="spacing" textLength="293" x="36" y="442.7359">ShooterConstants.ShooterModuleConstants</text><text fill="#000000" font-family="sans-serif" font-size="10" lengthAdjust="spacing" textLength="91" x="137" y="457.5279">frc.robot.constants</text></g></a><!--class frc.robot.constants.ShooterConstants.ShooterFormula--><a href="ShooterConstants.ShooterFormula.html" target="_top" title="ShooterConstants.ShooterFormula.html" xlink:actuate="onRequest" xlink:href="ShooterConstants.ShooterFormula.html" xlink:show="new" xlink:title="ShooterConstants.ShooterFormula.html" xlink:type="simple"><g id="elem_frc.robot.constants.ShooterConstants.ShooterFormula"><rect codeLine="24" fill="#F1F1F1" height="42.6879" id="frc.robot.constants.ShooterConstants.ShooterFormula" rx="2.5" ry="2.5" style="stroke:#181818;stroke-width:0.5;" width="262" x="367.5" y="422.77"/><ellipse cx="382.5" cy="444.114" fill="#ADD1B2" rx="11" ry="11" style="stroke:#181818;stroke-width:1.0;"/><path d="M381.9688,451.0358 Q380.2188,451.0358 379.0781,450.3015 Q377.9531,449.5515 377.3906,448.2077 Q376.8438,446.8483 376.8438,445.0515 Q376.8438,443.0202 377.5,441.5671 Q378.1563,440.114 379.4375,439.3327 Q380.7188,438.5515 382.5938,438.5515 Q383.4844,438.5515 384.1563,438.739 Q384.8281,438.9108 385.5156,439.2546 L384.7031,441.2702 Q384.0781,440.9577 383.5313,440.8327 Q383,440.7077 382.5156,440.7077 Q381.3438,440.7077 380.6406,441.239 Q379.9375,441.7702 379.6406,442.7233 Q379.3438,443.6765 379.3438,444.9421 Q379.3438,446.9577 380.0625,447.9265 Q380.7813,448.8796 382.375,448.8796 Q382.9688,448.8796 383.5938,448.7233 Q384.2188,448.5671 385.0469,448.1921 L385.0469,450.4108 Q384.3125,450.7233 383.5156,450.8796 Q382.7344,451.0358 381.9688,451.0358 Z " fill="#000000"/><text fill="#000000" font-family="sans-serif" font-size="14" lengthAdjust="spacing" textLength="230" x="396.5" y="442.7359">ShooterConstants.ShooterFormula</text><text fill="#000000" font-family="sans-serif" font-size="10" lengthAdjust="spacing" textLength="91" x="466" y="457.5279">frc.robot.constants</text></g></a><!--reverse link frc.robot.constants.ShooterConstants to frc.robot.constants.ShooterConstants.ShooterModuleConstants--><g id="link_frc.robot.constants.ShooterConstants_frc.robot.constants.ShooterConstants.ShooterModuleConstants"><path codeLine="26" d="M211.8889,376.6315 C196.7989,400.3015 191.95,407.9 182.66,422.47 " fill="none" id="frc.robot.constants.ShooterConstants-backto-frc.robot.constants.ShooterConstants.ShooterModuleConstants" style="stroke:#181818;stroke-width:1.0;"/><ellipse cx="216.1895" cy="369.8858" fill="#FFFFFF" rx="8" ry="8" style="stroke:#181818;stroke-width:1.0;"/><line style="stroke:#181818;stroke-width:1.0;" x1="211.8889" x2="220.49" y1="376.6315" y2="363.14"/><line style="stroke:#181818;stroke-width:1.0;" x1="209.4437" x2="222.9352" y1="365.5852" y2="374.1863"/></g><!--reverse link frc.robot.constants.ShooterConstants to frc.robot.constants.ShooterConstants.ShooterFormula--><g id="link_frc.robot.constants.ShooterConstants_frc.robot.constants.ShooterConstants.ShooterFormula"><path codeLine="27" d="M455.8374,376.6083 C471.0174,400.2783 475.91,407.9 485.26,422.47 " fill="none" id="frc.robot.constants.ShooterConstants-backto-frc.robot.constants.ShooterConstants.ShooterFormula" style="stroke:#181818;stroke-width:1.0;"/><ellipse cx="451.5187" cy="369.8741" fill="#FFFFFF" rx="8" ry="8" style="stroke:#181818;stroke-width:1.0;"/><line style="stroke:#181818;stroke-width:1.0;" x1="455.8374" x2="447.2" y1="376.6083" y2="363.14"/><line style="stroke:#181818;stroke-width:1.0;" x1="444.7846" x2="458.2529" y1="374.1929" y2="365.5554"/></g><text fill="#888888" font-family="sans-serif" font-size="10" lengthAdjust="spacing" textLength="176" x="223.25" y="481.1479">UMLDoclet 2.1.2, PlantUML 1.2024.3</text><!--SRC=[jLNHIiCm57ttAow2eAZ5YKzZ34BRpKAJbBHJGQNKBcE5jXbD9gZuxyQQxM7KRCFPftBEFIVdNd9R00395THPnUKYotdC5rcJAT50BMf-f6cO5rCEl5geDvWLl9pAJRJYQYuqtE9vcKa9nmDPlFD-xsOOpuLGl755BLLMA_bK6-fgE6jofn4lGZdvYZs6J487xcpQmEFZ9kJCLLK-FyD7c-Fx-T24Al9FE2S-OcbyIsdYinHJRnBwgKj9d22In7qmLbXCboLV6tRuZ0vZGoEVeIGWupIXeNubhj-7gLY-b7nRUArqVPAWiKqHMRZ0mdaMBhPmTnOEsJnDKrx0V3S9A4b7ZE9qHDazObxAa2qGHcI2mlLWM8JtAaxZn8zsL-20x7S4HWzR1AjAtIwUX4WFE2oa6fXRD19DjIopOIlyt6ctdEuBUA2L-yMzQnExAys2xjMAcSA1Mp2kbkYcOXMvpRpJT-dyyl8lq_o_Wqn7FzFdjKPWrX8mmQ4dybB_1gwTddDz0L6fXHg5arVUo4BKfsTV]--></g></svg>