<?xml version="1.0" encoding="us-ascii" standalone="no"?><svg xmlns="http://www.w3.org/2000/svg" xmlns:xlink="http://www.w3.org/1999/xlink" contentStyleType="text/css" height="257px" preserveAspectRatio="none" style="width:371px;height:257px;background:#FFFFFF;" version="1.1" viewBox="0 0 371 257" width="371px" zoomAndPan="magnify"><defs/><g><!--class frc.robot.constants.ShooterHoodsConstants--><a href="ShooterHoodsConstants.html" target="_top" title="ShooterHoodsConstants.html" xlink:actuate="onRequest" xlink:href="ShooterHoodsConstants.html" xlink:show="new" xlink:title="ShooterHoodsConstants.html" xlink:type="simple"><g id="elem_frc.robot.constants.ShooterHoodsConstants"><rect codeLine="5" fill="#F1F1F1" height="222.2992" id="frc.robot.constants.ShooterHoodsConstants" rx="2.5" ry="2.5" style="stroke:#181818;stroke-width:0.5;" width="350" x="7" y="7"/><ellipse cx="97.25" cy="28.344" fill="#ADD1B2" rx="11" ry="11" style="stroke:#181818;stroke-width:1.0;"/><path d="M96.7188,35.2658 Q94.9688,35.2658 93.8281,34.5315 Q92.7031,33.7815 92.1406,32.4377 Q91.5938,31.0783 91.5938,29.2815 Q91.5938,27.2502 92.25,25.7971 Q92.9063,24.344 94.1875,23.5627 Q95.4688,22.7815 97.3438,22.7815 Q98.2344,22.7815 98.9063,22.969 Q99.5781,23.1408 100.2656,23.4846 L99.4531,25.5002 Q98.8281,25.1877 98.2813,25.0627 Q97.75,24.9377 97.2656,24.9377 Q96.0938,24.9377 95.3906,25.469 Q94.6875,26.0002 94.3906,26.9533 Q94.0938,27.9065 94.0938,29.1721 Q94.0938,31.1877 94.8125,32.1565 Q95.5313,33.1096 97.125,33.1096 Q97.7188,33.1096 98.3438,32.9533 Q98.9688,32.7971 99.7969,32.4221 L99.7969,34.6408 Q99.0625,34.9533 98.2656,35.1096 Q97.4844,35.2658 96.7188,35.2658 Z " fill="#000000"/><text fill="#000000" font-family="sans-serif" font-size="14" lengthAdjust="spacing" textLength="161" x="117.75" y="26.9659">ShooterHoodsConstants</text><text fill="#000000" font-family="sans-serif" font-size="10" lengthAdjust="spacing" textLength="91" x="152.75" y="41.7579">frc.robot.constants</text><line style="stroke:#181818;stroke-width:0.5;" x1="8" x2="356" y1="49.6879" y2="49.6879"/><ellipse cx="18" cy="64.7219" fill="none" rx="3" ry="3" style="stroke:#038048;stroke-width:1.0;"/><text fill="#000000" font-family="sans-serif" font-size="14" lengthAdjust="spacing" text-decoration="underline" textLength="161" x="27" y="68.6538">SERVO_HUB_CAN_ID: int</text><ellipse cx="18" cy="83.7898" fill="none" rx="3" ry="3" style="stroke:#038048;stroke-width:1.0;"/><text fill="#000000" font-family="sans-serif" font-size="14" lengthAdjust="spacing" text-decoration="underline" textLength="255" x="27" y="87.7218">NEAR_HOOD_CHANNEL_ID: ChannelId</text><ellipse cx="18" cy="102.8577" fill="none" rx="3" ry="3" style="stroke:#038048;stroke-width:1.0;"/><text fill="#000000" font-family="sans-serif" font-size="14" lengthAdjust="spacing" text-decoration="underline" textLength="272" x="27" y="106.7897">NEAR_HOOD_PULSE_RANGE: PulseRange</text><ellipse cx="18" cy="121.9256" fill="none" rx="3" ry="3" style="stroke:#038048;stroke-width:1.0;"/><text fill="#000000" font-family="sans-serif" font-size="14" lengthAdjust="spacing" text-decoration="underline" textLength="243" x="27" y="125.8576">FAR_HOOD_CHANNEL_ID: ChannelId</text><ellipse cx="18" cy="140.9935" fill="none" rx="3" ry="3" style="stroke:#038048;stroke-width:1.0;"/><text fill="#000000" font-family="sans-serif" font-size="14" lengthAdjust="spacing" text-decoration="underline" textLength="260" x="27" y="144.9255">FAR_HOOD_PULSE_RANGE: PulseRange</text><ellipse cx="18" cy="160.0614" fill="none" rx="3" ry="3" style="stroke:#038048;stroke-width:1.0;"/><text fill="#000000" font-family="sans-serif" font-size="14" lengthAdjust="spacing" text-decoration="underline" textLength="292" x="27" y="163.9934">SHOOTER_NO_RETRACTION_ANGLE: double</text><ellipse cx="18" cy="179.1294" fill="none" rx="3" ry="3" style="stroke:#038048;stroke-width:1.0;"/><text fill="#000000" font-family="sans-serif" font-size="14" lengthAdjust="spacing" text-decoration="underline" textLength="301" x="27" y="183.0613">SHOOTER_FULL_RETRACTION_ANGLE: double</text><ellipse cx="18" cy="198.1973" fill="none" rx="3" ry="3" style="stroke:#038048;stroke-width:1.0;"/><text fill="#000000" font-family="sans-serif" font-size="14" lengthAdjust="spacing" text-decoration="underline" textLength="301" x="27" y="202.1293">MANUAL_SHOOTER_DEFAULT_ANGLE: double</text><ellipse cx="18" cy="217.2652" fill="none" rx="3" ry="3" style="stroke:#038048;stroke-width:1.0;"/><text fill="#000000" font-family="sans-serif" font-size="14" lengthAdjust="spacing" text-decoration="underline" textLength="324" x="27" y="221.1972">MANUAL_SHOOTER_ANGLE_INCREMENT: double</text></g></a><text fill="#888888" font-family="sans-serif" font-size="10" lengthAdjust="spacing" textLength="176" x="93.5" y="246.9891">UMLDoclet 2.1.2, PlantUML 1.2024.3</text><!--SRC=[bP9HIyCm58NV_HKNGL2KuePFGmQrJMqXIqVQ-Z97oDhC5j9aD9cWO__TMDs3KWRDupddoxrm3m204HOKRuNPyL9aOiSxRdK7IYjnuMoecqg0Q7Vs0xQDa9NvhxR2rjh9lLvARWnSFfhcKymc3_EirjgABjOk4MXbB5VMlAfV_tw-xKglqnjjlVBaNW8tCA1xWt_1QZMeUxLjvNeDXtwjxtTmXctA8zncYBwaB2wUME0JbeGpQ9GTo17aKnQdQSY2s2S4uJuRr5mf8PFgBB4iS8OOzSapci5oBusWNBs90IOQEoGQFoDp-HnHHb96KKxz84zImXo87Ldf_KQUew82up7SmYU5Zza93r7a5pWVY_Lnbf20eWKY-H_m-5CseTpTOTkV7ue53dKfNPsdtiIRti5IkY8u5QxUHMSQhQvllW00]--></g></svg>