<?xml version="1.0" encoding="us-ascii" standalone="no"?><svg xmlns="http://www.w3.org/2000/svg" xmlns:xlink="http://www.w3.org/1999/xlink" contentStyleType="text/css" height="257px" preserveAspectRatio="none" style="width:797px;height:257px;background:#FFFFFF;" version="1.1" viewBox="0 0 797 257" width="797px" zoomAndPan="magnify"><defs/><g><!--class frc.robot.constants.SwerveConstants--><a href="SwerveConstants.html" target="_top" title="SwerveConstants.html" xlink:actuate="onRequest" xlink:href="SwerveConstants.html" xlink:show="new" xlink:title="SwerveConstants.html" xlink:type="simple"><g id="elem_frc.robot.constants.SwerveConstants"><rect codeLine="5" fill="#F1F1F1" height="222.2992" id="frc.robot.constants.SwerveConstants" rx="2.5" ry="2.5" style="stroke:#181818;stroke-width:0.5;" width="776" x="7" y="7"/><ellipse cx="333.25" cy="28.344" fill="#ADD1B2" rx="11" ry="11" style="stroke:#181818;stroke-width:1.0;"/><path d="M332.7188,35.2658 Q330.9688,35.2658 329.8281,34.5315 Q328.7031,33.7815 328.1406,32.4377 Q327.5938,31.0783 327.5938,29.2815 Q327.5938,27.2502 328.25,25.7971 Q328.9063,24.344 330.1875,23.5627 Q331.4688,22.7815 333.3438,22.7815 Q334.2344,22.7815 334.9063,22.969 Q335.5781,23.1408 336.2656,23.4846 L335.4531,25.5002 Q334.8281,25.1877 334.2813,25.0627 Q333.75,24.9377 333.2656,24.9377 Q332.0938,24.9377 331.3906,25.469 Q330.6875,26.0002 330.3906,26.9533 Q330.0938,27.9065 330.0938,29.1721 Q330.0938,31.1877 330.8125,32.1565 Q331.5313,33.1096 333.125,33.1096 Q333.7188,33.1096 334.3438,32.9533 Q334.9688,32.7971 335.7969,32.4221 L335.7969,34.6408 Q335.0625,34.9533 334.2656,35.1096 Q333.4844,35.2658 332.7188,35.2658 Z " fill="#000000"/><text fill="#000000" font-family="sans-serif" font-size="14" lengthAdjust="spacing" textLength="115" x="353.75" y="26.9659">SwerveConstants</text><text fill="#000000" font-family="sans-serif" font-size="10" lengthAdjust="spacing" textLength="91" x="365.75" y="41.7579">frc.robot.constants</text><line style="stroke:#181818;stroke-width:0.5;" x1="8" x2="782" y1="49.6879" y2="49.6879"/><ellipse cx="18" cy="64.7219" fill="none" rx="3" ry="3" style="stroke:#038048;stroke-width:1.0;"/><text fill="#000000" font-family="sans-serif" font-size="14" lengthAdjust="spacing" text-decoration="underline" textLength="421" x="27" y="68.6538">AUTON_DRIVING_MOTOR_NEUTRAL_MODE: NeutralModeValue</text><ellipse cx="18" cy="83.7898" fill="none" rx="3" ry="3" style="stroke:#038048;stroke-width:1.0;"/><text fill="#000000" font-family="sans-serif" font-size="14" lengthAdjust="spacing" text-decoration="underline" textLength="422" x="27" y="87.7218">TELEOP_DRIVING_MOTOR_NEUTRAL_MODE: NeutralModeValue</text><ellipse cx="18" cy="102.8577" fill="none" rx="3" ry="3" style="stroke:#038048;stroke-width:1.0;"/><text fill="#000000" font-family="sans-serif" font-size="14" lengthAdjust="spacing" text-decoration="underline" textLength="124" x="27" y="106.7897">CAN_BUS: CANBus</text><ellipse cx="18" cy="121.9256" fill="none" rx="3" ry="3" style="stroke:#038048;stroke-width:1.0;"/><text fill="#000000" font-family="sans-serif" font-size="14" lengthAdjust="spacing" text-decoration="underline" textLength="236" x="27" y="125.8576">SPEED_AT_12_VOLTS: LinearVelocity</text><ellipse cx="18" cy="140.9935" fill="none" rx="3" ry="3" style="stroke:#038048;stroke-width:1.0;"/><text fill="#000000" font-family="sans-serif" font-size="14" lengthAdjust="spacing" text-decoration="underline" textLength="361" x="27" y="144.9255">DRIVETRAIN_CONSTANTS: SwerveDrivetrainConstants</text><ellipse cx="18" cy="160.0614" fill="none" rx="3" ry="3" style="stroke:#038048;stroke-width:1.0;"/><text fill="#000000" font-family="sans-serif" font-size="14" lengthAdjust="spacing" text-decoration="underline" textLength="738" x="27" y="163.9934">FRONT_LEFT: SwerveModuleConstants&lt;TalonFXConfiguration, TalonFXConfiguration, CANcoderConfiguration&gt;</text><ellipse cx="18" cy="179.1294" fill="none" rx="3" ry="3" style="stroke:#038048;stroke-width:1.0;"/><text fill="#000000" font-family="sans-serif" font-size="14" lengthAdjust="spacing" text-decoration="underline" textLength="750" x="27" y="183.0613">FRONT_RIGHT: SwerveModuleConstants&lt;TalonFXConfiguration, TalonFXConfiguration, CANcoderConfiguration&gt;</text><ellipse cx="18" cy="198.1973" fill="none" rx="3" ry="3" style="stroke:#038048;stroke-width:1.0;"/><text fill="#000000" font-family="sans-serif" font-size="14" lengthAdjust="spacing" text-decoration="underline" textLength="728" x="27" y="202.1293">BACK_LEFT: SwerveModuleConstants&lt;TalonFXConfiguration, TalonFXConfiguration, CANcoderConfiguration&gt;</text><ellipse cx="18" cy="217.2652" fill="none" rx="3" ry="3" style="stroke:#038048;stroke-width:1.0;"/><text fill="#000000" font-family="sans-serif" font-size="14" lengthAdjust="spacing" text-decoration="underline" textLength="740" x="27" y="221.1972">BACK_RIGHT: SwerveModuleConstants&lt;TalonFXConfiguration, TalonFXConfiguration, CANcoderConfiguration&gt;</text></g></a><text fill="#888888" font-family="sans-serif" font-size="10" lengthAdjust="spacing" textLength="176" x="306.5" y="246.9891">UMLDoclet 2.1.2, PlantUML 1.2024.3</text><!--SRC=[lPFVYnen4CVV-rSC1uKUFPOgzoGYhEvwbQvPsOrIi1BITQo1c4YIzV34__r6lMkfR9yAvYN9P-OxlqW003m6C7A3VYihB74hdGpMWR46Fv0Prcg9W9jjsCDAeLxwQxh1iBQ4pxpIqdkuwthrWftMOwzyHhV3WJK-I1Fy3_Dc-T9RkIfozgSDKVLklGFfeO57Lr5WFhyYqJfiz681XtCHftKWGr3L4Jx7KvupaHIZsOWzYN7EyqAmTCgBEADRadQ0OHsSr6Exn9dKDJO4uMcMvfF_ZJA8cUXFomxGeL_x1ezoagQ9YBbejSKippZvPigWT3FKjb9Xtw0v5PLI8ICc1ZahUSnEiik44gTsI6KfytjM3H66HSwuoD8XVzTH5xN-CzykbzgQuNS2A_MhfYUYh7c0PahDLJG4znVk_JDjCNhwUjky_NZmxVRTdhFUejdZvIUY2UXWPUrfcuwpn5QQ_dexQaNj1vXeIaaKFkxGUT9-kdy5]--></g></svg>