<?xml version="1.0" encoding="us-ascii" standalone="no"?><svg xmlns="http://www.w3.org/2000/svg" xmlns:xlink="http://www.w3.org/1999/xlink" contentStyleType="text/css" height="658px" preserveAspectRatio="none" style="width:314px;height:658px;background:#FFFFFF;" version="1.1" viewBox="0 0 314 658" width="314px" zoomAndPan="magnify"><defs/><g><!--class frc.robot.constants.VisionConstants--><a href="VisionConstants.html" target="_top" title="VisionConstants.html" xlink:actuate="onRequest" xlink:href="VisionConstants.html" xlink:show="new" xlink:title="VisionConstants.html" xlink:type="simple"><g id="elem_frc.robot.constants.VisionConstants"><rect codeLine="5" fill="#F1F1F1" height="622.7254" id="frc.robot.constants.VisionConstants" rx="2.5" ry="2.5" style="stroke:#181818;stroke-width:0.5;" width="293" x="7" y="7"/><ellipse cx="95.75" cy="28.344" fill="#ADD1B2" rx="11" ry="11" style="stroke:#181818;stroke-width:1.0;"/><path d="M95.2188,35.2658 Q93.4688,35.2658 92.3281,34.5315 Q91.2031,33.7815 90.6406,32.4377 Q90.0938,31.0783 90.0938,29.2815 Q90.0938,27.2502 90.75,25.7971 Q91.4063,24.344 92.6875,23.5627 Q93.9688,22.7815 95.8438,22.7815 Q96.7344,22.7815 97.4063,22.969 Q98.0781,23.1408 98.7656,23.4846 L97.9531,25.5002 Q97.3281,25.1877 96.7813,25.0627 Q96.25,24.9377 95.7656,24.9377 Q94.5938,24.9377 93.8906,25.469 Q93.1875,26.0002 92.8906,26.9533 Q92.5938,27.9065 92.5938,29.1721 Q92.5938,31.1877 93.3125,32.1565 Q94.0313,33.1096 95.625,33.1096 Q96.2188,33.1096 96.8438,32.9533 Q97.4688,32.7971 98.2969,32.4221 L98.2969,34.6408 Q97.5625,34.9533 96.7656,35.1096 Q95.9844,35.2658 95.2188,35.2658 Z " fill="#000000"/><text fill="#000000" font-family="sans-serif" font-size="14" lengthAdjust="spacing" textLength="107" x="116.25" y="26.9659">VisionConstants</text><text fill="#000000" font-family="sans-serif" font-size="10" lengthAdjust="spacing" textLength="91" x="124.25" y="41.7579">frc.robot.constants</text><line style="stroke:#181818;stroke-width:0.5;" x1="8" x2="299" y1="49.6879" y2="49.6879"/><ellipse cx="18" cy="64.7219" fill="none" rx="3" ry="3" style="stroke:#038048;stroke-width:1.0;"/><text fill="#000000" font-family="sans-serif" font-size="14" lengthAdjust="spacing" text-decoration="underline" textLength="137" x="27" y="68.6538">TABLE_NAME: String</text><ellipse cx="18" cy="83.7898" fill="none" rx="3" ry="3" style="stroke:#038048;stroke-width:1.0;"/><text fill="#000000" font-family="sans-serif" font-size="14" lengthAdjust="spacing" text-decoration="underline" textLength="146" x="27" y="87.7218">VALUES_TOPIC: String</text><ellipse cx="18" cy="102.8577" fill="none" rx="3" ry="3" style="stroke:#038048;stroke-width:1.0;"/><text fill="#000000" font-family="sans-serif" font-size="14" lengthAdjust="spacing" text-decoration="underline" textLength="178" x="27" y="106.7897">RECORDING_TOPIC: String</text><ellipse cx="18" cy="121.9256" fill="none" rx="3" ry="3" style="stroke:#038048;stroke-width:1.0;"/><text fill="#000000" font-family="sans-serif" font-size="14" lengthAdjust="spacing" text-decoration="underline" textLength="155" x="27" y="125.8576">STREAM_CAM_0: String</text><ellipse cx="18" cy="140.9935" fill="none" rx="3" ry="3" style="stroke:#038048;stroke-width:1.0;"/><text fill="#000000" font-family="sans-serif" font-size="14" lengthAdjust="spacing" text-decoration="underline" textLength="172" x="27" y="144.9255">ENABLED_0_TOPIC: String</text><ellipse cx="18" cy="160.0614" fill="none" rx="3" ry="3" style="stroke:#038048;stroke-width:1.0;"/><text fill="#000000" font-family="sans-serif" font-size="14" lengthAdjust="spacing" text-decoration="underline" textLength="172" x="27" y="163.9934">ENABLED_1_TOPIC: String</text><ellipse cx="18" cy="179.1294" fill="none" rx="3" ry="3" style="stroke:#038048;stroke-width:1.0;"/><text fill="#000000" font-family="sans-serif" font-size="14" lengthAdjust="spacing" text-decoration="underline" textLength="101" x="27" y="183.0613">WIDTH: double</text><ellipse cx="18" cy="198.1973" fill="none" rx="3" ry="3" style="stroke:#038048;stroke-width:1.0;"/><text fill="#000000" font-family="sans-serif" font-size="14" lengthAdjust="spacing" text-decoration="underline" textLength="106" x="27" y="202.1293">HEIGHT: double</text><ellipse cx="18" cy="217.2652" fill="none" rx="3" ry="3" style="stroke:#038048;stroke-width:1.0;"/><text fill="#000000" font-family="sans-serif" font-size="14" lengthAdjust="spacing" text-decoration="underline" textLength="81" x="27" y="221.1972">FOV: double</text><ellipse cx="18" cy="236.3331" fill="none" rx="3" ry="3" style="stroke:#038048;stroke-width:1.0;"/><text fill="#000000" font-family="sans-serif" font-size="14" lengthAdjust="spacing" text-decoration="underline" textLength="109" x="27" y="240.2651">DRIVE_P: double</text><ellipse cx="18" cy="255.401" fill="none" rx="3" ry="3" style="stroke:#038048;stroke-width:1.0;"/><text fill="#000000" font-family="sans-serif" font-size="14" lengthAdjust="spacing" text-decoration="underline" textLength="106" x="27" y="259.333">DRIVE_I: double</text><ellipse cx="18" cy="274.4689" fill="none" rx="3" ry="3" style="stroke:#038048;stroke-width:1.0;"/><text fill="#000000" font-family="sans-serif" font-size="14" lengthAdjust="spacing" text-decoration="underline" textLength="111" x="27" y="278.4009">DRIVE_D: double</text><ellipse cx="18" cy="293.5369" fill="none" rx="3" ry="3" style="stroke:#038048;stroke-width:1.0;"/><text fill="#000000" font-family="sans-serif" font-size="14" lengthAdjust="spacing" text-decoration="underline" textLength="101" x="27" y="297.4688">SPIN_P: double</text><ellipse cx="18" cy="312.6048" fill="none" rx="3" ry="3" style="stroke:#038048;stroke-width:1.0;"/><text fill="#000000" font-family="sans-serif" font-size="14" lengthAdjust="spacing" text-decoration="underline" textLength="98" x="27" y="316.5368">SPIN_I: double</text><ellipse cx="18" cy="331.6727" fill="none" rx="3" ry="3" style="stroke:#038048;stroke-width:1.0;"/><text fill="#000000" font-family="sans-serif" font-size="14" lengthAdjust="spacing" text-decoration="underline" textLength="103" x="27" y="335.6047">SPIN_D: double</text><ellipse cx="18" cy="350.7406" fill="none" rx="3" ry="3" style="stroke:#038048;stroke-width:1.0;"/><text fill="#000000" font-family="sans-serif" font-size="14" lengthAdjust="spacing" text-decoration="underline" textLength="160" x="27" y="354.6726">SPIN_SETPOINT: double</text><ellipse cx="18" cy="369.8085" fill="none" rx="3" ry="3" style="stroke:#038048;stroke-width:1.0;"/><text fill="#000000" font-family="sans-serif" font-size="14" lengthAdjust="spacing" text-decoration="underline" textLength="167" x="27" y="373.7405">APRIL_TAG_AREA: double</text><ellipse cx="18" cy="388.8764" fill="none" rx="3" ry="3" style="stroke:#038048;stroke-width:1.0;"/><text fill="#000000" font-family="sans-serif" font-size="14" lengthAdjust="spacing" text-decoration="underline" textLength="227" x="27" y="392.8084">TAG_LAYOUT: AprilTagFieldLayout</text><rect fill="none" height="6" style="stroke:#C82930;stroke-width:1.0;" width="6" x="15" y="404.9444"/><text fill="#000000" font-family="sans-serif" font-size="14" lengthAdjust="spacing" text-decoration="underline" textLength="217" x="27" y="411.8763">LEFT_CAMERA_X_OFFSET: double</text><rect fill="none" height="6" style="stroke:#C82930;stroke-width:1.0;" width="6" x="15" y="424.0123"/><text fill="#000000" font-family="sans-serif" font-size="14" lengthAdjust="spacing" text-decoration="underline" textLength="217" x="27" y="430.9443">LEFT_CAMERA_Y_OFFSET: double</text><rect fill="none" height="6" style="stroke:#C82930;stroke-width:1.0;" width="6" x="15" y="443.0802"/><text fill="#000000" font-family="sans-serif" font-size="14" lengthAdjust="spacing" text-decoration="underline" textLength="217" x="27" y="450.0122">LEFT_CAMERA_Z_OFFSET: double</text><ellipse cx="18" cy="465.1481" fill="none" rx="3" ry="3" style="stroke:#038048;stroke-width:1.0;"/><text fill="#000000" font-family="sans-serif" font-size="14" lengthAdjust="spacing" text-decoration="underline" textLength="241" x="27" y="469.0801">ROBOT_TO_LEFT_CAM: Transform3d</text><ellipse cx="18" cy="484.216" fill="none" rx="3" ry="3" style="stroke:#038048;stroke-width:1.0;"/><text fill="#000000" font-family="sans-serif" font-size="14" lengthAdjust="spacing" text-decoration="underline" textLength="242" x="27" y="488.148">ROBOT_TO_LEFT_CAM_NAME: String</text><rect fill="none" height="6" style="stroke:#C82930;stroke-width:1.0;" width="6" x="15" y="500.284"/><text fill="#000000" font-family="sans-serif" font-size="14" lengthAdjust="spacing" text-decoration="underline" textLength="229" x="27" y="507.2159">RIGHT_CAMERA_X_OFFSET: double</text><rect fill="none" height="6" style="stroke:#C82930;stroke-width:1.0;" width="6" x="15" y="519.3519"/><text fill="#000000" font-family="sans-serif" font-size="14" lengthAdjust="spacing" text-decoration="underline" textLength="229" x="27" y="526.2838">RIGHT_CAMERA_Y_OFFSET: double</text><rect fill="none" height="6" style="stroke:#C82930;stroke-width:1.0;" width="6" x="15" y="538.4198"/><text fill="#000000" font-family="sans-serif" font-size="14" lengthAdjust="spacing" text-decoration="underline" textLength="229" x="27" y="545.3518">RIGHT_CAMERA_Z_OFFSET: double</text><ellipse cx="18" cy="560.4877" fill="none" rx="3" ry="3" style="stroke:#038048;stroke-width:1.0;"/><text fill="#000000" font-family="sans-serif" font-size="14" lengthAdjust="spacing" text-decoration="underline" textLength="253" x="27" y="564.4197">ROBOT_TO_RIGHT_CAM: Transform3d</text><ellipse cx="18" cy="579.5556" fill="none" rx="3" ry="3" style="stroke:#038048;stroke-width:1.0;"/><text fill="#000000" font-family="sans-serif" font-size="14" lengthAdjust="spacing" text-decoration="underline" textLength="254" x="27" y="583.4876">ROBOT_TO_RIGHT_CAM_NAME: String</text><ellipse cx="18" cy="598.6235" fill="none" rx="3" ry="3" style="stroke:#038048;stroke-width:1.0;"/><text fill="#000000" font-family="sans-serif" font-size="14" lengthAdjust="spacing" text-decoration="underline" textLength="267" x="27" y="602.5555">SINGLE_TAG_STD_DEVS: Matrix&lt;N3, N1&gt;</text><ellipse cx="18" cy="617.6915" fill="none" rx="3" ry="3" style="stroke:#038048;stroke-width:1.0;"/><text fill="#000000" font-family="sans-serif" font-size="14" lengthAdjust="spacing" text-decoration="underline" textLength="261" x="27" y="621.6234">MULTI_TAG_STD_DEVS: Matrix&lt;N3, N1&gt;</text></g></a><text fill="#888888" font-family="sans-serif" font-size="10" lengthAdjust="spacing" textLength="176" x="65" y="647.4154">UMLDoclet 2.1.2, PlantUML 1.2024.3</text><!--SRC=[bPHXQzim48Q_xrSSXS56MvEq-sHAm8tbHE3OnbQyPLqHggCq1biAabhMbVxtoTbIQ9PPZK4OxfvNkhDFBm20vWO4QxdUi8eNVCCKCrA1a89_i6bOrqiElDsO9rZLl5dg_MZBpLhQy3PUDKnhEBdIzI_k3x-CobhNKeobq8O9et-8lvd1QAKgJyaxQRngbpq1fk50tDlR1MvkzYBUshJDxIqyRuledcURC7Nr0gSak8uHJO8Pyg4mgXRt1w0oYEUee2JDyBW7oz4upKESJ9naGN8KpEZOha4FXfAkkf0Ed1lkoA6J_8f3ClLXAH_k6duWFqLuCYKzG9IMFTamnoMYcPF0JYBi8OeC9xs7R07i0fn758XaAKxwFaUGvJYc99ZGmFxJ7h13uc2HpkrkmKRL3M7tKNTdOlOa7yo_YlCOHQIR4PG7z1jDeyYMy_y3tk2Bu_3lJlmqJwzJOgUBxdG-4CM4NadLNYxV8t3SilEy6xmZ-dt3BuxaZ-duLVZkbbyLBcSfh5jO_-bceo0X3L5P-31Z5lzvbLoUGJ8S7L3DvZ71Rj7B7zFbmd05AocxrtmMXx9ghArVU4FluWoonbgaZSB7Hwuws_pq-JS0]--></g></svg>