<?xml version="1.0" encoding="us-ascii" standalone="no"?><svg xmlns="http://www.w3.org/2000/svg" xmlns:xlink="http://www.w3.org/1999/xlink" contentStyleType="text/css" height="431px" preserveAspectRatio="none" style="width:259px;height:431px;background:#FFFFFF;" version="1.1" viewBox="0 0 259 431" width="259px" zoomAndPan="magnify"><defs/><g><!--class frc.robot.commands.AcquisitionRunCommand--><a href="AcquisitionRunCommand.html" target="_top" title="AcquisitionRunCommand.html" xlink:actuate="onRequest" xlink:href="AcquisitionRunCommand.html" xlink:show="new" xlink:title="AcquisitionRunCommand.html" xlink:type="simple"><g id="elem_frc.robot.commands.AcquisitionRunCommand"><rect codeLine="5" fill="#F1F1F1" height="192.1633" id="frc.robot.commands.AcquisitionRunCommand" rx="2.5" ry="2.5" style="stroke:#181818;stroke-width:0.5;" width="243" x="8" y="109.69"/><ellipse cx="41" cy="131.034" fill="#ADD1B2" rx="11" ry="11" style="stroke:#181818;stroke-width:1.0;"/><path d="M40.4688,137.9558 Q38.7188,137.9558 37.5781,137.2215 Q36.4531,136.4715 35.8906,135.1277 Q35.3438,133.7683 35.3438,131.9715 Q35.3438,129.9402 36,128.4871 Q36.6563,127.034 37.9375,126.2527 Q39.2188,125.4715 41.0938,125.4715 Q41.9844,125.4715 42.6563,125.659 Q43.3281,125.8308 44.0156,126.1746 L43.2031,128.1902 Q42.5781,127.8777 42.0313,127.7527 Q41.5,127.6277 41.0156,127.6277 Q39.8438,127.6277 39.1406,128.159 Q38.4375,128.6902 38.1406,129.6433 Q37.8438,130.5965 37.8438,131.8621 Q37.8438,133.8777 38.5625,134.8465 Q39.2813,135.7996 40.875,135.7996 Q41.4688,135.7996 42.0938,135.6433 Q42.7188,135.4871 43.5469,135.1121 L43.5469,137.3308 Q42.8125,137.6433 42.0156,137.7996 Q41.2344,137.9558 40.4688,137.9558 Z " fill="#000000"/><text fill="#000000" font-family="sans-serif" font-size="14" lengthAdjust="spacing" textLength="171" x="59" y="129.6559">AcquisitionRunCommand</text><text fill="#000000" font-family="sans-serif" font-size="10" lengthAdjust="spacing" textLength="96" x="96.5" y="144.4479">frc.robot.commands</text><line style="stroke:#181818;stroke-width:0.5;" x1="9" x2="250" y1="152.3779" y2="152.3779"/><rect fill="none" height="6" style="stroke:#C82930;stroke-width:1.0;" width="6" x="16" y="164.4119"/><text fill="#000000" font-family="sans-serif" font-size="14" lengthAdjust="spacing" textLength="157" x="28" y="171.3438">acquisition: Acquisition</text><rect fill="none" height="6" style="stroke:#C82930;stroke-width:1.0;" width="6" x="16" y="183.4798"/><text fill="#000000" font-family="sans-serif" font-size="14" lengthAdjust="spacing" textLength="88" x="28" y="190.4118">kicker: Kicker</text><rect fill="none" height="6" style="stroke:#C82930;stroke-width:1.0;" width="6" x="16" y="202.5477"/><text fill="#000000" font-family="sans-serif" font-size="14" lengthAdjust="spacing" textLength="84" x="28" y="209.4797">mode: Mode</text><line style="stroke:#181818;stroke-width:0.5;" x1="9" x2="250" y1="217.5817" y2="217.5817"/><ellipse cx="19" cy="232.6156" fill="#84BE84" rx="3" ry="3" style="stroke:#038048;stroke-width:1.0;"/><text fill="#000000" font-family="sans-serif" font-size="14" lengthAdjust="spacing" textLength="217" x="28" y="236.5476">AcquisitionRunCommand(Mode)</text><ellipse cx="19" cy="251.6835" fill="#84BE84" rx="3" ry="3" style="stroke:#038048;stroke-width:1.0;"/><text fill="#000000" font-family="sans-serif" font-size="14" lengthAdjust="spacing" textLength="101" x="28" y="255.6155">initialize(): void</text><ellipse cx="19" cy="270.7514" fill="#84BE84" rx="3" ry="3" style="stroke:#038048;stroke-width:1.0;"/><text fill="#000000" font-family="sans-serif" font-size="14" lengthAdjust="spacing" textLength="138" x="28" y="274.6834">isFinished(): boolean</text><ellipse cx="19" cy="289.8194" fill="#84BE84" rx="3" ry="3" style="stroke:#038048;stroke-width:1.0;"/><text fill="#000000" font-family="sans-serif" font-size="14" lengthAdjust="spacing" textLength="124" x="28" y="293.7513">end(boolean): void</text></g></a><!--class edu.wpi.first.wpilibj2.command.Command--><g id="elem_edu.wpi.first.wpilibj2.command.Command"><rect codeLine="15" fill="#F1F1F1" height="42.6879" id="edu.wpi.first.wpilibj2.command.Command" rx="2.5" ry="2.5" style="stroke:#181818;stroke-width:0.5;" width="178" x="40.5" y="7"/><ellipse cx="55.5" cy="28.344" fill="#A9DCDF" rx="11" ry="11" style="stroke:#181818;stroke-width:1.0;"/><path d="M50.6719,34.094 L54.0156,21.9065 L57.1563,21.9065 L60.5313,34.094 L58.0625,34.094 L57.3281,31.0783 L53.8125,31.0783 L53.0625,34.094 L50.6719,34.094 Z M55.0781,26.0471 L54.3281,29.0471 L56.8438,29.0471 L56.125,26.0471 Q55.9844,25.469 55.8594,24.9221 Q55.7344,24.3596 55.5938,23.7815 Q55.4844,24.3596 55.3438,24.9221 Q55.2031,25.469 55.0781,26.0471 Z " fill="#000000"/><text fill="#000000" font-family="sans-serif" font-size="14" font-style="italic" lengthAdjust="spacing" textLength="64" x="110.5" y="26.9659">Command</text><text fill="#000000" font-family="sans-serif" font-size="10" font-style="italic" lengthAdjust="spacing" textLength="146" x="69.5" y="41.7579">edu.wpi.first.wpilibj2.command</text></g><!--class frc.robot.commands.AcquisitionRunCommand.Mode--><a href="AcquisitionRunCommand.Mode.html" target="_top" title="AcquisitionRunCommand.Mode.html" xlink:actuate="onRequest" xlink:href="AcquisitionRunCommand.Mode.html" xlink:show="new" xlink:title="AcquisitionRunCommand.Mode.html" xlink:type="simple"><g id="elem_frc.robot.commands.AcquisitionRunCommand.Mode"><rect codeLine="16" fill="#F1F1F1" height="42.6879" id="frc.robot.commands.AcquisitionRunCommand.Mode" rx="2.5" ry="2.5" style="stroke:#181818;stroke-width:0.5;" width="245" x="7" y="361.85"/><ellipse cx="22" cy="383.194" fill="#EB937F" rx="11" ry="11" style="stroke:#181818;stroke-width:1.0;"/><path d="M18.3594,389.694 L18.3594,377.5533 L26.0156,377.5533 L26.0156,379.6783 L20.7344,379.6783 L20.7344,382.3346 L25.75,382.3346 L25.75,384.4596 L20.7344,384.4596 L20.7344,387.569 L26.0156,387.569 L26.0156,389.694 L18.3594,389.694 Z " fill="#000000"/><text fill="#000000" font-family="sans-serif" font-size="14" lengthAdjust="spacing" textLength="213" x="36" y="381.8159">AcquisitionRunCommand.Mode</text><text fill="#000000" font-family="sans-serif" font-size="10" lengthAdjust="spacing" textLength="96" x="94.5" y="396.6079">frc.robot.commands</text></g></a><!--reverse link edu.wpi.first.wpilibj2.command.Command to frc.robot.commands.AcquisitionRunCommand--><g id="link_edu.wpi.first.wpilibj2.command.Command_frc.robot.commands.AcquisitionRunCommand"><path codeLine="18" d="M129.5,68.16 C129.5,83.31 129.5,87.03 129.5,109.42 " fill="none" id="edu.wpi.first.wpilibj2.command.Command-backto-frc.robot.commands.AcquisitionRunCommand" style="stroke:#181818;stroke-width:1.0;"/><polygon fill="none" points="129.5,50.16,123.5,68.16,135.5,68.16,129.5,50.16" style="stroke:#181818;stroke-width:1.0;"/></g><!--reverse link frc.robot.commands.AcquisitionRunCommand to frc.robot.commands.AcquisitionRunCommand.Mode--><g id="link_frc.robot.commands.AcquisitionRunCommand_frc.robot.commands.AcquisitionRunCommand.Mode"><path codeLine="19" d="M129.5,318.18 C129.5,340.68 129.5,346.5 129.5,361.66 " fill="none" id="frc.robot.commands.AcquisitionRunCommand-backto-frc.robot.commands.AcquisitionRunCommand.Mode" style="stroke:#181818;stroke-width:1.0;"/><ellipse cx="129.5" cy="310.18" fill="#FFFFFF" rx="8" ry="8" style="stroke:#181818;stroke-width:1.0;"/><line style="stroke:#181818;stroke-width:1.0;" x1="129.5" x2="129.5" y1="318.18" y2="302.18"/><line style="stroke:#181818;stroke-width:1.0;" x1="121.5" x2="137.5" y1="310.18" y2="310.18"/></g><text fill="#888888" font-family="sans-serif" font-size="10" lengthAdjust="spacing" textLength="176" x="34.5" y="420.2279">UMLDoclet 2.1.2, PlantUML 1.2024.3</text><!--SRC=[hLDDImCn5BpxAnu5eQKssE9fAGLHl6X154-rXspobetDnvfaAtxzTvDqxHPRjO8v9ClCPF8oBmi0uD23fWfTHHdUOaKjzSQ2DXeF0Wsbu0YeAlyCXK39tLTKeIzDW1FE97KEEcCdNZ0RdanEsMCjdF32w9jQdncbgERtkk6F9uLbn9hSUC9MdEi0TR0DavrEC9ljn4dfbPpFuJKL5SU0jheCDZQrYeLW2xGPNAQrnPNXcC4qp6kil_FKRjJqMf7GGK1bk6gtby7I2Bx1kOj0kn9vv79Z9DAsbZu6jmRStFg-IfdcpblA_5RSsm4ZhybJ9KWXhFFnIuhyOVGPQmhxPmbfFDF1g6lrMtT9JE7_Mfpilkrp99jchwBPxp8mVXiCzYuX6U_z9Fj_S2RhLyLGUxHG61ENk-dLkM4o_9eZCYIZ8xYMLFk0mk4IhGiUtTu7]--></g></svg>