<?xml version="1.0" encoding="us-ascii" standalone="no"?><svg xmlns="http://www.w3.org/2000/svg" xmlns:xlink="http://www.w3.org/1999/xlink" contentStyleType="text/css" height="226px" preserveAspectRatio="none" style="width:259px;height:226px;background:#FFFFFF;" version="1.1" viewBox="0 0 259 226" width="259px" zoomAndPan="magnify"><defs/><g><!--class frc.robot.commands.AcquisitionRunCommand.Mode--><a href="AcquisitionRunCommand.Mode.html" target="_top" title="AcquisitionRunCommand.Mode.html" xlink:actuate="onRequest" xlink:href="AcquisitionRunCommand.Mode.html" xlink:show="new" xlink:title="AcquisitionRunCommand.Mode.html" xlink:type="simple"><g id="elem_frc.robot.commands.AcquisitionRunCommand.Mode"><rect codeLine="5" fill="#F1F1F1" height="88.8237" id="frc.robot.commands.AcquisitionRunCommand.Mode" rx="2.5" ry="2.5" style="stroke:#181818;stroke-width:0.5;" width="245" x="7" y="109.69"/><ellipse cx="22" cy="131.034" fill="#EB937F" rx="11" ry="11" style="stroke:#181818;stroke-width:1.0;"/><path d="M18.3594,137.534 L18.3594,125.3933 L26.0156,125.3933 L26.0156,127.5183 L20.7344,127.5183 L20.7344,130.1746 L25.75,130.1746 L25.75,132.2996 L20.7344,132.2996 L20.7344,135.409 L26.0156,135.409 L26.0156,137.534 L18.3594,137.534 Z " fill="#000000"/><text fill="#000000" font-family="sans-serif" font-size="14" lengthAdjust="spacing" textLength="213" x="36" y="129.6559">AcquisitionRunCommand.Mode</text><text fill="#000000" font-family="sans-serif" font-size="10" lengthAdjust="spacing" textLength="96" x="94.5" y="144.4479">frc.robot.commands</text><line style="stroke:#181818;stroke-width:0.5;" x1="8" x2="251" y1="152.3779" y2="152.3779"/><ellipse cx="18" cy="167.4119" fill="none" rx="3" ry="3" style="stroke:#038048;stroke-width:1.0;"/><text fill="#000000" font-family="sans-serif" font-size="14" lengthAdjust="spacing" text-decoration="underline" textLength="50" x="27" y="171.3438">INTAKE</text><ellipse cx="18" cy="186.4798" fill="none" rx="3" ry="3" style="stroke:#038048;stroke-width:1.0;"/><text fill="#000000" font-family="sans-serif" font-size="14" lengthAdjust="spacing" text-decoration="underline" textLength="58" x="27" y="190.4118">DISPOSE</text></g></a><!--class frc.robot.commands.AcquisitionRunCommand--><a href="AcquisitionRunCommand.html" target="_top" title="AcquisitionRunCommand.html" xlink:actuate="onRequest" xlink:href="AcquisitionRunCommand.html" xlink:show="new" xlink:title="AcquisitionRunCommand.html" xlink:type="simple"><g id="elem_frc.robot.commands.AcquisitionRunCommand"><rect codeLine="10" fill="#F1F1F1" height="42.6879" id="frc.robot.commands.AcquisitionRunCommand" rx="2.5" ry="2.5" style="stroke:#181818;stroke-width:0.5;" width="203" x="28" y="7"/><ellipse cx="43" cy="28.344" fill="#ADD1B2" rx="11" ry="11" style="stroke:#181818;stroke-width:1.0;"/><path d="M42.4688,35.2658 Q40.7188,35.2658 39.5781,34.5315 Q38.4531,33.7815 37.8906,32.4377 Q37.3438,31.0783 37.3438,29.2815 Q37.3438,27.2502 38,25.7971 Q38.6563,24.344 39.9375,23.5627 Q41.2188,22.7815 43.0938,22.7815 Q43.9844,22.7815 44.6563,22.969 Q45.3281,23.1408 46.0156,23.4846 L45.2031,25.5002 Q44.5781,25.1877 44.0313,25.0627 Q43.5,24.9377 43.0156,24.9377 Q41.8438,24.9377 41.1406,25.469 Q40.4375,26.0002 40.1406,26.9533 Q39.8438,27.9065 39.8438,29.1721 Q39.8438,31.1877 40.5625,32.1565 Q41.2813,33.1096 42.875,33.1096 Q43.4688,33.1096 44.0938,32.9533 Q44.7188,32.7971 45.5469,32.4221 L45.5469,34.6408 Q44.8125,34.9533 44.0156,35.1096 Q43.2344,35.2658 42.4688,35.2658 Z " fill="#000000"/><text fill="#000000" font-family="sans-serif" font-size="14" lengthAdjust="spacing" textLength="171" x="57" y="26.9659">AcquisitionRunCommand</text><text fill="#000000" font-family="sans-serif" font-size="10" lengthAdjust="spacing" textLength="96" x="94.5" y="41.7579">frc.robot.commands</text></g></a><!--reverse link frc.robot.commands.AcquisitionRunCommand to frc.robot.commands.AcquisitionRunCommand.Mode--><g id="link_frc.robot.commands.AcquisitionRunCommand_frc.robot.commands.AcquisitionRunCommand.Mode"><path codeLine="12" d="M129.5,66.06 C129.5,82.16 129.5,89.06 129.5,109.19 " fill="none" id="frc.robot.commands.AcquisitionRunCommand-backto-frc.robot.commands.AcquisitionRunCommand.Mode" style="stroke:#181818;stroke-width:1.0;"/><ellipse cx="129.5" cy="58.06" fill="#FFFFFF" rx="8" ry="8" style="stroke:#181818;stroke-width:1.0;"/><line style="stroke:#181818;stroke-width:1.0;" x1="129.5" x2="129.5" y1="66.06" y2="50.06"/><line style="stroke:#181818;stroke-width:1.0;" x1="121.5" x2="137.5" y1="58.06" y2="58.06"/></g><text fill="#888888" font-family="sans-serif" font-size="10" lengthAdjust="spacing" textLength="176" x="34.5" y="215.2037">UMLDoclet 2.1.2, PlantUML 1.2024.3</text><!--SRC=[hPB1IWCn48RlFiLG49JQO8idaKAn7efMYsjFjOUOdMK3IMRDp0fQ-kwcZITrKS5S0jy__CmN0W30A12qHswqmG8R7RLGX4013r8CjIqHq3Vo2fL5L_9dwb5gIdZFCRGUUXTit_1yU3QUcEVMiXLBuRuDb-Iz3gMQKucFuMFeT5n5eo8zaIYJ1xW7ck4hLjrri5frXweMxzPhsEnNt9qDYnPhjj2VtJvChg- -2QQpOd5Nv6IRvOpJp3_P_PzOfrFMoJlzkgm_6FpjIRCo1i485T7kMivlfcHS-Z4ZDLIZ4rWu7IHHE7p1oAdZwFWT]--></g></svg>