<?xml version="1.0" encoding="us-ascii" standalone="no"?><svg xmlns="http://www.w3.org/2000/svg" xmlns:xlink="http://www.w3.org/1999/xlink" contentStyleType="text/css" height="291px" preserveAspectRatio="none" style="width:355px;height:291px;background:#FFFFFF;" version="1.1" viewBox="0 0 355 291" width="355px" zoomAndPan="magnify"><defs/><g><!--class frc.robot.commands.AcquisitionPivotCommand--><a href="AcquisitionPivotCommand.html" target="_top" title="AcquisitionPivotCommand.html" xlink:actuate="onRequest" xlink:href="AcquisitionPivotCommand.html" xlink:show="new" xlink:title="AcquisitionPivotCommand.html" xlink:type="simple"><g id="elem_frc.robot.commands.AcquisitionPivotCommand"><rect codeLine="5" fill="#F1F1F1" height="154.0275" id="frc.robot.commands.AcquisitionPivotCommand" rx="2.5" ry="2.5" style="stroke:#181818;stroke-width:0.5;" width="341" x="7" y="109.69"/><ellipse cx="85.25" cy="131.034" fill="#ADD1B2" rx="11" ry="11" style="stroke:#181818;stroke-width:1.0;"/><path d="M84.7188,137.9558 Q82.9688,137.9558 81.8281,137.2215 Q80.7031,136.4715 80.1406,135.1277 Q79.5938,133.7683 79.5938,131.9715 Q79.5938,129.9402 80.25,128.4871 Q80.9063,127.034 82.1875,126.2527 Q83.4688,125.4715 85.3438,125.4715 Q86.2344,125.4715 86.9063,125.659 Q87.5781,125.8308 88.2656,126.1746 L87.4531,128.1902 Q86.8281,127.8777 86.2813,127.7527 Q85.75,127.6277 85.2656,127.6277 Q84.0938,127.6277 83.3906,128.159 Q82.6875,128.6902 82.3906,129.6433 Q82.0938,130.5965 82.0938,131.8621 Q82.0938,133.8777 82.8125,134.8465 Q83.5313,135.7996 85.125,135.7996 Q85.7188,135.7996 86.3438,135.6433 Q86.9688,135.4871 87.7969,135.1121 L87.7969,137.3308 Q87.0625,137.6433 86.2656,137.7996 Q85.4844,137.9558 84.7188,137.9558 Z " fill="#000000"/><text fill="#000000" font-family="sans-serif" font-size="14" lengthAdjust="spacing" textLength="176" x="105.75" y="129.6559">AcquisitionPivotCommand</text><text fill="#000000" font-family="sans-serif" font-size="10" lengthAdjust="spacing" textLength="96" x="145.75" y="144.4479">frc.robot.commands</text><line style="stroke:#181818;stroke-width:0.5;" x1="8" x2="347" y1="152.3779" y2="152.3779"/><rect fill="none" height="6" style="stroke:#C82930;stroke-width:1.0;" width="6" x="15" y="164.4119"/><text fill="#000000" font-family="sans-serif" font-size="14" lengthAdjust="spacing" textLength="157" x="27" y="171.3438">acquisition: Acquisition</text><rect fill="none" height="6" style="stroke:#C82930;stroke-width:1.0;" width="6" x="15" y="183.4798"/><text fill="#000000" font-family="sans-serif" font-size="14" lengthAdjust="spacing" textLength="194" x="27" y="190.4118">setpoint: AcquisitionSetpoint</text><line style="stroke:#181818;stroke-width:0.5;" x1="8" x2="347" y1="198.5137" y2="198.5137"/><ellipse cx="18" cy="213.5477" fill="#84BE84" rx="3" ry="3" style="stroke:#038048;stroke-width:1.0;"/><text fill="#000000" font-family="sans-serif" font-size="14" lengthAdjust="spacing" textLength="315" x="27" y="217.4797">AcquisitionPivotCommand(AcquisitionSetpoint)</text><ellipse cx="18" cy="232.6156" fill="#84BE84" rx="3" ry="3" style="stroke:#038048;stroke-width:1.0;"/><text fill="#000000" font-family="sans-serif" font-size="14" lengthAdjust="spacing" textLength="101" x="27" y="236.5476">initialize(): void</text><ellipse cx="18" cy="251.6835" fill="#84BE84" rx="3" ry="3" style="stroke:#038048;stroke-width:1.0;"/><text fill="#000000" font-family="sans-serif" font-size="14" lengthAdjust="spacing" textLength="138" x="27" y="255.6155">isFinished(): boolean</text></g></a><!--class edu.wpi.first.wpilibj2.command.Command--><g id="elem_edu.wpi.first.wpilibj2.command.Command"><rect codeLine="13" fill="#F1F1F1" height="42.6879" id="edu.wpi.first.wpilibj2.command.Command" rx="2.5" ry="2.5" style="stroke:#181818;stroke-width:0.5;" width="178" x="88.5" y="7"/><ellipse cx="103.5" cy="28.344" fill="#A9DCDF" rx="11" ry="11" style="stroke:#181818;stroke-width:1.0;"/><path d="M98.6719,34.094 L102.0156,21.9065 L105.1563,21.9065 L108.5313,34.094 L106.0625,34.094 L105.3281,31.0783 L101.8125,31.0783 L101.0625,34.094 L98.6719,34.094 Z M103.0781,26.0471 L102.3281,29.0471 L104.8438,29.0471 L104.125,26.0471 Q103.9844,25.469 103.8594,24.9221 Q103.7344,24.3596 103.5938,23.7815 Q103.4844,24.3596 103.3438,24.9221 Q103.2031,25.469 103.0781,26.0471 Z " fill="#000000"/><text fill="#000000" font-family="sans-serif" font-size="14" font-style="italic" lengthAdjust="spacing" textLength="64" x="158.5" y="26.9659">Command</text><text fill="#000000" font-family="sans-serif" font-size="10" font-style="italic" lengthAdjust="spacing" textLength="146" x="117.5" y="41.7579">edu.wpi.first.wpilibj2.command</text></g><!--reverse link edu.wpi.first.wpilibj2.command.Command to frc.robot.commands.AcquisitionPivotCommand--><g id="link_edu.wpi.first.wpilibj2.command.Command_frc.robot.commands.AcquisitionPivotCommand"><path codeLine="15" d="M177.5,68.11 C177.5,83.48 177.5,87.44 177.5,109.23 " fill="none" id="edu.wpi.first.wpilibj2.command.Command-backto-frc.robot.commands.AcquisitionPivotCommand" style="stroke:#181818;stroke-width:1.0;"/><polygon fill="none" points="177.5,50.11,171.5,68.11,183.5,68.11,177.5,50.11" style="stroke:#181818;stroke-width:1.0;"/></g><text fill="#888888" font-family="sans-serif" font-size="10" lengthAdjust="spacing" textLength="176" x="82.5" y="280.4075">UMLDoclet 2.1.2, PlantUML 1.2024.3</text><!--SRC=[bP9FImCn4CNlVef145gqmHPFfHH4yQHGA9vg3zdiB3kIpQoPQSL_tzrijzfghMWk2U_tPfAy1010K27O2gMs3gTOssYL8mGEU90mb9GZO5Nh4nI4FfVlQeLQSf9NklDM10v7Giyux9-Dpzt3WeIKE4neoNh1LML3VXVMZjDn4Ps9dB4Qrp8v12kmAvizlM0ssqDCgPMVp-5bTRHczEp6EOIjieqZvL4p1Vs2fslnqtQyPylE3qNTJHM5HAnFL-zqXx1aohUON2Ki9UODovWzslPSRsssDXEDrkbEoBkXOhumZpMPWg9ei_AKtGy-ebm5_Bl5h7ksE__D2wFNNkyV3zT-60oA4GhcPhgzkRvavzEN79Y-6Pp0nDkWIOMZ9KP93JhTTm00]--></g></svg>