<?xml version="1.0" encoding="us-ascii" standalone="no"?><svg xmlns="http://www.w3.org/2000/svg" xmlns:xlink="http://www.w3.org/1999/xlink" contentStyleType="text/css" height="365px" preserveAspectRatio="none" style="width:259px;height:365px;background:#FFFFFF;" version="1.1" viewBox="0 0 259 365" width="259px" zoomAndPan="magnify"><defs/><g><!--class frc.robot.commands.AcquisitionRunCommand--><a href="AcquisitionRunCommand.html" target="_top" title="AcquisitionRunCommand.html" xlink:actuate="onRequest" xlink:href="AcquisitionRunCommand.html" xlink:show="new" xlink:title="AcquisitionRunCommand.html" xlink:type="simple"><g id="elem_frc.robot.commands.AcquisitionRunCommand"><rect codeLine="5" fill="#F1F1F1" height="126.9596" id="frc.robot.commands.AcquisitionRunCommand" rx="2.5" ry="2.5" style="stroke:#181818;stroke-width:0.5;" width="243" x="8" y="109.69"/><ellipse cx="41" cy="131.034" fill="#ADD1B2" rx="11" ry="11" style="stroke:#181818;stroke-width:1.0;"/><path d="M40.4688,137.9558 Q38.7188,137.9558 37.5781,137.2215 Q36.4531,136.4715 35.8906,135.1277 Q35.3438,133.7683 35.3438,131.9715 Q35.3438,129.9402 36,128.4871 Q36.6563,127.034 37.9375,126.2527 Q39.2188,125.4715 41.0938,125.4715 Q41.9844,125.4715 42.6563,125.659 Q43.3281,125.8308 44.0156,126.1746 L43.2031,128.1902 Q42.5781,127.8777 42.0313,127.7527 Q41.5,127.6277 41.0156,127.6277 Q39.8438,127.6277 39.1406,128.159 Q38.4375,128.6902 38.1406,129.6433 Q37.8438,130.5965 37.8438,131.8621 Q37.8438,133.8777 38.5625,134.8465 Q39.2813,135.7996 40.875,135.7996 Q41.4688,135.7996 42.0938,135.6433 Q42.7188,135.4871 43.5469,135.1121 L43.5469,137.3308 Q42.8125,137.6433 42.0156,137.7996 Q41.2344,137.9558 40.4688,137.9558 Z " fill="#000000"/><text fill="#000000" font-family="sans-serif" font-size="14" lengthAdjust="spacing" textLength="171" x="59" y="129.6559">AcquisitionRunCommand</text><text fill="#000000" font-family="sans-serif" font-size="10" lengthAdjust="spacing" textLength="96" x="96.5" y="144.4479">frc.robot.commands</text><line style="stroke:#181818;stroke-width:0.5;" x1="9" x2="250" y1="152.3779" y2="152.3779"/><ellipse cx="19" cy="167.4119" fill="#84BE84" rx="3" ry="3" style="stroke:#038048;stroke-width:1.0;"/><text fill="#000000" font-family="sans-serif" font-size="14" lengthAdjust="spacing" textLength="217" x="28" y="171.3438">AcquisitionRunCommand(Mode)</text><ellipse cx="19" cy="186.4798" fill="#84BE84" rx="3" ry="3" style="stroke:#038048;stroke-width:1.0;"/><text fill="#000000" font-family="sans-serif" font-size="14" lengthAdjust="spacing" textLength="101" x="28" y="190.4118">initialize(): void</text><ellipse cx="19" cy="205.5477" fill="#84BE84" rx="3" ry="3" style="stroke:#038048;stroke-width:1.0;"/><text fill="#000000" font-family="sans-serif" font-size="14" lengthAdjust="spacing" textLength="138" x="28" y="209.4797">isFinished(): boolean</text><ellipse cx="19" cy="224.6156" fill="#84BE84" rx="3" ry="3" style="stroke:#038048;stroke-width:1.0;"/><text fill="#000000" font-family="sans-serif" font-size="14" lengthAdjust="spacing" textLength="124" x="28" y="228.5476">end(boolean): void</text></g></a><!--class edu.wpi.first.wpilibj2.command.Command--><g id="elem_edu.wpi.first.wpilibj2.command.Command"><rect codeLine="12" fill="#F1F1F1" height="42.6879" id="edu.wpi.first.wpilibj2.command.Command" rx="2.5" ry="2.5" style="stroke:#181818;stroke-width:0.5;" width="178" x="40.5" y="7"/><ellipse cx="55.5" cy="28.344" fill="#A9DCDF" rx="11" ry="11" style="stroke:#181818;stroke-width:1.0;"/><path d="M50.6719,34.094 L54.0156,21.9065 L57.1563,21.9065 L60.5313,34.094 L58.0625,34.094 L57.3281,31.0783 L53.8125,31.0783 L53.0625,34.094 L50.6719,34.094 Z M55.0781,26.0471 L54.3281,29.0471 L56.8438,29.0471 L56.125,26.0471 Q55.9844,25.469 55.8594,24.9221 Q55.7344,24.3596 55.5938,23.7815 Q55.4844,24.3596 55.3438,24.9221 Q55.2031,25.469 55.0781,26.0471 Z " fill="#000000"/><text fill="#000000" font-family="sans-serif" font-size="14" font-style="italic" lengthAdjust="spacing" textLength="64" x="110.5" y="26.9659">Command</text><text fill="#000000" font-family="sans-serif" font-size="10" font-style="italic" lengthAdjust="spacing" textLength="146" x="69.5" y="41.7579">edu.wpi.first.wpilibj2.command</text></g><!--class frc.robot.commands.AcquisitionRunCommand.Mode--><a href="AcquisitionRunCommand.Mode.html" target="_top" title="AcquisitionRunCommand.Mode.html" xlink:actuate="onRequest" xlink:href="AcquisitionRunCommand.Mode.html" xlink:show="new" xlink:title="AcquisitionRunCommand.Mode.html" xlink:type="simple"><g id="elem_frc.robot.commands.AcquisitionRunCommand.Mode"><rect codeLine="13" fill="#F1F1F1" height="42.6879" id="frc.robot.commands.AcquisitionRunCommand.Mode" rx="2.5" ry="2.5" style="stroke:#181818;stroke-width:0.5;" width="245" x="7" y="296.65"/><ellipse cx="22" cy="317.994" fill="#EB937F" rx="11" ry="11" style="stroke:#181818;stroke-width:1.0;"/><path d="M18.3594,324.494 L18.3594,312.3533 L26.0156,312.3533 L26.0156,314.4783 L20.7344,314.4783 L20.7344,317.1346 L25.75,317.1346 L25.75,319.2596 L20.7344,319.2596 L20.7344,322.369 L26.0156,322.369 L26.0156,324.494 L18.3594,324.494 Z " fill="#000000"/><text fill="#000000" font-family="sans-serif" font-size="14" lengthAdjust="spacing" textLength="213" x="36" y="316.6159">AcquisitionRunCommand.Mode</text><text fill="#000000" font-family="sans-serif" font-size="10" lengthAdjust="spacing" textLength="96" x="94.5" y="331.4079">frc.robot.commands</text></g></a><!--reverse link edu.wpi.first.wpilibj2.command.Command to frc.robot.commands.AcquisitionRunCommand--><g id="link_edu.wpi.first.wpilibj2.command.Command_frc.robot.commands.AcquisitionRunCommand"><path codeLine="15" d="M129.5,68.12 C129.5,83.74 129.5,88.04 129.5,109.31 " fill="none" id="edu.wpi.first.wpilibj2.command.Command-backto-frc.robot.commands.AcquisitionRunCommand" style="stroke:#181818;stroke-width:1.0;"/><polygon fill="none" points="129.5,50.12,123.5,68.12,135.5,68.12,129.5,50.12" style="stroke:#181818;stroke-width:1.0;"/></g><!--reverse link frc.robot.commands.AcquisitionRunCommand to frc.robot.commands.AcquisitionRunCommand.Mode--><g id="link_frc.robot.commands.AcquisitionRunCommand_frc.robot.commands.AcquisitionRunCommand.Mode"><path codeLine="16" d="M129.5,252.82 C129.5,274.25 129.5,280.76 129.5,296.45 " fill="none" id="frc.robot.commands.AcquisitionRunCommand-backto-frc.robot.commands.AcquisitionRunCommand.Mode" style="stroke:#181818;stroke-width:1.0;"/><ellipse cx="129.5" cy="244.82" fill="#FFFFFF" rx="8" ry="8" style="stroke:#181818;stroke-width:1.0;"/><line style="stroke:#181818;stroke-width:1.0;" x1="129.5" x2="129.5" y1="252.82" y2="236.82"/><line style="stroke:#181818;stroke-width:1.0;" x1="121.5" x2="137.5" y1="244.82" y2="244.82"/></g><text fill="#888888" font-family="sans-serif" font-size="10" lengthAdjust="spacing" textLength="176" x="34.5" y="355.0279">UMLDoclet 2.1.2, PlantUML 1.2024.3</text><!--SRC=[hLDDImCn4BtxAuQ2qA8DjdWgfI2A9mkYUAezP9DPDfBDh9binQ__RZQxqcAhLZ2NXFScBvFt4W00nW1EbiYLL7YBbVGoa0T73WyY3ONH25XMuHboWrRpLxJ4K5244wwiP8RUbCqBJaQdipFrM1ismP2xgTqvbQLq-jvr_CaizqfuoYW8rNBS0ycm3OkTIh1OxCH54KgxNC9hQgePHplh-dFIE5WN6HSBf8tDzGSJM97H6nnVHfeBr0sN4LcKRarZLEl0pQtlhIyou-2b2bi6RLk2kXPFbH6vyHoQbJNPm_ZJY6JFpoMYqqm7ewlBt_8GZGl_5qgI-pQPXkpYQQtPxp8mVHiEzsuX2U_zY8x-e9pwRvywke0USg9ckfjVNP2oyJEDnKYCZ-7QIXSY2eShz1mr-eCF]--></g></svg>