<?xml version="1.0" encoding="us-ascii" standalone="no"?><svg xmlns="http://www.w3.org/2000/svg" xmlns:xlink="http://www.w3.org/1999/xlink" contentStyleType="text/css" height="310px" preserveAspectRatio="none" style="width:235px;height:310px;background:#FFFFFF;" version="1.1" viewBox="0 0 235 310" width="235px" zoomAndPan="magnify"><defs/><g><!--class frc.robot.commands.AdjustHoodsCommand--><a href="AdjustHoodsCommand.html" target="_top" title="AdjustHoodsCommand.html" xlink:actuate="onRequest" xlink:href="AdjustHoodsCommand.html" xlink:show="new" xlink:title="AdjustHoodsCommand.html" xlink:type="simple"><g id="elem_frc.robot.commands.AdjustHoodsCommand"><rect codeLine="5" fill="#F1F1F1" height="173.0954" id="frc.robot.commands.AdjustHoodsCommand" rx="2.5" ry="2.5" style="stroke:#181818;stroke-width:0.5;" width="221" x="7" y="109.68"/><ellipse cx="37.75" cy="131.024" fill="#ADD1B2" rx="11" ry="11" style="stroke:#181818;stroke-width:1.0;"/><path d="M37.2188,137.9458 Q35.4688,137.9458 34.3281,137.2115 Q33.2031,136.4615 32.6406,135.1177 Q32.0938,133.7583 32.0938,131.9615 Q32.0938,129.9302 32.75,128.4771 Q33.4063,127.024 34.6875,126.2427 Q35.9688,125.4615 37.8438,125.4615 Q38.7344,125.4615 39.4063,125.649 Q40.0781,125.8208 40.7656,126.1646 L39.9531,128.1802 Q39.3281,127.8677 38.7813,127.7427 Q38.25,127.6177 37.7656,127.6177 Q36.5938,127.6177 35.8906,128.149 Q35.1875,128.6802 34.8906,129.6333 Q34.5938,130.5865 34.5938,131.8521 Q34.5938,133.8677 35.3125,134.8365 Q36.0313,135.7896 37.625,135.7896 Q38.2188,135.7896 38.8438,135.6333 Q39.4688,135.4771 40.2969,135.1021 L40.2969,137.3208 Q39.5625,137.6333 38.7656,137.7896 Q37.9844,137.9458 37.2188,137.9458 Z " fill="#000000"/><text fill="#000000" font-family="sans-serif" font-size="14" lengthAdjust="spacing" textLength="154" x="55.25" y="129.6459">AdjustHoodsCommand</text><text fill="#000000" font-family="sans-serif" font-size="10" lengthAdjust="spacing" textLength="96" x="84.25" y="144.4379">frc.robot.commands</text><line style="stroke:#181818;stroke-width:0.5;" x1="8" x2="227" y1="152.3679" y2="152.3679"/><rect fill="none" height="6" style="stroke:#C82930;stroke-width:1.0;" width="6" x="15" y="164.4019"/><text fill="#000000" font-family="sans-serif" font-size="14" lengthAdjust="spacing" textLength="195" x="27" y="171.3338">shooterHoods: ShooterHoods</text><rect fill="none" height="6" style="stroke:#C82930;stroke-width:1.0;" width="6" x="15" y="183.4698"/><text fill="#000000" font-family="sans-serif" font-size="14" lengthAdjust="spacing" textLength="111" x="27" y="190.4018">shooter: Shooter</text><rect fill="none" height="6" style="stroke:#C82930;stroke-width:1.0;" width="6" x="15" y="202.5377"/><text fill="#000000" font-family="sans-serif" font-size="14" lengthAdjust="spacing" textLength="147" x="27" y="209.4697">driveTrain: DriveTrain</text><rect fill="none" height="6" style="stroke:#C82930;stroke-width:1.0;" width="6" x="15" y="221.6056"/><text fill="#000000" font-family="sans-serif" font-size="14" lengthAdjust="spacing" textLength="155" x="27" y="228.5376">dashboard: Dashboard</text><line style="stroke:#181818;stroke-width:0.5;" x1="8" x2="227" y1="236.6396" y2="236.6396"/><ellipse cx="18" cy="251.6735" fill="#84BE84" rx="3" ry="3" style="stroke:#038048;stroke-width:1.0;"/><text fill="#000000" font-family="sans-serif" font-size="14" lengthAdjust="spacing" textLength="96" x="27" y="255.6055">execute(): void</text><ellipse cx="18" cy="270.7414" fill="#84BE84" rx="3" ry="3" style="stroke:#038048;stroke-width:1.0;"/><text fill="#000000" font-family="sans-serif" font-size="14" lengthAdjust="spacing" textLength="138" x="27" y="274.6734">isFinished(): boolean</text></g></a><!--class edu.wpi.first.wpilibj2.command.Command--><g id="elem_edu.wpi.first.wpilibj2.command.Command"><rect codeLine="14" fill="#F1F1F1" height="42.6879" id="edu.wpi.first.wpilibj2.command.Command" rx="2.5" ry="2.5" style="stroke:#181818;stroke-width:0.5;" width="178" x="28.5" y="7"/><ellipse cx="43.5" cy="28.344" fill="#A9DCDF" rx="11" ry="11" style="stroke:#181818;stroke-width:1.0;"/><path d="M38.6719,34.094 L42.0156,21.9065 L45.1563,21.9065 L48.5313,34.094 L46.0625,34.094 L45.3281,31.0783 L41.8125,31.0783 L41.0625,34.094 L38.6719,34.094 Z M43.0781,26.0471 L42.3281,29.0471 L44.8438,29.0471 L44.125,26.0471 Q43.9844,25.469 43.8594,24.9221 Q43.7344,24.3596 43.5938,23.7815 Q43.4844,24.3596 43.3438,24.9221 Q43.2031,25.469 43.0781,26.0471 Z " fill="#000000"/><text fill="#000000" font-family="sans-serif" font-size="14" font-style="italic" lengthAdjust="spacing" textLength="64" x="98.5" y="26.9659">Command</text><text fill="#000000" font-family="sans-serif" font-size="10" font-style="italic" lengthAdjust="spacing" textLength="146" x="57.5" y="41.7579">edu.wpi.first.wpilibj2.command</text></g><!--reverse link edu.wpi.first.wpilibj2.command.Command to frc.robot.commands.AdjustHoodsCommand--><g id="link_edu.wpi.first.wpilibj2.command.Command_frc.robot.commands.AdjustHoodsCommand"><path codeLine="16" d="M117.5,68.02 C117.5,83.3 117.5,87.24 117.5,109.45 " fill="none" id="edu.wpi.first.wpilibj2.command.Command-backto-frc.robot.commands.AdjustHoodsCommand" style="stroke:#181818;stroke-width:1.0;"/><polygon fill="none" points="117.5,50.02,111.5,68.02,123.5,68.02,117.5,50.02" style="stroke:#181818;stroke-width:1.0;"/></g><text fill="#888888" font-family="sans-serif" font-size="10" lengthAdjust="spacing" textLength="176" x="22.5" y="299.4654">UMLDoclet 2.1.2, PlantUML 1.2024.3</text><!--SRC=[ZP9FImCn4CNlVef145gqmHPFIoc8HJme2DLJxM4scMLJifabazR_tzrqjwt51MbEa_Txp8IN0G0GYk2n8gbHqung31WvW6TF9mb3QGq1LNLyXyAIC_9NhIYMdEH6rmv5u7GizeEouTNasYnN4kyu6Mwugj2R5x-5bvCYQ1KuvwXqo-GKKA0hgsuRcC-xeYfZvHOB-6pUiZa3APaZXSQLmUpWrl7iyIynmQxfAQ3r6KptzG57ANF6O1BUbNjwJc-aLv5w_GpMR0-0bLlhhPHaDYndTeHjr-ysHimb1jInasStH38hzLfRLTWWSLCvcoz7k-YQGF-tg6tFTl9nNXX_3GR7VLIx5kHJhb0qySBpm_sKjKkBDr93DRg0HuS-9XNErXJ4ik_rVm00]--></g></svg>