<?xml version="1.0" encoding="us-ascii" standalone="no"?><svg xmlns="http://www.w3.org/2000/svg" xmlns:xlink="http://www.w3.org/1999/xlink" contentStyleType="text/css" height="226px" preserveAspectRatio="none" style="width:200px;height:226px;background:#FFFFFF;" version="1.1" viewBox="0 0 200 226" width="200px" zoomAndPan="magnify"><defs/><g><!--class frc.robot.commands.AdjustHoodsCommand--><a href="AdjustHoodsCommand.html" target="_top" title="AdjustHoodsCommand.html" xlink:actuate="onRequest" xlink:href="AdjustHoodsCommand.html" xlink:show="new" xlink:title="AdjustHoodsCommand.html" xlink:type="simple"><g id="elem_frc.robot.commands.AdjustHoodsCommand"><rect codeLine="5" fill="#F1F1F1" height="88.8237" id="frc.robot.commands.AdjustHoodsCommand" rx="2.5" ry="2.5" style="stroke:#181818;stroke-width:0.5;" width="186" x="7" y="109.69"/><ellipse cx="22" cy="131.034" fill="#ADD1B2" rx="11" ry="11" style="stroke:#181818;stroke-width:1.0;"/><path d="M21.4688,137.9558 Q19.7188,137.9558 18.5781,137.2215 Q17.4531,136.4715 16.8906,135.1277 Q16.3438,133.7683 16.3438,131.9715 Q16.3438,129.9402 17,128.4871 Q17.6563,127.034 18.9375,126.2527 Q20.2188,125.4715 22.0938,125.4715 Q22.9844,125.4715 23.6563,125.659 Q24.3281,125.8308 25.0156,126.1746 L24.2031,128.1902 Q23.5781,127.8777 23.0313,127.7527 Q22.5,127.6277 22.0156,127.6277 Q20.8438,127.6277 20.1406,128.159 Q19.4375,128.6902 19.1406,129.6433 Q18.8438,130.5965 18.8438,131.8621 Q18.8438,133.8777 19.5625,134.8465 Q20.2813,135.7996 21.875,135.7996 Q22.4688,135.7996 23.0938,135.6433 Q23.7188,135.4871 24.5469,135.1121 L24.5469,137.3308 Q23.8125,137.6433 23.0156,137.7996 Q22.2344,137.9558 21.4688,137.9558 Z " fill="#000000"/><text fill="#000000" font-family="sans-serif" font-size="14" lengthAdjust="spacing" textLength="154" x="36" y="129.6559">AdjustHoodsCommand</text><text fill="#000000" font-family="sans-serif" font-size="10" lengthAdjust="spacing" textLength="96" x="65" y="144.4479">frc.robot.commands</text><line style="stroke:#181818;stroke-width:0.5;" x1="8" x2="192" y1="152.3779" y2="152.3779"/><ellipse cx="18" cy="167.4119" fill="#84BE84" rx="3" ry="3" style="stroke:#038048;stroke-width:1.0;"/><text fill="#000000" font-family="sans-serif" font-size="14" lengthAdjust="spacing" textLength="96" x="27" y="171.3438">execute(): void</text><ellipse cx="18" cy="186.4798" fill="#84BE84" rx="3" ry="3" style="stroke:#038048;stroke-width:1.0;"/><text fill="#000000" font-family="sans-serif" font-size="14" lengthAdjust="spacing" textLength="138" x="27" y="190.4118">isFinished(): boolean</text></g></a><!--class edu.wpi.first.wpilibj2.command.Command--><g id="elem_edu.wpi.first.wpilibj2.command.Command"><rect codeLine="10" fill="#F1F1F1" height="42.6879" id="edu.wpi.first.wpilibj2.command.Command" rx="2.5" ry="2.5" style="stroke:#181818;stroke-width:0.5;" width="178" x="11" y="7"/><ellipse cx="26" cy="28.344" fill="#A9DCDF" rx="11" ry="11" style="stroke:#181818;stroke-width:1.0;"/><path d="M21.1719,34.094 L24.5156,21.9065 L27.6563,21.9065 L31.0313,34.094 L28.5625,34.094 L27.8281,31.0783 L24.3125,31.0783 L23.5625,34.094 L21.1719,34.094 Z M25.5781,26.0471 L24.8281,29.0471 L27.3438,29.0471 L26.625,26.0471 Q26.4844,25.469 26.3594,24.9221 Q26.2344,24.3596 26.0938,23.7815 Q25.9844,24.3596 25.8438,24.9221 Q25.7031,25.469 25.5781,26.0471 Z " fill="#000000"/><text fill="#000000" font-family="sans-serif" font-size="14" font-style="italic" lengthAdjust="spacing" textLength="64" x="81" y="26.9659">Command</text><text fill="#000000" font-family="sans-serif" font-size="10" font-style="italic" lengthAdjust="spacing" textLength="146" x="40" y="41.7579">edu.wpi.first.wpilibj2.command</text></g><!--reverse link edu.wpi.first.wpilibj2.command.Command to frc.robot.commands.AdjustHoodsCommand--><g id="link_edu.wpi.first.wpilibj2.command.Command_frc.robot.commands.AdjustHoodsCommand"><path codeLine="12" d="M100,68.06 C100,84.16 100,89.06 100,109.19 " fill="none" id="edu.wpi.first.wpilibj2.command.Command-backto-frc.robot.commands.AdjustHoodsCommand" style="stroke:#181818;stroke-width:1.0;"/><polygon fill="none" points="100,50.06,94,68.06,106,68.06,100,50.06" style="stroke:#181818;stroke-width:1.0;"/></g><text fill="#888888" font-family="sans-serif" font-size="10" lengthAdjust="spacing" textLength="176" x="5" y="215.2037">UMLDoclet 2.1.2, PlantUML 1.2024.3</text><!--SRC=[ZP5DImCn48Rl_egXK6ZH1hjuAgKW5l6W88YdsaCscMLJaioIcQtV_ztzg0XTaEQIyBmlC_Dc000O1Q8Eo9Ks-8ILJbeeGQI8PuqCfRC862fvXyAXjtnC0qf93UwuyPePHajs7xYONwskxQvckQF6S4CXw6XVua6yN1N9g4GvYJAznYFG34EiXcLWinb2LKhmsoryThEqvnpVqDI2a-a2zkJid-3uraN79TfMouaywjZ9ttqKdRCaRMIGQHW4RQrUAwSAbrZQbtVvBliTlmlrlqKTQlQTJ_F2ycisE-sp-jLW54nG4BNNyyFzcenlbf-fkSekuD7hA0s5yHuJEugJwGy0]--></g></svg>