<?xml version="1.0" encoding="us-ascii" standalone="no"?><svg xmlns="http://www.w3.org/2000/svg" xmlns:xlink="http://www.w3.org/1999/xlink" contentStyleType="text/css" height="310px" preserveAspectRatio="none" style="width:501px;height:310px;background:#FFFFFF;" version="1.1" viewBox="0 0 501 310" width="501px" zoomAndPan="magnify"><defs/><g><!--class frc.robot.commands.AlignCommand--><a href="AlignCommand.html" target="_top" title="AlignCommand.html" xlink:actuate="onRequest" xlink:href="AlignCommand.html" xlink:show="new" xlink:title="AlignCommand.html" xlink:type="simple"><g id="elem_frc.robot.commands.AlignCommand"><rect codeLine="5" fill="#F1F1F1" height="173.0954" id="frc.robot.commands.AlignCommand" rx="2.5" ry="2.5" style="stroke:#181818;stroke-width:0.5;" width="487" x="7" y="109.68"/><ellipse cx="194.25" cy="131.024" fill="#ADD1B2" rx="11" ry="11" style="stroke:#181818;stroke-width:1.0;"/><path d="M193.7188,137.9458 Q191.9688,137.9458 190.8281,137.2115 Q189.7031,136.4615 189.1406,135.1177 Q188.5938,133.7583 188.5938,131.9615 Q188.5938,129.9302 189.25,128.4771 Q189.9063,127.024 191.1875,126.2427 Q192.4688,125.4615 194.3438,125.4615 Q195.2344,125.4615 195.9063,125.649 Q196.5781,125.8208 197.2656,126.1646 L196.4531,128.1802 Q195.8281,127.8677 195.2813,127.7427 Q194.75,127.6177 194.2656,127.6177 Q193.0938,127.6177 192.3906,128.149 Q191.6875,128.6802 191.3906,129.6333 Q191.0938,130.5865 191.0938,131.8521 Q191.0938,133.8677 191.8125,134.8365 Q192.5313,135.7896 194.125,135.7896 Q194.7188,135.7896 195.3438,135.6333 Q195.9688,135.4771 196.7969,135.1021 L196.7969,137.3208 Q196.0625,137.6333 195.2656,137.7896 Q194.4844,137.9458 193.7188,137.9458 Z " fill="#000000"/><text fill="#000000" font-family="sans-serif" font-size="14" lengthAdjust="spacing" textLength="104" x="214.75" y="129.6459">AlignCommand</text><text fill="#000000" font-family="sans-serif" font-size="10" lengthAdjust="spacing" textLength="96" x="218.75" y="144.4379">frc.robot.commands</text><line style="stroke:#181818;stroke-width:0.5;" x1="8" x2="493" y1="152.3679" y2="152.3679"/><ellipse cx="18" cy="167.4019" fill="none" rx="3" ry="3" style="stroke:#038048;stroke-width:1.0;"/><text fill="#000000" font-family="sans-serif" font-size="14" lengthAdjust="spacing" text-decoration="underline" textLength="312" x="27" y="171.3338">HUB_ALIGNMENT_RUMBLE_INTENSITY: double</text><line style="stroke:#181818;stroke-width:0.5;" x1="8" x2="493" y1="179.4358" y2="179.4358"/><ellipse cx="18" cy="194.4698" fill="#84BE84" rx="3" ry="3" style="stroke:#038048;stroke-width:1.0;"/><text fill="#000000" font-family="sans-serif" font-size="14" lengthAdjust="spacing" textLength="461" x="27" y="198.4018">AlignCommand(DoubleSupplier, DoubleSupplier, BooleanConsumer)</text><ellipse cx="18" cy="213.5377" fill="#84BE84" rx="3" ry="3" style="stroke:#038048;stroke-width:1.0;"/><text fill="#000000" font-family="sans-serif" font-size="14" lengthAdjust="spacing" textLength="112" x="27" y="217.4697">AlignCommand()</text><ellipse cx="18" cy="232.6056" fill="#84BE84" rx="3" ry="3" style="stroke:#038048;stroke-width:1.0;"/><text fill="#000000" font-family="sans-serif" font-size="14" lengthAdjust="spacing" textLength="96" x="27" y="236.5376">execute(): void</text><ellipse cx="18" cy="251.6735" fill="#84BE84" rx="3" ry="3" style="stroke:#038048;stroke-width:1.0;"/><text fill="#000000" font-family="sans-serif" font-size="14" lengthAdjust="spacing" textLength="138" x="27" y="255.6055">isFinished(): boolean</text><ellipse cx="18" cy="270.7414" fill="#84BE84" rx="3" ry="3" style="stroke:#038048;stroke-width:1.0;"/><text fill="#000000" font-family="sans-serif" font-size="14" lengthAdjust="spacing" textLength="124" x="27" y="274.6734">end(boolean): void</text></g></a><!--class edu.wpi.first.wpilibj2.command.Command--><g id="elem_edu.wpi.first.wpilibj2.command.Command"><rect codeLine="14" fill="#F1F1F1" height="42.6879" id="edu.wpi.first.wpilibj2.command.Command" rx="2.5" ry="2.5" style="stroke:#181818;stroke-width:0.5;" width="178" x="161.5" y="7"/><ellipse cx="176.5" cy="28.344" fill="#A9DCDF" rx="11" ry="11" style="stroke:#181818;stroke-width:1.0;"/><path d="M171.6719,34.094 L175.0156,21.9065 L178.1563,21.9065 L181.5313,34.094 L179.0625,34.094 L178.3281,31.0783 L174.8125,31.0783 L174.0625,34.094 L171.6719,34.094 Z M176.0781,26.0471 L175.3281,29.0471 L177.8438,29.0471 L177.125,26.0471 Q176.9844,25.469 176.8594,24.9221 Q176.7344,24.3596 176.5938,23.7815 Q176.4844,24.3596 176.3438,24.9221 Q176.2031,25.469 176.0781,26.0471 Z " fill="#000000"/><text fill="#000000" font-family="sans-serif" font-size="14" font-style="italic" lengthAdjust="spacing" textLength="64" x="231.5" y="26.9659">Command</text><text fill="#000000" font-family="sans-serif" font-size="10" font-style="italic" lengthAdjust="spacing" textLength="146" x="190.5" y="41.7579">edu.wpi.first.wpilibj2.command</text></g><!--reverse link edu.wpi.first.wpilibj2.command.Command to frc.robot.commands.AlignCommand--><g id="link_edu.wpi.first.wpilibj2.command.Command_frc.robot.commands.AlignCommand"><path codeLine="16" d="M250.5,68.02 C250.5,83.3 250.5,87.24 250.5,109.45 " fill="none" id="edu.wpi.first.wpilibj2.command.Command-backto-frc.robot.commands.AlignCommand" style="stroke:#181818;stroke-width:1.0;"/><polygon fill="none" points="250.5,50.02,244.5,68.02,256.5,68.02,250.5,50.02" style="stroke:#181818;stroke-width:1.0;"/></g><text fill="#888888" font-family="sans-serif" font-size="10" lengthAdjust="spacing" textLength="176" x="155.5" y="299.4654">UMLDoclet 2.1.2, PlantUML 1.2024.3</text><!--SRC=[ZP9RQm8n48NV-oi6eQ2eeKgVH0IjjXLqALKVYXN9PcThIZPPCbbxiVxtxiMsIwMNl2JpdPaJE0a00A43pIEac0kSOSmjTyQ2DXfFKXasCa30A7Ol44fK0Nsd4RgDIN7EXU94KEcIVCLEwxpNL_91NvWeuZgurmTyrWkjODRunZ5HQ5G1Jd2CMTa0bijooJOkKgiLxFARixKZnvqKUwXVBmRh_cHyvKr7tdnzkvWE9gFrs9kFlDbuVjU1m2I-mi_1UjctEip5MHB7Ig9jmFTwO8n2dhPhIYAqjHziIXoVKIGEgxKER8qClWH9br9Bsc2GQNvXN9fBRGwmFBelmkO-ESk5EqhzE70C4lOKInPAIouxAUa_jZzYpiF_lOKTF8kR_zSBtRTcywz7BRuDQeSMGcEoRJ6T38rGwSTiinPhD-16SUrI2gTRj2IDhjRU0G00]--></g></svg>