<?xml version="1.0" encoding="us-ascii" standalone="no"?><svg xmlns="http://www.w3.org/2000/svg" xmlns:xlink="http://www.w3.org/1999/xlink" contentStyleType="text/css" height="615px" preserveAspectRatio="none" style="width:501px;height:615px;background:#FFFFFF;" version="1.1" viewBox="0 0 501 615" width="501px" zoomAndPan="magnify"><defs/><g><!--class frc.robot.commands.AlignCommand--><a href="AlignCommand.html" target="_top" title="AlignCommand.html" xlink:actuate="onRequest" xlink:href="AlignCommand.html" xlink:show="new" xlink:title="AlignCommand.html" xlink:type="simple"><g id="elem_frc.robot.commands.AlignCommand"><rect codeLine="5" fill="#F1F1F1" height="478.1821" id="frc.robot.commands.AlignCommand" rx="2.5" ry="2.5" style="stroke:#181818;stroke-width:0.5;" width="487" x="7" y="109.69"/><ellipse cx="194.25" cy="131.034" fill="#ADD1B2" rx="11" ry="11" style="stroke:#181818;stroke-width:1.0;"/><path d="M193.7188,137.9558 Q191.9688,137.9558 190.8281,137.2215 Q189.7031,136.4715 189.1406,135.1277 Q188.5938,133.7683 188.5938,131.9715 Q188.5938,129.9402 189.25,128.4871 Q189.9063,127.034 191.1875,126.2527 Q192.4688,125.4715 194.3438,125.4715 Q195.2344,125.4715 195.9063,125.659 Q196.5781,125.8308 197.2656,126.1746 L196.4531,128.1902 Q195.8281,127.8777 195.2813,127.7527 Q194.75,127.6277 194.2656,127.6277 Q193.0938,127.6277 192.3906,128.159 Q191.6875,128.6902 191.3906,129.6433 Q191.0938,130.5965 191.0938,131.8621 Q191.0938,133.8777 191.8125,134.8465 Q192.5313,135.7996 194.125,135.7996 Q194.7188,135.7996 195.3438,135.6433 Q195.9688,135.4871 196.7969,135.1121 L196.7969,137.3308 Q196.0625,137.6433 195.2656,137.7996 Q194.4844,137.9558 193.7188,137.9558 Z " fill="#000000"/><text fill="#000000" font-family="sans-serif" font-size="14" lengthAdjust="spacing" textLength="104" x="214.75" y="129.6559">AlignCommand</text><text fill="#000000" font-family="sans-serif" font-size="10" lengthAdjust="spacing" textLength="96" x="218.75" y="144.4479">frc.robot.commands</text><line style="stroke:#181818;stroke-width:0.5;" x1="8" x2="493" y1="152.3779" y2="152.3779"/><rect fill="none" height="6" style="stroke:#C82930;stroke-width:1.0;" width="6" x="15" y="164.4119"/><text fill="#000000" font-family="sans-serif" font-size="14" lengthAdjust="spacing" text-decoration="underline" textLength="63" x="27" y="171.3438">P: double</text><rect fill="none" height="6" style="stroke:#C82930;stroke-width:1.0;" width="6" x="15" y="183.4798"/><text fill="#000000" font-family="sans-serif" font-size="14" lengthAdjust="spacing" text-decoration="underline" textLength="60" x="27" y="190.4118">I: double</text><rect fill="none" height="6" style="stroke:#C82930;stroke-width:1.0;" width="6" x="15" y="202.5477"/><text fill="#000000" font-family="sans-serif" font-size="14" lengthAdjust="spacing" text-decoration="underline" textLength="65" x="27" y="209.4797">D: double</text><rect fill="none" height="6" style="stroke:#C82930;stroke-width:1.0;" width="6" x="15" y="221.6156"/><text fill="#000000" font-family="sans-serif" font-size="14" lengthAdjust="spacing" text-decoration="underline" textLength="218" x="27" y="228.5476">MAX_ROTATION_POWER: double</text><rect fill="none" height="6" style="stroke:#C82930;stroke-width:1.0;" width="6" x="15" y="240.6835"/><text fill="#000000" font-family="sans-serif" font-size="14" lengthAdjust="spacing" text-decoration="underline" textLength="257" x="27" y="247.6155">ALIGNMENT_TOLERANCE_RAD: double</text><ellipse cx="18" cy="262.7514" fill="none" rx="3" ry="3" style="stroke:#038048;stroke-width:1.0;"/><text fill="#000000" font-family="sans-serif" font-size="14" lengthAdjust="spacing" text-decoration="underline" textLength="312" x="27" y="266.6834">HUB_ALIGNMENT_RUMBLE_INTENSITY: double</text><rect fill="none" height="6" style="stroke:#C82930;stroke-width:1.0;" width="6" x="15" y="278.8194"/><text fill="#000000" font-family="sans-serif" font-size="14" lengthAdjust="spacing" textLength="147" x="27" y="285.7513">driveTrain: DriveTrain</text><rect fill="none" height="6" style="stroke:#C82930;stroke-width:1.0;" width="6" x="15" y="297.8873"/><text fill="#000000" font-family="sans-serif" font-size="14" lengthAdjust="spacing" textLength="155" x="27" y="304.8193">dashboard: Dashboard</text><rect fill="none" height="6" style="stroke:#C82930;stroke-width:1.0;" width="6" x="15" y="316.9552"/><text fill="#000000" font-family="sans-serif" font-size="14" lengthAdjust="spacing" textLength="111" x="27" y="323.8872">shooter: Shooter</text><rect fill="none" height="6" style="stroke:#C82930;stroke-width:1.0;" width="6" x="15" y="336.0231"/><text fill="#000000" font-family="sans-serif" font-size="14" lengthAdjust="spacing" textLength="161" x="27" y="342.9551">swagLights: SwagLights</text><rect fill="none" height="6" style="stroke:#C82930;stroke-width:1.0;" width="6" x="15" y="355.091"/><text fill="#000000" font-family="sans-serif" font-size="14" lengthAdjust="spacing" textLength="265" x="27" y="362.023">forwardSpeedSupplier: DoubleSupplier</text><rect fill="none" height="6" style="stroke:#C82930;stroke-width:1.0;" width="6" x="15" y="374.1589"/><text fill="#000000" font-family="sans-serif" font-size="14" lengthAdjust="spacing" textLength="273" x="27" y="381.0909">sidewaysSpeedSupplier: DoubleSupplier</text><rect fill="none" height="6" style="stroke:#C82930;stroke-width:1.0;" width="6" x="15" y="393.2269"/><text fill="#000000" font-family="sans-serif" font-size="14" lengthAdjust="spacing" textLength="303" x="27" y="400.1588">alignmentStateConsumer: BooleanConsumer</text><rect fill="none" height="6" style="stroke:#C82930;stroke-width:1.0;" width="6" x="15" y="412.2948"/><text fill="#000000" font-family="sans-serif" font-size="14" lengthAdjust="spacing" textLength="218" x="27" y="419.2268">rotationController: PIDController</text><rect fill="none" height="6" style="stroke:#C82930;stroke-width:1.0;" width="6" x="15" y="431.3627"/><text fill="#000000" font-family="sans-serif" font-size="14" lengthAdjust="spacing" textLength="157" x="27" y="438.2947">alignedToHub: Boolean</text><line style="stroke:#181818;stroke-width:0.5;" x1="8" x2="493" y1="446.3967" y2="446.3967"/><ellipse cx="18" cy="461.4306" fill="#84BE84" rx="3" ry="3" style="stroke:#038048;stroke-width:1.0;"/><text fill="#000000" font-family="sans-serif" font-size="14" lengthAdjust="spacing" textLength="461" x="27" y="465.3626">AlignCommand(DoubleSupplier, DoubleSupplier, BooleanConsumer)</text><ellipse cx="18" cy="480.4985" fill="#84BE84" rx="3" ry="3" style="stroke:#038048;stroke-width:1.0;"/><text fill="#000000" font-family="sans-serif" font-size="14" lengthAdjust="spacing" textLength="112" x="27" y="484.4305">AlignCommand()</text><ellipse cx="18" cy="499.5664" fill="#84BE84" rx="3" ry="3" style="stroke:#038048;stroke-width:1.0;"/><text fill="#000000" font-family="sans-serif" font-size="14" lengthAdjust="spacing" textLength="96" x="27" y="503.4984">execute(): void</text><ellipse cx="18" cy="518.6344" fill="#84BE84" rx="3" ry="3" style="stroke:#038048;stroke-width:1.0;"/><text fill="#000000" font-family="sans-serif" font-size="14" lengthAdjust="spacing" textLength="138" x="27" y="522.5663">isFinished(): boolean</text><ellipse cx="18" cy="537.7023" fill="#84BE84" rx="3" ry="3" style="stroke:#038048;stroke-width:1.0;"/><text fill="#000000" font-family="sans-serif" font-size="14" lengthAdjust="spacing" textLength="124" x="27" y="541.6343">end(boolean): void</text><rect fill="#F24D5C" height="6" style="stroke:#C82930;stroke-width:1.0;" width="6" x="15" y="553.7702"/><text fill="#000000" font-family="sans-serif" font-size="14" lengthAdjust="spacing" textLength="286" x="27" y="560.7022">getAlignedTargetHeading(Pose2d): double</text><rect fill="#F24D5C" height="6" style="stroke:#C82930;stroke-width:1.0;" width="6" x="15" y="572.8381"/><text fill="#000000" font-family="sans-serif" font-size="14" lengthAdjust="spacing" textLength="250" x="27" y="579.7701">updateAlignmentState(boolean): void</text></g></a><!--class edu.wpi.first.wpilibj2.command.Command--><g id="elem_edu.wpi.first.wpilibj2.command.Command"><rect codeLine="30" fill="#F1F1F1" height="42.6879" id="edu.wpi.first.wpilibj2.command.Command" rx="2.5" ry="2.5" style="stroke:#181818;stroke-width:0.5;" width="178" x="161.5" y="7"/><ellipse cx="176.5" cy="28.344" fill="#A9DCDF" rx="11" ry="11" style="stroke:#181818;stroke-width:1.0;"/><path d="M171.6719,34.094 L175.0156,21.9065 L178.1563,21.9065 L181.5313,34.094 L179.0625,34.094 L178.3281,31.0783 L174.8125,31.0783 L174.0625,34.094 L171.6719,34.094 Z M176.0781,26.0471 L175.3281,29.0471 L177.8438,29.0471 L177.125,26.0471 Q176.9844,25.469 176.8594,24.9221 Q176.7344,24.3596 176.5938,23.7815 Q176.4844,24.3596 176.3438,24.9221 Q176.2031,25.469 176.0781,26.0471 Z " fill="#000000"/><text fill="#000000" font-family="sans-serif" font-size="14" font-style="italic" lengthAdjust="spacing" textLength="64" x="231.5" y="26.9659">Command</text><text fill="#000000" font-family="sans-serif" font-size="10" font-style="italic" lengthAdjust="spacing" textLength="146" x="190.5" y="41.7579">edu.wpi.first.wpilibj2.command</text></g><!--reverse link edu.wpi.first.wpilibj2.command.Command to frc.robot.commands.AlignCommand--><g id="link_edu.wpi.first.wpilibj2.command.Command_frc.robot.commands.AlignCommand"><path codeLine="32" d="M250.5,67.75 C250.5,82.16 250.5,85.2 250.5,109.53 " fill="none" id="edu.wpi.first.wpilibj2.command.Command-backto-frc.robot.commands.AlignCommand" style="stroke:#181818;stroke-width:1.0;"/><polygon fill="none" points="250.5,49.75,244.5,67.75,256.5,67.75,250.5,49.75" style="stroke:#181818;stroke-width:1.0;"/></g><text fill="#888888" font-family="sans-serif" font-size="10" lengthAdjust="spacing" textLength="176" x="155.5" y="604.5621">UMLDoclet 2.1.2, PlantUML 1.2024.3</text><!--SRC=[ZLHjRzem4Fw-Nt6gD0b4YLQqJwYg520RaI0W4hHDNHKvyK4y9NPaEz2kwt-VmrlIqB7cqztpt3q-N-uC0A1G0oSPgfp4w6DE9D520XSSFnWQ4aOHCClr4wmOfbGrqGnr8Woym-EKA0LNjuhznlxDvpixPMi-55b6EFt93_2dkvMCBIaYeQrupwah80hEOQik0FVtTTTAT9O-FC3pxkJoUrQQQ1Q_G7VU1ogAACKtEFS2Dxh0JUtluM8Ms84xyyBvx9kpk11iJzoltjJnWZ2OJPo5xGsTS65VaE-CbuEmobeifuE94xfUu7Y-6_muI-nIoJOOIC9u7qOdkyOJbKI2I6heercnAX52e-o3lpTgp9Qi9soTQ6N8artnAo6tHihF4QbVv7dAIfdHhhgZNrCpWx8bJ-gTuQJylnboxPksu51mLMHb_42850a_0bM256N_HCbeATAq39wxeyfjQ2CDnBY8JeedkbCVhTRh-gwXwJVgQVz3feRZ8yQ5nbQx3nl1gZ_HOUeBuqmbI4ikQfQ5HkO0DbExQzJsuL946cUCX3A-Ris5mXvjdyzCaLFJLljLazzIVzblCucKbYJMPsjzlj582skRCsl5fDAbbRBeL- -unxljlXnY7JJt9xyl5cx_TBl_UpNsxvAvBKfOxMOTbjF9ICIfUVbwretLkuPvIhWsA7pSe5Hcd5hjlm00]--></g></svg>