<?xml version="1.0" encoding="us-ascii" standalone="no"?><svg xmlns="http://www.w3.org/2000/svg" xmlns:xlink="http://www.w3.org/1999/xlink" contentStyleType="text/css" height="522px" preserveAspectRatio="none" style="width:2158px;height:522px;background:#FFFFFF;" version="1.1" viewBox="0 0 2158 522" width="2158px" zoomAndPan="magnify"><defs/><g><!--cluster frc.robot.commands--><g id="cluster_frc.robot.commands"><path d="M8.5,132.602 L151.5,132.602 A3.75,3.75 0 0 1 154,135.102 L161,157.6699 L2148.5,157.6699 A2.5,2.5 0 0 1 2151,160.1699 L2151,492.642 A2.5,2.5 0 0 1 2148.5,495.142 L8.5,495.142 A2.5,2.5 0 0 1 6,492.642 L6,135.102 A2.5,2.5 0 0 1 8.5,132.602 " fill="none" style="stroke:#000000;stroke-width:1.5;"/><line style="stroke:#000000;stroke-width:1.5;" x1="6" x2="161" y1="157.6699" y2="157.6699"/><text fill="#000000" font-family="sans-serif" font-size="14" font-weight="bold" lengthAdjust="spacing" textLength="142" x="10" y="149.5679">frc.robot.commands</text></g><!--cluster edu.wpi.first.wpilibj2.command--><g id="cluster_edu.wpi.first.wpilibj2.command"><path d="M1042.5,6.602 L1262.5,6.602 A3.75,3.75 0 0 1 1265,9.102 L1272,31.6699 L1272.5,31.6699 A2.5,2.5 0 0 1 1275,34.1699 L1275,106.102 A2.5,2.5 0 0 1 1272.5,108.602 L1042.5,108.602 A2.5,2.5 0 0 1 1040,106.102 L1040,9.102 A2.5,2.5 0 0 1 1042.5,6.602 " fill="none" style="stroke:#000000;stroke-width:1.5;"/><line style="stroke:#000000;stroke-width:1.5;" x1="1040" x2="1272" y1="31.6699" y2="31.6699"/><text fill="#000000" font-family="sans-serif" font-size="14" font-weight="bold" lengthAdjust="spacing" textLength="219" x="1044" y="23.5679">edu.wpi.first.wpilibj2.command</text></g><!--class AcquisitionTrenchRetract--><a href="AcquisitionTrenchRetract.html" target="_top" title="AcquisitionTrenchRetract.html" xlink:actuate="onRequest" xlink:href="AcquisitionTrenchRetract.html" xlink:show="new" xlink:title="AcquisitionTrenchRetract.html" xlink:type="simple"><g id="elem_AcquisitionTrenchRetract"><rect codeLine="5" fill="#F1F1F1" height="86.1358" id="AcquisitionTrenchRetract" rx="2.5" ry="2.5" style="stroke:#181818;stroke-width:0.5;" width="202" x="22" y="208.732"/><ellipse cx="37" cy="224.732" fill="#ADD1B2" rx="11" ry="11" style="stroke:#181818;stroke-width:1.0;"/><path d="M36.4688,231.6539 Q34.7188,231.6539 33.5781,230.9195 Q32.4531,230.1695 31.8906,228.8257 Q31.3438,227.4664 31.3438,225.6695 Q31.3438,223.6382 32,222.1851 Q32.6563,220.732 33.9375,219.9507 Q35.2188,219.1695 37.0938,219.1695 Q37.9844,219.1695 38.6563,219.357 Q39.3281,219.5289 40.0156,219.8726 L39.2031,221.8882 Q38.5781,221.5757 38.0313,221.4507 Q37.5,221.3257 37.0156,221.3257 Q35.8438,221.3257 35.1406,221.857 Q34.4375,222.3882 34.1406,223.3414 Q33.8438,224.2945 33.8438,225.5601 Q33.8438,227.5757 34.5625,228.5445 Q35.2813,229.4976 36.875,229.4976 Q37.4688,229.4976 38.0938,229.3414 Q38.7188,229.1851 39.5469,228.8101 L39.5469,231.0289 Q38.8125,231.3414 38.0156,231.4976 Q37.2344,231.6539 36.4688,231.6539 Z " fill="#000000"/><text fill="#000000" font-family="sans-serif" font-size="14" lengthAdjust="spacing" textLength="170" x="51" y="230.164">AcquisitionTrenchRetract</text><line style="stroke:#181818;stroke-width:0.5;" x1="23" x2="223" y1="240.732" y2="240.732"/><line style="stroke:#181818;stroke-width:0.5;" x1="23" x2="223" y1="248.732" y2="248.732"/><ellipse cx="33" cy="263.7659" fill="#84BE84" rx="3" ry="3" style="stroke:#038048;stroke-width:1.0;"/><text fill="#000000" font-family="sans-serif" font-size="14" lengthAdjust="spacing" textLength="101" x="42" y="267.6979">initialize(): void</text><ellipse cx="33" cy="282.8339" fill="#84BE84" rx="3" ry="3" style="stroke:#038048;stroke-width:1.0;"/><text fill="#000000" font-family="sans-serif" font-size="14" lengthAdjust="spacing" textLength="138" x="42" y="286.7658">isFinished(): boolean</text></g></a><!--class AcquisitionRunCommand--><a href="AcquisitionRunCommand.html" target="_top" title="AcquisitionRunCommand.html" xlink:actuate="onRequest" xlink:href="AcquisitionRunCommand.html" xlink:show="new" xlink:title="AcquisitionRunCommand.html" xlink:type="simple"><g id="elem_AcquisitionRunCommand"><rect codeLine="10" fill="#F1F1F1" height="124.2717" id="AcquisitionRunCommand" rx="2.5" ry="2.5" style="stroke:#181818;stroke-width:0.5;" width="243" x="259.5" y="189.662"/><ellipse cx="292.5" cy="205.662" fill="#ADD1B2" rx="11" ry="11" style="stroke:#181818;stroke-width:1.0;"/><path d="M291.9688,212.5839 Q290.2188,212.5839 289.0781,211.8495 Q287.9531,211.0995 287.3906,209.7557 Q286.8438,208.3964 286.8438,206.5995 Q286.8438,204.5682 287.5,203.1151 Q288.1563,201.662 289.4375,200.8807 Q290.7188,200.0995 292.5938,200.0995 Q293.4844,200.0995 294.1563,200.287 Q294.8281,200.4589 295.5156,200.8026 L294.7031,202.8182 Q294.0781,202.5057 293.5313,202.3807 Q293,202.2557 292.5156,202.2557 Q291.3438,202.2557 290.6406,202.787 Q289.9375,203.3182 289.6406,204.2714 Q289.3438,205.2245 289.3438,206.4901 Q289.3438,208.5057 290.0625,209.4745 Q290.7813,210.4276 292.375,210.4276 Q292.9688,210.4276 293.5938,210.2714 Q294.2188,210.1151 295.0469,209.7401 L295.0469,211.9589 Q294.3125,212.2714 293.5156,212.4276 Q292.7344,212.5839 291.9688,212.5839 Z " fill="#000000"/><text fill="#000000" font-family="sans-serif" font-size="14" lengthAdjust="spacing" textLength="171" x="310.5" y="211.094">AcquisitionRunCommand</text><line style="stroke:#181818;stroke-width:0.5;" x1="260.5" x2="501.5" y1="221.662" y2="221.662"/><line style="stroke:#181818;stroke-width:0.5;" x1="260.5" x2="501.5" y1="229.662" y2="229.662"/><ellipse cx="270.5" cy="244.6959" fill="#84BE84" rx="3" ry="3" style="stroke:#038048;stroke-width:1.0;"/><text fill="#000000" font-family="sans-serif" font-size="14" lengthAdjust="spacing" textLength="217" x="279.5" y="248.6279">AcquisitionRunCommand(Mode)</text><ellipse cx="270.5" cy="263.7639" fill="#84BE84" rx="3" ry="3" style="stroke:#038048;stroke-width:1.0;"/><text fill="#000000" font-family="sans-serif" font-size="14" lengthAdjust="spacing" textLength="101" x="279.5" y="267.6958">initialize(): void</text><ellipse cx="270.5" cy="282.8318" fill="#84BE84" rx="3" ry="3" style="stroke:#038048;stroke-width:1.0;"/><text fill="#000000" font-family="sans-serif" font-size="14" lengthAdjust="spacing" textLength="138" x="279.5" y="286.7638">isFinished(): boolean</text><ellipse cx="270.5" cy="301.8997" fill="#84BE84" rx="3" ry="3" style="stroke:#038048;stroke-width:1.0;"/><text fill="#000000" font-family="sans-serif" font-size="14" lengthAdjust="spacing" textLength="124" x="279.5" y="305.8317">end(boolean): void</text></g></a><!--class AcquisitionRunCommand.Mode--><a href="AcquisitionRunCommand.Mode.html" target="_top" title="AcquisitionRunCommand.Mode.html" xlink:actuate="onRequest" xlink:href="AcquisitionRunCommand.Mode.html" xlink:show="new" xlink:title="AcquisitionRunCommand.Mode.html" xlink:type="simple"><g id="elem_AcquisitionRunCommand.Mode"><rect codeLine="17" fill="#F1F1F1" height="86.1358" id="AcquisitionRunCommand.Mode" rx="2.5" ry="2.5" style="stroke:#181818;stroke-width:0.5;" width="245" x="258.5" y="393.002"/><ellipse cx="273.5" cy="409.002" fill="#EB937F" rx="11" ry="11" style="stroke:#181818;stroke-width:1.0;"/><path d="M269.8594,415.502 L269.8594,403.3614 L277.5156,403.3614 L277.5156,405.4864 L272.2344,405.4864 L272.2344,408.1426 L277.25,408.1426 L277.25,410.2676 L272.2344,410.2676 L272.2344,413.377 L277.5156,413.377 L277.5156,415.502 L269.8594,415.502 Z " fill="#000000"/><text fill="#000000" font-family="sans-serif" font-size="14" lengthAdjust="spacing" textLength="213" x="287.5" y="414.434">AcquisitionRunCommand.Mode</text><line style="stroke:#181818;stroke-width:0.5;" x1="259.5" x2="502.5" y1="425.002" y2="425.002"/><ellipse cx="269.5" cy="440.0359" fill="none" rx="3" ry="3" style="stroke:#038048;stroke-width:1.0;"/><text fill="#000000" font-family="sans-serif" font-size="14" lengthAdjust="spacing" text-decoration="underline" textLength="50" x="278.5" y="443.9679">INTAKE</text><ellipse cx="269.5" cy="459.1039" fill="none" rx="3" ry="3" style="stroke:#038048;stroke-width:1.0;"/><text fill="#000000" font-family="sans-serif" font-size="14" lengthAdjust="spacing" text-decoration="underline" textLength="58" x="278.5" y="463.0358">DISPOSE</text><line style="stroke:#181818;stroke-width:0.5;" x1="259.5" x2="502.5" y1="471.1378" y2="471.1378"/></g></a><!--class AcquisitionPivotCommand--><a href="AcquisitionPivotCommand.html" target="_top" title="AcquisitionPivotCommand.html" xlink:actuate="onRequest" xlink:href="AcquisitionPivotCommand.html" xlink:show="new" xlink:title="AcquisitionPivotCommand.html" xlink:type="simple"><g id="elem_AcquisitionPivotCommand"><rect codeLine="22" fill="#F1F1F1" height="105.2038" id="AcquisitionPivotCommand" rx="2.5" ry="2.5" style="stroke:#181818;stroke-width:0.5;" width="341" x="537.5" y="199.202"/><ellipse cx="615.75" cy="215.202" fill="#ADD1B2" rx="11" ry="11" style="stroke:#181818;stroke-width:1.0;"/><path d="M615.2188,222.1239 Q613.4688,222.1239 612.3281,221.3895 Q611.2031,220.6395 610.6406,219.2957 Q610.0938,217.9364 610.0938,216.1395 Q610.0938,214.1082 610.75,212.6551 Q611.4063,211.202 612.6875,210.4207 Q613.9688,209.6395 615.8438,209.6395 Q616.7344,209.6395 617.4063,209.827 Q618.0781,209.9989 618.7656,210.3426 L617.9531,212.3582 Q617.3281,212.0457 616.7813,211.9207 Q616.25,211.7957 615.7656,211.7957 Q614.5938,211.7957 613.8906,212.327 Q613.1875,212.8582 612.8906,213.8114 Q612.5938,214.7645 612.5938,216.0301 Q612.5938,218.0457 613.3125,219.0145 Q614.0313,219.9676 615.625,219.9676 Q616.2188,219.9676 616.8438,219.8114 Q617.4688,219.6551 618.2969,219.2801 L618.2969,221.4989 Q617.5625,221.8114 616.7656,221.9676 Q615.9844,222.1239 615.2188,222.1239 Z " fill="#000000"/><text fill="#000000" font-family="sans-serif" font-size="14" lengthAdjust="spacing" textLength="176" x="636.25" y="220.634">AcquisitionPivotCommand</text><line style="stroke:#181818;stroke-width:0.5;" x1="538.5" x2="877.5" y1="231.202" y2="231.202"/><line style="stroke:#181818;stroke-width:0.5;" x1="538.5" x2="877.5" y1="239.202" y2="239.202"/><ellipse cx="548.5" cy="254.2359" fill="#84BE84" rx="3" ry="3" style="stroke:#038048;stroke-width:1.0;"/><text fill="#000000" font-family="sans-serif" font-size="14" lengthAdjust="spacing" textLength="315" x="557.5" y="258.1679">AcquisitionPivotCommand(AcquisitionSetpoint)</text><ellipse cx="548.5" cy="273.3039" fill="#84BE84" rx="3" ry="3" style="stroke:#038048;stroke-width:1.0;"/><text fill="#000000" font-family="sans-serif" font-size="14" lengthAdjust="spacing" textLength="101" x="557.5" y="277.2358">initialize(): void</text><ellipse cx="548.5" cy="292.3718" fill="#84BE84" rx="3" ry="3" style="stroke:#038048;stroke-width:1.0;"/><text fill="#000000" font-family="sans-serif" font-size="14" lengthAdjust="spacing" textLength="138" x="557.5" y="296.3038">isFinished(): boolean</text></g></a><!--class AlignCommand--><a href="AlignCommand.html" target="_top" title="AlignCommand.html" xlink:actuate="onRequest" xlink:href="AlignCommand.html" xlink:show="new" xlink:title="AlignCommand.html" xlink:type="simple"><g id="elem_AlignCommand"><rect codeLine="28" fill="#F1F1F1" height="162.4075" id="AlignCommand" rx="2.5" ry="2.5" style="stroke:#181818;stroke-width:0.5;" width="487" x="913.5" y="170.602"/><ellipse cx="1100.75" cy="186.602" fill="#ADD1B2" rx="11" ry="11" style="stroke:#181818;stroke-width:1.0;"/><path d="M1100.2188,193.5239 Q1098.4688,193.5239 1097.3281,192.7895 Q1096.2031,192.0395 1095.6406,190.6957 Q1095.0938,189.3364 1095.0938,187.5395 Q1095.0938,185.5082 1095.75,184.0551 Q1096.4063,182.602 1097.6875,181.8207 Q1098.9688,181.0395 1100.8438,181.0395 Q1101.7344,181.0395 1102.4063,181.227 Q1103.0781,181.3989 1103.7656,181.7426 L1102.9531,183.7582 Q1102.3281,183.4457 1101.7813,183.3207 Q1101.25,183.1957 1100.7656,183.1957 Q1099.5938,183.1957 1098.8906,183.727 Q1098.1875,184.2582 1097.8906,185.2114 Q1097.5938,186.1645 1097.5938,187.4301 Q1097.5938,189.4457 1098.3125,190.4145 Q1099.0313,191.3676 1100.625,191.3676 Q1101.2188,191.3676 1101.8438,191.2114 Q1102.4688,191.0551 1103.2969,190.6801 L1103.2969,192.8989 Q1102.5625,193.2114 1101.7656,193.3676 Q1100.9844,193.5239 1100.2188,193.5239 Z " fill="#000000"/><text fill="#000000" font-family="sans-serif" font-size="14" lengthAdjust="spacing" textLength="104" x="1121.25" y="192.034">AlignCommand</text><line style="stroke:#181818;stroke-width:0.5;" x1="914.5" x2="1399.5" y1="202.602" y2="202.602"/><ellipse cx="924.5" cy="217.6359" fill="none" rx="3" ry="3" style="stroke:#038048;stroke-width:1.0;"/><text fill="#000000" font-family="sans-serif" font-size="14" lengthAdjust="spacing" text-decoration="underline" textLength="312" x="933.5" y="221.5679">HUB_ALIGNMENT_RUMBLE_INTENSITY: double</text><line style="stroke:#181818;stroke-width:0.5;" x1="914.5" x2="1399.5" y1="229.6699" y2="229.6699"/><ellipse cx="924.5" cy="244.7039" fill="#84BE84" rx="3" ry="3" style="stroke:#038048;stroke-width:1.0;"/><text fill="#000000" font-family="sans-serif" font-size="14" lengthAdjust="spacing" textLength="461" x="933.5" y="248.6358">AlignCommand(DoubleSupplier, DoubleSupplier, BooleanConsumer)</text><ellipse cx="924.5" cy="263.7718" fill="#84BE84" rx="3" ry="3" style="stroke:#038048;stroke-width:1.0;"/><text fill="#000000" font-family="sans-serif" font-size="14" lengthAdjust="spacing" textLength="112" x="933.5" y="267.7038">AlignCommand()</text><ellipse cx="924.5" cy="282.8397" fill="#84BE84" rx="3" ry="3" style="stroke:#038048;stroke-width:1.0;"/><text fill="#000000" font-family="sans-serif" font-size="14" lengthAdjust="spacing" textLength="96" x="933.5" y="286.7717">execute(): void</text><ellipse cx="924.5" cy="301.9076" fill="#84BE84" rx="3" ry="3" style="stroke:#038048;stroke-width:1.0;"/><text fill="#000000" font-family="sans-serif" font-size="14" lengthAdjust="spacing" textLength="138" x="933.5" y="305.8396">isFinished(): boolean</text><ellipse cx="924.5" cy="320.9755" fill="#84BE84" rx="3" ry="3" style="stroke:#038048;stroke-width:1.0;"/><text fill="#000000" font-family="sans-serif" font-size="14" lengthAdjust="spacing" textLength="124" x="933.5" y="324.9075">end(boolean): void</text></g></a><!--class AdjustHoodsCommand--><a href="AdjustHoodsCommand.html" target="_top" title="AdjustHoodsCommand.html" xlink:actuate="onRequest" xlink:href="AdjustHoodsCommand.html" xlink:show="new" xlink:title="AdjustHoodsCommand.html" xlink:type="simple"><g id="elem_AdjustHoodsCommand"><rect codeLine="37" fill="#F1F1F1" height="86.1358" id="AdjustHoodsCommand" rx="2.5" ry="2.5" style="stroke:#181818;stroke-width:0.5;" width="186" x="1435" y="208.732"/><ellipse cx="1450" cy="224.732" fill="#ADD1B2" rx="11" ry="11" style="stroke:#181818;stroke-width:1.0;"/><path d="M1449.4688,231.6539 Q1447.7188,231.6539 1446.5781,230.9195 Q1445.4531,230.1695 1444.8906,228.8257 Q1444.3438,227.4664 1444.3438,225.6695 Q1444.3438,223.6382 1445,222.1851 Q1445.6563,220.732 1446.9375,219.9507 Q1448.2188,219.1695 1450.0938,219.1695 Q1450.9844,219.1695 1451.6563,219.357 Q1452.3281,219.5289 1453.0156,219.8726 L1452.2031,221.8882 Q1451.5781,221.5757 1451.0313,221.4507 Q1450.5,221.3257 1450.0156,221.3257 Q1448.8438,221.3257 1448.1406,221.857 Q1447.4375,222.3882 1447.1406,223.3414 Q1446.8438,224.2945 1446.8438,225.5601 Q1446.8438,227.5757 1447.5625,228.5445 Q1448.2813,229.4976 1449.875,229.4976 Q1450.4688,229.4976 1451.0938,229.3414 Q1451.7188,229.1851 1452.5469,228.8101 L1452.5469,231.0289 Q1451.8125,231.3414 1451.0156,231.4976 Q1450.2344,231.6539 1449.4688,231.6539 Z " fill="#000000"/><text fill="#000000" font-family="sans-serif" font-size="14" lengthAdjust="spacing" textLength="154" x="1464" y="230.164">AdjustHoodsCommand</text><line style="stroke:#181818;stroke-width:0.5;" x1="1436" x2="1620" y1="240.732" y2="240.732"/><line style="stroke:#181818;stroke-width:0.5;" x1="1436" x2="1620" y1="248.732" y2="248.732"/><ellipse cx="1446" cy="263.7659" fill="#84BE84" rx="3" ry="3" style="stroke:#038048;stroke-width:1.0;"/><text fill="#000000" font-family="sans-serif" font-size="14" lengthAdjust="spacing" textLength="96" x="1455" y="267.6979">execute(): void</text><ellipse cx="1446" cy="282.8339" fill="#84BE84" rx="3" ry="3" style="stroke:#038048;stroke-width:1.0;"/><text fill="#000000" font-family="sans-serif" font-size="14" lengthAdjust="spacing" textLength="138" x="1455" y="286.7658">isFinished(): boolean</text></g></a><!--class ShootCommand--><a href="ShootCommand.html" target="_top" title="ShootCommand.html" xlink:actuate="onRequest" xlink:href="ShootCommand.html" xlink:show="new" xlink:title="ShootCommand.html" xlink:type="simple"><g id="elem_ShootCommand"><rect codeLine="42" fill="#F1F1F1" height="162.4075" id="ShootCommand" rx="2.5" ry="2.5" style="stroke:#181818;stroke-width:0.5;" width="252" x="1656" y="170.602"/><ellipse cx="1724.25" cy="186.602" fill="#ADD1B2" rx="11" ry="11" style="stroke:#181818;stroke-width:1.0;"/><path d="M1723.7188,193.5239 Q1721.9688,193.5239 1720.8281,192.7895 Q1719.7031,192.0395 1719.1406,190.6957 Q1718.5938,189.3364 1718.5938,187.5395 Q1718.5938,185.5082 1719.25,184.0551 Q1719.9063,182.602 1721.1875,181.8207 Q1722.4688,181.0395 1724.3438,181.0395 Q1725.2344,181.0395 1725.9063,181.227 Q1726.5781,181.3989 1727.2656,181.7426 L1726.4531,183.7582 Q1725.8281,183.4457 1725.2813,183.3207 Q1724.75,183.1957 1724.2656,183.1957 Q1723.0938,183.1957 1722.3906,183.727 Q1721.6875,184.2582 1721.3906,185.2114 Q1721.0938,186.1645 1721.0938,187.4301 Q1721.0938,189.4457 1721.8125,190.4145 Q1722.5313,191.3676 1724.125,191.3676 Q1724.7188,191.3676 1725.3438,191.2114 Q1725.9688,191.0551 1726.7969,190.6801 L1726.7969,192.8989 Q1726.0625,193.2114 1725.2656,193.3676 Q1724.4844,193.5239 1723.7188,193.5239 Z " fill="#000000"/><text fill="#000000" font-family="sans-serif" font-size="14" lengthAdjust="spacing" textLength="107" x="1744.75" y="192.034">ShootCommand</text><line style="stroke:#181818;stroke-width:0.5;" x1="1657" x2="1907" y1="202.602" y2="202.602"/><line style="stroke:#181818;stroke-width:0.5;" x1="1657" x2="1907" y1="210.602" y2="210.602"/><ellipse cx="1667" cy="225.6359" fill="#84BE84" rx="3" ry="3" style="stroke:#038048;stroke-width:1.0;"/><text fill="#000000" font-family="sans-serif" font-size="14" lengthAdjust="spacing" textLength="115" x="1676" y="229.5679">ShootCommand()</text><ellipse cx="1667" cy="244.7039" fill="#84BE84" rx="3" ry="3" style="stroke:#038048;stroke-width:1.0;"/><text fill="#000000" font-family="sans-serif" font-size="14" lengthAdjust="spacing" textLength="226" x="1676" y="248.6358">ShootCommand(BooleanSupplier)</text><ellipse cx="1667" cy="263.7718" fill="#84BE84" rx="3" ry="3" style="stroke:#038048;stroke-width:1.0;"/><text fill="#000000" font-family="sans-serif" font-size="14" lengthAdjust="spacing" textLength="101" x="1676" y="267.7038">initialize(): void</text><ellipse cx="1667" cy="282.8397" fill="#84BE84" rx="3" ry="3" style="stroke:#038048;stroke-width:1.0;"/><text fill="#000000" font-family="sans-serif" font-size="14" lengthAdjust="spacing" textLength="96" x="1676" y="286.7717">execute(): void</text><ellipse cx="1667" cy="301.9076" fill="#84BE84" rx="3" ry="3" style="stroke:#038048;stroke-width:1.0;"/><text fill="#000000" font-family="sans-serif" font-size="14" lengthAdjust="spacing" textLength="138" x="1676" y="305.8396">isFinished(): boolean</text><ellipse cx="1667" cy="320.9755" fill="#84BE84" rx="3" ry="3" style="stroke:#038048;stroke-width:1.0;"/><text fill="#000000" font-family="sans-serif" font-size="14" lengthAdjust="spacing" textLength="124" x="1676" y="324.9075">end(boolean): void</text></g></a><!--class RetractHoodsCommand--><a href="RetractHoodsCommand.html" target="_top" title="RetractHoodsCommand.html" xlink:actuate="onRequest" xlink:href="RetractHoodsCommand.html" xlink:show="new" xlink:title="RetractHoodsCommand.html" xlink:type="simple"><g id="elem_RetractHoodsCommand"><rect codeLine="51" fill="#F1F1F1" height="86.1358" id="RetractHoodsCommand" rx="2.5" ry="2.5" style="stroke:#181818;stroke-width:0.5;" width="191" x="1943.5" y="208.732"/><ellipse cx="1958.5" cy="224.732" fill="#ADD1B2" rx="11" ry="11" style="stroke:#181818;stroke-width:1.0;"/><path d="M1957.9688,231.6539 Q1956.2188,231.6539 1955.0781,230.9195 Q1953.9531,230.1695 1953.3906,228.8257 Q1952.8438,227.4664 1952.8438,225.6695 Q1952.8438,223.6382 1953.5,222.1851 Q1954.1563,220.732 1955.4375,219.9507 Q1956.7188,219.1695 1958.5938,219.1695 Q1959.4844,219.1695 1960.1563,219.357 Q1960.8281,219.5289 1961.5156,219.8726 L1960.7031,221.8882 Q1960.0781,221.5757 1959.5313,221.4507 Q1959,221.3257 1958.5156,221.3257 Q1957.3438,221.3257 1956.6406,221.857 Q1955.9375,222.3882 1955.6406,223.3414 Q1955.3438,224.2945 1955.3438,225.5601 Q1955.3438,227.5757 1956.0625,228.5445 Q1956.7813,229.4976 1958.375,229.4976 Q1958.9688,229.4976 1959.5938,229.3414 Q1960.2188,229.1851 1961.0469,228.8101 L1961.0469,231.0289 Q1960.3125,231.3414 1959.5156,231.4976 Q1958.7344,231.6539 1957.9688,231.6539 Z " fill="#000000"/><text fill="#000000" font-family="sans-serif" font-size="14" lengthAdjust="spacing" textLength="159" x="1972.5" y="230.164">RetractHoodsCommand</text><line style="stroke:#181818;stroke-width:0.5;" x1="1944.5" x2="2133.5" y1="240.732" y2="240.732"/><line style="stroke:#181818;stroke-width:0.5;" x1="1944.5" x2="2133.5" y1="248.732" y2="248.732"/><ellipse cx="1954.5" cy="263.7659" fill="#84BE84" rx="3" ry="3" style="stroke:#038048;stroke-width:1.0;"/><text fill="#000000" font-family="sans-serif" font-size="14" lengthAdjust="spacing" textLength="101" x="1963.5" y="267.6979">initialize(): void</text><ellipse cx="1954.5" cy="282.8339" fill="#84BE84" rx="3" ry="3" style="stroke:#038048;stroke-width:1.0;"/><text fill="#000000" font-family="sans-serif" font-size="14" lengthAdjust="spacing" textLength="138" x="1963.5" y="286.7658">isFinished(): boolean</text></g></a><!--class Command--><g id="elem_Command"><rect codeLine="59" fill="#F1F1F1" height="48" id="Command" rx="2.5" ry="2.5" style="stroke:#181818;stroke-width:0.5;" width="96" x="1109" y="44.602"/><ellipse cx="1124" cy="60.602" fill="#A9DCDF" rx="11" ry="11" style="stroke:#181818;stroke-width:1.0;"/><path d="M1119.1719,66.352 L1122.5156,54.1645 L1125.6563,54.1645 L1129.0313,66.352 L1126.5625,66.352 L1125.8281,63.3364 L1122.3125,63.3364 L1121.5625,66.352 L1119.1719,66.352 Z M1123.5781,58.3051 L1122.8281,61.3051 L1125.3438,61.3051 L1124.625,58.3051 Q1124.4844,57.727 1124.3594,57.1801 Q1124.2344,56.6176 1124.0938,56.0395 Q1123.9844,56.6176 1123.8438,57.1801 Q1123.7031,57.727 1123.5781,58.3051 Z " fill="#000000"/><text fill="#000000" font-family="sans-serif" font-size="14" font-style="italic" lengthAdjust="spacing" textLength="64" x="1138" y="66.034">Command</text><line style="stroke:#181818;stroke-width:0.5;" x1="1110" x2="1204" y1="76.602" y2="76.602"/><line style="stroke:#181818;stroke-width:0.5;" x1="1110" x2="1204" y1="84.602" y2="84.602"/></g><!--reverse link Command to AcquisitionTrenchRetract--><g id="link_Command_AcquisitionTrenchRetract"><path codeLine="63" d="M1090.6232,70.7693 C912.9432,74.0993 320.7,87.792 242,124.602 C203.4,142.652 171.11,179.302 149.96,208.482 " fill="none" id="Command-backto-AcquisitionTrenchRetract" style="stroke:#181818;stroke-width:1.0;"/><polygon fill="none" points="1108.62,70.432,1090.5107,64.7703,1090.7356,76.7682,1108.62,70.432" style="stroke:#181818;stroke-width:1.0;"/></g><!--reverse link Command to AcquisitionRunCommand--><g id="link_Command_AcquisitionRunCommand"><path codeLine="64" d="M1090.9107,69.9659 C961.3407,71.1459 625.67,78.462 520,124.602 C486.69,139.142 456.03,164.952 432.03,189.462 " fill="none" id="Command-backto-AcquisitionRunCommand" style="stroke:#181818;stroke-width:1.0;"/><polygon fill="none" points="1108.91,69.802,1090.8561,63.9662,1090.9654,75.9657,1108.91,69.802" style="stroke:#181818;stroke-width:1.0;"/></g><!--reverse link AcquisitionRunCommand to AcquisitionRunCommand.Mode--><g id="link_AcquisitionRunCommand_AcquisitionRunCommand.Mode"><path codeLine="65" d="M381,330.262 C381,355.992 381,369.272 381,392.562 " fill="none" id="AcquisitionRunCommand-backto-AcquisitionRunCommand.Mode" style="stroke:#181818;stroke-width:1.0;"/><ellipse cx="381" cy="322.262" fill="#FFFFFF" rx="8" ry="8" style="stroke:#181818;stroke-width:1.0;"/><line style="stroke:#181818;stroke-width:1.0;" x1="381" x2="381" y1="330.262" y2="314.262"/><line style="stroke:#181818;stroke-width:1.0;" x1="373" x2="389" y1="322.262" y2="322.262"/></g><!--reverse link Command to AcquisitionPivotCommand--><g id="link_Command_AcquisitionPivotCommand"><path codeLine="66" d="M1090.805,76.2998 C1037.125,82.6598 966.61,94.792 896,124.602 C851.63,143.322 806.68,173.032 771.86,198.912 " fill="none" id="Command-backto-AcquisitionPivotCommand" style="stroke:#181818;stroke-width:1.0;"/><polygon fill="none" points="1108.68,74.182,1090.0991,70.3415,1091.511,82.2581,1108.68,74.182" style="stroke:#181818;stroke-width:1.0;"/></g><!--reverse link Command to AlignCommand--><g id="link_Command_AlignCommand"><path codeLine="67" d="M1157,110.912 C1157,130.612 1157,142.012 1157,170.122 " fill="none" id="Command-backto-AlignCommand" style="stroke:#181818;stroke-width:1.0;"/><polygon fill="none" points="1157,92.912,1151,110.912,1163,110.912,1157,92.912" style="stroke:#181818;stroke-width:1.0;"/></g><!--reverse link Command to AdjustHoodsCommand--><g id="link_Command_AdjustHoodsCommand"><path codeLine="68" d="M1222.9994,71.7411 C1277.9794,74.9511 1351.11,85.332 1418,124.602 C1452.72,144.972 1482.07,180.242 1501.69,208.322 " fill="none" id="Command-backto-AdjustHoodsCommand" style="stroke:#181818;stroke-width:1.0;"/><polygon fill="none" points="1205.03,70.692,1222.6497,77.7309,1223.3491,65.7513,1205.03,70.692" style="stroke:#181818;stroke-width:1.0;"/></g><!--reverse link Command to ShootCommand--><g id="link_Command_ShootCommand"><path codeLine="69" d="M1223.3223,72.2704 C1329.4023,76.9804 1561.24,90.622 1638,124.602 C1662.77,135.562 1686.37,152.342 1707.02,170.112 " fill="none" id="Command-backto-ShootCommand" style="stroke:#181818;stroke-width:1.0;"/><polygon fill="none" points="1205.34,71.472,1223.0561,78.2645,1223.5884,66.2763,1205.34,71.472" style="stroke:#181818;stroke-width:1.0;"/></g><!--reverse link Command to RetractHoodsCommand--><g id="link_Command_RetractHoodsCommand"><path codeLine="70" d="M1223.432,71.4996 C1382.052,76.2396 1861.48,92.952 1926,124.602 C1963.23,142.862 1993.73,179.292 2013.62,208.332 " fill="none" id="Command-backto-RetractHoodsCommand" style="stroke:#181818;stroke-width:1.0;"/><polygon fill="none" points="1205.44,70.962,1223.2528,77.497,1223.6112,65.5023,1205.44,70.962" style="stroke:#181818;stroke-width:1.0;"/></g><text fill="#888888" font-family="sans-serif" font-size="10" lengthAdjust="spacing" textLength="176" x="984" y="511.832">UMLDoclet 2.1.2, PlantUML 1.2024.3</text><!--SRC=[lLPTRzem57tlh_3Bf4IqaSPZj1S-iXKD62BmC5KLSfnBSUVOcUsmQHt_VKu2gma9RRMmI57mlOUJSp-u5uGGKg3DdMA9jP38zw-kZ16bc7p33u3MadXIH49xH2G9vh52JoKYlmZ3Ig4U-PvHHJKLV261ayqSjCH4exkx9fUtqGcxlpTSoBewb1iePlGNEAwFjeB65R_wQ21g0t7kZuHWWFbVoEwCi7d61sK0nwgUxGsIQh7EHCJWjgczW81XtZkg55PimBEaFZGlbzKON-wi3_99QQmfsQ7EQBheVGuQdCDHEFiI1g_AzunkXQxDkErvEUSssh7i8UXKKAxTopOGemzstrZ7bp9vk-olUkFHf-aac2vMy-MaFmvM9ht1D1mjllee5bd4e1AtnUyC2q2OfIcZ8AzHzTmlnGy4Lra2qZr3LV71Jo2PldIRxZCOFsPAtmeHAokF9yQ6HlW7fITAmesmEz8-DhpTXbHpUEJRb-9GcpVsvFyintxyLkfHOxtaWDuThnY8C-z7IhqrbKhddnYD7hk7VMCfm94gzqePo-04iBFfpzFw_k7h7txVtDIiETzlsbsjip_Fw8BwrMZKUGjtCVzRrsxFvvR8hSdL4kF9k6c7rvu1xJ3M_10BOW9SWqHhypxpM4x6Gq6O-T_MzTvxtMiqOvXhOqNljY2LgOhZ_W40]--></g></svg>