<?xml version="1.0" encoding="us-ascii" standalone="no"?><svg xmlns="http://www.w3.org/2000/svg" xmlns:xlink="http://www.w3.org/1999/xlink" contentStyleType="text/css" height="874px" preserveAspectRatio="none" style="width:2295px;height:874px;background:#FFFFFF;" version="1.1" viewBox="0 0 2295 874" width="2295px" zoomAndPan="magnify"><defs/><g><!--cluster frc.robot.commands--><g id="cluster_frc.robot.commands"><path d="M8.5,160.672 L151.5,160.672 A3.75,3.75 0 0 1 154,163.172 L161,185.7399 L2285.5,185.7399 A2.5,2.5 0 0 1 2288,188.2399 L2288,844.802 A2.5,2.5 0 0 1 2285.5,847.302 L8.5,847.302 A2.5,2.5 0 0 1 6,844.802 L6,163.172 A2.5,2.5 0 0 1 8.5,160.672 " fill="none" style="stroke:#000000;stroke-width:1.5;"/><line style="stroke:#000000;stroke-width:1.5;" x1="6" x2="161" y1="185.7399" y2="185.7399"/><text fill="#000000" font-family="sans-serif" font-size="14" font-weight="bold" lengthAdjust="spacing" textLength="142" x="10" y="177.6379">frc.robot.commands</text></g><!--cluster edu.wpi.first.wpilibj2.command--><g id="cluster_edu.wpi.first.wpilibj2.command"><path d="M1015.5,6.602 L1235.5,6.602 A3.75,3.75 0 0 1 1238,9.102 L1245,31.6699 L1298.5,31.6699 A2.5,2.5 0 0 1 1301,34.1699 L1301,125.172 A2.5,2.5 0 0 1 1298.5,127.672 L1015.5,127.672 A2.5,2.5 0 0 1 1013,125.172 L1013,9.102 A2.5,2.5 0 0 1 1015.5,6.602 " fill="none" style="stroke:#000000;stroke-width:1.5;"/><line style="stroke:#000000;stroke-width:1.5;" x1="1013" x2="1245" y1="31.6699" y2="31.6699"/><text fill="#000000" font-family="sans-serif" font-size="14" font-weight="bold" lengthAdjust="spacing" textLength="219" x="1017" y="23.5679">edu.wpi.first.wpilibj2.command</text></g><!--class AcquisitionTrenchRetract--><a href="AcquisitionTrenchRetract.html" target="_top" title="AcquisitionTrenchRetract.html" xlink:actuate="onRequest" xlink:href="AcquisitionTrenchRetract.html" xlink:show="new" xlink:title="AcquisitionTrenchRetract.html" xlink:type="simple"><g id="elem_AcquisitionTrenchRetract"><rect codeLine="5" fill="#F1F1F1" height="105.2038" id="AcquisitionTrenchRetract" rx="2.5" ry="2.5" style="stroke:#181818;stroke-width:0.5;" width="202" x="22" y="379.822"/><ellipse cx="37" cy="395.822" fill="#ADD1B2" rx="11" ry="11" style="stroke:#181818;stroke-width:1.0;"/><path d="M36.4688,402.7439 Q34.7188,402.7439 33.5781,402.0095 Q32.4531,401.2595 31.8906,399.9157 Q31.3438,398.5564 31.3438,396.7595 Q31.3438,394.7282 32,393.2751 Q32.6563,391.822 33.9375,391.0407 Q35.2188,390.2595 37.0938,390.2595 Q37.9844,390.2595 38.6563,390.447 Q39.3281,390.6189 40.0156,390.9626 L39.2031,392.9782 Q38.5781,392.6657 38.0313,392.5407 Q37.5,392.4157 37.0156,392.4157 Q35.8438,392.4157 35.1406,392.947 Q34.4375,393.4782 34.1406,394.4314 Q33.8438,395.3845 33.8438,396.6501 Q33.8438,398.6657 34.5625,399.6345 Q35.2813,400.5876 36.875,400.5876 Q37.4688,400.5876 38.0938,400.4314 Q38.7188,400.2751 39.5469,399.9001 L39.5469,402.1189 Q38.8125,402.4314 38.0156,402.5876 Q37.2344,402.7439 36.4688,402.7439 Z " fill="#000000"/><text fill="#000000" font-family="sans-serif" font-size="14" lengthAdjust="spacing" textLength="170" x="51" y="401.254">AcquisitionTrenchRetract</text><line style="stroke:#181818;stroke-width:0.5;" x1="23" x2="223" y1="411.822" y2="411.822"/><rect fill="none" height="6" style="stroke:#C82930;stroke-width:1.0;" width="6" x="30" y="423.8559"/><text fill="#000000" font-family="sans-serif" font-size="14" lengthAdjust="spacing" textLength="157" x="42" y="430.7879">acquisition: Acquisition</text><line style="stroke:#181818;stroke-width:0.5;" x1="23" x2="223" y1="438.8899" y2="438.8899"/><ellipse cx="33" cy="453.9239" fill="#84BE84" rx="3" ry="3" style="stroke:#038048;stroke-width:1.0;"/><text fill="#000000" font-family="sans-serif" font-size="14" lengthAdjust="spacing" textLength="101" x="42" y="457.8558">initialize(): void</text><ellipse cx="33" cy="472.9918" fill="#84BE84" rx="3" ry="3" style="stroke:#038048;stroke-width:1.0;"/><text fill="#000000" font-family="sans-serif" font-size="14" lengthAdjust="spacing" textLength="138" x="42" y="476.9238">isFinished(): boolean</text></g></a><!--class AcquisitionRunCommand--><a href="AcquisitionRunCommand.html" target="_top" title="AcquisitionRunCommand.html" xlink:actuate="onRequest" xlink:href="AcquisitionRunCommand.html" xlink:show="new" xlink:title="AcquisitionRunCommand.html" xlink:type="simple"><g id="elem_AcquisitionRunCommand"><rect codeLine="11" fill="#F1F1F1" height="162.4075" id="AcquisitionRunCommand" rx="2.5" ry="2.5" style="stroke:#181818;stroke-width:0.5;" width="243" x="259.5" y="351.212"/><ellipse cx="292.5" cy="367.212" fill="#ADD1B2" rx="11" ry="11" style="stroke:#181818;stroke-width:1.0;"/><path d="M291.9688,374.1339 Q290.2188,374.1339 289.0781,373.3995 Q287.9531,372.6495 287.3906,371.3057 Q286.8438,369.9464 286.8438,368.1495 Q286.8438,366.1182 287.5,364.6651 Q288.1563,363.212 289.4375,362.4307 Q290.7188,361.6495 292.5938,361.6495 Q293.4844,361.6495 294.1563,361.837 Q294.8281,362.0089 295.5156,362.3526 L294.7031,364.3682 Q294.0781,364.0557 293.5313,363.9307 Q293,363.8057 292.5156,363.8057 Q291.3438,363.8057 290.6406,364.337 Q289.9375,364.8682 289.6406,365.8214 Q289.3438,366.7745 289.3438,368.0401 Q289.3438,370.0557 290.0625,371.0245 Q290.7813,371.9776 292.375,371.9776 Q292.9688,371.9776 293.5938,371.8214 Q294.2188,371.6651 295.0469,371.2901 L295.0469,373.5089 Q294.3125,373.8214 293.5156,373.9776 Q292.7344,374.1339 291.9688,374.1339 Z " fill="#000000"/><text fill="#000000" font-family="sans-serif" font-size="14" lengthAdjust="spacing" textLength="171" x="310.5" y="372.644">AcquisitionRunCommand</text><line style="stroke:#181818;stroke-width:0.5;" x1="260.5" x2="501.5" y1="383.212" y2="383.212"/><rect fill="none" height="6" style="stroke:#C82930;stroke-width:1.0;" width="6" x="267.5" y="395.2459"/><text fill="#000000" font-family="sans-serif" font-size="14" lengthAdjust="spacing" textLength="157" x="279.5" y="402.1779">acquisition: Acquisition</text><rect fill="none" height="6" style="stroke:#C82930;stroke-width:1.0;" width="6" x="267.5" y="414.3139"/><text fill="#000000" font-family="sans-serif" font-size="14" lengthAdjust="spacing" textLength="88" x="279.5" y="421.2458">kicker: Kicker</text><line style="stroke:#181818;stroke-width:0.5;" x1="260.5" x2="501.5" y1="429.3478" y2="429.3478"/><ellipse cx="270.5" cy="444.3818" fill="#84BE84" rx="3" ry="3" style="stroke:#038048;stroke-width:1.0;"/><text fill="#000000" font-family="sans-serif" font-size="14" lengthAdjust="spacing" textLength="217" x="279.5" y="448.3138">AcquisitionRunCommand(Mode)</text><ellipse cx="270.5" cy="463.4497" fill="#84BE84" rx="3" ry="3" style="stroke:#038048;stroke-width:1.0;"/><text fill="#000000" font-family="sans-serif" font-size="14" lengthAdjust="spacing" textLength="101" x="279.5" y="467.3817">initialize(): void</text><ellipse cx="270.5" cy="482.5176" fill="#84BE84" rx="3" ry="3" style="stroke:#038048;stroke-width:1.0;"/><text fill="#000000" font-family="sans-serif" font-size="14" lengthAdjust="spacing" textLength="138" x="279.5" y="486.4496">isFinished(): boolean</text><ellipse cx="270.5" cy="501.5855" fill="#84BE84" rx="3" ry="3" style="stroke:#038048;stroke-width:1.0;"/><text fill="#000000" font-family="sans-serif" font-size="14" lengthAdjust="spacing" textLength="124" x="279.5" y="505.5175">end(boolean): void</text></g></a><!--class AcquisitionRunCommand.Mode--><a href="AcquisitionRunCommand.Mode.html" target="_top" title="AcquisitionRunCommand.Mode.html" xlink:actuate="onRequest" xlink:href="AcquisitionRunCommand.Mode.html" xlink:show="new" xlink:title="AcquisitionRunCommand.Mode.html" xlink:type="simple"><g id="elem_AcquisitionRunCommand.Mode"><rect codeLine="20" fill="#F1F1F1" height="86.1358" id="AcquisitionRunCommand.Mode" rx="2.5" ry="2.5" style="stroke:#181818;stroke-width:0.5;" width="245" x="258.5" y="745.162"/><ellipse cx="273.5" cy="761.162" fill="#EB937F" rx="11" ry="11" style="stroke:#181818;stroke-width:1.0;"/><path d="M269.8594,767.662 L269.8594,755.5214 L277.5156,755.5214 L277.5156,757.6464 L272.2344,757.6464 L272.2344,760.3026 L277.25,760.3026 L277.25,762.4276 L272.2344,762.4276 L272.2344,765.537 L277.5156,765.537 L277.5156,767.662 L269.8594,767.662 Z " fill="#000000"/><text fill="#000000" font-family="sans-serif" font-size="14" lengthAdjust="spacing" textLength="213" x="287.5" y="766.594">AcquisitionRunCommand.Mode</text><line style="stroke:#181818;stroke-width:0.5;" x1="259.5" x2="502.5" y1="777.162" y2="777.162"/><ellipse cx="269.5" cy="792.1959" fill="none" rx="3" ry="3" style="stroke:#038048;stroke-width:1.0;"/><text fill="#000000" font-family="sans-serif" font-size="14" lengthAdjust="spacing" text-decoration="underline" textLength="50" x="278.5" y="796.1279">INTAKE</text><ellipse cx="269.5" cy="811.2639" fill="none" rx="3" ry="3" style="stroke:#038048;stroke-width:1.0;"/><text fill="#000000" font-family="sans-serif" font-size="14" lengthAdjust="spacing" text-decoration="underline" textLength="58" x="278.5" y="815.1958">DISPOSE</text><line style="stroke:#181818;stroke-width:0.5;" x1="259.5" x2="502.5" y1="823.2978" y2="823.2978"/></g></a><!--class AcquisitionPivotCommand--><a href="AcquisitionPivotCommand.html" target="_top" title="AcquisitionPivotCommand.html" xlink:actuate="onRequest" xlink:href="AcquisitionPivotCommand.html" xlink:show="new" xlink:title="AcquisitionPivotCommand.html" xlink:type="simple"><g id="elem_AcquisitionPivotCommand"><rect codeLine="25" fill="#F1F1F1" height="143.3396" id="AcquisitionPivotCommand" rx="2.5" ry="2.5" style="stroke:#181818;stroke-width:0.5;" width="341" x="537.5" y="360.752"/><ellipse cx="615.75" cy="376.752" fill="#ADD1B2" rx="11" ry="11" style="stroke:#181818;stroke-width:1.0;"/><path d="M615.2188,383.6739 Q613.4688,383.6739 612.3281,382.9395 Q611.2031,382.1895 610.6406,380.8457 Q610.0938,379.4864 610.0938,377.6895 Q610.0938,375.6582 610.75,374.2051 Q611.4063,372.752 612.6875,371.9707 Q613.9688,371.1895 615.8438,371.1895 Q616.7344,371.1895 617.4063,371.377 Q618.0781,371.5489 618.7656,371.8926 L617.9531,373.9082 Q617.3281,373.5957 616.7813,373.4707 Q616.25,373.3457 615.7656,373.3457 Q614.5938,373.3457 613.8906,373.877 Q613.1875,374.4082 612.8906,375.3614 Q612.5938,376.3145 612.5938,377.5801 Q612.5938,379.5957 613.3125,380.5645 Q614.0313,381.5176 615.625,381.5176 Q616.2188,381.5176 616.8438,381.3614 Q617.4688,381.2051 618.2969,380.8301 L618.2969,383.0489 Q617.5625,383.3614 616.7656,383.5176 Q615.9844,383.6739 615.2188,383.6739 Z " fill="#000000"/><text fill="#000000" font-family="sans-serif" font-size="14" lengthAdjust="spacing" textLength="176" x="636.25" y="382.184">AcquisitionPivotCommand</text><line style="stroke:#181818;stroke-width:0.5;" x1="538.5" x2="877.5" y1="392.752" y2="392.752"/><rect fill="none" height="6" style="stroke:#C82930;stroke-width:1.0;" width="6" x="545.5" y="404.7859"/><text fill="#000000" font-family="sans-serif" font-size="14" lengthAdjust="spacing" textLength="157" x="557.5" y="411.7179">acquisition: Acquisition</text><rect fill="none" height="6" style="stroke:#C82930;stroke-width:1.0;" width="6" x="545.5" y="423.8539"/><text fill="#000000" font-family="sans-serif" font-size="14" lengthAdjust="spacing" textLength="194" x="557.5" y="430.7858">setpoint: AcquisitionSetpoint</text><line style="stroke:#181818;stroke-width:0.5;" x1="538.5" x2="877.5" y1="438.8878" y2="438.8878"/><ellipse cx="548.5" cy="453.9218" fill="#84BE84" rx="3" ry="3" style="stroke:#038048;stroke-width:1.0;"/><text fill="#000000" font-family="sans-serif" font-size="14" lengthAdjust="spacing" textLength="315" x="557.5" y="457.8538">AcquisitionPivotCommand(AcquisitionSetpoint)</text><ellipse cx="548.5" cy="472.9897" fill="#84BE84" rx="3" ry="3" style="stroke:#038048;stroke-width:1.0;"/><text fill="#000000" font-family="sans-serif" font-size="14" lengthAdjust="spacing" textLength="101" x="557.5" y="476.9217">initialize(): void</text><ellipse cx="548.5" cy="492.0576" fill="#84BE84" rx="3" ry="3" style="stroke:#038048;stroke-width:1.0;"/><text fill="#000000" font-family="sans-serif" font-size="14" lengthAdjust="spacing" textLength="138" x="557.5" y="495.9896">isFinished(): boolean</text></g></a><!--class AlignCommand--><a href="AlignCommand.html" target="_top" title="AlignCommand.html" xlink:actuate="onRequest" xlink:href="AlignCommand.html" xlink:show="new" xlink:title="AlignCommand.html" xlink:type="simple"><g id="elem_AlignCommand"><rect codeLine="33" fill="#F1F1F1" height="467.4942" id="AlignCommand" rx="2.5" ry="2.5" style="stroke:#181818;stroke-width:0.5;" width="487" x="913.5" y="198.672"/><ellipse cx="1100.75" cy="214.672" fill="#ADD1B2" rx="11" ry="11" style="stroke:#181818;stroke-width:1.0;"/><path d="M1100.2188,221.5939 Q1098.4688,221.5939 1097.3281,220.8595 Q1096.2031,220.1095 1095.6406,218.7657 Q1095.0938,217.4064 1095.0938,215.6095 Q1095.0938,213.5782 1095.75,212.1251 Q1096.4063,210.672 1097.6875,209.8907 Q1098.9688,209.1095 1100.8438,209.1095 Q1101.7344,209.1095 1102.4063,209.297 Q1103.0781,209.4689 1103.7656,209.8126 L1102.9531,211.8282 Q1102.3281,211.5157 1101.7813,211.3907 Q1101.25,211.2657 1100.7656,211.2657 Q1099.5938,211.2657 1098.8906,211.797 Q1098.1875,212.3282 1097.8906,213.2814 Q1097.5938,214.2345 1097.5938,215.5001 Q1097.5938,217.5157 1098.3125,218.4845 Q1099.0313,219.4376 1100.625,219.4376 Q1101.2188,219.4376 1101.8438,219.2814 Q1102.4688,219.1251 1103.2969,218.7501 L1103.2969,220.9689 Q1102.5625,221.2814 1101.7656,221.4376 Q1100.9844,221.5939 1100.2188,221.5939 Z " fill="#000000"/><text fill="#000000" font-family="sans-serif" font-size="14" lengthAdjust="spacing" textLength="104" x="1121.25" y="220.104">AlignCommand</text><line style="stroke:#181818;stroke-width:0.5;" x1="914.5" x2="1399.5" y1="230.672" y2="230.672"/><rect fill="none" height="6" style="stroke:#C82930;stroke-width:1.0;" width="6" x="921.5" y="242.7059"/><text fill="#000000" font-family="sans-serif" font-size="14" lengthAdjust="spacing" text-decoration="underline" textLength="63" x="933.5" y="249.6379">P: double</text><rect fill="none" height="6" style="stroke:#C82930;stroke-width:1.0;" width="6" x="921.5" y="261.7739"/><text fill="#000000" font-family="sans-serif" font-size="14" lengthAdjust="spacing" text-decoration="underline" textLength="60" x="933.5" y="268.7058">I: double</text><rect fill="none" height="6" style="stroke:#C82930;stroke-width:1.0;" width="6" x="921.5" y="280.8418"/><text fill="#000000" font-family="sans-serif" font-size="14" lengthAdjust="spacing" text-decoration="underline" textLength="65" x="933.5" y="287.7738">D: double</text><rect fill="none" height="6" style="stroke:#C82930;stroke-width:1.0;" width="6" x="921.5" y="299.9097"/><text fill="#000000" font-family="sans-serif" font-size="14" lengthAdjust="spacing" text-decoration="underline" textLength="218" x="933.5" y="306.8417">MAX_ROTATION_POWER: double</text><rect fill="none" height="6" style="stroke:#C82930;stroke-width:1.0;" width="6" x="921.5" y="318.9776"/><text fill="#000000" font-family="sans-serif" font-size="14" lengthAdjust="spacing" text-decoration="underline" textLength="257" x="933.5" y="325.9096">ALIGNMENT_TOLERANCE_RAD: double</text><ellipse cx="924.5" cy="341.0455" fill="none" rx="3" ry="3" style="stroke:#038048;stroke-width:1.0;"/><text fill="#000000" font-family="sans-serif" font-size="14" lengthAdjust="spacing" text-decoration="underline" textLength="312" x="933.5" y="344.9775">HUB_ALIGNMENT_RUMBLE_INTENSITY: double</text><rect fill="none" height="6" style="stroke:#C82930;stroke-width:1.0;" width="6" x="921.5" y="357.1134"/><text fill="#000000" font-family="sans-serif" font-size="14" lengthAdjust="spacing" textLength="147" x="933.5" y="364.0454">driveTrain: DriveTrain</text><rect fill="none" height="6" style="stroke:#C82930;stroke-width:1.0;" width="6" x="921.5" y="376.1814"/><text fill="#000000" font-family="sans-serif" font-size="14" lengthAdjust="spacing" textLength="155" x="933.5" y="383.1133">dashboard: Dashboard</text><rect fill="none" height="6" style="stroke:#C82930;stroke-width:1.0;" width="6" x="921.5" y="395.2493"/><text fill="#000000" font-family="sans-serif" font-size="14" lengthAdjust="spacing" textLength="111" x="933.5" y="402.1813">shooter: Shooter</text><rect fill="none" height="6" style="stroke:#C82930;stroke-width:1.0;" width="6" x="921.5" y="414.3172"/><text fill="#000000" font-family="sans-serif" font-size="14" lengthAdjust="spacing" textLength="161" x="933.5" y="421.2492">swagLights: SwagLights</text><rect fill="none" height="6" style="stroke:#C82930;stroke-width:1.0;" width="6" x="921.5" y="433.3851"/><text fill="#000000" font-family="sans-serif" font-size="14" lengthAdjust="spacing" textLength="265" x="933.5" y="440.3171">forwardSpeedSupplier: DoubleSupplier</text><rect fill="none" height="6" style="stroke:#C82930;stroke-width:1.0;" width="6" x="921.5" y="452.453"/><text fill="#000000" font-family="sans-serif" font-size="14" lengthAdjust="spacing" textLength="273" x="933.5" y="459.385">sidewaysSpeedSupplier: DoubleSupplier</text><rect fill="none" height="6" style="stroke:#C82930;stroke-width:1.0;" width="6" x="921.5" y="471.5209"/><text fill="#000000" font-family="sans-serif" font-size="14" lengthAdjust="spacing" textLength="303" x="933.5" y="478.4529">alignmentStateConsumer: BooleanConsumer</text><rect fill="none" height="6" style="stroke:#C82930;stroke-width:1.0;" width="6" x="921.5" y="490.5889"/><text fill="#000000" font-family="sans-serif" font-size="14" lengthAdjust="spacing" textLength="218" x="933.5" y="497.5208">rotationController: PIDController</text><rect fill="none" height="6" style="stroke:#C82930;stroke-width:1.0;" width="6" x="921.5" y="509.6568"/><text fill="#000000" font-family="sans-serif" font-size="14" lengthAdjust="spacing" textLength="157" x="933.5" y="516.5888">alignedToHub: Boolean</text><line style="stroke:#181818;stroke-width:0.5;" x1="914.5" x2="1399.5" y1="524.6907" y2="524.6907"/><ellipse cx="924.5" cy="539.7247" fill="#84BE84" rx="3" ry="3" style="stroke:#038048;stroke-width:1.0;"/><text fill="#000000" font-family="sans-serif" font-size="14" lengthAdjust="spacing" textLength="461" x="933.5" y="543.6567">AlignCommand(DoubleSupplier, DoubleSupplier, BooleanConsumer)</text><ellipse cx="924.5" cy="558.7926" fill="#84BE84" rx="3" ry="3" style="stroke:#038048;stroke-width:1.0;"/><text fill="#000000" font-family="sans-serif" font-size="14" lengthAdjust="spacing" textLength="112" x="933.5" y="562.7246">AlignCommand()</text><ellipse cx="924.5" cy="577.8605" fill="#84BE84" rx="3" ry="3" style="stroke:#038048;stroke-width:1.0;"/><text fill="#000000" font-family="sans-serif" font-size="14" lengthAdjust="spacing" textLength="96" x="933.5" y="581.7925">execute(): void</text><ellipse cx="924.5" cy="596.9284" fill="#84BE84" rx="3" ry="3" style="stroke:#038048;stroke-width:1.0;"/><text fill="#000000" font-family="sans-serif" font-size="14" lengthAdjust="spacing" textLength="138" x="933.5" y="600.8604">isFinished(): boolean</text><ellipse cx="924.5" cy="615.9964" fill="#84BE84" rx="3" ry="3" style="stroke:#038048;stroke-width:1.0;"/><text fill="#000000" font-family="sans-serif" font-size="14" lengthAdjust="spacing" textLength="124" x="933.5" y="619.9283">end(boolean): void</text><rect fill="#F24D5C" height="6" style="stroke:#C82930;stroke-width:1.0;" width="6" x="921.5" y="632.0643"/><text fill="#000000" font-family="sans-serif" font-size="14" lengthAdjust="spacing" textLength="286" x="933.5" y="638.9963">getAlignedTargetHeading(Pose2d): double</text><rect fill="#F24D5C" height="6" style="stroke:#C82930;stroke-width:1.0;" width="6" x="921.5" y="651.1322"/><text fill="#000000" font-family="sans-serif" font-size="14" lengthAdjust="spacing" textLength="250" x="933.5" y="658.0642">updateAlignmentState(boolean): void</text></g></a><!--class AdjustHoodsCommand--><a href="AdjustHoodsCommand.html" target="_top" title="AdjustHoodsCommand.html" xlink:actuate="onRequest" xlink:href="AdjustHoodsCommand.html" xlink:show="new" xlink:title="AdjustHoodsCommand.html" xlink:type="simple"><g id="elem_AdjustHoodsCommand"><rect codeLine="58" fill="#F1F1F1" height="162.4075" id="AdjustHoodsCommand" rx="2.5" ry="2.5" style="stroke:#181818;stroke-width:0.5;" width="221" x="1435.5" y="351.212"/><ellipse cx="1466.25" cy="367.212" fill="#ADD1B2" rx="11" ry="11" style="stroke:#181818;stroke-width:1.0;"/><path d="M1465.7188,374.1339 Q1463.9688,374.1339 1462.8281,373.3995 Q1461.7031,372.6495 1461.1406,371.3057 Q1460.5938,369.9464 1460.5938,368.1495 Q1460.5938,366.1182 1461.25,364.6651 Q1461.9063,363.212 1463.1875,362.4307 Q1464.4688,361.6495 1466.3438,361.6495 Q1467.2344,361.6495 1467.9063,361.837 Q1468.5781,362.0089 1469.2656,362.3526 L1468.4531,364.3682 Q1467.8281,364.0557 1467.2813,363.9307 Q1466.75,363.8057 1466.2656,363.8057 Q1465.0938,363.8057 1464.3906,364.337 Q1463.6875,364.8682 1463.3906,365.8214 Q1463.0938,366.7745 1463.0938,368.0401 Q1463.0938,370.0557 1463.8125,371.0245 Q1464.5313,371.9776 1466.125,371.9776 Q1466.7188,371.9776 1467.3438,371.8214 Q1467.9688,371.6651 1468.7969,371.2901 L1468.7969,373.5089 Q1468.0625,373.8214 1467.2656,373.9776 Q1466.4844,374.1339 1465.7188,374.1339 Z " fill="#000000"/><text fill="#000000" font-family="sans-serif" font-size="14" lengthAdjust="spacing" textLength="154" x="1483.75" y="372.644">AdjustHoodsCommand</text><line style="stroke:#181818;stroke-width:0.5;" x1="1436.5" x2="1655.5" y1="383.212" y2="383.212"/><rect fill="none" height="6" style="stroke:#C82930;stroke-width:1.0;" width="6" x="1443.5" y="395.2459"/><text fill="#000000" font-family="sans-serif" font-size="14" lengthAdjust="spacing" textLength="195" x="1455.5" y="402.1779">shooterHoods: ShooterHoods</text><rect fill="none" height="6" style="stroke:#C82930;stroke-width:1.0;" width="6" x="1443.5" y="414.3139"/><text fill="#000000" font-family="sans-serif" font-size="14" lengthAdjust="spacing" textLength="111" x="1455.5" y="421.2458">shooter: Shooter</text><rect fill="none" height="6" style="stroke:#C82930;stroke-width:1.0;" width="6" x="1443.5" y="433.3818"/><text fill="#000000" font-family="sans-serif" font-size="14" lengthAdjust="spacing" textLength="147" x="1455.5" y="440.3138">driveTrain: DriveTrain</text><rect fill="none" height="6" style="stroke:#C82930;stroke-width:1.0;" width="6" x="1443.5" y="452.4497"/><text fill="#000000" font-family="sans-serif" font-size="14" lengthAdjust="spacing" textLength="155" x="1455.5" y="459.3817">dashboard: Dashboard</text><line style="stroke:#181818;stroke-width:0.5;" x1="1436.5" x2="1655.5" y1="467.4836" y2="467.4836"/><ellipse cx="1446.5" cy="482.5176" fill="#84BE84" rx="3" ry="3" style="stroke:#038048;stroke-width:1.0;"/><text fill="#000000" font-family="sans-serif" font-size="14" lengthAdjust="spacing" textLength="96" x="1455.5" y="486.4496">execute(): void</text><ellipse cx="1446.5" cy="501.5855" fill="#84BE84" rx="3" ry="3" style="stroke:#038048;stroke-width:1.0;"/><text fill="#000000" font-family="sans-serif" font-size="14" lengthAdjust="spacing" textLength="138" x="1455.5" y="505.5175">isFinished(): boolean</text></g></a><!--class ShootCommand--><a href="ShootCommand.html" target="_top" title="ShootCommand.html" xlink:actuate="onRequest" xlink:href="ShootCommand.html" xlink:show="new" xlink:title="ShootCommand.html" xlink:type="simple"><g id="elem_ShootCommand"><rect codeLine="67" fill="#F1F1F1" height="391.2225" id="ShootCommand" rx="2.5" ry="2.5" style="stroke:#181818;stroke-width:0.5;" width="326" x="1691" y="236.812"/><ellipse cx="1796.25" cy="252.812" fill="#ADD1B2" rx="11" ry="11" style="stroke:#181818;stroke-width:1.0;"/><path d="M1795.7188,259.7339 Q1793.9688,259.7339 1792.8281,258.9995 Q1791.7031,258.2495 1791.1406,256.9057 Q1790.5938,255.5464 1790.5938,253.7495 Q1790.5938,251.7182 1791.25,250.2651 Q1791.9063,248.812 1793.1875,248.0307 Q1794.4688,247.2495 1796.3438,247.2495 Q1797.2344,247.2495 1797.9063,247.437 Q1798.5781,247.6089 1799.2656,247.9526 L1798.4531,249.9682 Q1797.8281,249.6557 1797.2813,249.5307 Q1796.75,249.4057 1796.2656,249.4057 Q1795.0938,249.4057 1794.3906,249.937 Q1793.6875,250.4682 1793.3906,251.4214 Q1793.0938,252.3745 1793.0938,253.6401 Q1793.0938,255.6557 1793.8125,256.6245 Q1794.5313,257.5776 1796.125,257.5776 Q1796.7188,257.5776 1797.3438,257.4214 Q1797.9688,257.2651 1798.7969,256.8901 L1798.7969,259.1089 Q1798.0625,259.4214 1797.2656,259.5776 Q1796.4844,259.7339 1795.7188,259.7339 Z " fill="#000000"/><text fill="#000000" font-family="sans-serif" font-size="14" lengthAdjust="spacing" textLength="107" x="1816.75" y="258.244">ShootCommand</text><line style="stroke:#181818;stroke-width:0.5;" x1="1692" x2="2016" y1="268.812" y2="268.812"/><rect fill="none" height="6" style="stroke:#C82930;stroke-width:1.0;" width="6" x="1699" y="280.8459"/><text fill="#000000" font-family="sans-serif" font-size="14" lengthAdjust="spacing" text-decoration="underline" textLength="233" x="1711" y="287.7779">HOOD_SERVO_MOVE_TIME: double</text><rect fill="none" height="6" style="stroke:#C82930;stroke-width:1.0;" width="6" x="1699" y="299.9139"/><text fill="#000000" font-family="sans-serif" font-size="14" lengthAdjust="spacing" text-decoration="underline" textLength="300" x="1711" y="306.8458">ACQUISITION_LOWER_WIGGLE_TIME: double</text><rect fill="none" height="6" style="stroke:#C82930;stroke-width:1.0;" width="6" x="1699" y="318.9818"/><text fill="#000000" font-family="sans-serif" font-size="14" lengthAdjust="spacing" text-decoration="underline" textLength="291" x="1711" y="325.9138">ACQUISITION_RAISE_WIGGLE_TIME: double</text><rect fill="none" height="6" style="stroke:#C82930;stroke-width:1.0;" width="6" x="1699" y="338.0497"/><text fill="#000000" font-family="sans-serif" font-size="14" lengthAdjust="spacing" textLength="157" x="1711" y="344.9817">acquisition: Acquisition</text><rect fill="none" height="6" style="stroke:#C82930;stroke-width:1.0;" width="6" x="1699" y="357.1176"/><text fill="#000000" font-family="sans-serif" font-size="14" lengthAdjust="spacing" textLength="88" x="1711" y="364.0496">kicker: Kicker</text><rect fill="none" height="6" style="stroke:#C82930;stroke-width:1.0;" width="6" x="1699" y="376.1855"/><text fill="#000000" font-family="sans-serif" font-size="14" lengthAdjust="spacing" textLength="111" x="1711" y="383.1175">shooter: Shooter</text><rect fill="none" height="6" style="stroke:#C82930;stroke-width:1.0;" width="6" x="1699" y="395.2534"/><text fill="#000000" font-family="sans-serif" font-size="14" lengthAdjust="spacing" textLength="147" x="1711" y="402.1854">driveTrain: DriveTrain</text><rect fill="none" height="6" style="stroke:#C82930;stroke-width:1.0;" width="6" x="1699" y="414.3214"/><text fill="#000000" font-family="sans-serif" font-size="14" lengthAdjust="spacing" textLength="155" x="1711" y="421.2533">dashboard: Dashboard</text><rect fill="none" height="6" style="stroke:#C82930;stroke-width:1.0;" width="6" x="1699" y="433.3893"/><text fill="#000000" font-family="sans-serif" font-size="14" lengthAdjust="spacing" textLength="161" x="1711" y="440.3213">swagLights: SwagLights</text><rect fill="none" height="6" style="stroke:#C82930;stroke-width:1.0;" width="6" x="1699" y="452.4572"/><text fill="#000000" font-family="sans-serif" font-size="14" lengthAdjust="spacing" textLength="83" x="1711" y="459.3892">timer: Timer</text><rect fill="none" height="6" style="stroke:#C82930;stroke-width:1.0;" width="6" x="1699" y="471.5251"/><text fill="#000000" font-family="sans-serif" font-size="14" lengthAdjust="spacing" textLength="296" x="1711" y="478.4571">wiggleAcquisitionSupplier: BooleanSupplier</text><rect fill="none" height="6" style="stroke:#C82930;stroke-width:1.0;" width="6" x="1699" y="490.593"/><text fill="#000000" font-family="sans-serif" font-size="14" lengthAdjust="spacing" textLength="196" x="1711" y="497.525">startingPivotDegrees: double</text><line style="stroke:#181818;stroke-width:0.5;" x1="1692" x2="2016" y1="505.627" y2="505.627"/><ellipse cx="1702" cy="520.6609" fill="#84BE84" rx="3" ry="3" style="stroke:#038048;stroke-width:1.0;"/><text fill="#000000" font-family="sans-serif" font-size="14" lengthAdjust="spacing" textLength="115" x="1711" y="524.5929">ShootCommand()</text><ellipse cx="1702" cy="539.7289" fill="#84BE84" rx="3" ry="3" style="stroke:#038048;stroke-width:1.0;"/><text fill="#000000" font-family="sans-serif" font-size="14" lengthAdjust="spacing" textLength="226" x="1711" y="543.6608">ShootCommand(BooleanSupplier)</text><ellipse cx="1702" cy="558.7968" fill="#84BE84" rx="3" ry="3" style="stroke:#038048;stroke-width:1.0;"/><text fill="#000000" font-family="sans-serif" font-size="14" lengthAdjust="spacing" textLength="101" x="1711" y="562.7288">initialize(): void</text><ellipse cx="1702" cy="577.8647" fill="#84BE84" rx="3" ry="3" style="stroke:#038048;stroke-width:1.0;"/><text fill="#000000" font-family="sans-serif" font-size="14" lengthAdjust="spacing" textLength="96" x="1711" y="581.7967">execute(): void</text><ellipse cx="1702" cy="596.9326" fill="#84BE84" rx="3" ry="3" style="stroke:#038048;stroke-width:1.0;"/><text fill="#000000" font-family="sans-serif" font-size="14" lengthAdjust="spacing" textLength="138" x="1711" y="600.8646">isFinished(): boolean</text><ellipse cx="1702" cy="616.0005" fill="#84BE84" rx="3" ry="3" style="stroke:#038048;stroke-width:1.0;"/><text fill="#000000" font-family="sans-serif" font-size="14" lengthAdjust="spacing" textLength="124" x="1711" y="619.9325">end(boolean): void</text></g></a><!--class RetractHoodsCommand--><a href="RetractHoodsCommand.html" target="_top" title="RetractHoodsCommand.html" xlink:actuate="onRequest" xlink:href="RetractHoodsCommand.html" xlink:show="new" xlink:title="RetractHoodsCommand.html" xlink:type="simple"><g id="elem_RetractHoodsCommand"><rect codeLine="88" fill="#F1F1F1" height="105.2038" id="RetractHoodsCommand" rx="2.5" ry="2.5" style="stroke:#181818;stroke-width:0.5;" width="221" x="2051.5" y="379.822"/><ellipse cx="2080" cy="395.822" fill="#ADD1B2" rx="11" ry="11" style="stroke:#181818;stroke-width:1.0;"/><path d="M2079.4688,402.7439 Q2077.7188,402.7439 2076.5781,402.0095 Q2075.4531,401.2595 2074.8906,399.9157 Q2074.3438,398.5564 2074.3438,396.7595 Q2074.3438,394.7282 2075,393.2751 Q2075.6563,391.822 2076.9375,391.0407 Q2078.2188,390.2595 2080.0938,390.2595 Q2080.9844,390.2595 2081.6563,390.447 Q2082.3281,390.6189 2083.0156,390.9626 L2082.2031,392.9782 Q2081.5781,392.6657 2081.0313,392.5407 Q2080.5,392.4157 2080.0156,392.4157 Q2078.8438,392.4157 2078.1406,392.947 Q2077.4375,393.4782 2077.1406,394.4314 Q2076.8438,395.3845 2076.8438,396.6501 Q2076.8438,398.6657 2077.5625,399.6345 Q2078.2813,400.5876 2079.875,400.5876 Q2080.4688,400.5876 2081.0938,400.4314 Q2081.7188,400.2751 2082.5469,399.9001 L2082.5469,402.1189 Q2081.8125,402.4314 2081.0156,402.5876 Q2080.2344,402.7439 2079.4688,402.7439 Z " fill="#000000"/><text fill="#000000" font-family="sans-serif" font-size="14" lengthAdjust="spacing" textLength="159" x="2097" y="401.254">RetractHoodsCommand</text><line style="stroke:#181818;stroke-width:0.5;" x1="2052.5" x2="2271.5" y1="411.822" y2="411.822"/><rect fill="none" height="6" style="stroke:#C82930;stroke-width:1.0;" width="6" x="2059.5" y="423.8559"/><text fill="#000000" font-family="sans-serif" font-size="14" lengthAdjust="spacing" textLength="195" x="2071.5" y="430.7879">shooterHoods: ShooterHoods</text><line style="stroke:#181818;stroke-width:0.5;" x1="2052.5" x2="2271.5" y1="438.8899" y2="438.8899"/><ellipse cx="2062.5" cy="453.9239" fill="#84BE84" rx="3" ry="3" style="stroke:#038048;stroke-width:1.0;"/><text fill="#000000" font-family="sans-serif" font-size="14" lengthAdjust="spacing" textLength="101" x="2071.5" y="457.8558">initialize(): void</text><ellipse cx="2062.5" cy="472.9918" fill="#84BE84" rx="3" ry="3" style="stroke:#038048;stroke-width:1.0;"/><text fill="#000000" font-family="sans-serif" font-size="14" lengthAdjust="spacing" textLength="138" x="2071.5" y="476.9238">isFinished(): boolean</text></g></a><!--class Command--><g id="elem_Command"><rect codeLine="97" fill="#F1F1F1" height="67.0679" id="Command" rx="2.5" ry="2.5" style="stroke:#181818;stroke-width:0.5;" width="255" x="1029.5" y="44.602"/><ellipse cx="1120.75" cy="60.602" fill="#A9DCDF" rx="11" ry="11" style="stroke:#181818;stroke-width:1.0;"/><path d="M1115.9219,66.352 L1119.2656,54.1645 L1122.4063,54.1645 L1125.7813,66.352 L1123.3125,66.352 L1122.5781,63.3364 L1119.0625,63.3364 L1118.3125,66.352 L1115.9219,66.352 Z M1120.3281,58.3051 L1119.5781,61.3051 L1122.0938,61.3051 L1121.375,58.3051 Q1121.2344,57.727 1121.1094,57.1801 Q1120.9844,56.6176 1120.8438,56.0395 Q1120.7344,56.6176 1120.5938,57.1801 Q1120.4531,57.727 1120.3281,58.3051 Z " fill="#000000"/><text fill="#000000" font-family="sans-serif" font-size="14" font-style="italic" lengthAdjust="spacing" textLength="64" x="1141.25" y="66.034">Command</text><line style="stroke:#181818;stroke-width:0.5;" x1="1030.5" x2="1283.5" y1="76.602" y2="76.602"/><rect fill="none" height="6" style="stroke:#C82930;stroke-width:1.0;" width="6" x="1037.5" y="88.6359"/><text fill="#000000" font-family="sans-serif" font-size="14" lengthAdjust="spacing" textLength="229" x="1049.5" y="95.5679">m_requirements: Set&lt;Subsystem&gt;</text><line style="stroke:#181818;stroke-width:0.5;" x1="1030.5" x2="1283.5" y1="103.6699" y2="103.6699"/></g><!--reverse link Command to AcquisitionTrenchRetract--><g id="link_Command_AcquisitionTrenchRetract"><path codeLine="102" d="M1011.3771,82.6462 C774.7871,89.2762 304.41,107.762 242,152.672 C168,205.922 139.66,314.762 129.07,379.562 " fill="none" id="Command-backto-AcquisitionTrenchRetract" style="stroke:#181818;stroke-width:1.0;"/><polygon fill="none" points="1029.37,82.142,1011.209,76.6486,1011.5451,88.6438,1029.37,82.142" style="stroke:#181818;stroke-width:1.0;"/></g><!--reverse link Command to AcquisitionRunCommand--><g id="link_Command_AcquisitionRunCommand"><path codeLine="103" d="M1011.3035,80.1354 C849.3735,83.3154 599.64,96.822 520,152.672 C453.81,199.092 417.52,286.352 398.79,350.932 " fill="none" id="Command-backto-AcquisitionRunCommand" style="stroke:#181818;stroke-width:1.0;"/><polygon fill="none" points="1029.3,79.782,1011.1857,74.1366,1011.4213,86.1342,1029.3,79.782" style="stroke:#181818;stroke-width:1.0;"/></g><!--link AcquisitionRunCommand to AcquisitionRunCommand.Mode--><g id="link_AcquisitionRunCommand_AcquisitionRunCommand.Mode"><path codeLine="104" d="M363,514.002 C353,570.582 344.66,647.862 356,715.162 C357.65,724.962 358.5915,729.5069 361.7715,739.0969 " fill="none" id="AcquisitionRunCommand-to-AcquisitionRunCommand.Mode" style="stroke:#181818;stroke-width:1.0;"/><polygon fill="#181818" points="363.66,744.792,364.624,734.9904,362.0863,740.0461,357.0306,737.5084,363.66,744.792" style="stroke:#181818;stroke-width:1.0;"/><text fill="#000000" font-family="sans-serif" font-size="13" lengthAdjust="spacing" textLength="35" x="357" y="711.059">mode</text></g><!--reverse link AcquisitionRunCommand to AcquisitionRunCommand.Mode--><g id="link_AcquisitionRunCommand_AcquisitionRunCommand.Mode"><path codeLine="105" d="M394.4711,529.9591 C400.9011,586.3991 404.41,647.592 397,715.162 C395.94,724.852 394.1,735.132 392.03,744.812 " fill="none" id="AcquisitionRunCommand-backto-AcquisitionRunCommand.Mode" style="stroke:#181818;stroke-width:1.0;"/><ellipse cx="393.5656" cy="522.0106" fill="#FFFFFF" rx="8" ry="8" style="stroke:#181818;stroke-width:1.0;"/><line style="stroke:#181818;stroke-width:1.0;" x1="394.4711" x2="392.66" y1="529.9591" y2="514.062"/><line style="stroke:#181818;stroke-width:1.0;" x1="385.617" x2="401.5141" y1="522.9161" y2="521.105"/></g><!--reverse link Command to AcquisitionPivotCommand--><g id="link_Command_AcquisitionPivotCommand"><path codeLine="106" d="M1011.6878,100.654 C966.4978,111.394 934.82,124.602 896,152.672 C822.56,205.772 769.06,296.982 738.31,360.552 " fill="none" id="Command-backto-AcquisitionPivotCommand" style="stroke:#181818;stroke-width:1.0;"/><polygon fill="none" points="1029.2,96.492,1010.3004,94.8166,1013.0751,106.4914,1029.2,96.492" style="stroke:#181818;stroke-width:1.0;"/></g><!--reverse link Command to AlignCommand--><g id="link_Command_AlignCommand"><path codeLine="107" d="M1157,129.962 C1157,151.742 1157,164.482 1157,198.372 " fill="none" id="Command-backto-AlignCommand" style="stroke:#181818;stroke-width:1.0;"/><polygon fill="none" points="1157,111.962,1151,129.962,1163,129.962,1157,111.962" style="stroke:#181818;stroke-width:1.0;"/></g><!--reverse link Command to AdjustHoodsCommand--><g id="link_Command_AdjustHoodsCommand"><path codeLine="108" d="M1302.3192,96.4564 C1348.5492,106.7564 1380.88,120.932 1418,152.672 C1477.59,203.632 1510.98,288.192 1528.59,350.842 " fill="none" id="Command-backto-AdjustHoodsCommand" style="stroke:#181818;stroke-width:1.0;"/><polygon fill="none" points="1284.75,92.542,1301.0144,102.3128,1303.624,90.6,1284.75,92.542" style="stroke:#181818;stroke-width:1.0;"/></g><!--reverse link Command to ShootCommand--><g id="link_Command_ShootCommand"><path codeLine="109" d="M1302.7234,86.3986 C1434.4834,94.8086 1611.34,112.562 1674,152.672 C1707.36,174.022 1735.78,204.012 1759.51,236.452 " fill="none" id="Command-backto-ShootCommand" style="stroke:#181818;stroke-width:1.0;"/><polygon fill="none" points="1284.76,85.252,1302.3413,92.3864,1303.1056,80.4107,1284.76,85.252" style="stroke:#181818;stroke-width:1.0;"/></g><!--reverse link Command to RetractHoodsCommand--><g id="link_Command_RetractHoodsCommand"><path codeLine="110" d="M1302.7103,83.3533 C1531.5103,90.8733 1975.12,110.512 2035,152.672 C2110.34,205.712 2141.87,314.632 2154.38,379.502 " fill="none" id="Command-backto-RetractHoodsCommand" style="stroke:#181818;stroke-width:1.0;"/><polygon fill="none" points="1284.72,82.762,1302.5132,89.35,1302.9074,77.3565,1284.72,82.762" style="stroke:#181818;stroke-width:1.0;"/></g><text fill="#888888" font-family="sans-serif" font-size="10" lengthAdjust="spacing" textLength="176" x="1052.5" y="863.992">UMLDoclet 2.1.2, PlantUML 1.2024.3</text><!--SRC=[lLTRRzem57xlh_3B9105QNsCfaafP2Kg49QaxQQgYano6jmcCRETibl_-vnmSq8e8D8X0RRFrUVosKO88Gv2VcUOOK4PqhIpCxc8PjX_nY6WH-Pt69rGqV5f7ECauEZFWYFx-17c7Ed-ZvHm8WXDN0Q9FxL1CEmBT7-_YzIPYZXwU92waF9fumsxfgejSBL88XTnH7v3ewcX5qg24fr_aIny2a56dr0Q0TweU7t3VJjDkejj5dtVh9_YUFkP-C_0D7IT_nUThhJM6D80cdNkFcS1gNb9AAjGeWD96bS7fvEvjJD26R4wJ7-um8BuhwXbZbpzsjX1x9dEs7ACWp8s9YzKLEPCfPoKDTaWCqeIKM1nbeixawYQRrG8Dj-tfYCIggMiJFUafZtMK43JIGGxwEOUUcyFVQX_yspBrLtJ6dbZwywmzmZe0_DgD3H6hkTQ0yFMHrt3i_KzPbhzcqjl8sdV32y7XYVBpXWvflkzKhWTCF82BiD4baDlFIxnO3wTKCm2oR8QbkfbIgd8sjnP34hKEGu799mABXdMuoBF8sLpgTQP0GHEEfj595FNoprUpKjQIG1p_8iV8OApceWX4OuC6NHfmjCuaxbSrDPgeIZ4Q1PVcb45er6K2OpDtcPQOGC2b_RJoLfpgMMKqcmK_Jr7vNd9j-ORgaeq-0b-Aju5ClETXY3qvMOnavC-u80aOMDCELm4pUfwIsU13BrUICG1mBniyU0fvQ9FQS2LHjzQt05zooBDETULci-EAUPQ6kQKt6n59NTp4mzrkW_u-fRLynp3lhMyeNLhUAuvDFP1K_VhZIdn98EoGGPbtfrvTJKuMjRMJSVOAtlwBUD_fFCWX1CanngNR27Cd8HX1Eg1kKQpPVVlG421cP0Tbv-xFGWP0A-COakjYJ9C56WbUqUUsE-8E5jLlxnLby2WOlKqDAZdbl9QV650a7RcCz9v98oBR1IHoTF5whcXU8edVF6iMEovkyMGRoNs6CZQOP0XQhOP49-STC9_SG7nPyKNnPMtNT2qbQbFVzljYXUHfkrwvjIkVNFDpbKVp8tQxS-7S-TNU0t5ylT8CwrZjf2RgJr4wiMx9kNAlQ8cZLl7T3rwLVYgHsC5XkIAVTbTmD1ZZXJePZZeKJy2WIuw7piNvsWSuKJ8LVJX1HYNMMaq_m40]--></g></svg>