<?xml version="1.0" encoding="us-ascii" standalone="no"?><svg xmlns="http://www.w3.org/2000/svg" xmlns:xlink="http://www.w3.org/1999/xlink" contentStyleType="text/css" height="302px" preserveAspectRatio="none" style="width:266px;height:302px;background:#FFFFFF;" version="1.1" viewBox="0 0 266 302" width="266px" zoomAndPan="magnify"><defs/><g><!--class frc.robot.commands.ShootCommand--><a href="ShootCommand.html" target="_top" title="ShootCommand.html" xlink:actuate="onRequest" xlink:href="ShootCommand.html" xlink:show="new" xlink:title="ShootCommand.html" xlink:type="simple"><g id="elem_frc.robot.commands.ShootCommand"><rect codeLine="5" fill="#F1F1F1" height="165.0954" id="frc.robot.commands.ShootCommand" rx="2.5" ry="2.5" style="stroke:#181818;stroke-width:0.5;" width="252" x="7" y="109.68"/><ellipse cx="75.25" cy="131.024" fill="#ADD1B2" rx="11" ry="11" style="stroke:#181818;stroke-width:1.0;"/><path d="M74.7188,137.9458 Q72.9688,137.9458 71.8281,137.2115 Q70.7031,136.4615 70.1406,135.1177 Q69.5938,133.7583 69.5938,131.9615 Q69.5938,129.9302 70.25,128.4771 Q70.9063,127.024 72.1875,126.2427 Q73.4688,125.4615 75.3438,125.4615 Q76.2344,125.4615 76.9063,125.649 Q77.5781,125.8208 78.2656,126.1646 L77.4531,128.1802 Q76.8281,127.8677 76.2813,127.7427 Q75.75,127.6177 75.2656,127.6177 Q74.0938,127.6177 73.3906,128.149 Q72.6875,128.6802 72.3906,129.6333 Q72.0938,130.5865 72.0938,131.8521 Q72.0938,133.8677 72.8125,134.8365 Q73.5313,135.7896 75.125,135.7896 Q75.7188,135.7896 76.3438,135.6333 Q76.9688,135.4771 77.7969,135.1021 L77.7969,137.3208 Q77.0625,137.6333 76.2656,137.7896 Q75.4844,137.9458 74.7188,137.9458 Z " fill="#000000"/><text fill="#000000" font-family="sans-serif" font-size="14" lengthAdjust="spacing" textLength="107" x="95.75" y="129.6459">ShootCommand</text><text fill="#000000" font-family="sans-serif" font-size="10" lengthAdjust="spacing" textLength="96" x="101.25" y="144.4379">frc.robot.commands</text><line style="stroke:#181818;stroke-width:0.5;" x1="8" x2="258" y1="152.3679" y2="152.3679"/><ellipse cx="18" cy="167.4019" fill="#84BE84" rx="3" ry="3" style="stroke:#038048;stroke-width:1.0;"/><text fill="#000000" font-family="sans-serif" font-size="14" lengthAdjust="spacing" textLength="115" x="27" y="171.3338">ShootCommand()</text><ellipse cx="18" cy="186.4698" fill="#84BE84" rx="3" ry="3" style="stroke:#038048;stroke-width:1.0;"/><text fill="#000000" font-family="sans-serif" font-size="14" lengthAdjust="spacing" textLength="226" x="27" y="190.4018">ShootCommand(BooleanSupplier)</text><ellipse cx="18" cy="205.5377" fill="#84BE84" rx="3" ry="3" style="stroke:#038048;stroke-width:1.0;"/><text fill="#000000" font-family="sans-serif" font-size="14" lengthAdjust="spacing" textLength="101" x="27" y="209.4697">initialize(): void</text><ellipse cx="18" cy="224.6056" fill="#84BE84" rx="3" ry="3" style="stroke:#038048;stroke-width:1.0;"/><text fill="#000000" font-family="sans-serif" font-size="14" lengthAdjust="spacing" textLength="96" x="27" y="228.5376">execute(): void</text><ellipse cx="18" cy="243.6735" fill="#84BE84" rx="3" ry="3" style="stroke:#038048;stroke-width:1.0;"/><text fill="#000000" font-family="sans-serif" font-size="14" lengthAdjust="spacing" textLength="138" x="27" y="247.6055">isFinished(): boolean</text><ellipse cx="18" cy="262.7414" fill="#84BE84" rx="3" ry="3" style="stroke:#038048;stroke-width:1.0;"/><text fill="#000000" font-family="sans-serif" font-size="14" lengthAdjust="spacing" textLength="124" x="27" y="266.6734">end(boolean): void</text></g></a><!--class edu.wpi.first.wpilibj2.command.Command--><g id="elem_edu.wpi.first.wpilibj2.command.Command"><rect codeLine="14" fill="#F1F1F1" height="42.6879" id="edu.wpi.first.wpilibj2.command.Command" rx="2.5" ry="2.5" style="stroke:#181818;stroke-width:0.5;" width="178" x="44" y="7"/><ellipse cx="59" cy="28.344" fill="#A9DCDF" rx="11" ry="11" style="stroke:#181818;stroke-width:1.0;"/><path d="M54.1719,34.094 L57.5156,21.9065 L60.6563,21.9065 L64.0313,34.094 L61.5625,34.094 L60.8281,31.0783 L57.3125,31.0783 L56.5625,34.094 L54.1719,34.094 Z M58.5781,26.0471 L57.8281,29.0471 L60.3438,29.0471 L59.625,26.0471 Q59.4844,25.469 59.3594,24.9221 Q59.2344,24.3596 59.0938,23.7815 Q58.9844,24.3596 58.8438,24.9221 Q58.7031,25.469 58.5781,26.0471 Z " fill="#000000"/><text fill="#000000" font-family="sans-serif" font-size="14" font-style="italic" lengthAdjust="spacing" textLength="64" x="114" y="26.9659">Command</text><text fill="#000000" font-family="sans-serif" font-size="10" font-style="italic" lengthAdjust="spacing" textLength="146" x="73" y="41.7579">edu.wpi.first.wpilibj2.command</text></g><!--reverse link edu.wpi.first.wpilibj2.command.Command to frc.robot.commands.ShootCommand--><g id="link_edu.wpi.first.wpilibj2.command.Command_frc.robot.commands.ShootCommand"><path codeLine="16" d="M133,68.17 C133,83.46 133,87.3 133,109.24 " fill="none" id="edu.wpi.first.wpilibj2.command.Command-backto-frc.robot.commands.ShootCommand" style="stroke:#181818;stroke-width:1.0;"/><polygon fill="none" points="133,50.17,127,68.17,139,68.17,133,50.17" style="stroke:#181818;stroke-width:1.0;"/></g><text fill="#888888" font-family="sans-serif" font-size="10" lengthAdjust="spacing" textLength="176" x="38" y="291.4654">UMLDoclet 2.1.2, PlantUML 1.2024.3</text><!--SRC=[ZP9DImCn48Rl_egX86pH1biybTA3YYS5eNYgFMIpi-n8DhDaPkltVpVjLboiNxaaUTxv2Ey4041G8TWQfR4E5zZOQ9KZ10vua6Ieg430kj4dA0bz8LzfZLfnmblkl1M1mKpe6QVZq_cYOjPphciRYhkmmoVpCZeJEMSrhjDa05PW7vj-0LWk-rTJQUrNAtZPTjwiexwS3N_WPymURLYqJUC9Oo-C0YbPdnwP3QUmPYe-DNn4r-et0ibbofCAYusMTyLxUQdZ3lPJtpg_R2uQhTCzu_Ozmw8r3msPagBevkGflvzyEBNrx_SGiwlPTVvVBCnUHwE_vj9D7eDYX3BXjDrUNrsmy-blJSpOJ8xXnjkWYSBX6gCGXspu3W00]--></g></svg>