<?xml version="1.0" encoding="us-ascii" standalone="no"?><svg xmlns="http://www.w3.org/2000/svg" xmlns:xlink="http://www.w3.org/1999/xlink" contentStyleType="text/css" height="539px" preserveAspectRatio="none" style="width:340px;height:539px;background:#FFFFFF;" version="1.1" viewBox="0 0 340 539" width="340px" zoomAndPan="magnify"><defs/><g><!--class frc.robot.commands.ShootCommand--><a href="ShootCommand.html" target="_top" title="ShootCommand.html" xlink:actuate="onRequest" xlink:href="ShootCommand.html" xlink:show="new" xlink:title="ShootCommand.html" xlink:type="simple"><g id="elem_frc.robot.commands.ShootCommand"><rect codeLine="5" fill="#F1F1F1" height="401.9104" id="frc.robot.commands.ShootCommand" rx="2.5" ry="2.5" style="stroke:#181818;stroke-width:0.5;" width="326" x="7" y="109.69"/><ellipse cx="112.25" cy="131.034" fill="#ADD1B2" rx="11" ry="11" style="stroke:#181818;stroke-width:1.0;"/><path d="M111.7188,137.9558 Q109.9688,137.9558 108.8281,137.2215 Q107.7031,136.4715 107.1406,135.1277 Q106.5938,133.7683 106.5938,131.9715 Q106.5938,129.9402 107.25,128.4871 Q107.9063,127.034 109.1875,126.2527 Q110.4688,125.4715 112.3438,125.4715 Q113.2344,125.4715 113.9063,125.659 Q114.5781,125.8308 115.2656,126.1746 L114.4531,128.1902 Q113.8281,127.8777 113.2813,127.7527 Q112.75,127.6277 112.2656,127.6277 Q111.0938,127.6277 110.3906,128.159 Q109.6875,128.6902 109.3906,129.6433 Q109.0938,130.5965 109.0938,131.8621 Q109.0938,133.8777 109.8125,134.8465 Q110.5313,135.7996 112.125,135.7996 Q112.7188,135.7996 113.3438,135.6433 Q113.9688,135.4871 114.7969,135.1121 L114.7969,137.3308 Q114.0625,137.6433 113.2656,137.7996 Q112.4844,137.9558 111.7188,137.9558 Z " fill="#000000"/><text fill="#000000" font-family="sans-serif" font-size="14" lengthAdjust="spacing" textLength="107" x="132.75" y="129.6559">ShootCommand</text><text fill="#000000" font-family="sans-serif" font-size="10" lengthAdjust="spacing" textLength="96" x="138.25" y="144.4479">frc.robot.commands</text><line style="stroke:#181818;stroke-width:0.5;" x1="8" x2="332" y1="152.3779" y2="152.3779"/><rect fill="none" height="6" style="stroke:#C82930;stroke-width:1.0;" width="6" x="15" y="164.4119"/><text fill="#000000" font-family="sans-serif" font-size="14" lengthAdjust="spacing" text-decoration="underline" textLength="233" x="27" y="171.3438">HOOD_SERVO_MOVE_TIME: double</text><rect fill="none" height="6" style="stroke:#C82930;stroke-width:1.0;" width="6" x="15" y="183.4798"/><text fill="#000000" font-family="sans-serif" font-size="14" lengthAdjust="spacing" text-decoration="underline" textLength="300" x="27" y="190.4118">ACQUISITION_LOWER_WIGGLE_TIME: double</text><rect fill="none" height="6" style="stroke:#C82930;stroke-width:1.0;" width="6" x="15" y="202.5477"/><text fill="#000000" font-family="sans-serif" font-size="14" lengthAdjust="spacing" text-decoration="underline" textLength="291" x="27" y="209.4797">ACQUISITION_RAISE_WIGGLE_TIME: double</text><rect fill="none" height="6" style="stroke:#C82930;stroke-width:1.0;" width="6" x="15" y="221.6156"/><text fill="#000000" font-family="sans-serif" font-size="14" lengthAdjust="spacing" textLength="157" x="27" y="228.5476">acquisition: Acquisition</text><rect fill="none" height="6" style="stroke:#C82930;stroke-width:1.0;" width="6" x="15" y="240.6835"/><text fill="#000000" font-family="sans-serif" font-size="14" lengthAdjust="spacing" textLength="88" x="27" y="247.6155">kicker: Kicker</text><rect fill="none" height="6" style="stroke:#C82930;stroke-width:1.0;" width="6" x="15" y="259.7514"/><text fill="#000000" font-family="sans-serif" font-size="14" lengthAdjust="spacing" textLength="111" x="27" y="266.6834">shooter: Shooter</text><rect fill="none" height="6" style="stroke:#C82930;stroke-width:1.0;" width="6" x="15" y="278.8194"/><text fill="#000000" font-family="sans-serif" font-size="14" lengthAdjust="spacing" textLength="147" x="27" y="285.7513">driveTrain: DriveTrain</text><rect fill="none" height="6" style="stroke:#C82930;stroke-width:1.0;" width="6" x="15" y="297.8873"/><text fill="#000000" font-family="sans-serif" font-size="14" lengthAdjust="spacing" textLength="155" x="27" y="304.8193">dashboard: Dashboard</text><rect fill="none" height="6" style="stroke:#C82930;stroke-width:1.0;" width="6" x="15" y="316.9552"/><text fill="#000000" font-family="sans-serif" font-size="14" lengthAdjust="spacing" textLength="161" x="27" y="323.8872">swagLights: SwagLights</text><rect fill="none" height="6" style="stroke:#C82930;stroke-width:1.0;" width="6" x="15" y="336.0231"/><text fill="#000000" font-family="sans-serif" font-size="14" lengthAdjust="spacing" textLength="83" x="27" y="342.9551">timer: Timer</text><rect fill="none" height="6" style="stroke:#C82930;stroke-width:1.0;" width="6" x="15" y="355.091"/><text fill="#000000" font-family="sans-serif" font-size="14" lengthAdjust="spacing" textLength="296" x="27" y="362.023">wiggleAcquisitionSupplier: BooleanSupplier</text><rect fill="none" height="6" style="stroke:#C82930;stroke-width:1.0;" width="6" x="15" y="374.1589"/><text fill="#000000" font-family="sans-serif" font-size="14" lengthAdjust="spacing" textLength="196" x="27" y="381.0909">startingPivotDegrees: double</text><line style="stroke:#181818;stroke-width:0.5;" x1="8" x2="332" y1="389.1929" y2="389.1929"/><ellipse cx="18" cy="404.2269" fill="#84BE84" rx="3" ry="3" style="stroke:#038048;stroke-width:1.0;"/><text fill="#000000" font-family="sans-serif" font-size="14" lengthAdjust="spacing" textLength="115" x="27" y="408.1588">ShootCommand()</text><ellipse cx="18" cy="423.2948" fill="#84BE84" rx="3" ry="3" style="stroke:#038048;stroke-width:1.0;"/><text fill="#000000" font-family="sans-serif" font-size="14" lengthAdjust="spacing" textLength="226" x="27" y="427.2268">ShootCommand(BooleanSupplier)</text><ellipse cx="18" cy="442.3627" fill="#84BE84" rx="3" ry="3" style="stroke:#038048;stroke-width:1.0;"/><text fill="#000000" font-family="sans-serif" font-size="14" lengthAdjust="spacing" textLength="101" x="27" y="446.2947">initialize(): void</text><ellipse cx="18" cy="461.4306" fill="#84BE84" rx="3" ry="3" style="stroke:#038048;stroke-width:1.0;"/><text fill="#000000" font-family="sans-serif" font-size="14" lengthAdjust="spacing" textLength="96" x="27" y="465.3626">execute(): void</text><ellipse cx="18" cy="480.4985" fill="#84BE84" rx="3" ry="3" style="stroke:#038048;stroke-width:1.0;"/><text fill="#000000" font-family="sans-serif" font-size="14" lengthAdjust="spacing" textLength="138" x="27" y="484.4305">isFinished(): boolean</text><ellipse cx="18" cy="499.5664" fill="#84BE84" rx="3" ry="3" style="stroke:#038048;stroke-width:1.0;"/><text fill="#000000" font-family="sans-serif" font-size="14" lengthAdjust="spacing" textLength="124" x="27" y="503.4984">end(boolean): void</text></g></a><!--class edu.wpi.first.wpilibj2.command.Command--><g id="elem_edu.wpi.first.wpilibj2.command.Command"><rect codeLine="26" fill="#F1F1F1" height="42.6879" id="edu.wpi.first.wpilibj2.command.Command" rx="2.5" ry="2.5" style="stroke:#181818;stroke-width:0.5;" width="178" x="81" y="7"/><ellipse cx="96" cy="28.344" fill="#A9DCDF" rx="11" ry="11" style="stroke:#181818;stroke-width:1.0;"/><path d="M91.1719,34.094 L94.5156,21.9065 L97.6563,21.9065 L101.0313,34.094 L98.5625,34.094 L97.8281,31.0783 L94.3125,31.0783 L93.5625,34.094 L91.1719,34.094 Z M95.5781,26.0471 L94.8281,29.0471 L97.3438,29.0471 L96.625,26.0471 Q96.4844,25.469 96.3594,24.9221 Q96.2344,24.3596 96.0938,23.7815 Q95.9844,24.3596 95.8438,24.9221 Q95.7031,25.469 95.5781,26.0471 Z " fill="#000000"/><text fill="#000000" font-family="sans-serif" font-size="14" font-style="italic" lengthAdjust="spacing" textLength="64" x="151" y="26.9659">Command</text><text fill="#000000" font-family="sans-serif" font-size="10" font-style="italic" lengthAdjust="spacing" textLength="146" x="110" y="41.7579">edu.wpi.first.wpilibj2.command</text></g><!--reverse link edu.wpi.first.wpilibj2.command.Command to frc.robot.commands.ShootCommand--><g id="link_edu.wpi.first.wpilibj2.command.Command_frc.robot.commands.ShootCommand"><path codeLine="28" d="M170,67.96 C170,82.43 170,85.42 170,109.29 " fill="none" id="edu.wpi.first.wpilibj2.command.Command-backto-frc.robot.commands.ShootCommand" style="stroke:#181818;stroke-width:1.0;"/><polygon fill="none" points="170,49.96,164,67.96,176,67.96,170,49.96" style="stroke:#181818;stroke-width:1.0;"/></g><text fill="#888888" font-family="sans-serif" font-size="10" lengthAdjust="spacing" textLength="176" x="75" y="528.2904">UMLDoclet 2.1.2, PlantUML 1.2024.3</text><!--SRC=[bLHHRvim47xVhpXLcfIe2rgZFQ6gKjQm3YqPNKZRXwv21Yvmgx6PRP9kNV_x3AG1DLstyUBpzzrzX_5t001eD21OWRfa2OPOCiMCL22am5UMXfnI12nAymDMX3pLJz42JIujtE09Prh3mR6cd-WUlJi9SodDgImA9jAlOWk_FLcfn54obiP9MauV0DEm3pjz0RY-xc-Tt1JyvWRkcyxrSwyDCvGymEXZ44oZq5jS1j4ykFIYfJ_tN4Xb5NDy9dro-kN23_sb7toEPi6LjuYk_BEpsN_LBIP-wBrODsB9zueq6PB2XKctwJ9kARb5vSAdPkrmNP-x9i8sw9XKqHgNYf6LdExY7izq7akcKai_XZtT3SjcbEL6M-bTtF66YhhhibuwT4DPnh5tWB0gIqvrvdifER8TqEjac38aidDQIpF5J27glIzqsB_VmV0F-9CUlJGIzdKOjouR35rOI-gEUeXtc5Jc6OBq1rkdSqnhBcx5UtMsunRibpwqXcUnDeebPi_v-wR7j78s9JahKjhK4QVus_ZHwiq0l9pYR3NRpl-M2yU_HgE_3LOxkYYiiM3L-0ikvhEfJBZzEOoT8sVy1iuv4yQYy7gDIjix7mn_0m00]--></g></svg>