<?xml version="1.0" encoding="us-ascii" standalone="no"?><svg xmlns="http://www.w3.org/2000/svg" xmlns:xlink="http://www.w3.org/1999/xlink" contentStyleType="text/css" height="418px" preserveAspectRatio="none" style="width:3600px;height:418px;" version="1.1" viewBox="0 0 3600 418" width="3600px" zoomAndPan="magnify"><defs/><g><!--class frc.robot.commands--><a href="frc/robot/commands/package-summary.html" target="_top" title="frc/robot/commands/package-summary.html" xlink:actuate="onRequest" xlink:href="frc/robot/commands/package-summary.html" xlink:show="new" xlink:title="frc/robot/commands/package-summary.html" xlink:type="simple"><g id="elem_frc.robot.commands"><rect codeLine="63" fill="#F1F1F1" height="29.0679" id="frc.robot.commands" rx="2.5" ry="2.5" style="stroke:#181818;stroke-width:0.5;" width="142" x="1073" y="96.07"/><text fill="#000000" font-family="sans-serif" font-size="14" lengthAdjust="spacing" textLength="136" x="1076" y="116.0359">frc.robot.commands</text></g></a><!--class edu.wpi.first.wpilibj2.command--><g id="elem_edu.wpi.first.wpilibj2.command"><rect fill="#F1F1F1" height="29.0679" id="edu.wpi.first.wpilibj2.command" rx="2.5" ry="2.5" style="stroke:#181818;stroke-width:0.5;" width="219" x="1146.5" y="274.2"/><text fill="#000000" font-family="sans-serif" font-size="14" lengthAdjust="spacing" textLength="213" x="1149.5" y="294.1659">edu.wpi.first.wpilibj2.command</text></g><!--class frc.robot.subsystems--><a href="frc/robot/subsystems/package-summary.html" target="_top" title="frc/robot/subsystems/package-summary.html" xlink:actuate="onRequest" xlink:href="frc/robot/subsystems/package-summary.html" xlink:show="new" xlink:title="frc/robot/subsystems/package-summary.html" xlink:type="simple"><g id="elem_frc.robot.subsystems"><rect codeLine="65" fill="#F1F1F1" height="29.0679" id="frc.robot.subsystems" rx="2.5" ry="2.5" style="stroke:#181818;stroke-width:0.5;" width="147" x="1843.5" y="185.14"/><text fill="#000000" font-family="sans-serif" font-size="14" lengthAdjust="spacing" textLength="141" x="1846.5" y="205.1059">frc.robot.subsystems</text></g></a><!--class frc.robot.constants--><a href="frc/robot/constants/package-summary.html" target="_top" title="frc/robot/constants/package-summary.html" xlink:actuate="onRequest" xlink:href="frc/robot/constants/package-summary.html" xlink:show="new" xlink:title="frc/robot/constants/package-summary.html" xlink:type="simple"><g id="elem_frc.robot.constants"><rect codeLine="67" fill="#F1F1F1" height="29.0679" id="frc.robot.constants" rx="2.5" ry="2.5" style="stroke:#181818;stroke-width:0.5;" width="133" x="978.5" y="274.2"/><text fill="#000000" font-family="sans-serif" font-size="14" lengthAdjust="spacing" textLength="127" x="981.5" y="294.1659">frc.robot.constants</text></g></a><!--class edu.wpi.first.util.function--><g id="elem_edu.wpi.first.util.function"><rect fill="#F1F1F1" height="29.0679" id="edu.wpi.first.util.function" rx="2.5" ry="2.5" style="stroke:#181818;stroke-width:0.5;" width="177" x="1189.5" y="185.14"/><text fill="#000000" font-family="sans-serif" font-size="14" lengthAdjust="spacing" textLength="171" x="1192.5" y="205.1059">edu.wpi.first.util.function</text></g><!--class edu.wpi.first.math.controller--><g id="elem_edu.wpi.first.math.controller"><rect fill="#F1F1F1" height="29.0679" id="edu.wpi.first.math.controller" rx="2.5" ry="2.5" style="stroke:#181818;stroke-width:0.5;" width="199" x="884.5" y="185.14"/><text fill="#000000" font-family="sans-serif" font-size="14" lengthAdjust="spacing" textLength="193" x="887.5" y="205.1059">edu.wpi.first.math.controller</text></g><!--class edu.wpi.first.math.geometry--><g id="elem_edu.wpi.first.math.geometry"><rect fill="#F1F1F1" height="29.0679" id="edu.wpi.first.math.geometry" rx="2.5" ry="2.5" style="stroke:#181818;stroke-width:0.5;" width="198" x="1978" y="363.27"/><text fill="#000000" font-family="sans-serif" font-size="14" lengthAdjust="spacing" textLength="192" x="1981" y="383.2359">edu.wpi.first.math.geometry</text></g><!--class edu.wpi.first.wpilibj--><g id="elem_edu.wpi.first.wpilibj"><rect fill="#F1F1F1" height="29.0679" id="edu.wpi.first.wpilibj" rx="2.5" ry="2.5" style="stroke:#181818;stroke-width:0.5;" width="140" x="804" y="274.2"/><text fill="#000000" font-family="sans-serif" font-size="14" lengthAdjust="spacing" textLength="134" x="807" y="294.1659">edu.wpi.first.wpilibj</text></g><!--class frc.robot.autons--><a href="frc/robot/autons/package-summary.html" target="_top" title="frc/robot/autons/package-summary.html" xlink:actuate="onRequest" xlink:href="frc/robot/autons/package-summary.html" xlink:show="new" xlink:title="frc/robot/autons/package-summary.html" xlink:type="simple"><g id="elem_frc.robot.autons"><rect codeLine="69" fill="#F1F1F1" height="29.0679" id="frc.robot.autons" rx="2.5" ry="2.5" style="stroke:#181818;stroke-width:0.5;" width="114" x="2249" y="96.07"/><text fill="#000000" font-family="sans-serif" font-size="14" lengthAdjust="spacing" textLength="108" x="2252" y="116.0359">frc.robot.autons</text></g></a><!--class com.pathplanner.lib.path--><g id="elem_com.pathplanner.lib.path"><rect fill="#F1F1F1" height="29.0679" id="com.pathplanner.lib.path" rx="2.5" ry="2.5" style="stroke:#181818;stroke-width:0.5;" width="178" x="2026" y="185.14"/><text fill="#000000" font-family="sans-serif" font-size="14" lengthAdjust="spacing" textLength="172" x="2029" y="205.1059">com.pathplanner.lib.path</text></g><!--class org.json.simple.parser--><g id="elem_org.json.simple.parser"><rect fill="#F1F1F1" height="29.0679" id="org.json.simple.parser" rx="2.5" ry="2.5" style="stroke:#181818;stroke-width:0.5;" width="158" x="2239" y="185.14"/><text fill="#000000" font-family="sans-serif" font-size="14" lengthAdjust="spacing" textLength="152" x="2242" y="205.1059">org.json.simple.parser</text></g><!--class com.pathplanner.lib.util--><g id="elem_com.pathplanner.lib.util"><rect fill="#F1F1F1" height="29.0679" id="com.pathplanner.lib.util" rx="2.5" ry="2.5" style="stroke:#181818;stroke-width:0.5;" width="169" x="2431.5" y="185.14"/><text fill="#000000" font-family="sans-serif" font-size="14" lengthAdjust="spacing" textLength="163" x="2434.5" y="205.1059">com.pathplanner.lib.util</text></g><!--class com.pathplanner.lib.trajectory--><g id="elem_com.pathplanner.lib.trajectory"><rect fill="#F1F1F1" height="29.0679" id="com.pathplanner.lib.trajectory" rx="2.5" ry="2.5" style="stroke:#181818;stroke-width:0.5;" width="211" x="2814.5" y="185.14"/><text fill="#000000" font-family="sans-serif" font-size="14" lengthAdjust="spacing" textLength="205" x="2817.5" y="205.1059">com.pathplanner.lib.trajectory</text></g><!--class edu.wpi.first.wpilibj.smartdashboard--><g id="elem_edu.wpi.first.wpilibj.smartdashboard"><rect fill="#F1F1F1" height="29.0679" id="edu.wpi.first.wpilibj.smartdashboard" rx="2.5" ry="2.5" style="stroke:#181818;stroke-width:0.5;" width="256" x="3256" y="274.2"/><text fill="#000000" font-family="sans-serif" font-size="14" lengthAdjust="spacing" textLength="250" x="3259" y="294.1659">edu.wpi.first.wpilibj.smartdashboard</text></g><!--class frc.robot--><a href="frc/robot/package-summary.html" target="_top" title="frc/robot/package-summary.html" xlink:actuate="onRequest" xlink:href="frc/robot/package-summary.html" xlink:show="new" xlink:title="frc/robot/package-summary.html" xlink:type="simple"><g id="elem_frc.robot"><rect codeLine="71" fill="#F1F1F1" height="29.0679" id="frc.robot" rx="2.5" ry="2.5" style="stroke:#181818;stroke-width:0.5;" width="64" x="2054" y="7"/><text fill="#000000" font-family="sans-serif" font-size="14" lengthAdjust="spacing" textLength="58" x="2057" y="26.9659">frc.robot</text></g></a><!--class edu.wpi.first.hal--><g id="elem_edu.wpi.first.hal"><rect fill="#F1F1F1" height="29.0679" id="edu.wpi.first.hal" rx="2.5" ry="2.5" style="stroke:#181818;stroke-width:0.5;" width="116" x="1250" y="96.07"/><text fill="#000000" font-family="sans-serif" font-size="14" lengthAdjust="spacing" textLength="110" x="1253" y="116.0359">edu.wpi.first.hal</text></g><!--class edu.wpi.first.networktables--><g id="elem_edu.wpi.first.networktables"><rect fill="#F1F1F1" height="29.0679" id="edu.wpi.first.networktables" rx="2.5" ry="2.5" style="stroke:#181818;stroke-width:0.5;" width="190" x="2960" y="274.2"/><text fill="#000000" font-family="sans-serif" font-size="14" lengthAdjust="spacing" textLength="184" x="2963" y="294.1659">edu.wpi.first.networktables</text></g><!--class com.ctre.phoenix6.swerve--><g id="elem_com.ctre.phoenix6.swerve"><rect fill="#F1F1F1" height="29.0679" id="com.ctre.phoenix6.swerve" rx="2.5" ry="2.5" style="stroke:#181818;stroke-width:0.5;" width="181" x="2816.5" y="363.27"/><text fill="#000000" font-family="sans-serif" font-size="14" lengthAdjust="spacing" textLength="175" x="2819.5" y="383.2359">com.ctre.phoenix6.swerve</text></g><!--class frc.robot.libraries--><a href="frc/robot/libraries/package-summary.html" target="_top" title="frc/robot/libraries/package-summary.html" xlink:actuate="onRequest" xlink:href="frc/robot/libraries/package-summary.html" xlink:show="new" xlink:title="frc/robot/libraries/package-summary.html" xlink:type="simple"><g id="elem_frc.robot.libraries"><rect codeLine="73" fill="#F1F1F1" height="29.0679" id="frc.robot.libraries" rx="2.5" ry="2.5" style="stroke:#181818;stroke-width:0.5;" width="124" x="698" y="96.07"/><text fill="#000000" font-family="sans-serif" font-size="14" lengthAdjust="spacing" textLength="118" x="701" y="116.0359">frc.robot.libraries</text></g></a><!--class edu.wpi.first.math.filter--><g id="elem_edu.wpi.first.math.filter"><rect fill="#F1F1F1" height="29.0679" id="edu.wpi.first.math.filter" rx="2.5" ry="2.5" style="stroke:#181818;stroke-width:0.5;" width="166" x="2003" y="96.07"/><text fill="#000000" font-family="sans-serif" font-size="14" lengthAdjust="spacing" textLength="160" x="2006" y="116.0359">edu.wpi.first.math.filter</text></g><!--class edu.wpi.first.wpilibj2.command.button--><g id="elem_edu.wpi.first.wpilibj2.command.button"><rect fill="#F1F1F1" height="29.0679" id="edu.wpi.first.wpilibj2.command.button" rx="2.5" ry="2.5" style="stroke:#181818;stroke-width:0.5;" width="268" x="439" y="185.14"/><text fill="#000000" font-family="sans-serif" font-size="14" lengthAdjust="spacing" textLength="262" x="442" y="205.1059">edu.wpi.first.wpilibj2.command.button</text></g><!--class frc.robot.utils--><a href="frc/robot/utils/package-summary.html" target="_top" title="frc/robot/utils/package-summary.html" xlink:actuate="onRequest" xlink:href="frc/robot/utils/package-summary.html" xlink:show="new" xlink:title="frc/robot/utils/package-summary.html" xlink:type="simple"><g id="elem_frc.robot.utils"><rect codeLine="75" fill="#F1F1F1" height="29.0679" id="frc.robot.utils" rx="2.5" ry="2.5" style="stroke:#181818;stroke-width:0.5;" width="97" x="2028.5" y="274.2"/><text fill="#000000" font-family="sans-serif" font-size="14" lengthAdjust="spacing" textLength="91" x="2031.5" y="294.1659">frc.robot.utils</text></g></a><!--class com.revrobotics.servohub--><g id="elem_com.revrobotics.servohub"><rect fill="#F1F1F1" height="29.0679" id="com.revrobotics.servohub" rx="2.5" ry="2.5" style="stroke:#181818;stroke-width:0.5;" width="180" x="1251" y="363.27"/><text fill="#000000" font-family="sans-serif" font-size="14" lengthAdjust="spacing" textLength="174" x="1254" y="383.2359">com.revrobotics.servohub</text></g><!--class com.revrobotics.servohub.config--><g id="elem_com.revrobotics.servohub.config"><rect fill="#F1F1F1" height="29.0679" id="com.revrobotics.servohub.config" rx="2.5" ry="2.5" style="stroke:#181818;stroke-width:0.5;" width="226" x="1466" y="363.27"/><text fill="#000000" font-family="sans-serif" font-size="14" lengthAdjust="spacing" textLength="220" x="1469" y="383.2359">com.revrobotics.servohub.config</text></g><!--class com.revrobotics.spark--><g id="elem_com.revrobotics.spark"><rect fill="#F1F1F1" height="29.0679" id="com.revrobotics.spark" rx="2.5" ry="2.5" style="stroke:#181818;stroke-width:0.5;" width="154" x="1840" y="274.2"/><text fill="#000000" font-family="sans-serif" font-size="14" lengthAdjust="spacing" textLength="148" x="1843" y="294.1659">com.revrobotics.spark</text></g><!--class com.revrobotics--><g id="elem_com.revrobotics"><rect fill="#F1F1F1" height="29.0679" id="com.revrobotics" rx="2.5" ry="2.5" style="stroke:#181818;stroke-width:0.5;" width="113" x="2160.5" y="274.2"/><text fill="#000000" font-family="sans-serif" font-size="14" lengthAdjust="spacing" textLength="107" x="2163.5" y="294.1659">com.revrobotics</text></g><!--class edu.wpi.first.util.sendable--><g id="elem_edu.wpi.first.util.sendable"><rect fill="#F1F1F1" height="29.0679" id="edu.wpi.first.util.sendable" rx="2.5" ry="2.5" style="stroke:#181818;stroke-width:0.5;" width="183" x="2379.5" y="274.2"/><text fill="#000000" font-family="sans-serif" font-size="14" lengthAdjust="spacing" textLength="177" x="2382.5" y="294.1659">edu.wpi.first.util.sendable</text></g><!--class edu.wpi.first.wpilibj2.command.sysid--><g id="elem_edu.wpi.first.wpilibj2.command.sysid"><rect fill="#F1F1F1" height="29.0679" id="edu.wpi.first.wpilibj2.command.sysid" rx="2.5" ry="2.5" style="stroke:#181818;stroke-width:0.5;" width="257" x="2597.5" y="274.2"/><text fill="#000000" font-family="sans-serif" font-size="14" lengthAdjust="spacing" textLength="251" x="2600.5" y="294.1659">edu.wpi.first.wpilibj2.command.sysid</text></g><!--class edu.wpi.first.math--><g id="elem_edu.wpi.first.math"><rect fill="#F1F1F1" height="29.0679" id="edu.wpi.first.math" rx="2.5" ry="2.5" style="stroke:#181818;stroke-width:0.5;" width="130" x="1727" y="363.27"/><text fill="#000000" font-family="sans-serif" font-size="14" lengthAdjust="spacing" textLength="124" x="1730" y="383.2359">edu.wpi.first.math</text></g><!--class org.photonvision--><g id="elem_org.photonvision"><rect fill="#F1F1F1" height="29.0679" id="org.photonvision" rx="2.5" ry="2.5" style="stroke:#181818;stroke-width:0.5;" width="120" x="1685" y="274.2"/><text fill="#000000" font-family="sans-serif" font-size="14" lengthAdjust="spacing" textLength="114" x="1688" y="294.1659">org.photonvision</text></g><!--class com.ctre.phoenix6.configs--><g id="elem_com.ctre.phoenix6.configs"><rect fill="#F1F1F1" height="29.0679" id="com.ctre.phoenix6.configs" rx="2.5" ry="2.5" style="stroke:#181818;stroke-width:0.5;" width="183" x="1032.5" y="363.27"/><text fill="#000000" font-family="sans-serif" font-size="14" lengthAdjust="spacing" textLength="177" x="1035.5" y="383.2359">com.ctre.phoenix6.configs</text></g><!--class com.ctre.phoenix6.signals--><g id="elem_com.ctre.phoenix6.signals"><rect fill="#F1F1F1" height="29.0679" id="com.ctre.phoenix6.signals" rx="2.5" ry="2.5" style="stroke:#181818;stroke-width:0.5;" width="182" x="7" y="363.27"/><text fill="#000000" font-family="sans-serif" font-size="14" lengthAdjust="spacing" textLength="176" x="10" y="383.2359">com.ctre.phoenix6.signals</text></g><!--class edu.wpi.first.units.measure--><g id="elem_edu.wpi.first.units.measure"><rect fill="#F1F1F1" height="29.0679" id="edu.wpi.first.units.measure" rx="2.5" ry="2.5" style="stroke:#181818;stroke-width:0.5;" width="192" x="224" y="363.27"/><text fill="#000000" font-family="sans-serif" font-size="14" lengthAdjust="spacing" textLength="186" x="227" y="383.2359">edu.wpi.first.units.measure</text></g><!--class com.ctre.phoenix6--><g id="elem_com.ctre.phoenix6"><rect fill="#F1F1F1" height="29.0679" id="com.ctre.phoenix6" rx="2.5" ry="2.5" style="stroke:#181818;stroke-width:0.5;" width="130" x="451" y="363.27"/><text fill="#000000" font-family="sans-serif" font-size="14" lengthAdjust="spacing" textLength="124" x="454" y="383.2359">com.ctre.phoenix6</text></g><!--class edu.wpi.first.apriltag--><g id="elem_edu.wpi.first.apriltag"><rect fill="#F1F1F1" height="29.0679" id="edu.wpi.first.apriltag" rx="2.5" ry="2.5" style="stroke:#181818;stroke-width:0.5;" width="148" x="616" y="363.27"/><text fill="#000000" font-family="sans-serif" font-size="14" lengthAdjust="spacing" textLength="142" x="619" y="383.2359">edu.wpi.first.apriltag</text></g><!--class edu.wpi.first.math.trajectory--><g id="elem_edu.wpi.first.math.trajectory"><rect fill="#F1F1F1" height="29.0679" id="edu.wpi.first.math.trajectory" rx="2.5" ry="2.5" style="stroke:#181818;stroke-width:0.5;" width="198" x="799" y="363.27"/><text fill="#000000" font-family="sans-serif" font-size="14" lengthAdjust="spacing" textLength="192" x="802" y="383.2359">edu.wpi.first.math.trajectory</text></g><!--link frc.robot.commands to edu.wpi.first.wpilibj2.command--><g id="link_frc.robot.commands_edu.wpi.first.wpilibj2.command"><path codeLine="7" d="M1215.4,123.87 C1278.55,136.34 1363.72,157.72 1384,185.14 C1412.7,223.95 1352.9113,254.2792 1305.4313,271.7392 " fill="none" id="frc.robot.commands-to-edu.wpi.first.wpilibj2.command" style="stroke:#181818;stroke-width:1.0;"/><polygon fill="#181818" points="1299.8,273.81,1309.6275,274.458,1304.4928,272.0843,1306.8664,266.9496,1299.8,273.81" style="stroke:#181818;stroke-width:1.0;"/></g><!--link frc.robot.commands to frc.robot.subsystems--><g id="link_frc.robot.commands_frc.robot.subsystems"><path codeLine="8" d="M1215.37,122.74 C1221.33,123.58 1227.27,124.39 1233,125.14 C1454.63,153.89 1711.7468,179.3332 1837.2668,191.2432 " fill="none" id="frc.robot.commands-to-frc.robot.subsystems" style="stroke:#181818;stroke-width:1.0;"/><polygon fill="#181818" points="1843.24,191.81,1834.6581,186.9777,1838.2624,191.3377,1833.9024,194.942,1843.24,191.81" style="stroke:#181818;stroke-width:1.0;"/></g><!--link frc.robot.commands to frc.robot.constants--><g id="link_frc.robot.commands_frc.robot.constants"><path codeLine="9" d="M1072.7,120.64 C999.21,131.59 891.95,152.7 867,185.14 C831.44,231.36 908.0662,259.03 972.3062,273.98 " fill="none" id="frc.robot.commands-to-frc.robot.constants" style="stroke:#181818;stroke-width:1.0;"/><polygon fill="#181818" points="978.15,275.34,970.2909,269.4041,973.2801,274.2067,968.4776,277.1959,978.15,275.34" style="stroke:#181818;stroke-width:1.0;"/></g><!--link frc.robot.commands to edu.wpi.first.util.function--><g id="link_frc.robot.commands_edu.wpi.first.util.function"><path codeLine="10" d="M1165.53,125.59 C1190.54,141.84 1226.5096,165.2096 1251.4896,181.4496 " fill="none" id="frc.robot.commands-to-edu.wpi.first.util.function" style="stroke:#181818;stroke-width:1.0;"/><polygon fill="#181818" points="1256.52,184.72,1251.1547,176.4609,1252.328,181.9947,1246.7942,183.1681,1256.52,184.72" style="stroke:#181818;stroke-width:1.0;"/></g><!--link frc.robot.commands to edu.wpi.first.math.controller--><g id="link_frc.robot.commands_edu.wpi.first.math.controller"><path codeLine="11" d="M1118.29,125.59 C1088.44,141.84 1044.7397,165.6111 1014.9097,181.8511 " fill="none" id="frc.robot.commands-to-edu.wpi.first.math.controller" style="stroke:#181818;stroke-width:1.0;"/><polygon fill="#181818" points="1009.64,184.72,1019.4571,183.9298,1014.0314,182.3292,1015.6319,176.9035,1009.64,184.72" style="stroke:#181818;stroke-width:1.0;"/></g><!--link frc.robot.commands to edu.wpi.first.math.geometry--><g id="link_frc.robot.commands_edu.wpi.first.math.geometry"><path codeLine="12" d="M1206.9,125.62 C1262.02,138.65 1343.9,159.83 1413,185.14 C1529.91,227.96 1548.3,265.72 1667,303.27 C1770.42,335.99 1887.4574,354.8571 1971.5774,365.4971 " fill="none" id="frc.robot.commands-to-edu.wpi.first.math.geometry" style="stroke:#181818;stroke-width:1.0;"/><polygon fill="#181818" points="1977.53,366.25,1969.1031,361.1522,1972.5695,365.6226,1968.0992,369.089,1977.53,366.25" style="stroke:#181818;stroke-width:1.0;"/></g><!--link frc.robot.commands to edu.wpi.first.wpilibj--><g id="link_frc.robot.commands_edu.wpi.first.wpilibj"><path codeLine="13" d="M1141.98,125.32 C1138.04,147.21 1127.3,190.02 1101,214.2 C1076.72,236.53 1000.6404,258.1235 942.1904,272.3235 " fill="none" id="frc.robot.commands-to-edu.wpi.first.wpilibj" style="stroke:#181818;stroke-width:1.0;"/><polygon fill="#181818" points="936.36,273.74,946.0499,275.5023,941.2187,272.5596,944.1613,267.7284,936.36,273.74" style="stroke:#181818;stroke-width:1.0;"/></g><!--link frc.robot.autons to com.pathplanner.lib.path--><g id="link_frc.robot.autons_com.pathplanner.lib.path"><path codeLine="14" d="M2275.31,125.59 C2239.67,141.84 2186.6791,165.9904 2151.0691,182.2304 " fill="none" id="frc.robot.autons-to-com.pathplanner.lib.path" style="stroke:#181818;stroke-width:1.0;"/><polygon fill="#181818" points="2145.61,184.72,2155.4584,184.625,2150.1592,182.6453,2152.1389,177.3462,2145.61,184.72" style="stroke:#181818;stroke-width:1.0;"/></g><!--link frc.robot.autons to org.json.simple.parser--><g id="link_frc.robot.autons_org.json.simple.parser"><path codeLine="15" d="M2307.93,125.59 C2310.17,141.84 2313.0202,162.5363 2315.2602,178.7763 " fill="none" id="frc.robot.autons-to-org.json.simple.parser" style="stroke:#181818;stroke-width:1.0;"/><polygon fill="#181818" points="2316.08,184.72,2318.8127,175.2579,2315.3968,179.7669,2310.8878,176.351,2316.08,184.72" style="stroke:#181818;stroke-width:1.0;"/></g><!--link frc.robot.autons to com.pathplanner.lib.util--><g id="link_frc.robot.autons_com.pathplanner.lib.util"><path codeLine="16" d="M2339.74,125.59 C2378.93,141.84 2437.6479,166.1811 2476.7979,182.4211 " fill="none" id="frc.robot.autons-to-com.pathplanner.lib.util" style="stroke:#181818;stroke-width:1.0;"/><polygon fill="#181818" points="2482.34,184.72,2475.5595,177.5769,2477.7216,182.8042,2472.4942,184.9663,2482.34,184.72" style="stroke:#181818;stroke-width:1.0;"/></g><!--link frc.robot.autons to edu.wpi.first.wpilibj2.command--><g id="link_frc.robot.autons_edu.wpi.first.wpilibj2.command"><path codeLine="17" d="M2248.6,119.55 C2158.43,132.23 1978.15,158.35 1826,185.14 C1760.84,196.61 1745.04,202.09 1680,214.2 C1562.48,236.09 1432.1574,258.348 1346.4974,272.708 " fill="none" id="frc.robot.autons-to-edu.wpi.first.wpilibj2.command" style="stroke:#181818;stroke-width:1.0;"/><polygon fill="#181818" points="1340.58,273.7,1350.1175,276.157,1345.5112,272.8733,1348.7948,268.2671,1340.58,273.7" style="stroke:#181818;stroke-width:1.0;"/></g><!--link frc.robot.autons to edu.wpi.first.math.geometry--><g id="link_frc.robot.autons_edu.wpi.first.math.geometry"><path codeLine="18" d="M2363.28,124.46 C2454.72,144.78 2639.45,185.02 2797,214.2 C2963.74,245.09 3283.81,179.4 3168,303.27 C3134.39,339.22 2445.3168,364.9845 2182.4868,373.5545 " fill="none" id="frc.robot.autons-to-edu.wpi.first.math.geometry" style="stroke:#181818;stroke-width:1.0;"/><polygon fill="#181818" points="2176.49,373.75,2185.6156,377.4546,2181.4873,373.5871,2185.3549,369.4588,2176.49,373.75" style="stroke:#181818;stroke-width:1.0;"/></g><!--link frc.robot.autons to frc.robot.subsystems--><g id="link_frc.robot.autons_frc.robot.subsystems"><path codeLine="19" d="M2248.6,124.45 C2176.64,140.56 2059.5851,166.7596 1985.3251,183.3796 " fill="none" id="frc.robot.autons-to-frc.robot.subsystems" style="stroke:#181818;stroke-width:1.0;"/><polygon fill="#181818" points="1979.47,184.69,1989.1263,186.6278,1984.3493,183.598,1987.3791,178.8209,1979.47,184.69" style="stroke:#181818;stroke-width:1.0;"/></g><!--link frc.robot.autons to edu.wpi.first.wpilibj--><g id="link_frc.robot.autons_edu.wpi.first.wpilibj"><path codeLine="20" d="M2248.65,118.12 C2137.92,130.75 1886.98,159.55 1676,185.14 C1573.28,197.59 1547.68,201.38 1445,214.2 C1229.91,241.07 1175.67,244.21 961,274.2 C955.55,274.97 955.845,274.8992 950.185,275.7392 " fill="none" id="frc.robot.autons-to-edu.wpi.first.wpilibj" style="stroke:#181818;stroke-width:1.0;"/><polygon fill="#181818" points="944.25,276.62,953.7397,279.2554,949.1958,275.886,952.5653,271.3421,944.25,276.62" style="stroke:#181818;stroke-width:1.0;"/></g><!--link frc.robot.autons to com.pathplanner.lib.trajectory--><g id="link_frc.robot.autons_com.pathplanner.lib.trajectory"><path codeLine="21" d="M2363.49,119.75 C2468.28,134.61 2685.5395,165.4173 2815.1795,183.8073 " fill="none" id="frc.robot.autons-to-com.pathplanner.lib.trajectory" style="stroke:#181818;stroke-width:1.0;"/><polygon fill="#181818" points="2821.12,184.65,2812.771,179.4256,2816.1696,183.9478,2811.6474,187.3463,2821.12,184.65" style="stroke:#181818;stroke-width:1.0;"/></g><!--link frc.robot.autons to edu.wpi.first.wpilibj.smartdashboard--><g id="link_frc.robot.autons_edu.wpi.first.wpilibj.smartdashboard"><path codeLine="22" d="M2363.42,113.57 C2488.19,118.65 2792.95,135.53 3043,185.14 C3155.49,207.45 3278.3561,249.2637 3340.6061,271.7237 " fill="none" id="frc.robot.autons-to-edu.wpi.first.wpilibj.smartdashboard" style="stroke:#181818;stroke-width:1.0;"/><polygon fill="#181818" points="3346.25,273.76,3339.1417,266.9429,3341.5468,272.0631,3336.4266,274.4681,3346.25,273.76" style="stroke:#181818;stroke-width:1.0;"/></g><!--link frc.robot to edu.wpi.first.wpilibj--><g id="link_frc.robot_edu.wpi.first.wpilibj"><path codeLine="23" d="M2053.68,28.02 C1957.99,44.82 1668.57,99.67 1441,185.14 C1414.38,195.13 1411.11,205.63 1384,214.2 C1202.95,271.45 1148.82,246.28 961,274.2 C955.56,275.01 955.8504,274.9484 950.1904,275.8184 " fill="none" id="frc.robot-to-edu.wpi.first.wpilibj" style="stroke:#181818;stroke-width:1.0;"/><polygon fill="#181818" points="944.26,276.73,953.7632,279.3162,949.202,275.9704,952.5478,271.4091,944.26,276.73" style="stroke:#181818;stroke-width:1.0;"/></g><!--link frc.robot to frc.robot.autons--><g id="link_frc.robot_frc.robot.autons"><path codeLine="24" d="M2118.46,35.38 C2159.22,51.51 2223.2907,76.873 2265.2807,93.483 " fill="none" id="frc.robot-to-frc.robot.autons" style="stroke:#181818;stroke-width:1.0;"/><polygon fill="#181818" points="2270.86,95.69,2263.9623,88.6599,2266.2105,93.8508,2261.0196,96.099,2270.86,95.69" style="stroke:#181818;stroke-width:1.0;"/></g><!--link frc.robot to frc.robot.subsystems--><g id="link_frc.robot_frc.robot.subsystems"><path codeLine="25" d="M2062.1,36.5 C2040.37,49.95 2008.24,71.78 1985,96.07 C1958.11,124.17 1937.911,158.8745 1926.841,179.6545 " fill="none" id="frc.robot-to-frc.robot.subsystems" style="stroke:#181818;stroke-width:1.0;"/><polygon fill="#181818" points="1924.02,184.95,1931.7818,178.8875,1926.3708,180.5371,1924.7212,175.1261,1924.02,184.95" style="stroke:#181818;stroke-width:1.0;"/></g><!--link frc.robot to edu.wpi.first.hal--><g id="link_frc.robot_edu.wpi.first.hal"><path codeLine="26" d="M2053.81,25.35 C1954.93,34.12 1646.97,62.4 1393,96.07 C1384.41,97.21 1381.2818,97.6282 1372.4018,98.9782 " fill="none" id="frc.robot-to-edu.wpi.first.hal" style="stroke:#181818;stroke-width:1.0;"/><polygon fill="#181818" points="1366.47,99.88,1375.969,102.4819,1371.4132,99.1285,1374.7666,94.5727,1366.47,99.88" style="stroke:#181818;stroke-width:1.0;"/></g><!--link frc.robot to edu.wpi.first.networktables--><g id="link_frc.robot_edu.wpi.first.networktables"><path codeLine="27" d="M2118.45,23.05 C2270.7,26.18 2912.31,47.49 3043,185.14 C3065.84,209.2 3062.9984,246.1541 3059.0684,268.0841 " fill="none" id="frc.robot-to-edu.wpi.first.networktables" style="stroke:#181818;stroke-width:1.0;"/><polygon fill="#181818" points="3058.01,273.99,3063.5348,265.8367,3058.892,269.0684,3055.6603,264.4255,3058.01,273.99" style="stroke:#181818;stroke-width:1.0;"/></g><!--link frc.robot to edu.wpi.first.wpilibj.smartdashboard--><g id="link_frc.robot_edu.wpi.first.wpilibj.smartdashboard"><path codeLine="28" d="M2118.34,21.91 C2230.78,20.47 2614.36,21.68 2919,96.07 C3094.17,138.84 3283.9975,234.5122 3352.9075,271.0022 " fill="none" id="frc.robot-to-edu.wpi.first.wpilibj.smartdashboard" style="stroke:#181818;stroke-width:1.0;"/><polygon fill="#181818" points="3358.21,273.81,3352.1282,266.0633,3353.7913,271.4701,3348.3844,273.1332,3358.21,273.81" style="stroke:#181818;stroke-width:1.0;"/></g><!--link frc.robot to com.ctre.phoenix6.swerve--><g id="link_frc.robot_com.ctre.phoenix6.swerve"><path codeLine="29" d="M2118.41,22.45 C2316.15,22.7 3357.53,35.42 3530,274.2 C3593.58,362.23 3191.5998,375.4127 3003.8798,376.8927 " fill="none" id="frc.robot-to-com.ctre.phoenix6.swerve" style="stroke:#181818;stroke-width:1.0;"/><polygon fill="#181818" points="2997.88,376.94,3006.9113,380.8689,3002.8798,376.9006,3006.8482,372.8692,2997.88,376.94" style="stroke:#181818;stroke-width:1.0;"/></g><!--link frc.robot to frc.robot.libraries--><g id="link_frc.robot_frc.robot.libraries"><path codeLine="30" d="M2053.55,24.67 C1879.59,36.09 1062.5971,89.7369 828.3371,105.1169 " fill="none" id="frc.robot-to-frc.robot.libraries" style="stroke:#181818;stroke-width:1.0;"/><polygon fill="#181818" points="822.35,105.51,831.5927,108.9118,827.3393,105.1824,831.0686,100.929,822.35,105.51" style="stroke:#181818;stroke-width:1.0;"/></g><!--link frc.robot to edu.wpi.first.math.filter--><g id="link_frc.robot_edu.wpi.first.math.filter"><path codeLine="31" d="M2086,36.52 C2086,52.77 2086,73.42 2086,89.65 " fill="none" id="frc.robot-to-edu.wpi.first.math.filter" style="stroke:#181818;stroke-width:1.0;"/><polygon fill="#181818" points="2086,95.65,2090,86.65,2086,90.65,2082,86.65,2086,95.65" style="stroke:#181818;stroke-width:1.0;"/></g><!--link frc.robot.libraries to edu.wpi.first.wpilibj2.command.button--><g id="link_frc.robot.libraries_edu.wpi.first.wpilibj2.command.button"><path codeLine="32" d="M729.96,125.59 C695.06,141.84 643.2688,165.9463 608.4088,182.1863 " fill="none" id="frc.robot.libraries-to-edu.wpi.first.wpilibj2.command.button" style="stroke:#181818;stroke-width:1.0;"/><polygon fill="#181818" points="602.97,184.72,612.8173,184.5453,607.5023,182.6086,609.439,177.2936,602.97,184.72" style="stroke:#181818;stroke-width:1.0;"/></g><!--link frc.robot.libraries to edu.wpi.first.wpilibj--><g id="link_frc.robot.libraries_edu.wpi.first.wpilibj"><path codeLine="33" d="M768.95,125.42 C790.26,158.35 840.5697,236.0831 861.8397,268.9431 " fill="none" id="frc.robot.libraries-to-edu.wpi.first.wpilibj" style="stroke:#181818;stroke-width:1.0;"/><polygon fill="#181818" points="865.1,273.98,863.5674,264.2511,862.3831,269.7826,856.8516,268.5982,865.1,273.98" style="stroke:#181818;stroke-width:1.0;"/></g><!--link frc.robot.utils to edu.wpi.first.math.geometry--><g id="link_frc.robot.utils_edu.wpi.first.math.geometry"><path codeLine="34" d="M2077,303.73 C2077,319.97 2077,340.62 2077,356.85 " fill="none" id="frc.robot.utils-to-edu.wpi.first.math.geometry" style="stroke:#181818;stroke-width:1.0;"/><polygon fill="#181818" points="2077,362.85,2081,353.85,2077,357.85,2073,353.85,2077,362.85" style="stroke:#181818;stroke-width:1.0;"/></g><!--link frc.robot.subsystems to edu.wpi.first.wpilibj2.command--><g id="link_frc.robot.subsystems_edu.wpi.first.wpilibj2.command"><path codeLine="35" d="M1843.1,210.4 C1725.95,225.84 1503.0486,255.1965 1368.2786,272.9465 " fill="none" id="frc.robot.subsystems-to-edu.wpi.first.wpilibj2.command" style="stroke:#181818;stroke-width:1.0;"/><polygon fill="#181818" points="1362.33,273.73,1371.7753,276.5205,1367.2872,273.0771,1370.7306,268.589,1362.33,273.73" style="stroke:#181818;stroke-width:1.0;"/></g><!--link frc.robot.subsystems to com.revrobotics.servohub--><g id="link_frc.robot.subsystems_com.revrobotics.servohub"><path codeLine="36" d="M1848.97,214.7 C1787.13,228.04 1693.67,249.67 1614,274.2 C1525.93,301.33 1430.6431,339.4435 1379.7131,360.5435 " fill="none" id="frc.robot.subsystems-to-com.revrobotics.servohub" style="stroke:#181818;stroke-width:1.0;"/><polygon fill="#181818" points="1374.17,362.84,1384.0157,363.0907,1378.7893,360.9263,1380.9537,355.6999,1374.17,362.84" style="stroke:#181818;stroke-width:1.0;"/></g><!--link frc.robot.subsystems to com.revrobotics.servohub.config--><g id="link_frc.robot.subsystems_com.revrobotics.servohub.config"><path codeLine="37" d="M1843,207.69 C1786.44,216.08 1708.78,234.39 1652,274.2 C1618.89,297.42 1598.0594,335.2385 1587.6394,357.4385 " fill="none" id="frc.robot.subsystems-to-com.revrobotics.servohub.config" style="stroke:#181818;stroke-width:1.0;"/><polygon fill="#181818" points="1585.09,362.87,1592.535,356.4224,1587.2145,358.3438,1585.2931,353.0232,1585.09,362.87" style="stroke:#181818;stroke-width:1.0;"/></g><!--link frc.robot.subsystems to com.revrobotics.spark--><g id="link_frc.robot.subsystems_com.revrobotics.spark"><path codeLine="38" d="M1917,214.66 C1917,230.91 1917,251.55 1917,267.78 " fill="none" id="frc.robot.subsystems-to-com.revrobotics.spark" style="stroke:#181818;stroke-width:1.0;"/><polygon fill="#181818" points="1917,273.78,1921,264.78,1917,268.78,1913,264.78,1917,273.78" style="stroke:#181818;stroke-width:1.0;"/></g><!--link frc.robot.subsystems to com.revrobotics--><g id="link_frc.robot.subsystems_com.revrobotics"><path codeLine="39" d="M1965.2,214.66 C2021.18,230.91 2107.2277,255.8779 2163.1577,272.1079 " fill="none" id="frc.robot.subsystems-to-com.revrobotics" style="stroke:#181818;stroke-width:1.0;"/><polygon fill="#181818" points="2168.92,273.78,2161.3913,267.4303,2164.1181,272.3866,2159.1618,275.1133,2168.92,273.78" style="stroke:#181818;stroke-width:1.0;"/></g><!--link frc.robot.subsystems to edu.wpi.first.math.geometry--><g id="link_frc.robot.subsystems_edu.wpi.first.math.geometry"><path codeLine="40" d="M1990.73,212.71 C2096.95,230.4 2281.45,262.59 2291,274.2 C2330.39,322.09 2255.4014,348.0036 2182.0414,362.1536 " fill="none" id="frc.robot.subsystems-to-edu.wpi.first.math.geometry" style="stroke:#181818;stroke-width:1.0;"/><polygon fill="#181818" points="2176.15,363.29,2185.7447,365.5131,2181.0595,362.343,2184.2295,357.6579,2176.15,363.29" style="stroke:#181818;stroke-width:1.0;"/></g><!--link frc.robot.subsystems to frc.robot.constants--><g id="link_frc.robot.subsystems_frc.robot.constants"><path codeLine="41" d="M1843.22,205.9 C1703.51,216.18 1390.87,240.93 1129,274.2 C1123.43,274.91 1123.6078,274.8486 1117.8178,275.6886 " fill="none" id="frc.robot.subsystems-to-frc.robot.constants" style="stroke:#181818;stroke-width:1.0;"/><polygon fill="#181818" points="1111.88,276.55,1121.3611,279.2164,1116.8282,275.8321,1120.2125,271.2993,1111.88,276.55" style="stroke:#181818;stroke-width:1.0;"/></g><!--link frc.robot.subsystems to edu.wpi.first.networktables--><g id="link_frc.robot.subsystems_edu.wpi.first.networktables"><path codeLine="42" d="M1991,212.09 C1997.08,212.87 2003.14,213.58 2009,214.2 C2418.25,257.52 2523.05,238.17 2933,274.2 C2941.7,274.97 2944.7801,275.2397 2953.8301,276.1497 " fill="none" id="frc.robot.subsystems-to-edu.wpi.first.networktables" style="stroke:#181818;stroke-width:1.0;"/><polygon fill="#181818" points="2959.8,276.75,2951.2453,271.8696,2954.8251,276.2498,2950.445,279.8295,2959.8,276.75" style="stroke:#181818;stroke-width:1.0;"/></g><!--link frc.robot.subsystems to edu.wpi.first.util.sendable--><g id="link_frc.robot.subsystems_edu.wpi.first.util.sendable"><path codeLine="43" d="M1990.85,212.28 C2092.04,228.18 2267.6428,255.7783 2376.1728,272.8383 " fill="none" id="frc.robot.subsystems-to-edu.wpi.first.util.sendable" style="stroke:#181818;stroke-width:1.0;"/><polygon fill="#181818" points="2382.1,273.77,2373.8303,268.421,2377.1607,272.9936,2372.588,276.3239,2382.1,273.77" style="stroke:#181818;stroke-width:1.0;"/></g><!--link frc.robot.subsystems to edu.wpi.first.wpilibj.smartdashboard--><g id="link_frc.robot.subsystems_edu.wpi.first.wpilibj.smartdashboard"><path codeLine="44" d="M1990.99,212.17 C1997.07,212.93 2003.14,213.62 2009,214.2 C2522.28,265.13 2653.04,244.74 3168,274.2 C3196.32,275.82 3220.7416,277.2977 3249.5316,279.0877 " fill="none" id="frc.robot.subsystems-to-edu.wpi.first.wpilibj.smartdashboard" style="stroke:#181818;stroke-width:1.0;"/><polygon fill="#181818" points="3255.52,279.46,3246.7856,274.9092,3250.5296,279.1497,3246.2891,282.8938,3255.52,279.46" style="stroke:#181818;stroke-width:1.0;"/></g><!--link frc.robot.subsystems to com.ctre.phoenix6.swerve--><g id="link_frc.robot.subsystems_com.ctre.phoenix6.swerve"><path codeLine="45" d="M1990.75,212.03 C1996.92,212.82 2003.06,213.56 2009,214.2 C2104.56,224.54 2795.81,215.6 2872,274.2 C2899.75,295.55 2905.347,334.0477 2906.497,356.7877 " fill="none" id="frc.robot.subsystems-to-com.ctre.phoenix6.swerve" style="stroke:#181818;stroke-width:1.0;"/><polygon fill="#181818" points="2906.8,362.78,2910.3403,353.5895,2906.5475,357.7864,2902.3505,353.9935,2906.8,362.78" style="stroke:#181818;stroke-width:1.0;"/></g><!--link frc.robot.subsystems to edu.wpi.first.wpilibj2.command.sysid--><g id="link_frc.robot.subsystems_edu.wpi.first.wpilibj2.command.sysid"><path codeLine="46" d="M1990.78,211.81 C1996.94,212.66 2003.07,213.46 2009,214.2 C2119.43,227.98 2416.5886,257.5252 2591.3086,274.6352 " fill="none" id="frc.robot.subsystems-to-edu.wpi.first.wpilibj2.command.sysid" style="stroke:#181818;stroke-width:1.0;"/><polygon fill="#181818" points="2597.28,275.22,2588.7127,270.3619,2592.3038,274.7327,2587.933,278.3238,2597.28,275.22" style="stroke:#181818;stroke-width:1.0;"/></g><!--link frc.robot.subsystems to edu.wpi.first.wpilibj--><g id="link_frc.robot.subsystems_edu.wpi.first.wpilibj"><path codeLine="47" d="M1843.09,205.61 C1649.69,218.65 1131.83,254.38 961,274.2 C955.53,274.84 955.824,274.7423 950.154,275.5223 " fill="none" id="frc.robot.subsystems-to-edu.wpi.first.wpilibj" style="stroke:#181818;stroke-width:1.0;"/><polygon fill="#181818" points="944.21,276.34,953.6712,279.0761,949.1633,275.6586,952.5809,271.1508,944.21,276.34" style="stroke:#181818;stroke-width:1.0;"/></g><!--link frc.robot.subsystems to edu.wpi.first.math--><g id="link_frc.robot.subsystems_edu.wpi.first.math"><path codeLine="48" d="M1843.3,212.4 C1777.48,224.55 1688.28,245.77 1667,274.2 C1638.41,312.42 1697.2998,343.0025 1743.8698,360.6625 " fill="none" id="frc.robot.subsystems-to-edu.wpi.first.math" style="stroke:#181818;stroke-width:1.0;"/><polygon fill="#181818" points="1749.48,362.79,1742.4831,355.8587,1744.8049,361.0171,1739.6465,363.3389,1749.48,362.79" style="stroke:#181818;stroke-width:1.0;"/></g><!--link frc.robot.subsystems to org.photonvision--><g id="link_frc.robot.subsystems_org.photonvision"><path codeLine="49" d="M1889.37,214.66 C1857.27,230.91 1809.9831,254.84 1777.9231,271.07 " fill="none" id="frc.robot.subsystems-to-org.photonvision" style="stroke:#181818;stroke-width:1.0;"/><polygon fill="#181818" points="1772.57,273.78,1782.4064,273.2838,1777.0309,271.5217,1778.7931,266.1463,1772.57,273.78" style="stroke:#181818;stroke-width:1.0;"/></g><!--link frc.robot.constants to com.ctre.phoenix6.configs--><g id="link_frc.robot.constants_com.ctre.phoenix6.configs"><path codeLine="50" d="M1057.69,303.73 C1072.43,319.97 1092.5776,342.177 1107.3076,358.407 " fill="none" id="frc.robot.constants-to-com.ctre.phoenix6.configs" style="stroke:#181818;stroke-width:1.0;"/><polygon fill="#181818" points="1111.34,362.85,1108.2535,353.4973,1107.9797,359.1475,1102.3295,358.8738,1111.34,362.85" style="stroke:#181818;stroke-width:1.0;"/></g><!--link frc.robot.constants to com.ctre.phoenix6.signals--><g id="link_frc.robot.constants_com.ctre.phoenix6.signals"><path codeLine="51" d="M978.13,301.01 C972.34,301.83 966.57,302.6 961,303.27 C626.79,343.41 540.86,329 206,363.27 C200.55,363.83 200.913,363.7751 195.263,364.4051 " fill="none" id="frc.robot.constants-to-com.ctre.phoenix6.signals" style="stroke:#181818;stroke-width:1.0;"/><polygon fill="#181818" points="189.3,365.07,198.6878,368.048,194.2692,364.5159,197.8013,360.0973,189.3,365.07" style="stroke:#181818;stroke-width:1.0;"/></g><!--link frc.robot.constants to com.ctre.phoenix6.swerve--><g id="link_frc.robot.constants_com.ctre.phoenix6.swerve"><path codeLine="52" d="M1111.85,301.24 C1117.64,302.01 1123.42,302.71 1129,303.27 C1461.46,336.81 2495.5321,366.0117 2810.0221,374.3117 " fill="none" id="frc.robot.constants-to-com.ctre.phoenix6.swerve" style="stroke:#181818;stroke-width:1.0;"/><polygon fill="#181818" points="2816.02,374.47,2807.1287,370.2339,2811.0217,374.3381,2806.9176,378.2312,2816.02,374.47" style="stroke:#181818;stroke-width:1.0;"/></g><!--link frc.robot.constants to edu.wpi.first.units.measure--><g id="link_frc.robot.constants_edu.wpi.first.units.measure"><path codeLine="53" d="M978.1,300.8 C972.32,301.67 966.56,302.51 961,303.27 C727.02,335.4 667.58,335.9 433,363.27 C427.6,363.9 428.0186,363.8465 422.4286,364.5065 " fill="none" id="frc.robot.constants-to-edu.wpi.first.units.measure" style="stroke:#181818;stroke-width:1.0;"/><polygon fill="#181818" points="416.47,365.21,425.8769,368.1271,421.4355,364.6237,424.9389,360.1823,416.47,365.21" style="stroke:#181818;stroke-width:1.0;"/></g><!--link frc.robot.constants to com.ctre.phoenix6--><g id="link_frc.robot.constants_com.ctre.phoenix6"><path codeLine="54" d="M978.35,300.69 C891,315.05 733.03,341.02 598,363.27 C592.59,364.16 592.8998,364.1121 587.2698,365.0421 " fill="none" id="frc.robot.constants-to-com.ctre.phoenix6" style="stroke:#181818;stroke-width:1.0;"/><polygon fill="#181818" points="581.35,366.02,590.8816,368.4997,586.2831,365.2051,589.5778,360.6067,581.35,366.02" style="stroke:#181818;stroke-width:1.0;"/></g><!--link frc.robot.constants to edu.wpi.first.math.geometry--><g id="link_frc.robot.constants_edu.wpi.first.math.geometry"><path codeLine="55" d="M1111.87,301.02 C1117.66,301.84 1123.43,302.61 1129,303.27 C1291.18,322.59 1763.0438,355.5737 1971.6738,369.7337 " fill="none" id="frc.robot.constants-to-edu.wpi.first.math.geometry" style="stroke:#181818;stroke-width:1.0;"/><polygon fill="#181818" points="1977.66,370.14,1968.9515,365.5397,1972.6715,369.8014,1968.4098,373.5214,1977.66,370.14" style="stroke:#181818;stroke-width:1.0;"/></g><!--link frc.robot.constants to edu.wpi.first.apriltag--><g id="link_frc.robot.constants_edu.wpi.first.apriltag"><path codeLine="56" d="M987.96,303.73 C921.81,319.95 819.2273,345.1107 753.0173,361.3507 " fill="none" id="frc.robot.constants-to-edu.wpi.first.apriltag" style="stroke:#181818;stroke-width:1.0;"/><polygon fill="#181818" points="747.19,362.78,756.8838,364.5209,752.0461,361.5889,754.978,356.7512,747.19,362.78" style="stroke:#181818;stroke-width:1.0;"/></g><!--link frc.robot.constants to edu.wpi.first.math--><g id="link_frc.robot.constants_edu.wpi.first.math"><path codeLine="57" d="M1111.89,300.87 C1117.67,301.72 1123.44,302.54 1129,303.27 C1386.36,337.27 1452.71,328.79 1710,363.27 C1715.43,364 1715.1268,363.9174 1720.7768,364.7674 " fill="none" id="frc.robot.constants-to-edu.wpi.first.math" style="stroke:#181818;stroke-width:1.0;"/><polygon fill="#181818" points="1726.71,365.66,1718.4052,360.3656,1721.7656,364.9162,1717.2151,368.2766,1726.71,365.66" style="stroke:#181818;stroke-width:1.0;"/></g><!--link frc.robot.constants to edu.wpi.first.math.trajectory--><g id="link_frc.robot.constants_edu.wpi.first.math.trajectory"><path codeLine="58" d="M1021.38,303.73 C993.95,319.97 954.1328,343.563 926.7228,359.793 " fill="none" id="frc.robot.constants-to-edu.wpi.first.math.trajectory" style="stroke:#181818;stroke-width:1.0;"/><polygon fill="#181818" points="921.56,362.85,931.3422,361.7064,925.8623,360.3025,927.2662,354.8226,921.56,362.85" style="stroke:#181818;stroke-width:1.0;"/></g><!--link frc.robot.constants to com.revrobotics.servohub--><g id="link_frc.robot.constants_com.revrobotics.servohub"><path codeLine="59" d="M1092.56,303.73 C1147.79,319.97 1232.6137,344.9272 1287.8037,361.1572 " fill="none" id="frc.robot.constants-to-com.revrobotics.servohub" style="stroke:#181818;stroke-width:1.0;"/><polygon fill="#181818" points="1293.56,362.85,1286.0541,356.4733,1288.7631,361.4394,1283.7971,364.1483,1293.56,362.85" style="stroke:#181818;stroke-width:1.0;"/></g><!--link frc.robot.constants to com.revrobotics.servohub.config--><g id="link_frc.robot.constants_com.revrobotics.servohub.config"><path codeLine="60" d="M1111.82,300.63 C1208.37,316.38 1380.9982,344.5243 1487.2082,361.8443 " fill="none" id="frc.robot.constants-to-com.revrobotics.servohub.config" style="stroke:#181818;stroke-width:1.0;"/><polygon fill="#181818" points="1493.13,362.81,1484.8911,357.4136,1488.1952,362.0053,1483.6035,365.3093,1493.13,362.81" style="stroke:#181818;stroke-width:1.0;"/></g><text fill="#888888" font-family="sans-serif" font-size="10" lengthAdjust="spacing" textLength="176" x="1705.29" y="408.0279">UMLDoclet 2.1.2, PlantUML 1.2024.3</text><!--SRC=[dLV1Rjim3BtlAuG2mpPWLR0STjnfnmqeCEnKz23BjAr4bWoIJXSC-_VHJfiqJknOFYMc-Hx59vAIbLAAjYuq1asjCcEt9SOsv3RwY8hH199N4FYTwZo1LJ0rYCt2B-X0B6uX1kZVLou7PHrQ_-OPweRtgd3WSnfQQ-0gYhct5sWrnYoojh6kJSX9tTz_Kv2t-hbnkd18tFtpBjkiNtsca2SpjHdjYQ6cUVus1c8JcEOlh6NdTT46oow6-R3QSDM5OupU0oO2IuWY8UwJzHi0JCkISUykMDq8T-DD281QlFldSKJ4Kcye1askRZo8Dz959ZSYTEgD8v9AO1GtfTWRq8ogkRMqjDobopPWfP7sYM4qrGOvDrHbqU10Xxch6-HyY3dfCYRBbOYLyJTz0l1pn2sRp0FDpU5swftIbb7AiOeGt9-lcfu1Tp2Pcb2ZGJTZ7Nqn5SxpHQKVEMQKhivQvejnCODXWEZQ9xNaJzkOtcC3RASrmgv_vonfQVzThDfi6QeRXuKh4y4oTRP9a1Gv4dIyVOXCHfheXcbWV_uGXBn3BjZgoOww9kNjvaehCIskBb_0aBgHq_xTQIPPILVk75qxobysTKI7G-rI8efS6OnFHbtJ_1mqg97Wc7GDXbg4j609KQPl9kCuqw3CKrCcXafTsUXnUwd0Z9as3_Gwqdhm1_KWzsnJWl8kR0-RRhqXKdUNLxWxzVWerbLlNRrQLys1uPvQCU1ULrpxfoVrjoVxTvtoLEZdf2Vx8jgZ0iEblfWNaHwk8UUC1ziIkdEU9Uiv7iddL4Vp8jB-r3udx4spoEIR350LCNO_lt_- -1xbgulLMd_Hwy_gGUwNB5RrVWVOZR6Fd_u3]--></g></svg>