<?xml version="1.0" encoding="us-ascii" standalone="no"?><svg xmlns="http://www.w3.org/2000/svg" xmlns:xlink="http://www.w3.org/1999/xlink" contentStyleType="text/css" height="378px" preserveAspectRatio="none" style="width:267px;height:378px;background:#FFFFFF;" version="1.1" viewBox="0 0 267 378" width="267px" zoomAndPan="magnify"><defs/><g><!--class frc.robot.subsystems.Acquisition--><a href="Acquisition.html" target="_top" title="Acquisition.html" xlink:actuate="onRequest" xlink:href="Acquisition.html" xlink:show="new" xlink:title="Acquisition.html" xlink:type="simple"><g id="elem_frc.robot.subsystems.Acquisition"><rect codeLine="5" fill="#F1F1F1" height="241.3671" id="frc.robot.subsystems.Acquisition" rx="2.5" ry="2.5" style="stroke:#181818;stroke-width:0.5;" width="253" x="7" y="109.68"/><ellipse cx="79.25" cy="131.024" fill="#ADD1B2" rx="11" ry="11" style="stroke:#181818;stroke-width:1.0;"/><path d="M78.7188,137.9458 Q76.9688,137.9458 75.8281,137.2115 Q74.7031,136.4615 74.1406,135.1177 Q73.5938,133.7583 73.5938,131.9615 Q73.5938,129.9302 74.25,128.4771 Q74.9063,127.024 76.1875,126.2427 Q77.4688,125.4615 79.3438,125.4615 Q80.2344,125.4615 80.9063,125.649 Q81.5781,125.8208 82.2656,126.1646 L81.4531,128.1802 Q80.8281,127.8677 80.2813,127.7427 Q79.75,127.6177 79.2656,127.6177 Q78.0938,127.6177 77.3906,128.149 Q76.6875,128.6802 76.3906,129.6333 Q76.0938,130.5865 76.0938,131.8521 Q76.0938,133.8677 76.8125,134.8365 Q77.5313,135.7896 79.125,135.7896 Q79.7188,135.7896 80.3438,135.6333 Q80.9688,135.4771 81.7969,135.1021 L81.7969,137.3208 Q81.0625,137.6333 80.2656,137.7896 Q79.4844,137.9458 78.7188,137.9458 Z " fill="#000000"/><text fill="#000000" font-family="sans-serif" font-size="14" lengthAdjust="spacing" textLength="75" x="112.25" y="129.6459">Acquisition</text><text fill="#000000" font-family="sans-serif" font-size="10" lengthAdjust="spacing" textLength="100" x="99.75" y="144.4379">frc.robot.subsystems</text><line style="stroke:#181818;stroke-width:0.5;" x1="8" x2="259" y1="152.3679" y2="152.3679"/><ellipse cx="18" cy="167.4019" fill="#84BE84" rx="3" ry="3" style="stroke:#038048;stroke-width:1.0;"/><text fill="#000000" font-family="sans-serif" font-size="14" lengthAdjust="spacing" text-decoration="underline" textLength="171" x="27" y="171.3338">getInstance(): Acquisition</text><ellipse cx="18" cy="186.4698" fill="#84BE84" rx="3" ry="3" style="stroke:#038048;stroke-width:1.0;"/><text fill="#000000" font-family="sans-serif" font-size="14" lengthAdjust="spacing" textLength="227" x="27" y="190.4018">setPivot(AcquisitionSetpoint): void</text><ellipse cx="18" cy="205.5377" fill="#84BE84" rx="3" ry="3" style="stroke:#038048;stroke-width:1.0;"/><text fill="#000000" font-family="sans-serif" font-size="14" lengthAdjust="spacing" textLength="199" x="27" y="209.4697">setPivotDegrees(double): void</text><ellipse cx="18" cy="224.6056" fill="#84BE84" rx="3" ry="3" style="stroke:#038048;stroke-width:1.0;"/><text fill="#000000" font-family="sans-serif" font-size="14" lengthAdjust="spacing" textLength="95" x="27" y="228.5376">acquire(): void</text><ellipse cx="18" cy="243.6735" fill="#84BE84" rx="3" ry="3" style="stroke:#038048;stroke-width:1.0;"/><text fill="#000000" font-family="sans-serif" font-size="14" lengthAdjust="spacing" textLength="96" x="27" y="247.6055">dispose(): void</text><ellipse cx="18" cy="262.7414" fill="#84BE84" rx="3" ry="3" style="stroke:#038048;stroke-width:1.0;"/><text fill="#000000" font-family="sans-serif" font-size="14" lengthAdjust="spacing" textLength="115" x="27" y="266.6734">stopIntake(): void</text><ellipse cx="18" cy="281.8094" fill="#84BE84" rx="3" ry="3" style="stroke:#038048;stroke-width:1.0;"/><text fill="#000000" font-family="sans-serif" font-size="14" lengthAdjust="spacing" textLength="105" x="27" y="285.7413">stopPivot(): void</text><ellipse cx="18" cy="300.8773" fill="#84BE84" rx="3" ry="3" style="stroke:#038048;stroke-width:1.0;"/><text fill="#000000" font-family="sans-serif" font-size="14" lengthAdjust="spacing" textLength="173" x="27" y="304.8093">pivotAtSetpoint(): boolean</text><ellipse cx="18" cy="319.9452" fill="#84BE84" rx="3" ry="3" style="stroke:#038048;stroke-width:1.0;"/><text fill="#000000" font-family="sans-serif" font-size="14" lengthAdjust="spacing" textLength="157" x="27" y="323.8772">getIntakeRPM(): double</text><ellipse cx="18" cy="339.0131" fill="#84BE84" rx="3" ry="3" style="stroke:#038048;stroke-width:1.0;"/><text fill="#000000" font-family="sans-serif" font-size="14" lengthAdjust="spacing" textLength="170" x="27" y="342.9451">getPivotPosition(): double</text></g></a><!--class edu.wpi.first.wpilibj2.command.SubsystemBase--><g id="elem_edu.wpi.first.wpilibj2.command.SubsystemBase"><rect codeLine="18" fill="#F1F1F1" height="42.6879" id="edu.wpi.first.wpilibj2.command.SubsystemBase" rx="2.5" ry="2.5" style="stroke:#181818;stroke-width:0.5;" width="178" x="44.5" y="7"/><ellipse cx="59.5" cy="28.344" fill="#A9DCDF" rx="11" ry="11" style="stroke:#181818;stroke-width:1.0;"/><path d="M54.6719,34.094 L58.0156,21.9065 L61.1563,21.9065 L64.5313,34.094 L62.0625,34.094 L61.3281,31.0783 L57.8125,31.0783 L57.0625,34.094 L54.6719,34.094 Z M59.0781,26.0471 L58.3281,29.0471 L60.8438,29.0471 L60.125,26.0471 Q59.9844,25.469 59.8594,24.9221 Q59.7344,24.3596 59.5938,23.7815 Q59.4844,24.3596 59.3438,24.9221 Q59.2031,25.469 59.0781,26.0471 Z " fill="#000000"/><text fill="#000000" font-family="sans-serif" font-size="14" font-style="italic" lengthAdjust="spacing" textLength="95" x="99" y="26.9659">SubsystemBase</text><text fill="#000000" font-family="sans-serif" font-size="10" font-style="italic" lengthAdjust="spacing" textLength="146" x="73.5" y="41.7579">edu.wpi.first.wpilibj2.command</text></g><!--reverse link edu.wpi.first.wpilibj2.command.SubsystemBase to frc.robot.subsystems.Acquisition--><g id="link_edu.wpi.first.wpilibj2.command.SubsystemBase_frc.robot.subsystems.Acquisition"><path codeLine="20" d="M133.5,67.99 C133.5,82.96 133.5,86.56 133.5,109.61 " fill="none" id="edu.wpi.first.wpilibj2.command.SubsystemBase-backto-frc.robot.subsystems.Acquisition" style="stroke:#181818;stroke-width:1.0;"/><polygon fill="none" points="133.5,49.99,127.5,67.99,139.5,67.99,133.5,49.99" style="stroke:#181818;stroke-width:1.0;"/></g><text fill="#888888" font-family="sans-serif" font-size="10" lengthAdjust="spacing" textLength="176" x="38.5" y="367.7371">UMLDoclet 2.1.2, PlantUML 1.2024.3</text><!--SRC=[bLDDJy904BtxAoOa9XXa8yGJ8IGOBYIID19Fo66x7M2rtQax0mQH_su_n1IA6djfzxqtRsVsRG4060MSJf1JRN2AgVPQo8CZXnSP3IiR8M2IoXOM5kE8Jz44PKKPNE0cripGwBDznrxdTZ0qhslBLYov9_U5tWmMtYXF8OdYTSXR5aou0PhX7A4g7Z2RLLPg9KaydyEks3f_TYnQhDb3QuaoTjdA6MnUzQ1IzIrkPQC7TaFIhB1Jb9IiawncGpQgYqUuz8ZSZ6WTnbYJwTpA5tiU4v7bbFWCmKBfs8b- -O4hMwnHQGuFvT1lBWY9OjIL0Oj3o9qVWaakA7i-uWltWChXJpJxCbCTidXjf1Rkz93HdMQin8lHMhsbLYsiPyc_OXi-TvMX9D4kAeB-NQAEdCik_bC1_Ozs-y_BL5vOT88U5aJvwt5oFo8JPxz4LtLKzng2M3l9KBZSeEVYY3u1]--></g></svg>