<?xml version="1.0" encoding="us-ascii" standalone="no"?><svg xmlns="http://www.w3.org/2000/svg" xmlns:xlink="http://www.w3.org/1999/xlink" contentStyleType="text/css" height="520px" preserveAspectRatio="none" style="width:338px;height:520px;background:#FFFFFF;" version="1.1" viewBox="0 0 338 520" width="338px" zoomAndPan="magnify"><defs/><g><!--class frc.robot.subsystems.Acquisition--><a href="Acquisition.html" target="_top" title="Acquisition.html" xlink:actuate="onRequest" xlink:href="Acquisition.html" xlink:show="new" xlink:title="Acquisition.html" xlink:type="simple"><g id="elem_frc.robot.subsystems.Acquisition"><rect codeLine="5" fill="#F1F1F1" height="382.8425" id="frc.robot.subsystems.Acquisition" rx="2.5" ry="2.5" style="stroke:#181818;stroke-width:0.5;" width="324" x="7" y="109.69"/><ellipse cx="114.75" cy="131.034" fill="#ADD1B2" rx="11" ry="11" style="stroke:#181818;stroke-width:1.0;"/><path d="M114.2188,137.9558 Q112.4688,137.9558 111.3281,137.2215 Q110.2031,136.4715 109.6406,135.1277 Q109.0938,133.7683 109.0938,131.9715 Q109.0938,129.9402 109.75,128.4871 Q110.4063,127.034 111.6875,126.2527 Q112.9688,125.4715 114.8438,125.4715 Q115.7344,125.4715 116.4063,125.659 Q117.0781,125.8308 117.7656,126.1746 L116.9531,128.1902 Q116.3281,127.8777 115.7813,127.7527 Q115.25,127.6277 114.7656,127.6277 Q113.5938,127.6277 112.8906,128.159 Q112.1875,128.6902 111.8906,129.6433 Q111.5938,130.5965 111.5938,131.8621 Q111.5938,133.8777 112.3125,134.8465 Q113.0313,135.7996 114.625,135.7996 Q115.2188,135.7996 115.8438,135.6433 Q116.4688,135.4871 117.2969,135.1121 L117.2969,137.3308 Q116.5625,137.6433 115.7656,137.7996 Q114.9844,137.9558 114.2188,137.9558 Z " fill="#000000"/><text fill="#000000" font-family="sans-serif" font-size="14" lengthAdjust="spacing" textLength="75" x="147.75" y="129.6559">Acquisition</text><text fill="#000000" font-family="sans-serif" font-size="10" lengthAdjust="spacing" textLength="100" x="135.25" y="144.4479">frc.robot.subsystems</text><line style="stroke:#181818;stroke-width:0.5;" x1="8" x2="330" y1="152.3779" y2="152.3779"/><rect fill="none" height="6" style="stroke:#C82930;stroke-width:1.0;" width="6" x="15" y="164.4119"/><text fill="#000000" font-family="sans-serif" font-size="14" lengthAdjust="spacing" textLength="147" x="27" y="171.3438">pivotMotor: SparkMax</text><rect fill="none" height="6" style="stroke:#C82930;stroke-width:1.0;" width="6" x="15" y="183.4798"/><text fill="#000000" font-family="sans-serif" font-size="14" lengthAdjust="spacing" textLength="155" x="27" y="190.4118">intakeMotor: SparkMax</text><rect fill="none" height="6" style="stroke:#C82930;stroke-width:1.0;" width="6" x="15" y="202.5477"/><text fill="#000000" font-family="sans-serif" font-size="14" lengthAdjust="spacing" textLength="212" x="27" y="209.4797">intakeEncoder: RelativeEncoder</text><rect fill="none" height="6" style="stroke:#C82930;stroke-width:1.0;" width="6" x="15" y="221.6156"/><text fill="#000000" font-family="sans-serif" font-size="14" lengthAdjust="spacing" textLength="210" x="27" y="228.5476">pivotEncoder: AbsoluteEncoder</text><rect fill="none" height="6" style="stroke:#C82930;stroke-width:1.0;" width="6" x="15" y="240.6835"/><text fill="#000000" font-family="sans-serif" font-size="14" lengthAdjust="spacing" textLength="290" x="27" y="247.6155">pivotController: SparkClosedLoopController</text><rect fill="none" height="6" style="stroke:#C82930;stroke-width:1.0;" width="6" x="15" y="259.7514"/><text fill="#000000" font-family="sans-serif" font-size="14" lengthAdjust="spacing" textLength="298" x="27" y="266.6834">intakeController: SparkClosedLoopController</text><rect fill="none" height="6" style="stroke:#C82930;stroke-width:1.0;" width="6" x="15" y="278.8194"/><text fill="#000000" font-family="sans-serif" font-size="14" lengthAdjust="spacing" text-decoration="underline" textLength="140" x="27" y="285.7513">instance: Acquisition</text><line style="stroke:#181818;stroke-width:0.5;" x1="8" x2="330" y1="293.8533" y2="293.8533"/><ellipse cx="18" cy="308.8873" fill="#84BE84" rx="3" ry="3" style="stroke:#038048;stroke-width:1.0;"/><text fill="#000000" font-family="sans-serif" font-size="14" lengthAdjust="spacing" text-decoration="underline" textLength="171" x="27" y="312.8193">getInstance(): Acquisition</text><ellipse cx="18" cy="327.9552" fill="#84BE84" rx="3" ry="3" style="stroke:#038048;stroke-width:1.0;"/><text fill="#000000" font-family="sans-serif" font-size="14" lengthAdjust="spacing" textLength="227" x="27" y="331.8872">setPivot(AcquisitionSetpoint): void</text><ellipse cx="18" cy="347.0231" fill="#84BE84" rx="3" ry="3" style="stroke:#038048;stroke-width:1.0;"/><text fill="#000000" font-family="sans-serif" font-size="14" lengthAdjust="spacing" textLength="199" x="27" y="350.9551">setPivotDegrees(double): void</text><ellipse cx="18" cy="366.091" fill="#84BE84" rx="3" ry="3" style="stroke:#038048;stroke-width:1.0;"/><text fill="#000000" font-family="sans-serif" font-size="14" lengthAdjust="spacing" textLength="95" x="27" y="370.023">acquire(): void</text><ellipse cx="18" cy="385.1589" fill="#84BE84" rx="3" ry="3" style="stroke:#038048;stroke-width:1.0;"/><text fill="#000000" font-family="sans-serif" font-size="14" lengthAdjust="spacing" textLength="96" x="27" y="389.0909">dispose(): void</text><ellipse cx="18" cy="404.2269" fill="#84BE84" rx="3" ry="3" style="stroke:#038048;stroke-width:1.0;"/><text fill="#000000" font-family="sans-serif" font-size="14" lengthAdjust="spacing" textLength="115" x="27" y="408.1588">stopIntake(): void</text><ellipse cx="18" cy="423.2948" fill="#84BE84" rx="3" ry="3" style="stroke:#038048;stroke-width:1.0;"/><text fill="#000000" font-family="sans-serif" font-size="14" lengthAdjust="spacing" textLength="105" x="27" y="427.2268">stopPivot(): void</text><ellipse cx="18" cy="442.3627" fill="#84BE84" rx="3" ry="3" style="stroke:#038048;stroke-width:1.0;"/><text fill="#000000" font-family="sans-serif" font-size="14" lengthAdjust="spacing" textLength="173" x="27" y="446.2947">pivotAtSetpoint(): boolean</text><ellipse cx="18" cy="461.4306" fill="#84BE84" rx="3" ry="3" style="stroke:#038048;stroke-width:1.0;"/><text fill="#000000" font-family="sans-serif" font-size="14" lengthAdjust="spacing" textLength="157" x="27" y="465.3626">getIntakeRPM(): double</text><ellipse cx="18" cy="480.4985" fill="#84BE84" rx="3" ry="3" style="stroke:#038048;stroke-width:1.0;"/><text fill="#000000" font-family="sans-serif" font-size="14" lengthAdjust="spacing" textLength="170" x="27" y="484.4305">getPivotPosition(): double</text></g></a><!--class edu.wpi.first.wpilibj2.command.SubsystemBase--><g id="elem_edu.wpi.first.wpilibj2.command.SubsystemBase"><rect codeLine="25" fill="#F1F1F1" height="42.6879" id="edu.wpi.first.wpilibj2.command.SubsystemBase" rx="2.5" ry="2.5" style="stroke:#181818;stroke-width:0.5;" width="178" x="80" y="7"/><ellipse cx="95" cy="28.344" fill="#A9DCDF" rx="11" ry="11" style="stroke:#181818;stroke-width:1.0;"/><path d="M90.1719,34.094 L93.5156,21.9065 L96.6563,21.9065 L100.0313,34.094 L97.5625,34.094 L96.8281,31.0783 L93.3125,31.0783 L92.5625,34.094 L90.1719,34.094 Z M94.5781,26.0471 L93.8281,29.0471 L96.3438,29.0471 L95.625,26.0471 Q95.4844,25.469 95.3594,24.9221 Q95.2344,24.3596 95.0938,23.7815 Q94.9844,24.3596 94.8438,24.9221 Q94.7031,25.469 94.5781,26.0471 Z " fill="#000000"/><text fill="#000000" font-family="sans-serif" font-size="14" font-style="italic" lengthAdjust="spacing" textLength="95" x="134.5" y="26.9659">SubsystemBase</text><text fill="#000000" font-family="sans-serif" font-size="10" font-style="italic" lengthAdjust="spacing" textLength="146" x="109" y="41.7579">edu.wpi.first.wpilibj2.command</text></g><!--reverse link edu.wpi.first.wpilibj2.command.SubsystemBase to frc.robot.subsystems.Acquisition--><g id="link_edu.wpi.first.wpilibj2.command.SubsystemBase_frc.robot.subsystems.Acquisition"><path codeLine="27" d="M169,68.14 C169,82.63 169,85.55 169,109.2 " fill="none" id="edu.wpi.first.wpilibj2.command.SubsystemBase-backto-frc.robot.subsystems.Acquisition" style="stroke:#181818;stroke-width:1.0;"/><polygon fill="none" points="169,50.14,163,68.14,175,68.14,169,50.14" style="stroke:#181818;stroke-width:1.0;"/></g><text fill="#888888" font-family="sans-serif" font-size="10" lengthAdjust="spacing" textLength="176" x="74" y="509.2225">UMLDoclet 2.1.2, PlantUML 1.2024.3</text><!--SRC=[bLHDJzj04BttLuoGa5BHh23g2I6a03qW4IaYweboMAydPCjwn-oCKpxAV-_kcZHEd1RXYzVllPbvCver002ZWDSLSgqDph3MGGi5yEJnKwHXOKi4h6fvWhb5L_8sMg4iAC8PDqupmzu9ssSyFlfwEZOFZMKhblmF_uOUdiw3KO4A4iLDmKyiMF4UQ8PTXEhaW9kRpfTQIELkR-4bbqxFiBPBaWd53evX5dkvd-Z7DMkzw7jyX_xc3PKO1TVejDZb2jWgybSsBfXS8_-GdPENGCxXgkAv8yRoYgXUKziMFXRqmX9zcjSK7O_UO3Irdb9VTt27Slac7NpUBJw8Up5D3Gmwx0obfcWnnYp9bdtn1Tu5H1wKr1GEUpATKeLSSvCeBTUnmpx1GlLbdibkhhNOe_BenxBocmG5aKFTQJ0F8MM-dawIeFMymUViKsgRtzAyjWkl2vQWZVGsVxPQu3FDsDbzB1lrgxPgRWDBEZbR_1mfGrMbVPblmVybQYDpw-8Z4N3oUpXyzwQrjnczO80vKNfzdrnTa77nVp5IHshq1QPEUuaex2ynS1xH7m00]--></g></svg>