<?xml version="1.0" encoding="us-ascii" standalone="no"?><svg xmlns="http://www.w3.org/2000/svg" xmlns:xlink="http://www.w3.org/1999/xlink" contentStyleType="text/css" height="615px" preserveAspectRatio="none" style="width:421px;height:615px;background:#FFFFFF;" version="1.1" viewBox="0 0 421 615" width="421px" zoomAndPan="magnify"><defs/><g><!--class frc.robot.subsystems.Dashboard.DashboardValue--><a href="Dashboard.DashboardValue.html" target="_top" title="Dashboard.DashboardValue.html" xlink:actuate="onRequest" xlink:href="Dashboard.DashboardValue.html" xlink:show="new" xlink:title="Dashboard.DashboardValue.html" xlink:type="simple"><g id="elem_frc.robot.subsystems.Dashboard.DashboardValue"><rect codeLine="5" fill="#F1F1F1" height="478.1821" id="frc.robot.subsystems.Dashboard.DashboardValue" rx="2.5" ry="2.5" style="stroke:#181818;stroke-width:0.5;" width="407" x="7" y="109.69"/><ellipse cx="111.75" cy="131.034" fill="#EB937F" rx="11" ry="11" style="stroke:#181818;stroke-width:1.0;"/><path d="M108.1094,137.534 L108.1094,125.3933 L115.7656,125.3933 L115.7656,127.5183 L110.4844,127.5183 L110.4844,130.1746 L115.5,130.1746 L115.5,132.2996 L110.4844,132.2996 L110.4844,135.409 L115.7656,135.409 L115.7656,137.534 L108.1094,137.534 Z " fill="#000000"/><text fill="#000000" font-family="sans-serif" font-size="14" lengthAdjust="spacing" textLength="189" x="132.25" y="129.6559">Dashboard.DashboardValue</text><text fill="#000000" font-family="sans-serif" font-size="10" lengthAdjust="spacing" textLength="100" x="176.75" y="144.4479">frc.robot.subsystems</text><line style="stroke:#181818;stroke-width:0.5;" x1="8" x2="413" y1="152.3779" y2="152.3779"/><ellipse cx="18" cy="167.4119" fill="none" rx="3" ry="3" style="stroke:#038048;stroke-width:1.0;"/><text fill="#000000" font-family="sans-serif" font-size="14" lengthAdjust="spacing" text-decoration="underline" textLength="62" x="27" y="171.3438">ROBOT_X</text><ellipse cx="18" cy="186.4798" fill="none" rx="3" ry="3" style="stroke:#038048;stroke-width:1.0;"/><text fill="#000000" font-family="sans-serif" font-size="14" lengthAdjust="spacing" text-decoration="underline" textLength="62" x="27" y="190.4118">ROBOT_Y</text><ellipse cx="18" cy="205.5477" fill="none" rx="3" ry="3" style="stroke:#038048;stroke-width:1.0;"/><text fill="#000000" font-family="sans-serif" font-size="14" lengthAdjust="spacing" text-decoration="underline" textLength="82" x="27" y="209.4797">ROBOT_ROT</text><ellipse cx="18" cy="224.6156" fill="none" rx="3" ry="3" style="stroke:#038048;stroke-width:1.0;"/><text fill="#000000" font-family="sans-serif" font-size="14" lengthAdjust="spacing" text-decoration="underline" textLength="95" x="27" y="228.5476">HUB_ALIGNED</text><ellipse cx="18" cy="243.6835" fill="none" rx="3" ry="3" style="stroke:#038048;stroke-width:1.0;"/><text fill="#000000" font-family="sans-serif" font-size="14" lengthAdjust="spacing" text-decoration="underline" textLength="175" x="27" y="247.6155">MANUAL_MODE_ENABLED</text><ellipse cx="18" cy="262.7514" fill="none" rx="3" ry="3" style="stroke:#038048;stroke-width:1.0;"/><text fill="#000000" font-family="sans-serif" font-size="14" lengthAdjust="spacing" text-decoration="underline" textLength="166" x="27" y="266.6834">MANUAL_SHOOTER_RPM</text><ellipse cx="18" cy="281.8194" fill="none" rx="3" ry="3" style="stroke:#038048;stroke-width:1.0;"/><text fill="#000000" font-family="sans-serif" font-size="14" lengthAdjust="spacing" text-decoration="underline" textLength="229" x="27" y="285.7513">MANUAL_SHOOTER_HOOD_ANGLE</text><ellipse cx="18" cy="300.8873" fill="none" rx="3" ry="3" style="stroke:#038048;stroke-width:1.0;"/><text fill="#000000" font-family="sans-serif" font-size="14" lengthAdjust="spacing" text-decoration="underline" textLength="186" x="27" y="304.8193">ACQUISITION_MIN_WIGGLE</text><ellipse cx="18" cy="319.9552" fill="none" rx="3" ry="3" style="stroke:#038048;stroke-width:1.0;"/><text fill="#000000" font-family="sans-serif" font-size="14" lengthAdjust="spacing" text-decoration="underline" textLength="187" x="27" y="323.8872">ACQUISITION_MAX_WIGGLE</text><ellipse cx="18" cy="339.0231" fill="none" rx="3" ry="3" style="stroke:#038048;stroke-width:1.0;"/><text fill="#000000" font-family="sans-serif" font-size="14" lengthAdjust="spacing" text-decoration="underline" textLength="37" x="27" y="342.9551">FIELD</text><rect fill="none" height="6" style="stroke:#C82930;stroke-width:1.0;" width="6" x="15" y="355.091"/><text fill="#000000" font-family="sans-serif" font-size="14" lengthAdjust="spacing" textLength="181" x="27" y="362.023">supplier: Supplier&lt;Object&gt;</text><rect fill="none" height="6" style="stroke:#C82930;stroke-width:1.0;" width="6" x="15" y="374.1589"/><text fill="#000000" font-family="sans-serif" font-size="14" lengthAdjust="spacing" textLength="250" x="27" y="381.0909">transformer: UnaryOperator&lt;Object&gt;</text><rect fill="none" height="6" style="stroke:#C82930;stroke-width:1.0;" width="6" x="15" y="393.2269"/><text fill="#000000" font-family="sans-serif" font-size="14" lengthAdjust="spacing" textLength="234" x="27" y="400.1588">periodicAction: Consumer&lt;Object&gt;</text><rect fill="none" height="6" style="stroke:#C82930;stroke-width:1.0;" width="6" x="15" y="412.2948"/><text fill="#000000" font-family="sans-serif" font-size="14" lengthAdjust="spacing" textLength="171" x="27" y="419.2268">entry: NetworkTableEntry</text><rect fill="none" height="6" style="stroke:#C82930;stroke-width:1.0;" width="6" x="15" y="431.3627"/><text fill="#000000" font-family="sans-serif" font-size="14" lengthAdjust="spacing" textLength="88" x="27" y="438.2947">value: Object</text><line style="stroke:#181818;stroke-width:0.5;" x1="8" x2="413" y1="446.3967" y2="446.3967"/><rect fill="#F24D5C" height="6" style="stroke:#C82930;stroke-width:1.0;" width="6" x="15" y="458.4306"/><text fill="#000000" font-family="sans-serif" font-size="14" lengthAdjust="spacing" textLength="337" x="27" y="465.3626">DashboardValue(String, Supplier&lt;Object&gt;, Object)</text><rect fill="#F24D5C" height="6" style="stroke:#C82930;stroke-width:1.0;" width="6" x="15" y="477.4985"/><text fill="#000000" font-family="sans-serif" font-size="14" lengthAdjust="spacing" textLength="212" x="27" y="484.4305">DashboardValue(String, Object)</text><rect fill="#F24D5C" height="6" style="stroke:#C82930;stroke-width:1.0;" width="6" x="15" y="496.5664"/><text fill="#000000" font-family="sans-serif" font-size="14" lengthAdjust="spacing" textLength="381" x="27" y="503.4984">DashboardValue(String, UnaryOperator&lt;Object&gt;, Object)</text><rect fill="#F24D5C" height="6" style="stroke:#C82930;stroke-width:1.0;" width="6" x="15" y="515.6344"/><text fill="#000000" font-family="sans-serif" font-size="14" lengthAdjust="spacing" textLength="319" x="27" y="522.5663">DashboardValue(Sendable, Consumer&lt;Object&gt;)</text><ellipse cx="18" cy="537.7023" fill="#84BE84" rx="3" ry="3" style="stroke:#038048;stroke-width:1.0;"/><text fill="#000000" font-family="sans-serif" font-size="14" lengthAdjust="spacing" textLength="82" x="27" y="541.6343">get(): Object</text><ellipse cx="18" cy="556.7702" fill="#84BE84" rx="3" ry="3" style="stroke:#038048;stroke-width:1.0;"/><text fill="#000000" font-family="sans-serif" font-size="14" lengthAdjust="spacing" textLength="108" x="27" y="560.7022">set(Object): void</text><rect fill="#F24D5C" height="6" style="stroke:#C82930;stroke-width:1.0;" width="6" x="15" y="572.8381"/><text fill="#000000" font-family="sans-serif" font-size="14" lengthAdjust="spacing" textLength="99" x="27" y="579.7701">periodic(): void</text></g></a><!--class frc.robot.subsystems.Dashboard--><a href="Dashboard.html" target="_top" title="Dashboard.html" xlink:actuate="onRequest" xlink:href="Dashboard.html" xlink:show="new" xlink:title="Dashboard.html" xlink:type="simple"><g id="elem_frc.robot.subsystems.Dashboard"><rect codeLine="30" fill="#F1F1F1" height="42.6879" id="frc.robot.subsystems.Dashboard" rx="2.5" ry="2.5" style="stroke:#181818;stroke-width:0.5;" width="132" x="144.5" y="7"/><ellipse cx="159.5" cy="28.344" fill="#ADD1B2" rx="11" ry="11" style="stroke:#181818;stroke-width:1.0;"/><path d="M158.9688,35.2658 Q157.2188,35.2658 156.0781,34.5315 Q154.9531,33.7815 154.3906,32.4377 Q153.8438,31.0783 153.8438,29.2815 Q153.8438,27.2502 154.5,25.7971 Q155.1563,24.344 156.4375,23.5627 Q157.7188,22.7815 159.5938,22.7815 Q160.4844,22.7815 161.1563,22.969 Q161.8281,23.1408 162.5156,23.4846 L161.7031,25.5002 Q161.0781,25.1877 160.5313,25.0627 Q160,24.9377 159.5156,24.9377 Q158.3438,24.9377 157.6406,25.469 Q156.9375,26.0002 156.6406,26.9533 Q156.3438,27.9065 156.3438,29.1721 Q156.3438,31.1877 157.0625,32.1565 Q157.7813,33.1096 159.375,33.1096 Q159.9688,33.1096 160.5938,32.9533 Q161.2188,32.7971 162.0469,32.4221 L162.0469,34.6408 Q161.3125,34.9533 160.5156,35.1096 Q159.7344,35.2658 158.9688,35.2658 Z " fill="#000000"/><text fill="#000000" font-family="sans-serif" font-size="14" lengthAdjust="spacing" textLength="74" x="186.5" y="26.9659">Dashboard</text><text fill="#000000" font-family="sans-serif" font-size="10" lengthAdjust="spacing" textLength="100" x="173.5" y="41.7579">frc.robot.subsystems</text></g></a><!--reverse link frc.robot.subsystems.Dashboard to frc.robot.subsystems.Dashboard.DashboardValue--><g id="link_frc.robot.subsystems.Dashboard_frc.robot.subsystems.Dashboard.DashboardValue"><path codeLine="32" d="M210.5,65.75 C210.5,80.16 210.5,85.2 210.5,109.53 " fill="none" id="frc.robot.subsystems.Dashboard-backto-frc.robot.subsystems.Dashboard.DashboardValue" style="stroke:#181818;stroke-width:1.0;"/><ellipse cx="210.5" cy="57.75" fill="#FFFFFF" rx="8" ry="8" style="stroke:#181818;stroke-width:1.0;"/><line style="stroke:#181818;stroke-width:1.0;" x1="210.5" x2="210.5" y1="65.75" y2="49.75"/><line style="stroke:#181818;stroke-width:1.0;" x1="202.5" x2="218.5" y1="57.75" y2="57.75"/></g><text fill="#888888" font-family="sans-serif" font-size="10" lengthAdjust="spacing" textLength="176" x="115.5" y="604.5621">UMLDoclet 2.1.2, PlantUML 1.2024.3</text><!--SRC=[fLHTRvim57tVhxYgD8ae2LghFQ4g4YaiHIBG1bWxTHKoSDEmWOriaoch-jy78IhhW2NJUB5rFYw-rZq6010eWP8SHK5YzB0Wd4Z6WJAAxoeQDcc2W7aXTx1ECKl4dsYESiCgU8yZBNCuknJfJzJEFyuC8ZOH8pnHNtUVILRYLtgGV9YjUQno5Z6fYZ8IEo4n5sT01FGHwb11U7WOejIDpBF7HtZU7x3-deKaCerVOBnovwuVtWyoNmQPbUltSDV1FDHjQ-6OHW-xr9r0jyEbQvYXwUXp-sygxzfrVNCLhcwMnqNLOeIwix3D7gr-THjOdkLRhXCkBIUyinOd2FNxOU4doxJReqz5MHHPYbm3xx2xTADl6CjPgv6SKB5cFAzb0ILyvnQu7xMkjY9IbgIn7ikKKGsk61LbtbSLgUGx3HoKFnZ_xfCeGxE6MiMs7W4D6cSBlnqHnPCyfK-Jplad1-FegFDKNM_h9zYH9dLtayvbj9xn4qfbrEbrN2LSETJNOClIf7lJok_CInFbE2D2z6Nv_yFx9grDF9j_7h6DfzD_UnQQHgefGGvhnkebMDe6YxFgrRjGpzMB2TnaXCeAXVTRvA8QE6Nq2m00]--></g></svg>