<?xml version="1.0" encoding="us-ascii" standalone="no"?><svg xmlns="http://www.w3.org/2000/svg" xmlns:xlink="http://www.w3.org/1999/xlink" contentStyleType="text/css" height="424px" preserveAspectRatio="none" style="width:269px;height:424px;background:#FFFFFF;" version="1.1" viewBox="0 0 269 424" width="269px" zoomAndPan="magnify"><defs/><g><!--class frc.robot.subsystems.Dashboard.DashboardValue--><a href="Dashboard.DashboardValue.html" target="_top" title="Dashboard.DashboardValue.html" xlink:actuate="onRequest" xlink:href="Dashboard.DashboardValue.html" xlink:show="new" xlink:title="Dashboard.DashboardValue.html" xlink:type="simple"><g id="elem_frc.robot.subsystems.Dashboard.DashboardValue"><rect codeLine="5" fill="#F1F1F1" height="287.5029" id="frc.robot.subsystems.Dashboard.DashboardValue" rx="2.5" ry="2.5" style="stroke:#181818;stroke-width:0.5;" width="255" x="7" y="109.69"/><ellipse cx="37.3" cy="131.034" fill="#EB937F" rx="11" ry="11" style="stroke:#181818;stroke-width:1.0;"/><path d="M33.6594,137.534 L33.6594,125.3933 L41.3156,125.3933 L41.3156,127.5183 L36.0344,127.5183 L36.0344,130.1746 L41.05,130.1746 L41.05,132.2996 L36.0344,132.2996 L36.0344,135.409 L41.3156,135.409 L41.3156,137.534 L33.6594,137.534 Z " fill="#000000"/><text fill="#000000" font-family="sans-serif" font-size="14" lengthAdjust="spacing" textLength="189" x="54.7" y="129.6559">Dashboard.DashboardValue</text><text fill="#000000" font-family="sans-serif" font-size="10" lengthAdjust="spacing" textLength="100" x="99.2" y="144.4479">frc.robot.subsystems</text><line style="stroke:#181818;stroke-width:0.5;" x1="8" x2="261" y1="152.3779" y2="152.3779"/><ellipse cx="18" cy="167.4119" fill="none" rx="3" ry="3" style="stroke:#038048;stroke-width:1.0;"/><text fill="#000000" font-family="sans-serif" font-size="14" lengthAdjust="spacing" text-decoration="underline" textLength="62" x="27" y="171.3438">ROBOT_X</text><ellipse cx="18" cy="186.4798" fill="none" rx="3" ry="3" style="stroke:#038048;stroke-width:1.0;"/><text fill="#000000" font-family="sans-serif" font-size="14" lengthAdjust="spacing" text-decoration="underline" textLength="62" x="27" y="190.4118">ROBOT_Y</text><ellipse cx="18" cy="205.5477" fill="none" rx="3" ry="3" style="stroke:#038048;stroke-width:1.0;"/><text fill="#000000" font-family="sans-serif" font-size="14" lengthAdjust="spacing" text-decoration="underline" textLength="82" x="27" y="209.4797">ROBOT_ROT</text><ellipse cx="18" cy="224.6156" fill="none" rx="3" ry="3" style="stroke:#038048;stroke-width:1.0;"/><text fill="#000000" font-family="sans-serif" font-size="14" lengthAdjust="spacing" text-decoration="underline" textLength="95" x="27" y="228.5476">HUB_ALIGNED</text><ellipse cx="18" cy="243.6835" fill="none" rx="3" ry="3" style="stroke:#038048;stroke-width:1.0;"/><text fill="#000000" font-family="sans-serif" font-size="14" lengthAdjust="spacing" text-decoration="underline" textLength="175" x="27" y="247.6155">MANUAL_MODE_ENABLED</text><ellipse cx="18" cy="262.7514" fill="none" rx="3" ry="3" style="stroke:#038048;stroke-width:1.0;"/><text fill="#000000" font-family="sans-serif" font-size="14" lengthAdjust="spacing" text-decoration="underline" textLength="166" x="27" y="266.6834">MANUAL_SHOOTER_RPM</text><ellipse cx="18" cy="281.8194" fill="none" rx="3" ry="3" style="stroke:#038048;stroke-width:1.0;"/><text fill="#000000" font-family="sans-serif" font-size="14" lengthAdjust="spacing" text-decoration="underline" textLength="229" x="27" y="285.7513">MANUAL_SHOOTER_HOOD_ANGLE</text><ellipse cx="18" cy="300.8873" fill="none" rx="3" ry="3" style="stroke:#038048;stroke-width:1.0;"/><text fill="#000000" font-family="sans-serif" font-size="14" lengthAdjust="spacing" text-decoration="underline" textLength="186" x="27" y="304.8193">ACQUISITION_MIN_WIGGLE</text><ellipse cx="18" cy="319.9552" fill="none" rx="3" ry="3" style="stroke:#038048;stroke-width:1.0;"/><text fill="#000000" font-family="sans-serif" font-size="14" lengthAdjust="spacing" text-decoration="underline" textLength="187" x="27" y="323.8872">ACQUISITION_MAX_WIGGLE</text><ellipse cx="18" cy="339.0231" fill="none" rx="3" ry="3" style="stroke:#038048;stroke-width:1.0;"/><text fill="#000000" font-family="sans-serif" font-size="14" lengthAdjust="spacing" text-decoration="underline" textLength="37" x="27" y="342.9551">FIELD</text><line style="stroke:#181818;stroke-width:0.5;" x1="8" x2="261" y1="351.0571" y2="351.0571"/><ellipse cx="18" cy="366.091" fill="#84BE84" rx="3" ry="3" style="stroke:#038048;stroke-width:1.0;"/><text fill="#000000" font-family="sans-serif" font-size="14" lengthAdjust="spacing" textLength="82" x="27" y="370.023">get(): Object</text><ellipse cx="18" cy="385.1589" fill="#84BE84" rx="3" ry="3" style="stroke:#038048;stroke-width:1.0;"/><text fill="#000000" font-family="sans-serif" font-size="14" lengthAdjust="spacing" textLength="108" x="27" y="389.0909">set(Object): void</text></g></a><!--class frc.robot.subsystems.Dashboard--><a href="Dashboard.html" target="_top" title="Dashboard.html" xlink:actuate="onRequest" xlink:href="Dashboard.html" xlink:show="new" xlink:title="Dashboard.html" xlink:type="simple"><g id="elem_frc.robot.subsystems.Dashboard"><rect codeLine="20" fill="#F1F1F1" height="42.6879" id="frc.robot.subsystems.Dashboard" rx="2.5" ry="2.5" style="stroke:#181818;stroke-width:0.5;" width="132" x="68.5" y="7"/><ellipse cx="83.5" cy="28.344" fill="#ADD1B2" rx="11" ry="11" style="stroke:#181818;stroke-width:1.0;"/><path d="M82.9688,35.2658 Q81.2188,35.2658 80.0781,34.5315 Q78.9531,33.7815 78.3906,32.4377 Q77.8438,31.0783 77.8438,29.2815 Q77.8438,27.2502 78.5,25.7971 Q79.1563,24.344 80.4375,23.5627 Q81.7188,22.7815 83.5938,22.7815 Q84.4844,22.7815 85.1563,22.969 Q85.8281,23.1408 86.5156,23.4846 L85.7031,25.5002 Q85.0781,25.1877 84.5313,25.0627 Q84,24.9377 83.5156,24.9377 Q82.3438,24.9377 81.6406,25.469 Q80.9375,26.0002 80.6406,26.9533 Q80.3438,27.9065 80.3438,29.1721 Q80.3438,31.1877 81.0625,32.1565 Q81.7813,33.1096 83.375,33.1096 Q83.9688,33.1096 84.5938,32.9533 Q85.2188,32.7971 86.0469,32.4221 L86.0469,34.6408 Q85.3125,34.9533 84.5156,35.1096 Q83.7344,35.2658 82.9688,35.2658 Z " fill="#000000"/><text fill="#000000" font-family="sans-serif" font-size="14" lengthAdjust="spacing" textLength="74" x="110.5" y="26.9659">Dashboard</text><text fill="#000000" font-family="sans-serif" font-size="10" lengthAdjust="spacing" textLength="100" x="97.5" y="41.7579">frc.robot.subsystems</text></g></a><!--reverse link frc.robot.subsystems.Dashboard to frc.robot.subsystems.Dashboard.DashboardValue--><g id="link_frc.robot.subsystems.Dashboard_frc.robot.subsystems.Dashboard.DashboardValue"><path codeLine="22" d="M134.5,65.93 C134.5,80.66 134.5,85.92 134.5,109.2 " fill="none" id="frc.robot.subsystems.Dashboard-backto-frc.robot.subsystems.Dashboard.DashboardValue" style="stroke:#181818;stroke-width:1.0;"/><ellipse cx="134.5" cy="57.93" fill="#FFFFFF" rx="8" ry="8" style="stroke:#181818;stroke-width:1.0;"/><line style="stroke:#181818;stroke-width:1.0;" x1="134.5" x2="134.5" y1="65.93" y2="49.93"/><line style="stroke:#181818;stroke-width:1.0;" x1="126.5" x2="142.5" y1="57.93" y2="57.93"/></g><text fill="#888888" font-family="sans-serif" font-size="10" lengthAdjust="spacing" textLength="176" x="39.5" y="413.8829">UMLDoclet 2.1.2, PlantUML 1.2024.3</text><!--SRC=[fPDHQy8m58NVzoikWu7YB5Fs94EeQwU5jd6rtHnEGjfUruwsaIOAJlplgtPCDjgviRpSSBwJv8QS0008b92n5CMI1JZ19SkPv3baFCEp0aCKXmYOBkK65Z4ceVYkfYWZNiW77RDL2kSt8dx3NkUwhp4H-PpbeV8vUs392f-p3yjLVv47IivzBXMnyiL6I4p5EJ01LK2fsn1cipgaH39DvdFO7XhSZwsGJCR13beE6H2NJcl9KornY5l1Hjw0ggOnj7MjWbggxQacjOYcKzrM1-PFhic845Ttg3EsJfkAeb7L7ffwXLUzlVUCYU4QnAQMOTD7O_WBepgjDzuPkdbilVM2ij7i0V5VCP17kKXMezGAkEPnU42xCYX1meIeIih_e_4b2-NZbsUUMDPgj_yMkl8Yc4dCOS7vldYMgV4WAVvKL-aetKiO9ooJXGeNQyn5pBD6ynq0]--></g></svg>