<?xml version="1.0" encoding="us-ascii" standalone="no"?><svg xmlns="http://www.w3.org/2000/svg" xmlns:xlink="http://www.w3.org/1999/xlink" contentStyleType="text/css" height="679px" preserveAspectRatio="none" style="width:390px;height:679px;background:#FFFFFF;" version="1.1" viewBox="0 0 390 679" width="390px" zoomAndPan="magnify"><defs/><g><!--class frc.robot.subsystems.Dashboard--><a href="Dashboard.html" target="_top" title="Dashboard.html" xlink:actuate="onRequest" xlink:href="Dashboard.html" xlink:show="new" xlink:title="Dashboard.html" xlink:type="simple"><g id="elem_frc.robot.subsystems.Dashboard"><rect codeLine="5" fill="#F1F1F1" height="440.0462" id="frc.robot.subsystems.Dashboard" rx="2.5" ry="2.5" style="stroke:#181818;stroke-width:0.5;" width="376" x="7" y="109.69"/><ellipse cx="140.75" cy="131.034" fill="#ADD1B2" rx="11" ry="11" style="stroke:#181818;stroke-width:1.0;"/><path d="M140.2188,137.9558 Q138.4688,137.9558 137.3281,137.2215 Q136.2031,136.4715 135.6406,135.1277 Q135.0938,133.7683 135.0938,131.9715 Q135.0938,129.9402 135.75,128.4871 Q136.4063,127.034 137.6875,126.2527 Q138.9688,125.4715 140.8438,125.4715 Q141.7344,125.4715 142.4063,125.659 Q143.0781,125.8308 143.7656,126.1746 L142.9531,128.1902 Q142.3281,127.8777 141.7813,127.7527 Q141.25,127.6277 140.7656,127.6277 Q139.5938,127.6277 138.8906,128.159 Q138.1875,128.6902 137.8906,129.6433 Q137.5938,130.5965 137.5938,131.8621 Q137.5938,133.8777 138.3125,134.8465 Q139.0313,135.7996 140.625,135.7996 Q141.2188,135.7996 141.8438,135.6433 Q142.4688,135.4871 143.2969,135.1121 L143.2969,137.3308 Q142.5625,137.6433 141.7656,137.7996 Q140.9844,137.9558 140.2188,137.9558 Z " fill="#000000"/><text fill="#000000" font-family="sans-serif" font-size="14" lengthAdjust="spacing" textLength="74" x="174.25" y="129.6559">Dashboard</text><text fill="#000000" font-family="sans-serif" font-size="10" lengthAdjust="spacing" textLength="100" x="161.25" y="144.4479">frc.robot.subsystems</text><line style="stroke:#181818;stroke-width:0.5;" x1="8" x2="382" y1="152.3779" y2="152.3779"/><rect fill="none" height="6" style="stroke:#C82930;stroke-width:1.0;" width="6" x="15" y="164.4119"/><text fill="#000000" font-family="sans-serif" font-size="14" lengthAdjust="spacing" textLength="319" x="27" y="171.3438">autoChooser: SendableChooser&lt;AutonChoices&gt;</text><rect fill="none" height="6" style="stroke:#C82930;stroke-width:1.0;" width="6" x="15" y="183.4798"/><text fill="#000000" font-family="sans-serif" font-size="14" lengthAdjust="spacing" textLength="281" x="27" y="190.4118">delayChooser: SendableChooser&lt;Double&gt;</text><rect fill="none" height="6" style="stroke:#C82930;stroke-width:1.0;" width="6" x="15" y="202.5477"/><text fill="#000000" font-family="sans-serif" font-size="14" lengthAdjust="spacing" text-decoration="underline" textLength="139" x="27" y="209.4797">instance: Dashboard</text><line style="stroke:#181818;stroke-width:0.5;" x1="8" x2="382" y1="217.5817" y2="217.5817"/><ellipse cx="18" cy="232.6156" fill="#84BE84" rx="3" ry="3" style="stroke:#038048;stroke-width:1.0;"/><text fill="#000000" font-family="sans-serif" font-size="14" lengthAdjust="spacing" text-decoration="underline" textLength="170" x="27" y="236.5476">getInstance(): Dashboard</text><ellipse cx="18" cy="251.6835" fill="#84BE84" rx="3" ry="3" style="stroke:#038048;stroke-width:1.0;"/><text fill="#000000" font-family="sans-serif" font-size="14" lengthAdjust="spacing" textLength="99" x="27" y="255.6155">periodic(): void</text><ellipse cx="18" cy="270.7514" fill="#84BE84" rx="3" ry="3" style="stroke:#038048;stroke-width:1.0;"/><text fill="#000000" font-family="sans-serif" font-size="14" lengthAdjust="spacing" textLength="144" x="27" y="274.6834">clearTrajectory(): void</text><ellipse cx="18" cy="289.8194" fill="#84BE84" rx="3" ry="3" style="stroke:#038048;stroke-width:1.0;"/><text fill="#000000" font-family="sans-serif" font-size="14" lengthAdjust="spacing" textLength="350" x="27" y="293.7513">getAutoChooser(): SendableChooser&lt;AutonChoices&gt;</text><ellipse cx="18" cy="308.8873" fill="#84BE84" rx="3" ry="3" style="stroke:#038048;stroke-width:1.0;"/><text fill="#000000" font-family="sans-serif" font-size="14" lengthAdjust="spacing" textLength="312" x="27" y="312.8193">getDelayChooser(): SendableChooser&lt;Double&gt;</text><ellipse cx="18" cy="327.9552" fill="#84BE84" rx="3" ry="3" style="stroke:#038048;stroke-width:1.0;"/><text fill="#000000" font-family="sans-serif" font-size="14" lengthAdjust="spacing" textLength="198" x="27" y="331.8872">setHubAligned(boolean): void</text><ellipse cx="18" cy="347.0231" fill="#84BE84" rx="3" ry="3" style="stroke:#038048;stroke-width:1.0;"/><text fill="#000000" font-family="sans-serif" font-size="14" lengthAdjust="spacing" textLength="225" x="27" y="350.9551">isManualModeEnabled(): boolean</text><ellipse cx="18" cy="366.091" fill="#84BE84" rx="3" ry="3" style="stroke:#038048;stroke-width:1.0;"/><text fill="#000000" font-family="sans-serif" font-size="14" lengthAdjust="spacing" textLength="218" x="27" y="370.023">getManualShooterRPM(): double</text><ellipse cx="18" cy="385.1589" fill="#84BE84" rx="3" ry="3" style="stroke:#038048;stroke-width:1.0;"/><text fill="#000000" font-family="sans-serif" font-size="14" lengthAdjust="spacing" textLength="262" x="27" y="389.0909">getManualShooterHoodAngle(): double</text><ellipse cx="18" cy="404.2269" fill="#84BE84" rx="3" ry="3" style="stroke:#038048;stroke-width:1.0;"/><text fill="#000000" font-family="sans-serif" font-size="14" lengthAdjust="spacing" textLength="286" x="27" y="408.1588">nudgeManualShooterRPMBackward(): void</text><ellipse cx="18" cy="423.2948" fill="#84BE84" rx="3" ry="3" style="stroke:#038048;stroke-width:1.0;"/><text fill="#000000" font-family="sans-serif" font-size="14" lengthAdjust="spacing" textLength="276" x="27" y="427.2268">nudgeManualShooterRPMForward(): void</text><ellipse cx="18" cy="442.3627" fill="#84BE84" rx="3" ry="3" style="stroke:#038048;stroke-width:1.0;"/><text fill="#000000" font-family="sans-serif" font-size="14" lengthAdjust="spacing" textLength="211" x="27" y="446.2947">resetManualShooterRPM(): void</text><ellipse cx="18" cy="461.4306" fill="#84BE84" rx="3" ry="3" style="stroke:#038048;stroke-width:1.0;"/><text fill="#000000" font-family="sans-serif" font-size="14" lengthAdjust="spacing" textLength="330" x="27" y="465.3626">nudgeManualShooterHoodAngleBackward(): void</text><ellipse cx="18" cy="480.4985" fill="#84BE84" rx="3" ry="3" style="stroke:#038048;stroke-width:1.0;"/><text fill="#000000" font-family="sans-serif" font-size="14" lengthAdjust="spacing" textLength="320" x="27" y="484.4305">nudgeManualShooterHoodAngleForward(): void</text><ellipse cx="18" cy="499.5664" fill="#84BE84" rx="3" ry="3" style="stroke:#038048;stroke-width:1.0;"/><text fill="#000000" font-family="sans-serif" font-size="14" lengthAdjust="spacing" textLength="255" x="27" y="503.4984">resetManualShooterHoodAngle(): void</text><ellipse cx="18" cy="518.6344" fill="#84BE84" rx="3" ry="3" style="stroke:#038048;stroke-width:1.0;"/><text fill="#000000" font-family="sans-serif" font-size="14" lengthAdjust="spacing" textLength="233" x="27" y="522.5663">getAcquisitionMinWiggle(): double</text><ellipse cx="18" cy="537.7023" fill="#84BE84" rx="3" ry="3" style="stroke:#038048;stroke-width:1.0;"/><text fill="#000000" font-family="sans-serif" font-size="14" lengthAdjust="spacing" textLength="235" x="27" y="541.6343">getAcquisitionMaxWiggle(): double</text></g></a><!--class edu.wpi.first.wpilibj2.command.SubsystemBase--><g id="elem_edu.wpi.first.wpilibj2.command.SubsystemBase"><rect codeLine="28" fill="#F1F1F1" height="42.6879" id="edu.wpi.first.wpilibj2.command.SubsystemBase" rx="2.5" ry="2.5" style="stroke:#181818;stroke-width:0.5;" width="178" x="106" y="7"/><ellipse cx="121" cy="28.344" fill="#A9DCDF" rx="11" ry="11" style="stroke:#181818;stroke-width:1.0;"/><path d="M116.1719,34.094 L119.5156,21.9065 L122.6563,21.9065 L126.0313,34.094 L123.5625,34.094 L122.8281,31.0783 L119.3125,31.0783 L118.5625,34.094 L116.1719,34.094 Z M120.5781,26.0471 L119.8281,29.0471 L122.3438,29.0471 L121.625,26.0471 Q121.4844,25.469 121.3594,24.9221 Q121.2344,24.3596 121.0938,23.7815 Q120.9844,24.3596 120.8438,24.9221 Q120.7031,25.469 120.5781,26.0471 Z " fill="#000000"/><text fill="#000000" font-family="sans-serif" font-size="14" font-style="italic" lengthAdjust="spacing" textLength="95" x="160.5" y="26.9659">SubsystemBase</text><text fill="#000000" font-family="sans-serif" font-size="10" font-style="italic" lengthAdjust="spacing" textLength="146" x="135" y="41.7579">edu.wpi.first.wpilibj2.command</text></g><!--class frc.robot.subsystems.Dashboard.DashboardValue--><a href="Dashboard.DashboardValue.html" target="_top" title="Dashboard.DashboardValue.html" xlink:actuate="onRequest" xlink:href="Dashboard.DashboardValue.html" xlink:show="new" xlink:title="Dashboard.DashboardValue.html" xlink:type="simple"><g id="elem_frc.robot.subsystems.Dashboard.DashboardValue"><rect codeLine="29" fill="#F1F1F1" height="42.6879" id="frc.robot.subsystems.Dashboard.DashboardValue" rx="2.5" ry="2.5" style="stroke:#181818;stroke-width:0.5;" width="221" x="84.5" y="609.73"/><ellipse cx="99.5" cy="631.074" fill="#EB937F" rx="11" ry="11" style="stroke:#181818;stroke-width:1.0;"/><path d="M95.8594,637.574 L95.8594,625.4333 L103.5156,625.4333 L103.5156,627.5583 L98.2344,627.5583 L98.2344,630.2146 L103.25,630.2146 L103.25,632.3396 L98.2344,632.3396 L98.2344,635.449 L103.5156,635.449 L103.5156,637.574 L95.8594,637.574 Z " fill="#000000"/><text fill="#000000" font-family="sans-serif" font-size="14" lengthAdjust="spacing" textLength="189" x="113.5" y="629.6959">Dashboard.DashboardValue</text><text fill="#000000" font-family="sans-serif" font-size="10" lengthAdjust="spacing" textLength="100" x="158" y="644.4879">frc.robot.subsystems</text></g></a><!--reverse link edu.wpi.first.wpilibj2.command.SubsystemBase to frc.robot.subsystems.Dashboard--><g id="link_edu.wpi.first.wpilibj2.command.SubsystemBase_frc.robot.subsystems.Dashboard"><path codeLine="31" d="M195,67.92 C195,82.32 195,85.22 195,109.21 " fill="none" id="edu.wpi.first.wpilibj2.command.SubsystemBase-backto-frc.robot.subsystems.Dashboard" style="stroke:#181818;stroke-width:1.0;"/><polygon fill="none" points="195,49.92,189,67.92,201,67.92,195,49.92" style="stroke:#181818;stroke-width:1.0;"/></g><!--reverse link frc.robot.subsystems.Dashboard to frc.robot.subsystems.Dashboard.DashboardValue--><g id="link_frc.robot.subsystems.Dashboard_frc.robot.subsystems.Dashboard.DashboardValue"><path codeLine="32" d="M195,565.85 C195,589.92 195,594.92 195,609.38 " fill="none" id="frc.robot.subsystems.Dashboard-backto-frc.robot.subsystems.Dashboard.DashboardValue" style="stroke:#181818;stroke-width:1.0;"/><ellipse cx="195" cy="557.85" fill="#FFFFFF" rx="8" ry="8" style="stroke:#181818;stroke-width:1.0;"/><line style="stroke:#181818;stroke-width:1.0;" x1="195" x2="195" y1="565.85" y2="549.85"/><line style="stroke:#181818;stroke-width:1.0;" x1="187" x2="203" y1="557.85" y2="557.85"/></g><text fill="#888888" font-family="sans-serif" font-size="10" lengthAdjust="spacing" textLength="176" x="100" y="668.1079">UMLDoclet 2.1.2, PlantUML 1.2024.3</text><!--SRC=[fLHDRnen4BttLumYLIAYh1hK4q98fBHAfI95fH-7D8TPUm2dNW_rU9FIDF-zteNoiRkKedBophnvVZEC7m20K0276Sa25KreWHu3Ut3iw5bCmzne0ieMOGbJGrPBDPfHc7CCbt5bKGJE-c9-Kk_YrM24CayPlVxgrh6NWwbNYUUKGo9vAai9bCaPe41J8jammCtDvfpCGsPlR-6nlBJuTJ0F_7hEBEHxC26dCRMq3lI7CUdYXr4aWssD9elBWqKZpkFN5lue0ODHJz0nBXwTeXvi5DLHxHc5TsjWwxm9sbwGDwoDAjBtR7OooXBwZnxlICL_Ora7HFBXjkCY_syz5uMZdRQRAgkDj-EENENfq9gP8zrAcQCwLvDaP8mkHpjcJMzSGQWBzZLyJy4AE8dt1V8VhiS5JfUt7ePTCUkXcrbg0hjSpwZAUedgsqCSU7rwZV2tx9lHdgHPyZ7IZUHJb6oAJj2pDvlwegZlkH4J3BknSL_CxC0GAr3yqGXzMhrqJ2LuLA7sv2T_tkub2kqyUz9vyh0moTHu2SN9clIkcoZECdIwD82_Gv8zvb84kJnhSfkjQtn6czF_cq-5SC-BzbDhQreDwPI6eF-hqpaYeoGzOfFjeomLnIlZ9XVt2ARbEi6dyViHHmyAq4qkakuBkBReGep2ytlo4hUZTVuR]--></g></svg>