<?xml version="1.0" encoding="us-ascii" standalone="no"?><svg xmlns="http://www.w3.org/2000/svg" xmlns:xlink="http://www.w3.org/1999/xlink" contentStyleType="text/css" height="613px" preserveAspectRatio="none" style="width:390px;height:613px;background:#FFFFFF;" version="1.1" viewBox="0 0 390 613" width="390px" zoomAndPan="magnify"><defs/><g><!--class frc.robot.subsystems.Dashboard--><a href="Dashboard.html" target="_top" title="Dashboard.html" xlink:actuate="onRequest" xlink:href="Dashboard.html" xlink:show="new" xlink:title="Dashboard.html" xlink:type="simple"><g id="elem_frc.robot.subsystems.Dashboard"><rect codeLine="5" fill="#F1F1F1" height="374.8425" id="frc.robot.subsystems.Dashboard" rx="2.5" ry="2.5" style="stroke:#181818;stroke-width:0.5;" width="376" x="7" y="109.69"/><ellipse cx="140.75" cy="131.034" fill="#ADD1B2" rx="11" ry="11" style="stroke:#181818;stroke-width:1.0;"/><path d="M140.2188,137.9558 Q138.4688,137.9558 137.3281,137.2215 Q136.2031,136.4715 135.6406,135.1277 Q135.0938,133.7683 135.0938,131.9715 Q135.0938,129.9402 135.75,128.4871 Q136.4063,127.034 137.6875,126.2527 Q138.9688,125.4715 140.8438,125.4715 Q141.7344,125.4715 142.4063,125.659 Q143.0781,125.8308 143.7656,126.1746 L142.9531,128.1902 Q142.3281,127.8777 141.7813,127.7527 Q141.25,127.6277 140.7656,127.6277 Q139.5938,127.6277 138.8906,128.159 Q138.1875,128.6902 137.8906,129.6433 Q137.5938,130.5965 137.5938,131.8621 Q137.5938,133.8777 138.3125,134.8465 Q139.0313,135.7996 140.625,135.7996 Q141.2188,135.7996 141.8438,135.6433 Q142.4688,135.4871 143.2969,135.1121 L143.2969,137.3308 Q142.5625,137.6433 141.7656,137.7996 Q140.9844,137.9558 140.2188,137.9558 Z " fill="#000000"/><text fill="#000000" font-family="sans-serif" font-size="14" lengthAdjust="spacing" textLength="74" x="174.25" y="129.6559">Dashboard</text><text fill="#000000" font-family="sans-serif" font-size="10" lengthAdjust="spacing" textLength="100" x="161.25" y="144.4479">frc.robot.subsystems</text><line style="stroke:#181818;stroke-width:0.5;" x1="8" x2="382" y1="152.3779" y2="152.3779"/><ellipse cx="18" cy="167.4119" fill="#84BE84" rx="3" ry="3" style="stroke:#038048;stroke-width:1.0;"/><text fill="#000000" font-family="sans-serif" font-size="14" lengthAdjust="spacing" text-decoration="underline" textLength="170" x="27" y="171.3438">getInstance(): Dashboard</text><ellipse cx="18" cy="186.4798" fill="#84BE84" rx="3" ry="3" style="stroke:#038048;stroke-width:1.0;"/><text fill="#000000" font-family="sans-serif" font-size="14" lengthAdjust="spacing" textLength="99" x="27" y="190.4118">periodic(): void</text><ellipse cx="18" cy="205.5477" fill="#84BE84" rx="3" ry="3" style="stroke:#038048;stroke-width:1.0;"/><text fill="#000000" font-family="sans-serif" font-size="14" lengthAdjust="spacing" textLength="144" x="27" y="209.4797">clearTrajectory(): void</text><ellipse cx="18" cy="224.6156" fill="#84BE84" rx="3" ry="3" style="stroke:#038048;stroke-width:1.0;"/><text fill="#000000" font-family="sans-serif" font-size="14" lengthAdjust="spacing" textLength="350" x="27" y="228.5476">getAutoChooser(): SendableChooser&lt;AutonChoices&gt;</text><ellipse cx="18" cy="243.6835" fill="#84BE84" rx="3" ry="3" style="stroke:#038048;stroke-width:1.0;"/><text fill="#000000" font-family="sans-serif" font-size="14" lengthAdjust="spacing" textLength="312" x="27" y="247.6155">getDelayChooser(): SendableChooser&lt;Double&gt;</text><ellipse cx="18" cy="262.7514" fill="#84BE84" rx="3" ry="3" style="stroke:#038048;stroke-width:1.0;"/><text fill="#000000" font-family="sans-serif" font-size="14" lengthAdjust="spacing" textLength="198" x="27" y="266.6834">setHubAligned(boolean): void</text><ellipse cx="18" cy="281.8194" fill="#84BE84" rx="3" ry="3" style="stroke:#038048;stroke-width:1.0;"/><text fill="#000000" font-family="sans-serif" font-size="14" lengthAdjust="spacing" textLength="225" x="27" y="285.7513">isManualModeEnabled(): boolean</text><ellipse cx="18" cy="300.8873" fill="#84BE84" rx="3" ry="3" style="stroke:#038048;stroke-width:1.0;"/><text fill="#000000" font-family="sans-serif" font-size="14" lengthAdjust="spacing" textLength="218" x="27" y="304.8193">getManualShooterRPM(): double</text><ellipse cx="18" cy="319.9552" fill="#84BE84" rx="3" ry="3" style="stroke:#038048;stroke-width:1.0;"/><text fill="#000000" font-family="sans-serif" font-size="14" lengthAdjust="spacing" textLength="262" x="27" y="323.8872">getManualShooterHoodAngle(): double</text><ellipse cx="18" cy="339.0231" fill="#84BE84" rx="3" ry="3" style="stroke:#038048;stroke-width:1.0;"/><text fill="#000000" font-family="sans-serif" font-size="14" lengthAdjust="spacing" textLength="286" x="27" y="342.9551">nudgeManualShooterRPMBackward(): void</text><ellipse cx="18" cy="358.091" fill="#84BE84" rx="3" ry="3" style="stroke:#038048;stroke-width:1.0;"/><text fill="#000000" font-family="sans-serif" font-size="14" lengthAdjust="spacing" textLength="276" x="27" y="362.023">nudgeManualShooterRPMForward(): void</text><ellipse cx="18" cy="377.1589" fill="#84BE84" rx="3" ry="3" style="stroke:#038048;stroke-width:1.0;"/><text fill="#000000" font-family="sans-serif" font-size="14" lengthAdjust="spacing" textLength="211" x="27" y="381.0909">resetManualShooterRPM(): void</text><ellipse cx="18" cy="396.2269" fill="#84BE84" rx="3" ry="3" style="stroke:#038048;stroke-width:1.0;"/><text fill="#000000" font-family="sans-serif" font-size="14" lengthAdjust="spacing" textLength="330" x="27" y="400.1588">nudgeManualShooterHoodAngleBackward(): void</text><ellipse cx="18" cy="415.2948" fill="#84BE84" rx="3" ry="3" style="stroke:#038048;stroke-width:1.0;"/><text fill="#000000" font-family="sans-serif" font-size="14" lengthAdjust="spacing" textLength="320" x="27" y="419.2268">nudgeManualShooterHoodAngleForward(): void</text><ellipse cx="18" cy="434.3627" fill="#84BE84" rx="3" ry="3" style="stroke:#038048;stroke-width:1.0;"/><text fill="#000000" font-family="sans-serif" font-size="14" lengthAdjust="spacing" textLength="255" x="27" y="438.2947">resetManualShooterHoodAngle(): void</text><ellipse cx="18" cy="453.4306" fill="#84BE84" rx="3" ry="3" style="stroke:#038048;stroke-width:1.0;"/><text fill="#000000" font-family="sans-serif" font-size="14" lengthAdjust="spacing" textLength="233" x="27" y="457.3626">getAcquisitionMinWiggle(): double</text><ellipse cx="18" cy="472.4985" fill="#84BE84" rx="3" ry="3" style="stroke:#038048;stroke-width:1.0;"/><text fill="#000000" font-family="sans-serif" font-size="14" lengthAdjust="spacing" textLength="235" x="27" y="476.4305">getAcquisitionMaxWiggle(): double</text></g></a><!--class edu.wpi.first.wpilibj2.command.SubsystemBase--><g id="elem_edu.wpi.first.wpilibj2.command.SubsystemBase"><rect codeLine="25" fill="#F1F1F1" height="42.6879" id="edu.wpi.first.wpilibj2.command.SubsystemBase" rx="2.5" ry="2.5" style="stroke:#181818;stroke-width:0.5;" width="178" x="106" y="7"/><ellipse cx="121" cy="28.344" fill="#A9DCDF" rx="11" ry="11" style="stroke:#181818;stroke-width:1.0;"/><path d="M116.1719,34.094 L119.5156,21.9065 L122.6563,21.9065 L126.0313,34.094 L123.5625,34.094 L122.8281,31.0783 L119.3125,31.0783 L118.5625,34.094 L116.1719,34.094 Z M120.5781,26.0471 L119.8281,29.0471 L122.3438,29.0471 L121.625,26.0471 Q121.4844,25.469 121.3594,24.9221 Q121.2344,24.3596 121.0938,23.7815 Q120.9844,24.3596 120.8438,24.9221 Q120.7031,25.469 120.5781,26.0471 Z " fill="#000000"/><text fill="#000000" font-family="sans-serif" font-size="14" font-style="italic" lengthAdjust="spacing" textLength="95" x="160.5" y="26.9659">SubsystemBase</text><text fill="#000000" font-family="sans-serif" font-size="10" font-style="italic" lengthAdjust="spacing" textLength="146" x="135" y="41.7579">edu.wpi.first.wpilibj2.command</text></g><!--class frc.robot.subsystems.Dashboard.DashboardValue--><a href="Dashboard.DashboardValue.html" target="_top" title="Dashboard.DashboardValue.html" xlink:actuate="onRequest" xlink:href="Dashboard.DashboardValue.html" xlink:show="new" xlink:title="Dashboard.DashboardValue.html" xlink:type="simple"><g id="elem_frc.robot.subsystems.Dashboard.DashboardValue"><rect codeLine="26" fill="#F1F1F1" height="42.6879" id="frc.robot.subsystems.Dashboard.DashboardValue" rx="2.5" ry="2.5" style="stroke:#181818;stroke-width:0.5;" width="221" x="84.5" y="544.53"/><ellipse cx="99.5" cy="565.874" fill="#EB937F" rx="11" ry="11" style="stroke:#181818;stroke-width:1.0;"/><path d="M95.8594,572.374 L95.8594,560.2333 L103.5156,560.2333 L103.5156,562.3583 L98.2344,562.3583 L98.2344,565.0146 L103.25,565.0146 L103.25,567.1396 L98.2344,567.1396 L98.2344,570.249 L103.5156,570.249 L103.5156,572.374 L95.8594,572.374 Z " fill="#000000"/><text fill="#000000" font-family="sans-serif" font-size="14" lengthAdjust="spacing" textLength="189" x="113.5" y="564.4959">Dashboard.DashboardValue</text><text fill="#000000" font-family="sans-serif" font-size="10" lengthAdjust="spacing" textLength="100" x="158" y="579.2879">frc.robot.subsystems</text></g></a><!--reverse link edu.wpi.first.wpilibj2.command.SubsystemBase to frc.robot.subsystems.Dashboard--><g id="link_edu.wpi.first.wpilibj2.command.SubsystemBase_frc.robot.subsystems.Dashboard"><path codeLine="28" d="M195,67.84 C195,82.35 195,85.43 195,109.22 " fill="none" id="edu.wpi.first.wpilibj2.command.SubsystemBase-backto-frc.robot.subsystems.Dashboard" style="stroke:#181818;stroke-width:1.0;"/><polygon fill="none" points="195,49.84,189,67.84,201,67.84,195,49.84" style="stroke:#181818;stroke-width:1.0;"/></g><!--reverse link frc.robot.subsystems.Dashboard to frc.robot.subsystems.Dashboard.DashboardValue--><g id="link_frc.robot.subsystems.Dashboard_frc.robot.subsystems.Dashboard.DashboardValue"><path codeLine="29" d="M195,500.84 C195,524.65 195,529.76 195,544.3 " fill="none" id="frc.robot.subsystems.Dashboard-backto-frc.robot.subsystems.Dashboard.DashboardValue" style="stroke:#181818;stroke-width:1.0;"/><ellipse cx="195" cy="492.84" fill="#FFFFFF" rx="8" ry="8" style="stroke:#181818;stroke-width:1.0;"/><line style="stroke:#181818;stroke-width:1.0;" x1="195" x2="195" y1="500.84" y2="484.84"/><line style="stroke:#181818;stroke-width:1.0;" x1="187" x2="203" y1="492.84" y2="492.84"/></g><text fill="#888888" font-family="sans-serif" font-size="10" lengthAdjust="spacing" textLength="176" x="100" y="602.9079">UMLDoclet 2.1.2, PlantUML 1.2024.3</text><!--SRC=[fLHDRzim3BtlLn051gJ8Qgp1JaKG85qsTC025Ci-3bqFjCJOwcGn4-LsMTl_Fjd9l3Xn6mJpoI8VdvvfFW8020LmM90iKD6C5kWni0V7Zbx4DEH64r2n24kO6x9QjgC5XPnZk8uhYo9mD1JpcyvEtumcA7dAwFLtjuwz7iszIZod718fKrbAe4AE00Mw4ad305TNpNkIXy9UNyDzVMdrt4l0ODGZz3CA7rmyEKMzupDeQXfeVq7Ui3QgIj-osSWeI-W_UxmX5Pkmt0L4yd4P-6tEBEIh_8oSnjJIEZIiqYuUZ28PjGedP77vJEM4otZQg8c_vg9CnzPaZdGlPOxgt8ua8rDq9TefQthdAa9TiQ_XBGKhu2pU5yX_kfnME5tV-ZJiWbcFNMQf2-nAdT4swpcg7tUnuRlTwuI_Pz-DzYJTalUHDf8FKT8K7Q2drPlTGL4_IoCc67PJuxwPx8acRa7nLoVqSMKmJ2LuL677QRE_bZb7eGstaIwJkuL9viPBgDwiIMy6YUAYGAThtpqFILhCjGXoPT5bydzc_OgsfF_t_1PXQmMqK-kDi6hI8Hy4muUJapqoQj8zswc_bsLByMfVaejp1FDwdE3BzEE4umuAC4XEay4hkBJeGep2orlo4gUZT_m7]--></g></svg>