<?xml version="1.0" encoding="us-ascii" standalone="no"?><svg xmlns="http://www.w3.org/2000/svg" xmlns:xlink="http://www.w3.org/1999/xlink" contentStyleType="text/css" height="419px" preserveAspectRatio="none" style="width:537px;height:419px;background:#FFFFFF;" version="1.1" viewBox="0 0 537 419" width="537px" zoomAndPan="magnify"><defs/><g><!--class frc.robot.subsystems.DriveTrain--><a href="DriveTrain.html" target="_top" title="DriveTrain.html" xlink:actuate="onRequest" xlink:href="DriveTrain.html" xlink:show="new" xlink:title="DriveTrain.html" xlink:type="simple"><g id="elem_frc.robot.subsystems.DriveTrain"><rect codeLine="5" fill="#F1F1F1" height="279.5029" id="frc.robot.subsystems.DriveTrain" rx="2.5" ry="2.5" style="stroke:#181818;stroke-width:0.5;" width="446" x="78" y="112.706"/><ellipse cx="246.75" cy="134.05" fill="#ADD1B2" rx="11" ry="11" style="stroke:#181818;stroke-width:1.0;"/><path d="M246.2188,140.9719 Q244.4688,140.9719 243.3281,140.2375 Q242.2031,139.4875 241.6406,138.1437 Q241.0938,136.7844 241.0938,134.9875 Q241.0938,132.9562 241.75,131.5031 Q242.4063,130.05 243.6875,129.2687 Q244.9688,128.4875 246.8438,128.4875 Q247.7344,128.4875 248.4063,128.675 Q249.0781,128.8469 249.7656,129.1906 L248.9531,131.2062 Q248.3281,130.8937 247.7813,130.7687 Q247.25,130.6437 246.7656,130.6437 Q245.5938,130.6437 244.8906,131.175 Q244.1875,131.7062 243.8906,132.6594 Q243.5938,133.6125 243.5938,134.8781 Q243.5938,136.8937 244.3125,137.8625 Q245.0313,138.8156 246.625,138.8156 Q247.2188,138.8156 247.8438,138.6594 Q248.4688,138.5031 249.2969,138.1281 L249.2969,140.3469 Q248.5625,140.6594 247.7656,140.8156 Q246.9844,140.9719 246.2188,140.9719 Z " fill="#000000"/><text fill="#000000" font-family="sans-serif" font-size="14" lengthAdjust="spacing" textLength="70" x="282.25" y="132.672">DriveTrain</text><text fill="#000000" font-family="sans-serif" font-size="10" lengthAdjust="spacing" textLength="100" x="267.25" y="147.4639">frc.robot.subsystems</text><line style="stroke:#181818;stroke-width:0.5;" x1="79" x2="523" y1="155.3939" y2="155.3939"/><ellipse cx="89" cy="170.4279" fill="#84BE84" rx="3" ry="3" style="stroke:#038048;stroke-width:1.0;"/><text fill="#000000" font-family="sans-serif" font-size="14" lengthAdjust="spacing" text-decoration="underline" textLength="166" x="98" y="174.3599">getInstance(): DriveTrain</text><ellipse cx="89" cy="189.4958" fill="#84BE84" rx="3" ry="3" style="stroke:#038048;stroke-width:1.0;"/><text fill="#000000" font-family="sans-serif" font-size="14" lengthAdjust="spacing" textLength="372" x="98" y="193.4278">drive(double, double, double, boolean): SwerveRequest</text><ellipse cx="89" cy="208.5637" fill="#84BE84" rx="3" ry="3" style="stroke:#038048;stroke-width:1.0;"/><text fill="#000000" font-family="sans-serif" font-size="14" lengthAdjust="spacing" textLength="113" x="98" y="212.4957">setX(): Command</text><ellipse cx="89" cy="227.6316" fill="#84BE84" rx="3" ry="3" style="stroke:#038048;stroke-width:1.0;"/><text fill="#000000" font-family="sans-serif" font-size="14" lengthAdjust="spacing" textLength="353" x="98" y="231.5636">applyRequest(Supplier&lt;SwerveRequest&gt;): Command</text><ellipse cx="89" cy="246.6996" fill="#84BE84" rx="3" ry="3" style="stroke:#038048;stroke-width:1.0;"/><text fill="#000000" font-family="sans-serif" font-size="14" lengthAdjust="spacing" textLength="256" x="98" y="250.6315">sysIdQuasistatic(Direction): Command</text><ellipse cx="89" cy="265.7675" fill="#84BE84" rx="3" ry="3" style="stroke:#038048;stroke-width:1.0;"/><text fill="#000000" font-family="sans-serif" font-size="14" lengthAdjust="spacing" textLength="239" x="98" y="269.6994">sysIdDynamic(Direction): Command</text><ellipse cx="89" cy="284.8354" fill="#84BE84" rx="3" ry="3" style="stroke:#038048;stroke-width:1.0;"/><text fill="#000000" font-family="sans-serif" font-size="14" lengthAdjust="spacing" textLength="99" x="98" y="288.7674">periodic(): void</text><ellipse cx="89" cy="303.9033" fill="#84BE84" rx="3" ry="3" style="stroke:#038048;stroke-width:1.0;"/><text fill="#000000" font-family="sans-serif" font-size="14" lengthAdjust="spacing" textLength="307" x="98" y="307.8353">addVisionMeasurement(Pose2d, double): void</text><ellipse cx="89" cy="322.9712" fill="#84BE84" rx="3" ry="3" style="stroke:#038048;stroke-width:1.0;"/><text fill="#000000" font-family="sans-serif" font-size="14" lengthAdjust="spacing" textLength="420" x="98" y="326.9032">addVisionMeasurement(Pose2d, double, Matrix&lt;N3, N1&gt;): void</text><ellipse cx="89" cy="342.0391" fill="#84BE84" rx="3" ry="3" style="stroke:#038048;stroke-width:1.0;"/><text fill="#000000" font-family="sans-serif" font-size="14" lengthAdjust="spacing" textLength="93" x="98" y="345.9711">getX(): double</text><ellipse cx="89" cy="361.1071" fill="#84BE84" rx="3" ry="3" style="stroke:#038048;stroke-width:1.0;"/><text fill="#000000" font-family="sans-serif" font-size="14" lengthAdjust="spacing" textLength="93" x="98" y="365.039">getY(): double</text><ellipse cx="89" cy="380.175" fill="#84BE84" rx="3" ry="3" style="stroke:#038048;stroke-width:1.0;"/><text fill="#000000" font-family="sans-serif" font-size="14" lengthAdjust="spacing" textLength="141" x="98" y="384.1069">getRotation(): double</text></g></a><!--class com.ctre.phoenix6.swerve.SwerveDrivetrain--><g id="elem_com.ctre.phoenix6.swerve.SwerveDrivetrain"><rect codeLine="20" fill="#F1F1F1" height="42.6879" id="com.ctre.phoenix6.swerve.SwerveDrivetrain" rx="2.5" ry="2.5" style="stroke:#181818;stroke-width:0.5;" width="310" x="7" y="10.016"/><ellipse cx="22" cy="31.36" fill="#ADD1B2" rx="11" ry="11" style="stroke:#181818;stroke-width:1.0;"/><path d="M21.4688,38.2819 Q19.7188,38.2819 18.5781,37.5475 Q17.4531,36.7975 16.8906,35.4537 Q16.3438,34.0944 16.3438,32.2975 Q16.3438,30.2662 17,28.8131 Q17.6563,27.36 18.9375,26.5787 Q20.2188,25.7975 22.0938,25.7975 Q22.9844,25.7975 23.6563,25.985 Q24.3281,26.1569 25.0156,26.5006 L24.2031,28.5162 Q23.5781,28.2037 23.0313,28.0787 Q22.5,27.9537 22.0156,27.9537 Q20.8438,27.9537 20.1406,28.485 Q19.4375,29.0162 19.1406,29.9694 Q18.8438,30.9225 18.8438,32.1881 Q18.8438,34.2037 19.5625,35.1725 Q20.2813,36.1256 21.875,36.1256 Q22.4688,36.1256 23.0938,35.9694 Q23.7188,35.8131 24.5469,35.4381 L24.5469,37.6569 Q23.8125,37.9694 23.0156,38.1256 Q22.2344,38.2819 21.4688,38.2819 Z " fill="#000000"/><text fill="#000000" font-family="sans-serif" font-size="14" lengthAdjust="spacing" textLength="115" x="41.5" y="29.982">SwerveDrivetrain</text><text fill="#000000" font-family="sans-serif" font-size="10" lengthAdjust="spacing" textLength="126" x="36" y="44.7739">com.ctre.phoenix6.swerve</text><rect fill="#FFFFFF" height="18.3441" style="stroke:#181818;stroke-width:1.0;stroke-dasharray:2.0,2.0;" width="150" x="170" y="7.016"/><text fill="#000000" font-family="sans-serif" font-size="12" font-style="italic" lengthAdjust="spacing" textLength="148" x="171" y="20.8441">TalonFX, TalonFX, CANcoder</text></g><!--class edu.wpi.first.wpilibj2.command.Subsystem--><g id="elem_edu.wpi.first.wpilibj2.command.Subsystem"><rect codeLine="21" fill="#F1F1F1" height="42.6879" id="edu.wpi.first.wpilibj2.command.Subsystem" rx="2.5" ry="2.5" style="stroke:#181818;stroke-width:0.5;" width="178" x="352" y="10.016"/><ellipse cx="367" cy="31.36" fill="#B4A7E5" rx="11" ry="11" style="stroke:#181818;stroke-width:1.0;"/><path d="M363.0313,37.86 L363.0313,36.1569 L365.3906,35.8912 L365.3906,27.6881 L363.0313,27.4225 L363.0313,25.7194 L370.1719,25.7194 L370.1719,27.4225 L367.75,27.6881 L367.75,35.8912 L370.1719,36.1569 L370.1719,37.86 L363.0313,37.86 Z " fill="#000000"/><text fill="#000000" font-family="sans-serif" font-size="14" font-style="italic" lengthAdjust="spacing" textLength="66" x="421" y="29.982">Subsystem</text><text fill="#000000" font-family="sans-serif" font-size="10" font-style="italic" lengthAdjust="spacing" textLength="146" x="381" y="44.7739">edu.wpi.first.wpilibj2.command</text></g><!--reverse link com.ctre.phoenix6.swerve.SwerveDrivetrain to frc.robot.subsystems.DriveTrain--><g id="link_com.ctre.phoenix6.swerve.SwerveDrivetrain_frc.robot.subsystems.DriveTrain"><path codeLine="23" d="M184.7244,68.1742 C194.0844,82.9242 197.95,89.016 212.68,112.236 " fill="none" id="com.ctre.phoenix6.swerve.SwerveDrivetrain-backto-frc.robot.subsystems.DriveTrain" style="stroke:#181818;stroke-width:1.0;"/><polygon fill="none" points="175.08,52.976,179.6583,71.389,189.7905,64.9594,175.08,52.976" style="stroke:#181818;stroke-width:1.0;"/></g><!--reverse link edu.wpi.first.wpilibj2.command.Subsystem to frc.robot.subsystems.DriveTrain--><g id="link_edu.wpi.first.wpilibj2.command.Subsystem_frc.robot.subsystems.DriveTrain"><path codeLine="24" d="M418.1343,68.1416 C408.7043,82.8916 404.79,89.016 389.96,112.236 " fill="none" id="edu.wpi.first.wpilibj2.command.Subsystem-backto-frc.robot.subsystems.DriveTrain" style="stroke:#181818;stroke-width:1.0;stroke-dasharray:7.0,7.0;"/><polygon fill="none" points="427.83,52.976,413.0791,64.9097,423.1895,71.3735,427.83,52.976" style="stroke:#181818;stroke-width:1.0;"/></g><text fill="#888888" font-family="sans-serif" font-size="10" lengthAdjust="spacing" textLength="176" x="173.5" y="408.8989">UMLDoclet 2.1.2, PlantUML 1.2024.3</text><!--SRC=[dLHHQzim47xVhpWA0u-wOid67eenZ8P1OGbTqusEhW-oT6uqR9sdazEcNV_xP2UDKozPm_mYwxllFf- -Ena0WD63bILo9HLEiP9EUd9WoUAh48QPqGXOLdu1kS52SnyjqSyem2sk2iaC1mcRUpmUl4z7pipnmabZVzWL-3RDdHAEClA2wumNxB7a0v0CsmAYau2hgsuZPhuihg_XeVrkypombzweHpYyGNzgmyugZDuSGvUqvXxg1eiqrLc1CVJNZAX0QKFkz1RT7C_nLutik_JWscKZVK9bAQtk0hAgYiMA7athi3FeacSgwRQySDfJ_QMMR9QdY4R6eVA6x4xsQ17wzXApGcT81rO8pibiLghrDyCXROoIQuSbMX-T4UDGFndnFpanZALtvYwPl8jXCaZ_qhXPMRUaFyE_xy3FgV64R2_yk7tcbcQtJVUzoLDK2kKTYcf6QCtT1y4jkPs-NK7H5qmkP47sqsKCwvUJZnD56btQLcIiHvU7-xHPrTD4RvI3kXQtbH6vSUoRjy9aFuT2BPlO5lLlYbYhhgpOzmYG_3uwUkc-jPBx5X0KXTXBKM5Z3-H4pV9r_7b4gWX_eQ4OY64CPuMqFg3mUewEswx_0G00]--></g></svg>