<?xml version="1.0" encoding="us-ascii" standalone="no"?><svg xmlns="http://www.w3.org/2000/svg" xmlns:xlink="http://www.w3.org/1999/xlink" contentStyleType="text/css" height="771px" preserveAspectRatio="none" style="width:537px;height:771px;background:#FFFFFF;" version="1.1" viewBox="0 0 537 771" width="537px" zoomAndPan="magnify"><defs/><g><!--class frc.robot.subsystems.DriveTrain--><a href="DriveTrain.html" target="_top" title="DriveTrain.html" xlink:actuate="onRequest" xlink:href="DriveTrain.html" xlink:show="new" xlink:title="DriveTrain.html" xlink:type="simple"><g id="elem_frc.robot.subsystems.DriveTrain"><rect codeLine="5" fill="#F1F1F1" height="630.7254" id="frc.robot.subsystems.DriveTrain" rx="2.5" ry="2.5" style="stroke:#181818;stroke-width:0.5;" width="446" x="78" y="112.696"/><ellipse cx="246.75" cy="134.04" fill="#ADD1B2" rx="11" ry="11" style="stroke:#181818;stroke-width:1.0;"/><path d="M246.2188,140.9619 Q244.4688,140.9619 243.3281,140.2275 Q242.2031,139.4775 241.6406,138.1337 Q241.0938,136.7744 241.0938,134.9775 Q241.0938,132.9462 241.75,131.4931 Q242.4063,130.04 243.6875,129.2587 Q244.9688,128.4775 246.8438,128.4775 Q247.7344,128.4775 248.4063,128.665 Q249.0781,128.8369 249.7656,129.1806 L248.9531,131.1962 Q248.3281,130.8837 247.7813,130.7587 Q247.25,130.6337 246.7656,130.6337 Q245.5938,130.6337 244.8906,131.165 Q244.1875,131.6962 243.8906,132.6494 Q243.5938,133.6025 243.5938,134.8681 Q243.5938,136.8837 244.3125,137.8525 Q245.0313,138.8056 246.625,138.8056 Q247.2188,138.8056 247.8438,138.6494 Q248.4688,138.4931 249.2969,138.1181 L249.2969,140.3369 Q248.5625,140.6494 247.7656,140.8056 Q246.9844,140.9619 246.2188,140.9619 Z " fill="#000000"/><text fill="#000000" font-family="sans-serif" font-size="14" lengthAdjust="spacing" textLength="70" x="282.25" y="132.662">DriveTrain</text><text fill="#000000" font-family="sans-serif" font-size="10" lengthAdjust="spacing" textLength="100" x="267.25" y="147.4539">frc.robot.subsystems</text><line style="stroke:#181818;stroke-width:0.5;" x1="79" x2="523" y1="155.3839" y2="155.3839"/><rect fill="none" height="6" style="stroke:#C82930;stroke-width:1.0;" width="6" x="86" y="167.4179"/><text fill="#000000" font-family="sans-serif" font-size="14" lengthAdjust="spacing" text-decoration="underline" textLength="181" x="98" y="174.3499">SIM_LOOP_PERIOD: double</text><rect fill="none" height="6" style="stroke:#C82930;stroke-width:1.0;" width="6" x="86" y="186.4858"/><text fill="#000000" font-family="sans-serif" font-size="14" lengthAdjust="spacing" text-decoration="underline" textLength="357" x="98" y="193.4178">BLUE_ALLIANCE_PERSPECTIVE_ROTATION: Rotation2d</text><rect fill="none" height="6" style="stroke:#C82930;stroke-width:1.0;" width="6" x="86" y="205.5537"/><text fill="#000000" font-family="sans-serif" font-size="14" lengthAdjust="spacing" text-decoration="underline" textLength="350" x="98" y="212.4857">RED_ALLIANCE_PERSPECTIVE_ROTATION: Rotation2d</text><rect fill="none" height="6" style="stroke:#C82930;stroke-width:1.0;" width="6" x="86" y="224.6216"/><text fill="#000000" font-family="sans-serif" font-size="14" lengthAdjust="spacing" text-decoration="underline" textLength="135" x="98" y="231.5536">instance: DriveTrain</text><rect fill="none" height="6" style="stroke:#C82930;stroke-width:1.0;" width="6" x="86" y="243.6896"/><text fill="#000000" font-family="sans-serif" font-size="14" lengthAdjust="spacing" textLength="256" x="98" y="250.6215">fieldCentricDriveRequest: FieldCentric</text><rect fill="none" height="6" style="stroke:#C82930;stroke-width:1.0;" width="6" x="86" y="262.7575"/><text fill="#000000" font-family="sans-serif" font-size="14" lengthAdjust="spacing" textLength="269" x="98" y="269.6894">robotCentricDriveRequest: RobotCentric</text><rect fill="none" height="6" style="stroke:#C82930;stroke-width:1.0;" width="6" x="86" y="281.8254"/><text fill="#000000" font-family="sans-serif" font-size="14" lengthAdjust="spacing" textLength="222" x="98" y="288.7574">brakeRequest: SwerveDriveBrake</text><rect fill="none" height="6" style="stroke:#C82930;stroke-width:1.0;" width="6" x="86" y="300.8933"/><text fill="#000000" font-family="sans-serif" font-size="14" lengthAdjust="spacing" textLength="352" x="98" y="307.8253">translationCharacterization: SysIdSwerveTranslation</text><rect fill="none" height="6" style="stroke:#C82930;stroke-width:1.0;" width="6" x="86" y="319.9612"/><text fill="#000000" font-family="sans-serif" font-size="14" lengthAdjust="spacing" textLength="310" x="98" y="326.8932">steerCharacterization: SysIdSwerveSteerGains</text><rect fill="none" height="6" style="stroke:#C82930;stroke-width:1.0;" width="6" x="86" y="339.0291"/><text fill="#000000" font-family="sans-serif" font-size="14" lengthAdjust="spacing" textLength="312" x="98" y="345.9611">rotationCharacterization: SysIdSwerveRotation</text><rect fill="none" height="6" style="stroke:#C82930;stroke-width:1.0;" width="6" x="86" y="358.0971"/><text fill="#000000" font-family="sans-serif" font-size="14" lengthAdjust="spacing" textLength="259" x="98" y="365.029">sysIdRoutineTranslation: SysIdRoutine</text><rect fill="none" height="6" style="stroke:#C82930;stroke-width:1.0;" width="6" x="86" y="377.165"/><text fill="#000000" font-family="sans-serif" font-size="14" lengthAdjust="spacing" textLength="237" x="98" y="384.0969">sysIdRoutineToApply: SysIdRoutine</text><rect fill="none" height="6" style="stroke:#C82930;stroke-width:1.0;" width="6" x="86" y="396.2329"/><text fill="#000000" font-family="sans-serif" font-size="14" lengthAdjust="spacing" textLength="218" x="98" y="403.1649">sysIdRoutineSteer: SysIdRoutine</text><rect fill="none" height="6" style="stroke:#C82930;stroke-width:1.0;" width="6" x="86" y="415.3008"/><text fill="#000000" font-family="sans-serif" font-size="14" lengthAdjust="spacing" textLength="239" x="98" y="422.2328">sysIdRoutineRotation: SysIdRoutine</text><rect fill="none" height="6" style="stroke:#C82930;stroke-width:1.0;" width="6" x="86" y="434.3687"/><text fill="#000000" font-family="sans-serif" font-size="14" lengthAdjust="spacing" textLength="134" x="98" y="441.3007">simNotifier: Notifier</text><rect fill="none" height="6" style="stroke:#C82930;stroke-width:1.0;" width="6" x="86" y="453.4366"/><text fill="#000000" font-family="sans-serif" font-size="14" lengthAdjust="spacing" textLength="137" x="98" y="460.3686">lastSimTime: double</text><rect fill="none" height="6" style="stroke:#C82930;stroke-width:1.0;" width="6" x="86" y="472.5046"/><text fill="#000000" font-family="sans-serif" font-size="14" lengthAdjust="spacing" textLength="276" x="98" y="479.4365">hasAppliedOperatorPerspective: boolean</text><line style="stroke:#181818;stroke-width:0.5;" x1="79" x2="523" y1="487.5385" y2="487.5385"/><ellipse cx="89" cy="502.5725" fill="#84BE84" rx="3" ry="3" style="stroke:#038048;stroke-width:1.0;"/><text fill="#000000" font-family="sans-serif" font-size="14" lengthAdjust="spacing" text-decoration="underline" textLength="166" x="98" y="506.5045">getInstance(): DriveTrain</text><ellipse cx="89" cy="521.6404" fill="#84BE84" rx="3" ry="3" style="stroke:#038048;stroke-width:1.0;"/><text fill="#000000" font-family="sans-serif" font-size="14" lengthAdjust="spacing" textLength="372" x="98" y="525.5724">drive(double, double, double, boolean): SwerveRequest</text><ellipse cx="89" cy="540.7083" fill="#84BE84" rx="3" ry="3" style="stroke:#038048;stroke-width:1.0;"/><text fill="#000000" font-family="sans-serif" font-size="14" lengthAdjust="spacing" textLength="113" x="98" y="544.6403">setX(): Command</text><ellipse cx="89" cy="559.7762" fill="#84BE84" rx="3" ry="3" style="stroke:#038048;stroke-width:1.0;"/><text fill="#000000" font-family="sans-serif" font-size="14" lengthAdjust="spacing" textLength="353" x="98" y="563.7082">applyRequest(Supplier&lt;SwerveRequest&gt;): Command</text><ellipse cx="89" cy="578.8441" fill="#84BE84" rx="3" ry="3" style="stroke:#038048;stroke-width:1.0;"/><text fill="#000000" font-family="sans-serif" font-size="14" lengthAdjust="spacing" textLength="256" x="98" y="582.7761">sysIdQuasistatic(Direction): Command</text><ellipse cx="89" cy="597.9121" fill="#84BE84" rx="3" ry="3" style="stroke:#038048;stroke-width:1.0;"/><text fill="#000000" font-family="sans-serif" font-size="14" lengthAdjust="spacing" textLength="239" x="98" y="601.844">sysIdDynamic(Direction): Command</text><ellipse cx="89" cy="616.98" fill="#84BE84" rx="3" ry="3" style="stroke:#038048;stroke-width:1.0;"/><text fill="#000000" font-family="sans-serif" font-size="14" lengthAdjust="spacing" textLength="99" x="98" y="620.912">periodic(): void</text><rect fill="#F24D5C" height="6" style="stroke:#C82930;stroke-width:1.0;" width="6" x="86" y="633.0479"/><text fill="#000000" font-family="sans-serif" font-size="14" lengthAdjust="spacing" textLength="148" x="98" y="639.9799">startSimThread(): void</text><ellipse cx="89" cy="655.1158" fill="#84BE84" rx="3" ry="3" style="stroke:#038048;stroke-width:1.0;"/><text fill="#000000" font-family="sans-serif" font-size="14" lengthAdjust="spacing" textLength="307" x="98" y="659.0478">addVisionMeasurement(Pose2d, double): void</text><ellipse cx="89" cy="674.1837" fill="#84BE84" rx="3" ry="3" style="stroke:#038048;stroke-width:1.0;"/><text fill="#000000" font-family="sans-serif" font-size="14" lengthAdjust="spacing" textLength="420" x="98" y="678.1157">addVisionMeasurement(Pose2d, double, Matrix&lt;N3, N1&gt;): void</text><ellipse cx="89" cy="693.2516" fill="#84BE84" rx="3" ry="3" style="stroke:#038048;stroke-width:1.0;"/><text fill="#000000" font-family="sans-serif" font-size="14" lengthAdjust="spacing" textLength="93" x="98" y="697.1836">getX(): double</text><ellipse cx="89" cy="712.3196" fill="#84BE84" rx="3" ry="3" style="stroke:#038048;stroke-width:1.0;"/><text fill="#000000" font-family="sans-serif" font-size="14" lengthAdjust="spacing" textLength="93" x="98" y="716.2515">getY(): double</text><ellipse cx="89" cy="731.3875" fill="#84BE84" rx="3" ry="3" style="stroke:#038048;stroke-width:1.0;"/><text fill="#000000" font-family="sans-serif" font-size="14" lengthAdjust="spacing" textLength="141" x="98" y="735.3195">getRotation(): double</text></g></a><!--class com.ctre.phoenix6.swerve.SwerveDrivetrain--><g id="elem_com.ctre.phoenix6.swerve.SwerveDrivetrain"><rect codeLine="38" fill="#F1F1F1" height="42.6879" id="com.ctre.phoenix6.swerve.SwerveDrivetrain" rx="2.5" ry="2.5" style="stroke:#181818;stroke-width:0.5;" width="310" x="7" y="10.016"/><ellipse cx="22" cy="31.36" fill="#ADD1B2" rx="11" ry="11" style="stroke:#181818;stroke-width:1.0;"/><path d="M21.4688,38.2819 Q19.7188,38.2819 18.5781,37.5475 Q17.4531,36.7975 16.8906,35.4537 Q16.3438,34.0944 16.3438,32.2975 Q16.3438,30.2662 17,28.8131 Q17.6563,27.36 18.9375,26.5787 Q20.2188,25.7975 22.0938,25.7975 Q22.9844,25.7975 23.6563,25.985 Q24.3281,26.1569 25.0156,26.5006 L24.2031,28.5162 Q23.5781,28.2037 23.0313,28.0787 Q22.5,27.9537 22.0156,27.9537 Q20.8438,27.9537 20.1406,28.485 Q19.4375,29.0162 19.1406,29.9694 Q18.8438,30.9225 18.8438,32.1881 Q18.8438,34.2037 19.5625,35.1725 Q20.2813,36.1256 21.875,36.1256 Q22.4688,36.1256 23.0938,35.9694 Q23.7188,35.8131 24.5469,35.4381 L24.5469,37.6569 Q23.8125,37.9694 23.0156,38.1256 Q22.2344,38.2819 21.4688,38.2819 Z " fill="#000000"/><text fill="#000000" font-family="sans-serif" font-size="14" lengthAdjust="spacing" textLength="115" x="41.5" y="29.982">SwerveDrivetrain</text><text fill="#000000" font-family="sans-serif" font-size="10" lengthAdjust="spacing" textLength="126" x="36" y="44.7739">com.ctre.phoenix6.swerve</text><rect fill="#FFFFFF" height="18.3441" style="stroke:#181818;stroke-width:1.0;stroke-dasharray:2.0,2.0;" width="150" x="170" y="7.016"/><text fill="#000000" font-family="sans-serif" font-size="12" font-style="italic" lengthAdjust="spacing" textLength="148" x="171" y="20.8441">TalonFX, TalonFX, CANcoder</text></g><!--class edu.wpi.first.wpilibj2.command.Subsystem--><g id="elem_edu.wpi.first.wpilibj2.command.Subsystem"><rect codeLine="39" fill="#F1F1F1" height="42.6879" id="edu.wpi.first.wpilibj2.command.Subsystem" rx="2.5" ry="2.5" style="stroke:#181818;stroke-width:0.5;" width="178" x="352" y="10.016"/><ellipse cx="367" cy="31.36" fill="#B4A7E5" rx="11" ry="11" style="stroke:#181818;stroke-width:1.0;"/><path d="M363.0313,37.86 L363.0313,36.1569 L365.3906,35.8912 L365.3906,27.6881 L363.0313,27.4225 L363.0313,25.7194 L370.1719,25.7194 L370.1719,27.4225 L367.75,27.6881 L367.75,35.8912 L370.1719,36.1569 L370.1719,37.86 L363.0313,37.86 Z " fill="#000000"/><text fill="#000000" font-family="sans-serif" font-size="14" font-style="italic" lengthAdjust="spacing" textLength="66" x="421" y="29.982">Subsystem</text><text fill="#000000" font-family="sans-serif" font-size="10" font-style="italic" lengthAdjust="spacing" textLength="146" x="381" y="44.7739">edu.wpi.first.wpilibj2.command</text></g><!--reverse link com.ctre.phoenix6.swerve.SwerveDrivetrain to frc.robot.subsystems.DriveTrain--><g id="link_com.ctre.phoenix6.swerve.SwerveDrivetrain_frc.robot.subsystems.DriveTrain"><path codeLine="41" d="M175.262,70.0029 C180.262,84.1929 181.55,87.886 190.16,112.316 " fill="none" id="com.ctre.phoenix6.swerve.SwerveDrivetrain-backto-frc.robot.subsystems.DriveTrain" style="stroke:#181818;stroke-width:1.0;"/><polygon fill="none" points="169.28,53.026,169.603,71.9969,180.921,68.0089,169.28,53.026" style="stroke:#181818;stroke-width:1.0;"/></g><!--reverse link edu.wpi.first.wpilibj2.command.Subsystem to frc.robot.subsystems.DriveTrain--><g id="link_edu.wpi.first.wpilibj2.command.Subsystem_frc.robot.subsystems.DriveTrain"><path codeLine="42" d="M427.6455,69.9879 C422.6055,84.1779 421.31,87.886 412.64,112.316 " fill="none" id="edu.wpi.first.wpilibj2.command.Subsystem-backto-frc.robot.subsystems.DriveTrain" style="stroke:#181818;stroke-width:1.0;stroke-dasharray:7.0,7.0;"/><polygon fill="none" points="433.67,53.026,421.9915,67.9797,433.2994,71.9961,433.67,53.026" style="stroke:#181818;stroke-width:1.0;"/></g><text fill="#888888" font-family="sans-serif" font-size="10" lengthAdjust="spacing" textLength="176" x="173.5" y="760.1114">UMLDoclet 2.1.2, PlantUML 1.2024.3</text><!--SRC=[fLNRRXen47tlLrYHAX41LaEhFY24H81KAt4ha2XL6Y5Z3rctk_RMzfAGDFzUsopPBPS4jRpWdNFcU6Oy7YE4a0Q318b19uJ211AYY94A2IdWdOLHo1aWY1EpGWiE4TFRrXXCAAtPssb4j4Od3SqVeNxsgTbHV0bJHRZuBZBZX-P2KQpaN1giqxbUQGEnFa54etq0pYNGpKt-WKCJHxUtwCdlwtvFsX33wJEgJeB-h3SSZcQZxZWOTkg8oNGUmHxcUU-oEslrUa5hqEuw-cJKRK-3g-viF9osfi5mK4TZwTXIrDWUWN6tyr_-NDYbe517UMeljAglU1k4KPnwV0o_Kj2cZYuAICxtnTlB7nUGd3zNv6VEcTo3MeBtEtT0pZEA21tvBDgXxH1gGF57_stTLZfWQzzfpikTxJ62UjLjuXXVREQwc8fvUxzDQGkREN0iKyD5CPhCAmCEq6KhIQBLCLGVy374JO07kJmUICFjELkvpIg7xMqo4nvFUGmxJLmDYNO1Ss331Foj7O7I2L1Z3x2Evb96GCHkpvNlm0HPsvLEzpPUcJbRQRrZ1Mt_PzAdcvR9EYXtjqFbsactPHmJaVTzcRWAP_JI9FNXgyPVAirzVhwcNrEY-JgBKeShbwWK1zcTbHrhRp5juRXabcN1fUIisBL4-Tg72WZRmSk4iIkkhMmVY4uLnFPkbKPIGurj2lKlFXNK9_QEFZG67ojeSDRSqRZBIhlL3Sx-xO1zquHRyFF-aLsO0cPhS5CPOseKu2IK8FZ3PwmzsG_lGo3U5cnCIIJ5nNK5lIpQhG6L35JJHyI5lUuB-nmLezey28LmWANuFk5umPKsRXNn-OyQfkj3za6zJi4lgbafZaq1DNvNgsyzLrxos02i8iP7AL9mvK4BATtVPR_NaJIoZtWDd-5Q1OqY8eorelTBEmtygVy1]--></g></svg>