<?xml version="1.0" encoding="us-ascii" standalone="no"?><svg xmlns="http://www.w3.org/2000/svg" xmlns:xlink="http://www.w3.org/1999/xlink" contentStyleType="text/css" height="405px" preserveAspectRatio="none" style="width:295px;height:405px;background:#FFFFFF;" version="1.1" viewBox="0 0 295 405" width="295px" zoomAndPan="magnify"><defs/><g><!--class frc.robot.subsystems.Kicker--><a href="Kicker.html" target="_top" title="Kicker.html" xlink:actuate="onRequest" xlink:href="Kicker.html" xlink:show="new" xlink:title="Kicker.html" xlink:type="simple"><g id="elem_frc.robot.subsystems.Kicker"><rect codeLine="5" fill="#F1F1F1" height="268.435" id="frc.robot.subsystems.Kicker" rx="2.5" ry="2.5" style="stroke:#181818;stroke-width:0.5;" width="281" x="7" y="109.68"/><ellipse cx="93.25" cy="131.024" fill="#ADD1B2" rx="11" ry="11" style="stroke:#181818;stroke-width:1.0;"/><path d="M92.7188,137.9458 Q90.9688,137.9458 89.8281,137.2115 Q88.7031,136.4615 88.1406,135.1177 Q87.5938,133.7583 87.5938,131.9615 Q87.5938,129.9302 88.25,128.4771 Q88.9063,127.024 90.1875,126.2427 Q91.4688,125.4615 93.3438,125.4615 Q94.2344,125.4615 94.9063,125.649 Q95.5781,125.8208 96.2656,126.1646 L95.4531,128.1802 Q94.8281,127.8677 94.2813,127.7427 Q93.75,127.6177 93.2656,127.6177 Q92.0938,127.6177 91.3906,128.149 Q90.6875,128.6802 90.3906,129.6333 Q90.0938,130.5865 90.0938,131.8521 Q90.0938,133.8677 90.8125,134.8365 Q91.5313,135.7896 93.125,135.7896 Q93.7188,135.7896 94.3438,135.6333 Q94.9688,135.4771 95.7969,135.1021 L95.7969,137.3208 Q95.0625,137.6333 94.2656,137.7896 Q93.4844,137.9458 92.7188,137.9458 Z " fill="#000000"/><text fill="#000000" font-family="sans-serif" font-size="14" lengthAdjust="spacing" textLength="41" x="143.25" y="129.6459">Kicker</text><text fill="#000000" font-family="sans-serif" font-size="10" lengthAdjust="spacing" textLength="100" x="113.75" y="144.4379">frc.robot.subsystems</text><line style="stroke:#181818;stroke-width:0.5;" x1="8" x2="287" y1="152.3679" y2="152.3679"/><rect fill="none" height="6" style="stroke:#C82930;stroke-width:1.0;" width="6" x="15" y="164.4019"/><text fill="#000000" font-family="sans-serif" font-size="14" lengthAdjust="spacing" textLength="114" x="27" y="171.3338">motor: SparkMax</text><rect fill="none" height="6" style="stroke:#C82930;stroke-width:1.0;" width="6" x="15" y="183.4698"/><text fill="#000000" font-family="sans-serif" font-size="14" lengthAdjust="spacing" textLength="255" x="27" y="190.4018">controller: SparkClosedLoopController</text><rect fill="none" height="6" style="stroke:#C82930;stroke-width:1.0;" width="6" x="15" y="202.5377"/><text fill="#000000" font-family="sans-serif" font-size="14" lengthAdjust="spacing" textLength="171" x="27" y="209.4697">encoder: RelativeEncoder</text><rect fill="none" height="6" style="stroke:#C82930;stroke-width:1.0;" width="6" x="15" y="221.6056"/><text fill="#000000" font-family="sans-serif" font-size="14" lengthAdjust="spacing" text-decoration="underline" textLength="106" x="27" y="228.5376">instance: Kicker</text><line style="stroke:#181818;stroke-width:0.5;" x1="8" x2="287" y1="236.6396" y2="236.6396"/><ellipse cx="18" cy="251.6735" fill="#84BE84" rx="3" ry="3" style="stroke:#038048;stroke-width:1.0;"/><text fill="#000000" font-family="sans-serif" font-size="14" lengthAdjust="spacing" text-decoration="underline" textLength="137" x="27" y="255.6055">getInstance(): Kicker</text><ellipse cx="18" cy="270.7414" fill="#84BE84" rx="3" ry="3" style="stroke:#038048;stroke-width:1.0;"/><text fill="#000000" font-family="sans-serif" font-size="14" lengthAdjust="spacing" textLength="75" x="27" y="274.6734">start(): void</text><ellipse cx="18" cy="289.8094" fill="#84BE84" rx="3" ry="3" style="stroke:#038048;stroke-width:1.0;"/><text fill="#000000" font-family="sans-serif" font-size="14" lengthAdjust="spacing" textLength="94" x="27" y="293.7413">reverse(): void</text><ellipse cx="18" cy="308.8773" fill="#84BE84" rx="3" ry="3" style="stroke:#038048;stroke-width:1.0;"/><text fill="#000000" font-family="sans-serif" font-size="14" lengthAdjust="spacing" textLength="73" x="27" y="312.8093">stop(): void</text><ellipse cx="18" cy="327.9452" fill="#84BE84" rx="3" ry="3" style="stroke:#038048;stroke-width:1.0;"/><text fill="#000000" font-family="sans-serif" font-size="14" lengthAdjust="spacing" textLength="115" x="27" y="331.8772">getRPM(): double</text><ellipse cx="18" cy="347.0131" fill="#84BE84" rx="3" ry="3" style="stroke:#038048;stroke-width:1.0;"/><text fill="#000000" font-family="sans-serif" font-size="14" lengthAdjust="spacing" textLength="159" x="27" y="350.9451">getTargetRPM(): double</text><ellipse cx="18" cy="366.081" fill="#84BE84" rx="3" ry="3" style="stroke:#038048;stroke-width:1.0;"/><text fill="#000000" font-family="sans-serif" font-size="14" lengthAdjust="spacing" textLength="169" x="27" y="370.013">isAtTargetRPM(): boolean</text></g></a><!--class edu.wpi.first.wpilibj2.command.SubsystemBase--><g id="elem_edu.wpi.first.wpilibj2.command.SubsystemBase"><rect codeLine="19" fill="#F1F1F1" height="42.6879" id="edu.wpi.first.wpilibj2.command.SubsystemBase" rx="2.5" ry="2.5" style="stroke:#181818;stroke-width:0.5;" width="178" x="58.5" y="7"/><ellipse cx="73.5" cy="28.344" fill="#A9DCDF" rx="11" ry="11" style="stroke:#181818;stroke-width:1.0;"/><path d="M68.6719,34.094 L72.0156,21.9065 L75.1563,21.9065 L78.5313,34.094 L76.0625,34.094 L75.3281,31.0783 L71.8125,31.0783 L71.0625,34.094 L68.6719,34.094 Z M73.0781,26.0471 L72.3281,29.0471 L74.8438,29.0471 L74.125,26.0471 Q73.9844,25.469 73.8594,24.9221 Q73.7344,24.3596 73.5938,23.7815 Q73.4844,24.3596 73.3438,24.9221 Q73.2031,25.469 73.0781,26.0471 Z " fill="#000000"/><text fill="#000000" font-family="sans-serif" font-size="14" font-style="italic" lengthAdjust="spacing" textLength="95" x="113" y="26.9659">SubsystemBase</text><text fill="#000000" font-family="sans-serif" font-size="10" font-style="italic" lengthAdjust="spacing" textLength="146" x="87.5" y="41.7579">edu.wpi.first.wpilibj2.command</text></g><!--reverse link edu.wpi.first.wpilibj2.command.SubsystemBase to frc.robot.subsystems.Kicker--><g id="link_edu.wpi.first.wpilibj2.command.SubsystemBase_frc.robot.subsystems.Kicker"><path codeLine="21" d="M147.5,67.82 C147.5,82.64 147.5,86.1 147.5,109.36 " fill="none" id="edu.wpi.first.wpilibj2.command.SubsystemBase-backto-frc.robot.subsystems.Kicker" style="stroke:#181818;stroke-width:1.0;"/><polygon fill="none" points="147.5,49.82,141.5,67.82,153.5,67.82,147.5,49.82" style="stroke:#181818;stroke-width:1.0;"/></g><text fill="#888888" font-family="sans-serif" font-size="10" lengthAdjust="spacing" textLength="176" x="52.5" y="394.805">UMLDoclet 2.1.2, PlantUML 1.2024.3</text><!--SRC=[bPDFJm8n4CNlVee9YOa4QOHu8iJ4VmSZ90JqX1owtK6gtSwcCw28V7Uxh8guQc8ldRpVQpl9cm80C0fudI7dsk08SnsqK01F7lSYXfbD4J3BPGbJYoxbxsg6CgCeRtJZD3FKkcnViDCwFhcsvX73dNyNZawcmQX02OdYUS9B5iou1fhX9w3Aup0UbuMQIUOc4rXjtYfMCwFORGT6iU_7ldxU0aDU0Zc77_JS4MFQ8yhFFz7MZjvGMdY7wBJO1LwMmgTZnH9riuQczR7q1ZjGTbMrDEvHhjvT1_MAhn59a08ioAPREU020sCLi51ULUCZmq6_q5EQ9mvto8qEltFBfxk6XCYXzXl7kanI9on16wb4Elg8vqmpVaaMqxbwogsQsi1ILCuc3srbACkqJpSP_srHEpUNNVpd17HVcys_vgYSKFGIHsfAL6ot_Tu56HV_G5krLFiG1avxYIhi5rbOyWVrDm00]--></g></svg>