<?xml version="1.0" encoding="us-ascii" standalone="no"?><svg xmlns="http://www.w3.org/2000/svg" xmlns:xlink="http://www.w3.org/1999/xlink" contentStyleType="text/css" height="443px" preserveAspectRatio="none" style="width:321px;height:443px;background:#FFFFFF;" version="1.1" viewBox="0 0 321 443" width="321px" zoomAndPan="magnify"><defs/><g><!--class frc.robot.subsystems.Shooter.ShooterModule--><a href="Shooter.ShooterModule.html" target="_top" title="Shooter.ShooterModule.html" xlink:actuate="onRequest" xlink:href="Shooter.ShooterModule.html" xlink:show="new" xlink:title="Shooter.ShooterModule.html" xlink:type="simple"><g id="elem_frc.robot.subsystems.Shooter.ShooterModule"><rect codeLine="5" fill="#F1F1F1" height="306.5708" id="frc.robot.subsystems.Shooter.ShooterModule" rx="2.5" ry="2.5" style="stroke:#181818;stroke-width:0.5;" width="307" x="7" y="109.69"/><ellipse cx="76.75" cy="131.034" fill="#ADD1B2" rx="11" ry="11" style="stroke:#181818;stroke-width:1.0;"/><path d="M76.2188,137.9558 Q74.4688,137.9558 73.3281,137.2215 Q72.2031,136.4715 71.6406,135.1277 Q71.0938,133.7683 71.0938,131.9715 Q71.0938,129.9402 71.75,128.4871 Q72.4063,127.034 73.6875,126.2527 Q74.9688,125.4715 76.8438,125.4715 Q77.7344,125.4715 78.4063,125.659 Q79.0781,125.8308 79.7656,126.1746 L78.9531,128.1902 Q78.3281,127.8777 77.7813,127.7527 Q77.25,127.6277 76.7656,127.6277 Q75.5938,127.6277 74.8906,128.159 Q74.1875,128.6902 73.8906,129.6433 Q73.5938,130.5965 73.5938,131.8621 Q73.5938,133.8777 74.3125,134.8465 Q75.0313,135.7996 76.625,135.7996 Q77.2188,135.7996 77.8438,135.6433 Q78.4688,135.4871 79.2969,135.1121 L79.2969,137.3308 Q78.5625,137.6433 77.7656,137.7996 Q76.9844,137.9558 76.2188,137.9558 Z " fill="#000000"/><text fill="#000000" font-family="sans-serif" font-size="14" lengthAdjust="spacing" textLength="159" x="97.25" y="129.6559">Shooter.ShooterModule</text><text fill="#000000" font-family="sans-serif" font-size="10" lengthAdjust="spacing" textLength="100" x="126.75" y="144.4479">frc.robot.subsystems</text><line style="stroke:#181818;stroke-width:0.5;" x1="8" x2="313" y1="152.3779" y2="152.3779"/><rect fill="none" height="6" style="stroke:#C82930;stroke-width:1.0;" width="6" x="15" y="164.4119"/><text fill="#000000" font-family="sans-serif" font-size="14" lengthAdjust="spacing" textLength="134" x="27" y="171.3438">leftMotor: SparkFlex</text><rect fill="none" height="6" style="stroke:#C82930;stroke-width:1.0;" width="6" x="15" y="183.4798"/><text fill="#000000" font-family="sans-serif" font-size="14" lengthAdjust="spacing" textLength="145" x="27" y="190.4118">rightMotor: SparkFlex</text><rect fill="none" height="6" style="stroke:#C82930;stroke-width:1.0;" width="6" x="15" y="202.5477"/><text fill="#000000" font-family="sans-serif" font-size="14" lengthAdjust="spacing" textLength="255" x="27" y="209.4797">controller: SparkClosedLoopController</text><rect fill="none" height="6" style="stroke:#C82930;stroke-width:1.0;" width="6" x="15" y="221.6156"/><text fill="#000000" font-family="sans-serif" font-size="14" lengthAdjust="spacing" textLength="171" x="27" y="228.5476">encoder: RelativeEncoder</text><rect fill="none" height="6" style="stroke:#C82930;stroke-width:1.0;" width="6" x="15" y="240.6835"/><text fill="#000000" font-family="sans-serif" font-size="14" lengthAdjust="spacing" textLength="174" x="27" y="247.6155">translation: Translation2d</text><line style="stroke:#181818;stroke-width:0.5;" x1="8" x2="313" y1="255.7175" y2="255.7175"/><rect fill="#F24D5C" height="6" style="stroke:#C82930;stroke-width:1.0;" width="6" x="15" y="267.7514"/><text fill="#000000" font-family="sans-serif" font-size="14" lengthAdjust="spacing" textLength="281" x="27" y="274.6834">ShooterModule(ShooterModuleConstants)</text><ellipse cx="18" cy="289.8194" fill="#84BE84" rx="3" ry="3" style="stroke:#038048;stroke-width:1.0;"/><text fill="#000000" font-family="sans-serif" font-size="14" lengthAdjust="spacing" textLength="122" x="27" y="293.7513">start(double): void</text><ellipse cx="18" cy="308.8873" fill="#84BE84" rx="3" ry="3" style="stroke:#038048;stroke-width:1.0;"/><text fill="#000000" font-family="sans-serif" font-size="14" lengthAdjust="spacing" textLength="73" x="27" y="312.8193">stop(): void</text><ellipse cx="18" cy="327.9552" fill="#84BE84" rx="3" ry="3" style="stroke:#038048;stroke-width:1.0;"/><text fill="#000000" font-family="sans-serif" font-size="14" lengthAdjust="spacing" textLength="115" x="27" y="331.8872">getRPM(): double</text><ellipse cx="18" cy="347.0231" fill="#84BE84" rx="3" ry="3" style="stroke:#038048;stroke-width:1.0;"/><text fill="#000000" font-family="sans-serif" font-size="14" lengthAdjust="spacing" textLength="159" x="27" y="350.9551">getTargetRPM(): double</text><ellipse cx="18" cy="366.091" fill="#84BE84" rx="3" ry="3" style="stroke:#038048;stroke-width:1.0;"/><text fill="#000000" font-family="sans-serif" font-size="14" lengthAdjust="spacing" textLength="169" x="27" y="370.023">isAtTargetRPM(): boolean</text><ellipse cx="18" cy="385.1589" fill="#84BE84" rx="3" ry="3" style="stroke:#038048;stroke-width:1.0;"/><text fill="#000000" font-family="sans-serif" font-size="14" lengthAdjust="spacing" textLength="235" x="27" y="389.0909">getTargetDistance(Pose2d): double</text><ellipse cx="18" cy="404.2269" fill="#84BE84" rx="3" ry="3" style="stroke:#038048;stroke-width:1.0;"/><text fill="#000000" font-family="sans-serif" font-size="14" lengthAdjust="spacing" textLength="216" x="27" y="408.1588">getTargetAngle(Pose2d): double</text></g></a><!--class frc.robot.subsystems.Shooter--><a href="Shooter.html" target="_top" title="Shooter.html" xlink:actuate="onRequest" xlink:href="Shooter.html" xlink:show="new" xlink:title="Shooter.html" xlink:type="simple"><g id="elem_frc.robot.subsystems.Shooter"><rect codeLine="21" fill="#F1F1F1" height="42.6879" id="frc.robot.subsystems.Shooter" rx="2.5" ry="2.5" style="stroke:#181818;stroke-width:0.5;" width="132" x="94.5" y="7"/><ellipse cx="109.5" cy="28.344" fill="#ADD1B2" rx="11" ry="11" style="stroke:#181818;stroke-width:1.0;"/><path d="M108.9688,35.2658 Q107.2188,35.2658 106.0781,34.5315 Q104.9531,33.7815 104.3906,32.4377 Q103.8438,31.0783 103.8438,29.2815 Q103.8438,27.2502 104.5,25.7971 Q105.1563,24.344 106.4375,23.5627 Q107.7188,22.7815 109.5938,22.7815 Q110.4844,22.7815 111.1563,22.969 Q111.8281,23.1408 112.5156,23.4846 L111.7031,25.5002 Q111.0781,25.1877 110.5313,25.0627 Q110,24.9377 109.5156,24.9377 Q108.3438,24.9377 107.6406,25.469 Q106.9375,26.0002 106.6406,26.9533 Q106.3438,27.9065 106.3438,29.1721 Q106.3438,31.1877 107.0625,32.1565 Q107.7813,33.1096 109.375,33.1096 Q109.9688,33.1096 110.5938,32.9533 Q111.2188,32.7971 112.0469,32.4221 L112.0469,34.6408 Q111.3125,34.9533 110.5156,35.1096 Q109.7344,35.2658 108.9688,35.2658 Z " fill="#000000"/><text fill="#000000" font-family="sans-serif" font-size="14" lengthAdjust="spacing" textLength="52" x="147.5" y="26.9659">Shooter</text><text fill="#000000" font-family="sans-serif" font-size="10" lengthAdjust="spacing" textLength="100" x="123.5" y="41.7579">frc.robot.subsystems</text></g></a><!--reverse link frc.robot.subsystems.Shooter to frc.robot.subsystems.Shooter.ShooterModule--><g id="link_frc.robot.subsystems.Shooter_frc.robot.subsystems.Shooter.ShooterModule"><path codeLine="23" d="M160.5,65.99 C160.5,80.67 160.5,85.87 160.5,109.25 " fill="none" id="frc.robot.subsystems.Shooter-backto-frc.robot.subsystems.Shooter.ShooterModule" style="stroke:#181818;stroke-width:1.0;"/><ellipse cx="160.5" cy="57.99" fill="#FFFFFF" rx="8" ry="8" style="stroke:#181818;stroke-width:1.0;"/><line style="stroke:#181818;stroke-width:1.0;" x1="160.5" x2="160.5" y1="65.99" y2="49.99"/><line style="stroke:#181818;stroke-width:1.0;" x1="152.5" x2="168.5" y1="57.99" y2="57.99"/></g><text fill="#888888" font-family="sans-serif" font-size="10" lengthAdjust="spacing" textLength="176" x="65.5" y="432.9508">UMLDoclet 2.1.2, PlantUML 1.2024.3</text><!--SRC=[fPDDQy9048Rl_HM3K8XOGvMUf0YYxSc0g3rP3vlin8HkTiBEAhMb_xqROurfKw4qbsNVvvslP080m6X1Ymmv5n4kC1T6M3AWIUELmv2a4W6ptEuXJb59_gvcQ1Doya6Fb626rZsdRpZetGqN2P55un_FWEHMuRC-yjjXR2BVK4ZMvst8UxQOSGi4GnFm6xF1QjMe-udDr7eDxuV6YgUhCBO1kV46i723lZmgVAseIJV91HoHjeQKmYyyLiGefqJv-8GgE-g8PE6Ten8stU53ALGEQuJcWf4UmBAwz6NbgKtarMwkA5kXBRTFzeuJZFKaRKE5xG7iA9Nda7BlXxf1Evy5XLw6rSXIcDzvogEw8IHIA7H3XabQj1gXDtElh2yl5HlfZMhsVLnSiVykrTaQbOjJLhiOqkbs_x2ePVUeYyYuJF0KJ2SKAVSBzlsUtx-1cN9VrAbmlKF3RXcyzYS0]--></g></svg>