<?xml version="1.0" encoding="us-ascii" standalone="no"?><svg xmlns="http://www.w3.org/2000/svg" xmlns:xlink="http://www.w3.org/1999/xlink" contentStyleType="text/css" height="346px" preserveAspectRatio="none" style="width:230px;height:346px;background:#FFFFFF;" version="1.1" viewBox="0 0 230 346" width="230px" zoomAndPan="magnify"><defs/><g><!--class frc.robot.subsystems.ShooterHoods--><a href="ShooterHoods.html" target="_top" title="ShooterHoods.html" xlink:actuate="onRequest" xlink:href="ShooterHoods.html" xlink:show="new" xlink:title="ShooterHoods.html" xlink:type="simple"><g id="elem_frc.robot.subsystems.ShooterHoods"><rect codeLine="5" fill="#F1F1F1" height="107.8917" id="frc.robot.subsystems.ShooterHoods" rx="2.5" ry="2.5" style="stroke:#181818;stroke-width:0.5;" width="216" x="7" y="109.69"/><ellipse cx="60.75" cy="131.034" fill="#ADD1B2" rx="11" ry="11" style="stroke:#181818;stroke-width:1.0;"/><path d="M60.2188,137.9558 Q58.4688,137.9558 57.3281,137.2215 Q56.2031,136.4715 55.6406,135.1277 Q55.0938,133.7683 55.0938,131.9715 Q55.0938,129.9402 55.75,128.4871 Q56.4063,127.034 57.6875,126.2527 Q58.9688,125.4715 60.8438,125.4715 Q61.7344,125.4715 62.4063,125.659 Q63.0781,125.8308 63.7656,126.1746 L62.9531,128.1902 Q62.3281,127.8777 61.7813,127.7527 Q61.25,127.6277 60.7656,127.6277 Q59.5938,127.6277 58.8906,128.159 Q58.1875,128.6902 57.8906,129.6433 Q57.5938,130.5965 57.5938,131.8621 Q57.5938,133.8777 58.3125,134.8465 Q59.0313,135.7996 60.625,135.7996 Q61.2188,135.7996 61.8438,135.6433 Q62.4688,135.4871 63.2969,135.1121 L63.2969,137.3308 Q62.5625,137.6433 61.7656,137.7996 Q60.9844,137.9558 60.2188,137.9558 Z " fill="#000000"/><text fill="#000000" font-family="sans-serif" font-size="14" lengthAdjust="spacing" textLength="94" x="84.25" y="129.6559">ShooterHoods</text><text fill="#000000" font-family="sans-serif" font-size="10" lengthAdjust="spacing" textLength="100" x="81.25" y="144.4479">frc.robot.subsystems</text><line style="stroke:#181818;stroke-width:0.5;" x1="8" x2="222" y1="152.3779" y2="152.3779"/><ellipse cx="18" cy="167.4119" fill="#84BE84" rx="3" ry="3" style="stroke:#038048;stroke-width:1.0;"/><text fill="#000000" font-family="sans-serif" font-size="14" lengthAdjust="spacing" text-decoration="underline" textLength="190" x="27" y="171.3438">getInstance(): ShooterHoods</text><ellipse cx="18" cy="186.4798" fill="#84BE84" rx="3" ry="3" style="stroke:#038048;stroke-width:1.0;"/><text fill="#000000" font-family="sans-serif" font-size="14" lengthAdjust="spacing" textLength="141" x="27" y="190.4118">getNearHood(): Hood</text><ellipse cx="18" cy="205.5477" fill="#84BE84" rx="3" ry="3" style="stroke:#038048;stroke-width:1.0;"/><text fill="#000000" font-family="sans-serif" font-size="14" lengthAdjust="spacing" textLength="129" x="27" y="209.4797">getFarHood(): Hood</text></g></a><!--class edu.wpi.first.wpilibj2.command.SubsystemBase--><g id="elem_edu.wpi.first.wpilibj2.command.SubsystemBase"><rect codeLine="11" fill="#F1F1F1" height="42.6879" id="edu.wpi.first.wpilibj2.command.SubsystemBase" rx="2.5" ry="2.5" style="stroke:#181818;stroke-width:0.5;" width="178" x="26" y="7"/><ellipse cx="41" cy="28.344" fill="#A9DCDF" rx="11" ry="11" style="stroke:#181818;stroke-width:1.0;"/><path d="M36.1719,34.094 L39.5156,21.9065 L42.6563,21.9065 L46.0313,34.094 L43.5625,34.094 L42.8281,31.0783 L39.3125,31.0783 L38.5625,34.094 L36.1719,34.094 Z M40.5781,26.0471 L39.8281,29.0471 L42.3438,29.0471 L41.625,26.0471 Q41.4844,25.469 41.3594,24.9221 Q41.2344,24.3596 41.0938,23.7815 Q40.9844,24.3596 40.8438,24.9221 Q40.7031,25.469 40.5781,26.0471 Z " fill="#000000"/><text fill="#000000" font-family="sans-serif" font-size="14" font-style="italic" lengthAdjust="spacing" textLength="95" x="80.5" y="26.9659">SubsystemBase</text><text fill="#000000" font-family="sans-serif" font-size="10" font-style="italic" lengthAdjust="spacing" textLength="146" x="55" y="41.7579">edu.wpi.first.wpilibj2.command</text></g><!--class frc.robot.subsystems.ShooterHoods.Hood--><a href="ShooterHoods.Hood.html" target="_top" title="ShooterHoods.Hood.html" xlink:actuate="onRequest" xlink:href="ShooterHoods.Hood.html" xlink:show="new" xlink:title="ShooterHoods.Hood.html" xlink:type="simple"><g id="elem_frc.robot.subsystems.ShooterHoods.Hood"><rect codeLine="12" fill="#F1F1F1" height="42.6879" id="frc.robot.subsystems.ShooterHoods.Hood" rx="2.5" ry="2.5" style="stroke:#181818;stroke-width:0.5;" width="165" x="32.5" y="277.58"/><ellipse cx="47.5" cy="298.924" fill="#ADD1B2" rx="11" ry="11" style="stroke:#181818;stroke-width:1.0;"/><path d="M46.9688,305.8458 Q45.2188,305.8458 44.0781,305.1115 Q42.9531,304.3615 42.3906,303.0177 Q41.8438,301.6583 41.8438,299.8615 Q41.8438,297.8302 42.5,296.3771 Q43.1563,294.924 44.4375,294.1427 Q45.7188,293.3615 47.5938,293.3615 Q48.4844,293.3615 49.1563,293.549 Q49.8281,293.7208 50.5156,294.0646 L49.7031,296.0802 Q49.0781,295.7677 48.5313,295.6427 Q48,295.5177 47.5156,295.5177 Q46.3438,295.5177 45.6406,296.049 Q44.9375,296.5802 44.6406,297.5333 Q44.3438,298.4865 44.3438,299.7521 Q44.3438,301.7677 45.0625,302.7365 Q45.7813,303.6896 47.375,303.6896 Q47.9688,303.6896 48.5938,303.5333 Q49.2188,303.3771 50.0469,303.0021 L50.0469,305.2208 Q49.3125,305.5333 48.5156,305.6896 Q47.7344,305.8458 46.9688,305.8458 Z " fill="#000000"/><text fill="#000000" font-family="sans-serif" font-size="14" lengthAdjust="spacing" textLength="133" x="61.5" y="297.5459">ShooterHoods.Hood</text><text fill="#000000" font-family="sans-serif" font-size="10" lengthAdjust="spacing" textLength="100" x="78" y="312.3379">frc.robot.subsystems</text></g></a><!--reverse link edu.wpi.first.wpilibj2.command.SubsystemBase to frc.robot.subsystems.ShooterHoods--><g id="link_edu.wpi.first.wpilibj2.command.SubsystemBase_frc.robot.subsystems.ShooterHoods"><path codeLine="14" d="M115,68.17 C115,84.06 115,88.68 115,109.48 " fill="none" id="edu.wpi.first.wpilibj2.command.SubsystemBase-backto-frc.robot.subsystems.ShooterHoods" style="stroke:#181818;stroke-width:1.0;"/><polygon fill="none" points="115,50.17,109,68.17,121,68.17,115,50.17" style="stroke:#181818;stroke-width:1.0;"/></g><!--reverse link frc.robot.subsystems.ShooterHoods to frc.robot.subsystems.ShooterHoods.Hood--><g id="link_frc.robot.subsystems.ShooterHoods_frc.robot.subsystems.ShooterHoods.Hood"><path codeLine="15" d="M115,233.7 C115,254.61 115,261.38 115,277.3 " fill="none" id="frc.robot.subsystems.ShooterHoods-backto-frc.robot.subsystems.ShooterHoods.Hood" style="stroke:#181818;stroke-width:1.0;"/><ellipse cx="115" cy="225.7" fill="#FFFFFF" rx="8" ry="8" style="stroke:#181818;stroke-width:1.0;"/><line style="stroke:#181818;stroke-width:1.0;" x1="115" x2="115" y1="233.7" y2="217.7"/><line style="stroke:#181818;stroke-width:1.0;" x1="107" x2="123" y1="225.7" y2="225.7"/></g><text fill="#888888" font-family="sans-serif" font-size="10" lengthAdjust="spacing" textLength="176" x="20" y="335.9579">UMLDoclet 2.1.2, PlantUML 1.2024.3</text><!--SRC=[hLF1IWCn4Btx5KD1QD46MpoLqeE8AAW8nLFj8PkTTIERPCbCbLhxxoPfBTjQh88vJ3RllNt9lDq0010oM6cGQgbmZBNqafq7womU1HfAdIEWgNaEXSOgfrtK89Skm0bNbII2rf3qEmvwvwDnwHoZltP1yMJNyDcey4fubpaMDCjeJeo6MY09zX6YQGAJINCfIZRLT0gBj7iS2sB9MYtXv1dvneQLLTZk3A3vsaOTHVSe4nf5STuYh_PmorMlCYFsKl7tfh-EVY496rrZFXDljHQ5ziJngTBPIryePuoqUUh_PudOSZuOk8ZrNr9FJhlHnxhEVnN8NmuFmuzkz_36oVVmJt7o6o-n-O0ARG2XI1mytjrUEbM5Uz0NFT4_XOTAMWue7B-Y9-rik_C9]--></g></svg>