<?xml version="1.0" encoding="us-ascii" standalone="no"?><svg xmlns="http://www.w3.org/2000/svg" xmlns:xlink="http://www.w3.org/1999/xlink" contentStyleType="text/css" height="346px" preserveAspectRatio="none" style="width:266px;height:346px;background:#FFFFFF;" version="1.1" viewBox="0 0 266 346" width="266px" zoomAndPan="magnify"><defs/><g><!--class frc.robot.subsystems.Shooter--><a href="Shooter.html" target="_top" title="Shooter.html" xlink:actuate="onRequest" xlink:href="Shooter.html" xlink:show="new" xlink:title="Shooter.html" xlink:type="simple"><g id="elem_frc.robot.subsystems.Shooter"><rect codeLine="5" fill="#F1F1F1" height="107.8917" id="frc.robot.subsystems.Shooter" rx="2.5" ry="2.5" style="stroke:#181818;stroke-width:0.5;" width="252" x="7" y="109.69"/><ellipse cx="78.75" cy="131.034" fill="#ADD1B2" rx="11" ry="11" style="stroke:#181818;stroke-width:1.0;"/><path d="M78.2188,137.9558 Q76.4688,137.9558 75.3281,137.2215 Q74.2031,136.4715 73.6406,135.1277 Q73.0938,133.7683 73.0938,131.9715 Q73.0938,129.9402 73.75,128.4871 Q74.4063,127.034 75.6875,126.2527 Q76.9688,125.4715 78.8438,125.4715 Q79.7344,125.4715 80.4063,125.659 Q81.0781,125.8308 81.7656,126.1746 L80.9531,128.1902 Q80.3281,127.8777 79.7813,127.7527 Q79.25,127.6277 78.7656,127.6277 Q77.5938,127.6277 76.8906,128.159 Q76.1875,128.6902 75.8906,129.6433 Q75.5938,130.5965 75.5938,131.8621 Q75.5938,133.8777 76.3125,134.8465 Q77.0313,135.7996 78.625,135.7996 Q79.2188,135.7996 79.8438,135.6433 Q80.4688,135.4871 81.2969,135.1121 L81.2969,137.3308 Q80.5625,137.6433 79.7656,137.7996 Q78.9844,137.9558 78.2188,137.9558 Z " fill="#000000"/><text fill="#000000" font-family="sans-serif" font-size="14" lengthAdjust="spacing" textLength="52" x="123.25" y="129.6559">Shooter</text><text fill="#000000" font-family="sans-serif" font-size="10" lengthAdjust="spacing" textLength="100" x="99.25" y="144.4479">frc.robot.subsystems</text><line style="stroke:#181818;stroke-width:0.5;" x1="8" x2="258" y1="152.3779" y2="152.3779"/><ellipse cx="18" cy="167.4119" fill="#84BE84" rx="3" ry="3" style="stroke:#038048;stroke-width:1.0;"/><text fill="#000000" font-family="sans-serif" font-size="14" lengthAdjust="spacing" text-decoration="underline" textLength="148" x="27" y="171.3438">getInstance(): Shooter</text><ellipse cx="18" cy="186.4798" fill="#84BE84" rx="3" ry="3" style="stroke:#038048;stroke-width:1.0;"/><text fill="#000000" font-family="sans-serif" font-size="14" lengthAdjust="spacing" textLength="226" x="27" y="190.4118">getNearShooter(): ShooterModule</text><ellipse cx="18" cy="205.5477" fill="#84BE84" rx="3" ry="3" style="stroke:#038048;stroke-width:1.0;"/><text fill="#000000" font-family="sans-serif" font-size="14" lengthAdjust="spacing" textLength="214" x="27" y="209.4797">getFarShooter(): ShooterModule</text></g></a><!--class edu.wpi.first.wpilibj2.command.SubsystemBase--><g id="elem_edu.wpi.first.wpilibj2.command.SubsystemBase"><rect codeLine="11" fill="#F1F1F1" height="42.6879" id="edu.wpi.first.wpilibj2.command.SubsystemBase" rx="2.5" ry="2.5" style="stroke:#181818;stroke-width:0.5;" width="178" x="44" y="7"/><ellipse cx="59" cy="28.344" fill="#A9DCDF" rx="11" ry="11" style="stroke:#181818;stroke-width:1.0;"/><path d="M54.1719,34.094 L57.5156,21.9065 L60.6563,21.9065 L64.0313,34.094 L61.5625,34.094 L60.8281,31.0783 L57.3125,31.0783 L56.5625,34.094 L54.1719,34.094 Z M58.5781,26.0471 L57.8281,29.0471 L60.3438,29.0471 L59.625,26.0471 Q59.4844,25.469 59.3594,24.9221 Q59.2344,24.3596 59.0938,23.7815 Q58.9844,24.3596 58.8438,24.9221 Q58.7031,25.469 58.5781,26.0471 Z " fill="#000000"/><text fill="#000000" font-family="sans-serif" font-size="14" font-style="italic" lengthAdjust="spacing" textLength="95" x="98.5" y="26.9659">SubsystemBase</text><text fill="#000000" font-family="sans-serif" font-size="10" font-style="italic" lengthAdjust="spacing" textLength="146" x="73" y="41.7579">edu.wpi.first.wpilibj2.command</text></g><!--class frc.robot.subsystems.Shooter.ShooterModule--><a href="Shooter.ShooterModule.html" target="_top" title="Shooter.ShooterModule.html" xlink:actuate="onRequest" xlink:href="Shooter.ShooterModule.html" xlink:show="new" xlink:title="Shooter.ShooterModule.html" xlink:type="simple"><g id="elem_frc.robot.subsystems.Shooter.ShooterModule"><rect codeLine="12" fill="#F1F1F1" height="42.6879" id="frc.robot.subsystems.Shooter.ShooterModule" rx="2.5" ry="2.5" style="stroke:#181818;stroke-width:0.5;" width="191" x="37.5" y="277.58"/><ellipse cx="52.5" cy="298.924" fill="#ADD1B2" rx="11" ry="11" style="stroke:#181818;stroke-width:1.0;"/><path d="M51.9688,305.8458 Q50.2188,305.8458 49.0781,305.1115 Q47.9531,304.3615 47.3906,303.0177 Q46.8438,301.6583 46.8438,299.8615 Q46.8438,297.8302 47.5,296.3771 Q48.1563,294.924 49.4375,294.1427 Q50.7188,293.3615 52.5938,293.3615 Q53.4844,293.3615 54.1563,293.549 Q54.8281,293.7208 55.5156,294.0646 L54.7031,296.0802 Q54.0781,295.7677 53.5313,295.6427 Q53,295.5177 52.5156,295.5177 Q51.3438,295.5177 50.6406,296.049 Q49.9375,296.5802 49.6406,297.5333 Q49.3438,298.4865 49.3438,299.7521 Q49.3438,301.7677 50.0625,302.7365 Q50.7813,303.6896 52.375,303.6896 Q52.9688,303.6896 53.5938,303.5333 Q54.2188,303.3771 55.0469,303.0021 L55.0469,305.2208 Q54.3125,305.5333 53.5156,305.6896 Q52.7344,305.8458 51.9688,305.8458 Z " fill="#000000"/><text fill="#000000" font-family="sans-serif" font-size="14" lengthAdjust="spacing" textLength="159" x="66.5" y="297.5459">Shooter.ShooterModule</text><text fill="#000000" font-family="sans-serif" font-size="10" lengthAdjust="spacing" textLength="100" x="96" y="312.3379">frc.robot.subsystems</text></g></a><!--reverse link edu.wpi.first.wpilibj2.command.SubsystemBase to frc.robot.subsystems.Shooter--><g id="link_edu.wpi.first.wpilibj2.command.SubsystemBase_frc.robot.subsystems.Shooter"><path codeLine="14" d="M133,68.17 C133,84.06 133,88.68 133,109.48 " fill="none" id="edu.wpi.first.wpilibj2.command.SubsystemBase-backto-frc.robot.subsystems.Shooter" style="stroke:#181818;stroke-width:1.0;"/><polygon fill="none" points="133,50.17,127,68.17,139,68.17,133,50.17" style="stroke:#181818;stroke-width:1.0;"/></g><!--reverse link frc.robot.subsystems.Shooter to frc.robot.subsystems.Shooter.ShooterModule--><g id="link_frc.robot.subsystems.Shooter_frc.robot.subsystems.Shooter.ShooterModule"><path codeLine="15" d="M133,233.7 C133,254.61 133,261.38 133,277.3 " fill="none" id="frc.robot.subsystems.Shooter-backto-frc.robot.subsystems.Shooter.ShooterModule" style="stroke:#181818;stroke-width:1.0;"/><ellipse cx="133" cy="225.7" fill="#FFFFFF" rx="8" ry="8" style="stroke:#181818;stroke-width:1.0;"/><line style="stroke:#181818;stroke-width:1.0;" x1="133" x2="133" y1="233.7" y2="217.7"/><line style="stroke:#181818;stroke-width:1.0;" x1="125" x2="141" y1="225.7" y2="225.7"/></g><text fill="#888888" font-family="sans-serif" font-size="10" lengthAdjust="spacing" textLength="176" x="38" y="335.9579">UMLDoclet 2.1.2, PlantUML 1.2024.3</text><!--SRC=[fLDDIyD04BtxAuQ2q5AxsE2fb1v41C6AK3pL7ZQRYLdPZx0pKMhjVpT9Oscif8Xxcdtpvks-cLq004869orIBXKkC9T1iW_WlCEpCWsPJX3Gvho6LAD9w2TgaJDVmZMkZ2I2tfJq1qx6LxD5vZrZU7ODSZbBWnB1nvu55J6jYT5I3oJ1RmdHrCDosKGYOsjMAzZKnrLhGonPgoqCNv3lNBbp2lk32JGLUsALVq0P6lo0ClT9OR15l3t1s-xyofWuICN7nhyzN4l20_kO5E8zroBLWRYAZ8vV8w6yjT8bTIEwAQAbtDLqqRhrVqVGLZiOI0jlnhDhpb-CmFHpDEgyG2tP-KY69nJ4yHWLkgeotGaypUzll3BbZuZ4M4GNy6YaunA5ypSCfBth3xu0]--></g></svg>