<?xml version="1.0" encoding="us-ascii" standalone="no"?><svg xmlns="http://www.w3.org/2000/svg" xmlns:xlink="http://www.w3.org/1999/xlink" contentStyleType="text/css" height="412px" preserveAspectRatio="none" style="width:266px;height:412px;background:#FFFFFF;" version="1.1" viewBox="0 0 266 412" width="266px" zoomAndPan="magnify"><defs/><g><!--class frc.robot.subsystems.Shooter--><a href="Shooter.html" target="_top" title="Shooter.html" xlink:actuate="onRequest" xlink:href="Shooter.html" xlink:show="new" xlink:title="Shooter.html" xlink:type="simple"><g id="elem_frc.robot.subsystems.Shooter"><rect codeLine="5" fill="#F1F1F1" height="173.0954" id="frc.robot.subsystems.Shooter" rx="2.5" ry="2.5" style="stroke:#181818;stroke-width:0.5;" width="252" x="7" y="109.69"/><ellipse cx="78.75" cy="131.034" fill="#ADD1B2" rx="11" ry="11" style="stroke:#181818;stroke-width:1.0;"/><path d="M78.2188,137.9558 Q76.4688,137.9558 75.3281,137.2215 Q74.2031,136.4715 73.6406,135.1277 Q73.0938,133.7683 73.0938,131.9715 Q73.0938,129.9402 73.75,128.4871 Q74.4063,127.034 75.6875,126.2527 Q76.9688,125.4715 78.8438,125.4715 Q79.7344,125.4715 80.4063,125.659 Q81.0781,125.8308 81.7656,126.1746 L80.9531,128.1902 Q80.3281,127.8777 79.7813,127.7527 Q79.25,127.6277 78.7656,127.6277 Q77.5938,127.6277 76.8906,128.159 Q76.1875,128.6902 75.8906,129.6433 Q75.5938,130.5965 75.5938,131.8621 Q75.5938,133.8777 76.3125,134.8465 Q77.0313,135.7996 78.625,135.7996 Q79.2188,135.7996 79.8438,135.6433 Q80.4688,135.4871 81.2969,135.1121 L81.2969,137.3308 Q80.5625,137.6433 79.7656,137.7996 Q78.9844,137.9558 78.2188,137.9558 Z " fill="#000000"/><text fill="#000000" font-family="sans-serif" font-size="14" lengthAdjust="spacing" textLength="52" x="123.25" y="129.6559">Shooter</text><text fill="#000000" font-family="sans-serif" font-size="10" lengthAdjust="spacing" textLength="100" x="99.25" y="144.4479">frc.robot.subsystems</text><line style="stroke:#181818;stroke-width:0.5;" x1="8" x2="258" y1="152.3779" y2="152.3779"/><rect fill="none" height="6" style="stroke:#C82930;stroke-width:1.0;" width="6" x="15" y="164.4119"/><text fill="#000000" font-family="sans-serif" font-size="14" lengthAdjust="spacing" text-decoration="underline" textLength="117" x="27" y="171.3438">instance: Shooter</text><rect fill="none" height="6" style="stroke:#C82930;stroke-width:1.0;" width="6" x="15" y="183.4798"/><text fill="#000000" font-family="sans-serif" font-size="14" lengthAdjust="spacing" textLength="194" x="27" y="190.4118">nearShooter: ShooterModule</text><rect fill="none" height="6" style="stroke:#C82930;stroke-width:1.0;" width="6" x="15" y="202.5477"/><text fill="#000000" font-family="sans-serif" font-size="14" lengthAdjust="spacing" textLength="182" x="27" y="209.4797">farShooter: ShooterModule</text><line style="stroke:#181818;stroke-width:0.5;" x1="8" x2="258" y1="217.5817" y2="217.5817"/><ellipse cx="18" cy="232.6156" fill="#84BE84" rx="3" ry="3" style="stroke:#038048;stroke-width:1.0;"/><text fill="#000000" font-family="sans-serif" font-size="14" lengthAdjust="spacing" text-decoration="underline" textLength="148" x="27" y="236.5476">getInstance(): Shooter</text><ellipse cx="18" cy="251.6835" fill="#84BE84" rx="3" ry="3" style="stroke:#038048;stroke-width:1.0;"/><text fill="#000000" font-family="sans-serif" font-size="14" lengthAdjust="spacing" textLength="226" x="27" y="255.6155">getNearShooter(): ShooterModule</text><ellipse cx="18" cy="270.7514" fill="#84BE84" rx="3" ry="3" style="stroke:#038048;stroke-width:1.0;"/><text fill="#000000" font-family="sans-serif" font-size="14" lengthAdjust="spacing" textLength="214" x="27" y="274.6834">getFarShooter(): ShooterModule</text></g></a><!--class edu.wpi.first.wpilibj2.command.SubsystemBase--><g id="elem_edu.wpi.first.wpilibj2.command.SubsystemBase"><rect codeLine="14" fill="#F1F1F1" height="42.6879" id="edu.wpi.first.wpilibj2.command.SubsystemBase" rx="2.5" ry="2.5" style="stroke:#181818;stroke-width:0.5;" width="178" x="44" y="7"/><ellipse cx="59" cy="28.344" fill="#A9DCDF" rx="11" ry="11" style="stroke:#181818;stroke-width:1.0;"/><path d="M54.1719,34.094 L57.5156,21.9065 L60.6563,21.9065 L64.0313,34.094 L61.5625,34.094 L60.8281,31.0783 L57.3125,31.0783 L56.5625,34.094 L54.1719,34.094 Z M58.5781,26.0471 L57.8281,29.0471 L60.3438,29.0471 L59.625,26.0471 Q59.4844,25.469 59.3594,24.9221 Q59.2344,24.3596 59.0938,23.7815 Q58.9844,24.3596 58.8438,24.9221 Q58.7031,25.469 58.5781,26.0471 Z " fill="#000000"/><text fill="#000000" font-family="sans-serif" font-size="14" font-style="italic" lengthAdjust="spacing" textLength="95" x="98.5" y="26.9659">SubsystemBase</text><text fill="#000000" font-family="sans-serif" font-size="10" font-style="italic" lengthAdjust="spacing" textLength="146" x="73" y="41.7579">edu.wpi.first.wpilibj2.command</text></g><!--class frc.robot.subsystems.Shooter.ShooterModule--><a href="Shooter.ShooterModule.html" target="_top" title="Shooter.ShooterModule.html" xlink:actuate="onRequest" xlink:href="Shooter.ShooterModule.html" xlink:show="new" xlink:title="Shooter.ShooterModule.html" xlink:type="simple"><g id="elem_frc.robot.subsystems.Shooter.ShooterModule"><rect codeLine="15" fill="#F1F1F1" height="42.6879" id="frc.robot.subsystems.Shooter.ShooterModule" rx="2.5" ry="2.5" style="stroke:#181818;stroke-width:0.5;" width="191" x="37.5" y="342.78"/><ellipse cx="52.5" cy="364.124" fill="#ADD1B2" rx="11" ry="11" style="stroke:#181818;stroke-width:1.0;"/><path d="M51.9688,371.0458 Q50.2188,371.0458 49.0781,370.3115 Q47.9531,369.5615 47.3906,368.2177 Q46.8438,366.8583 46.8438,365.0615 Q46.8438,363.0302 47.5,361.5771 Q48.1563,360.124 49.4375,359.3427 Q50.7188,358.5615 52.5938,358.5615 Q53.4844,358.5615 54.1563,358.749 Q54.8281,358.9208 55.5156,359.2646 L54.7031,361.2802 Q54.0781,360.9677 53.5313,360.8427 Q53,360.7177 52.5156,360.7177 Q51.3438,360.7177 50.6406,361.249 Q49.9375,361.7802 49.6406,362.7333 Q49.3438,363.6865 49.3438,364.9521 Q49.3438,366.9677 50.0625,367.9365 Q50.7813,368.8896 52.375,368.8896 Q52.9688,368.8896 53.5938,368.7333 Q54.2188,368.5771 55.0469,368.2021 L55.0469,370.4208 Q54.3125,370.7333 53.5156,370.8896 Q52.7344,371.0458 51.9688,371.0458 Z " fill="#000000"/><text fill="#000000" font-family="sans-serif" font-size="14" lengthAdjust="spacing" textLength="159" x="66.5" y="362.7459">Shooter.ShooterModule</text><text fill="#000000" font-family="sans-serif" font-size="10" lengthAdjust="spacing" textLength="100" x="96" y="377.5379">frc.robot.subsystems</text></g></a><!--reverse link edu.wpi.first.wpilibj2.command.SubsystemBase to frc.robot.subsystems.Shooter--><g id="link_edu.wpi.first.wpilibj2.command.SubsystemBase_frc.robot.subsystems.Shooter"><path codeLine="17" d="M133,68.02 C133,83.3 133,87.24 133,109.45 " fill="none" id="edu.wpi.first.wpilibj2.command.SubsystemBase-backto-frc.robot.subsystems.Shooter" style="stroke:#181818;stroke-width:1.0;"/><polygon fill="none" points="133,50.02,127,68.02,139,68.02,133,50.02" style="stroke:#181818;stroke-width:1.0;"/></g><!--reverse link frc.robot.subsystems.Shooter to frc.robot.subsystems.Shooter.ShooterModule--><g id="link_frc.robot.subsystems.Shooter_frc.robot.subsystems.Shooter.ShooterModule"><path codeLine="18" d="M133,299.1 C133,321.23 133,327.09 133,342.36 " fill="none" id="frc.robot.subsystems.Shooter-backto-frc.robot.subsystems.Shooter.ShooterModule" style="stroke:#181818;stroke-width:1.0;"/><ellipse cx="133" cy="291.1" fill="#FFFFFF" rx="8" ry="8" style="stroke:#181818;stroke-width:1.0;"/><line style="stroke:#181818;stroke-width:1.0;" x1="133" x2="133" y1="299.1" y2="283.1"/><line style="stroke:#181818;stroke-width:1.0;" x1="125" x2="141" y1="291.1" y2="291.1"/></g><text fill="#888888" font-family="sans-serif" font-size="10" lengthAdjust="spacing" textLength="176" x="38" y="401.1579">UMLDoclet 2.1.2, PlantUML 1.2024.3</text><!--SRC=[fLDDImCn4BtxAuQ2qA8RRF5KIWyYWc15A9vg3zdih1l9nvAPAhNslxkxNTjkArl4d8OtB-ybRn8004869orIBXLECPT1iW_WlCEpeWsPJX3Gvho4LAD9w12ro9alu0fNHX91PqJw4uVzw_4qyvunlBWQkHgdGOdWOy-25Z4jYT5I1oJ1RmrHxuVPhAv4njRCvx2gxCgr8fQirHeYxOhIAHn2JTvo8eSorE2sE_79mk2EavwaRAqkNf7lQxTkxzYlx3_kBFSe1uebyUu4Rxs9LiR4GIe-plWdhXj9k9Sq9WlnaMkHwa1SLaR7RmEXlBNI9LNcxHJHK6wRhsYS-h_JRghjpRw1rozX4yvVBWAZhoXgFK0bsVeUBqueYECnAdJbpdGZy3nvkFNA59zl8FfYS0bFHZekK3X_nq3Qksxl6m00]--></g></svg>