<?xml version="1.0" encoding="us-ascii" standalone="no"?><svg xmlns="http://www.w3.org/2000/svg" xmlns:xlink="http://www.w3.org/1999/xlink" contentStyleType="text/css" height="431px" preserveAspectRatio="none" style="width:230px;height:431px;background:#FFFFFF;" version="1.1" viewBox="0 0 230 431" width="230px" zoomAndPan="magnify"><defs/><g><!--class frc.robot.subsystems.ShooterHoods--><a href="ShooterHoods.html" target="_top" title="ShooterHoods.html" xlink:actuate="onRequest" xlink:href="ShooterHoods.html" xlink:show="new" xlink:title="ShooterHoods.html" xlink:type="simple"><g id="elem_frc.robot.subsystems.ShooterHoods"><rect codeLine="5" fill="#F1F1F1" height="192.1633" id="frc.robot.subsystems.ShooterHoods" rx="2.5" ry="2.5" style="stroke:#181818;stroke-width:0.5;" width="216" x="7" y="109.69"/><ellipse cx="60.75" cy="131.034" fill="#ADD1B2" rx="11" ry="11" style="stroke:#181818;stroke-width:1.0;"/><path d="M60.2188,137.9558 Q58.4688,137.9558 57.3281,137.2215 Q56.2031,136.4715 55.6406,135.1277 Q55.0938,133.7683 55.0938,131.9715 Q55.0938,129.9402 55.75,128.4871 Q56.4063,127.034 57.6875,126.2527 Q58.9688,125.4715 60.8438,125.4715 Q61.7344,125.4715 62.4063,125.659 Q63.0781,125.8308 63.7656,126.1746 L62.9531,128.1902 Q62.3281,127.8777 61.7813,127.7527 Q61.25,127.6277 60.7656,127.6277 Q59.5938,127.6277 58.8906,128.159 Q58.1875,128.6902 57.8906,129.6433 Q57.5938,130.5965 57.5938,131.8621 Q57.5938,133.8777 58.3125,134.8465 Q59.0313,135.7996 60.625,135.7996 Q61.2188,135.7996 61.8438,135.6433 Q62.4688,135.4871 63.2969,135.1121 L63.2969,137.3308 Q62.5625,137.6433 61.7656,137.7996 Q60.9844,137.9558 60.2188,137.9558 Z " fill="#000000"/><text fill="#000000" font-family="sans-serif" font-size="14" lengthAdjust="spacing" textLength="94" x="84.25" y="129.6559">ShooterHoods</text><text fill="#000000" font-family="sans-serif" font-size="10" lengthAdjust="spacing" textLength="100" x="81.25" y="144.4479">frc.robot.subsystems</text><line style="stroke:#181818;stroke-width:0.5;" x1="8" x2="222" y1="152.3779" y2="152.3779"/><rect fill="none" height="6" style="stroke:#C82930;stroke-width:1.0;" width="6" x="15" y="164.4119"/><text fill="#000000" font-family="sans-serif" font-size="14" lengthAdjust="spacing" textLength="137" x="27" y="171.3438">servoHub: ServoHub</text><rect fill="none" height="6" style="stroke:#C82930;stroke-width:1.0;" width="6" x="15" y="183.4798"/><text fill="#000000" font-family="sans-serif" font-size="14" lengthAdjust="spacing" text-decoration="underline" textLength="159" x="27" y="190.4118">instance: ShooterHoods</text><rect fill="none" height="6" style="stroke:#C82930;stroke-width:1.0;" width="6" x="15" y="202.5477"/><text fill="#000000" font-family="sans-serif" font-size="14" lengthAdjust="spacing" textLength="109" x="27" y="209.4797">nearHood: Hood</text><rect fill="none" height="6" style="stroke:#C82930;stroke-width:1.0;" width="6" x="15" y="221.6156"/><text fill="#000000" font-family="sans-serif" font-size="14" lengthAdjust="spacing" textLength="97" x="27" y="228.5476">farHood: Hood</text><line style="stroke:#181818;stroke-width:0.5;" x1="8" x2="222" y1="236.6496" y2="236.6496"/><ellipse cx="18" cy="251.6835" fill="#84BE84" rx="3" ry="3" style="stroke:#038048;stroke-width:1.0;"/><text fill="#000000" font-family="sans-serif" font-size="14" lengthAdjust="spacing" text-decoration="underline" textLength="190" x="27" y="255.6155">getInstance(): ShooterHoods</text><ellipse cx="18" cy="270.7514" fill="#84BE84" rx="3" ry="3" style="stroke:#038048;stroke-width:1.0;"/><text fill="#000000" font-family="sans-serif" font-size="14" lengthAdjust="spacing" textLength="141" x="27" y="274.6834">getNearHood(): Hood</text><ellipse cx="18" cy="289.8194" fill="#84BE84" rx="3" ry="3" style="stroke:#038048;stroke-width:1.0;"/><text fill="#000000" font-family="sans-serif" font-size="14" lengthAdjust="spacing" textLength="129" x="27" y="293.7513">getFarHood(): Hood</text></g></a><!--class edu.wpi.first.wpilibj2.command.SubsystemBase--><g id="elem_edu.wpi.first.wpilibj2.command.SubsystemBase"><rect codeLine="15" fill="#F1F1F1" height="42.6879" id="edu.wpi.first.wpilibj2.command.SubsystemBase" rx="2.5" ry="2.5" style="stroke:#181818;stroke-width:0.5;" width="178" x="26" y="7"/><ellipse cx="41" cy="28.344" fill="#A9DCDF" rx="11" ry="11" style="stroke:#181818;stroke-width:1.0;"/><path d="M36.1719,34.094 L39.5156,21.9065 L42.6563,21.9065 L46.0313,34.094 L43.5625,34.094 L42.8281,31.0783 L39.3125,31.0783 L38.5625,34.094 L36.1719,34.094 Z M40.5781,26.0471 L39.8281,29.0471 L42.3438,29.0471 L41.625,26.0471 Q41.4844,25.469 41.3594,24.9221 Q41.2344,24.3596 41.0938,23.7815 Q40.9844,24.3596 40.8438,24.9221 Q40.7031,25.469 40.5781,26.0471 Z " fill="#000000"/><text fill="#000000" font-family="sans-serif" font-size="14" font-style="italic" lengthAdjust="spacing" textLength="95" x="80.5" y="26.9659">SubsystemBase</text><text fill="#000000" font-family="sans-serif" font-size="10" font-style="italic" lengthAdjust="spacing" textLength="146" x="55" y="41.7579">edu.wpi.first.wpilibj2.command</text></g><!--class frc.robot.subsystems.ShooterHoods.Hood--><a href="ShooterHoods.Hood.html" target="_top" title="ShooterHoods.Hood.html" xlink:actuate="onRequest" xlink:href="ShooterHoods.Hood.html" xlink:show="new" xlink:title="ShooterHoods.Hood.html" xlink:type="simple"><g id="elem_frc.robot.subsystems.ShooterHoods.Hood"><rect codeLine="16" fill="#F1F1F1" height="42.6879" id="frc.robot.subsystems.ShooterHoods.Hood" rx="2.5" ry="2.5" style="stroke:#181818;stroke-width:0.5;" width="165" x="32.5" y="361.85"/><ellipse cx="47.5" cy="383.194" fill="#ADD1B2" rx="11" ry="11" style="stroke:#181818;stroke-width:1.0;"/><path d="M46.9688,390.1158 Q45.2188,390.1158 44.0781,389.3815 Q42.9531,388.6315 42.3906,387.2877 Q41.8438,385.9283 41.8438,384.1315 Q41.8438,382.1002 42.5,380.6471 Q43.1563,379.194 44.4375,378.4127 Q45.7188,377.6315 47.5938,377.6315 Q48.4844,377.6315 49.1563,377.819 Q49.8281,377.9908 50.5156,378.3346 L49.7031,380.3502 Q49.0781,380.0377 48.5313,379.9127 Q48,379.7877 47.5156,379.7877 Q46.3438,379.7877 45.6406,380.319 Q44.9375,380.8502 44.6406,381.8033 Q44.3438,382.7565 44.3438,384.0221 Q44.3438,386.0377 45.0625,387.0065 Q45.7813,387.9596 47.375,387.9596 Q47.9688,387.9596 48.5938,387.8033 Q49.2188,387.6471 50.0469,387.2721 L50.0469,389.4908 Q49.3125,389.8033 48.5156,389.9596 Q47.7344,390.1158 46.9688,390.1158 Z " fill="#000000"/><text fill="#000000" font-family="sans-serif" font-size="14" lengthAdjust="spacing" textLength="133" x="61.5" y="381.8159">ShooterHoods.Hood</text><text fill="#000000" font-family="sans-serif" font-size="10" lengthAdjust="spacing" textLength="100" x="78" y="396.6079">frc.robot.subsystems</text></g></a><!--reverse link edu.wpi.first.wpilibj2.command.SubsystemBase to frc.robot.subsystems.ShooterHoods--><g id="link_edu.wpi.first.wpilibj2.command.SubsystemBase_frc.robot.subsystems.ShooterHoods"><path codeLine="18" d="M115,68.16 C115,83.31 115,87.03 115,109.42 " fill="none" id="edu.wpi.first.wpilibj2.command.SubsystemBase-backto-frc.robot.subsystems.ShooterHoods" style="stroke:#181818;stroke-width:1.0;"/><polygon fill="none" points="115,50.16,109,68.16,121,68.16,115,50.16" style="stroke:#181818;stroke-width:1.0;"/></g><!--reverse link frc.robot.subsystems.ShooterHoods to frc.robot.subsystems.ShooterHoods.Hood--><g id="link_frc.robot.subsystems.ShooterHoods_frc.robot.subsystems.ShooterHoods.Hood"><path codeLine="19" d="M115,318.18 C115,340.68 115,346.5 115,361.66 " fill="none" id="frc.robot.subsystems.ShooterHoods-backto-frc.robot.subsystems.ShooterHoods.Hood" style="stroke:#181818;stroke-width:1.0;"/><ellipse cx="115" cy="310.18" fill="#FFFFFF" rx="8" ry="8" style="stroke:#181818;stroke-width:1.0;"/><line style="stroke:#181818;stroke-width:1.0;" x1="115" x2="115" y1="318.18" y2="302.18"/><line style="stroke:#181818;stroke-width:1.0;" x1="107" x2="123" y1="310.18" y2="310.18"/></g><text fill="#888888" font-family="sans-serif" font-size="10" lengthAdjust="spacing" textLength="176" x="20" y="420.2279">UMLDoclet 2.1.2, PlantUML 1.2024.3</text><!--SRC=[hPD1IyD048Nl_egX8BJKBBPuAgK74QcW8XHFjOVDPc9MajsoCwtKsl_kRXhRj5QhO0x3x7l3j-5D0W10o61aWJIL2aSubKwoTM2imHDlGwOJ12ocl81KOvxGlbeWPzRBfQvoIGIDFkatx7Kk1gFCMaOtj7xYoLJo-I1rIZWRMnOqYsb1Z0KrG18SCaGT0kDn_IWoBlB919RbxU692DtS3cTn3qPLj_6Mn9ArMa6aZM-DGZzKesqX1cKfzI3KhPuUb3VSzZFoJOLkjhw1Xw7xYX-6Tb31l3xWhTRvofZOISLVW_wCwr8IrfB6P2PUfrgasX67BjVnIrSeMnJI96NcFu-87VBH9OjG_sNJ9Mb_tQ5MEry7yfUNX_vx51s_kEGU_n3Rls69pG8L6Yz2MdhmU7TxPLNk_xskw8Zk6Jpaqh1NuNIEZhGrpTO7]--></g></svg>