<?xml version="1.0" encoding="us-ascii" standalone="no"?><svg xmlns="http://www.w3.org/2000/svg" xmlns:xlink="http://www.w3.org/1999/xlink" contentStyleType="text/css" height="291px" preserveAspectRatio="none" style="width:357px;height:291px;background:#FFFFFF;" version="1.1" viewBox="0 0 357 291" width="357px" zoomAndPan="magnify"><defs/><g><!--class frc.robot.subsystems.ShooterHoods.Hood--><a href="ShooterHoods.Hood.html" target="_top" title="ShooterHoods.Hood.html" xlink:actuate="onRequest" xlink:href="ShooterHoods.Hood.html" xlink:show="new" xlink:title="ShooterHoods.Hood.html" xlink:type="simple"><g id="elem_frc.robot.subsystems.ShooterHoods.Hood"><rect codeLine="5" fill="#F1F1F1" height="154.0275" id="frc.robot.subsystems.ShooterHoods.Hood" rx="2.5" ry="2.5" style="stroke:#181818;stroke-width:0.5;" width="343" x="7" y="109.69"/><ellipse cx="107.75" cy="131.034" fill="#ADD1B2" rx="11" ry="11" style="stroke:#181818;stroke-width:1.0;"/><path d="M107.2188,137.9558 Q105.4688,137.9558 104.3281,137.2215 Q103.2031,136.4715 102.6406,135.1277 Q102.0938,133.7683 102.0938,131.9715 Q102.0938,129.9402 102.75,128.4871 Q103.4063,127.034 104.6875,126.2527 Q105.9688,125.4715 107.8438,125.4715 Q108.7344,125.4715 109.4063,125.659 Q110.0781,125.8308 110.7656,126.1746 L109.9531,128.1902 Q109.3281,127.8777 108.7813,127.7527 Q108.25,127.6277 107.7656,127.6277 Q106.5938,127.6277 105.8906,128.159 Q105.1875,128.6902 104.8906,129.6433 Q104.5938,130.5965 104.5938,131.8621 Q104.5938,133.8777 105.3125,134.8465 Q106.0313,135.7996 107.625,135.7996 Q108.2188,135.7996 108.8438,135.6433 Q109.4688,135.4871 110.2969,135.1121 L110.2969,137.3308 Q109.5625,137.6433 108.7656,137.7996 Q107.9844,137.9558 107.2188,137.9558 Z " fill="#000000"/><text fill="#000000" font-family="sans-serif" font-size="14" lengthAdjust="spacing" textLength="133" x="128.25" y="129.6559">ShooterHoods.Hood</text><text fill="#000000" font-family="sans-serif" font-size="10" lengthAdjust="spacing" textLength="100" x="144.75" y="144.4479">frc.robot.subsystems</text><line style="stroke:#181818;stroke-width:0.5;" x1="8" x2="349" y1="152.3779" y2="152.3779"/><rect fill="none" height="6" style="stroke:#C82930;stroke-width:1.0;" width="6" x="15" y="164.4119"/><text fill="#000000" font-family="sans-serif" font-size="14" lengthAdjust="spacing" textLength="193" x="27" y="171.3438">servoChannel: ServoChannel</text><rect fill="none" height="6" style="stroke:#C82930;stroke-width:1.0;" width="6" x="15" y="183.4798"/><text fill="#000000" font-family="sans-serif" font-size="14" lengthAdjust="spacing" textLength="167" x="27" y="190.4118">pulseRange: PulseRange</text><line style="stroke:#181818;stroke-width:0.5;" x1="8" x2="349" y1="198.5137" y2="198.5137"/><rect fill="#F24D5C" height="6" style="stroke:#C82930;stroke-width:1.0;" width="6" x="15" y="210.5477"/><text fill="#000000" font-family="sans-serif" font-size="14" lengthAdjust="spacing" textLength="317" x="27" y="217.4797">Hood(ChannelId, PulseRange, ServoHubConfig)</text><ellipse cx="18" cy="232.6156" fill="#84BE84" rx="3" ry="3" style="stroke:#038048;stroke-width:1.0;"/><text fill="#000000" font-family="sans-serif" font-size="14" lengthAdjust="spacing" textLength="90" x="27" y="236.5476">enable(): void</text><ellipse cx="18" cy="251.6835" fill="#84BE84" rx="3" ry="3" style="stroke:#038048;stroke-width:1.0;"/><text fill="#000000" font-family="sans-serif" font-size="14" lengthAdjust="spacing" textLength="150" x="27" y="255.6155">setAngle(double): void</text></g></a><!--class frc.robot.subsystems.ShooterHoods--><a href="ShooterHoods.html" target="_top" title="ShooterHoods.html" xlink:actuate="onRequest" xlink:href="ShooterHoods.html" xlink:show="new" xlink:title="ShooterHoods.html" xlink:type="simple"><g id="elem_frc.robot.subsystems.ShooterHoods"><rect codeLine="13" fill="#F1F1F1" height="42.6879" id="frc.robot.subsystems.ShooterHoods" rx="2.5" ry="2.5" style="stroke:#181818;stroke-width:0.5;" width="132" x="112.5" y="7"/><ellipse cx="127.5" cy="28.344" fill="#ADD1B2" rx="11" ry="11" style="stroke:#181818;stroke-width:1.0;"/><path d="M126.9688,35.2658 Q125.2188,35.2658 124.0781,34.5315 Q122.9531,33.7815 122.3906,32.4377 Q121.8438,31.0783 121.8438,29.2815 Q121.8438,27.2502 122.5,25.7971 Q123.1563,24.344 124.4375,23.5627 Q125.7188,22.7815 127.5938,22.7815 Q128.4844,22.7815 129.1563,22.969 Q129.8281,23.1408 130.5156,23.4846 L129.7031,25.5002 Q129.0781,25.1877 128.5313,25.0627 Q128,24.9377 127.5156,24.9377 Q126.3438,24.9377 125.6406,25.469 Q124.9375,26.0002 124.6406,26.9533 Q124.3438,27.9065 124.3438,29.1721 Q124.3438,31.1877 125.0625,32.1565 Q125.7813,33.1096 127.375,33.1096 Q127.9688,33.1096 128.5938,32.9533 Q129.2188,32.7971 130.0469,32.4221 L130.0469,34.6408 Q129.3125,34.9533 128.5156,35.1096 Q127.7344,35.2658 126.9688,35.2658 Z " fill="#000000"/><text fill="#000000" font-family="sans-serif" font-size="14" lengthAdjust="spacing" textLength="94" x="144.5" y="26.9659">ShooterHoods</text><text fill="#000000" font-family="sans-serif" font-size="10" lengthAdjust="spacing" textLength="100" x="141.5" y="41.7579">frc.robot.subsystems</text></g></a><!--reverse link frc.robot.subsystems.ShooterHoods to frc.robot.subsystems.ShooterHoods.Hood--><g id="link_frc.robot.subsystems.ShooterHoods_frc.robot.subsystems.ShooterHoods.Hood"><path codeLine="15" d="M178.5,66.11 C178.5,81.48 178.5,87.44 178.5,109.23 " fill="none" id="frc.robot.subsystems.ShooterHoods-backto-frc.robot.subsystems.ShooterHoods.Hood" style="stroke:#181818;stroke-width:1.0;"/><ellipse cx="178.5" cy="58.11" fill="#FFFFFF" rx="8" ry="8" style="stroke:#181818;stroke-width:1.0;"/><line style="stroke:#181818;stroke-width:1.0;" x1="178.5" x2="178.5" y1="66.11" y2="50.11"/><line style="stroke:#181818;stroke-width:1.0;" x1="170.5" x2="186.5" y1="58.11" y2="58.11"/></g><text fill="#888888" font-family="sans-serif" font-size="10" lengthAdjust="spacing" textLength="176" x="83.5" y="280.4075">UMLDoclet 2.1.2, PlantUML 1.2024.3</text><!--SRC=[hP9FQy904CNl_HI3K50qIvMUGX6AFLXeeLHwiXusoUGFR6R2paQmfT-zcqICg60FtSEo-tjlPdTV0W0Ww81qYLBf65TOQQiTMo0clF4ov4M2W6NbTf0MQ18vfIMwd3rkUMoq20mUfFZ2S7e_N-NC3ksIlKCryoVjjRjvQcDbEMAdf8va9mvB6O0Mk2IeiqwmNfynbRlIR3RmtLwc6O6WtV8YrqHeGbWTxNfFLHl1TqqPXl1sMFTwqtguhtfE9aUUITTnMKSBfhJ8HeUYCPAE30v78MovI7hk0t-ap2i9rzvmhFzS3_5VyZkDhakjE_nwyJW8_lY9kjSWUGXfgy77wyiJnyR_T3CrLJEVfT7aF8NRBLefc8QZNm00]--></g></svg>