<?xml version="1.0" encoding="us-ascii" standalone="no"?><svg xmlns="http://www.w3.org/2000/svg" xmlns:xlink="http://www.w3.org/1999/xlink" contentStyleType="text/css" height="321px" preserveAspectRatio="none" style="width:275px;height:321px;background:#FFFFFF;" version="1.1" viewBox="0 0 275 321" width="275px" zoomAndPan="magnify"><defs/><g><!--class frc.robot.subsystems.Shooter.ShooterModule--><a href="Shooter.ShooterModule.html" target="_top" title="Shooter.ShooterModule.html" xlink:actuate="onRequest" xlink:href="Shooter.ShooterModule.html" xlink:show="new" xlink:title="Shooter.ShooterModule.html" xlink:type="simple"><g id="elem_frc.robot.subsystems.Shooter.ShooterModule"><rect codeLine="5" fill="#F1F1F1" height="184.1633" id="frc.robot.subsystems.Shooter.ShooterModule" rx="2.5" ry="2.5" style="stroke:#181818;stroke-width:0.5;" width="261" x="7" y="109.69"/><ellipse cx="53.75" cy="131.034" fill="#ADD1B2" rx="11" ry="11" style="stroke:#181818;stroke-width:1.0;"/><path d="M53.2188,137.9558 Q51.4688,137.9558 50.3281,137.2215 Q49.2031,136.4715 48.6406,135.1277 Q48.0938,133.7683 48.0938,131.9715 Q48.0938,129.9402 48.75,128.4871 Q49.4063,127.034 50.6875,126.2527 Q51.9688,125.4715 53.8438,125.4715 Q54.7344,125.4715 55.4063,125.659 Q56.0781,125.8308 56.7656,126.1746 L55.9531,128.1902 Q55.3281,127.8777 54.7813,127.7527 Q54.25,127.6277 53.7656,127.6277 Q52.5938,127.6277 51.8906,128.159 Q51.1875,128.6902 50.8906,129.6433 Q50.5938,130.5965 50.5938,131.8621 Q50.5938,133.8777 51.3125,134.8465 Q52.0313,135.7996 53.625,135.7996 Q54.2188,135.7996 54.8438,135.6433 Q55.4688,135.4871 56.2969,135.1121 L56.2969,137.3308 Q55.5625,137.6433 54.7656,137.7996 Q53.9844,137.9558 53.2188,137.9558 Z " fill="#000000"/><text fill="#000000" font-family="sans-serif" font-size="14" lengthAdjust="spacing" textLength="159" x="74.25" y="129.6559">Shooter.ShooterModule</text><text fill="#000000" font-family="sans-serif" font-size="10" lengthAdjust="spacing" textLength="100" x="103.75" y="144.4479">frc.robot.subsystems</text><line style="stroke:#181818;stroke-width:0.5;" x1="8" x2="267" y1="152.3779" y2="152.3779"/><ellipse cx="18" cy="167.4119" fill="#84BE84" rx="3" ry="3" style="stroke:#038048;stroke-width:1.0;"/><text fill="#000000" font-family="sans-serif" font-size="14" lengthAdjust="spacing" textLength="122" x="27" y="171.3438">start(double): void</text><ellipse cx="18" cy="186.4798" fill="#84BE84" rx="3" ry="3" style="stroke:#038048;stroke-width:1.0;"/><text fill="#000000" font-family="sans-serif" font-size="14" lengthAdjust="spacing" textLength="73" x="27" y="190.4118">stop(): void</text><ellipse cx="18" cy="205.5477" fill="#84BE84" rx="3" ry="3" style="stroke:#038048;stroke-width:1.0;"/><text fill="#000000" font-family="sans-serif" font-size="14" lengthAdjust="spacing" textLength="115" x="27" y="209.4797">getRPM(): double</text><ellipse cx="18" cy="224.6156" fill="#84BE84" rx="3" ry="3" style="stroke:#038048;stroke-width:1.0;"/><text fill="#000000" font-family="sans-serif" font-size="14" lengthAdjust="spacing" textLength="159" x="27" y="228.5476">getTargetRPM(): double</text><ellipse cx="18" cy="243.6835" fill="#84BE84" rx="3" ry="3" style="stroke:#038048;stroke-width:1.0;"/><text fill="#000000" font-family="sans-serif" font-size="14" lengthAdjust="spacing" textLength="169" x="27" y="247.6155">isAtTargetRPM(): boolean</text><ellipse cx="18" cy="262.7514" fill="#84BE84" rx="3" ry="3" style="stroke:#038048;stroke-width:1.0;"/><text fill="#000000" font-family="sans-serif" font-size="14" lengthAdjust="spacing" textLength="235" x="27" y="266.6834">getTargetDistance(Pose2d): double</text><ellipse cx="18" cy="281.8194" fill="#84BE84" rx="3" ry="3" style="stroke:#038048;stroke-width:1.0;"/><text fill="#000000" font-family="sans-serif" font-size="14" lengthAdjust="spacing" textLength="216" x="27" y="285.7513">getTargetAngle(Pose2d): double</text></g></a><!--class frc.robot.subsystems.Shooter--><a href="Shooter.html" target="_top" title="Shooter.html" xlink:actuate="onRequest" xlink:href="Shooter.html" xlink:show="new" xlink:title="Shooter.html" xlink:type="simple"><g id="elem_frc.robot.subsystems.Shooter"><rect codeLine="15" fill="#F1F1F1" height="42.6879" id="frc.robot.subsystems.Shooter" rx="2.5" ry="2.5" style="stroke:#181818;stroke-width:0.5;" width="132" x="71.5" y="7"/><ellipse cx="86.5" cy="28.344" fill="#ADD1B2" rx="11" ry="11" style="stroke:#181818;stroke-width:1.0;"/><path d="M85.9688,35.2658 Q84.2188,35.2658 83.0781,34.5315 Q81.9531,33.7815 81.3906,32.4377 Q80.8438,31.0783 80.8438,29.2815 Q80.8438,27.2502 81.5,25.7971 Q82.1563,24.344 83.4375,23.5627 Q84.7188,22.7815 86.5938,22.7815 Q87.4844,22.7815 88.1563,22.969 Q88.8281,23.1408 89.5156,23.4846 L88.7031,25.5002 Q88.0781,25.1877 87.5313,25.0627 Q87,24.9377 86.5156,24.9377 Q85.3438,24.9377 84.6406,25.469 Q83.9375,26.0002 83.6406,26.9533 Q83.3438,27.9065 83.3438,29.1721 Q83.3438,31.1877 84.0625,32.1565 Q84.7813,33.1096 86.375,33.1096 Q86.9688,33.1096 87.5938,32.9533 Q88.2188,32.7971 89.0469,32.4221 L89.0469,34.6408 Q88.3125,34.9533 87.5156,35.1096 Q86.7344,35.2658 85.9688,35.2658 Z " fill="#000000"/><text fill="#000000" font-family="sans-serif" font-size="14" lengthAdjust="spacing" textLength="52" x="124.5" y="26.9659">Shooter</text><text fill="#000000" font-family="sans-serif" font-size="10" lengthAdjust="spacing" textLength="100" x="100.5" y="41.7579">frc.robot.subsystems</text></g></a><!--reverse link frc.robot.subsystems.Shooter to frc.robot.subsystems.Shooter.ShooterModule--><g id="link_frc.robot.subsystems.Shooter_frc.robot.subsystems.Shooter.ShooterModule"><path codeLine="17" d="M137.5,66.02 C137.5,81.25 137.5,87.12 137.5,109.5 " fill="none" id="frc.robot.subsystems.Shooter-backto-frc.robot.subsystems.Shooter.ShooterModule" style="stroke:#181818;stroke-width:1.0;"/><ellipse cx="137.5" cy="58.02" fill="#FFFFFF" rx="8" ry="8" style="stroke:#181818;stroke-width:1.0;"/><line style="stroke:#181818;stroke-width:1.0;" x1="137.5" x2="137.5" y1="66.02" y2="50.02"/><line style="stroke:#181818;stroke-width:1.0;" x1="129.5" x2="145.5" y1="58.02" y2="58.02"/></g><text fill="#888888" font-family="sans-serif" font-size="10" lengthAdjust="spacing" textLength="176" x="42.5" y="310.5433">UMLDoclet 2.1.2, PlantUML 1.2024.3</text><!--SRC=[fP9DQy9048Rl_HM3K8XObnfwaY887Xi8jJrP3vlin2niTiBEHB2b_xtHUD0s3PJkPU1vv-DbPW4060Myhf1hdUCQQnsqK01F7czQ6Kfh4B2gvG25HMVuEwrGIchnYUTECyFeaUqxpcSFYtL991ZKEIPa6eTl_gpVBugGgq0PYU8cumCBLZm2pT0dgDvkiDdqSbLAvRPR-3WPExu9YmuI6MeoX-CvxCcQIv7gw0VTeJodoP5tPLVAYmw_wvQNrmaPaKFjUpgiRElCvnYbn1YReM5BltFzUP-35_ZlpY-stEsrcpPOCfbE_t37pZtwOsNHDNXDdbQKk_Q7ncgcuZj8dVRIKhZTOs1BFXf_0G00]--></g></svg>