<?xml version="1.0" encoding="us-ascii" standalone="no"?><svg xmlns="http://www.w3.org/2000/svg" xmlns:xlink="http://www.w3.org/1999/xlink" contentStyleType="text/css" height="226px" preserveAspectRatio="none" style="width:190px;height:226px;background:#FFFFFF;" version="1.1" viewBox="0 0 190 226" width="190px" zoomAndPan="magnify"><defs/><g><!--class frc.robot.subsystems.ShooterHoods.Hood--><a href="ShooterHoods.Hood.html" target="_top" title="ShooterHoods.Hood.html" xlink:actuate="onRequest" xlink:href="ShooterHoods.Hood.html" xlink:show="new" xlink:title="ShooterHoods.Hood.html" xlink:type="simple"><g id="elem_frc.robot.subsystems.ShooterHoods.Hood"><rect codeLine="5" fill="#F1F1F1" height="88.8237" id="frc.robot.subsystems.ShooterHoods.Hood" rx="2.5" ry="2.5" style="stroke:#181818;stroke-width:0.5;" width="176" x="7" y="109.69"/><ellipse cx="26.95" cy="131.034" fill="#ADD1B2" rx="11" ry="11" style="stroke:#181818;stroke-width:1.0;"/><path d="M26.4188,137.9558 Q24.6688,137.9558 23.5281,137.2215 Q22.4031,136.4715 21.8406,135.1277 Q21.2938,133.7683 21.2938,131.9715 Q21.2938,129.9402 21.95,128.4871 Q22.6063,127.034 23.8875,126.2527 Q25.1688,125.4715 27.0438,125.4715 Q27.9344,125.4715 28.6063,125.659 Q29.2781,125.8308 29.9656,126.1746 L29.1531,128.1902 Q28.5281,127.8777 27.9813,127.7527 Q27.45,127.6277 26.9656,127.6277 Q25.7938,127.6277 25.0906,128.159 Q24.3875,128.6902 24.0906,129.6433 Q23.7938,130.5965 23.7938,131.8621 Q23.7938,133.8777 24.5125,134.8465 Q25.2313,135.7996 26.825,135.7996 Q27.4188,135.7996 28.0438,135.6433 Q28.6688,135.4871 29.4969,135.1121 L29.4969,137.3308 Q28.7625,137.6433 27.9656,137.7996 Q27.1844,137.9558 26.4188,137.9558 Z " fill="#000000"/><text fill="#000000" font-family="sans-serif" font-size="14" lengthAdjust="spacing" textLength="133" x="42.05" y="129.6559">ShooterHoods.Hood</text><text fill="#000000" font-family="sans-serif" font-size="10" lengthAdjust="spacing" textLength="100" x="58.55" y="144.4479">frc.robot.subsystems</text><line style="stroke:#181818;stroke-width:0.5;" x1="8" x2="182" y1="152.3779" y2="152.3779"/><ellipse cx="18" cy="167.4119" fill="#84BE84" rx="3" ry="3" style="stroke:#038048;stroke-width:1.0;"/><text fill="#000000" font-family="sans-serif" font-size="14" lengthAdjust="spacing" textLength="90" x="27" y="171.3438">enable(): void</text><ellipse cx="18" cy="186.4798" fill="#84BE84" rx="3" ry="3" style="stroke:#038048;stroke-width:1.0;"/><text fill="#000000" font-family="sans-serif" font-size="14" lengthAdjust="spacing" textLength="150" x="27" y="190.4118">setAngle(double): void</text></g></a><!--class frc.robot.subsystems.ShooterHoods--><a href="ShooterHoods.html" target="_top" title="ShooterHoods.html" xlink:actuate="onRequest" xlink:href="ShooterHoods.html" xlink:show="new" xlink:title="ShooterHoods.html" xlink:type="simple"><g id="elem_frc.robot.subsystems.ShooterHoods"><rect codeLine="10" fill="#F1F1F1" height="42.6879" id="frc.robot.subsystems.ShooterHoods" rx="2.5" ry="2.5" style="stroke:#181818;stroke-width:0.5;" width="132" x="29" y="7"/><ellipse cx="44" cy="28.344" fill="#ADD1B2" rx="11" ry="11" style="stroke:#181818;stroke-width:1.0;"/><path d="M43.4688,35.2658 Q41.7188,35.2658 40.5781,34.5315 Q39.4531,33.7815 38.8906,32.4377 Q38.3438,31.0783 38.3438,29.2815 Q38.3438,27.2502 39,25.7971 Q39.6563,24.344 40.9375,23.5627 Q42.2188,22.7815 44.0938,22.7815 Q44.9844,22.7815 45.6563,22.969 Q46.3281,23.1408 47.0156,23.4846 L46.2031,25.5002 Q45.5781,25.1877 45.0313,25.0627 Q44.5,24.9377 44.0156,24.9377 Q42.8438,24.9377 42.1406,25.469 Q41.4375,26.0002 41.1406,26.9533 Q40.8438,27.9065 40.8438,29.1721 Q40.8438,31.1877 41.5625,32.1565 Q42.2813,33.1096 43.875,33.1096 Q44.4688,33.1096 45.0938,32.9533 Q45.7188,32.7971 46.5469,32.4221 L46.5469,34.6408 Q45.8125,34.9533 45.0156,35.1096 Q44.2344,35.2658 43.4688,35.2658 Z " fill="#000000"/><text fill="#000000" font-family="sans-serif" font-size="14" lengthAdjust="spacing" textLength="94" x="61" y="26.9659">ShooterHoods</text><text fill="#000000" font-family="sans-serif" font-size="10" lengthAdjust="spacing" textLength="100" x="58" y="41.7579">frc.robot.subsystems</text></g></a><!--reverse link frc.robot.subsystems.ShooterHoods to frc.robot.subsystems.ShooterHoods.Hood--><g id="link_frc.robot.subsystems.ShooterHoods_frc.robot.subsystems.ShooterHoods.Hood"><path codeLine="12" d="M95,66.06 C95,82.16 95,89.06 95,109.19 " fill="none" id="frc.robot.subsystems.ShooterHoods-backto-frc.robot.subsystems.ShooterHoods.Hood" style="stroke:#181818;stroke-width:1.0;"/><ellipse cx="95" cy="58.06" fill="#FFFFFF" rx="8" ry="8" style="stroke:#181818;stroke-width:1.0;"/><line style="stroke:#181818;stroke-width:1.0;" x1="95" x2="95" y1="66.06" y2="50.06"/><line style="stroke:#181818;stroke-width:1.0;" x1="87" x2="103" y1="58.06" y2="58.06"/></g><text fill="#888888" font-family="sans-serif" font-size="10" lengthAdjust="spacing" textLength="176" x="0" y="215.2037">UMLDoclet 2.1.2, PlantUML 1.2024.3</text><!--SRC=[hP71IWCn48RlFiLFGMYf3RPuAb8GF7XG48gdsaDsTzOD93DB9YrKyTrDTmMb5UgXEUJmVPFC_0a0A2Mm3QIjBMb9hOqsIGGBqqNMQ5n5eD2c7Mf7lj936YWrad77IszLCRXLzqxpwSrYsOWaYW-IAyn-V-LlTxseOscY59ACRWhTQQAW0rZ5Ny8StOJLweYP9WM_NkEZ6sQ_niIsy3GSpR4LL_tmdFkEtxAfP9CBVllFqrdE4kCmGJzyt_pquV5ayi-NwjCGPuYwStXvUhoNqkU_dvcfcLtXsLjEcU9oIr6Ty73q1G00]--></g></svg>