<?xml version="1.0" encoding="us-ascii" standalone="no"?><svg xmlns="http://www.w3.org/2000/svg" xmlns:xlink="http://www.w3.org/1999/xlink" contentStyleType="text/css" height="526px" preserveAspectRatio="none" style="width:457px;height:526px;background:#FFFFFF;" version="1.1" viewBox="0 0 457 526" width="457px" zoomAndPan="magnify"><defs/><g><!--class frc.robot.subsystems.SwagLights--><a href="SwagLights.html" target="_top" title="SwagLights.html" xlink:actuate="onRequest" xlink:href="SwagLights.html" xlink:show="new" xlink:title="SwagLights.html" xlink:type="simple"><g id="elem_frc.robot.subsystems.SwagLights"><rect codeLine="5" fill="#F1F1F1" height="287.5029" id="frc.robot.subsystems.SwagLights" rx="2.5" ry="2.5" style="stroke:#181818;stroke-width:0.5;" width="287" x="79" y="109.69"/><ellipse cx="168.25" cy="131.034" fill="#ADD1B2" rx="11" ry="11" style="stroke:#181818;stroke-width:1.0;"/><path d="M167.7188,137.9558 Q165.9688,137.9558 164.8281,137.2215 Q163.7031,136.4715 163.1406,135.1277 Q162.5938,133.7683 162.5938,131.9715 Q162.5938,129.9402 163.25,128.4871 Q163.9063,127.034 165.1875,126.2527 Q166.4688,125.4715 168.3438,125.4715 Q169.2344,125.4715 169.9063,125.659 Q170.5781,125.8308 171.2656,126.1746 L170.4531,128.1902 Q169.8281,127.8777 169.2813,127.7527 Q168.75,127.6277 168.2656,127.6277 Q167.0938,127.6277 166.3906,128.159 Q165.6875,128.6902 165.3906,129.6433 Q165.0938,130.5965 165.0938,131.8621 Q165.0938,133.8777 165.8125,134.8465 Q166.5313,135.7996 168.125,135.7996 Q168.7188,135.7996 169.3438,135.6433 Q169.9688,135.4871 170.7969,135.1121 L170.7969,137.3308 Q170.0625,137.6433 169.2656,137.7996 Q168.4844,137.9558 167.7188,137.9558 Z " fill="#000000"/><text fill="#000000" font-family="sans-serif" font-size="14" lengthAdjust="spacing" textLength="77" x="200.25" y="129.6559">SwagLights</text><text fill="#000000" font-family="sans-serif" font-size="10" lengthAdjust="spacing" textLength="100" x="188.75" y="144.4479">frc.robot.subsystems</text><line style="stroke:#181818;stroke-width:0.5;" x1="80" x2="365" y1="152.3779" y2="152.3779"/><rect fill="none" height="6" style="stroke:#C82930;stroke-width:1.0;" width="6" x="87" y="164.4119"/><text fill="#000000" font-family="sans-serif" font-size="14" lengthAdjust="spacing" textLength="137" x="99" y="171.3438">serialPort: SerialPort</text><rect fill="none" height="6" style="stroke:#C82930;stroke-width:1.0;" width="6" x="87" y="183.4798"/><text fill="#000000" font-family="sans-serif" font-size="14" lengthAdjust="spacing" textLength="158" x="99" y="190.4118">robotState: RobotStates</text><rect fill="none" height="6" style="stroke:#C82930;stroke-width:1.0;" width="6" x="87" y="202.5477"/><text fill="#000000" font-family="sans-serif" font-size="14" lengthAdjust="spacing" textLength="202" x="99" y="209.4797">operatorState: OperatorStates</text><rect fill="none" height="6" style="stroke:#C82930;stroke-width:1.0;" width="6" x="87" y="221.6156"/><text fill="#000000" font-family="sans-serif" font-size="14" lengthAdjust="spacing" text-decoration="underline" textLength="142" x="99" y="228.5476">instance: SwagLights</text><line style="stroke:#181818;stroke-width:0.5;" x1="80" x2="365" y1="236.6496" y2="236.6496"/><ellipse cx="90" cy="251.6835" fill="#84BE84" rx="3" ry="3" style="stroke:#038048;stroke-width:1.0;"/><text fill="#000000" font-family="sans-serif" font-size="14" lengthAdjust="spacing" text-decoration="underline" textLength="173" x="99" y="255.6155">getInstance(): SwagLights</text><ellipse cx="90" cy="270.7514" fill="#84BE84" rx="3" ry="3" style="stroke:#038048;stroke-width:1.0;"/><text fill="#000000" font-family="sans-serif" font-size="14" lengthAdjust="spacing" textLength="99" x="99" y="274.6834">periodic(): void</text><rect fill="#F24D5C" height="6" style="stroke:#C82930;stroke-width:1.0;" width="6" x="87" y="286.8194"/><text fill="#000000" font-family="sans-serif" font-size="14" lengthAdjust="spacing" textLength="182" x="99" y="293.7513">setLedStates(String...): void</text><ellipse cx="90" cy="308.8873" fill="#84BE84" rx="3" ry="3" style="stroke:#038048;stroke-width:1.0;"/><text fill="#000000" font-family="sans-serif" font-size="14" lengthAdjust="spacing" textLength="138" x="99" y="312.8193">stopSerialPort(): void</text><ellipse cx="90" cy="327.9552" fill="#84BE84" rx="3" ry="3" style="stroke:#038048;stroke-width:1.0;"/><text fill="#000000" font-family="sans-serif" font-size="14" lengthAdjust="spacing" textLength="191" x="99" y="331.8872">getRobotState(): RobotStates</text><ellipse cx="90" cy="347.0231" fill="#84BE84" rx="3" ry="3" style="stroke:#038048;stroke-width:1.0;"/><text fill="#000000" font-family="sans-serif" font-size="14" lengthAdjust="spacing" textLength="217" x="99" y="350.9551">setRobotState(RobotStates): void</text><ellipse cx="90" cy="366.091" fill="#84BE84" rx="3" ry="3" style="stroke:#038048;stroke-width:1.0;"/><text fill="#000000" font-family="sans-serif" font-size="14" lengthAdjust="spacing" textLength="235" x="99" y="370.023">getOperatorState(): OperatorStates</text><ellipse cx="90" cy="385.1589" fill="#84BE84" rx="3" ry="3" style="stroke:#038048;stroke-width:1.0;"/><text fill="#000000" font-family="sans-serif" font-size="14" lengthAdjust="spacing" textLength="261" x="99" y="389.0909">setOperatorState(OperatorStates): void</text></g></a><!--class edu.wpi.first.wpilibj2.command.Subsystem--><g id="elem_edu.wpi.first.wpilibj2.command.Subsystem"><rect codeLine="20" fill="#F1F1F1" height="42.6879" id="edu.wpi.first.wpilibj2.command.Subsystem" rx="2.5" ry="2.5" style="stroke:#181818;stroke-width:0.5;" width="178" x="133.5" y="7"/><ellipse cx="148.5" cy="28.344" fill="#B4A7E5" rx="11" ry="11" style="stroke:#181818;stroke-width:1.0;"/><path d="M144.5313,34.844 L144.5313,33.1408 L146.8906,32.8752 L146.8906,24.6721 L144.5313,24.4065 L144.5313,22.7033 L151.6719,22.7033 L151.6719,24.4065 L149.25,24.6721 L149.25,32.8752 L151.6719,33.1408 L151.6719,34.844 L144.5313,34.844 Z " fill="#000000"/><text fill="#000000" font-family="sans-serif" font-size="14" font-style="italic" lengthAdjust="spacing" textLength="66" x="202.5" y="26.9659">Subsystem</text><text fill="#000000" font-family="sans-serif" font-size="10" font-style="italic" lengthAdjust="spacing" textLength="146" x="162.5" y="41.7579">edu.wpi.first.wpilibj2.command</text></g><!--class frc.robot.subsystems.SwagLights.RobotStates--><a href="SwagLights.RobotStates.html" target="_top" title="SwagLights.RobotStates.html" xlink:actuate="onRequest" xlink:href="SwagLights.RobotStates.html" xlink:show="new" xlink:title="SwagLights.RobotStates.html" xlink:type="simple"><g id="elem_frc.robot.subsystems.SwagLights.RobotStates"><rect codeLine="21" fill="#F1F1F1" height="42.6879" id="frc.robot.subsystems.SwagLights.RobotStates" rx="2.5" ry="2.5" style="stroke:#181818;stroke-width:0.5;" width="193" x="7" y="457.19"/><ellipse cx="22" cy="478.534" fill="#EB937F" rx="11" ry="11" style="stroke:#181818;stroke-width:1.0;"/><path d="M18.3594,485.034 L18.3594,472.8933 L26.0156,472.8933 L26.0156,475.0183 L20.7344,475.0183 L20.7344,477.6746 L25.75,477.6746 L25.75,479.7996 L20.7344,479.7996 L20.7344,482.909 L26.0156,482.909 L26.0156,485.034 L18.3594,485.034 Z " fill="#000000"/><text fill="#000000" font-family="sans-serif" font-size="14" lengthAdjust="spacing" textLength="161" x="36" y="477.1559">SwagLights.RobotStates</text><text fill="#000000" font-family="sans-serif" font-size="10" lengthAdjust="spacing" textLength="100" x="66.5" y="491.9479">frc.robot.subsystems</text></g></a><!--class frc.robot.subsystems.SwagLights.OperatorStates--><a href="SwagLights.OperatorStates.html" target="_top" title="SwagLights.OperatorStates.html" xlink:actuate="onRequest" xlink:href="SwagLights.OperatorStates.html" xlink:show="new" xlink:title="SwagLights.OperatorStates.html" xlink:type="simple"><g id="elem_frc.robot.subsystems.SwagLights.OperatorStates"><rect codeLine="22" fill="#F1F1F1" height="42.6879" id="frc.robot.subsystems.SwagLights.OperatorStates" rx="2.5" ry="2.5" style="stroke:#181818;stroke-width:0.5;" width="215" x="235" y="457.19"/><ellipse cx="250" cy="478.534" fill="#EB937F" rx="11" ry="11" style="stroke:#181818;stroke-width:1.0;"/><path d="M246.3594,485.034 L246.3594,472.8933 L254.0156,472.8933 L254.0156,475.0183 L248.7344,475.0183 L248.7344,477.6746 L253.75,477.6746 L253.75,479.7996 L248.7344,479.7996 L248.7344,482.909 L254.0156,482.909 L254.0156,485.034 L246.3594,485.034 Z " fill="#000000"/><text fill="#000000" font-family="sans-serif" font-size="14" lengthAdjust="spacing" textLength="183" x="264" y="477.1559">SwagLights.OperatorStates</text><text fill="#000000" font-family="sans-serif" font-size="10" lengthAdjust="spacing" textLength="100" x="305.5" y="491.9479">frc.robot.subsystems</text></g></a><!--reverse link edu.wpi.first.wpilibj2.command.Subsystem to frc.robot.subsystems.SwagLights--><g id="link_edu.wpi.first.wpilibj2.command.Subsystem_frc.robot.subsystems.SwagLights"><path codeLine="24" d="M222.5,67.93 C222.5,82.66 222.5,85.92 222.5,109.2 " fill="none" id="edu.wpi.first.wpilibj2.command.Subsystem-backto-frc.robot.subsystems.SwagLights" style="stroke:#181818;stroke-width:1.0;stroke-dasharray:7.0,7.0;"/><polygon fill="none" points="222.5,49.93,216.5,67.93,228.5,67.93,222.5,49.93" style="stroke:#181818;stroke-width:1.0;"/></g><!--reverse link frc.robot.subsystems.SwagLights to frc.robot.subsystems.SwagLights.RobotStates--><g id="link_frc.robot.subsystems.SwagLights_frc.robot.subsystems.SwagLights.RobotStates"><path codeLine="25" d="M138.5959,411.7351 C126.1859,434.9851 122.39,442.13 114.53,456.86 " fill="none" id="frc.robot.subsystems.SwagLights-backto-frc.robot.subsystems.SwagLights.RobotStates" style="stroke:#181818;stroke-width:1.0;"/><ellipse cx="142.3629" cy="404.6776" fill="#FFFFFF" rx="8" ry="8" style="stroke:#181818;stroke-width:1.0;"/><line style="stroke:#181818;stroke-width:1.0;" x1="138.5959" x2="146.13" y1="411.7351" y2="397.62"/><line style="stroke:#181818;stroke-width:1.0;" x1="135.3054" x2="149.4205" y1="400.9105" y2="408.4446"/></g><!--reverse link frc.robot.subsystems.SwagLights to frc.robot.subsystems.SwagLights.OperatorStates--><g id="link_frc.robot.subsystems.SwagLights_frc.robot.subsystems.SwagLights.OperatorStates"><path codeLine="26" d="M307.0966,411.7124 C319.5966,434.9624 323.45,442.13 331.38,456.86 " fill="none" id="frc.robot.subsystems.SwagLights-backto-frc.robot.subsystems.SwagLights.OperatorStates" style="stroke:#181818;stroke-width:1.0;"/><ellipse cx="303.3083" cy="404.6662" fill="#FFFFFF" rx="8" ry="8" style="stroke:#181818;stroke-width:1.0;"/><line style="stroke:#181818;stroke-width:1.0;" x1="307.0966" x2="299.52" y1="411.7124" y2="397.62"/><line style="stroke:#181818;stroke-width:1.0;" x1="296.2621" x2="310.3545" y1="408.4545" y2="400.8779"/></g><text fill="#888888" font-family="sans-serif" font-size="10" lengthAdjust="spacing" textLength="176" x="133.5" y="515.5679">UMLDoclet 2.1.2, PlantUML 1.2024.3</text><!--SRC=[hLHDImCn4BtxAmP1gAmDMZmLyUH5g2WkdjH3cfrj8xl9afagVlrtastj9hfQXUvb9pEFbpUFHm0021cCh94QgJ37HZh9re6n1dVy6EQwGC2wuMSeDLO5VUtMo7FhssrVLP88Taz8l-3uwFWqVvApYPxDcUxCgdbuMZebd9rQ5hIOqZCnrhGBag1l83eAkBtj3cBETNL_3w_jlU4R4ZejgolhU0pvkkxcBNNEad4Cr-kQEe1jiDr-XRcCZntibVnPgtSOQkDBepoqq_KTbisGprV8mNulDlCtQLje5UQFLXVnKZp1OYbXaBFJPYQ4-0hBY6tJxVoD9cZeLWxZFWCoIb0Hf8yliITG_k1NO4snAJ3cVb_6I1j6L_f0nb7wZ4IK92mMugdHejIEE5ILdZwCXB9rBKtHPkftY5YpjlUYMTIzwHMH5rj8SaoNfZeQh1A-GLZgvJQqfOofl7JsgN0fyOz6mycR49j4j8oRdeDiEFoFqLlZxCcvmf1OAAqDlvkBoPbLbNzPH-98Z0xWgfA6VHVs7j6HjcQm_m40]--></g></svg>