<?xml version="1.0" encoding="us-ascii" standalone="no"?><svg xmlns="http://www.w3.org/2000/svg" xmlns:xlink="http://www.w3.org/1999/xlink" contentStyleType="text/css" height="310px" preserveAspectRatio="none" style="width:229px;height:310px;background:#FFFFFF;" version="1.1" viewBox="0 0 229 310" width="229px" zoomAndPan="magnify"><defs/><g><!--class frc.robot.subsystems.SwagLights.OperatorStates--><a href="SwagLights.OperatorStates.html" target="_top" title="SwagLights.OperatorStates.html" xlink:actuate="onRequest" xlink:href="SwagLights.OperatorStates.html" xlink:show="new" xlink:title="SwagLights.OperatorStates.html" xlink:type="simple"><g id="elem_frc.robot.subsystems.SwagLights.OperatorStates"><rect codeLine="5" fill="#F1F1F1" height="173.0954" id="frc.robot.subsystems.SwagLights.OperatorStates" rx="2.5" ry="2.5" style="stroke:#181818;stroke-width:0.5;" width="215" x="7" y="109.68"/><ellipse cx="22" cy="131.024" fill="#EB937F" rx="11" ry="11" style="stroke:#181818;stroke-width:1.0;"/><path d="M18.3594,137.524 L18.3594,125.3833 L26.0156,125.3833 L26.0156,127.5083 L20.7344,127.5083 L20.7344,130.1646 L25.75,130.1646 L25.75,132.2896 L20.7344,132.2896 L20.7344,135.399 L26.0156,135.399 L26.0156,137.524 L18.3594,137.524 Z " fill="#000000"/><text fill="#000000" font-family="sans-serif" font-size="14" lengthAdjust="spacing" textLength="183" x="36" y="129.6459">SwagLights.OperatorStates</text><text fill="#000000" font-family="sans-serif" font-size="10" lengthAdjust="spacing" textLength="100" x="77.5" y="144.4379">frc.robot.subsystems</text><line style="stroke:#181818;stroke-width:0.5;" x1="8" x2="221" y1="152.3679" y2="152.3679"/><ellipse cx="18" cy="167.4019" fill="none" rx="3" ry="3" style="stroke:#038048;stroke-width:1.0;"/><text fill="#000000" font-family="sans-serif" font-size="14" lengthAdjust="spacing" text-decoration="underline" textLength="49" x="27" y="171.3338">Default</text><ellipse cx="18" cy="186.4698" fill="none" rx="3" ry="3" style="stroke:#038048;stroke-width:1.0;"/><text fill="#000000" font-family="sans-serif" font-size="14" lengthAdjust="spacing" text-decoration="underline" textLength="57" x="27" y="190.4018">Aligning</text><ellipse cx="18" cy="205.5377" fill="none" rx="3" ry="3" style="stroke:#038048;stroke-width:1.0;"/><text fill="#000000" font-family="sans-serif" font-size="14" lengthAdjust="spacing" text-decoration="underline" textLength="52" x="27" y="209.4697">Aligned</text><ellipse cx="18" cy="224.6056" fill="none" rx="3" ry="3" style="stroke:#038048;stroke-width:1.0;"/><text fill="#000000" font-family="sans-serif" font-size="14" lengthAdjust="spacing" text-decoration="underline" textLength="60" x="27" y="228.5376">TooClose</text><ellipse cx="18" cy="243.6735" fill="none" rx="3" ry="3" style="stroke:#038048;stroke-width:1.0;"/><text fill="#000000" font-family="sans-serif" font-size="14" lengthAdjust="spacing" textLength="85" x="27" y="247.6055">value: String</text><line style="stroke:#181818;stroke-width:0.5;" x1="8" x2="221" y1="255.7075" y2="255.7075"/><rect fill="#F24D5C" height="6" style="stroke:#C82930;stroke-width:1.0;" width="6" x="15" y="267.7414"/><text fill="#000000" font-family="sans-serif" font-size="14" lengthAdjust="spacing" textLength="151" x="27" y="274.6734">OperatorStates(String)</text></g></a><!--class frc.robot.subsystems.SwagLights--><a href="SwagLights.html" target="_top" title="SwagLights.html" xlink:actuate="onRequest" xlink:href="SwagLights.html" xlink:show="new" xlink:title="SwagLights.html" xlink:type="simple"><g id="elem_frc.robot.subsystems.SwagLights"><rect codeLine="14" fill="#F1F1F1" height="42.6879" id="frc.robot.subsystems.SwagLights" rx="2.5" ry="2.5" style="stroke:#181818;stroke-width:0.5;" width="132" x="48.5" y="7"/><ellipse cx="63.5" cy="28.344" fill="#ADD1B2" rx="11" ry="11" style="stroke:#181818;stroke-width:1.0;"/><path d="M62.9688,35.2658 Q61.2188,35.2658 60.0781,34.5315 Q58.9531,33.7815 58.3906,32.4377 Q57.8438,31.0783 57.8438,29.2815 Q57.8438,27.2502 58.5,25.7971 Q59.1563,24.344 60.4375,23.5627 Q61.7188,22.7815 63.5938,22.7815 Q64.4844,22.7815 65.1563,22.969 Q65.8281,23.1408 66.5156,23.4846 L65.7031,25.5002 Q65.0781,25.1877 64.5313,25.0627 Q64,24.9377 63.5156,24.9377 Q62.3438,24.9377 61.6406,25.469 Q60.9375,26.0002 60.6406,26.9533 Q60.3438,27.9065 60.3438,29.1721 Q60.3438,31.1877 61.0625,32.1565 Q61.7813,33.1096 63.375,33.1096 Q63.9688,33.1096 64.5938,32.9533 Q65.2188,32.7971 66.0469,32.4221 L66.0469,34.6408 Q65.3125,34.9533 64.5156,35.1096 Q63.7344,35.2658 62.9688,35.2658 Z " fill="#000000"/><text fill="#000000" font-family="sans-serif" font-size="14" lengthAdjust="spacing" textLength="77" x="89" y="26.9659">SwagLights</text><text fill="#000000" font-family="sans-serif" font-size="10" lengthAdjust="spacing" textLength="100" x="77.5" y="41.7579">frc.robot.subsystems</text></g></a><!--reverse link frc.robot.subsystems.SwagLights to frc.robot.subsystems.SwagLights.OperatorStates--><g id="link_frc.robot.subsystems.SwagLights_frc.robot.subsystems.SwagLights.OperatorStates"><path codeLine="16" d="M114.5,66.02 C114.5,81.3 114.5,87.24 114.5,109.45 " fill="none" id="frc.robot.subsystems.SwagLights-backto-frc.robot.subsystems.SwagLights.OperatorStates" style="stroke:#181818;stroke-width:1.0;"/><ellipse cx="114.5" cy="58.02" fill="#FFFFFF" rx="8" ry="8" style="stroke:#181818;stroke-width:1.0;"/><line style="stroke:#181818;stroke-width:1.0;" x1="114.5" x2="114.5" y1="66.02" y2="50.02"/><line style="stroke:#181818;stroke-width:1.0;" x1="106.5" x2="122.5" y1="58.02" y2="58.02"/></g><text fill="#888888" font-family="sans-serif" font-size="10" lengthAdjust="spacing" textLength="176" x="19.5" y="299.4654">UMLDoclet 2.1.2, PlantUML 1.2024.3</text><!--SRC=[hPBHIyCm4CRV_IkEWR1H6zpmQSX0tED4eVeqzv2rrpQGv4hkEfbZ_xjTA-AaHGJpSl3zBbykNm80m2ZWjKEkT8e9LZfeeG2UF5uq64gJ8Q2hP0-vGPlnJzMXbDJ8hOw-TZ2wPVEEy-dD8ddJnSeKfR1whB1rJaGBygl_xBbUv25LWROaYkijxrdGyGWqGnzGWuwmNWyoLOgpcmqSsXbFwy0DCEaHeYNckhRIG-wiARpnnH32h8Sy4zrROln2qKxR6kUGIFZk5PzFEExmfEN7BilKQkRUCFyXlVEukdowOt_R6CNn7v-ckmrwmG0vqQcyFAoMbDhcxytKLCskuCbgBuqAbpiCRCYF9ny0]--></g></svg>