<?xml version="1.0" encoding="us-ascii" standalone="no"?><svg xmlns="http://www.w3.org/2000/svg" xmlns:xlink="http://www.w3.org/1999/xlink" contentStyleType="text/css" height="423px" preserveAspectRatio="none" style="width:457px;height:423px;background:#FFFFFF;" version="1.1" viewBox="0 0 457 423" width="457px" zoomAndPan="magnify"><defs/><g><!--class frc.robot.subsystems.SwagLights--><a href="SwagLights.html" target="_top" title="SwagLights.html" xlink:actuate="onRequest" xlink:href="SwagLights.html" xlink:show="new" xlink:title="SwagLights.html" xlink:type="simple"><g id="elem_frc.robot.subsystems.SwagLights"><rect codeLine="5" fill="#F1F1F1" height="184.1633" id="frc.robot.subsystems.SwagLights" rx="2.5" ry="2.5" style="stroke:#181818;stroke-width:0.5;" width="287" x="79" y="109.69"/><ellipse cx="168.25" cy="131.034" fill="#ADD1B2" rx="11" ry="11" style="stroke:#181818;stroke-width:1.0;"/><path d="M167.7188,137.9558 Q165.9688,137.9558 164.8281,137.2215 Q163.7031,136.4715 163.1406,135.1277 Q162.5938,133.7683 162.5938,131.9715 Q162.5938,129.9402 163.25,128.4871 Q163.9063,127.034 165.1875,126.2527 Q166.4688,125.4715 168.3438,125.4715 Q169.2344,125.4715 169.9063,125.659 Q170.5781,125.8308 171.2656,126.1746 L170.4531,128.1902 Q169.8281,127.8777 169.2813,127.7527 Q168.75,127.6277 168.2656,127.6277 Q167.0938,127.6277 166.3906,128.159 Q165.6875,128.6902 165.3906,129.6433 Q165.0938,130.5965 165.0938,131.8621 Q165.0938,133.8777 165.8125,134.8465 Q166.5313,135.7996 168.125,135.7996 Q168.7188,135.7996 169.3438,135.6433 Q169.9688,135.4871 170.7969,135.1121 L170.7969,137.3308 Q170.0625,137.6433 169.2656,137.7996 Q168.4844,137.9558 167.7188,137.9558 Z " fill="#000000"/><text fill="#000000" font-family="sans-serif" font-size="14" lengthAdjust="spacing" textLength="77" x="200.25" y="129.6559">SwagLights</text><text fill="#000000" font-family="sans-serif" font-size="10" lengthAdjust="spacing" textLength="100" x="188.75" y="144.4479">frc.robot.subsystems</text><line style="stroke:#181818;stroke-width:0.5;" x1="80" x2="365" y1="152.3779" y2="152.3779"/><ellipse cx="90" cy="167.4119" fill="#84BE84" rx="3" ry="3" style="stroke:#038048;stroke-width:1.0;"/><text fill="#000000" font-family="sans-serif" font-size="14" lengthAdjust="spacing" text-decoration="underline" textLength="173" x="99" y="171.3438">getInstance(): SwagLights</text><ellipse cx="90" cy="186.4798" fill="#84BE84" rx="3" ry="3" style="stroke:#038048;stroke-width:1.0;"/><text fill="#000000" font-family="sans-serif" font-size="14" lengthAdjust="spacing" textLength="99" x="99" y="190.4118">periodic(): void</text><ellipse cx="90" cy="205.5477" fill="#84BE84" rx="3" ry="3" style="stroke:#038048;stroke-width:1.0;"/><text fill="#000000" font-family="sans-serif" font-size="14" lengthAdjust="spacing" textLength="138" x="99" y="209.4797">stopSerialPort(): void</text><ellipse cx="90" cy="224.6156" fill="#84BE84" rx="3" ry="3" style="stroke:#038048;stroke-width:1.0;"/><text fill="#000000" font-family="sans-serif" font-size="14" lengthAdjust="spacing" textLength="191" x="99" y="228.5476">getRobotState(): RobotStates</text><ellipse cx="90" cy="243.6835" fill="#84BE84" rx="3" ry="3" style="stroke:#038048;stroke-width:1.0;"/><text fill="#000000" font-family="sans-serif" font-size="14" lengthAdjust="spacing" textLength="217" x="99" y="247.6155">setRobotState(RobotStates): void</text><ellipse cx="90" cy="262.7514" fill="#84BE84" rx="3" ry="3" style="stroke:#038048;stroke-width:1.0;"/><text fill="#000000" font-family="sans-serif" font-size="14" lengthAdjust="spacing" textLength="235" x="99" y="266.6834">getOperatorState(): OperatorStates</text><ellipse cx="90" cy="281.8194" fill="#84BE84" rx="3" ry="3" style="stroke:#038048;stroke-width:1.0;"/><text fill="#000000" font-family="sans-serif" font-size="14" lengthAdjust="spacing" textLength="261" x="99" y="285.7513">setOperatorState(OperatorStates): void</text></g></a><!--class edu.wpi.first.wpilibj2.command.Subsystem--><g id="elem_edu.wpi.first.wpilibj2.command.Subsystem"><rect codeLine="15" fill="#F1F1F1" height="42.6879" id="edu.wpi.first.wpilibj2.command.Subsystem" rx="2.5" ry="2.5" style="stroke:#181818;stroke-width:0.5;" width="178" x="133.5" y="7"/><ellipse cx="148.5" cy="28.344" fill="#B4A7E5" rx="11" ry="11" style="stroke:#181818;stroke-width:1.0;"/><path d="M144.5313,34.844 L144.5313,33.1408 L146.8906,32.8752 L146.8906,24.6721 L144.5313,24.4065 L144.5313,22.7033 L151.6719,22.7033 L151.6719,24.4065 L149.25,24.6721 L149.25,32.8752 L151.6719,33.1408 L151.6719,34.844 L144.5313,34.844 Z " fill="#000000"/><text fill="#000000" font-family="sans-serif" font-size="14" font-style="italic" lengthAdjust="spacing" textLength="66" x="202.5" y="26.9659">Subsystem</text><text fill="#000000" font-family="sans-serif" font-size="10" font-style="italic" lengthAdjust="spacing" textLength="146" x="162.5" y="41.7579">edu.wpi.first.wpilibj2.command</text></g><!--class frc.robot.subsystems.SwagLights.RobotStates--><a href="SwagLights.RobotStates.html" target="_top" title="SwagLights.RobotStates.html" xlink:actuate="onRequest" xlink:href="SwagLights.RobotStates.html" xlink:show="new" xlink:title="SwagLights.RobotStates.html" xlink:type="simple"><g id="elem_frc.robot.subsystems.SwagLights.RobotStates"><rect codeLine="16" fill="#F1F1F1" height="42.6879" id="frc.robot.subsystems.SwagLights.RobotStates" rx="2.5" ry="2.5" style="stroke:#181818;stroke-width:0.5;" width="193" x="7" y="353.85"/><ellipse cx="22" cy="375.194" fill="#EB937F" rx="11" ry="11" style="stroke:#181818;stroke-width:1.0;"/><path d="M18.3594,381.694 L18.3594,369.5533 L26.0156,369.5533 L26.0156,371.6783 L20.7344,371.6783 L20.7344,374.3346 L25.75,374.3346 L25.75,376.4596 L20.7344,376.4596 L20.7344,379.569 L26.0156,379.569 L26.0156,381.694 L18.3594,381.694 Z " fill="#000000"/><text fill="#000000" font-family="sans-serif" font-size="14" lengthAdjust="spacing" textLength="161" x="36" y="373.8159">SwagLights.RobotStates</text><text fill="#000000" font-family="sans-serif" font-size="10" lengthAdjust="spacing" textLength="100" x="66.5" y="388.6079">frc.robot.subsystems</text></g></a><!--class frc.robot.subsystems.SwagLights.OperatorStates--><a href="SwagLights.OperatorStates.html" target="_top" title="SwagLights.OperatorStates.html" xlink:actuate="onRequest" xlink:href="SwagLights.OperatorStates.html" xlink:show="new" xlink:title="SwagLights.OperatorStates.html" xlink:type="simple"><g id="elem_frc.robot.subsystems.SwagLights.OperatorStates"><rect codeLine="17" fill="#F1F1F1" height="42.6879" id="frc.robot.subsystems.SwagLights.OperatorStates" rx="2.5" ry="2.5" style="stroke:#181818;stroke-width:0.5;" width="215" x="235" y="353.85"/><ellipse cx="250" cy="375.194" fill="#EB937F" rx="11" ry="11" style="stroke:#181818;stroke-width:1.0;"/><path d="M246.3594,381.694 L246.3594,369.5533 L254.0156,369.5533 L254.0156,371.6783 L248.7344,371.6783 L248.7344,374.3346 L253.75,374.3346 L253.75,376.4596 L248.7344,376.4596 L248.7344,379.569 L254.0156,379.569 L254.0156,381.694 L246.3594,381.694 Z " fill="#000000"/><text fill="#000000" font-family="sans-serif" font-size="14" lengthAdjust="spacing" textLength="183" x="264" y="373.8159">SwagLights.OperatorStates</text><text fill="#000000" font-family="sans-serif" font-size="10" lengthAdjust="spacing" textLength="100" x="305.5" y="388.6079">frc.robot.subsystems</text></g></a><!--reverse link edu.wpi.first.wpilibj2.command.Subsystem to frc.robot.subsystems.SwagLights--><g id="link_edu.wpi.first.wpilibj2.command.Subsystem_frc.robot.subsystems.SwagLights"><path codeLine="19" d="M222.5,68.02 C222.5,83.25 222.5,87.12 222.5,109.5 " fill="none" id="edu.wpi.first.wpilibj2.command.Subsystem-backto-frc.robot.subsystems.SwagLights" style="stroke:#181818;stroke-width:1.0;stroke-dasharray:7.0,7.0;"/><polygon fill="none" points="222.5,50.02,216.5,68.02,228.5,68.02,222.5,50.02" style="stroke:#181818;stroke-width:1.0;"/></g><!--reverse link frc.robot.subsystems.SwagLights to frc.robot.subsystems.SwagLights.RobotStates--><g id="link_frc.robot.subsystems.SwagLights_frc.robot.subsystems.SwagLights.RobotStates"><path codeLine="20" d="M149.8692,307.3957 C134.3692,329.7357 128.34,338.41 117.8,353.59 " fill="none" id="frc.robot.subsystems.SwagLights-backto-frc.robot.subsystems.SwagLights.RobotStates" style="stroke:#181818;stroke-width:1.0;"/><ellipse cx="154.4296" cy="300.8229" fill="#FFFFFF" rx="8" ry="8" style="stroke:#181818;stroke-width:1.0;"/><line style="stroke:#181818;stroke-width:1.0;" x1="149.8692" x2="158.99" y1="307.3957" y2="294.25"/><line style="stroke:#181818;stroke-width:1.0;" x1="147.8567" x2="161.0025" y1="296.2625" y2="305.3833"/></g><!--reverse link frc.robot.subsystems.SwagLights to frc.robot.subsystems.SwagLights.OperatorStates--><g id="link_frc.robot.subsystems.SwagLights_frc.robot.subsystems.SwagLights.OperatorStates"><path codeLine="21" d="M295.7162,307.3572 C311.3562,329.6972 317.45,338.41 328.08,353.59 " fill="none" id="frc.robot.subsystems.SwagLights-backto-frc.robot.subsystems.SwagLights.OperatorStates" style="stroke:#181818;stroke-width:1.0;"/><ellipse cx="291.1281" cy="300.8036" fill="#FFFFFF" rx="8" ry="8" style="stroke:#181818;stroke-width:1.0;"/><line style="stroke:#181818;stroke-width:1.0;" x1="295.7162" x2="286.54" y1="307.3572" y2="294.25"/><line style="stroke:#181818;stroke-width:1.0;" x1="284.5745" x2="297.6817" y1="305.3917" y2="296.2155"/></g><text fill="#888888" font-family="sans-serif" font-size="10" lengthAdjust="spacing" textLength="176" x="133.5" y="412.2279">UMLDoclet 2.1.2, PlantUML 1.2024.3</text><!--SRC=[hPHDJy9048Rl_ee9YGa4sGZnP0WdBoOOYOqdvB1iftHDkzliB114_hlRyj5TRKGJUcbttkapRsQc1G0WjA1uZbHmWH4Mt72h3IYjyCh9aCeO0VF2RY2HcCNqFPgZJRKBLt6HSI9e3Kb-u7t_RXIj-M8i5wcbDtK8teuI8vZHSsqPBUUq8OivjO0JD0ciHi1qMXzOQlDiDeDjLRUyjcIvbM87tGNQH-LEIc2xSm_rIwVSRe56wbYAKbzf6TSAMLr4JkNPH1lxKtVmbz9ZvAfL-FhayId8ybAQUC_EJTdr4p88XDGmDqpqsRlzGAIoQ18tMdyen-PwCy5uoTQ5P8aqPCkdJCxV1qpeFESghgRpUmexKQkwg9PvunumhnSNs0aV5-w79nnsvOoni9UNy1OIGtkXTdIuj_Z7HiFmax5p9YhYkG-hs-lzfz4NOpRikS1oOo7HkhozFeqVjCZSFsh0-cnm0vECA-kYSBr2GrAhTkSB]--></g></svg>