<?xml version="1.0" encoding="us-ascii" standalone="no"?><svg xmlns="http://www.w3.org/2000/svg" xmlns:xlink="http://www.w3.org/1999/xlink" contentStyleType="text/css" height="501px" preserveAspectRatio="none" style="width:968px;height:501px;background:#FFFFFF;" version="1.1" viewBox="0 0 968 501" width="968px" zoomAndPan="magnify"><defs/><g><!--class frc.robot.subsystems.Vision--><a href="Vision.html" target="_top" title="Vision.html" xlink:actuate="onRequest" xlink:href="Vision.html" xlink:show="new" xlink:title="Vision.html" xlink:type="simple"><g id="elem_frc.robot.subsystems.Vision"><rect codeLine="5" fill="#F1F1F1" height="363.7746" id="frc.robot.subsystems.Vision" rx="2.5" ry="2.5" style="stroke:#181818;stroke-width:0.5;" width="954" x="7" y="109.69"/><ellipse cx="429.75" cy="131.034" fill="#ADD1B2" rx="11" ry="11" style="stroke:#181818;stroke-width:1.0;"/><path d="M429.2188,137.9558 Q427.4688,137.9558 426.3281,137.2215 Q425.2031,136.4715 424.6406,135.1277 Q424.0938,133.7683 424.0938,131.9715 Q424.0938,129.9402 424.75,128.4871 Q425.4063,127.034 426.6875,126.2527 Q427.9688,125.4715 429.8438,125.4715 Q430.7344,125.4715 431.4063,125.659 Q432.0781,125.8308 432.7656,126.1746 L431.9531,128.1902 Q431.3281,127.8777 430.7813,127.7527 Q430.25,127.6277 429.7656,127.6277 Q428.5938,127.6277 427.8906,128.159 Q427.1875,128.6902 426.8906,129.6433 Q426.5938,130.5965 426.5938,131.8621 Q426.5938,133.8777 427.3125,134.8465 Q428.0313,135.7996 429.625,135.7996 Q430.2188,135.7996 430.8438,135.6433 Q431.4688,135.4871 432.2969,135.1121 L432.2969,137.3308 Q431.5625,137.6433 430.7656,137.7996 Q429.9844,137.9558 429.2188,137.9558 Z " fill="#000000"/><text fill="#000000" font-family="sans-serif" font-size="14" lengthAdjust="spacing" textLength="40" x="480.25" y="129.6559">Vision</text><text fill="#000000" font-family="sans-serif" font-size="10" lengthAdjust="spacing" textLength="100" x="450.25" y="144.4479">frc.robot.subsystems</text><line style="stroke:#181818;stroke-width:0.5;" x1="8" x2="960" y1="152.3779" y2="152.3779"/><rect fill="none" height="6" style="stroke:#C82930;stroke-width:1.0;" width="6" x="15" y="164.4119"/><text fill="#000000" font-family="sans-serif" font-size="14" lengthAdjust="spacing" textLength="170" x="27" y="171.3438">frontCam: PhotonCamera</text><rect fill="none" height="6" style="stroke:#C82930;stroke-width:1.0;" width="6" x="15" y="183.4798"/><text fill="#000000" font-family="sans-serif" font-size="14" lengthAdjust="spacing" textLength="168" x="27" y="190.4118">backCam: PhotonCamera</text><rect fill="none" height="6" style="stroke:#C82930;stroke-width:1.0;" width="6" x="15" y="202.5477"/><text fill="#000000" font-family="sans-serif" font-size="14" lengthAdjust="spacing" textLength="324" x="27" y="209.4797">frontCamPhotonEstimator: PhotonPoseEstimator</text><rect fill="none" height="6" style="stroke:#C82930;stroke-width:1.0;" width="6" x="15" y="221.6156"/><text fill="#000000" font-family="sans-serif" font-size="14" lengthAdjust="spacing" textLength="322" x="27" y="228.5476">backCamPhotonEstimator: PhotonPoseEstimator</text><rect fill="none" height="6" style="stroke:#C82930;stroke-width:1.0;" width="6" x="15" y="240.6835"/><text fill="#000000" font-family="sans-serif" font-size="14" lengthAdjust="spacing" textLength="224" x="27" y="247.6155">frontCurStdDevs: Matrix&lt;N3, N1&gt;</text><rect fill="none" height="6" style="stroke:#C82930;stroke-width:1.0;" width="6" x="15" y="259.7514"/><text fill="#000000" font-family="sans-serif" font-size="14" lengthAdjust="spacing" textLength="222" x="27" y="266.6834">backCurStdDevs: Matrix&lt;N3, N1&gt;</text><rect fill="none" height="6" style="stroke:#C82930;stroke-width:1.0;" width="6" x="15" y="278.8194"/><text fill="#000000" font-family="sans-serif" font-size="14" lengthAdjust="spacing" textLength="318" x="27" y="285.7513">frontStdDevSetter: Consumer&lt;Matrix&lt;N3, N1&gt;&gt;</text><rect fill="none" height="6" style="stroke:#C82930;stroke-width:1.0;" width="6" x="15" y="297.8873"/><text fill="#000000" font-family="sans-serif" font-size="14" lengthAdjust="spacing" textLength="316" x="27" y="304.8193">backStdDevSetter: Consumer&lt;Matrix&lt;N3, N1&gt;&gt;</text><rect fill="none" height="6" style="stroke:#C82930;stroke-width:1.0;" width="6" x="15" y="316.9552"/><text fill="#000000" font-family="sans-serif" font-size="14" lengthAdjust="spacing" text-decoration="underline" textLength="105" x="27" y="323.8872">instance: Vision</text><line style="stroke:#181818;stroke-width:0.5;" x1="8" x2="960" y1="331.9892" y2="331.9892"/><ellipse cx="18" cy="347.0231" fill="#84BE84" rx="3" ry="3" style="stroke:#038048;stroke-width:1.0;"/><text fill="#000000" font-family="sans-serif" font-size="14" lengthAdjust="spacing" text-decoration="underline" textLength="136" x="27" y="350.9551">getInstance(): Vision</text><rect fill="#F24D5C" height="6" style="stroke:#C82930;stroke-width:1.0;" width="6" x="15" y="363.091"/><text fill="#000000" font-family="sans-serif" font-size="14" lengthAdjust="spacing" textLength="928" x="27" y="370.023">estimateCameraPose(PhotonCamera, PhotonPoseEstimator, Matrix&lt;N3, N1&gt;, Consumer&lt;Matrix&lt;N3, N1&gt;&gt;): Optional&lt;EstimatedRobotPose&gt;</text><ellipse cx="18" cy="385.1589" fill="#84BE84" rx="3" ry="3" style="stroke:#038048;stroke-width:1.0;"/><text fill="#000000" font-family="sans-serif" font-size="14" lengthAdjust="spacing" textLength="454" x="27" y="389.0909">frontCamGetEstimatedGlobalPose(): Optional&lt;EstimatedRobotPose&gt;</text><ellipse cx="18" cy="404.2269" fill="#84BE84" rx="3" ry="3" style="stroke:#038048;stroke-width:1.0;"/><text fill="#000000" font-family="sans-serif" font-size="14" lengthAdjust="spacing" textLength="452" x="27" y="408.1588">backCamGetEstimatedGlobalPose(): Optional&lt;EstimatedRobotPose&gt;</text><rect fill="#F24D5C" height="6" style="stroke:#C82930;stroke-width:1.0;" width="6" x="15" y="420.2948"/><text fill="#000000" font-family="sans-serif" font-size="14" lengthAdjust="spacing" textLength="846" x="27" y="427.2268">updateEstimationStdDevs(PhotonPoseEstimator, Optional&lt;EstimatedRobotPose&gt;, List&lt;PhotonTrackedTarget&gt;): Matrix&lt;N3, N1&gt;</text><ellipse cx="18" cy="442.3627" fill="#84BE84" rx="3" ry="3" style="stroke:#038048;stroke-width:1.0;"/><text fill="#000000" font-family="sans-serif" font-size="14" lengthAdjust="spacing" textLength="303" x="27" y="446.2947">getFrontEstimationStdDevs(): Matrix&lt;N3, N1&gt;</text><ellipse cx="18" cy="461.4306" fill="#84BE84" rx="3" ry="3" style="stroke:#038048;stroke-width:1.0;"/><text fill="#000000" font-family="sans-serif" font-size="14" lengthAdjust="spacing" textLength="299" x="27" y="465.3626">getBackEstimationStdDevs(): Matrix&lt;N3, N1&gt;</text></g></a><!--class edu.wpi.first.wpilibj2.command.SubsystemBase--><g id="elem_edu.wpi.first.wpilibj2.command.SubsystemBase"><rect codeLine="24" fill="#F1F1F1" height="42.6879" id="edu.wpi.first.wpilibj2.command.SubsystemBase" rx="2.5" ry="2.5" style="stroke:#181818;stroke-width:0.5;" width="178" x="395" y="7"/><ellipse cx="410" cy="28.344" fill="#A9DCDF" rx="11" ry="11" style="stroke:#181818;stroke-width:1.0;"/><path d="M405.1719,34.094 L408.5156,21.9065 L411.6563,21.9065 L415.0313,34.094 L412.5625,34.094 L411.8281,31.0783 L408.3125,31.0783 L407.5625,34.094 L405.1719,34.094 Z M409.5781,26.0471 L408.8281,29.0471 L411.3438,29.0471 L410.625,26.0471 Q410.4844,25.469 410.3594,24.9221 Q410.2344,24.3596 410.0938,23.7815 Q409.9844,24.3596 409.8438,24.9221 Q409.7031,25.469 409.5781,26.0471 Z " fill="#000000"/><text fill="#000000" font-family="sans-serif" font-size="14" font-style="italic" lengthAdjust="spacing" textLength="95" x="449.5" y="26.9659">SubsystemBase</text><text fill="#000000" font-family="sans-serif" font-size="10" font-style="italic" lengthAdjust="spacing" textLength="146" x="424" y="41.7579">edu.wpi.first.wpilibj2.command</text></g><!--reverse link edu.wpi.first.wpilibj2.command.SubsystemBase to frc.robot.subsystems.Vision--><g id="link_edu.wpi.first.wpilibj2.command.SubsystemBase_frc.robot.subsystems.Vision"><path codeLine="26" d="M484,67.84 C484,82.39 484,85.51 484,109.28 " fill="none" id="edu.wpi.first.wpilibj2.command.SubsystemBase-backto-frc.robot.subsystems.Vision" style="stroke:#181818;stroke-width:1.0;"/><polygon fill="none" points="484,49.84,478,67.84,490,67.84,484,49.84" style="stroke:#181818;stroke-width:1.0;"/></g><text fill="#888888" font-family="sans-serif" font-size="10" lengthAdjust="spacing" textLength="176" x="389" y="490.1546">UMLDoclet 2.1.2, PlantUML 1.2024.3</text><!--SRC=[fLHDRzim3BtlLn051gIeBJJfJe6HGzkj6D0lBDqkNG-oJI_gRCaGwMvTr_y-oNBw4QT6WlbYWNplaI8f0W0GCcXP8TKompdMqaes5hJH-CwvOQ5o1AngleT2OPdJghL2NXXdRkrPAObW9o7r1wVZ3xDlYfJHttLds9yLDXFMf8O5DIdT4sD5Eo09rZb4eCFrTJY81LVbpGqyjB7y5nVMQ3wIrHGk5uQDTaUqyjcVokpdW7j93zwFnAhorr_2BmtXax4dkXqfX6hidFDZlACfd4cswdToVX31-NYsehu1hXKCg3aoeqlWo6Xgt0sJrvmLyIqv3yIILVO8iTBkg3ESGkX77xBt0_bpXnhjzd0nXhfWw8ElrEXbOw9r9OnMAX2zcR8BU56p2oZBfADZ_iKFbHTylj7Uikqdo4-uazAaicnJsbYd6uJ_b8cREdUk3kBmNUj7Quin91d1gI9E0k_AkkmmlvBMDSNNver1yZtxv0lIJs2OTEZqD-KyXlqWKsAN5lSMnNpvw0ybuOjzWNaZVjLA5CeI-rEfqjk9o4nLIPstcsCO8bufXoosOK3oDuw7jbFOUwZTOuB26F_xUdPwRBBIRTQ968k9c-fIQdPMU7-7rfD6k_y0]--></g></svg>