<?xml version="1.0" encoding="us-ascii" standalone="no"?><svg xmlns="http://www.w3.org/2000/svg" xmlns:xlink="http://www.w3.org/1999/xlink" contentStyleType="text/css" height="283px" preserveAspectRatio="none" style="width:494px;height:283px;background:#FFFFFF;" version="1.1" viewBox="0 0 494 283" width="494px" zoomAndPan="magnify"><defs/><g><!--class frc.robot.subsystems.Vision--><a href="Vision.html" target="_top" title="Vision.html" xlink:actuate="onRequest" xlink:href="Vision.html" xlink:show="new" xlink:title="Vision.html" xlink:type="simple"><g id="elem_frc.robot.subsystems.Vision"><rect codeLine="5" fill="#F1F1F1" height="146.0275" id="frc.robot.subsystems.Vision" rx="2.5" ry="2.5" style="stroke:#181818;stroke-width:0.5;" width="480" x="7" y="109.69"/><ellipse cx="192.75" cy="131.034" fill="#ADD1B2" rx="11" ry="11" style="stroke:#181818;stroke-width:1.0;"/><path d="M192.2188,137.9558 Q190.4688,137.9558 189.3281,137.2215 Q188.2031,136.4715 187.6406,135.1277 Q187.0938,133.7683 187.0938,131.9715 Q187.0938,129.9402 187.75,128.4871 Q188.4063,127.034 189.6875,126.2527 Q190.9688,125.4715 192.8438,125.4715 Q193.7344,125.4715 194.4063,125.659 Q195.0781,125.8308 195.7656,126.1746 L194.9531,128.1902 Q194.3281,127.8777 193.7813,127.7527 Q193.25,127.6277 192.7656,127.6277 Q191.5938,127.6277 190.8906,128.159 Q190.1875,128.6902 189.8906,129.6433 Q189.5938,130.5965 189.5938,131.8621 Q189.5938,133.8777 190.3125,134.8465 Q191.0313,135.7996 192.625,135.7996 Q193.2188,135.7996 193.8438,135.6433 Q194.4688,135.4871 195.2969,135.1121 L195.2969,137.3308 Q194.5625,137.6433 193.7656,137.7996 Q192.9844,137.9558 192.2188,137.9558 Z " fill="#000000"/><text fill="#000000" font-family="sans-serif" font-size="14" lengthAdjust="spacing" textLength="40" x="243.25" y="129.6559">Vision</text><text fill="#000000" font-family="sans-serif" font-size="10" lengthAdjust="spacing" textLength="100" x="213.25" y="144.4479">frc.robot.subsystems</text><line style="stroke:#181818;stroke-width:0.5;" x1="8" x2="486" y1="152.3779" y2="152.3779"/><ellipse cx="18" cy="167.4119" fill="#84BE84" rx="3" ry="3" style="stroke:#038048;stroke-width:1.0;"/><text fill="#000000" font-family="sans-serif" font-size="14" lengthAdjust="spacing" text-decoration="underline" textLength="136" x="27" y="171.3438">getInstance(): Vision</text><ellipse cx="18" cy="186.4798" fill="#84BE84" rx="3" ry="3" style="stroke:#038048;stroke-width:1.0;"/><text fill="#000000" font-family="sans-serif" font-size="14" lengthAdjust="spacing" textLength="454" x="27" y="190.4118">frontCamGetEstimatedGlobalPose(): Optional&lt;EstimatedRobotPose&gt;</text><ellipse cx="18" cy="205.5477" fill="#84BE84" rx="3" ry="3" style="stroke:#038048;stroke-width:1.0;"/><text fill="#000000" font-family="sans-serif" font-size="14" lengthAdjust="spacing" textLength="452" x="27" y="209.4797">backCamGetEstimatedGlobalPose(): Optional&lt;EstimatedRobotPose&gt;</text><ellipse cx="18" cy="224.6156" fill="#84BE84" rx="3" ry="3" style="stroke:#038048;stroke-width:1.0;"/><text fill="#000000" font-family="sans-serif" font-size="14" lengthAdjust="spacing" textLength="303" x="27" y="228.5476">getFrontEstimationStdDevs(): Matrix&lt;N3, N1&gt;</text><ellipse cx="18" cy="243.6835" fill="#84BE84" rx="3" ry="3" style="stroke:#038048;stroke-width:1.0;"/><text fill="#000000" font-family="sans-serif" font-size="14" lengthAdjust="spacing" textLength="299" x="27" y="247.6155">getBackEstimationStdDevs(): Matrix&lt;N3, N1&gt;</text></g></a><!--class edu.wpi.first.wpilibj2.command.SubsystemBase--><g id="elem_edu.wpi.first.wpilibj2.command.SubsystemBase"><rect codeLine="13" fill="#F1F1F1" height="42.6879" id="edu.wpi.first.wpilibj2.command.SubsystemBase" rx="2.5" ry="2.5" style="stroke:#181818;stroke-width:0.5;" width="178" x="158" y="7"/><ellipse cx="173" cy="28.344" fill="#A9DCDF" rx="11" ry="11" style="stroke:#181818;stroke-width:1.0;"/><path d="M168.1719,34.094 L171.5156,21.9065 L174.6563,21.9065 L178.0313,34.094 L175.5625,34.094 L174.8281,31.0783 L171.3125,31.0783 L170.5625,34.094 L168.1719,34.094 Z M172.5781,26.0471 L171.8281,29.0471 L174.3438,29.0471 L173.625,26.0471 Q173.4844,25.469 173.3594,24.9221 Q173.2344,24.3596 173.0938,23.7815 Q172.9844,24.3596 172.8438,24.9221 Q172.7031,25.469 172.5781,26.0471 Z " fill="#000000"/><text fill="#000000" font-family="sans-serif" font-size="14" font-style="italic" lengthAdjust="spacing" textLength="95" x="212.5" y="26.9659">SubsystemBase</text><text fill="#000000" font-family="sans-serif" font-size="10" font-style="italic" lengthAdjust="spacing" textLength="146" x="187" y="41.7579">edu.wpi.first.wpilibj2.command</text></g><!--reverse link edu.wpi.first.wpilibj2.command.SubsystemBase to frc.robot.subsystems.Vision--><g id="link_edu.wpi.first.wpilibj2.command.SubsystemBase_frc.robot.subsystems.Vision"><path codeLine="15" d="M247,67.9 C247,83.41 247,87.69 247,109.53 " fill="none" id="edu.wpi.first.wpilibj2.command.SubsystemBase-backto-frc.robot.subsystems.Vision" style="stroke:#181818;stroke-width:1.0;"/><polygon fill="none" points="247,49.9,241,67.9,253,67.9,247,49.9" style="stroke:#181818;stroke-width:1.0;"/></g><text fill="#888888" font-family="sans-serif" font-size="10" lengthAdjust="spacing" textLength="176" x="152" y="272.4075">UMLDoclet 2.1.2, PlantUML 1.2024.3</text><!--SRC=[hP9BImD13CVlVeeW21RjOAkdilJW4y5giUX5FMHditPq7iiarcU_kxDThKz4mRbCvf_yaZ09002JW4T7NA6c4LKOKK847pmj93UCJK50hf9xA0tPWZ-hZcGSaZpJjKLcMCpOF52liz4_DMo2F_Slmbg_Z5h5a0THV9FpFGivNWHa-CwX6XpEpXf3ZSNPYmjudDMgpoCBYj5JMBaasVVfvJKjjthG0FEubJ86BrlezaXsM8n3eMBFXXpjCF2CEAea4MYpkV-uRgTszz_ovAYl_o5DwdQtxkWbA14ZARPfmdMA0KeqTzdX-YeSTZv2cwdyRvbfCnBCMI9g-JARqUi_RoBJkn5HSQDkAwDA4rbgovhyggjqS0vzCHlMpo7gG-QcYxyGa3srspyjHBDgv8KYb27KrydWO3jecvQvgpggkmf3YrwI2aiJYZMqt7e6]--></g></svg>